solid OpenSCAD_Model
  facet normal 1 -0 0
    outer loop
      vertex 34.626 -6.8 20
      vertex 34.626 -3 0
      vertex 34.626 -3 20
    endloop
  endfacet
  facet normal 1 0 0
    outer loop
      vertex 34.626 -3 0
      vertex 34.626 -6.8 20
      vertex 34.626 -6.8 0
    endloop
  endfacet
  facet normal 1 -0 0
    outer loop
      vertex 34.626 5.2 20
      vertex 34.626 9 0
      vertex 34.626 9 20
    endloop
  endfacet
  facet normal 1 0 0
    outer loop
      vertex 34.626 9 0
      vertex 34.626 5.2 20
      vertex 34.626 5.2 0
    endloop
  endfacet
  facet normal 0 0 1
    outer loop
      vertex 34.626 9 20
      vertex 20 5.2 20
      vertex 34.626 5.2 20
    endloop
  endfacet
  facet normal 0 0 1
    outer loop
      vertex 20 5.2 20
      vertex 14.726 9 20
      vertex 20 -3 20
    endloop
  endfacet
  facet normal -0 0 1
    outer loop
      vertex 14.726 9 20
      vertex 20 5.2 20
      vertex 34.626 9 20
    endloop
  endfacet
  facet normal -0 0 1
    outer loop
      vertex 20 -3 20
      vertex 34.626 -6.8 20
      vertex 34.626 -3 20
    endloop
  endfacet
  facet normal 0 0 1
    outer loop
      vertex 20 -3 20
      vertex 14.726 -6.8 20
      vertex 34.626 -6.8 20
    endloop
  endfacet
  facet normal 0 0 1
    outer loop
      vertex 14.726 -6.8 20
      vertex 20 -3 20
      vertex 14.726 9 20
    endloop
  endfacet
  facet normal 0 1 -0
    outer loop
      vertex 34.626 9 0
      vertex 14.726 9 20
      vertex 34.626 9 20
    endloop
  endfacet
  facet normal 0 1 0
    outer loop
      vertex 14.726 9 20
      vertex 34.626 9 0
      vertex 9 9 9
    endloop
  endfacet
  facet normal 0 1 0
    outer loop
      vertex 9 9 9
      vertex 34.626 9 0
      vertex 0 9 0
    endloop
  endfacet
  facet normal 0 1 0
    outer loop
      vertex 14.726 9 20
      vertex 9 9 9
      vertex 3.72599 9 9
    endloop
  endfacet
  facet normal 0 0 -1
    outer loop
      vertex 34.626 -6.8 0
      vertex 4.5639e-07 -3 0
      vertex 34.626 -3 0
    endloop
  endfacet
  facet normal 0 0 -1
    outer loop
      vertex -5.27401 0 0
      vertex 4.5639e-07 5.2 0
      vertex 4.5639e-07 -3 0
    endloop
  endfacet
  facet normal 0 0 -1
    outer loop
      vertex -5.27401 -6.8 0
      vertex 4.5639e-07 -3 0
      vertex 34.626 -6.8 0
    endloop
  endfacet
  facet normal 0 0 -1
    outer loop
      vertex -5.27401 0 0
      vertex 4.5639e-07 -3 0
      vertex -5.27401 -6.8 0
    endloop
  endfacet
  facet normal -0 0 -1
    outer loop
      vertex 4.5639e-07 5.2 0
      vertex -5.27401 0 0
      vertex 0 9 0
    endloop
  endfacet
  facet normal 0 0 -1
    outer loop
      vertex -5.27401 0 0
      vertex -40.9 9 0
      vertex 0 9 0
    endloop
  endfacet
  facet normal 0 0 -1
    outer loop
      vertex -41 0.00174551 0
      vertex -5.27401 0 0
      vertex -41 0 0
    endloop
  endfacet
  facet normal 0 0 -1
    outer loop
      vertex -5.27401 0 0
      vertex -41 0.00174551 0
      vertex -40.9 9 0
    endloop
  endfacet
  facet normal 0 0 -1
    outer loop
      vertex -41 0.00174551 0
      vertex -42.8195 9.03351 0
      vertex -40.9 9 0
    endloop
  endfacet
  facet normal 0 0 -1
    outer loop
      vertex -43.1336 0.0389872 0
      vertex -42.8195 9.03351 0
      vertex -41 0.00174551 0
    endloop
  endfacet
  facet normal 0 0 -1
    outer loop
      vertex -43.1336 0.0389872 0
      vertex -44.7366 9.13398 0
      vertex -42.8195 9.03351 0
    endloop
  endfacet
  facet normal 0 0 -1
    outer loop
      vertex -45.3644 0.155901 0
      vertex -44.7366 9.13398 0
      vertex -43.1336 0.0389872 0
    endloop
  endfacet
  facet normal 0 0 -1
    outer loop
      vertex -45.3644 0.155901 0
      vertex -46.6491 9.3013 0
      vertex -44.7366 9.13398 0
    endloop
  endfacet
  facet normal 0 0 -1
    outer loop
      vertex -47.5898 0.350599 0
      vertex -46.6491 9.3013 0
      vertex -45.3644 0.155901 0
    endloop
  endfacet
  facet normal 0 0 -1
    outer loop
      vertex -47.5898 0.350599 0
      vertex -48.5545 9.53526 0
      vertex -46.6491 9.3013 0
    endloop
  endfacet
  facet normal 0 0 -1
    outer loop
      vertex -49.8071 0.622844 0
      vertex -48.5545 9.53526 0
      vertex -47.5898 0.350599 0
    endloop
  endfacet
  facet normal 0 0 -1
    outer loop
      vertex -49.8071 0.622844 0
      vertex -50.4506 9.83557 0
      vertex -48.5545 9.53526 0
    endloop
  endfacet
  facet normal 0 0 -1
    outer loop
      vertex -52.0135 0.972304 0
      vertex -50.4506 9.83557 0
      vertex -49.8071 0.622844 0
    endloop
  endfacet
  facet normal 0 0 -1
    outer loop
      vertex -52.0135 0.972304 0
      vertex -52.3351 10.2019 0
      vertex -50.4506 9.83557 0
    endloop
  endfacet
  facet normal 0 0 -1
    outer loop
      vertex -54.2063 1.39855 0
      vertex -52.3351 10.2019 0
      vertex -52.0135 0.972304 0
    endloop
  endfacet
  facet normal -0 0 -1
    outer loop
      vertex -52.3351 10.2019 0
      vertex -54.2063 1.39855 0
      vertex -54.2057 10.6337 0
    endloop
  endfacet
  facet normal 0 0 -1
    outer loop
      vertex -56.383 1.90107 0
      vertex -54.2057 10.6337 0
      vertex -54.2063 1.39855 0
    endloop
  endfacet
  facet normal -0 0 -1
    outer loop
      vertex -54.2057 10.6337 0
      vertex -56.383 1.90107 0
      vertex -56.0601 11.1306 0
    endloop
  endfacet
  facet normal 0 0 -1
    outer loop
      vertex -58.5408 2.47925 0
      vertex -56.0601 11.1306 0
      vertex -56.383 1.90107 0
    endloop
  endfacet
  facet normal -0 0 -1
    outer loop
      vertex -56.0601 11.1306 0
      vertex -58.5408 2.47925 0
      vertex -57.8959 11.6919 0
    endloop
  endfacet
  facet normal 0 0 -1
    outer loop
      vertex -60.6771 3.13238 0
      vertex -57.8959 11.6919 0
      vertex -58.5408 2.47925 0
    endloop
  endfacet
  facet normal -0 0 -1
    outer loop
      vertex -57.8959 11.6919 0
      vertex -60.6771 3.13238 0
      vertex -59.7111 12.3169 0
    endloop
  endfacet
  facet normal 0 0 -1
    outer loop
      vertex -62.7893 3.85967 0
      vertex -59.7111 12.3169 0
      vertex -60.6771 3.13238 0
    endloop
  endfacet
  facet normal -0 0 -1
    outer loop
      vertex -59.7111 12.3169 0
      vertex -62.7893 3.85967 0
      vertex -61.5034 13.0049 0
    endloop
  endfacet
  facet normal 0 0 -1
    outer loop
      vertex -64.8748 4.66023 0
      vertex -61.5034 13.0049 0
      vertex -62.7893 3.85967 0
    endloop
  endfacet
  facet normal -0 0 -1
    outer loop
      vertex -61.5034 13.0049 0
      vertex -64.8748 4.66023 0
      vertex -63.2705 13.755 0
    endloop
  endfacet
  facet normal 0 0 -1
    outer loop
      vertex -66.9311 5.53309 0
      vertex -63.2705 13.755 0
      vertex -64.8748 4.66023 0
    endloop
  endfacet
  facet normal -0 0 -1
    outer loop
      vertex -63.2705 13.755 0
      vertex -66.9311 5.53309 0
      vertex -65.0104 14.5663 0
    endloop
  endfacet
  facet normal 0 0 -1
    outer loop
      vertex -68.9557 6.47718 0
      vertex -65.0104 14.5663 0
      vertex -66.9311 5.53309 0
    endloop
  endfacet
  facet normal -0 0 -1
    outer loop
      vertex -65.0104 14.5663 0
      vertex -68.9557 6.47718 0
      vertex -66.7209 15.4379 0
    endloop
  endfacet
  facet normal 0 0 -1
    outer loop
      vertex -70.9462 7.49135 0
      vertex -66.7209 15.4379 0
      vertex -68.9557 6.47718 0
    endloop
  endfacet
  facet normal -0 0 -1
    outer loop
      vertex -66.7209 15.4379 0
      vertex -70.9462 7.49135 0
      vertex -68.4 16.3686 0
    endloop
  endfacet
  facet normal 0 0 -1
    outer loop
      vertex -72.9 8.57437 0
      vertex -68.4 16.3686 0
      vertex -70.9462 7.49135 0
    endloop
  endfacet
  facet normal -0 0 -1
    outer loop
      vertex -68.4 16.3686 0
      vertex -72.9 8.57437 0
      vertex -70.0456 17.3574 0
    endloop
  endfacet
  facet normal 0 0 -1
    outer loop
      vertex -74.8148 9.72492 0
      vertex -70.0456 17.3574 0
      vertex -72.9 8.57437 0
    endloop
  endfacet
  facet normal -0 0 -1
    outer loop
      vertex -70.0456 17.3574 0
      vertex -74.8148 9.72492 0
      vertex -71.6556 18.4029 0
    endloop
  endfacet
  facet normal 0 0 -1
    outer loop
      vertex -76.6883 10.9416 0
      vertex -71.6556 18.4029 0
      vertex -74.8148 9.72492 0
    endloop
  endfacet
  facet normal -0 0 -1
    outer loop
      vertex -71.6556 18.4029 0
      vertex -76.6883 10.9416 0
      vertex -73.2282 19.5041 0
    endloop
  endfacet
  facet normal 0 0 -1
    outer loop
      vertex -78.5183 12.2229 0
      vertex -73.2282 19.5041 0
      vertex -76.6883 10.9416 0
    endloop
  endfacet
  facet normal -0 0 -1
    outer loop
      vertex -73.2282 19.5041 0
      vertex -78.5183 12.2229 0
      vertex -74.7614 20.6594 0
    endloop
  endfacet
  facet normal 0 0 -1
    outer loop
      vertex -80.3023 13.5673 0
      vertex -74.7614 20.6594 0
      vertex -78.5183 12.2229 0
    endloop
  endfacet
  facet normal -0 0 -1
    outer loop
      vertex -74.7614 20.6594 0
      vertex -80.3023 13.5673 0
      vertex -76.2533 21.8676 0
    endloop
  endfacet
  facet normal 0 0 -1
    outer loop
      vertex -82.0384 14.9732 0
      vertex -76.2533 21.8676 0
      vertex -80.3023 13.5673 0
    endloop
  endfacet
  facet normal -0 0 -1
    outer loop
      vertex -76.2533 21.8676 0
      vertex -82.0384 14.9732 0
      vertex -77.7022 23.127 0
    endloop
  endfacet
  facet normal 0 0 -1
    outer loop
      vertex -83.7244 16.4387 0
      vertex -77.7022 23.127 0
      vertex -82.0384 14.9732 0
    endloop
  endfacet
  facet normal -0 0 -1
    outer loop
      vertex -77.7022 23.127 0
      vertex -83.7244 16.4387 0
      vertex -79.1062 24.4363 0
    endloop
  endfacet
  facet normal 0 0 -1
    outer loop
      vertex -85.3581 17.9623 0
      vertex -79.1062 24.4363 0
      vertex -83.7244 16.4387 0
    endloop
  endfacet
  facet normal -0 0 -1
    outer loop
      vertex -79.1062 24.4363 0
      vertex -85.3581 17.9623 0
      vertex -80.4637 25.7938 0
    endloop
  endfacet
  facet normal 0 0 -1
    outer loop
      vertex -86.9377 19.5419 0
      vertex -80.4637 25.7938 0
      vertex -85.3581 17.9623 0
    endloop
  endfacet
  facet normal -0 0 -1
    outer loop
      vertex -80.4637 25.7938 0
      vertex -86.9377 19.5419 0
      vertex -81.773 27.1978 0
    endloop
  endfacet
  facet normal 0 0 -1
    outer loop
      vertex -88.4613 21.1756 0
      vertex -81.773 27.1978 0
      vertex -86.9377 19.5419 0
    endloop
  endfacet
  facet normal -0 0 -1
    outer loop
      vertex -81.773 27.1978 0
      vertex -88.4613 21.1756 0
      vertex -83.0324 28.6467 0
    endloop
  endfacet
  facet normal 0 0 -1
    outer loop
      vertex -89.9268 22.8616 0
      vertex -83.0324 28.6467 0
      vertex -88.4613 21.1756 0
    endloop
  endfacet
  facet normal -0 0 -1
    outer loop
      vertex -83.0324 28.6467 0
      vertex -89.9268 22.8616 0
      vertex -84.2406 30.1386 0
    endloop
  endfacet
  facet normal 0 0 -1
    outer loop
      vertex -91.3327 24.5977 0
      vertex -84.2406 30.1386 0
      vertex -89.9268 22.8616 0
    endloop
  endfacet
  facet normal -0 0 -1
    outer loop
      vertex -84.2406 30.1386 0
      vertex -91.3327 24.5977 0
      vertex -85.3959 31.6718 0
    endloop
  endfacet
  facet normal 0 0 -1
    outer loop
      vertex -92.6771 26.3817 0
      vertex -85.3959 31.6718 0
      vertex -91.3327 24.5977 0
    endloop
  endfacet
  facet normal -0 0 -1
    outer loop
      vertex -85.3959 31.6718 0
      vertex -92.6771 26.3817 0
      vertex -86.4971 33.2444 0
    endloop
  endfacet
  facet normal 0 0 -1
    outer loop
      vertex -93.9584 28.2117 0
      vertex -86.4971 33.2444 0
      vertex -92.6771 26.3817 0
    endloop
  endfacet
  facet normal -0 0 -1
    outer loop
      vertex -86.4971 33.2444 0
      vertex -93.9584 28.2117 0
      vertex -87.5426 34.8544 0
    endloop
  endfacet
  facet normal 0 0 -1
    outer loop
      vertex -95.1751 30.0852 0
      vertex -87.5426 34.8544 0
      vertex -93.9584 28.2117 0
    endloop
  endfacet
  facet normal -0 0 -1
    outer loop
      vertex -87.5426 34.8544 0
      vertex -95.1751 30.0852 0
      vertex -88.5314 36.5 0
    endloop
  endfacet
  facet normal 0 0 -1
    outer loop
      vertex -96.3256 32 0
      vertex -88.5314 36.5 0
      vertex -95.1751 30.0852 0
    endloop
  endfacet
  facet normal -0 0 -1
    outer loop
      vertex -88.5314 36.5 0
      vertex -96.3256 32 0
      vertex -89.4621 38.1791 0
    endloop
  endfacet
  facet normal 0 0 -1
    outer loop
      vertex -97.4086 33.9538 0
      vertex -89.4621 38.1791 0
      vertex -96.3256 32 0
    endloop
  endfacet
  facet normal -0 0 -1
    outer loop
      vertex -89.4621 38.1791 0
      vertex -97.4086 33.9538 0
      vertex -90.3337 39.8896 0
    endloop
  endfacet
  facet normal 0 0 -1
    outer loop
      vertex -98.4228 35.9442 0
      vertex -90.3337 39.8896 0
      vertex -97.4086 33.9538 0
    endloop
  endfacet
  facet normal -0 0 -1
    outer loop
      vertex -90.3337 39.8896 0
      vertex -98.4228 35.9442 0
      vertex -91.145 41.6295 0
    endloop
  endfacet
  facet normal 0 0 -1
    outer loop
      vertex -99.3669 37.9689 0
      vertex -91.145 41.6295 0
      vertex -98.4228 35.9442 0
    endloop
  endfacet
  facet normal -0 0 -1
    outer loop
      vertex -91.145 41.6295 0
      vertex -99.3669 37.9689 0
      vertex -91.8951 43.3966 0
    endloop
  endfacet
  facet normal 0 0 -1
    outer loop
      vertex -100.24 40.0252 0
      vertex -91.8951 43.3966 0
      vertex -99.3669 37.9689 0
    endloop
  endfacet
  facet normal -0 0 -1
    outer loop
      vertex -91.8951 43.3966 0
      vertex -100.24 40.0252 0
      vertex -92.5831 45.1889 0
    endloop
  endfacet
  facet normal 0 0 -1
    outer loop
      vertex -101.04 42.1107 0
      vertex -92.5831 45.1889 0
      vertex -100.24 40.0252 0
    endloop
  endfacet
  facet normal -0 0 -1
    outer loop
      vertex -92.5831 45.1889 0
      vertex -101.04 42.1107 0
      vertex -93.2081 47.0041 0
    endloop
  endfacet
  facet normal 0 0 -1
    outer loop
      vertex -101.768 44.2229 0
      vertex -93.2081 47.0041 0
      vertex -101.04 42.1107 0
    endloop
  endfacet
  facet normal -0 0 -1
    outer loop
      vertex -93.2081 47.0041 0
      vertex -101.768 44.2229 0
      vertex -93.7694 48.8399 0
    endloop
  endfacet
  facet normal 0 0 -1
    outer loop
      vertex -95.8665 62.0805 0
      vertex -96 64 0
      vertex -95.9 64 0
    endloop
  endfacet
  facet normal 0 0 -1
    outer loop
      vertex -102.421 46.3592 0
      vertex -93.7694 48.8399 0
      vertex -101.768 44.2229 0
    endloop
  endfacet
  facet normal -0 0 -1
    outer loop
      vertex -93.7694 48.8399 0
      vertex -102.421 46.3592 0
      vertex -94.2663 50.6943 0
    endloop
  endfacet
  facet normal 0 0 -1
    outer loop
      vertex -102.999 48.517 0
      vertex -94.2663 50.6943 0
      vertex -102.421 46.3592 0
    endloop
  endfacet
  facet normal -0 0 -1
    outer loop
      vertex -94.2663 50.6943 0
      vertex -102.999 48.517 0
      vertex -94.6981 52.5649 0
    endloop
  endfacet
  facet normal 0 0 -1
    outer loop
      vertex -103.501 50.6937 0
      vertex -94.6981 52.5649 0
      vertex -102.999 48.517 0
    endloop
  endfacet
  facet normal -0 0 -1
    outer loop
      vertex -94.6981 52.5649 0
      vertex -103.501 50.6937 0
      vertex -95.0644 54.4493 0
    endloop
  endfacet
  facet normal 0 0 -1
    outer loop
      vertex -103.928 52.8865 0
      vertex -95.0644 54.4493 0
      vertex -103.501 50.6937 0
    endloop
  endfacet
  facet normal -0 0 -1
    outer loop
      vertex -95.0644 54.4493 0
      vertex -103.928 52.8865 0
      vertex -95.3647 56.3455 0
    endloop
  endfacet
  facet normal 0 0 -1
    outer loop
      vertex -104.277 55.0929 0
      vertex -95.3647 56.3455 0
      vertex -103.928 52.8865 0
    endloop
  endfacet
  facet normal -0 0 -1
    outer loop
      vertex -95.3647 56.3455 0
      vertex -104.277 55.0929 0
      vertex -95.5987 58.2509 0
    endloop
  endfacet
  facet normal 0 0 -1
    outer loop
      vertex -104.549 57.3102 0
      vertex -95.5987 58.2509 0
      vertex -104.277 55.0929 0
    endloop
  endfacet
  facet normal -0 0 -1
    outer loop
      vertex -95.5987 58.2509 0
      vertex -104.549 57.3102 0
      vertex -95.766 60.1634 0
    endloop
  endfacet
  facet normal 0 0 -1
    outer loop
      vertex -104.744 59.5356 0
      vertex -95.766 60.1634 0
      vertex -104.549 57.3102 0
    endloop
  endfacet
  facet normal -0 0 -1
    outer loop
      vertex -95.766 60.1634 0
      vertex -104.744 59.5356 0
      vertex -95.8665 62.0805 0
    endloop
  endfacet
  facet normal 0 0 -1
    outer loop
      vertex -104.861 61.7664 0
      vertex -95.8665 62.0805 0
      vertex -104.744 59.5356 0
    endloop
  endfacet
  facet normal -0 0 -1
    outer loop
      vertex -95.8665 62.0805 0
      vertex -104.861 61.7664 0
      vertex -96 64 0
    endloop
  endfacet
  facet normal 0 0 -1
    outer loop
      vertex -104.898 63.9 0
      vertex -96 64 0
      vertex -104.861 61.7664 0
    endloop
  endfacet
  facet normal -0 0 -1
    outer loop
      vertex -96 64 0
      vertex -104.898 63.9 0
      vertex -96 76.9 0
    endloop
  endfacet
  facet normal 0 0 -1
    outer loop
      vertex -105 76.9 0
      vertex -104.898 63.9 0
      vertex -105 63.9 0
    endloop
  endfacet
  facet normal 0 0 -1
    outer loop
      vertex -104.898 63.9 0
      vertex -105 76.9 0
      vertex -96 76.9 0
    endloop
  endfacet
  facet normal 0 0 -1
    outer loop
      vertex 4.5639e-07 5.2 0
      vertex 34.626 9 0
      vertex 34.626 5.2 0
    endloop
  endfacet
  facet normal -0 0 -1
    outer loop
      vertex 34.626 9 0
      vertex 4.5639e-07 5.2 0
      vertex 0 9 0
    endloop
  endfacet
  facet normal 0 -1 0
    outer loop
      vertex 34.626 -6.8 0
      vertex 14.726 -6.8 20
      vertex -5.27401 -6.8 0
    endloop
  endfacet
  facet normal 0 -1 0
    outer loop
      vertex 14.726 -6.8 20
      vertex 34.626 -6.8 0
      vertex 34.626 -6.8 20
    endloop
  endfacet
  facet normal -0.707107 0 0.707107
    outer loop
      vertex -5.27401 0 0
      vertex -5.27401 -6.8 0
      vertex 3.72599 0 9
    endloop
  endfacet
  facet normal -0.707107 0 0.707107
    outer loop
      vertex 3.72599 0 9
      vertex 14.726 9 20
      vertex 3.72599 9 9
    endloop
  endfacet
  facet normal -0.707107 0 0.707107
    outer loop
      vertex 3.72599 0 9
      vertex 14.726 -6.8 20
      vertex 14.726 9 20
    endloop
  endfacet
  facet normal -0.707107 2.47923e-09 0.707107
    outer loop
      vertex 14.726 -6.8 20
      vertex 3.72599 0 9
      vertex -5.27401 -6.8 0
    endloop
  endfacet
  facet normal 0.707107 0 -0.707107
    outer loop
      vertex 20 -3 20
      vertex 4.5639e-07 5.2 0
      vertex 20 5.2 20
    endloop
  endfacet
  facet normal 0.707107 0 -0.707107
    outer loop
      vertex 4.5639e-07 5.2 0
      vertex 20 -3 20
      vertex 4.5639e-07 -3 0
    endloop
  endfacet
  facet normal 0 1 -0
    outer loop
      vertex 34.626 -3 0
      vertex 20 -3 20
      vertex 34.626 -3 20
    endloop
  endfacet
  facet normal 0 1 0
    outer loop
      vertex 20 -3 20
      vertex 34.626 -3 0
      vertex 4.5639e-07 -3 0
    endloop
  endfacet
  facet normal 0 -1 0
    outer loop
      vertex 34.626 5.2 0
      vertex 20 5.2 20
      vertex 4.5639e-07 5.2 0
    endloop
  endfacet
  facet normal 0 -1 0
    outer loop
      vertex 20 5.2 20
      vertex 34.626 5.2 0
      vertex 34.626 5.2 20
    endloop
  endfacet
  facet normal 0 0 1
    outer loop
      vertex -104.898 63.9 9
      vertex -96 64 9
      vertex -96 76.9 9
    endloop
  endfacet
  facet normal 0 0 1
    outer loop
      vertex -96 64 9
      vertex -97.4086 33.9538 9
      vertex -96.3256 32 9
    endloop
  endfacet
  facet normal 0 0 1
    outer loop
      vertex -96 64 9
      vertex -98.4228 35.9442 9
      vertex -97.4086 33.9538 9
    endloop
  endfacet
  facet normal 0 0 1
    outer loop
      vertex -96 64 9
      vertex -99.3669 37.9689 9
      vertex -98.4228 35.9442 9
    endloop
  endfacet
  facet normal 0 0 1
    outer loop
      vertex -96 64 9
      vertex -100.24 40.0252 9
      vertex -99.3669 37.9689 9
    endloop
  endfacet
  facet normal 0 0 1
    outer loop
      vertex -96 64 9
      vertex -101.04 42.1107 9
      vertex -100.24 40.0252 9
    endloop
  endfacet
  facet normal 0 0 1
    outer loop
      vertex -96 64 9
      vertex -101.768 44.2229 9
      vertex -101.04 42.1107 9
    endloop
  endfacet
  facet normal 0 0 1
    outer loop
      vertex -96 64 9
      vertex -102.421 46.3592 9
      vertex -101.768 44.2229 9
    endloop
  endfacet
  facet normal 0 0 1
    outer loop
      vertex -96 64 9
      vertex -102.999 48.517 9
      vertex -102.421 46.3592 9
    endloop
  endfacet
  facet normal 0 0 1
    outer loop
      vertex -96 64 9
      vertex -103.501 50.6937 9
      vertex -102.999 48.517 9
    endloop
  endfacet
  facet normal 0 0 1
    outer loop
      vertex -96 64 9
      vertex -103.928 52.8865 9
      vertex -103.501 50.6937 9
    endloop
  endfacet
  facet normal 0 0 1
    outer loop
      vertex -96 64 9
      vertex -104.277 55.0929 9
      vertex -103.928 52.8865 9
    endloop
  endfacet
  facet normal 0 0 1
    outer loop
      vertex -96 64 9
      vertex -104.549 57.3102 9
      vertex -104.277 55.0929 9
    endloop
  endfacet
  facet normal 0 0 1
    outer loop
      vertex -96 64 9
      vertex -104.744 59.5356 9
      vertex -104.549 57.3102 9
    endloop
  endfacet
  facet normal 0 0 1
    outer loop
      vertex -96 64 9
      vertex -104.861 61.7664 9
      vertex -104.744 59.5356 9
    endloop
  endfacet
  facet normal 0 0 1
    outer loop
      vertex -96 64 9
      vertex -104.898 63.9 9
      vertex -104.861 61.7664 9
    endloop
  endfacet
  facet normal -0 0 1
    outer loop
      vertex -105 76.9 9
      vertex -104.898 63.9 9
      vertex -96 76.9 9
    endloop
  endfacet
  facet normal 0 0 1
    outer loop
      vertex -104.898 63.9 9
      vertex -105 76.9 9
      vertex -105 63.9 9
    endloop
  endfacet
  facet normal 0 0 1
    outer loop
      vertex -42.8195 9.03351 9
      vertex -41 0.00174551 9
      vertex -40.9 9 9
    endloop
  endfacet
  facet normal 0 0 1
    outer loop
      vertex -42.8195 9.03351 9
      vertex -43.1336 0.0389872 9
      vertex -41 0.00174551 9
    endloop
  endfacet
  facet normal 0 0 1
    outer loop
      vertex -44.7366 9.13398 9
      vertex -43.1336 0.0389872 9
      vertex -42.8195 9.03351 9
    endloop
  endfacet
  facet normal 0 0 1
    outer loop
      vertex -44.7366 9.13398 9
      vertex -45.3644 0.155901 9
      vertex -43.1336 0.0389872 9
    endloop
  endfacet
  facet normal 0 0 1
    outer loop
      vertex -46.6491 9.3013 9
      vertex -45.3644 0.155901 9
      vertex -44.7366 9.13398 9
    endloop
  endfacet
  facet normal 0 0 1
    outer loop
      vertex -46.6491 9.3013 9
      vertex -47.5898 0.350599 9
      vertex -45.3644 0.155901 9
    endloop
  endfacet
  facet normal 0 0 1
    outer loop
      vertex -48.5545 9.53526 9
      vertex -47.5898 0.350599 9
      vertex -46.6491 9.3013 9
    endloop
  endfacet
  facet normal 0 0 1
    outer loop
      vertex -48.5545 9.53526 9
      vertex -49.8071 0.622844 9
      vertex -47.5898 0.350599 9
    endloop
  endfacet
  facet normal 0 0 1
    outer loop
      vertex -50.4506 9.83557 9
      vertex -49.8071 0.622844 9
      vertex -48.5545 9.53526 9
    endloop
  endfacet
  facet normal 0 0 1
    outer loop
      vertex -50.4506 9.83557 9
      vertex -52.0135 0.972304 9
      vertex -49.8071 0.622844 9
    endloop
  endfacet
  facet normal 0 0 1
    outer loop
      vertex -52.3351 10.2019 9
      vertex -52.0135 0.972304 9
      vertex -50.4506 9.83557 9
    endloop
  endfacet
  facet normal 0 0 1
    outer loop
      vertex -54.2063 1.39855 9
      vertex -52.3351 10.2019 9
      vertex -54.2057 10.6337 9
    endloop
  endfacet
  facet normal 0 0 1
    outer loop
      vertex -52.3351 10.2019 9
      vertex -54.2063 1.39855 9
      vertex -52.0135 0.972304 9
    endloop
  endfacet
  facet normal 0 0 1
    outer loop
      vertex -56.383 1.90107 9
      vertex -54.2057 10.6337 9
      vertex -56.0601 11.1306 9
    endloop
  endfacet
  facet normal 0 0 1
    outer loop
      vertex -54.2057 10.6337 9
      vertex -56.383 1.90107 9
      vertex -54.2063 1.39855 9
    endloop
  endfacet
  facet normal 0 0 1
    outer loop
      vertex -58.5408 2.47925 9
      vertex -56.0601 11.1306 9
      vertex -57.8959 11.6919 9
    endloop
  endfacet
  facet normal 0 0 1
    outer loop
      vertex -56.0601 11.1306 9
      vertex -58.5408 2.47925 9
      vertex -56.383 1.90107 9
    endloop
  endfacet
  facet normal 0 0 1
    outer loop
      vertex -60.6771 3.13238 9
      vertex -57.8959 11.6919 9
      vertex -59.7111 12.3169 9
    endloop
  endfacet
  facet normal 0 0 1
    outer loop
      vertex -57.8959 11.6919 9
      vertex -60.6771 3.13238 9
      vertex -58.5408 2.47925 9
    endloop
  endfacet
  facet normal 0 0 1
    outer loop
      vertex -62.7893 3.85967 9
      vertex -59.7111 12.3169 9
      vertex -61.5034 13.0049 9
    endloop
  endfacet
  facet normal 0 0 1
    outer loop
      vertex -59.7111 12.3169 9
      vertex -62.7893 3.85967 9
      vertex -60.6771 3.13238 9
    endloop
  endfacet
  facet normal 0 0 1
    outer loop
      vertex -64.8748 4.66023 9
      vertex -61.5034 13.0049 9
      vertex -63.2705 13.755 9
    endloop
  endfacet
  facet normal 0 0 1
    outer loop
      vertex -61.5034 13.0049 9
      vertex -64.8748 4.66023 9
      vertex -62.7893 3.85967 9
    endloop
  endfacet
  facet normal 0 0 1
    outer loop
      vertex -66.9311 5.53309 9
      vertex -63.2705 13.755 9
      vertex -65.0104 14.5663 9
    endloop
  endfacet
  facet normal 0 0 1
    outer loop
      vertex -68.9557 6.47718 9
      vertex -65.0104 14.5663 9
      vertex -66.7209 15.4379 9
    endloop
  endfacet
  facet normal 0 0 1
    outer loop
      vertex -63.2705 13.755 9
      vertex -66.9311 5.53309 9
      vertex -64.8748 4.66023 9
    endloop
  endfacet
  facet normal 0 0 1
    outer loop
      vertex -70.9462 7.49135 9
      vertex -66.7209 15.4379 9
      vertex -68.4 16.3686 9
    endloop
  endfacet
  facet normal 0 0 1
    outer loop
      vertex -65.0104 14.5663 9
      vertex -68.9557 6.47718 9
      vertex -66.9311 5.53309 9
    endloop
  endfacet
  facet normal 0 0 1
    outer loop
      vertex -72.9 8.57437 9
      vertex -68.4 16.3686 9
      vertex -70.0456 17.3574 9
    endloop
  endfacet
  facet normal 0 0 1
    outer loop
      vertex -66.7209 15.4379 9
      vertex -70.9462 7.49135 9
      vertex -68.9557 6.47718 9
    endloop
  endfacet
  facet normal 0 0 1
    outer loop
      vertex -74.8148 9.72492 9
      vertex -70.0456 17.3574 9
      vertex -71.6556 18.4029 9
    endloop
  endfacet
  facet normal 0 0 1
    outer loop
      vertex -68.4 16.3686 9
      vertex -72.9 8.57437 9
      vertex -70.9462 7.49135 9
    endloop
  endfacet
  facet normal 0 0 1
    outer loop
      vertex -76.6883 10.9416 9
      vertex -71.6556 18.4029 9
      vertex -73.2282 19.5041 9
    endloop
  endfacet
  facet normal 0 0 1
    outer loop
      vertex -78.5183 12.2229 9
      vertex -73.2282 19.5041 9
      vertex -74.7614 20.6594 9
    endloop
  endfacet
  facet normal 0 0 1
    outer loop
      vertex -70.0456 17.3574 9
      vertex -74.8148 9.72492 9
      vertex -72.9 8.57437 9
    endloop
  endfacet
  facet normal 0 0 1
    outer loop
      vertex -80.3023 13.5673 9
      vertex -74.7614 20.6594 9
      vertex -76.2533 21.8676 9
    endloop
  endfacet
  facet normal 0 0 1
    outer loop
      vertex -71.6556 18.4029 9
      vertex -76.6883 10.9416 9
      vertex -74.8148 9.72492 9
    endloop
  endfacet
  facet normal 0 0 1
    outer loop
      vertex -82.0384 14.9732 9
      vertex -76.2533 21.8676 9
      vertex -77.7022 23.127 9
    endloop
  endfacet
  facet normal 0 0 1
    outer loop
      vertex -73.2282 19.5041 9
      vertex -78.5183 12.2229 9
      vertex -76.6883 10.9416 9
    endloop
  endfacet
  facet normal 0 0 1
    outer loop
      vertex -83.7244 16.4387 9
      vertex -77.7022 23.127 9
      vertex -79.1062 24.4363 9
    endloop
  endfacet
  facet normal 0 0 1
    outer loop
      vertex -74.7614 20.6594 9
      vertex -80.3023 13.5673 9
      vertex -78.5183 12.2229 9
    endloop
  endfacet
  facet normal 0 0 1
    outer loop
      vertex -85.3581 17.9623 9
      vertex -79.1062 24.4363 9
      vertex -80.4637 25.7938 9
    endloop
  endfacet
  facet normal 0 0 1
    outer loop
      vertex -86.9377 19.5419 9
      vertex -80.4637 25.7938 9
      vertex -81.773 27.1978 9
    endloop
  endfacet
  facet normal 0 0 1
    outer loop
      vertex -76.2533 21.8676 9
      vertex -82.0384 14.9732 9
      vertex -80.3023 13.5673 9
    endloop
  endfacet
  facet normal 0 0 1
    outer loop
      vertex -88.4613 21.1756 9
      vertex -81.773 27.1978 9
      vertex -83.0324 28.6467 9
    endloop
  endfacet
  facet normal 0 0 1
    outer loop
      vertex -77.7022 23.127 9
      vertex -83.7244 16.4387 9
      vertex -82.0384 14.9732 9
    endloop
  endfacet
  facet normal 0 0 1
    outer loop
      vertex -89.9268 22.8616 9
      vertex -83.0324 28.6467 9
      vertex -84.2406 30.1386 9
    endloop
  endfacet
  facet normal 0 0 1
    outer loop
      vertex -79.1062 24.4363 9
      vertex -85.3581 17.9623 9
      vertex -83.7244 16.4387 9
    endloop
  endfacet
  facet normal 0 0 1
    outer loop
      vertex -91.3327 24.5977 9
      vertex -84.2406 30.1386 9
      vertex -85.3959 31.6718 9
    endloop
  endfacet
  facet normal 0 0 1
    outer loop
      vertex -92.6771 26.3817 9
      vertex -85.3959 31.6718 9
      vertex -86.4971 33.2444 9
    endloop
  endfacet
  facet normal 0 0 1
    outer loop
      vertex -80.4637 25.7938 9
      vertex -86.9377 19.5419 9
      vertex -85.3581 17.9623 9
    endloop
  endfacet
  facet normal 0 0 1
    outer loop
      vertex -93.9584 28.2117 9
      vertex -86.4971 33.2444 9
      vertex -87.5426 34.8544 9
    endloop
  endfacet
  facet normal 0 0 1
    outer loop
      vertex -81.773 27.1978 9
      vertex -88.4613 21.1756 9
      vertex -86.9377 19.5419 9
    endloop
  endfacet
  facet normal 0 0 1
    outer loop
      vertex -95.1751 30.0852 9
      vertex -87.5426 34.8544 9
      vertex -88.5314 36.5 9
    endloop
  endfacet
  facet normal 0 0 1
    outer loop
      vertex -96.3256 32 9
      vertex -88.5314 36.5 9
      vertex -89.4621 38.1791 9
    endloop
  endfacet
  facet normal 0 0 1
    outer loop
      vertex -83.0324 28.6467 9
      vertex -89.9268 22.8616 9
      vertex -88.4613 21.1756 9
    endloop
  endfacet
  facet normal 0 0 1
    outer loop
      vertex -96.3256 32 9
      vertex -89.4621 38.1791 9
      vertex -90.3337 39.8896 9
    endloop
  endfacet
  facet normal 0 0 1
    outer loop
      vertex -96.3256 32 9
      vertex -90.3337 39.8896 9
      vertex -91.145 41.6295 9
    endloop
  endfacet
  facet normal 0 0 1
    outer loop
      vertex -84.2406 30.1386 9
      vertex -91.3327 24.5977 9
      vertex -89.9268 22.8616 9
    endloop
  endfacet
  facet normal 0 0 1
    outer loop
      vertex -96.3256 32 9
      vertex -91.145 41.6295 9
      vertex -91.8951 43.3966 9
    endloop
  endfacet
  facet normal 0 0 1
    outer loop
      vertex -96.3256 32 9
      vertex -91.8951 43.3966 9
      vertex -92.5831 45.1889 9
    endloop
  endfacet
  facet normal 0 0 1
    outer loop
      vertex -85.3959 31.6718 9
      vertex -92.6771 26.3817 9
      vertex -91.3327 24.5977 9
    endloop
  endfacet
  facet normal 0 0 1
    outer loop
      vertex -96.3256 32 9
      vertex -92.5831 45.1889 9
      vertex -93.2081 47.0041 9
    endloop
  endfacet
  facet normal 0 0 1
    outer loop
      vertex -96.3256 32 9
      vertex -93.2081 47.0041 9
      vertex -93.7694 48.8399 9
    endloop
  endfacet
  facet normal 0 0 1
    outer loop
      vertex -86.4971 33.2444 9
      vertex -93.9584 28.2117 9
      vertex -92.6771 26.3817 9
    endloop
  endfacet
  facet normal 0 0 1
    outer loop
      vertex -96.3256 32 9
      vertex -93.7694 48.8399 9
      vertex -94.2663 50.6943 9
    endloop
  endfacet
  facet normal 0 0 1
    outer loop
      vertex -96.3256 32 9
      vertex -94.2663 50.6943 9
      vertex -94.6981 52.5649 9
    endloop
  endfacet
  facet normal 0 0 1
    outer loop
      vertex -96.3256 32 9
      vertex -94.6981 52.5649 9
      vertex -95.0644 54.4493 9
    endloop
  endfacet
  facet normal 0 0 1
    outer loop
      vertex -87.5426 34.8544 9
      vertex -95.1751 30.0852 9
      vertex -93.9584 28.2117 9
    endloop
  endfacet
  facet normal 0 0 1
    outer loop
      vertex -96.3256 32 9
      vertex -95.0644 54.4493 9
      vertex -95.3647 56.3455 9
    endloop
  endfacet
  facet normal 0 0 1
    outer loop
      vertex -96.3256 32 9
      vertex -95.3647 56.3455 9
      vertex -95.5987 58.2509 9
    endloop
  endfacet
  facet normal 0 0 1
    outer loop
      vertex -96.3256 32 9
      vertex -95.5987 58.2509 9
      vertex -95.766 60.1634 9
    endloop
  endfacet
  facet normal 0 0 1
    outer loop
      vertex -96.3256 32 9
      vertex -95.766 60.1634 9
      vertex -95.8665 62.0805 9
    endloop
  endfacet
  facet normal -0 0 1
    outer loop
      vertex -96 64 9
      vertex -95.8665 62.0805 9
      vertex -95.9 64 9
    endloop
  endfacet
  facet normal 0 0 1
    outer loop
      vertex -96.3256 32 9
      vertex -95.8665 62.0805 9
      vertex -96 64 9
    endloop
  endfacet
  facet normal 0 0 1
    outer loop
      vertex -88.5314 36.5 9
      vertex -96.3256 32 9
      vertex -95.1751 30.0852 9
    endloop
  endfacet
  facet normal -0 0 1
    outer loop
      vertex -40.9 9 9
      vertex 3.72599 9 9
      vertex 9 9 9
    endloop
  endfacet
  facet normal 0 0 1
    outer loop
      vertex -40.9 9 9
      vertex 3.72599 0 9
      vertex 3.72599 9 9
    endloop
  endfacet
  facet normal -0 0 1
    outer loop
      vertex -41 0.00174551 9
      vertex 3.72599 0 9
      vertex -40.9 9 9
    endloop
  endfacet
  facet normal 0 0 1
    outer loop
      vertex 3.72599 0 9
      vertex -41 0.00174551 9
      vertex -41 0 9
    endloop
  endfacet
  facet normal -1 0 0
    outer loop
      vertex -41 0 0
      vertex -41 0.00174551 9
      vertex -41 0.00174551 0
    endloop
  endfacet
  facet normal -1 -0 0
    outer loop
      vertex -41 0.00174551 9
      vertex -41 0 0
      vertex -41 0 9
    endloop
  endfacet
  facet normal 0 -1 0
    outer loop
      vertex -5.27401 0 0
      vertex -41 0 9
      vertex -41 0 0
    endloop
  endfacet
  facet normal 0 -1 0
    outer loop
      vertex -41 0 9
      vertex -5.27401 0 0
      vertex 3.72599 0 9
    endloop
  endfacet
  facet normal 0 1 -0
    outer loop
      vertex 0 9 0
      vertex -40.9 9 9
      vertex 9 9 9
    endloop
  endfacet
  facet normal 0 1 0
    outer loop
      vertex -40.9 9 9
      vertex 0 9 0
      vertex -40.9 9 0
    endloop
  endfacet
  facet normal -0.999848 -0.0174512 0
    outer loop
      vertex -104.861 61.7664 0
      vertex -104.898 63.9 9
      vertex -104.898 63.9 0
    endloop
  endfacet
  facet normal -0.999848 -0.0174512 0
    outer loop
      vertex -104.898 63.9 9
      vertex -104.861 61.7664 0
      vertex -104.861 61.7664 9
    endloop
  endfacet
  facet normal 0.999848 0.0174544 0
    outer loop
      vertex -95.8665 62.0805 9
      vertex -95.9 64 0
      vertex -95.9 64 9
    endloop
  endfacet
  facet normal 0.999848 0.0174544 0
    outer loop
      vertex -95.9 64 0
      vertex -95.8665 62.0805 9
      vertex -95.8665 62.0805 0
    endloop
  endfacet
  facet normal -0.99863 -0.0523356 0
    outer loop
      vertex -104.744 59.5356 0
      vertex -104.861 61.7664 9
      vertex -104.861 61.7664 0
    endloop
  endfacet
  facet normal -0.99863 -0.0523356 0
    outer loop
      vertex -104.861 61.7664 9
      vertex -104.744 59.5356 0
      vertex -104.744 59.5356 9
    endloop
  endfacet
  facet normal 0.99863 0.0523353 0
    outer loop
      vertex -95.766 60.1634 9
      vertex -95.8665 62.0805 0
      vertex -95.8665 62.0805 9
    endloop
  endfacet
  facet normal 0.99863 0.0523353 0
    outer loop
      vertex -95.8665 62.0805 0
      vertex -95.766 60.1634 9
      vertex -95.766 60.1634 0
    endloop
  endfacet
  facet normal -0.996195 -0.0871577 0
    outer loop
      vertex -104.549 57.3102 0
      vertex -104.744 59.5356 9
      vertex -104.744 59.5356 0
    endloop
  endfacet
  facet normal -0.996195 -0.0871577 0
    outer loop
      vertex -104.744 59.5356 9
      vertex -104.549 57.3102 0
      vertex -104.549 57.3102 9
    endloop
  endfacet
  facet normal 0.996195 0.0871566 0
    outer loop
      vertex -95.5987 58.2509 9
      vertex -95.766 60.1634 0
      vertex -95.766 60.1634 9
    endloop
  endfacet
  facet normal 0.996195 0.0871566 0
    outer loop
      vertex -95.766 60.1634 0
      vertex -95.5987 58.2509 9
      vertex -95.5987 58.2509 0
    endloop
  endfacet
  facet normal -0.992546 -0.12187 0
    outer loop
      vertex -104.277 55.0929 0
      vertex -104.549 57.3102 9
      vertex -104.549 57.3102 0
    endloop
  endfacet
  facet normal -0.992546 -0.12187 0
    outer loop
      vertex -104.549 57.3102 9
      vertex -104.277 55.0929 0
      vertex -104.277 55.0929 9
    endloop
  endfacet
  facet normal 0.992546 0.121867 0
    outer loop
      vertex -95.3647 56.3455 9
      vertex -95.5987 58.2509 0
      vertex -95.5987 58.2509 9
    endloop
  endfacet
  facet normal 0.992546 0.121867 0
    outer loop
      vertex -95.5987 58.2509 0
      vertex -95.3647 56.3455 9
      vertex -95.3647 56.3455 0
    endloop
  endfacet
  facet normal -0.987689 -0.156433 0
    outer loop
      vertex -103.928 52.8865 0
      vertex -104.277 55.0929 9
      vertex -104.277 55.0929 0
    endloop
  endfacet
  facet normal -0.987689 -0.156433 0
    outer loop
      vertex -104.277 55.0929 9
      vertex -103.928 52.8865 0
      vertex -103.928 52.8865 9
    endloop
  endfacet
  facet normal 0.987688 0.156437 0
    outer loop
      vertex -95.0644 54.4493 9
      vertex -95.3647 56.3455 0
      vertex -95.3647 56.3455 9
    endloop
  endfacet
  facet normal 0.987688 0.156437 0
    outer loop
      vertex -95.3647 56.3455 0
      vertex -95.0644 54.4493 9
      vertex -95.0644 54.4493 0
    endloop
  endfacet
  facet normal -0.981627 -0.190808 0
    outer loop
      vertex -103.501 50.6937 0
      vertex -103.928 52.8865 9
      vertex -103.928 52.8865 0
    endloop
  endfacet
  facet normal -0.981627 -0.190808 0
    outer loop
      vertex -103.928 52.8865 9
      vertex -103.501 50.6937 0
      vertex -103.501 50.6937 9
    endloop
  endfacet
  facet normal 0.981628 0.190806 0
    outer loop
      vertex -94.6981 52.5649 9
      vertex -95.0644 54.4493 0
      vertex -95.0644 54.4493 9
    endloop
  endfacet
  facet normal 0.981628 0.190806 0
    outer loop
      vertex -95.0644 54.4493 0
      vertex -94.6981 52.5649 9
      vertex -94.6981 52.5649 0
    endloop
  endfacet
  facet normal -0.97437 -0.224953 0
    outer loop
      vertex -102.999 48.517 0
      vertex -103.501 50.6937 9
      vertex -103.501 50.6937 0
    endloop
  endfacet
  facet normal -0.97437 -0.224953 0
    outer loop
      vertex -103.501 50.6937 9
      vertex -102.999 48.517 0
      vertex -102.999 48.517 9
    endloop
  endfacet
  facet normal 0.97437 0.224952 0
    outer loop
      vertex -94.2663 50.6943 9
      vertex -94.6981 52.5649 0
      vertex -94.6981 52.5649 9
    endloop
  endfacet
  facet normal 0.97437 0.224952 0
    outer loop
      vertex -94.6981 52.5649 0
      vertex -94.2663 50.6943 9
      vertex -94.2663 50.6943 0
    endloop
  endfacet
  facet normal -0.965926 -0.258819 0
    outer loop
      vertex -102.421 46.3592 0
      vertex -102.999 48.517 9
      vertex -102.999 48.517 0
    endloop
  endfacet
  facet normal -0.965926 -0.258819 0
    outer loop
      vertex -102.999 48.517 9
      vertex -102.421 46.3592 0
      vertex -102.421 46.3592 9
    endloop
  endfacet
  facet normal 0.965926 0.258819 0
    outer loop
      vertex -93.7694 48.8399 9
      vertex -94.2663 50.6943 0
      vertex -94.2663 50.6943 9
    endloop
  endfacet
  facet normal 0.965926 0.258819 0
    outer loop
      vertex -94.2663 50.6943 0
      vertex -93.7694 48.8399 9
      vertex -93.7694 48.8399 0
    endloop
  endfacet
  facet normal -0.956305 -0.292371 0
    outer loop
      vertex -101.768 44.2229 0
      vertex -102.421 46.3592 9
      vertex -102.421 46.3592 0
    endloop
  endfacet
  facet normal -0.956305 -0.292371 0
    outer loop
      vertex -102.421 46.3592 9
      vertex -101.768 44.2229 0
      vertex -101.768 44.2229 9
    endloop
  endfacet
  facet normal 0.956304 0.292373 0
    outer loop
      vertex -93.2081 47.0041 9
      vertex -93.7694 48.8399 0
      vertex -93.7694 48.8399 9
    endloop
  endfacet
  facet normal 0.956304 0.292373 0
    outer loop
      vertex -93.7694 48.8399 0
      vertex -93.2081 47.0041 9
      vertex -93.2081 47.0041 0
    endloop
  endfacet
  facet normal -0.945519 -0.325567 0
    outer loop
      vertex -101.04 42.1107 0
      vertex -101.768 44.2229 9
      vertex -101.768 44.2229 0
    endloop
  endfacet
  facet normal -0.945519 -0.325567 0
    outer loop
      vertex -101.768 44.2229 9
      vertex -101.04 42.1107 0
      vertex -101.04 42.1107 9
    endloop
  endfacet
  facet normal 0.945518 0.325568 0
    outer loop
      vertex -92.5831 45.1889 9
      vertex -93.2081 47.0041 0
      vertex -93.2081 47.0041 9
    endloop
  endfacet
  facet normal 0.945518 0.325568 0
    outer loop
      vertex -93.2081 47.0041 0
      vertex -92.5831 45.1889 9
      vertex -92.5831 45.1889 0
    endloop
  endfacet
  facet normal -0.933581 -0.358367 0
    outer loop
      vertex -100.24 40.0252 0
      vertex -101.04 42.1107 9
      vertex -101.04 42.1107 0
    endloop
  endfacet
  facet normal -0.933581 -0.358367 0
    outer loop
      vertex -101.04 42.1107 9
      vertex -100.24 40.0252 0
      vertex -100.24 40.0252 9
    endloop
  endfacet
  facet normal 0.933581 0.358367 0
    outer loop
      vertex -91.8951 43.3966 9
      vertex -92.5831 45.1889 0
      vertex -92.5831 45.1889 9
    endloop
  endfacet
  facet normal 0.933581 0.358367 0
    outer loop
      vertex -92.5831 45.1889 0
      vertex -91.8951 43.3966 9
      vertex -91.8951 43.3966 0
    endloop
  endfacet
  facet normal -0.920504 -0.390734 0
    outer loop
      vertex -99.3669 37.9689 0
      vertex -100.24 40.0252 9
      vertex -100.24 40.0252 0
    endloop
  endfacet
  facet normal -0.920504 -0.390734 0
    outer loop
      vertex -100.24 40.0252 9
      vertex -99.3669 37.9689 0
      vertex -99.3669 37.9689 9
    endloop
  endfacet
  facet normal 0.920504 0.390733 0
    outer loop
      vertex -91.145 41.6295 9
      vertex -91.8951 43.3966 0
      vertex -91.8951 43.3966 9
    endloop
  endfacet
  facet normal 0.920504 0.390733 0
    outer loop
      vertex -91.8951 43.3966 0
      vertex -91.145 41.6295 9
      vertex -91.145 41.6295 0
    endloop
  endfacet
  facet normal -0.906309 -0.422616 0
    outer loop
      vertex -98.4228 35.9442 0
      vertex -99.3669 37.9689 9
      vertex -99.3669 37.9689 0
    endloop
  endfacet
  facet normal -0.906309 -0.422616 0
    outer loop
      vertex -99.3669 37.9689 9
      vertex -98.4228 35.9442 0
      vertex -98.4228 35.9442 9
    endloop
  endfacet
  facet normal 0.906308 0.422617 0
    outer loop
      vertex -90.3337 39.8896 9
      vertex -91.145 41.6295 0
      vertex -91.145 41.6295 9
    endloop
  endfacet
  facet normal 0.906308 0.422617 0
    outer loop
      vertex -91.145 41.6295 0
      vertex -90.3337 39.8896 9
      vertex -90.3337 39.8896 0
    endloop
  endfacet
  facet normal -0.891006 -0.453991 0
    outer loop
      vertex -97.4086 33.9538 0
      vertex -98.4228 35.9442 9
      vertex -98.4228 35.9442 0
    endloop
  endfacet
  facet normal -0.891006 -0.453991 0
    outer loop
      vertex -98.4228 35.9442 9
      vertex -97.4086 33.9538 0
      vertex -97.4086 33.9538 9
    endloop
  endfacet
  facet normal 0.891007 0.453989 0
    outer loop
      vertex -89.4621 38.1791 9
      vertex -90.3337 39.8896 0
      vertex -90.3337 39.8896 9
    endloop
  endfacet
  facet normal 0.891007 0.453989 0
    outer loop
      vertex -90.3337 39.8896 0
      vertex -89.4621 38.1791 9
      vertex -89.4621 38.1791 0
    endloop
  endfacet
  facet normal -0.874619 -0.484811 0
    outer loop
      vertex -96.3256 32 0
      vertex -97.4086 33.9538 9
      vertex -97.4086 33.9538 0
    endloop
  endfacet
  facet normal -0.874619 -0.484811 0
    outer loop
      vertex -97.4086 33.9538 9
      vertex -96.3256 32 0
      vertex -96.3256 32 9
    endloop
  endfacet
  facet normal 0.874619 0.484811 0
    outer loop
      vertex -88.5314 36.5 9
      vertex -89.4621 38.1791 0
      vertex -89.4621 38.1791 9
    endloop
  endfacet
  facet normal 0.874619 0.484811 0
    outer loop
      vertex -89.4621 38.1791 0
      vertex -88.5314 36.5 9
      vertex -88.5314 36.5 0
    endloop
  endfacet
  facet normal -0.857168 -0.515037 0
    outer loop
      vertex -95.1751 30.0852 0
      vertex -96.3256 32 9
      vertex -96.3256 32 0
    endloop
  endfacet
  facet normal -0.857168 -0.515037 0
    outer loop
      vertex -96.3256 32 9
      vertex -95.1751 30.0852 0
      vertex -95.1751 30.0852 9
    endloop
  endfacet
  facet normal 0.857169 0.515036 0
    outer loop
      vertex -87.5426 34.8544 9
      vertex -88.5314 36.5 0
      vertex -88.5314 36.5 9
    endloop
  endfacet
  facet normal 0.857169 0.515036 0
    outer loop
      vertex -88.5314 36.5 0
      vertex -87.5426 34.8544 9
      vertex -87.5426 34.8544 0
    endloop
  endfacet
  facet normal -0.83867 -0.54464 0
    outer loop
      vertex -93.9584 28.2117 0
      vertex -95.1751 30.0852 9
      vertex -95.1751 30.0852 0
    endloop
  endfacet
  facet normal -0.83867 -0.54464 0
    outer loop
      vertex -95.1751 30.0852 9
      vertex -93.9584 28.2117 0
      vertex -93.9584 28.2117 9
    endloop
  endfacet
  facet normal 0.838668 0.544642 0
    outer loop
      vertex -86.4971 33.2444 9
      vertex -87.5426 34.8544 0
      vertex -87.5426 34.8544 9
    endloop
  endfacet
  facet normal 0.838668 0.544642 0
    outer loop
      vertex -87.5426 34.8544 0
      vertex -86.4971 33.2444 9
      vertex -86.4971 33.2444 0
    endloop
  endfacet
  facet normal -0.819152 -0.573577 0
    outer loop
      vertex -92.6771 26.3817 0
      vertex -93.9584 28.2117 9
      vertex -93.9584 28.2117 0
    endloop
  endfacet
  facet normal -0.819152 -0.573577 0
    outer loop
      vertex -93.9584 28.2117 9
      vertex -92.6771 26.3817 0
      vertex -92.6771 26.3817 9
    endloop
  endfacet
  facet normal 0.819153 0.573575 0
    outer loop
      vertex -85.3959 31.6718 9
      vertex -86.4971 33.2444 0
      vertex -86.4971 33.2444 9
    endloop
  endfacet
  facet normal 0.819153 0.573575 0
    outer loop
      vertex -86.4971 33.2444 0
      vertex -85.3959 31.6718 9
      vertex -85.3959 31.6718 0
    endloop
  endfacet
  facet normal -0.798636 -0.601815 0
    outer loop
      vertex -91.3327 24.5977 0
      vertex -92.6771 26.3817 9
      vertex -92.6771 26.3817 0
    endloop
  endfacet
  facet normal -0.798636 -0.601815 0
    outer loop
      vertex -92.6771 26.3817 9
      vertex -91.3327 24.5977 0
      vertex -91.3327 24.5977 9
    endloop
  endfacet
  facet normal 0.798636 0.601814 0
    outer loop
      vertex -84.2406 30.1386 9
      vertex -85.3959 31.6718 0
      vertex -85.3959 31.6718 9
    endloop
  endfacet
  facet normal 0.798636 0.601814 0
    outer loop
      vertex -85.3959 31.6718 0
      vertex -84.2406 30.1386 9
      vertex -84.2406 30.1386 0
    endloop
  endfacet
  facet normal -0.777146 -0.629321 0
    outer loop
      vertex -89.9268 22.8616 0
      vertex -91.3327 24.5977 9
      vertex -91.3327 24.5977 0
    endloop
  endfacet
  facet normal -0.777146 -0.629321 0
    outer loop
      vertex -91.3327 24.5977 9
      vertex -89.9268 22.8616 0
      vertex -89.9268 22.8616 9
    endloop
  endfacet
  facet normal 0.777144 0.629323 0
    outer loop
      vertex -83.0324 28.6467 9
      vertex -84.2406 30.1386 0
      vertex -84.2406 30.1386 9
    endloop
  endfacet
  facet normal 0.777144 0.629323 0
    outer loop
      vertex -84.2406 30.1386 0
      vertex -83.0324 28.6467 9
      vertex -83.0324 28.6467 0
    endloop
  endfacet
  facet normal -0.754709 -0.656059 0
    outer loop
      vertex -88.4613 21.1756 0
      vertex -89.9268 22.8616 9
      vertex -89.9268 22.8616 0
    endloop
  endfacet
  facet normal -0.754709 -0.656059 0
    outer loop
      vertex -89.9268 22.8616 9
      vertex -88.4613 21.1756 0
      vertex -88.4613 21.1756 9
    endloop
  endfacet
  facet normal 0.754711 0.656058 0
    outer loop
      vertex -81.773 27.1978 9
      vertex -83.0324 28.6467 0
      vertex -83.0324 28.6467 9
    endloop
  endfacet
  facet normal 0.754711 0.656058 0
    outer loop
      vertex -83.0324 28.6467 0
      vertex -81.773 27.1978 9
      vertex -81.773 27.1978 0
    endloop
  endfacet
  facet normal -0.731354 -0.681998 0
    outer loop
      vertex -86.9377 19.5419 0
      vertex -88.4613 21.1756 9
      vertex -88.4613 21.1756 0
    endloop
  endfacet
  facet normal -0.731354 -0.681998 0
    outer loop
      vertex -88.4613 21.1756 9
      vertex -86.9377 19.5419 0
      vertex -86.9377 19.5419 9
    endloop
  endfacet
  facet normal 0.731355 0.681997 0
    outer loop
      vertex -80.4637 25.7938 9
      vertex -81.773 27.1978 0
      vertex -81.773 27.1978 9
    endloop
  endfacet
  facet normal 0.731355 0.681997 0
    outer loop
      vertex -81.773 27.1978 0
      vertex -80.4637 25.7938 9
      vertex -80.4637 25.7938 0
    endloop
  endfacet
  facet normal -0.707108 -0.707106 0
    outer loop
      vertex -85.3581 17.9623 0
      vertex -86.9377 19.5419 9
      vertex -86.9377 19.5419 0
    endloop
  endfacet
  facet normal -0.707108 -0.707106 0
    outer loop
      vertex -86.9377 19.5419 9
      vertex -85.3581 17.9623 0
      vertex -85.3581 17.9623 9
    endloop
  endfacet
  facet normal 0.707105 0.707108 -0
    outer loop
      vertex -79.1062 24.4363 0
      vertex -80.4637 25.7938 9
      vertex -79.1062 24.4363 9
    endloop
  endfacet
  facet normal 0.707105 0.707108 0
    outer loop
      vertex -80.4637 25.7938 9
      vertex -79.1062 24.4363 0
      vertex -80.4637 25.7938 0
    endloop
  endfacet
  facet normal -0.681997 -0.731355 0
    outer loop
      vertex -85.3581 17.9623 0
      vertex -83.7244 16.4387 9
      vertex -85.3581 17.9623 9
    endloop
  endfacet
  facet normal -0.681997 -0.731355 -0
    outer loop
      vertex -83.7244 16.4387 9
      vertex -85.3581 17.9623 0
      vertex -83.7244 16.4387 0
    endloop
  endfacet
  facet normal 0.682 0.731352 -0
    outer loop
      vertex -77.7022 23.127 0
      vertex -79.1062 24.4363 9
      vertex -77.7022 23.127 9
    endloop
  endfacet
  facet normal 0.682 0.731352 0
    outer loop
      vertex -79.1062 24.4363 9
      vertex -77.7022 23.127 0
      vertex -79.1062 24.4363 0
    endloop
  endfacet
  facet normal -0.656059 -0.754709 0
    outer loop
      vertex -83.7244 16.4387 0
      vertex -82.0384 14.9732 9
      vertex -83.7244 16.4387 9
    endloop
  endfacet
  facet normal -0.656059 -0.754709 -0
    outer loop
      vertex -82.0384 14.9732 9
      vertex -83.7244 16.4387 0
      vertex -82.0384 14.9732 0
    endloop
  endfacet
  facet normal 0.656058 0.754711 -0
    outer loop
      vertex -76.2533 21.8676 0
      vertex -77.7022 23.127 9
      vertex -76.2533 21.8676 9
    endloop
  endfacet
  facet normal 0.656058 0.754711 0
    outer loop
      vertex -77.7022 23.127 9
      vertex -76.2533 21.8676 0
      vertex -77.7022 23.127 0
    endloop
  endfacet
  facet normal -0.629321 -0.777145 0
    outer loop
      vertex -82.0384 14.9732 0
      vertex -80.3023 13.5673 9
      vertex -82.0384 14.9732 9
    endloop
  endfacet
  facet normal -0.629321 -0.777145 -0
    outer loop
      vertex -80.3023 13.5673 9
      vertex -82.0384 14.9732 0
      vertex -80.3023 13.5673 0
    endloop
  endfacet
  facet normal 0.629321 0.777145 -0
    outer loop
      vertex -74.7614 20.6594 0
      vertex -76.2533 21.8676 9
      vertex -74.7614 20.6594 9
    endloop
  endfacet
  facet normal 0.629321 0.777145 0
    outer loop
      vertex -76.2533 21.8676 9
      vertex -74.7614 20.6594 0
      vertex -76.2533 21.8676 0
    endloop
  endfacet
  facet normal -0.601815 -0.798636 0
    outer loop
      vertex -80.3023 13.5673 0
      vertex -78.5183 12.2229 9
      vertex -80.3023 13.5673 9
    endloop
  endfacet
  facet normal -0.601815 -0.798636 -0
    outer loop
      vertex -78.5183 12.2229 9
      vertex -80.3023 13.5673 0
      vertex -78.5183 12.2229 0
    endloop
  endfacet
  facet normal 0.601814 0.798636 -0
    outer loop
      vertex -73.2282 19.5041 0
      vertex -74.7614 20.6594 9
      vertex -73.2282 19.5041 9
    endloop
  endfacet
  facet normal 0.601814 0.798636 0
    outer loop
      vertex -74.7614 20.6594 9
      vertex -73.2282 19.5041 0
      vertex -74.7614 20.6594 0
    endloop
  endfacet
  facet normal -0.573576 -0.819152 0
    outer loop
      vertex -78.5183 12.2229 0
      vertex -76.6883 10.9416 9
      vertex -78.5183 12.2229 9
    endloop
  endfacet
  facet normal -0.573576 -0.819152 -0
    outer loop
      vertex -76.6883 10.9416 9
      vertex -78.5183 12.2229 0
      vertex -76.6883 10.9416 0
    endloop
  endfacet
  facet normal 0.573576 0.819152 -0
    outer loop
      vertex -71.6556 18.4029 0
      vertex -73.2282 19.5041 9
      vertex -71.6556 18.4029 9
    endloop
  endfacet
  facet normal 0.573576 0.819152 0
    outer loop
      vertex -73.2282 19.5041 9
      vertex -71.6556 18.4029 0
      vertex -73.2282 19.5041 0
    endloop
  endfacet
  facet normal -0.544639 -0.83867 0
    outer loop
      vertex -76.6883 10.9416 0
      vertex -74.8148 9.72492 9
      vertex -76.6883 10.9416 9
    endloop
  endfacet
  facet normal -0.544639 -0.83867 -0
    outer loop
      vertex -74.8148 9.72492 9
      vertex -76.6883 10.9416 0
      vertex -74.8148 9.72492 0
    endloop
  endfacet
  facet normal 0.54464 0.83867 -0
    outer loop
      vertex -70.0456 17.3574 0
      vertex -71.6556 18.4029 9
      vertex -70.0456 17.3574 9
    endloop
  endfacet
  facet normal 0.54464 0.83867 0
    outer loop
      vertex -71.6556 18.4029 9
      vertex -70.0456 17.3574 0
      vertex -71.6556 18.4029 0
    endloop
  endfacet
  facet normal -0.515038 -0.857167 0
    outer loop
      vertex -74.8148 9.72492 0
      vertex -72.9 8.57437 9
      vertex -74.8148 9.72492 9
    endloop
  endfacet
  facet normal -0.515038 -0.857167 -0
    outer loop
      vertex -72.9 8.57437 9
      vertex -74.8148 9.72492 0
      vertex -72.9 8.57437 0
    endloop
  endfacet
  facet normal 0.515038 0.857167 -0
    outer loop
      vertex -68.4 16.3686 0
      vertex -70.0456 17.3574 9
      vertex -68.4 16.3686 9
    endloop
  endfacet
  facet normal 0.515038 0.857167 0
    outer loop
      vertex -70.0456 17.3574 9
      vertex -68.4 16.3686 0
      vertex -70.0456 17.3574 0
    endloop
  endfacet
  facet normal -0.484809 -0.87462 0
    outer loop
      vertex -72.9 8.57437 0
      vertex -70.9462 7.49135 9
      vertex -72.9 8.57437 9
    endloop
  endfacet
  facet normal -0.484809 -0.87462 -0
    outer loop
      vertex -70.9462 7.49135 9
      vertex -72.9 8.57437 0
      vertex -70.9462 7.49135 0
    endloop
  endfacet
  facet normal 0.484808 0.87462 -0
    outer loop
      vertex -66.7209 15.4379 0
      vertex -68.4 16.3686 9
      vertex -66.7209 15.4379 9
    endloop
  endfacet
  facet normal 0.484808 0.87462 0
    outer loop
      vertex -68.4 16.3686 9
      vertex -66.7209 15.4379 0
      vertex -68.4 16.3686 0
    endloop
  endfacet
  facet normal -0.45399 -0.891007 0
    outer loop
      vertex -70.9462 7.49135 0
      vertex -68.9557 6.47718 9
      vertex -70.9462 7.49135 9
    endloop
  endfacet
  facet normal -0.45399 -0.891007 -0
    outer loop
      vertex -68.9557 6.47718 9
      vertex -70.9462 7.49135 0
      vertex -68.9557 6.47718 0
    endloop
  endfacet
  facet normal 0.453991 0.891006 -0
    outer loop
      vertex -65.0104 14.5663 0
      vertex -66.7209 15.4379 9
      vertex -65.0104 14.5663 9
    endloop
  endfacet
  facet normal 0.453991 0.891006 0
    outer loop
      vertex -66.7209 15.4379 9
      vertex -65.0104 14.5663 0
      vertex -66.7209 15.4379 0
    endloop
  endfacet
  facet normal -0.422619 -0.906308 0
    outer loop
      vertex -68.9557 6.47718 0
      vertex -66.9311 5.53309 9
      vertex -68.9557 6.47718 9
    endloop
  endfacet
  facet normal -0.422619 -0.906308 -0
    outer loop
      vertex -66.9311 5.53309 9
      vertex -68.9557 6.47718 0
      vertex -66.9311 5.53309 0
    endloop
  endfacet
  facet normal 0.422618 0.906308 -0
    outer loop
      vertex -63.2705 13.755 0
      vertex -65.0104 14.5663 9
      vertex -63.2705 13.755 9
    endloop
  endfacet
  facet normal 0.422618 0.906308 0
    outer loop
      vertex -65.0104 14.5663 9
      vertex -63.2705 13.755 0
      vertex -65.0104 14.5663 0
    endloop
  endfacet
  facet normal -0.390732 -0.920505 0
    outer loop
      vertex -66.9311 5.53309 0
      vertex -64.8748 4.66023 9
      vertex -66.9311 5.53309 9
    endloop
  endfacet
  facet normal -0.390732 -0.920505 -0
    outer loop
      vertex -64.8748 4.66023 9
      vertex -66.9311 5.53309 0
      vertex -64.8748 4.66023 0
    endloop
  endfacet
  facet normal 0.390731 0.920505 -0
    outer loop
      vertex -61.5034 13.0049 0
      vertex -63.2705 13.755 9
      vertex -61.5034 13.0049 9
    endloop
  endfacet
  facet normal 0.390731 0.920505 0
    outer loop
      vertex -63.2705 13.755 9
      vertex -61.5034 13.0049 0
      vertex -63.2705 13.755 0
    endloop
  endfacet
  facet normal -0.358367 -0.933581 0
    outer loop
      vertex -64.8748 4.66023 0
      vertex -62.7893 3.85967 9
      vertex -64.8748 4.66023 9
    endloop
  endfacet
  facet normal -0.358367 -0.933581 -0
    outer loop
      vertex -62.7893 3.85967 9
      vertex -64.8748 4.66023 0
      vertex -62.7893 3.85967 0
    endloop
  endfacet
  facet normal 0.358369 0.93358 -0
    outer loop
      vertex -59.7111 12.3169 0
      vertex -61.5034 13.0049 9
      vertex -59.7111 12.3169 9
    endloop
  endfacet
  facet normal 0.358369 0.93358 0
    outer loop
      vertex -61.5034 13.0049 9
      vertex -59.7111 12.3169 0
      vertex -61.5034 13.0049 0
    endloop
  endfacet
  facet normal -0.325568 -0.945519 0
    outer loop
      vertex -62.7893 3.85967 0
      vertex -60.6771 3.13238 9
      vertex -62.7893 3.85967 9
    endloop
  endfacet
  facet normal -0.325568 -0.945519 -0
    outer loop
      vertex -60.6771 3.13238 9
      vertex -62.7893 3.85967 0
      vertex -60.6771 3.13238 0
    endloop
  endfacet
  facet normal 0.325568 0.945519 -0
    outer loop
      vertex -57.8959 11.6919 0
      vertex -59.7111 12.3169 9
      vertex -57.8959 11.6919 9
    endloop
  endfacet
  facet normal 0.325568 0.945519 0
    outer loop
      vertex -59.7111 12.3169 9
      vertex -57.8959 11.6919 0
      vertex -59.7111 12.3169 0
    endloop
  endfacet
  facet normal -0.292372 -0.956305 0
    outer loop
      vertex -60.6771 3.13238 0
      vertex -58.5408 2.47925 9
      vertex -60.6771 3.13238 9
    endloop
  endfacet
  facet normal -0.292372 -0.956305 -0
    outer loop
      vertex -58.5408 2.47925 9
      vertex -60.6771 3.13238 0
      vertex -58.5408 2.47925 0
    endloop
  endfacet
  facet normal 0.292371 0.956305 -0
    outer loop
      vertex -56.0601 11.1306 0
      vertex -57.8959 11.6919 9
      vertex -56.0601 11.1306 9
    endloop
  endfacet
  facet normal 0.292371 0.956305 0
    outer loop
      vertex -57.8959 11.6919 9
      vertex -56.0601 11.1306 0
      vertex -57.8959 11.6919 0
    endloop
  endfacet
  facet normal -0.258819 -0.965926 0
    outer loop
      vertex -58.5408 2.47925 0
      vertex -56.383 1.90107 9
      vertex -58.5408 2.47925 9
    endloop
  endfacet
  facet normal -0.258819 -0.965926 -0
    outer loop
      vertex -56.383 1.90107 9
      vertex -58.5408 2.47925 0
      vertex -56.383 1.90107 0
    endloop
  endfacet
  facet normal 0.258819 0.965926 -0
    outer loop
      vertex -54.2057 10.6337 0
      vertex -56.0601 11.1306 9
      vertex -54.2057 10.6337 9
    endloop
  endfacet
  facet normal 0.258819 0.965926 0
    outer loop
      vertex -56.0601 11.1306 9
      vertex -54.2057 10.6337 0
      vertex -56.0601 11.1306 0
    endloop
  endfacet
  facet normal -0.224952 -0.97437 0
    outer loop
      vertex -56.383 1.90107 0
      vertex -54.2063 1.39855 9
      vertex -56.383 1.90107 9
    endloop
  endfacet
  facet normal -0.224952 -0.97437 -0
    outer loop
      vertex -54.2063 1.39855 9
      vertex -56.383 1.90107 0
      vertex -54.2063 1.39855 0
    endloop
  endfacet
  facet normal 0.224951 0.97437 -0
    outer loop
      vertex -52.3351 10.2019 0
      vertex -54.2057 10.6337 9
      vertex -52.3351 10.2019 9
    endloop
  endfacet
  facet normal 0.224951 0.97437 0
    outer loop
      vertex -54.2057 10.6337 9
      vertex -52.3351 10.2019 0
      vertex -54.2057 10.6337 0
    endloop
  endfacet
  facet normal -0.190809 -0.981627 0
    outer loop
      vertex -54.2063 1.39855 0
      vertex -52.0135 0.972304 9
      vertex -54.2063 1.39855 9
    endloop
  endfacet
  facet normal -0.190809 -0.981627 -0
    outer loop
      vertex -52.0135 0.972304 9
      vertex -54.2063 1.39855 0
      vertex -52.0135 0.972304 0
    endloop
  endfacet
  facet normal 0.190809 0.981627 -0
    outer loop
      vertex -50.4506 9.83557 0
      vertex -52.3351 10.2019 9
      vertex -50.4506 9.83557 9
    endloop
  endfacet
  facet normal 0.190809 0.981627 0
    outer loop
      vertex -52.3351 10.2019 9
      vertex -50.4506 9.83557 0
      vertex -52.3351 10.2019 0
    endloop
  endfacet
  facet normal -0.156435 -0.987688 0
    outer loop
      vertex -52.0135 0.972304 0
      vertex -49.8071 0.622844 9
      vertex -52.0135 0.972304 9
    endloop
  endfacet
  facet normal -0.156435 -0.987688 -0
    outer loop
      vertex -49.8071 0.622844 9
      vertex -52.0135 0.972304 0
      vertex -49.8071 0.622844 0
    endloop
  endfacet
  facet normal 0.156435 0.987688 -0
    outer loop
      vertex -48.5545 9.53526 0
      vertex -50.4506 9.83557 9
      vertex -48.5545 9.53526 9
    endloop
  endfacet
  facet normal 0.156435 0.987688 0
    outer loop
      vertex -50.4506 9.83557 9
      vertex -48.5545 9.53526 0
      vertex -50.4506 9.83557 0
    endloop
  endfacet
  facet normal -0.121869 -0.992546 0
    outer loop
      vertex -49.8071 0.622844 0
      vertex -47.5898 0.350599 9
      vertex -49.8071 0.622844 9
    endloop
  endfacet
  facet normal -0.121869 -0.992546 -0
    outer loop
      vertex -47.5898 0.350599 9
      vertex -49.8071 0.622844 0
      vertex -47.5898 0.350599 0
    endloop
  endfacet
  facet normal 0.121869 0.992546 -0
    outer loop
      vertex -46.6491 9.3013 0
      vertex -48.5545 9.53526 9
      vertex -46.6491 9.3013 9
    endloop
  endfacet
  facet normal 0.121869 0.992546 0
    outer loop
      vertex -48.5545 9.53526 9
      vertex -46.6491 9.3013 0
      vertex -48.5545 9.53526 0
    endloop
  endfacet
  facet normal -0.087156 -0.996195 0
    outer loop
      vertex -47.5898 0.350599 0
      vertex -45.3644 0.155901 9
      vertex -47.5898 0.350599 9
    endloop
  endfacet
  facet normal -0.087156 -0.996195 -0
    outer loop
      vertex -45.3644 0.155901 9
      vertex -47.5898 0.350599 0
      vertex -45.3644 0.155901 0
    endloop
  endfacet
  facet normal 0.0871556 0.996195 -0
    outer loop
      vertex -44.7366 9.13398 0
      vertex -46.6491 9.3013 9
      vertex -44.7366 9.13398 9
    endloop
  endfacet
  facet normal 0.0871556 0.996195 0
    outer loop
      vertex -46.6491 9.3013 9
      vertex -44.7366 9.13398 0
      vertex -46.6491 9.3013 0
    endloop
  endfacet
  facet normal -0.052336 -0.99863 0
    outer loop
      vertex -45.3644 0.155901 0
      vertex -43.1336 0.0389872 9
      vertex -45.3644 0.155901 9
    endloop
  endfacet
  facet normal -0.052336 -0.99863 -0
    outer loop
      vertex -43.1336 0.0389872 9
      vertex -45.3644 0.155901 0
      vertex -43.1336 0.0389872 0
    endloop
  endfacet
  facet normal 0.0523358 0.99863 -0
    outer loop
      vertex -42.8195 9.03351 0
      vertex -44.7366 9.13398 9
      vertex -42.8195 9.03351 9
    endloop
  endfacet
  facet normal 0.0523358 0.99863 0
    outer loop
      vertex -44.7366 9.13398 9
      vertex -42.8195 9.03351 0
      vertex -44.7366 9.13398 0
    endloop
  endfacet
  facet normal -0.0174524 -0.999848 0
    outer loop
      vertex -43.1336 0.0389872 0
      vertex -41 0.00174551 9
      vertex -43.1336 0.0389872 9
    endloop
  endfacet
  facet normal -0.0174524 -0.999848 -0
    outer loop
      vertex -41 0.00174551 9
      vertex -43.1336 0.0389872 0
      vertex -41 0.00174551 0
    endloop
  endfacet
  facet normal 0.0174529 0.999848 -0
    outer loop
      vertex -40.9 9 0
      vertex -42.8195 9.03351 9
      vertex -40.9 9 9
    endloop
  endfacet
  facet normal 0.0174529 0.999848 0
    outer loop
      vertex -42.8195 9.03351 9
      vertex -40.9 9 0
      vertex -42.8195 9.03351 0
    endloop
  endfacet
  facet normal 0 1 -0
    outer loop
      vertex -95.9 64 0
      vertex -96 64 9
      vertex -95.9 64 9
    endloop
  endfacet
  facet normal 0 1 0
    outer loop
      vertex -96 64 9
      vertex -95.9 64 0
      vertex -96 64 0
    endloop
  endfacet
  facet normal 0 1 0
    outer loop
      vertex -99.6039 64 7.25806
      vertex -101.396 64 7.25806
      vertex -100.5 64 7.4
    endloop
  endfacet
  facet normal 0 1 0
    outer loop
      vertex -98.7954 64 6.84615
      vertex -101.396 64 7.25806
      vertex -99.6039 64 7.25806
    endloop
  endfacet
  facet normal 0 1 0
    outer loop
      vertex -98.7954 64 6.84615
      vertex -102.205 64 6.84615
      vertex -101.396 64 7.25806
    endloop
  endfacet
  facet normal 0 1 0
    outer loop
      vertex -98.1539 64 6.20458
      vertex -102.205 64 6.84615
      vertex -98.7954 64 6.84615
    endloop
  endfacet
  facet normal 0 1 0
    outer loop
      vertex -98.1539 64 6.20458
      vertex -102.846 64 6.20458
      vertex -102.205 64 6.84615
    endloop
  endfacet
  facet normal 0 1 0
    outer loop
      vertex -97.7419 64 5.39615
      vertex -102.846 64 6.20458
      vertex -98.1539 64 6.20458
    endloop
  endfacet
  facet normal 0 1 0
    outer loop
      vertex -97.7419 64 5.39615
      vertex -103.258 64 5.39615
      vertex -102.846 64 6.20458
    endloop
  endfacet
  facet normal 0 1 0
    outer loop
      vertex -97.6 64 4.5
      vertex -103.258 64 5.39615
      vertex -97.7419 64 5.39615
    endloop
  endfacet
  facet normal 0 1 0
    outer loop
      vertex -97.6 64 4.5
      vertex -103.4 64 4.5
      vertex -103.258 64 5.39615
    endloop
  endfacet
  facet normal 0 1 -0
    outer loop
      vertex -97.7419 64 3.60385
      vertex -103.4 64 4.5
      vertex -97.6 64 4.5
    endloop
  endfacet
  facet normal 0 1 0
    outer loop
      vertex -97.7419 64 3.60385
      vertex -103.258 64 3.60385
      vertex -103.4 64 4.5
    endloop
  endfacet
  facet normal 0 1 -0
    outer loop
      vertex -98.1539 64 2.79542
      vertex -103.258 64 3.60385
      vertex -97.7419 64 3.60385
    endloop
  endfacet
  facet normal 0 1 0
    outer loop
      vertex -98.1539 64 2.79542
      vertex -102.846 64 2.79542
      vertex -103.258 64 3.60385
    endloop
  endfacet
  facet normal 0 1 -0
    outer loop
      vertex -98.7954 64 2.15385
      vertex -102.846 64 2.79542
      vertex -98.1539 64 2.79542
    endloop
  endfacet
  facet normal 0 1 0
    outer loop
      vertex -98.7954 64 2.15385
      vertex -102.205 64 2.15385
      vertex -102.846 64 2.79542
    endloop
  endfacet
  facet normal 0 1 -0
    outer loop
      vertex -99.6039 64 1.74194
      vertex -102.205 64 2.15385
      vertex -98.7954 64 2.15385
    endloop
  endfacet
  facet normal 0 1 0
    outer loop
      vertex -99.6039 64 1.74194
      vertex -101.396 64 1.74194
      vertex -102.205 64 2.15385
    endloop
  endfacet
  facet normal -0 1 0
    outer loop
      vertex -101.396 64 1.74194
      vertex -99.6039 64 1.74194
      vertex -100.5 64 1.6
    endloop
  endfacet
  facet normal 1 -0 0
    outer loop
      vertex -96 64 9
      vertex -96 76.9 0
      vertex -96 76.9 9
    endloop
  endfacet
  facet normal 1 0 0
    outer loop
      vertex -96 76.9 0
      vertex -96 64 9
      vertex -96 64 0
    endloop
  endfacet
  facet normal -1 0 0
    outer loop
      vertex -105 63.9 0
      vertex -105 76.9 9
      vertex -105 76.9 0
    endloop
  endfacet
  facet normal -1 -0 0
    outer loop
      vertex -105 76.9 9
      vertex -105 63.9 0
      vertex -105 63.9 9
    endloop
  endfacet
  facet normal 0 -1 0
    outer loop
      vertex -105 63.9 0
      vertex -104.898 63.9 9
      vertex -105 63.9 9
    endloop
  endfacet
  facet normal 0 -1 -0
    outer loop
      vertex -104.898 63.9 9
      vertex -105 63.9 0
      vertex -104.898 63.9 0
    endloop
  endfacet
  facet normal 0 1 0
    outer loop
      vertex -96 76.9 9
      vertex -100.5 76.9 7.4
      vertex -105 76.9 9
    endloop
  endfacet
  facet normal 0 1 0
    outer loop
      vertex -96 76.9 9
      vertex -99.6039 76.9 7.25806
      vertex -100.5 76.9 7.4
    endloop
  endfacet
  facet normal 0 1 0
    outer loop
      vertex -96 76.9 9
      vertex -98.7954 76.9 6.84615
      vertex -99.6039 76.9 7.25806
    endloop
  endfacet
  facet normal 0 1 0
    outer loop
      vertex -96 76.9 9
      vertex -98.1539 76.9 6.20458
      vertex -98.7954 76.9 6.84615
    endloop
  endfacet
  facet normal 0 1 0
    outer loop
      vertex -96 76.9 9
      vertex -97.7419 76.9 5.39615
      vertex -98.1539 76.9 6.20458
    endloop
  endfacet
  facet normal 0 1 0
    outer loop
      vertex -96 76.9 9
      vertex -97.6 76.9 4.5
      vertex -97.7419 76.9 5.39615
    endloop
  endfacet
  facet normal 0 1 -0
    outer loop
      vertex -96 76.9 0
      vertex -97.6 76.9 4.5
      vertex -96 76.9 9
    endloop
  endfacet
  facet normal 0 1 0
    outer loop
      vertex -99.6039 76.9 1.74194
      vertex -96 76.9 0
      vertex -100.5 76.9 1.6
    endloop
  endfacet
  facet normal 0 1 0
    outer loop
      vertex -98.7954 76.9 2.15385
      vertex -96 76.9 0
      vertex -99.6039 76.9 1.74194
    endloop
  endfacet
  facet normal 0 1 0
    outer loop
      vertex -98.1539 76.9 2.79542
      vertex -96 76.9 0
      vertex -98.7954 76.9 2.15385
    endloop
  endfacet
  facet normal 0 1 0
    outer loop
      vertex -97.7419 76.9 3.60385
      vertex -96 76.9 0
      vertex -98.1539 76.9 2.79542
    endloop
  endfacet
  facet normal 0 1 0
    outer loop
      vertex -97.6 76.9 4.5
      vertex -96 76.9 0
      vertex -97.7419 76.9 3.60385
    endloop
  endfacet
  facet normal 0 1 -0
    outer loop
      vertex -101.396 76.9 7.25806
      vertex -105 76.9 9
      vertex -100.5 76.9 7.4
    endloop
  endfacet
  facet normal 0 1 -0
    outer loop
      vertex -102.205 76.9 6.84615
      vertex -105 76.9 9
      vertex -101.396 76.9 7.25806
    endloop
  endfacet
  facet normal 0 1 -0
    outer loop
      vertex -102.846 76.9 6.20458
      vertex -105 76.9 9
      vertex -102.205 76.9 6.84615
    endloop
  endfacet
  facet normal 0 1 -0
    outer loop
      vertex -103.258 76.9 5.39615
      vertex -105 76.9 9
      vertex -102.846 76.9 6.20458
    endloop
  endfacet
  facet normal 0 1 -0
    outer loop
      vertex -103.4 76.9 4.5
      vertex -105 76.9 9
      vertex -103.258 76.9 5.39615
    endloop
  endfacet
  facet normal 0 1 0
    outer loop
      vertex -105 76.9 0
      vertex -103.4 76.9 4.5
      vertex -103.258 76.9 3.60385
    endloop
  endfacet
  facet normal 0 1 0
    outer loop
      vertex -105 76.9 0
      vertex -100.5 76.9 1.6
      vertex -96 76.9 0
    endloop
  endfacet
  facet normal 0 1 0
    outer loop
      vertex -103.4 76.9 4.5
      vertex -105 76.9 0
      vertex -105 76.9 9
    endloop
  endfacet
  facet normal 0 1 0
    outer loop
      vertex -102.846 76.9 2.79542
      vertex -105 76.9 0
      vertex -103.258 76.9 3.60385
    endloop
  endfacet
  facet normal 0 1 0
    outer loop
      vertex -102.205 76.9 2.15385
      vertex -105 76.9 0
      vertex -102.846 76.9 2.79542
    endloop
  endfacet
  facet normal 0 1 0
    outer loop
      vertex -101.396 76.9 1.74194
      vertex -105 76.9 0
      vertex -102.205 76.9 2.15385
    endloop
  endfacet
  facet normal 0 1 0
    outer loop
      vertex -100.5 76.9 1.6
      vertex -105 76.9 0
      vertex -101.396 76.9 1.74194
    endloop
  endfacet
  facet normal 0.987688 0 -0.156436
    outer loop
      vertex -103.258 64 5.39615
      vertex -103.4 76.9 4.5
      vertex -103.258 76.9 5.39615
    endloop
  endfacet
  facet normal 0.987688 0 -0.156436
    outer loop
      vertex -103.4 76.9 4.5
      vertex -103.258 64 5.39615
      vertex -103.4 64 4.5
    endloop
  endfacet
  facet normal 0.891005 0 -0.453994
    outer loop
      vertex -102.846 64 6.20458
      vertex -103.258 76.9 5.39615
      vertex -102.846 76.9 6.20458
    endloop
  endfacet
  facet normal 0.891005 0 -0.453994
    outer loop
      vertex -103.258 76.9 5.39615
      vertex -102.846 64 6.20458
      vertex -103.258 64 5.39615
    endloop
  endfacet
  facet normal -0.707107 0 0.707106
    outer loop
      vertex -98.7954 64 2.15385
      vertex -98.1539 76.9 2.79542
      vertex -98.7954 76.9 2.15385
    endloop
  endfacet
  facet normal -0.707107 0 0.707106
    outer loop
      vertex -98.1539 76.9 2.79542
      vertex -98.7954 64 2.15385
      vertex -98.1539 64 2.79542
    endloop
  endfacet
  facet normal -0.156435 0 -0.987688
    outer loop
      vertex -100.5 64 7.4
      vertex -99.6039 76.9 7.25806
      vertex -99.6039 64 7.25806
    endloop
  endfacet
  facet normal -0.156435 0 -0.987688
    outer loop
      vertex -99.6039 76.9 7.25806
      vertex -100.5 64 7.4
      vertex -100.5 76.9 7.4
    endloop
  endfacet
  facet normal -0.987688 0 0.156436
    outer loop
      vertex -97.7419 64 3.60385
      vertex -97.6 76.9 4.5
      vertex -97.7419 76.9 3.60385
    endloop
  endfacet
  facet normal -0.987688 0 0.156436
    outer loop
      vertex -97.6 76.9 4.5
      vertex -97.7419 64 3.60385
      vertex -97.6 64 4.5
    endloop
  endfacet
  facet normal 0.891005 -0 0.453994
    outer loop
      vertex -103.258 64 3.60385
      vertex -102.846 76.9 2.79542
      vertex -103.258 76.9 3.60385
    endloop
  endfacet
  facet normal 0.891005 0 0.453994
    outer loop
      vertex -102.846 76.9 2.79542
      vertex -103.258 64 3.60385
      vertex -102.846 64 2.79542
    endloop
  endfacet
  facet normal 0.453992 0 -0.891006
    outer loop
      vertex -102.205 64 6.84615
      vertex -101.396 76.9 7.25806
      vertex -101.396 64 7.25806
    endloop
  endfacet
  facet normal 0.453992 0 -0.891006
    outer loop
      vertex -101.396 76.9 7.25806
      vertex -102.205 64 6.84615
      vertex -102.205 76.9 6.84615
    endloop
  endfacet
  facet normal 0.707107 0 -0.707106
    outer loop
      vertex -102.205 64 6.84615
      vertex -102.846 76.9 6.20458
      vertex -102.205 76.9 6.84615
    endloop
  endfacet
  facet normal 0.707107 0 -0.707106
    outer loop
      vertex -102.846 76.9 6.20458
      vertex -102.205 64 6.84615
      vertex -102.846 64 6.20458
    endloop
  endfacet
  facet normal 0.156435 0 -0.987688
    outer loop
      vertex -101.396 64 7.25806
      vertex -100.5 76.9 7.4
      vertex -100.5 64 7.4
    endloop
  endfacet
  facet normal 0.156435 0 -0.987688
    outer loop
      vertex -100.5 76.9 7.4
      vertex -101.396 64 7.25806
      vertex -101.396 76.9 7.25806
    endloop
  endfacet
  facet normal -0.987688 0 -0.156436
    outer loop
      vertex -97.6 64 4.5
      vertex -97.7419 76.9 5.39615
      vertex -97.6 76.9 4.5
    endloop
  endfacet
  facet normal -0.987688 -0 -0.156436
    outer loop
      vertex -97.7419 76.9 5.39615
      vertex -97.6 64 4.5
      vertex -97.7419 64 5.39615
    endloop
  endfacet
  facet normal -0.453992 0 -0.891006
    outer loop
      vertex -99.6039 64 7.25806
      vertex -98.7954 76.9 6.84615
      vertex -98.7954 64 6.84615
    endloop
  endfacet
  facet normal -0.453992 0 -0.891006
    outer loop
      vertex -98.7954 76.9 6.84615
      vertex -99.6039 64 7.25806
      vertex -99.6039 76.9 7.25806
    endloop
  endfacet
  facet normal -0.891005 0 -0.453994
    outer loop
      vertex -97.7419 64 5.39615
      vertex -98.1539 76.9 6.20458
      vertex -97.7419 76.9 5.39615
    endloop
  endfacet
  facet normal -0.891005 -0 -0.453994
    outer loop
      vertex -98.1539 76.9 6.20458
      vertex -97.7419 64 5.39615
      vertex -98.1539 64 6.20458
    endloop
  endfacet
  facet normal 0.156435 0 0.987688
    outer loop
      vertex -101.396 76.9 1.74194
      vertex -100.5 64 1.6
      vertex -100.5 76.9 1.6
    endloop
  endfacet
  facet normal 0.156435 0 0.987688
    outer loop
      vertex -100.5 64 1.6
      vertex -101.396 76.9 1.74194
      vertex -101.396 64 1.74194
    endloop
  endfacet
  facet normal 0.987688 -0 0.156436
    outer loop
      vertex -103.4 64 4.5
      vertex -103.258 76.9 3.60385
      vertex -103.4 76.9 4.5
    endloop
  endfacet
  facet normal 0.987688 0 0.156436
    outer loop
      vertex -103.258 76.9 3.60385
      vertex -103.4 64 4.5
      vertex -103.258 64 3.60385
    endloop
  endfacet
  facet normal -0.453992 0 0.891006
    outer loop
      vertex -99.6039 76.9 1.74194
      vertex -98.7954 64 2.15385
      vertex -98.7954 76.9 2.15385
    endloop
  endfacet
  facet normal -0.453992 0 0.891006
    outer loop
      vertex -98.7954 64 2.15385
      vertex -99.6039 76.9 1.74194
      vertex -99.6039 64 1.74194
    endloop
  endfacet
  facet normal -0.891005 0 0.453994
    outer loop
      vertex -98.1539 64 2.79542
      vertex -97.7419 76.9 3.60385
      vertex -98.1539 76.9 2.79542
    endloop
  endfacet
  facet normal -0.891005 0 0.453994
    outer loop
      vertex -97.7419 76.9 3.60385
      vertex -98.1539 64 2.79542
      vertex -97.7419 64 3.60385
    endloop
  endfacet
  facet normal -0.707107 0 -0.707106
    outer loop
      vertex -98.1539 64 6.20458
      vertex -98.7954 76.9 6.84615
      vertex -98.1539 76.9 6.20458
    endloop
  endfacet
  facet normal -0.707107 -0 -0.707106
    outer loop
      vertex -98.7954 76.9 6.84615
      vertex -98.1539 64 6.20458
      vertex -98.7954 64 6.84615
    endloop
  endfacet
  facet normal 0.453992 0 0.891006
    outer loop
      vertex -102.205 76.9 2.15385
      vertex -101.396 64 1.74194
      vertex -101.396 76.9 1.74194
    endloop
  endfacet
  facet normal 0.453992 0 0.891006
    outer loop
      vertex -101.396 64 1.74194
      vertex -102.205 76.9 2.15385
      vertex -102.205 64 2.15385
    endloop
  endfacet
  facet normal 0.707107 -0 0.707106
    outer loop
      vertex -102.846 64 2.79542
      vertex -102.205 76.9 2.15385
      vertex -102.846 76.9 2.79542
    endloop
  endfacet
  facet normal 0.707107 0 0.707106
    outer loop
      vertex -102.205 76.9 2.15385
      vertex -102.846 64 2.79542
      vertex -102.205 64 2.15385
    endloop
  endfacet
  facet normal -0.156435 0 0.987688
    outer loop
      vertex -100.5 76.9 1.6
      vertex -99.6039 64 1.74194
      vertex -99.6039 76.9 1.74194
    endloop
  endfacet
  facet normal -0.156435 0 0.987688
    outer loop
      vertex -99.6039 64 1.74194
      vertex -100.5 76.9 1.6
      vertex -100.5 64 1.6
    endloop
  endfacet
endsolid OpenSCAD_Model
