solid OpenSCAD_Model
  facet normal -1 0 0
    outer loop
      vertex -44.0603 -7 0
      vertex -44.0603 -2.42562 25
      vertex -44.0603 -1.93457 0
    endloop
  endfacet
  facet normal -1 -0 0
    outer loop
      vertex -44.0603 -2.42562 25
      vertex -44.0603 -7 0
      vertex -44.0603 -7 25
    endloop
  endfacet
  facet normal -1 0 0
    outer loop
      vertex -44.0603 9.4 0
      vertex -44.0603 4.82562 25
      vertex -44.0603 9.4 25
    endloop
  endfacet
  facet normal -1 0 -0
    outer loop
      vertex -44.0603 4.82562 25
      vertex -44.0603 9.4 0
      vertex -44.0603 4.33457 0
    endloop
  endfacet
  facet normal 0 0 1
    outer loop
      vertex -19.1603 9.4 25
      vertex -25 5.2 25
      vertex -19.1603 -7 25
    endloop
  endfacet
  facet normal -0 0 1
    outer loop
      vertex -44.0603 9.4 25
      vertex -25 5.2 25
      vertex -19.1603 9.4 25
    endloop
  endfacet
  facet normal 0 0 1
    outer loop
      vertex -25 5.2 25
      vertex -44.0603 9.4 25
      vertex -44.0603 4.82562 25
    endloop
  endfacet
  facet normal -0 0 1
    outer loop
      vertex -25 -2.8 25
      vertex -19.1603 -7 25
      vertex -25 5.2 25
    endloop
  endfacet
  facet normal 0 0 1
    outer loop
      vertex -44.0603 -7 25
      vertex -25 -2.8 25
      vertex -44.0603 -2.42562 25
    endloop
  endfacet
  facet normal 0 0 1
    outer loop
      vertex -25 -2.8 25
      vertex -44.0603 -7 25
      vertex -19.1603 -7 25
    endloop
  endfacet
  facet normal 0 1 0
    outer loop
      vertex 40.5 9.4 9.4
      vertex 40.5 9.4 0
      vertex -3.5603 9.4 9.4
    endloop
  endfacet
  facet normal 0 1 0
    outer loop
      vertex -44.0603 9.4 0
      vertex -19.1603 9.4 25
      vertex -3.5603 9.4 9.4
    endloop
  endfacet
  facet normal 0 1 0
    outer loop
      vertex -19.1603 9.4 25
      vertex -44.0603 9.4 0
      vertex -44.0603 9.4 25
    endloop
  endfacet
  facet normal 0 1 0
    outer loop
      vertex -44.0603 9.4 0
      vertex -3.5603 9.4 9.4
      vertex 40.5 9.4 0
    endloop
  endfacet
  facet normal 0 0 -1
    outer loop
      vertex 5.8397 -7 0
      vertex -3.03658e-07 -2.8 0
      vertex 5.8397 0 0
    endloop
  endfacet
  facet normal 0 0 -1
    outer loop
      vertex -44.0603 -7 0
      vertex -3.03658e-07 -2.8 0
      vertex 5.8397 -7 0
    endloop
  endfacet
  facet normal -0 0 -1
    outer loop
      vertex -3.03658e-07 -2.8 0
      vertex -44.0603 -7 0
      vertex -44.0603 -1.93457 0
    endloop
  endfacet
  facet normal 0 0 -1
    outer loop
      vertex 5.8397 0 0
      vertex 40.6 0.0017459 0
      vertex 40.6 0 0
    endloop
  endfacet
  facet normal -0 0 -1
    outer loop
      vertex 40.6 0.0017459 0
      vertex 5.8397 0 0
      vertex 40.5 9.4 0
    endloop
  endfacet
  facet normal 0 0 -1
    outer loop
      vertex -3.03658e-07 5.2 0
      vertex 5.8397 0 0
      vertex -3.03658e-07 -2.8 0
    endloop
  endfacet
  facet normal 0 0 -1
    outer loop
      vertex -3.03658e-07 5.2 0
      vertex 40.5 9.4 0
      vertex 5.8397 0 0
    endloop
  endfacet
  facet normal 0 0 -1
    outer loop
      vertex -44.0603 9.4 0
      vertex -3.03658e-07 5.2 0
      vertex -44.0603 4.33457 0
    endloop
  endfacet
  facet normal 0 0 -1
    outer loop
      vertex -3.03658e-07 5.2 0
      vertex -44.0603 9.4 0
      vertex 40.5 9.4 0
    endloop
  endfacet
  facet normal 0 0 -1
    outer loop
      vertex 103.922 53.2171 0
      vertex 95.5 64.4 0
      vertex 95.6 64.4 0
    endloop
  endfacet
  facet normal 0 0 -1
    outer loop
      vertex 97.3618 34.166 0
      vertex 95.4665 62.4805 0
      vertex 95.5 64.4 0
    endloop
  endfacet
  facet normal 0 0 -1
    outer loop
      vertex 97.3618 34.166 0
      vertex 95.366 60.5634 0
      vertex 95.4665 62.4805 0
    endloop
  endfacet
  facet normal 0 0 -1
    outer loop
      vertex 97.3618 34.166 0
      vertex 95.1987 58.6509 0
      vertex 95.366 60.5634 0
    endloop
  endfacet
  facet normal 0 0 -1
    outer loop
      vertex 88.1314 36.9 0
      vertex 96.272 32.2 0
      vertex 95.1143 30.2732 0
    endloop
  endfacet
  facet normal 0 0 -1
    outer loop
      vertex 97.3618 34.166 0
      vertex 94.9647 56.7455 0
      vertex 95.1987 58.6509 0
    endloop
  endfacet
  facet normal 0 0 -1
    outer loop
      vertex 97.3618 34.166 0
      vertex 94.6644 54.8493 0
      vertex 94.9647 56.7455 0
    endloop
  endfacet
  facet normal 0 0 -1
    outer loop
      vertex 97.3618 34.166 0
      vertex 94.2981 52.9649 0
      vertex 94.6644 54.8493 0
    endloop
  endfacet
  facet normal 0 0 -1
    outer loop
      vertex 87.1426 35.2544 0
      vertex 95.1143 30.2732 0
      vertex 93.89 28.388 0
    endloop
  endfacet
  facet normal 0 0 -1
    outer loop
      vertex 97.3618 34.166 0
      vertex 93.8663 51.0943 0
      vertex 94.2981 52.9649 0
    endloop
  endfacet
  facet normal 0 0 -1
    outer loop
      vertex 97.3618 34.166 0
      vertex 93.3694 49.2399 0
      vertex 93.8663 51.0943 0
    endloop
  endfacet
  facet normal 0 0 -1
    outer loop
      vertex 97.3618 34.166 0
      vertex 92.8081 47.4041 0
      vertex 93.3694 49.2399 0
    endloop
  endfacet
  facet normal 0 0 -1
    outer loop
      vertex 86.0971 33.6444 0
      vertex 93.89 28.388 0
      vertex 92.6007 26.5466 0
    endloop
  endfacet
  facet normal 0 0 -1
    outer loop
      vertex 97.3618 34.166 0
      vertex 92.1831 45.5889 0
      vertex 92.8081 47.4041 0
    endloop
  endfacet
  facet normal 0 0 -1
    outer loop
      vertex 97.3618 34.166 0
      vertex 91.4951 43.7966 0
      vertex 92.1831 45.5889 0
    endloop
  endfacet
  facet normal 0 0 -1
    outer loop
      vertex 84.9959 32.0718 0
      vertex 92.6007 26.5466 0
      vertex 91.2479 24.7514 0
    endloop
  endfacet
  facet normal 0 0 -1
    outer loop
      vertex 97.3618 34.166 0
      vertex 90.745 42.0295 0
      vertex 91.4951 43.7966 0
    endloop
  endfacet
  facet normal 0 0 -1
    outer loop
      vertex 97.3618 34.166 0
      vertex 89.9337 40.2896 0
      vertex 90.745 42.0295 0
    endloop
  endfacet
  facet normal 0 0 -1
    outer loop
      vertex 83.8406 30.5386 0
      vertex 91.2479 24.7514 0
      vertex 89.8333 23.0045 0
    endloop
  endfacet
  facet normal 0 0 -1
    outer loop
      vertex 97.3618 34.166 0
      vertex 89.0621 38.5791 0
      vertex 89.9337 40.2896 0
    endloop
  endfacet
  facet normal 0 0 -1
    outer loop
      vertex 82.6324 29.0467 0
      vertex 89.8333 23.0045 0
      vertex 88.3585 21.308 0
    endloop
  endfacet
  facet normal 0 0 -1
    outer loop
      vertex 96.272 32.2 0
      vertex 88.1314 36.9 0
      vertex 89.0621 38.5791 0
    endloop
  endfacet
  facet normal 0 0 -1
    outer loop
      vertex 95.1143 30.2732 0
      vertex 87.1426 35.2544 0
      vertex 88.1314 36.9 0
    endloop
  endfacet
  facet normal 0 0 -1
    outer loop
      vertex 81.373 27.5978 0
      vertex 88.3585 21.308 0
      vertex 86.8255 19.664 0
    endloop
  endfacet
  facet normal 0 0 -1
    outer loop
      vertex 93.89 28.388 0
      vertex 86.0971 33.6444 0
      vertex 87.1426 35.2544 0
    endloop
  endfacet
  facet normal 0 0 -1
    outer loop
      vertex 80.0637 26.1938 0
      vertex 86.8255 19.664 0
      vertex 85.236 18.0745 0
    endloop
  endfacet
  facet normal 0 0 -1
    outer loop
      vertex 92.6007 26.5466 0
      vertex 84.9959 32.0718 0
      vertex 86.0971 33.6444 0
    endloop
  endfacet
  facet normal 0 0 -1
    outer loop
      vertex 91.2479 24.7514 0
      vertex 83.8406 30.5386 0
      vertex 84.9959 32.0718 0
    endloop
  endfacet
  facet normal 0 0 -1
    outer loop
      vertex 78.7062 24.8363 0
      vertex 85.236 18.0745 0
      vertex 83.592 16.5415 0
    endloop
  endfacet
  facet normal 0 0 -1
    outer loop
      vertex 89.8333 23.0045 0
      vertex 82.6324 29.0467 0
      vertex 83.8406 30.5386 0
    endloop
  endfacet
  facet normal 0 0 -1
    outer loop
      vertex 77.3022 23.527 0
      vertex 83.592 16.5415 0
      vertex 81.8955 15.0667 0
    endloop
  endfacet
  facet normal 0 0 -1
    outer loop
      vertex 88.3585 21.308 0
      vertex 81.373 27.5978 0
      vertex 82.6324 29.0467 0
    endloop
  endfacet
  facet normal 0 0 -1
    outer loop
      vertex 75.8533 22.2676 0
      vertex 81.8955 15.0667 0
      vertex 80.1486 13.6521 0
    endloop
  endfacet
  facet normal 0 0 -1
    outer loop
      vertex 86.8255 19.664 0
      vertex 80.0637 26.1938 0
      vertex 81.373 27.5978 0
    endloop
  endfacet
  facet normal 0 0 -1
    outer loop
      vertex 85.236 18.0745 0
      vertex 78.7062 24.8363 0
      vertex 80.0637 26.1938 0
    endloop
  endfacet
  facet normal 0 0 -1
    outer loop
      vertex 74.3614 21.0594 0
      vertex 80.1486 13.6521 0
      vertex 78.3534 12.2993 0
    endloop
  endfacet
  facet normal 0 0 -1
    outer loop
      vertex 83.592 16.5415 0
      vertex 77.3022 23.527 0
      vertex 78.7062 24.8363 0
    endloop
  endfacet
  facet normal 0 0 -1
    outer loop
      vertex 72.8282 19.9041 0
      vertex 78.3534 12.2993 0
      vertex 76.512 11.01 0
    endloop
  endfacet
  facet normal 0 0 -1
    outer loop
      vertex 81.8955 15.0667 0
      vertex 75.8533 22.2676 0
      vertex 77.3022 23.527 0
    endloop
  endfacet
  facet normal 0 0 -1
    outer loop
      vertex 71.2556 18.8029 0
      vertex 76.512 11.01 0
      vertex 74.6268 9.7857 0
    endloop
  endfacet
  facet normal 0 0 -1
    outer loop
      vertex 80.1486 13.6521 0
      vertex 74.3614 21.0594 0
      vertex 75.8533 22.2676 0
    endloop
  endfacet
  facet normal 0 0 -1
    outer loop
      vertex 78.3534 12.2993 0
      vertex 72.8282 19.9041 0
      vertex 74.3614 21.0594 0
    endloop
  endfacet
  facet normal 0 0 -1
    outer loop
      vertex 69.6456 17.7574 0
      vertex 74.6268 9.7857 0
      vertex 72.7 8.62796 0
    endloop
  endfacet
  facet normal 0 0 -1
    outer loop
      vertex 76.512 11.01 0
      vertex 71.2556 18.8029 0
      vertex 72.8282 19.9041 0
    endloop
  endfacet
  facet normal 0 0 -1
    outer loop
      vertex 68 16.7686 0
      vertex 72.7 8.62796 0
      vertex 70.734 7.53818 0
    endloop
  endfacet
  facet normal 0 0 -1
    outer loop
      vertex 74.6268 9.7857 0
      vertex 69.6456 17.7574 0
      vertex 71.2556 18.8029 0
    endloop
  endfacet
  facet normal 0 0 -1
    outer loop
      vertex 66.3209 15.8379 0
      vertex 70.734 7.53818 0
      vertex 68.7311 6.51766 0
    endloop
  endfacet
  facet normal 0 0 -1
    outer loop
      vertex 72.7 8.62796 0
      vertex 68 16.7686 0
      vertex 69.6456 17.7574 0
    endloop
  endfacet
  facet normal 0 0 -1
    outer loop
      vertex 64.6104 14.9663 0
      vertex 68.7311 6.51766 0
      vertex 66.6938 5.56767 0
    endloop
  endfacet
  facet normal 0 0 -1
    outer loop
      vertex 70.734 7.53818 0
      vertex 66.3209 15.8379 0
      vertex 68 16.7686 0
    endloop
  endfacet
  facet normal 0 0 -1
    outer loop
      vertex 62.8705 14.155 0
      vertex 66.6938 5.56767 0
      vertex 64.6247 4.68936 0
    endloop
  endfacet
  facet normal 0 0 -1
    outer loop
      vertex 68.7311 6.51766 0
      vertex 64.6104 14.9663 0
      vertex 66.3209 15.8379 0
    endloop
  endfacet
  facet normal 0 0 -1
    outer loop
      vertex 66.6938 5.56767 0
      vertex 62.8705 14.155 0
      vertex 64.6104 14.9663 0
    endloop
  endfacet
  facet normal 0 0 -1
    outer loop
      vertex 61.1034 13.4049 0
      vertex 64.6247 4.68936 0
      vertex 62.5261 3.8838 0
    endloop
  endfacet
  facet normal 0 0 -1
    outer loop
      vertex 64.6247 4.68936 0
      vertex 61.1034 13.4049 0
      vertex 62.8705 14.155 0
    endloop
  endfacet
  facet normal 0 0 -1
    outer loop
      vertex 59.3111 12.7169 0
      vertex 62.5261 3.8838 0
      vertex 60.4007 3.15196 0
    endloop
  endfacet
  facet normal 0 0 -1
    outer loop
      vertex 62.5261 3.8838 0
      vertex 59.3111 12.7169 0
      vertex 61.1034 13.4049 0
    endloop
  endfacet
  facet normal 0 0 -1
    outer loop
      vertex 57.4959 12.0919 0
      vertex 60.4007 3.15196 0
      vertex 58.251 2.49475 0
    endloop
  endfacet
  facet normal 0 0 -1
    outer loop
      vertex 60.4007 3.15196 0
      vertex 57.4959 12.0919 0
      vertex 59.3111 12.7169 0
    endloop
  endfacet
  facet normal 0 0 -1
    outer loop
      vertex 55.6601 11.5306 0
      vertex 58.251 2.49475 0
      vertex 56.0798 1.91296 0
    endloop
  endfacet
  facet normal 0 0 -1
    outer loop
      vertex 58.251 2.49475 0
      vertex 55.6601 11.5306 0
      vertex 57.4959 12.0919 0
    endloop
  endfacet
  facet normal 0 0 -1
    outer loop
      vertex 53.8057 11.0337 0
      vertex 56.0798 1.91296 0
      vertex 53.8895 1.40729 0
    endloop
  endfacet
  facet normal 0 0 -1
    outer loop
      vertex 56.0798 1.91296 0
      vertex 53.8057 11.0337 0
      vertex 55.6601 11.5306 0
    endloop
  endfacet
  facet normal 0 0 -1
    outer loop
      vertex 53.8895 1.40729 0
      vertex 51.9351 10.6019 0
      vertex 53.8057 11.0337 0
    endloop
  endfacet
  facet normal 0 0 -1
    outer loop
      vertex 51.6829 0.978382 0
      vertex 51.9351 10.6019 0
      vertex 53.8895 1.40729 0
    endloop
  endfacet
  facet normal 0 0 -1
    outer loop
      vertex 51.6829 0.978382 0
      vertex 50.0507 10.2356 0
      vertex 51.9351 10.6019 0
    endloop
  endfacet
  facet normal 0 0 -1
    outer loop
      vertex 49.4627 0.626737 0
      vertex 50.0507 10.2356 0
      vertex 51.6829 0.978382 0
    endloop
  endfacet
  facet normal 0 0 -1
    outer loop
      vertex 49.4627 0.626737 0
      vertex 48.1545 9.93526 0
      vertex 50.0507 10.2356 0
    endloop
  endfacet
  facet normal 0 0 -1
    outer loop
      vertex 47.2316 0.35279 0
      vertex 48.1545 9.93526 0
      vertex 49.4627 0.626737 0
    endloop
  endfacet
  facet normal 0 0 -1
    outer loop
      vertex 47.2316 0.35279 0
      vertex 46.2491 9.7013 0
      vertex 48.1545 9.93526 0
    endloop
  endfacet
  facet normal 0 0 -1
    outer loop
      vertex 44.9923 0.156876 0
      vertex 46.2491 9.7013 0
      vertex 47.2316 0.35279 0
    endloop
  endfacet
  facet normal 0 0 -1
    outer loop
      vertex 44.9923 0.156876 0
      vertex 44.3366 9.53398 0
      vertex 46.2491 9.7013 0
    endloop
  endfacet
  facet normal 0 0 -1
    outer loop
      vertex 42.7475 0.0392317 0
      vertex 44.3366 9.53398 0
      vertex 44.9923 0.156876 0
    endloop
  endfacet
  facet normal 0 0 -1
    outer loop
      vertex 42.7475 0.0392317 0
      vertex 42.4195 9.43351 0
      vertex 44.3366 9.53398 0
    endloop
  endfacet
  facet normal 0 0 -1
    outer loop
      vertex 40.6 0.0017459 0
      vertex 42.4195 9.43351 0
      vertex 42.7475 0.0392317 0
    endloop
  endfacet
  facet normal 0 0 -1
    outer loop
      vertex 42.4195 9.43351 0
      vertex 40.6 0.0017459 0
      vertex 40.5 9.4 0
    endloop
  endfacet
  facet normal 0 0 -1
    outer loop
      vertex 104.898 64.3 0
      vertex 105 77.3 0
      vertex 105 64.3 0
    endloop
  endfacet
  facet normal 0 0 -1
    outer loop
      vertex 95.6 64.4 0
      vertex 104.898 64.3 0
      vertex 104.861 62.1525 0
    endloop
  endfacet
  facet normal 0 0 -1
    outer loop
      vertex 95.6 64.4 0
      vertex 104.861 62.1525 0
      vertex 104.743 59.9077 0
    endloop
  endfacet
  facet normal 0 0 -1
    outer loop
      vertex 95.6 64.4 0
      vertex 104.743 59.9077 0
      vertex 104.547 57.6684 0
    endloop
  endfacet
  facet normal 0 0 -1
    outer loop
      vertex 95.6 64.4 0
      vertex 104.547 57.6684 0
      vertex 104.273 55.4373 0
    endloop
  endfacet
  facet normal 0 0 -1
    outer loop
      vertex 95.6 64.4 0
      vertex 104.273 55.4373 0
      vertex 103.922 53.2171 0
    endloop
  endfacet
  facet normal 0 0 -1
    outer loop
      vertex 95.5 64.4 0
      vertex 103.922 53.2171 0
      vertex 103.493 51.0105 0
    endloop
  endfacet
  facet normal 0 0 -1
    outer loop
      vertex 95.5 64.4 0
      vertex 103.493 51.0105 0
      vertex 102.987 48.8202 0
    endloop
  endfacet
  facet normal 0 0 -1
    outer loop
      vertex 95.5 64.4 0
      vertex 102.987 48.8202 0
      vertex 102.405 46.649 0
    endloop
  endfacet
  facet normal 0 0 -1
    outer loop
      vertex 95.5 64.4 0
      vertex 102.405 46.649 0
      vertex 101.748 44.4993 0
    endloop
  endfacet
  facet normal 0 0 -1
    outer loop
      vertex 95.5 64.4 0
      vertex 101.748 44.4993 0
      vertex 101.016 42.3739 0
    endloop
  endfacet
  facet normal 0 0 -1
    outer loop
      vertex 95.5 64.4 0
      vertex 101.016 42.3739 0
      vertex 100.211 40.2753 0
    endloop
  endfacet
  facet normal 0 0 -1
    outer loop
      vertex 95.5 64.4 0
      vertex 100.211 40.2753 0
      vertex 99.3323 38.2062 0
    endloop
  endfacet
  facet normal 0 0 -1
    outer loop
      vertex 95.5 64.4 0
      vertex 99.3323 38.2062 0
      vertex 98.3823 36.1689 0
    endloop
  endfacet
  facet normal 0 0 -1
    outer loop
      vertex 95.5 64.4 0
      vertex 98.3823 36.1689 0
      vertex 97.3618 34.166 0
    endloop
  endfacet
  facet normal 0 0 -1
    outer loop
      vertex 89.0621 38.5791 0
      vertex 97.3618 34.166 0
      vertex 96.272 32.2 0
    endloop
  endfacet
  facet normal 0 0 -1
    outer loop
      vertex 104.898 64.3 0
      vertex 95.6 64.4 0
      vertex 105 77.3 0
    endloop
  endfacet
  facet normal -0 0 -1
    outer loop
      vertex 105 77.3 0
      vertex 95.6 64.4 0
      vertex 95.6 77.3 0
    endloop
  endfacet
  facet normal 0 -1 0
    outer loop
      vertex -44.0603 -7 0
      vertex -19.1603 -7 25
      vertex -44.0603 -7 25
    endloop
  endfacet
  facet normal 0 -1 -0
    outer loop
      vertex -19.1603 -7 25
      vertex -44.0603 -7 0
      vertex 5.8397 -7 0
    endloop
  endfacet
  facet normal 0.707107 0 0.707107
    outer loop
      vertex -19.1603 9.4 25
      vertex -3.5603 0 9.4
      vertex -3.5603 9.4 9.4
    endloop
  endfacet
  facet normal 0.707107 -0 0.707107
    outer loop
      vertex -19.1603 -7 25
      vertex -3.5603 0 9.4
      vertex -19.1603 9.4 25
    endloop
  endfacet
  facet normal 0.707107 -1.81111e-08 0.707107
    outer loop
      vertex 5.8397 -7 0
      vertex -3.5603 0 9.4
      vertex -19.1603 -7 25
    endloop
  endfacet
  facet normal 0.707107 0 0.707107
    outer loop
      vertex -3.5603 0 9.4
      vertex 5.8397 -7 0
      vertex 5.8397 0 0
    endloop
  endfacet
  facet normal -0.707107 0 -0.707107
    outer loop
      vertex -3.03658e-07 -2.8 0
      vertex -25 5.2 25
      vertex -3.03658e-07 5.2 0
    endloop
  endfacet
  facet normal -0.707107 -0 -0.707107
    outer loop
      vertex -25 5.2 25
      vertex -3.03658e-07 -2.8 0
      vertex -25 -2.8 25
    endloop
  endfacet
  facet normal 0.0196343 -0.999614 0.0196343
    outer loop
      vertex -44.0603 4.33457 0
      vertex -25 5.2 25
      vertex -44.0603 4.82562 25
    endloop
  endfacet
  facet normal 0.0196343 -0.999614 0.0196343
    outer loop
      vertex -25 5.2 25
      vertex -44.0603 4.33457 0
      vertex -3.03658e-07 5.2 0
    endloop
  endfacet
  facet normal 0.0196343 0.999614 0.0196343
    outer loop
      vertex -44.0603 -1.93457 0
      vertex -25 -2.8 25
      vertex -3.03658e-07 -2.8 0
    endloop
  endfacet
  facet normal 0.0196343 0.999614 0.0196343
    outer loop
      vertex -25 -2.8 25
      vertex -44.0603 -1.93457 0
      vertex -44.0603 -2.42562 25
    endloop
  endfacet
  facet normal 0 0 1
    outer loop
      vertex 105 77.3 9.4
      vertex 104.898 64.3 9.4
      vertex 105 64.3 9.4
    endloop
  endfacet
  facet normal -0 0 1
    outer loop
      vertex 95.6 64.4 9.4
      vertex 104.898 64.3 9.4
      vertex 105 77.3 9.4
    endloop
  endfacet
  facet normal 0 0 1
    outer loop
      vertex 104.898 64.3 9.4
      vertex 95.6 64.4 9.4
      vertex 104.861 62.1525 9.4
    endloop
  endfacet
  facet normal -0 0 1
    outer loop
      vertex 95.4665 62.4805 9.4
      vertex 104.861 62.1525 9.4
      vertex 95.6 64.4 9.4
    endloop
  endfacet
  facet normal 0 0 1
    outer loop
      vertex 104.861 62.1525 9.4
      vertex 95.4665 62.4805 9.4
      vertex 104.743 59.9077 9.4
    endloop
  endfacet
  facet normal -0 0 1
    outer loop
      vertex 95.366 60.5634 9.4
      vertex 104.743 59.9077 9.4
      vertex 95.4665 62.4805 9.4
    endloop
  endfacet
  facet normal 0 0 1
    outer loop
      vertex 104.743 59.9077 9.4
      vertex 95.366 60.5634 9.4
      vertex 104.547 57.6684 9.4
    endloop
  endfacet
  facet normal -0 0 1
    outer loop
      vertex 95.1987 58.6509 9.4
      vertex 104.547 57.6684 9.4
      vertex 95.366 60.5634 9.4
    endloop
  endfacet
  facet normal 0 0 1
    outer loop
      vertex 104.547 57.6684 9.4
      vertex 95.1987 58.6509 9.4
      vertex 104.273 55.4373 9.4
    endloop
  endfacet
  facet normal 0 0 1
    outer loop
      vertex 104.273 55.4373 9.4
      vertex 94.9647 56.7455 9.4
      vertex 103.922 53.2171 9.4
    endloop
  endfacet
  facet normal 0 0 1
    outer loop
      vertex 103.922 53.2171 9.4
      vertex 94.6644 54.8493 9.4
      vertex 103.493 51.0105 9.4
    endloop
  endfacet
  facet normal -0 0 1
    outer loop
      vertex 94.2981 52.9649 9.4
      vertex 103.493 51.0105 9.4
      vertex 94.6644 54.8493 9.4
    endloop
  endfacet
  facet normal -0 0 1
    outer loop
      vertex 93.8663 51.0943 9.4
      vertex 102.987 48.8202 9.4
      vertex 94.2981 52.9649 9.4
    endloop
  endfacet
  facet normal 0 0 1
    outer loop
      vertex 102.987 48.8202 9.4
      vertex 93.8663 51.0943 9.4
      vertex 102.405 46.649 9.4
    endloop
  endfacet
  facet normal 0 0 1
    outer loop
      vertex 102.405 46.649 9.4
      vertex 93.3694 49.2399 9.4
      vertex 101.748 44.4993 9.4
    endloop
  endfacet
  facet normal 0 0 1
    outer loop
      vertex 101.748 44.4993 9.4
      vertex 92.8081 47.4041 9.4
      vertex 101.016 42.3739 9.4
    endloop
  endfacet
  facet normal 0 0 1
    outer loop
      vertex 95.6 64.4 9.4
      vertex 105 77.3 9.4
      vertex 95.6 77.3 9.4
    endloop
  endfacet
  facet normal -0 0 1
    outer loop
      vertex 94.9647 56.7455 9.4
      vertex 104.273 55.4373 9.4
      vertex 95.1987 58.6509 9.4
    endloop
  endfacet
  facet normal 0 0 1
    outer loop
      vertex 95.4665 62.4805 9.4
      vertex 95.6 64.4 9.4
      vertex 95.5 64.4 9.4
    endloop
  endfacet
  facet normal -0 0 1
    outer loop
      vertex 94.6644 54.8493 9.4
      vertex 103.922 53.2171 9.4
      vertex 94.9647 56.7455 9.4
    endloop
  endfacet
  facet normal 0 0 1
    outer loop
      vertex 103.493 51.0105 9.4
      vertex 94.2981 52.9649 9.4
      vertex 102.987 48.8202 9.4
    endloop
  endfacet
  facet normal -0 0 1
    outer loop
      vertex 93.3694 49.2399 9.4
      vertex 102.405 46.649 9.4
      vertex 93.8663 51.0943 9.4
    endloop
  endfacet
  facet normal -0 0 1
    outer loop
      vertex 92.8081 47.4041 9.4
      vertex 101.748 44.4993 9.4
      vertex 93.3694 49.2399 9.4
    endloop
  endfacet
  facet normal -0 0 1
    outer loop
      vertex 92.1831 45.5889 9.4
      vertex 101.016 42.3739 9.4
      vertex 92.8081 47.4041 9.4
    endloop
  endfacet
  facet normal 0 0 1
    outer loop
      vertex 101.016 42.3739 9.4
      vertex 92.1831 45.5889 9.4
      vertex 100.211 40.2753 9.4
    endloop
  endfacet
  facet normal -0 0 1
    outer loop
      vertex 91.4951 43.7966 9.4
      vertex 100.211 40.2753 9.4
      vertex 92.1831 45.5889 9.4
    endloop
  endfacet
  facet normal 0 0 1
    outer loop
      vertex 100.211 40.2753 9.4
      vertex 91.4951 43.7966 9.4
      vertex 99.3323 38.2062 9.4
    endloop
  endfacet
  facet normal -0 0 1
    outer loop
      vertex 90.745 42.0295 9.4
      vertex 99.3323 38.2062 9.4
      vertex 91.4951 43.7966 9.4
    endloop
  endfacet
  facet normal 0 0 1
    outer loop
      vertex 99.3323 38.2062 9.4
      vertex 90.745 42.0295 9.4
      vertex 98.3823 36.1689 9.4
    endloop
  endfacet
  facet normal -0 0 1
    outer loop
      vertex 89.9337 40.2896 9.4
      vertex 98.3823 36.1689 9.4
      vertex 90.745 42.0295 9.4
    endloop
  endfacet
  facet normal 0 0 1
    outer loop
      vertex 98.3823 36.1689 9.4
      vertex 89.9337 40.2896 9.4
      vertex 97.3618 34.166 9.4
    endloop
  endfacet
  facet normal -0 0 1
    outer loop
      vertex 89.0621 38.5791 9.4
      vertex 97.3618 34.166 9.4
      vertex 89.9337 40.2896 9.4
    endloop
  endfacet
  facet normal 0 0 1
    outer loop
      vertex 97.3618 34.166 9.4
      vertex 89.0621 38.5791 9.4
      vertex 96.272 32.2 9.4
    endloop
  endfacet
  facet normal -0 0 1
    outer loop
      vertex 88.1314 36.9 9.4
      vertex 96.272 32.2 9.4
      vertex 89.0621 38.5791 9.4
    endloop
  endfacet
  facet normal 0 0 1
    outer loop
      vertex 96.272 32.2 9.4
      vertex 88.1314 36.9 9.4
      vertex 95.1143 30.2732 9.4
    endloop
  endfacet
  facet normal -0 0 1
    outer loop
      vertex 87.1426 35.2544 9.4
      vertex 95.1143 30.2732 9.4
      vertex 88.1314 36.9 9.4
    endloop
  endfacet
  facet normal 0 0 1
    outer loop
      vertex 95.1143 30.2732 9.4
      vertex 87.1426 35.2544 9.4
      vertex 93.89 28.388 9.4
    endloop
  endfacet
  facet normal -0 0 1
    outer loop
      vertex 86.0971 33.6444 9.4
      vertex 93.89 28.388 9.4
      vertex 87.1426 35.2544 9.4
    endloop
  endfacet
  facet normal 0 0 1
    outer loop
      vertex 93.89 28.388 9.4
      vertex 86.0971 33.6444 9.4
      vertex 92.6007 26.5466 9.4
    endloop
  endfacet
  facet normal -0 0 1
    outer loop
      vertex 84.9959 32.0718 9.4
      vertex 92.6007 26.5466 9.4
      vertex 86.0971 33.6444 9.4
    endloop
  endfacet
  facet normal 0 0 1
    outer loop
      vertex 92.6007 26.5466 9.4
      vertex 84.9959 32.0718 9.4
      vertex 91.2479 24.7514 9.4
    endloop
  endfacet
  facet normal -0 0 1
    outer loop
      vertex 83.8406 30.5386 9.4
      vertex 91.2479 24.7514 9.4
      vertex 84.9959 32.0718 9.4
    endloop
  endfacet
  facet normal 0 0 1
    outer loop
      vertex 91.2479 24.7514 9.4
      vertex 83.8406 30.5386 9.4
      vertex 89.8333 23.0045 9.4
    endloop
  endfacet
  facet normal -0 0 1
    outer loop
      vertex 82.6324 29.0467 9.4
      vertex 89.8333 23.0045 9.4
      vertex 83.8406 30.5386 9.4
    endloop
  endfacet
  facet normal 0 0 1
    outer loop
      vertex 89.8333 23.0045 9.4
      vertex 82.6324 29.0467 9.4
      vertex 88.3585 21.308 9.4
    endloop
  endfacet
  facet normal -0 0 1
    outer loop
      vertex 81.373 27.5978 9.4
      vertex 88.3585 21.308 9.4
      vertex 82.6324 29.0467 9.4
    endloop
  endfacet
  facet normal 0 0 1
    outer loop
      vertex 88.3585 21.308 9.4
      vertex 81.373 27.5978 9.4
      vertex 86.8255 19.664 9.4
    endloop
  endfacet
  facet normal -0 0 1
    outer loop
      vertex 80.0637 26.1938 9.4
      vertex 86.8255 19.664 9.4
      vertex 81.373 27.5978 9.4
    endloop
  endfacet
  facet normal 0 0 1
    outer loop
      vertex 86.8255 19.664 9.4
      vertex 80.0637 26.1938 9.4
      vertex 85.236 18.0745 9.4
    endloop
  endfacet
  facet normal -0 0 1
    outer loop
      vertex 78.7062 24.8363 9.4
      vertex 85.236 18.0745 9.4
      vertex 80.0637 26.1938 9.4
    endloop
  endfacet
  facet normal 0 0 1
    outer loop
      vertex 85.236 18.0745 9.4
      vertex 78.7062 24.8363 9.4
      vertex 83.592 16.5415 9.4
    endloop
  endfacet
  facet normal -0 0 1
    outer loop
      vertex 77.3022 23.527 9.4
      vertex 83.592 16.5415 9.4
      vertex 78.7062 24.8363 9.4
    endloop
  endfacet
  facet normal 0 0 1
    outer loop
      vertex 83.592 16.5415 9.4
      vertex 77.3022 23.527 9.4
      vertex 81.8955 15.0667 9.4
    endloop
  endfacet
  facet normal -0 0 1
    outer loop
      vertex 75.8533 22.2676 9.4
      vertex 81.8955 15.0667 9.4
      vertex 77.3022 23.527 9.4
    endloop
  endfacet
  facet normal 0 0 1
    outer loop
      vertex 81.8955 15.0667 9.4
      vertex 75.8533 22.2676 9.4
      vertex 80.1486 13.6521 9.4
    endloop
  endfacet
  facet normal -0 0 1
    outer loop
      vertex 74.3614 21.0594 9.4
      vertex 80.1486 13.6521 9.4
      vertex 75.8533 22.2676 9.4
    endloop
  endfacet
  facet normal 0 0 1
    outer loop
      vertex 80.1486 13.6521 9.4
      vertex 74.3614 21.0594 9.4
      vertex 78.3534 12.2993 9.4
    endloop
  endfacet
  facet normal -0 0 1
    outer loop
      vertex 72.8282 19.9041 9.4
      vertex 78.3534 12.2993 9.4
      vertex 74.3614 21.0594 9.4
    endloop
  endfacet
  facet normal 0 0 1
    outer loop
      vertex 78.3534 12.2993 9.4
      vertex 72.8282 19.9041 9.4
      vertex 76.512 11.01 9.4
    endloop
  endfacet
  facet normal -0 0 1
    outer loop
      vertex 71.2556 18.8029 9.4
      vertex 76.512 11.01 9.4
      vertex 72.8282 19.9041 9.4
    endloop
  endfacet
  facet normal 0 0 1
    outer loop
      vertex 76.512 11.01 9.4
      vertex 71.2556 18.8029 9.4
      vertex 74.6268 9.7857 9.4
    endloop
  endfacet
  facet normal -0 0 1
    outer loop
      vertex 69.6456 17.7574 9.4
      vertex 74.6268 9.7857 9.4
      vertex 71.2556 18.8029 9.4
    endloop
  endfacet
  facet normal 0 0 1
    outer loop
      vertex 74.6268 9.7857 9.4
      vertex 69.6456 17.7574 9.4
      vertex 72.7 8.62796 9.4
    endloop
  endfacet
  facet normal -0 0 1
    outer loop
      vertex 68 16.7686 9.4
      vertex 72.7 8.62796 9.4
      vertex 69.6456 17.7574 9.4
    endloop
  endfacet
  facet normal 0 0 1
    outer loop
      vertex 72.7 8.62796 9.4
      vertex 68 16.7686 9.4
      vertex 70.734 7.53818 9.4
    endloop
  endfacet
  facet normal -0 0 1
    outer loop
      vertex 66.3209 15.8379 9.4
      vertex 70.734 7.53818 9.4
      vertex 68 16.7686 9.4
    endloop
  endfacet
  facet normal 0 0 1
    outer loop
      vertex 70.734 7.53818 9.4
      vertex 66.3209 15.8379 9.4
      vertex 68.7311 6.51766 9.4
    endloop
  endfacet
  facet normal -0 0 1
    outer loop
      vertex 64.6104 14.9663 9.4
      vertex 68.7311 6.51766 9.4
      vertex 66.3209 15.8379 9.4
    endloop
  endfacet
  facet normal 0 0 1
    outer loop
      vertex 68.7311 6.51766 9.4
      vertex 64.6104 14.9663 9.4
      vertex 66.6938 5.56767 9.4
    endloop
  endfacet
  facet normal -0 0 1
    outer loop
      vertex 62.8705 14.155 9.4
      vertex 66.6938 5.56767 9.4
      vertex 64.6104 14.9663 9.4
    endloop
  endfacet
  facet normal 0 0 1
    outer loop
      vertex 66.6938 5.56767 9.4
      vertex 62.8705 14.155 9.4
      vertex 64.6247 4.68936 9.4
    endloop
  endfacet
  facet normal -0 0 1
    outer loop
      vertex 61.1034 13.4049 9.4
      vertex 64.6247 4.68936 9.4
      vertex 62.8705 14.155 9.4
    endloop
  endfacet
  facet normal 0 0 1
    outer loop
      vertex 64.6247 4.68936 9.4
      vertex 61.1034 13.4049 9.4
      vertex 62.5261 3.8838 9.4
    endloop
  endfacet
  facet normal -0 0 1
    outer loop
      vertex 59.3111 12.7169 9.4
      vertex 62.5261 3.8838 9.4
      vertex 61.1034 13.4049 9.4
    endloop
  endfacet
  facet normal 0 0 1
    outer loop
      vertex 62.5261 3.8838 9.4
      vertex 59.3111 12.7169 9.4
      vertex 60.4007 3.15196 9.4
    endloop
  endfacet
  facet normal -0 0 1
    outer loop
      vertex 57.4959 12.0919 9.4
      vertex 60.4007 3.15196 9.4
      vertex 59.3111 12.7169 9.4
    endloop
  endfacet
  facet normal 0 0 1
    outer loop
      vertex 60.4007 3.15196 9.4
      vertex 57.4959 12.0919 9.4
      vertex 58.251 2.49475 9.4
    endloop
  endfacet
  facet normal -0 0 1
    outer loop
      vertex 55.6601 11.5306 9.4
      vertex 58.251 2.49475 9.4
      vertex 57.4959 12.0919 9.4
    endloop
  endfacet
  facet normal 0 0 1
    outer loop
      vertex 58.251 2.49475 9.4
      vertex 55.6601 11.5306 9.4
      vertex 56.0798 1.91296 9.4
    endloop
  endfacet
  facet normal -0 0 1
    outer loop
      vertex 53.8057 11.0337 9.4
      vertex 56.0798 1.91296 9.4
      vertex 55.6601 11.5306 9.4
    endloop
  endfacet
  facet normal 0 0 1
    outer loop
      vertex 56.0798 1.91296 9.4
      vertex 53.8057 11.0337 9.4
      vertex 53.8895 1.40729 9.4
    endloop
  endfacet
  facet normal -0 0 1
    outer loop
      vertex 51.9351 10.6019 9.4
      vertex 53.8895 1.40729 9.4
      vertex 53.8057 11.0337 9.4
    endloop
  endfacet
  facet normal 0 0 1
    outer loop
      vertex 51.9351 10.6019 9.4
      vertex 51.6829 0.978382 9.4
      vertex 53.8895 1.40729 9.4
    endloop
  endfacet
  facet normal -0 0 1
    outer loop
      vertex 50.0507 10.2356 9.4
      vertex 51.6829 0.978382 9.4
      vertex 51.9351 10.6019 9.4
    endloop
  endfacet
  facet normal 0 0 1
    outer loop
      vertex 50.0507 10.2356 9.4
      vertex 49.4627 0.626737 9.4
      vertex 51.6829 0.978382 9.4
    endloop
  endfacet
  facet normal -0 0 1
    outer loop
      vertex 48.1545 9.93526 9.4
      vertex 49.4627 0.626737 9.4
      vertex 50.0507 10.2356 9.4
    endloop
  endfacet
  facet normal 0 0 1
    outer loop
      vertex 48.1545 9.93526 9.4
      vertex 47.2316 0.35279 9.4
      vertex 49.4627 0.626737 9.4
    endloop
  endfacet
  facet normal -0 0 1
    outer loop
      vertex 46.2491 9.7013 9.4
      vertex 47.2316 0.35279 9.4
      vertex 48.1545 9.93526 9.4
    endloop
  endfacet
  facet normal 0 0 1
    outer loop
      vertex 46.2491 9.7013 9.4
      vertex 44.9923 0.156876 9.4
      vertex 47.2316 0.35279 9.4
    endloop
  endfacet
  facet normal -0 0 1
    outer loop
      vertex 44.3366 9.53398 9.4
      vertex 44.9923 0.156876 9.4
      vertex 46.2491 9.7013 9.4
    endloop
  endfacet
  facet normal 0 0 1
    outer loop
      vertex 44.3366 9.53398 9.4
      vertex 42.7475 0.0392317 9.4
      vertex 44.9923 0.156876 9.4
    endloop
  endfacet
  facet normal -0 0 1
    outer loop
      vertex 42.4195 9.43351 9.4
      vertex 42.7475 0.0392317 9.4
      vertex 44.3366 9.53398 9.4
    endloop
  endfacet
  facet normal 0 0 1
    outer loop
      vertex 42.4195 9.43351 9.4
      vertex 40.6 0.0017459 9.4
      vertex 42.7475 0.0392317 9.4
    endloop
  endfacet
  facet normal -0 0 1
    outer loop
      vertex 40.5 9.4 9.4
      vertex 40.6 0.0017459 9.4
      vertex 42.4195 9.43351 9.4
    endloop
  endfacet
  facet normal 0 0 1
    outer loop
      vertex -3.5603 0 9.4
      vertex 40.6 0.0017459 9.4
      vertex 40.5 9.4 9.4
    endloop
  endfacet
  facet normal 0 0 1
    outer loop
      vertex -3.5603 0 9.4
      vertex 40.5 9.4 9.4
      vertex -3.5603 9.4 9.4
    endloop
  endfacet
  facet normal 0 0 1
    outer loop
      vertex 40.6 0.0017459 9.4
      vertex -3.5603 0 9.4
      vertex 40.6 0 9.4
    endloop
  endfacet
  facet normal 1 -0 0
    outer loop
      vertex 40.6 0 9.4
      vertex 40.6 0.0017459 0
      vertex 40.6 0.0017459 9.4
    endloop
  endfacet
  facet normal 1 0 0
    outer loop
      vertex 40.6 0.0017459 0
      vertex 40.6 0 9.4
      vertex 40.6 0 0
    endloop
  endfacet
  facet normal 0 -1 0
    outer loop
      vertex 5.8397 0 0
      vertex 40.6 0 9.4
      vertex -3.5603 0 9.4
    endloop
  endfacet
  facet normal 0 -1 -0
    outer loop
      vertex 40.6 0 9.4
      vertex 5.8397 0 0
      vertex 40.6 0 0
    endloop
  endfacet
  facet normal 0.999848 -0.0174515 0
    outer loop
      vertex 104.861 62.1525 9.4
      vertex 104.898 64.3 0
      vertex 104.898 64.3 9.4
    endloop
  endfacet
  facet normal 0.999848 -0.0174515 0
    outer loop
      vertex 104.898 64.3 0
      vertex 104.861 62.1525 9.4
      vertex 104.861 62.1525 0
    endloop
  endfacet
  facet normal -0.999848 0.0174544 0
    outer loop
      vertex 95.4665 62.4805 0
      vertex 95.5 64.4 9.4
      vertex 95.5 64.4 0
    endloop
  endfacet
  facet normal -0.999848 0.0174544 0
    outer loop
      vertex 95.5 64.4 9.4
      vertex 95.4665 62.4805 0
      vertex 95.4665 62.4805 9.4
    endloop
  endfacet
  facet normal 0.99863 -0.0523363 0
    outer loop
      vertex 104.743 59.9077 9.4
      vertex 104.861 62.1525 0
      vertex 104.861 62.1525 9.4
    endloop
  endfacet
  facet normal 0.99863 -0.0523363 0
    outer loop
      vertex 104.861 62.1525 0
      vertex 104.743 59.9077 9.4
      vertex 104.743 59.9077 0
    endloop
  endfacet
  facet normal -0.99863 0.0523352 0
    outer loop
      vertex 95.366 60.5634 0
      vertex 95.4665 62.4805 9.4
      vertex 95.4665 62.4805 0
    endloop
  endfacet
  facet normal -0.99863 0.0523352 0
    outer loop
      vertex 95.4665 62.4805 9.4
      vertex 95.366 60.5634 0
      vertex 95.366 60.5634 9.4
    endloop
  endfacet
  facet normal 0.996195 -0.087156 0
    outer loop
      vertex 104.547 57.6684 9.4
      vertex 104.743 59.9077 0
      vertex 104.743 59.9077 9.4
    endloop
  endfacet
  facet normal 0.996195 -0.087156 0
    outer loop
      vertex 104.743 59.9077 0
      vertex 104.547 57.6684 9.4
      vertex 104.547 57.6684 0
    endloop
  endfacet
  facet normal -0.996195 0.0871568 0
    outer loop
      vertex 95.1987 58.6509 0
      vertex 95.366 60.5634 9.4
      vertex 95.366 60.5634 0
    endloop
  endfacet
  facet normal -0.996195 0.0871568 0
    outer loop
      vertex 95.366 60.5634 9.4
      vertex 95.1987 58.6509 0
      vertex 95.1987 58.6509 9.4
    endloop
  endfacet
  facet normal 0.992546 -0.12187 0
    outer loop
      vertex 104.273 55.4373 9.4
      vertex 104.547 57.6684 0
      vertex 104.547 57.6684 9.4
    endloop
  endfacet
  facet normal 0.992546 -0.12187 0
    outer loop
      vertex 104.547 57.6684 0
      vertex 104.273 55.4373 9.4
      vertex 104.273 55.4373 0
    endloop
  endfacet
  facet normal -0.992546 0.121867 0
    outer loop
      vertex 94.9647 56.7455 0
      vertex 95.1987 58.6509 9.4
      vertex 95.1987 58.6509 0
    endloop
  endfacet
  facet normal -0.992546 0.121867 0
    outer loop
      vertex 95.1987 58.6509 9.4
      vertex 94.9647 56.7455 0
      vertex 94.9647 56.7455 9.4
    endloop
  endfacet
  facet normal 0.987688 -0.156435 0
    outer loop
      vertex 103.922 53.2171 9.4
      vertex 104.273 55.4373 0
      vertex 104.273 55.4373 9.4
    endloop
  endfacet
  facet normal 0.987688 -0.156435 0
    outer loop
      vertex 104.273 55.4373 0
      vertex 103.922 53.2171 9.4
      vertex 103.922 53.2171 0
    endloop
  endfacet
  facet normal -0.987688 0.156434 0
    outer loop
      vertex 94.6644 54.8493 0
      vertex 94.9647 56.7455 9.4
      vertex 94.9647 56.7455 0
    endloop
  endfacet
  facet normal -0.987688 0.156434 0
    outer loop
      vertex 94.9647 56.7455 9.4
      vertex 94.6644 54.8493 0
      vertex 94.6644 54.8493 9.4
    endloop
  endfacet
  facet normal 0.981628 -0.190807 0
    outer loop
      vertex 103.493 51.0105 9.4
      vertex 103.922 53.2171 0
      vertex 103.922 53.2171 9.4
    endloop
  endfacet
  facet normal 0.981628 -0.190807 0
    outer loop
      vertex 103.922 53.2171 0
      vertex 103.493 51.0105 9.4
      vertex 103.493 51.0105 0
    endloop
  endfacet
  facet normal -0.981627 0.19081 0
    outer loop
      vertex 94.2981 52.9649 0
      vertex 94.6644 54.8493 9.4
      vertex 94.6644 54.8493 0
    endloop
  endfacet
  facet normal -0.981627 0.19081 0
    outer loop
      vertex 94.6644 54.8493 9.4
      vertex 94.2981 52.9649 0
      vertex 94.2981 52.9649 9.4
    endloop
  endfacet
  facet normal 0.97437 -0.224951 0
    outer loop
      vertex 102.987 48.8202 9.4
      vertex 103.493 51.0105 0
      vertex 103.493 51.0105 9.4
    endloop
  endfacet
  facet normal 0.97437 -0.224951 0
    outer loop
      vertex 103.493 51.0105 0
      vertex 102.987 48.8202 9.4
      vertex 102.987 48.8202 0
    endloop
  endfacet
  facet normal -0.97437 0.224951 0
    outer loop
      vertex 93.8663 51.0943 0
      vertex 94.2981 52.9649 9.4
      vertex 94.2981 52.9649 0
    endloop
  endfacet
  facet normal -0.97437 0.224951 0
    outer loop
      vertex 94.2981 52.9649 9.4
      vertex 93.8663 51.0943 0
      vertex 93.8663 51.0943 9.4
    endloop
  endfacet
  facet normal 0.965925 -0.25882 0
    outer loop
      vertex 102.405 46.649 9.4
      vertex 102.987 48.8202 0
      vertex 102.987 48.8202 9.4
    endloop
  endfacet
  facet normal 0.965925 -0.25882 0
    outer loop
      vertex 102.987 48.8202 0
      vertex 102.405 46.649 9.4
      vertex 102.405 46.649 0
    endloop
  endfacet
  facet normal -0.965926 0.258819 0
    outer loop
      vertex 93.3694 49.2399 0
      vertex 93.8663 51.0943 9.4
      vertex 93.8663 51.0943 0
    endloop
  endfacet
  facet normal -0.965926 0.258819 0
    outer loop
      vertex 93.8663 51.0943 9.4
      vertex 93.3694 49.2399 0
      vertex 93.3694 49.2399 9.4
    endloop
  endfacet
  facet normal 0.956305 -0.292371 0
    outer loop
      vertex 101.748 44.4993 9.4
      vertex 102.405 46.649 0
      vertex 102.405 46.649 9.4
    endloop
  endfacet
  facet normal 0.956305 -0.292371 0
    outer loop
      vertex 102.405 46.649 0
      vertex 101.748 44.4993 9.4
      vertex 101.748 44.4993 0
    endloop
  endfacet
  facet normal -0.956304 0.292373 0
    outer loop
      vertex 92.8081 47.4041 0
      vertex 93.3694 49.2399 9.4
      vertex 93.3694 49.2399 0
    endloop
  endfacet
  facet normal -0.956304 0.292373 0
    outer loop
      vertex 93.3694 49.2399 9.4
      vertex 92.8081 47.4041 0
      vertex 92.8081 47.4041 9.4
    endloop
  endfacet
  facet normal 0.945519 -0.325568 0
    outer loop
      vertex 101.016 42.3739 9.4
      vertex 101.748 44.4993 0
      vertex 101.748 44.4993 9.4
    endloop
  endfacet
  facet normal 0.945519 -0.325568 0
    outer loop
      vertex 101.748 44.4993 0
      vertex 101.016 42.3739 9.4
      vertex 101.016 42.3739 0
    endloop
  endfacet
  facet normal -0.945518 0.325569 0
    outer loop
      vertex 92.1831 45.5889 0
      vertex 92.8081 47.4041 9.4
      vertex 92.8081 47.4041 0
    endloop
  endfacet
  facet normal -0.945518 0.325569 0
    outer loop
      vertex 92.8081 47.4041 9.4
      vertex 92.1831 45.5889 0
      vertex 92.1831 45.5889 9.4
    endloop
  endfacet
  facet normal 0.93358 -0.358368 0
    outer loop
      vertex 100.211 40.2753 9.4
      vertex 101.016 42.3739 0
      vertex 101.016 42.3739 9.4
    endloop
  endfacet
  facet normal 0.93358 -0.358368 0
    outer loop
      vertex 101.016 42.3739 0
      vertex 100.211 40.2753 9.4
      vertex 100.211 40.2753 0
    endloop
  endfacet
  facet normal -0.933581 0.358367 0
    outer loop
      vertex 91.4951 43.7966 0
      vertex 92.1831 45.5889 9.4
      vertex 92.1831 45.5889 0
    endloop
  endfacet
  facet normal -0.933581 0.358367 0
    outer loop
      vertex 92.1831 45.5889 9.4
      vertex 91.4951 43.7966 0
      vertex 91.4951 43.7966 9.4
    endloop
  endfacet
  facet normal 0.920505 -0.39073 0
    outer loop
      vertex 99.3323 38.2062 9.4
      vertex 100.211 40.2753 0
      vertex 100.211 40.2753 9.4
    endloop
  endfacet
  facet normal 0.920505 -0.39073 0
    outer loop
      vertex 100.211 40.2753 0
      vertex 99.3323 38.2062 9.4
      vertex 99.3323 38.2062 0
    endloop
  endfacet
  facet normal -0.920506 0.390729 0
    outer loop
      vertex 90.745 42.0295 0
      vertex 91.4951 43.7966 9.4
      vertex 91.4951 43.7966 0
    endloop
  endfacet
  facet normal -0.920506 0.390729 0
    outer loop
      vertex 91.4951 43.7966 9.4
      vertex 90.745 42.0295 0
      vertex 90.745 42.0295 9.4
    endloop
  endfacet
  facet normal 0.906308 -0.422618 0
    outer loop
      vertex 98.3823 36.1689 9.4
      vertex 99.3323 38.2062 0
      vertex 99.3323 38.2062 9.4
    endloop
  endfacet
  facet normal 0.906308 -0.422618 0
    outer loop
      vertex 99.3323 38.2062 0
      vertex 98.3823 36.1689 9.4
      vertex 98.3823 36.1689 0
    endloop
  endfacet
  facet normal -0.906307 0.422621 0
    outer loop
      vertex 89.9337 40.2896 0
      vertex 90.745 42.0295 9.4
      vertex 90.745 42.0295 0
    endloop
  endfacet
  facet normal -0.906307 0.422621 0
    outer loop
      vertex 90.745 42.0295 9.4
      vertex 89.9337 40.2896 0
      vertex 89.9337 40.2896 9.4
    endloop
  endfacet
  facet normal 0.891006 -0.453992 0
    outer loop
      vertex 97.3618 34.166 9.4
      vertex 98.3823 36.1689 0
      vertex 98.3823 36.1689 9.4
    endloop
  endfacet
  facet normal 0.891006 -0.453992 0
    outer loop
      vertex 98.3823 36.1689 0
      vertex 97.3618 34.166 9.4
      vertex 97.3618 34.166 0
    endloop
  endfacet
  facet normal -0.891008 0.453989 0
    outer loop
      vertex 89.0621 38.5791 0
      vertex 89.9337 40.2896 9.4
      vertex 89.9337 40.2896 0
    endloop
  endfacet
  facet normal -0.891008 0.453989 0
    outer loop
      vertex 89.9337 40.2896 9.4
      vertex 89.0621 38.5791 0
      vertex 89.0621 38.5791 9.4
    endloop
  endfacet
  facet normal 0.874619 -0.48481 0
    outer loop
      vertex 96.272 32.2 9.4
      vertex 97.3618 34.166 0
      vertex 97.3618 34.166 9.4
    endloop
  endfacet
  facet normal 0.874619 -0.48481 0
    outer loop
      vertex 97.3618 34.166 0
      vertex 96.272 32.2 9.4
      vertex 96.272 32.2 0
    endloop
  endfacet
  facet normal -0.874618 0.484812 0
    outer loop
      vertex 88.1314 36.9 0
      vertex 89.0621 38.5791 9.4
      vertex 89.0621 38.5791 0
    endloop
  endfacet
  facet normal -0.874618 0.484812 0
    outer loop
      vertex 89.0621 38.5791 9.4
      vertex 88.1314 36.9 0
      vertex 88.1314 36.9 9.4
    endloop
  endfacet
  facet normal 0.857168 -0.515038 0
    outer loop
      vertex 95.1143 30.2732 9.4
      vertex 96.272 32.2 0
      vertex 96.272 32.2 9.4
    endloop
  endfacet
  facet normal 0.857168 -0.515038 0
    outer loop
      vertex 96.272 32.2 0
      vertex 95.1143 30.2732 9.4
      vertex 95.1143 30.2732 0
    endloop
  endfacet
  facet normal -0.857169 0.515036 0
    outer loop
      vertex 87.1426 35.2544 0
      vertex 88.1314 36.9 9.4
      vertex 88.1314 36.9 0
    endloop
  endfacet
  facet normal -0.857169 0.515036 0
    outer loop
      vertex 88.1314 36.9 9.4
      vertex 87.1426 35.2544 0
      vertex 87.1426 35.2544 9.4
    endloop
  endfacet
  facet normal 0.838671 -0.544638 0
    outer loop
      vertex 93.89 28.388 9.4
      vertex 95.1143 30.2732 0
      vertex 95.1143 30.2732 9.4
    endloop
  endfacet
  facet normal 0.838671 -0.544638 0
    outer loop
      vertex 95.1143 30.2732 0
      vertex 93.89 28.388 9.4
      vertex 93.89 28.388 0
    endloop
  endfacet
  facet normal -0.838671 0.544639 0
    outer loop
      vertex 86.0971 33.6444 0
      vertex 87.1426 35.2544 9.4
      vertex 87.1426 35.2544 0
    endloop
  endfacet
  facet normal -0.838671 0.544639 0
    outer loop
      vertex 87.1426 35.2544 9.4
      vertex 86.0971 33.6444 0
      vertex 86.0971 33.6444 9.4
    endloop
  endfacet
  facet normal 0.819151 -0.573578 0
    outer loop
      vertex 92.6007 26.5466 9.4
      vertex 93.89 28.388 0
      vertex 93.89 28.388 9.4
    endloop
  endfacet
  facet normal 0.819151 -0.573578 0
    outer loop
      vertex 93.89 28.388 0
      vertex 92.6007 26.5466 9.4
      vertex 92.6007 26.5466 0
    endloop
  endfacet
  facet normal -0.819151 0.573578 0
    outer loop
      vertex 84.9959 32.0718 0
      vertex 86.0971 33.6444 9.4
      vertex 86.0971 33.6444 0
    endloop
  endfacet
  facet normal -0.819151 0.573578 0
    outer loop
      vertex 86.0971 33.6444 9.4
      vertex 84.9959 32.0718 0
      vertex 84.9959 32.0718 9.4
    endloop
  endfacet
  facet normal 0.798636 -0.601814 0
    outer loop
      vertex 91.2479 24.7514 9.4
      vertex 92.6007 26.5466 0
      vertex 92.6007 26.5466 9.4
    endloop
  endfacet
  facet normal 0.798636 -0.601814 0
    outer loop
      vertex 92.6007 26.5466 0
      vertex 91.2479 24.7514 9.4
      vertex 91.2479 24.7514 0
    endloop
  endfacet
  facet normal -0.798636 0.601815 0
    outer loop
      vertex 83.8406 30.5386 0
      vertex 84.9959 32.0718 9.4
      vertex 84.9959 32.0718 0
    endloop
  endfacet
  facet normal -0.798636 0.601815 0
    outer loop
      vertex 84.9959 32.0718 9.4
      vertex 83.8406 30.5386 0
      vertex 83.8406 30.5386 9.4
    endloop
  endfacet
  facet normal 0.777145 -0.629321 0
    outer loop
      vertex 89.8333 23.0045 9.4
      vertex 91.2479 24.7514 0
      vertex 91.2479 24.7514 9.4
    endloop
  endfacet
  facet normal 0.777145 -0.629321 0
    outer loop
      vertex 91.2479 24.7514 0
      vertex 89.8333 23.0045 9.4
      vertex 89.8333 23.0045 0
    endloop
  endfacet
  facet normal -0.777147 0.62932 0
    outer loop
      vertex 82.6324 29.0467 0
      vertex 83.8406 30.5386 9.4
      vertex 83.8406 30.5386 0
    endloop
  endfacet
  facet normal -0.777147 0.62932 0
    outer loop
      vertex 83.8406 30.5386 9.4
      vertex 82.6324 29.0467 0
      vertex 82.6324 29.0467 9.4
    endloop
  endfacet
  facet normal 0.754711 -0.656058 0
    outer loop
      vertex 88.3585 21.308 9.4
      vertex 89.8333 23.0045 0
      vertex 89.8333 23.0045 9.4
    endloop
  endfacet
  facet normal 0.754711 -0.656058 0
    outer loop
      vertex 89.8333 23.0045 0
      vertex 88.3585 21.308 9.4
      vertex 88.3585 21.308 0
    endloop
  endfacet
  facet normal -0.754709 0.65606 0
    outer loop
      vertex 81.373 27.5978 0
      vertex 82.6324 29.0467 9.4
      vertex 82.6324 29.0467 0
    endloop
  endfacet
  facet normal -0.754709 0.65606 0
    outer loop
      vertex 82.6324 29.0467 9.4
      vertex 81.373 27.5978 0
      vertex 81.373 27.5978 9.4
    endloop
  endfacet
  facet normal 0.731354 -0.681998 0
    outer loop
      vertex 86.8255 19.664 9.4
      vertex 88.3585 21.308 0
      vertex 88.3585 21.308 9.4
    endloop
  endfacet
  facet normal 0.731354 -0.681998 0
    outer loop
      vertex 88.3585 21.308 0
      vertex 86.8255 19.664 9.4
      vertex 86.8255 19.664 0
    endloop
  endfacet
  facet normal -0.731354 0.681998 0
    outer loop
      vertex 80.0637 26.1938 0
      vertex 81.373 27.5978 9.4
      vertex 81.373 27.5978 0
    endloop
  endfacet
  facet normal -0.731354 0.681998 0
    outer loop
      vertex 81.373 27.5978 9.4
      vertex 80.0637 26.1938 0
      vertex 80.0637 26.1938 9.4
    endloop
  endfacet
  facet normal 0.707106 -0.707107 0
    outer loop
      vertex 85.236 18.0745 0
      vertex 86.8255 19.664 9.4
      vertex 85.236 18.0745 9.4
    endloop
  endfacet
  facet normal 0.707106 -0.707107 0
    outer loop
      vertex 86.8255 19.664 9.4
      vertex 85.236 18.0745 0
      vertex 86.8255 19.664 0
    endloop
  endfacet
  facet normal -0.707106 0.707108 0
    outer loop
      vertex 80.0637 26.1938 0
      vertex 78.7062 24.8363 9.4
      vertex 80.0637 26.1938 9.4
    endloop
  endfacet
  facet normal -0.707106 0.707108 0
    outer loop
      vertex 78.7062 24.8363 9.4
      vertex 80.0637 26.1938 0
      vertex 78.7062 24.8363 0
    endloop
  endfacet
  facet normal 0.681998 -0.731354 0
    outer loop
      vertex 83.592 16.5415 0
      vertex 85.236 18.0745 9.4
      vertex 83.592 16.5415 9.4
    endloop
  endfacet
  facet normal 0.681998 -0.731354 0
    outer loop
      vertex 85.236 18.0745 9.4
      vertex 83.592 16.5415 0
      vertex 85.236 18.0745 0
    endloop
  endfacet
  facet normal -0.682 0.731352 0
    outer loop
      vertex 78.7062 24.8363 0
      vertex 77.3022 23.527 9.4
      vertex 78.7062 24.8363 9.4
    endloop
  endfacet
  facet normal -0.682 0.731352 0
    outer loop
      vertex 77.3022 23.527 9.4
      vertex 78.7062 24.8363 0
      vertex 77.3022 23.527 0
    endloop
  endfacet
  facet normal 0.656059 -0.754709 0
    outer loop
      vertex 81.8955 15.0667 0
      vertex 83.592 16.5415 9.4
      vertex 81.8955 15.0667 9.4
    endloop
  endfacet
  facet normal 0.656059 -0.754709 0
    outer loop
      vertex 83.592 16.5415 9.4
      vertex 81.8955 15.0667 0
      vertex 83.592 16.5415 0
    endloop
  endfacet
  facet normal -0.656058 0.754711 0
    outer loop
      vertex 77.3022 23.527 0
      vertex 75.8533 22.2676 9.4
      vertex 77.3022 23.527 9.4
    endloop
  endfacet
  facet normal -0.656058 0.754711 0
    outer loop
      vertex 75.8533 22.2676 9.4
      vertex 77.3022 23.527 0
      vertex 75.8533 22.2676 0
    endloop
  endfacet
  facet normal 0.62932 -0.777146 0
    outer loop
      vertex 80.1486 13.6521 0
      vertex 81.8955 15.0667 9.4
      vertex 80.1486 13.6521 9.4
    endloop
  endfacet
  facet normal 0.62932 -0.777146 0
    outer loop
      vertex 81.8955 15.0667 9.4
      vertex 80.1486 13.6521 0
      vertex 81.8955 15.0667 0
    endloop
  endfacet
  facet normal -0.629321 0.777145 0
    outer loop
      vertex 75.8533 22.2676 0
      vertex 74.3614 21.0594 9.4
      vertex 75.8533 22.2676 9.4
    endloop
  endfacet
  facet normal -0.629321 0.777145 0
    outer loop
      vertex 74.3614 21.0594 9.4
      vertex 75.8533 22.2676 0
      vertex 74.3614 21.0594 0
    endloop
  endfacet
  facet normal 0.601815 -0.798635 0
    outer loop
      vertex 78.3534 12.2993 0
      vertex 80.1486 13.6521 9.4
      vertex 78.3534 12.2993 9.4
    endloop
  endfacet
  facet normal 0.601815 -0.798635 0
    outer loop
      vertex 80.1486 13.6521 9.4
      vertex 78.3534 12.2993 0
      vertex 80.1486 13.6521 0
    endloop
  endfacet
  facet normal -0.601814 0.798636 0
    outer loop
      vertex 74.3614 21.0594 0
      vertex 72.8282 19.9041 9.4
      vertex 74.3614 21.0594 9.4
    endloop
  endfacet
  facet normal -0.601814 0.798636 0
    outer loop
      vertex 72.8282 19.9041 9.4
      vertex 74.3614 21.0594 0
      vertex 72.8282 19.9041 0
    endloop
  endfacet
  facet normal 0.573577 -0.819152 0
    outer loop
      vertex 76.512 11.01 0
      vertex 78.3534 12.2993 9.4
      vertex 76.512 11.01 9.4
    endloop
  endfacet
  facet normal 0.573577 -0.819152 0
    outer loop
      vertex 78.3534 12.2993 9.4
      vertex 76.512 11.01 0
      vertex 78.3534 12.2993 0
    endloop
  endfacet
  facet normal -0.573576 0.819152 0
    outer loop
      vertex 72.8282 19.9041 0
      vertex 71.2556 18.8029 9.4
      vertex 72.8282 19.9041 9.4
    endloop
  endfacet
  facet normal -0.573576 0.819152 0
    outer loop
      vertex 71.2556 18.8029 9.4
      vertex 72.8282 19.9041 0
      vertex 71.2556 18.8029 0
    endloop
  endfacet
  facet normal 0.544639 -0.838671 0
    outer loop
      vertex 74.6268 9.7857 0
      vertex 76.512 11.01 9.4
      vertex 74.6268 9.7857 9.4
    endloop
  endfacet
  facet normal 0.544639 -0.838671 0
    outer loop
      vertex 76.512 11.01 9.4
      vertex 74.6268 9.7857 0
      vertex 76.512 11.01 0
    endloop
  endfacet
  facet normal -0.54464 0.83867 0
    outer loop
      vertex 71.2556 18.8029 0
      vertex 69.6456 17.7574 9.4
      vertex 71.2556 18.8029 9.4
    endloop
  endfacet
  facet normal -0.54464 0.83867 0
    outer loop
      vertex 69.6456 17.7574 9.4
      vertex 71.2556 18.8029 0
      vertex 69.6456 17.7574 0
    endloop
  endfacet
  facet normal 0.515038 -0.857168 0
    outer loop
      vertex 72.7 8.62796 0
      vertex 74.6268 9.7857 9.4
      vertex 72.7 8.62796 9.4
    endloop
  endfacet
  facet normal 0.515038 -0.857168 0
    outer loop
      vertex 74.6268 9.7857 9.4
      vertex 72.7 8.62796 0
      vertex 74.6268 9.7857 0
    endloop
  endfacet
  facet normal -0.515037 0.857168 0
    outer loop
      vertex 69.6456 17.7574 0
      vertex 68 16.7686 9.4
      vertex 69.6456 17.7574 9.4
    endloop
  endfacet
  facet normal -0.515037 0.857168 0
    outer loop
      vertex 68 16.7686 9.4
      vertex 69.6456 17.7574 0
      vertex 68 16.7686 0
    endloop
  endfacet
  facet normal 0.48481 -0.874619 0
    outer loop
      vertex 70.734 7.53818 0
      vertex 72.7 8.62796 9.4
      vertex 70.734 7.53818 9.4
    endloop
  endfacet
  facet normal 0.48481 -0.874619 0
    outer loop
      vertex 72.7 8.62796 9.4
      vertex 70.734 7.53818 0
      vertex 72.7 8.62796 0
    endloop
  endfacet
  facet normal -0.484811 0.874619 0
    outer loop
      vertex 68 16.7686 0
      vertex 66.3209 15.8379 9.4
      vertex 68 16.7686 9.4
    endloop
  endfacet
  facet normal -0.484811 0.874619 0
    outer loop
      vertex 66.3209 15.8379 9.4
      vertex 68 16.7686 0
      vertex 66.3209 15.8379 0
    endloop
  endfacet
  facet normal 0.45399 -0.891007 0
    outer loop
      vertex 68.7311 6.51766 0
      vertex 70.734 7.53818 9.4
      vertex 68.7311 6.51766 9.4
    endloop
  endfacet
  facet normal 0.45399 -0.891007 0
    outer loop
      vertex 70.734 7.53818 9.4
      vertex 68.7311 6.51766 0
      vertex 70.734 7.53818 0
    endloop
  endfacet
  facet normal -0.45399 0.891007 0
    outer loop
      vertex 66.3209 15.8379 0
      vertex 64.6104 14.9663 9.4
      vertex 66.3209 15.8379 9.4
    endloop
  endfacet
  facet normal -0.45399 0.891007 0
    outer loop
      vertex 64.6104 14.9663 9.4
      vertex 66.3209 15.8379 0
      vertex 64.6104 14.9663 0
    endloop
  endfacet
  facet normal 0.422618 -0.906308 0
    outer loop
      vertex 66.6938 5.56767 0
      vertex 68.7311 6.51766 9.4
      vertex 66.6938 5.56767 9.4
    endloop
  endfacet
  facet normal 0.422618 -0.906308 0
    outer loop
      vertex 68.7311 6.51766 9.4
      vertex 66.6938 5.56767 0
      vertex 68.7311 6.51766 0
    endloop
  endfacet
  facet normal -0.422618 0.906308 0
    outer loop
      vertex 64.6104 14.9663 0
      vertex 62.8705 14.155 9.4
      vertex 64.6104 14.9663 9.4
    endloop
  endfacet
  facet normal -0.422618 0.906308 0
    outer loop
      vertex 62.8705 14.155 9.4
      vertex 64.6104 14.9663 0
      vertex 62.8705 14.155 0
    endloop
  endfacet
  facet normal 0.390731 -0.920505 0
    outer loop
      vertex 64.6247 4.68936 0
      vertex 66.6938 5.56767 9.4
      vertex 64.6247 4.68936 9.4
    endloop
  endfacet
  facet normal 0.390731 -0.920505 0
    outer loop
      vertex 66.6938 5.56767 9.4
      vertex 64.6247 4.68936 0
      vertex 66.6938 5.56767 0
    endloop
  endfacet
  facet normal -0.390731 0.920505 0
    outer loop
      vertex 62.8705 14.155 0
      vertex 61.1034 13.4049 9.4
      vertex 62.8705 14.155 9.4
    endloop
  endfacet
  facet normal -0.390731 0.920505 0
    outer loop
      vertex 61.1034 13.4049 9.4
      vertex 62.8705 14.155 0
      vertex 61.1034 13.4049 0
    endloop
  endfacet
  facet normal 0.358368 -0.933581 0
    outer loop
      vertex 62.5261 3.8838 0
      vertex 64.6247 4.68936 9.4
      vertex 62.5261 3.8838 9.4
    endloop
  endfacet
  facet normal 0.358368 -0.933581 0
    outer loop
      vertex 64.6247 4.68936 9.4
      vertex 62.5261 3.8838 0
      vertex 64.6247 4.68936 0
    endloop
  endfacet
  facet normal -0.358368 0.93358 0
    outer loop
      vertex 61.1034 13.4049 0
      vertex 59.3111 12.7169 9.4
      vertex 61.1034 13.4049 9.4
    endloop
  endfacet
  facet normal -0.358368 0.93358 0
    outer loop
      vertex 59.3111 12.7169 9.4
      vertex 61.1034 13.4049 0
      vertex 59.3111 12.7169 0
    endloop
  endfacet
  facet normal 0.325569 -0.945518 0
    outer loop
      vertex 60.4007 3.15196 0
      vertex 62.5261 3.8838 9.4
      vertex 60.4007 3.15196 9.4
    endloop
  endfacet
  facet normal 0.325569 -0.945518 0
    outer loop
      vertex 62.5261 3.8838 9.4
      vertex 60.4007 3.15196 0
      vertex 62.5261 3.8838 0
    endloop
  endfacet
  facet normal -0.325568 0.945519 0
    outer loop
      vertex 59.3111 12.7169 0
      vertex 57.4959 12.0919 9.4
      vertex 59.3111 12.7169 9.4
    endloop
  endfacet
  facet normal -0.325568 0.945519 0
    outer loop
      vertex 57.4959 12.0919 9.4
      vertex 59.3111 12.7169 0
      vertex 57.4959 12.0919 0
    endloop
  endfacet
  facet normal 0.292371 -0.956305 0
    outer loop
      vertex 58.251 2.49475 0
      vertex 60.4007 3.15196 9.4
      vertex 58.251 2.49475 9.4
    endloop
  endfacet
  facet normal 0.292371 -0.956305 0
    outer loop
      vertex 60.4007 3.15196 9.4
      vertex 58.251 2.49475 0
      vertex 60.4007 3.15196 0
    endloop
  endfacet
  facet normal -0.292371 0.956305 0
    outer loop
      vertex 57.4959 12.0919 0
      vertex 55.6601 11.5306 9.4
      vertex 57.4959 12.0919 9.4
    endloop
  endfacet
  facet normal -0.292371 0.956305 0
    outer loop
      vertex 55.6601 11.5306 9.4
      vertex 57.4959 12.0919 0
      vertex 55.6601 11.5306 0
    endloop
  endfacet
  facet normal 0.258819 -0.965926 0
    outer loop
      vertex 56.0798 1.91296 0
      vertex 58.251 2.49475 9.4
      vertex 56.0798 1.91296 9.4
    endloop
  endfacet
  facet normal 0.258819 -0.965926 0
    outer loop
      vertex 58.251 2.49475 9.4
      vertex 56.0798 1.91296 0
      vertex 58.251 2.49475 0
    endloop
  endfacet
  facet normal -0.258819 0.965926 0
    outer loop
      vertex 55.6601 11.5306 0
      vertex 53.8057 11.0337 9.4
      vertex 55.6601 11.5306 9.4
    endloop
  endfacet
  facet normal -0.258819 0.965926 0
    outer loop
      vertex 53.8057 11.0337 9.4
      vertex 55.6601 11.5306 0
      vertex 53.8057 11.0337 0
    endloop
  endfacet
  facet normal 0.224951 -0.97437 0
    outer loop
      vertex 53.8895 1.40729 0
      vertex 56.0798 1.91296 9.4
      vertex 53.8895 1.40729 9.4
    endloop
  endfacet
  facet normal 0.224951 -0.97437 0
    outer loop
      vertex 56.0798 1.91296 9.4
      vertex 53.8895 1.40729 0
      vertex 56.0798 1.91296 0
    endloop
  endfacet
  facet normal -0.224951 0.97437 0
    outer loop
      vertex 53.8057 11.0337 0
      vertex 51.9351 10.6019 9.4
      vertex 53.8057 11.0337 9.4
    endloop
  endfacet
  facet normal -0.224951 0.97437 0
    outer loop
      vertex 51.9351 10.6019 9.4
      vertex 53.8057 11.0337 0
      vertex 51.9351 10.6019 0
    endloop
  endfacet
  facet normal 0.190809 -0.981627 0
    outer loop
      vertex 51.6829 0.978382 0
      vertex 53.8895 1.40729 9.4
      vertex 51.6829 0.978382 9.4
    endloop
  endfacet
  facet normal 0.190809 -0.981627 0
    outer loop
      vertex 53.8895 1.40729 9.4
      vertex 51.6829 0.978382 0
      vertex 53.8895 1.40729 0
    endloop
  endfacet
  facet normal -0.190809 0.981627 0
    outer loop
      vertex 51.9351 10.6019 0
      vertex 50.0507 10.2356 9.4
      vertex 51.9351 10.6019 9.4
    endloop
  endfacet
  facet normal -0.190809 0.981627 0
    outer loop
      vertex 50.0507 10.2356 9.4
      vertex 51.9351 10.6019 0
      vertex 50.0507 10.2356 0
    endloop
  endfacet
  facet normal 0.156434 -0.987688 0
    outer loop
      vertex 49.4627 0.626737 0
      vertex 51.6829 0.978382 9.4
      vertex 49.4627 0.626737 9.4
    endloop
  endfacet
  facet normal 0.156434 -0.987688 0
    outer loop
      vertex 51.6829 0.978382 9.4
      vertex 49.4627 0.626737 0
      vertex 51.6829 0.978382 0
    endloop
  endfacet
  facet normal -0.156434 0.987688 0
    outer loop
      vertex 50.0507 10.2356 0
      vertex 48.1545 9.93526 9.4
      vertex 50.0507 10.2356 9.4
    endloop
  endfacet
  facet normal -0.156434 0.987688 0
    outer loop
      vertex 48.1545 9.93526 9.4
      vertex 50.0507 10.2356 0
      vertex 48.1545 9.93526 0
    endloop
  endfacet
  facet normal 0.12187 -0.992546 0
    outer loop
      vertex 47.2316 0.35279 0
      vertex 49.4627 0.626737 9.4
      vertex 47.2316 0.35279 9.4
    endloop
  endfacet
  facet normal 0.12187 -0.992546 0
    outer loop
      vertex 49.4627 0.626737 9.4
      vertex 47.2316 0.35279 0
      vertex 49.4627 0.626737 0
    endloop
  endfacet
  facet normal -0.121869 0.992546 0
    outer loop
      vertex 48.1545 9.93526 0
      vertex 46.2491 9.7013 9.4
      vertex 48.1545 9.93526 9.4
    endloop
  endfacet
  facet normal -0.121869 0.992546 0
    outer loop
      vertex 46.2491 9.7013 9.4
      vertex 48.1545 9.93526 0
      vertex 46.2491 9.7013 0
    endloop
  endfacet
  facet normal 0.0871556 -0.996195 0
    outer loop
      vertex 44.9923 0.156876 0
      vertex 47.2316 0.35279 9.4
      vertex 44.9923 0.156876 9.4
    endloop
  endfacet
  facet normal 0.0871556 -0.996195 0
    outer loop
      vertex 47.2316 0.35279 9.4
      vertex 44.9923 0.156876 0
      vertex 47.2316 0.35279 0
    endloop
  endfacet
  facet normal -0.0871556 0.996195 0
    outer loop
      vertex 46.2491 9.7013 0
      vertex 44.3366 9.53398 9.4
      vertex 46.2491 9.7013 9.4
    endloop
  endfacet
  facet normal -0.0871556 0.996195 0
    outer loop
      vertex 44.3366 9.53398 9.4
      vertex 46.2491 9.7013 0
      vertex 44.3366 9.53398 0
    endloop
  endfacet
  facet normal 0.0523359 -0.99863 0
    outer loop
      vertex 42.7475 0.0392317 0
      vertex 44.9923 0.156876 9.4
      vertex 42.7475 0.0392317 9.4
    endloop
  endfacet
  facet normal 0.0523359 -0.99863 0
    outer loop
      vertex 44.9923 0.156876 9.4
      vertex 42.7475 0.0392317 0
      vertex 44.9923 0.156876 0
    endloop
  endfacet
  facet normal -0.0523358 0.99863 0
    outer loop
      vertex 44.3366 9.53398 0
      vertex 42.4195 9.43351 9.4
      vertex 44.3366 9.53398 9.4
    endloop
  endfacet
  facet normal -0.0523358 0.99863 0
    outer loop
      vertex 42.4195 9.43351 9.4
      vertex 44.3366 9.53398 0
      vertex 42.4195 9.43351 0
    endloop
  endfacet
  facet normal 0.0174526 -0.999848 0
    outer loop
      vertex 40.6 0.0017459 0
      vertex 42.7475 0.0392317 9.4
      vertex 40.6 0.0017459 9.4
    endloop
  endfacet
  facet normal 0.0174526 -0.999848 0
    outer loop
      vertex 42.7475 0.0392317 9.4
      vertex 40.6 0.0017459 0
      vertex 42.7475 0.0392317 0
    endloop
  endfacet
  facet normal -0.0174529 0.999848 0
    outer loop
      vertex 42.4195 9.43351 0
      vertex 40.5 9.4 9.4
      vertex 42.4195 9.43351 9.4
    endloop
  endfacet
  facet normal -0.0174529 0.999848 0
    outer loop
      vertex 40.5 9.4 9.4
      vertex 42.4195 9.43351 0
      vertex 40.5 9.4 0
    endloop
  endfacet
  facet normal 0 1 -0
    outer loop
      vertex 95.6 64.4 0
      vertex 95.5 64.4 9.4
      vertex 95.6 64.4 9.4
    endloop
  endfacet
  facet normal 0 1 0
    outer loop
      vertex 95.5 64.4 9.4
      vertex 95.6 64.4 0
      vertex 95.5 64.4 0
    endloop
  endfacet
  facet normal 0 1 0
    outer loop
      vertex 101.134 64.4 7.26785
      vertex 99.4657 64.4 7.26785
      vertex 100.3 64.4 7.4
    endloop
  endfacet
  facet normal 0 1 0
    outer loop
      vertex 101.887 64.4 6.88435
      vertex 99.4657 64.4 7.26785
      vertex 101.134 64.4 7.26785
    endloop
  endfacet
  facet normal 0 1 0
    outer loop
      vertex 101.887 64.4 6.88435
      vertex 98.713 64.4 6.88435
      vertex 99.4657 64.4 7.26785
    endloop
  endfacet
  facet normal 0 1 0
    outer loop
      vertex 102.484 64.4 6.28702
      vertex 98.713 64.4 6.88435
      vertex 101.887 64.4 6.88435
    endloop
  endfacet
  facet normal 0 1 0
    outer loop
      vertex 102.484 64.4 6.28702
      vertex 98.1157 64.4 6.28702
      vertex 98.713 64.4 6.88435
    endloop
  endfacet
  facet normal 0 1 0
    outer loop
      vertex 102.868 64.4 5.53435
      vertex 98.1157 64.4 6.28702
      vertex 102.484 64.4 6.28702
    endloop
  endfacet
  facet normal 0 1 0
    outer loop
      vertex 102.868 64.4 5.53435
      vertex 97.7321 64.4 5.53435
      vertex 98.1157 64.4 6.28702
    endloop
  endfacet
  facet normal 0 1 0
    outer loop
      vertex 103 64.4 4.7
      vertex 97.7321 64.4 5.53435
      vertex 102.868 64.4 5.53435
    endloop
  endfacet
  facet normal 0 1 0
    outer loop
      vertex 103 64.4 4.7
      vertex 97.6 64.4 4.7
      vertex 97.7321 64.4 5.53435
    endloop
  endfacet
  facet normal 0 1 -0
    outer loop
      vertex 102.868 64.4 3.86565
      vertex 97.6 64.4 4.7
      vertex 103 64.4 4.7
    endloop
  endfacet
  facet normal 0 1 0
    outer loop
      vertex 102.868 64.4 3.86565
      vertex 97.7321 64.4 3.86565
      vertex 97.6 64.4 4.7
    endloop
  endfacet
  facet normal 0 1 -0
    outer loop
      vertex 102.484 64.4 3.11298
      vertex 97.7321 64.4 3.86565
      vertex 102.868 64.4 3.86565
    endloop
  endfacet
  facet normal 0 1 0
    outer loop
      vertex 102.484 64.4 3.11298
      vertex 98.1157 64.4 3.11298
      vertex 97.7321 64.4 3.86565
    endloop
  endfacet
  facet normal 0 1 -0
    outer loop
      vertex 101.887 64.4 2.51565
      vertex 98.1157 64.4 3.11298
      vertex 102.484 64.4 3.11298
    endloop
  endfacet
  facet normal 0 1 0
    outer loop
      vertex 101.887 64.4 2.51565
      vertex 98.713 64.4 2.51565
      vertex 98.1157 64.4 3.11298
    endloop
  endfacet
  facet normal 0 1 -0
    outer loop
      vertex 101.134 64.4 2.13215
      vertex 98.713 64.4 2.51565
      vertex 101.887 64.4 2.51565
    endloop
  endfacet
  facet normal 0 1 0
    outer loop
      vertex 101.134 64.4 2.13215
      vertex 99.4657 64.4 2.13215
      vertex 98.713 64.4 2.51565
    endloop
  endfacet
  facet normal -0 1 0
    outer loop
      vertex 99.4657 64.4 2.13215
      vertex 101.134 64.4 2.13215
      vertex 100.3 64.4 2
    endloop
  endfacet
  facet normal -1 0 0
    outer loop
      vertex 95.6 64.4 0
      vertex 95.6 77.3 9.4
      vertex 95.6 77.3 0
    endloop
  endfacet
  facet normal -1 -0 0
    outer loop
      vertex 95.6 77.3 9.4
      vertex 95.6 64.4 0
      vertex 95.6 64.4 9.4
    endloop
  endfacet
  facet normal 1 -0 0
    outer loop
      vertex 105 64.3 9.4
      vertex 105 77.3 0
      vertex 105 77.3 9.4
    endloop
  endfacet
  facet normal 1 0 0
    outer loop
      vertex 105 77.3 0
      vertex 105 64.3 9.4
      vertex 105 64.3 0
    endloop
  endfacet
  facet normal 0 1 0
    outer loop
      vertex 105 77.3 9.4
      vertex 100.3 77.3 7.4
      vertex 95.6 77.3 9.4
    endloop
  endfacet
  facet normal 0 1 0
    outer loop
      vertex 105 77.3 9.4
      vertex 101.134 77.3 7.26785
      vertex 100.3 77.3 7.4
    endloop
  endfacet
  facet normal 0 1 0
    outer loop
      vertex 105 77.3 9.4
      vertex 101.887 77.3 6.88435
      vertex 101.134 77.3 7.26785
    endloop
  endfacet
  facet normal 0 1 0
    outer loop
      vertex 105 77.3 9.4
      vertex 102.484 77.3 6.28702
      vertex 101.887 77.3 6.88435
    endloop
  endfacet
  facet normal 0 1 0
    outer loop
      vertex 105 77.3 9.4
      vertex 102.868 77.3 5.53435
      vertex 102.484 77.3 6.28702
    endloop
  endfacet
  facet normal 0 1 0
    outer loop
      vertex 105 77.3 9.4
      vertex 103 77.3 4.7
      vertex 102.868 77.3 5.53435
    endloop
  endfacet
  facet normal 0 1 -0
    outer loop
      vertex 105 77.3 0
      vertex 103 77.3 4.7
      vertex 105 77.3 9.4
    endloop
  endfacet
  facet normal 0 1 0
    outer loop
      vertex 101.134 77.3 2.13215
      vertex 105 77.3 0
      vertex 100.3 77.3 2
    endloop
  endfacet
  facet normal 0 1 0
    outer loop
      vertex 101.887 77.3 2.51565
      vertex 105 77.3 0
      vertex 101.134 77.3 2.13215
    endloop
  endfacet
  facet normal 0 1 0
    outer loop
      vertex 102.484 77.3 3.11298
      vertex 105 77.3 0
      vertex 101.887 77.3 2.51565
    endloop
  endfacet
  facet normal 0 1 0
    outer loop
      vertex 102.868 77.3 3.86565
      vertex 105 77.3 0
      vertex 102.484 77.3 3.11298
    endloop
  endfacet
  facet normal 0 1 0
    outer loop
      vertex 103 77.3 4.7
      vertex 105 77.3 0
      vertex 102.868 77.3 3.86565
    endloop
  endfacet
  facet normal 0 1 -0
    outer loop
      vertex 99.4657 77.3 7.26785
      vertex 95.6 77.3 9.4
      vertex 100.3 77.3 7.4
    endloop
  endfacet
  facet normal 0 1 -0
    outer loop
      vertex 98.713 77.3 6.88435
      vertex 95.6 77.3 9.4
      vertex 99.4657 77.3 7.26785
    endloop
  endfacet
  facet normal 0 1 -0
    outer loop
      vertex 98.1157 77.3 6.28702
      vertex 95.6 77.3 9.4
      vertex 98.713 77.3 6.88435
    endloop
  endfacet
  facet normal 0 1 -0
    outer loop
      vertex 97.7321 77.3 5.53435
      vertex 95.6 77.3 9.4
      vertex 98.1157 77.3 6.28702
    endloop
  endfacet
  facet normal 0 1 -0
    outer loop
      vertex 97.6 77.3 4.7
      vertex 95.6 77.3 9.4
      vertex 97.7321 77.3 5.53435
    endloop
  endfacet
  facet normal 0 1 0
    outer loop
      vertex 95.6 77.3 0
      vertex 97.6 77.3 4.7
      vertex 97.7321 77.3 3.86565
    endloop
  endfacet
  facet normal 0 1 0
    outer loop
      vertex 95.6 77.3 0
      vertex 100.3 77.3 2
      vertex 105 77.3 0
    endloop
  endfacet
  facet normal 0 1 0
    outer loop
      vertex 97.6 77.3 4.7
      vertex 95.6 77.3 0
      vertex 95.6 77.3 9.4
    endloop
  endfacet
  facet normal 0 1 0
    outer loop
      vertex 98.1157 77.3 3.11298
      vertex 95.6 77.3 0
      vertex 97.7321 77.3 3.86565
    endloop
  endfacet
  facet normal 0 1 0
    outer loop
      vertex 98.713 77.3 2.51565
      vertex 95.6 77.3 0
      vertex 98.1157 77.3 3.11298
    endloop
  endfacet
  facet normal 0 1 0
    outer loop
      vertex 99.4657 77.3 2.13215
      vertex 95.6 77.3 0
      vertex 98.713 77.3 2.51565
    endloop
  endfacet
  facet normal 0 1 0
    outer loop
      vertex 100.3 77.3 2
      vertex 95.6 77.3 0
      vertex 99.4657 77.3 2.13215
    endloop
  endfacet
  facet normal 0 -1 0
    outer loop
      vertex 104.898 64.3 0
      vertex 105 64.3 9.4
      vertex 104.898 64.3 9.4
    endloop
  endfacet
  facet normal 0 -1 -0
    outer loop
      vertex 105 64.3 9.4
      vertex 104.898 64.3 0
      vertex 105 64.3 0
    endloop
  endfacet
  facet normal -0.987688 0 -0.156436
    outer loop
      vertex 103 64.4 4.7
      vertex 102.868 77.3 5.53435
      vertex 103 77.3 4.7
    endloop
  endfacet
  facet normal -0.987688 -0 -0.156436
    outer loop
      vertex 102.868 77.3 5.53435
      vertex 103 64.4 4.7
      vertex 102.868 64.4 5.53435
    endloop
  endfacet
  facet normal -0.453992 0 0.891006
    outer loop
      vertex 101.134 77.3 2.13215
      vertex 101.887 64.4 2.51565
      vertex 101.887 77.3 2.51565
    endloop
  endfacet
  facet normal -0.453992 0 0.891006
    outer loop
      vertex 101.887 64.4 2.51565
      vertex 101.134 77.3 2.13215
      vertex 101.134 64.4 2.13215
    endloop
  endfacet
  facet normal 0.156434 0 -0.987688
    outer loop
      vertex 99.4657 64.4 7.26785
      vertex 100.3 77.3 7.4
      vertex 100.3 64.4 7.4
    endloop
  endfacet
  facet normal 0.156434 0 -0.987688
    outer loop
      vertex 100.3 77.3 7.4
      vertex 99.4657 64.4 7.26785
      vertex 99.4657 77.3 7.26785
    endloop
  endfacet
  facet normal -0.156435 0 -0.987688
    outer loop
      vertex 100.3 64.4 7.4
      vertex 101.134 77.3 7.26785
      vertex 101.134 64.4 7.26785
    endloop
  endfacet
  facet normal -0.156435 0 -0.987688
    outer loop
      vertex 101.134 77.3 7.26785
      vertex 100.3 64.4 7.4
      vertex 100.3 77.3 7.4
    endloop
  endfacet
  facet normal -0.707105 0 0.707108
    outer loop
      vertex 101.887 77.3 2.51565
      vertex 102.484 64.4 3.11298
      vertex 102.484 77.3 3.11298
    endloop
  endfacet
  facet normal -0.707105 0 0.707108
    outer loop
      vertex 102.484 64.4 3.11298
      vertex 101.887 77.3 2.51565
      vertex 101.887 64.4 2.51565
    endloop
  endfacet
  facet normal -0.891006 0 -0.453991
    outer loop
      vertex 102.868 64.4 5.53435
      vertex 102.484 77.3 6.28702
      vertex 102.868 77.3 5.53435
    endloop
  endfacet
  facet normal -0.891006 -0 -0.453991
    outer loop
      vertex 102.484 77.3 6.28702
      vertex 102.868 64.4 5.53435
      vertex 102.484 64.4 6.28702
    endloop
  endfacet
  facet normal -0.453992 0 -0.891006
    outer loop
      vertex 101.134 64.4 7.26785
      vertex 101.887 77.3 6.88435
      vertex 101.887 64.4 6.88435
    endloop
  endfacet
  facet normal -0.453992 0 -0.891006
    outer loop
      vertex 101.887 77.3 6.88435
      vertex 101.134 64.4 7.26785
      vertex 101.134 77.3 7.26785
    endloop
  endfacet
  facet normal 0.987688 -0 0.156436
    outer loop
      vertex 97.6 64.4 4.7
      vertex 97.7321 77.3 3.86565
      vertex 97.6 77.3 4.7
    endloop
  endfacet
  facet normal 0.987688 0 0.156436
    outer loop
      vertex 97.7321 77.3 3.86565
      vertex 97.6 64.4 4.7
      vertex 97.7321 64.4 3.86565
    endloop
  endfacet
  facet normal 0.891006 0 -0.453991
    outer loop
      vertex 98.1157 64.4 6.28702
      vertex 97.7321 77.3 5.53435
      vertex 98.1157 77.3 6.28702
    endloop
  endfacet
  facet normal 0.891006 0 -0.453991
    outer loop
      vertex 97.7321 77.3 5.53435
      vertex 98.1157 64.4 6.28702
      vertex 97.7321 64.4 5.53435
    endloop
  endfacet
  facet normal 0.453992 0 -0.891006
    outer loop
      vertex 98.713 64.4 6.88435
      vertex 99.4657 77.3 7.26785
      vertex 99.4657 64.4 7.26785
    endloop
  endfacet
  facet normal 0.453992 0 -0.891006
    outer loop
      vertex 99.4657 77.3 7.26785
      vertex 98.713 64.4 6.88435
      vertex 98.713 77.3 6.88435
    endloop
  endfacet
  facet normal 0.707105 0 -0.707108
    outer loop
      vertex 98.1157 64.4 6.28702
      vertex 98.713 77.3 6.88435
      vertex 98.713 64.4 6.88435
    endloop
  endfacet
  facet normal 0.707105 0 -0.707108
    outer loop
      vertex 98.713 77.3 6.88435
      vertex 98.1157 64.4 6.28702
      vertex 98.1157 77.3 6.28702
    endloop
  endfacet
  facet normal -0.987688 0 0.156436
    outer loop
      vertex 102.868 64.4 3.86565
      vertex 103 77.3 4.7
      vertex 102.868 77.3 3.86565
    endloop
  endfacet
  facet normal -0.987688 0 0.156436
    outer loop
      vertex 103 77.3 4.7
      vertex 102.868 64.4 3.86565
      vertex 103 64.4 4.7
    endloop
  endfacet
  facet normal -0.156434 0 0.987688
    outer loop
      vertex 100.3 77.3 2
      vertex 101.134 64.4 2.13215
      vertex 101.134 77.3 2.13215
    endloop
  endfacet
  facet normal -0.156434 0 0.987688
    outer loop
      vertex 101.134 64.4 2.13215
      vertex 100.3 77.3 2
      vertex 100.3 64.4 2
    endloop
  endfacet
  facet normal 0.453992 0 0.891006
    outer loop
      vertex 98.713 77.3 2.51565
      vertex 99.4657 64.4 2.13215
      vertex 99.4657 77.3 2.13215
    endloop
  endfacet
  facet normal 0.453992 0 0.891006
    outer loop
      vertex 99.4657 64.4 2.13215
      vertex 98.713 77.3 2.51565
      vertex 98.713 64.4 2.51565
    endloop
  endfacet
  facet normal 0.891007 -0 0.45399
    outer loop
      vertex 97.7321 64.4 3.86565
      vertex 98.1157 77.3 3.11298
      vertex 97.7321 77.3 3.86565
    endloop
  endfacet
  facet normal 0.891007 0 0.45399
    outer loop
      vertex 98.1157 77.3 3.11298
      vertex 97.7321 64.4 3.86565
      vertex 98.1157 64.4 3.11298
    endloop
  endfacet
  facet normal 0.707105 0 0.707108
    outer loop
      vertex 98.1157 77.3 3.11298
      vertex 98.713 64.4 2.51565
      vertex 98.713 77.3 2.51565
    endloop
  endfacet
  facet normal 0.707105 0 0.707108
    outer loop
      vertex 98.713 64.4 2.51565
      vertex 98.1157 77.3 3.11298
      vertex 98.1157 64.4 3.11298
    endloop
  endfacet
  facet normal -0.707105 0 -0.707108
    outer loop
      vertex 101.887 64.4 6.88435
      vertex 102.484 77.3 6.28702
      vertex 102.484 64.4 6.28702
    endloop
  endfacet
  facet normal -0.707105 0 -0.707108
    outer loop
      vertex 102.484 77.3 6.28702
      vertex 101.887 64.4 6.88435
      vertex 101.887 77.3 6.88435
    endloop
  endfacet
  facet normal 0.987688 0 -0.156436
    outer loop
      vertex 97.7321 64.4 5.53435
      vertex 97.6 77.3 4.7
      vertex 97.7321 77.3 5.53435
    endloop
  endfacet
  facet normal 0.987688 0 -0.156436
    outer loop
      vertex 97.6 77.3 4.7
      vertex 97.7321 64.4 5.53435
      vertex 97.6 64.4 4.7
    endloop
  endfacet
  facet normal -0.891007 0 0.45399
    outer loop
      vertex 102.484 64.4 3.11298
      vertex 102.868 77.3 3.86565
      vertex 102.484 77.3 3.11298
    endloop
  endfacet
  facet normal -0.891007 0 0.45399
    outer loop
      vertex 102.868 77.3 3.86565
      vertex 102.484 64.4 3.11298
      vertex 102.868 64.4 3.86565
    endloop
  endfacet
  facet normal 0.156433 0 0.987689
    outer loop
      vertex 99.4657 77.3 2.13215
      vertex 100.3 64.4 2
      vertex 100.3 77.3 2
    endloop
  endfacet
  facet normal 0.156433 0 0.987689
    outer loop
      vertex 100.3 64.4 2
      vertex 99.4657 77.3 2.13215
      vertex 99.4657 64.4 2.13215
    endloop
  endfacet
endsolid OpenSCAD_Model
