solid OpenSCAD_Model
  facet normal 0.978148 0.207912 0
    outer loop
      vertex 15.3304 0 21.9005
      vertex 14.005 6.23542 0
      vertex 14.005 6.23542 21.9005
    endloop
  endfacet
  facet normal 0.978148 0.207912 0
    outer loop
      vertex 14.005 6.23542 0
      vertex 15.3304 0 21.9005
      vertex 15.3304 0 0
    endloop
  endfacet
  facet normal 0.809017 0.587785 0
    outer loop
      vertex 14.005 6.23542 21.9005
      vertex 10.258 11.3927 0
      vertex 10.258 11.3927 21.9005
    endloop
  endfacet
  facet normal 0.809017 0.587785 0
    outer loop
      vertex 10.258 11.3927 0
      vertex 14.005 6.23542 21.9005
      vertex 14.005 6.23542 0
    endloop
  endfacet
  facet normal 0.5 0.866025 -0
    outer loop
      vertex 10.258 11.3927 0
      vertex 4.73735 14.5801 21.9005
      vertex 10.258 11.3927 21.9005
    endloop
  endfacet
  facet normal 0.5 0.866025 0
    outer loop
      vertex 4.73735 14.5801 21.9005
      vertex 10.258 11.3927 0
      vertex 4.73735 14.5801 0
    endloop
  endfacet
  facet normal 0.104529 0.994522 -0
    outer loop
      vertex 4.73735 14.5801 0
      vertex -1.60246 15.2464 21.9005
      vertex 4.73735 14.5801 21.9005
    endloop
  endfacet
  facet normal 0.104529 0.994522 0
    outer loop
      vertex -1.60246 15.2464 21.9005
      vertex 4.73735 14.5801 0
      vertex -1.60246 15.2464 0
    endloop
  endfacet
  facet normal -0.309017 0.951057 0
    outer loop
      vertex -1.60246 15.2464 0
      vertex -7.66519 13.2765 21.9005
      vertex -1.60246 15.2464 21.9005
    endloop
  endfacet
  facet normal -0.309017 0.951057 0
    outer loop
      vertex -7.66519 13.2765 21.9005
      vertex -1.60246 15.2464 0
      vertex -7.66519 13.2765 0
    endloop
  endfacet
  facet normal -0.669131 0.743145 0
    outer loop
      vertex -7.66519 13.2765 0
      vertex -12.4025 9.01097 21.9005
      vertex -7.66519 13.2765 21.9005
    endloop
  endfacet
  facet normal -0.669131 0.743145 0
    outer loop
      vertex -12.4025 9.01097 21.9005
      vertex -7.66519 13.2765 0
      vertex -12.4025 9.01097 0
    endloop
  endfacet
  facet normal -0.913545 0.406737 0
    outer loop
      vertex -14.9954 3.18736 0
      vertex -12.4025 9.01097 21.9005
      vertex -12.4025 9.01097 0
    endloop
  endfacet
  facet normal -0.913545 0.406737 0
    outer loop
      vertex -12.4025 9.01097 21.9005
      vertex -14.9954 3.18736 0
      vertex -14.9954 3.18736 21.9005
    endloop
  endfacet
  facet normal -1 0 0
    outer loop
      vertex -14.9954 -3.18736 0
      vertex -14.9954 3.18736 21.9005
      vertex -14.9954 3.18736 0
    endloop
  endfacet
  facet normal -1 -0 0
    outer loop
      vertex -14.9954 3.18736 21.9005
      vertex -14.9954 -3.18736 0
      vertex -14.9954 -3.18736 21.9005
    endloop
  endfacet
  facet normal -0.913545 -0.406737 0
    outer loop
      vertex -12.4025 -9.01097 0
      vertex -14.9954 -3.18736 21.9005
      vertex -14.9954 -3.18736 0
    endloop
  endfacet
  facet normal -0.913545 -0.406737 0
    outer loop
      vertex -14.9954 -3.18736 21.9005
      vertex -12.4025 -9.01097 0
      vertex -12.4025 -9.01097 21.9005
    endloop
  endfacet
  facet normal -0.669131 -0.743145 0
    outer loop
      vertex -12.4025 -9.01097 0
      vertex -7.66519 -13.2765 21.9005
      vertex -12.4025 -9.01097 21.9005
    endloop
  endfacet
  facet normal -0.669131 -0.743145 -0
    outer loop
      vertex -7.66519 -13.2765 21.9005
      vertex -12.4025 -9.01097 0
      vertex -7.66519 -13.2765 0
    endloop
  endfacet
  facet normal -0.309017 -0.951057 0
    outer loop
      vertex -7.66519 -13.2765 0
      vertex -1.60246 -15.2464 21.9005
      vertex -7.66519 -13.2765 21.9005
    endloop
  endfacet
  facet normal -0.309017 -0.951057 -0
    outer loop
      vertex -1.60246 -15.2464 21.9005
      vertex -7.66519 -13.2765 0
      vertex -1.60246 -15.2464 0
    endloop
  endfacet
  facet normal 0.104529 -0.994522 0
    outer loop
      vertex -1.60246 -15.2464 0
      vertex 4.73735 -14.5801 21.9005
      vertex -1.60246 -15.2464 21.9005
    endloop
  endfacet
  facet normal 0.104529 -0.994522 0
    outer loop
      vertex 4.73735 -14.5801 21.9005
      vertex -1.60246 -15.2464 0
      vertex 4.73735 -14.5801 0
    endloop
  endfacet
  facet normal 0.5 -0.866025 0
    outer loop
      vertex 4.73735 -14.5801 0
      vertex 10.258 -11.3927 21.9005
      vertex 4.73735 -14.5801 21.9005
    endloop
  endfacet
  facet normal 0.5 -0.866025 0
    outer loop
      vertex 10.258 -11.3927 21.9005
      vertex 4.73735 -14.5801 0
      vertex 10.258 -11.3927 0
    endloop
  endfacet
  facet normal 0.809017 -0.587785 0
    outer loop
      vertex 10.258 -11.3927 21.9005
      vertex 14.005 -6.23542 0
      vertex 14.005 -6.23542 21.9005
    endloop
  endfacet
  facet normal 0.809017 -0.587785 0
    outer loop
      vertex 14.005 -6.23542 0
      vertex 10.258 -11.3927 21.9005
      vertex 10.258 -11.3927 0
    endloop
  endfacet
  facet normal 0.978148 -0.207912 0
    outer loop
      vertex 14.005 -6.23542 21.9005
      vertex 15.3304 0 0
      vertex 15.3304 0 21.9005
    endloop
  endfacet
  facet normal 0.978148 -0.207912 0
    outer loop
      vertex 15.3304 0 0
      vertex 14.005 -6.23542 21.9005
      vertex 14.005 -6.23542 0
    endloop
  endfacet
  facet normal 0 0 -1
    outer loop
      vertex 14.005 -6.23542 0
      vertex 14.005 6.23542 0
      vertex 15.3304 0 0
    endloop
  endfacet
  facet normal 0 0 -1
    outer loop
      vertex 10.258 -11.3927 0
      vertex 14.005 6.23542 0
      vertex 14.005 -6.23542 0
    endloop
  endfacet
  facet normal 0 0 -1
    outer loop
      vertex 10.258 -11.3927 0
      vertex 10.258 11.3927 0
      vertex 14.005 6.23542 0
    endloop
  endfacet
  facet normal 0 0 -1
    outer loop
      vertex 4.73735 -14.5801 0
      vertex 10.258 11.3927 0
      vertex 10.258 -11.3927 0
    endloop
  endfacet
  facet normal 0 0 -1
    outer loop
      vertex 4.73735 -14.5801 0
      vertex 4.73735 14.5801 0
      vertex 10.258 11.3927 0
    endloop
  endfacet
  facet normal 0 0 -1
    outer loop
      vertex -1.60246 -15.2464 0
      vertex 4.73735 14.5801 0
      vertex 4.73735 -14.5801 0
    endloop
  endfacet
  facet normal 0 0 -1
    outer loop
      vertex -1.60246 -15.2464 0
      vertex -1.60246 15.2464 0
      vertex 4.73735 14.5801 0
    endloop
  endfacet
  facet normal 0 0 -1
    outer loop
      vertex -7.66519 -13.2765 0
      vertex -1.60246 15.2464 0
      vertex -1.60246 -15.2464 0
    endloop
  endfacet
  facet normal 0 0 -1
    outer loop
      vertex -7.66519 -13.2765 0
      vertex -7.66519 13.2765 0
      vertex -1.60246 15.2464 0
    endloop
  endfacet
  facet normal 0 0 -1
    outer loop
      vertex -12.4025 -9.01097 0
      vertex -7.66519 13.2765 0
      vertex -7.66519 -13.2765 0
    endloop
  endfacet
  facet normal 0 0 -1
    outer loop
      vertex -12.4025 -9.01097 0
      vertex -12.4025 9.01097 0
      vertex -7.66519 13.2765 0
    endloop
  endfacet
  facet normal 0 0 -1
    outer loop
      vertex -14.9954 -3.18736 0
      vertex -12.4025 9.01097 0
      vertex -12.4025 -9.01097 0
    endloop
  endfacet
  facet normal 0 0 -1
    outer loop
      vertex -12.4025 9.01097 0
      vertex -14.9954 -3.18736 0
      vertex -14.9954 3.18736 0
    endloop
  endfacet
  facet normal 0 0 1
    outer loop
      vertex 14.005 6.23542 21.9005
      vertex 14.005 -6.23542 21.9005
      vertex 15.3304 0 21.9005
    endloop
  endfacet
  facet normal 0 0 1
    outer loop
      vertex 10.258 11.3927 21.9005
      vertex 14.005 -6.23542 21.9005
      vertex 14.005 6.23542 21.9005
    endloop
  endfacet
  facet normal 0 0 1
    outer loop
      vertex 10.258 11.3927 21.9005
      vertex 10.258 -11.3927 21.9005
      vertex 14.005 -6.23542 21.9005
    endloop
  endfacet
  facet normal 0 0 1
    outer loop
      vertex 4.73735 14.5801 21.9005
      vertex 10.258 -11.3927 21.9005
      vertex 10.258 11.3927 21.9005
    endloop
  endfacet
  facet normal 0 0 1
    outer loop
      vertex 4.73735 14.5801 21.9005
      vertex 4.73735 -14.5801 21.9005
      vertex 10.258 -11.3927 21.9005
    endloop
  endfacet
  facet normal 0 0 1
    outer loop
      vertex -1.60246 15.2464 21.9005
      vertex 4.73735 -14.5801 21.9005
      vertex 4.73735 14.5801 21.9005
    endloop
  endfacet
  facet normal 0 0 1
    outer loop
      vertex -1.60246 15.2464 21.9005
      vertex -1.60246 -15.2464 21.9005
      vertex 4.73735 -14.5801 21.9005
    endloop
  endfacet
  facet normal -0 0 1
    outer loop
      vertex -7.66519 13.2765 21.9005
      vertex -1.60246 -15.2464 21.9005
      vertex -1.60246 15.2464 21.9005
    endloop
  endfacet
  facet normal 0 0 1
    outer loop
      vertex -7.66519 13.2765 21.9005
      vertex -7.66519 -13.2765 21.9005
      vertex -1.60246 -15.2464 21.9005
    endloop
  endfacet
  facet normal -0 0 1
    outer loop
      vertex -12.4025 9.01097 21.9005
      vertex -7.66519 -13.2765 21.9005
      vertex -7.66519 13.2765 21.9005
    endloop
  endfacet
  facet normal 0 0 1
    outer loop
      vertex -12.4025 9.01097 21.9005
      vertex -12.4025 -9.01097 21.9005
      vertex -7.66519 -13.2765 21.9005
    endloop
  endfacet
  facet normal -0 0 1
    outer loop
      vertex -14.9954 3.18736 21.9005
      vertex -12.4025 -9.01097 21.9005
      vertex -12.4025 9.01097 21.9005
    endloop
  endfacet
  facet normal 0 0 1
    outer loop
      vertex -12.4025 -9.01097 21.9005
      vertex -14.9954 3.18736 21.9005
      vertex -14.9954 -3.18736 21.9005
    endloop
  endfacet
endsolid OpenSCAD_Model
