solid OpenSCAD_Model
  facet normal 1 -0 0
    outer loop
      vertex 25.1 -25.1 22.42
      vertex 25.1 25.1 2.4
      vertex 25.1 25.1 22.42
    endloop
  endfacet
  facet normal 1 0 0
    outer loop
      vertex 25.1 25.1 2.4
      vertex 25.1 -25.1 22.42
      vertex 25.1 -25.1 2.4
    endloop
  endfacet
  facet normal 0 0 1
    outer loop
      vertex 25.1 25.1 22.42
      vertex 23.3 23.3 22.42
      vertex 25.1 -25.1 22.42
    endloop
  endfacet
  facet normal 0 0 1
    outer loop
      vertex 25.1 25.1 22.42
      vertex -23.3 23.3 22.42
      vertex 23.3 23.3 22.42
    endloop
  endfacet
  facet normal 0 0 1
    outer loop
      vertex -23.3 23.3 22.42
      vertex -25.1 25.1 22.42
      vertex -23.3 -23.3 22.42
    endloop
  endfacet
  facet normal -0 0 1
    outer loop
      vertex -25.1 25.1 22.42
      vertex -23.3 23.3 22.42
      vertex 25.1 25.1 22.42
    endloop
  endfacet
  facet normal -0 0 1
    outer loop
      vertex 23.3 -23.3 22.42
      vertex 25.1 -25.1 22.42
      vertex 23.3 23.3 22.42
    endloop
  endfacet
  facet normal -0 0 1
    outer loop
      vertex -23.3 -23.3 22.42
      vertex 25.1 -25.1 22.42
      vertex 23.3 -23.3 22.42
    endloop
  endfacet
  facet normal 0 0 1
    outer loop
      vertex -23.3 -23.3 22.42
      vertex -25.1 -25.1 22.42
      vertex 25.1 -25.1 22.42
    endloop
  endfacet
  facet normal 0 0 1
    outer loop
      vertex -25.1 -25.1 22.42
      vertex -23.3 -23.3 22.42
      vertex -25.1 25.1 22.42
    endloop
  endfacet
  facet normal 0 0 -1
    outer loop
      vertex 29 -29.6 0
      vertex 29.6 29.6 0
      vertex 29.6 -29.6 0
    endloop
  endfacet
  facet normal -0 0 -1
    outer loop
      vertex 29.6 29.6 0
      vertex 29 -29.6 0
      vertex 29 29.6 0
    endloop
  endfacet
  facet normal 0 0 -1
    outer loop
      vertex -29.6 -29.6 0
      vertex -29 29.6 0
      vertex -29 -29.6 0
    endloop
  endfacet
  facet normal -0 0 -1
    outer loop
      vertex -29 29.6 0
      vertex -29.6 -29.6 0
      vertex -29.6 29.6 0
    endloop
  endfacet
  facet normal 0 0 -1
    outer loop
      vertex -26.2 -29.6 0
      vertex -10.6 29.6 0
      vertex -10.6 -29.6 0
    endloop
  endfacet
  facet normal -0 0 -1
    outer loop
      vertex -10.6 29.6 0
      vertex -26.2 -29.6 0
      vertex -26.2 29.6 0
    endloop
  endfacet
  facet normal 0 0 -1
    outer loop
      vertex -7.8 -29.6 0
      vertex 7.8 29.6 0
      vertex 7.8 -29.6 0
    endloop
  endfacet
  facet normal -0 0 -1
    outer loop
      vertex 7.8 29.6 0
      vertex -7.8 -29.6 0
      vertex -7.8 29.6 0
    endloop
  endfacet
  facet normal 0 0 -1
    outer loop
      vertex 10.6 -29.6 0
      vertex 26.2 29.6 0
      vertex 26.2 -29.6 0
    endloop
  endfacet
  facet normal -0 0 -1
    outer loop
      vertex 26.2 29.6 0
      vertex 10.6 -29.6 0
      vertex 10.6 29.6 0
    endloop
  endfacet
  facet normal -1 0 0
    outer loop
      vertex -25.1 -25.1 2.4
      vertex -25.1 25.1 22.42
      vertex -25.1 25.1 2.4
    endloop
  endfacet
  facet normal -1 -0 0
    outer loop
      vertex -25.1 25.1 22.42
      vertex -25.1 -25.1 2.4
      vertex -25.1 -25.1 22.42
    endloop
  endfacet
  facet normal 0 1 -0
    outer loop
      vertex 25.1 25.1 2.4
      vertex -25.1 25.1 22.42
      vertex 25.1 25.1 22.42
    endloop
  endfacet
  facet normal 0 1 0
    outer loop
      vertex -25.1 25.1 22.42
      vertex 25.1 25.1 2.4
      vertex -25.1 25.1 2.4
    endloop
  endfacet
  facet normal 0 -1 0
    outer loop
      vertex -25.1 -25.1 2.4
      vertex 25.1 -25.1 22.42
      vertex -25.1 -25.1 22.42
    endloop
  endfacet
  facet normal 0 -1 -0
    outer loop
      vertex 25.1 -25.1 22.42
      vertex -25.1 -25.1 2.4
      vertex 25.1 -25.1 2.4
    endloop
  endfacet
  facet normal 1 -0 0
    outer loop
      vertex 29.6 -29.6 2.4
      vertex 29.6 29.6 0
      vertex 29.6 29.6 2.4
    endloop
  endfacet
  facet normal 1 0 0
    outer loop
      vertex 29.6 29.6 0
      vertex 29.6 -29.6 2.4
      vertex 29.6 -29.6 0
    endloop
  endfacet
  facet normal 0 0 1
    outer loop
      vertex 29.6 29.6 2.4
      vertex 25.1 25.1 2.4
      vertex 29.6 -29.6 2.4
    endloop
  endfacet
  facet normal 0 0 1
    outer loop
      vertex 29.6 29.6 2.4
      vertex -25.1 25.1 2.4
      vertex 25.1 25.1 2.4
    endloop
  endfacet
  facet normal 0 0 1
    outer loop
      vertex -25.1 25.1 2.4
      vertex -29.6 29.6 2.4
      vertex -25.1 -25.1 2.4
    endloop
  endfacet
  facet normal -0 0 1
    outer loop
      vertex -29.6 29.6 2.4
      vertex -25.1 25.1 2.4
      vertex 29.6 29.6 2.4
    endloop
  endfacet
  facet normal -0 0 1
    outer loop
      vertex 25.1 -25.1 2.4
      vertex 29.6 -29.6 2.4
      vertex 25.1 25.1 2.4
    endloop
  endfacet
  facet normal -0 0 1
    outer loop
      vertex -25.1 -25.1 2.4
      vertex 29.6 -29.6 2.4
      vertex 25.1 -25.1 2.4
    endloop
  endfacet
  facet normal 0 0 1
    outer loop
      vertex -25.1 -25.1 2.4
      vertex -29.6 -29.6 2.4
      vertex 29.6 -29.6 2.4
    endloop
  endfacet
  facet normal 0 0 1
    outer loop
      vertex -29.6 -29.6 2.4
      vertex -25.1 -25.1 2.4
      vertex -29.6 29.6 2.4
    endloop
  endfacet
  facet normal -1 0 0
    outer loop
      vertex -29.6 -29.6 0
      vertex -29.6 29.6 2.4
      vertex -29.6 29.6 0
    endloop
  endfacet
  facet normal -1 -0 0
    outer loop
      vertex -29.6 29.6 2.4
      vertex -29.6 -29.6 0
      vertex -29.6 -29.6 2.4
    endloop
  endfacet
  facet normal 0 1 -0
    outer loop
      vertex -10.6 29.6 0
      vertex -26.2 29.6 1.2
      vertex -10.6 29.6 1.2
    endloop
  endfacet
  facet normal 0 1 0
    outer loop
      vertex -26.2 29.6 1.2
      vertex -10.6 29.6 0
      vertex -26.2 29.6 0
    endloop
  endfacet
  facet normal 0 1 -0
    outer loop
      vertex 7.8 29.6 0
      vertex -7.8 29.6 1.2
      vertex 7.8 29.6 1.2
    endloop
  endfacet
  facet normal 0 1 0
    outer loop
      vertex -7.8 29.6 1.2
      vertex 7.8 29.6 0
      vertex -7.8 29.6 0
    endloop
  endfacet
  facet normal 0 1 -0
    outer loop
      vertex 26.2 29.6 0
      vertex 10.6 29.6 1.2
      vertex 26.2 29.6 1.2
    endloop
  endfacet
  facet normal 0 1 0
    outer loop
      vertex 10.6 29.6 1.2
      vertex 26.2 29.6 0
      vertex 10.6 29.6 0
    endloop
  endfacet
  facet normal 0 1 0
    outer loop
      vertex 26.2 29.6 1.2
      vertex 29.6 29.6 2.4
      vertex 29 29.6 1.2
    endloop
  endfacet
  facet normal 0 1 -0
    outer loop
      vertex 29.6 29.6 0
      vertex 29 29.6 1.2
      vertex 29.6 29.6 2.4
    endloop
  endfacet
  facet normal 0 1 0
    outer loop
      vertex 29 29.6 1.2
      vertex 29.6 29.6 0
      vertex 29 29.6 0
    endloop
  endfacet
  facet normal 0 1 0
    outer loop
      vertex 10.6 29.6 1.2
      vertex 29.6 29.6 2.4
      vertex 26.2 29.6 1.2
    endloop
  endfacet
  facet normal 0 1 0
    outer loop
      vertex 7.8 29.6 1.2
      vertex 29.6 29.6 2.4
      vertex 10.6 29.6 1.2
    endloop
  endfacet
  facet normal 0 1 0
    outer loop
      vertex 29.6 29.6 2.4
      vertex 7.8 29.6 1.2
      vertex -29.6 29.6 2.4
    endloop
  endfacet
  facet normal 0 1 -0
    outer loop
      vertex -7.8 29.6 1.2
      vertex -29.6 29.6 2.4
      vertex 7.8 29.6 1.2
    endloop
  endfacet
  facet normal 0 1 -0
    outer loop
      vertex -10.6 29.6 1.2
      vertex -29.6 29.6 2.4
      vertex -7.8 29.6 1.2
    endloop
  endfacet
  facet normal 0 1 -0
    outer loop
      vertex -26.2 29.6 1.2
      vertex -29.6 29.6 2.4
      vertex -10.6 29.6 1.2
    endloop
  endfacet
  facet normal 0 1 -0
    outer loop
      vertex -29 29.6 1.2
      vertex -29.6 29.6 2.4
      vertex -26.2 29.6 1.2
    endloop
  endfacet
  facet normal 0 1 0
    outer loop
      vertex -29.6 29.6 0
      vertex -29 29.6 1.2
      vertex -29 29.6 0
    endloop
  endfacet
  facet normal 0 1 0
    outer loop
      vertex -29 29.6 1.2
      vertex -29.6 29.6 0
      vertex -29.6 29.6 2.4
    endloop
  endfacet
  facet normal 0 -1 0
    outer loop
      vertex 10.6 -29.6 0
      vertex 26.2 -29.6 1.2
      vertex 10.6 -29.6 1.2
    endloop
  endfacet
  facet normal 0 -1 -0
    outer loop
      vertex 26.2 -29.6 1.2
      vertex 10.6 -29.6 0
      vertex 26.2 -29.6 0
    endloop
  endfacet
  facet normal 0 -1 0
    outer loop
      vertex -7.8 -29.6 0
      vertex 7.8 -29.6 1.2
      vertex -7.8 -29.6 1.2
    endloop
  endfacet
  facet normal 0 -1 -0
    outer loop
      vertex 7.8 -29.6 1.2
      vertex -7.8 -29.6 0
      vertex 7.8 -29.6 0
    endloop
  endfacet
  facet normal 0 -1 0
    outer loop
      vertex -26.2 -29.6 0
      vertex -10.6 -29.6 1.2
      vertex -26.2 -29.6 1.2
    endloop
  endfacet
  facet normal 0 -1 -0
    outer loop
      vertex -10.6 -29.6 1.2
      vertex -26.2 -29.6 0
      vertex -10.6 -29.6 0
    endloop
  endfacet
  facet normal 0 -1 0
    outer loop
      vertex -26.2 -29.6 1.2
      vertex -29.6 -29.6 2.4
      vertex -29 -29.6 1.2
    endloop
  endfacet
  facet normal 0 -1 0
    outer loop
      vertex -29.6 -29.6 0
      vertex -29 -29.6 1.2
      vertex -29.6 -29.6 2.4
    endloop
  endfacet
  facet normal 0 -1 -0
    outer loop
      vertex -29 -29.6 1.2
      vertex -29.6 -29.6 0
      vertex -29 -29.6 0
    endloop
  endfacet
  facet normal 0 -1 0
    outer loop
      vertex -10.6 -29.6 1.2
      vertex -29.6 -29.6 2.4
      vertex -26.2 -29.6 1.2
    endloop
  endfacet
  facet normal 0 -1 0
    outer loop
      vertex -7.8 -29.6 1.2
      vertex -29.6 -29.6 2.4
      vertex -10.6 -29.6 1.2
    endloop
  endfacet
  facet normal 0 -1 0
    outer loop
      vertex -29.6 -29.6 2.4
      vertex -7.8 -29.6 1.2
      vertex 29.6 -29.6 2.4
    endloop
  endfacet
  facet normal 0 -1 0
    outer loop
      vertex 7.8 -29.6 1.2
      vertex 29.6 -29.6 2.4
      vertex -7.8 -29.6 1.2
    endloop
  endfacet
  facet normal 0 -1 0
    outer loop
      vertex 10.6 -29.6 1.2
      vertex 29.6 -29.6 2.4
      vertex 7.8 -29.6 1.2
    endloop
  endfacet
  facet normal 0 -1 0
    outer loop
      vertex 26.2 -29.6 1.2
      vertex 29.6 -29.6 2.4
      vertex 10.6 -29.6 1.2
    endloop
  endfacet
  facet normal 0 -1 0
    outer loop
      vertex 29 -29.6 1.2
      vertex 29.6 -29.6 2.4
      vertex 26.2 -29.6 1.2
    endloop
  endfacet
  facet normal 0 -1 0
    outer loop
      vertex 29.6 -29.6 0
      vertex 29 -29.6 1.2
      vertex 29 -29.6 0
    endloop
  endfacet
  facet normal 0 -1 0
    outer loop
      vertex 29 -29.6 1.2
      vertex 29.6 -29.6 0
      vertex 29.6 -29.6 2.4
    endloop
  endfacet
  facet normal -1 0 0
    outer loop
      vertex -26.2 -29.6 0
      vertex -26.2 29.6 1.2
      vertex -26.2 29.6 0
    endloop
  endfacet
  facet normal -1 -0 0
    outer loop
      vertex -26.2 29.6 1.2
      vertex -26.2 -29.6 0
      vertex -26.2 -29.6 1.2
    endloop
  endfacet
  facet normal 0 0 -1
    outer loop
      vertex -29 -29.6 1.2
      vertex -26.2 29.6 1.2
      vertex -26.2 -29.6 1.2
    endloop
  endfacet
  facet normal -0 0 -1
    outer loop
      vertex -26.2 29.6 1.2
      vertex -29 -29.6 1.2
      vertex -29 29.6 1.2
    endloop
  endfacet
  facet normal 1 -0 0
    outer loop
      vertex -29 -29.6 1.2
      vertex -29 29.6 0
      vertex -29 29.6 1.2
    endloop
  endfacet
  facet normal 1 0 0
    outer loop
      vertex -29 29.6 0
      vertex -29 -29.6 1.2
      vertex -29 -29.6 0
    endloop
  endfacet
  facet normal -1 0 0
    outer loop
      vertex -7.8 -29.6 0
      vertex -7.8 29.6 1.2
      vertex -7.8 29.6 0
    endloop
  endfacet
  facet normal -1 -0 0
    outer loop
      vertex -7.8 29.6 1.2
      vertex -7.8 -29.6 0
      vertex -7.8 -29.6 1.2
    endloop
  endfacet
  facet normal 0 0 -1
    outer loop
      vertex -10.6 -29.6 1.2
      vertex -7.8 29.6 1.2
      vertex -7.8 -29.6 1.2
    endloop
  endfacet
  facet normal -0 0 -1
    outer loop
      vertex -7.8 29.6 1.2
      vertex -10.6 -29.6 1.2
      vertex -10.6 29.6 1.2
    endloop
  endfacet
  facet normal 1 -0 0
    outer loop
      vertex -10.6 -29.6 1.2
      vertex -10.6 29.6 0
      vertex -10.6 29.6 1.2
    endloop
  endfacet
  facet normal 1 0 0
    outer loop
      vertex -10.6 29.6 0
      vertex -10.6 -29.6 1.2
      vertex -10.6 -29.6 0
    endloop
  endfacet
  facet normal -1 0 0
    outer loop
      vertex 10.6 -29.6 0
      vertex 10.6 29.6 1.2
      vertex 10.6 29.6 0
    endloop
  endfacet
  facet normal -1 -0 0
    outer loop
      vertex 10.6 29.6 1.2
      vertex 10.6 -29.6 0
      vertex 10.6 -29.6 1.2
    endloop
  endfacet
  facet normal 0 0 -1
    outer loop
      vertex 7.8 -29.6 1.2
      vertex 10.6 29.6 1.2
      vertex 10.6 -29.6 1.2
    endloop
  endfacet
  facet normal -0 0 -1
    outer loop
      vertex 10.6 29.6 1.2
      vertex 7.8 -29.6 1.2
      vertex 7.8 29.6 1.2
    endloop
  endfacet
  facet normal 1 -0 0
    outer loop
      vertex 7.8 -29.6 1.2
      vertex 7.8 29.6 0
      vertex 7.8 29.6 1.2
    endloop
  endfacet
  facet normal 1 0 0
    outer loop
      vertex 7.8 29.6 0
      vertex 7.8 -29.6 1.2
      vertex 7.8 -29.6 0
    endloop
  endfacet
  facet normal -1 0 0
    outer loop
      vertex 29 -29.6 0
      vertex 29 29.6 1.2
      vertex 29 29.6 0
    endloop
  endfacet
  facet normal -1 -0 0
    outer loop
      vertex 29 29.6 1.2
      vertex 29 -29.6 0
      vertex 29 -29.6 1.2
    endloop
  endfacet
  facet normal 0 0 -1
    outer loop
      vertex 26.2 -29.6 1.2
      vertex 29 29.6 1.2
      vertex 29 -29.6 1.2
    endloop
  endfacet
  facet normal -0 0 -1
    outer loop
      vertex 29 29.6 1.2
      vertex 26.2 -29.6 1.2
      vertex 26.2 29.6 1.2
    endloop
  endfacet
  facet normal 1 -0 0
    outer loop
      vertex 26.2 -29.6 1.2
      vertex 26.2 29.6 0
      vertex 26.2 29.6 1.2
    endloop
  endfacet
  facet normal 1 0 0
    outer loop
      vertex 26.2 29.6 0
      vertex 26.2 -29.6 1.2
      vertex 26.2 -29.6 0
    endloop
  endfacet
  facet normal -1 0 0
    outer loop
      vertex 23.3 -23.3 2.4
      vertex 23.3 23.3 22.42
      vertex 23.3 23.3 2.4
    endloop
  endfacet
  facet normal -1 -0 0
    outer loop
      vertex 23.3 23.3 22.42
      vertex 23.3 -23.3 2.4
      vertex 23.3 -23.3 22.42
    endloop
  endfacet
  facet normal -0 0 1
    outer loop
      vertex -23.3 23.3 2.4
      vertex 23.3 -23.3 2.4
      vertex 23.3 23.3 2.4
    endloop
  endfacet
  facet normal 0 0 1
    outer loop
      vertex 23.3 -23.3 2.4
      vertex -23.3 23.3 2.4
      vertex -23.3 -23.3 2.4
    endloop
  endfacet
  facet normal 1 -0 0
    outer loop
      vertex -23.3 -23.3 22.42
      vertex -23.3 23.3 2.4
      vertex -23.3 23.3 22.42
    endloop
  endfacet
  facet normal 1 0 0
    outer loop
      vertex -23.3 23.3 2.4
      vertex -23.3 -23.3 22.42
      vertex -23.3 -23.3 2.4
    endloop
  endfacet
  facet normal 0 -1 0
    outer loop
      vertex -23.3 23.3 2.4
      vertex 23.3 23.3 22.42
      vertex -23.3 23.3 22.42
    endloop
  endfacet
  facet normal 0 -1 -0
    outer loop
      vertex 23.3 23.3 22.42
      vertex -23.3 23.3 2.4
      vertex 23.3 23.3 2.4
    endloop
  endfacet
  facet normal 0 1 -0
    outer loop
      vertex 23.3 -23.3 2.4
      vertex -23.3 -23.3 22.42
      vertex 23.3 -23.3 22.42
    endloop
  endfacet
  facet normal 0 1 0
    outer loop
      vertex -23.3 -23.3 22.42
      vertex 23.3 -23.3 2.4
      vertex -23.3 -23.3 2.4
    endloop
  endfacet
endsolid OpenSCAD_Model
