solid OpenSCAD_Model
  facet normal -0.894427 0 0.447214
    outer loop
      vertex -22.8456 13.1899 0
      vertex -21.1656 -12.2199 3.36
      vertex -21.1656 12.2199 3.36
    endloop
  endfacet
  facet normal -0.894427 0 0.447214
    outer loop
      vertex -21.1656 -12.2199 3.36
      vertex -22.8456 13.1899 0
      vertex -22.8456 -13.1899 0
    endloop
  endfacet
  facet normal 0.894427 0 0.447214
    outer loop
      vertex -17.8056 10.2801 3.36
      vertex -16.7256 -9.65651 1.2
      vertex -16.7256 9.65651 1.2
    endloop
  endfacet
  facet normal 0.894427 0 0.447214
    outer loop
      vertex -16.7256 -9.65651 1.2
      vertex -17.8056 10.2801 3.36
      vertex -17.8056 -10.2801 3.36
    endloop
  endfacet
  facet normal 0.894414 0 -0.447239
    outer loop
      vertex -16.1256 -9.3101 0
      vertex -16.1306 9.31299 -0.00999928
      vertex -16.1256 9.3101 0
    endloop
  endfacet
  facet normal 0.894414 0 -0.447239
    outer loop
      vertex -16.1306 9.31299 -0.00999928
      vertex -16.1256 -9.3101 0
      vertex -16.1306 -9.31299 -0.00999928
    endloop
  endfacet
  facet normal -0.894414 0 -0.447239
    outer loop
      vertex -22.8406 -13.187 -0.00999928
      vertex -22.8456 13.1899 0
      vertex -22.8406 13.187 -0.00999928
    endloop
  endfacet
  facet normal -0.894414 -0 -0.447239
    outer loop
      vertex -22.8456 13.1899 0
      vertex -22.8406 -13.187 -0.00999928
      vertex -22.8456 -13.1899 0
    endloop
  endfacet
  facet normal -0.447193 0.774561 0.447296
    outer loop
      vertex -3.44864 22.7417 2.85279
      vertex -21.1656 12.2199 3.36
      vertex -3.47617 22.4329 3.36
    endloop
  endfacet
  facet normal -0.447213 0.774591 0.447224
    outer loop
      vertex -21.1656 12.2199 3.36
      vertex -3.44864 22.7417 2.85279
      vertex -22.8456 13.1899 0
    endloop
  endfacet
  facet normal -0.446785 0.773893 0.448858
    outer loop
      vertex 0 26.3682 0.02
      vertex 0 26.3798 0
      vertex -3.36 24.4284 0.02
    endloop
  endfacet
  facet normal -0.447204 0.774578 0.447254
    outer loop
      vertex -22.8456 13.1899 0
      vertex -3.36 23.7355 1.22
      vertex -3.36 24.4284 0.02
    endloop
  endfacet
  facet normal -0.447217 0.774609 0.447189
    outer loop
      vertex -3.36 23.7355 1.22
      vertex -22.8456 13.1899 0
      vertex -3.44864 22.7417 2.85279
    endloop
  endfacet
  facet normal -0.447538 0.775159 0.445912
    outer loop
      vertex -22.8456 13.1899 0
      vertex -3.36 24.4284 0.02
      vertex 0 26.3798 0
    endloop
  endfacet
  facet normal 0.44721 -0.77459 0.447229
    outer loop
      vertex -16.7256 9.65651 1.2
      vertex -6.35913 15.6416 1.2
      vertex -17.8056 10.2801 3.36
    endloop
  endfacet
  facet normal 0.447211 -0.774596 0.447217
    outer loop
      vertex -6.35913 15.6416 1.2
      vertex -1.79617 19.5231 3.36
      vertex -17.8056 10.2801 3.36
    endloop
  endfacet
  facet normal 0.447212 -0.774597 0.447215
    outer loop
      vertex -1.79617 19.5231 3.36
      vertex -6.35913 15.6416 1.2
      vertex -0.609999 18.9724 1.22
    endloop
  endfacet
  facet normal 0.447005 -0.774244 0.448033
    outer loop
      vertex -0.609999 18.9724 1.22
      vertex -6.35913 15.6416 1.2
      vertex -0.599999 18.9666 1.2
    endloop
  endfacet
  facet normal 0.447059 -0.774571 -0.447413
    outer loop
      vertex -16.0776 9.34358 -0.00999928
      vertex -16.1256 9.3101 0
      vertex -16.1306 9.31299 -0.00999928
    endloop
  endfacet
  facet normal 0.447303 -0.774754 -0.446852
    outer loop
      vertex -16.0776 9.34358 -0.00999928
      vertex 0 18.6202 0
      vertex -16.1256 9.3101 0
    endloop
  endfacet
  facet normal 0.446797 -0.773874 -0.448879
    outer loop
      vertex 0 18.6202 0
      vertex -16.0776 9.34358 -0.00999928
      vertex 0 18.626 -0.00999928
    endloop
  endfacet
  facet normal -0.447821 0.77565 -0.444773
    outer loop
      vertex -0.0629882 26.3377 -0.00999928
      vertex -22.8456 13.1899 0
      vertex 0 26.3798 0
    endloop
  endfacet
  facet normal -0.447003 0.774229 -0.44806
    outer loop
      vertex -22.8456 13.1899 0
      vertex -0.0629882 26.3377 -0.00999928
      vertex -22.8406 13.187 -0.00999928
    endloop
  endfacet
  facet normal -0.446144 0.774155 -0.449042
    outer loop
      vertex 0 26.3798 0
      vertex 0 26.374 -0.00999928
      vertex -0.0629882 26.3377 -0.00999928
    endloop
  endfacet
  facet normal 0.446616 0.773966 0.4489
    outer loop
      vertex 0.125986 26.2955 0.02
      vertex 0 26.3798 0
      vertex 0 26.3682 0.02
    endloop
  endfacet
  facet normal 0.447214 0.774597 0.447213
    outer loop
      vertex 21.1656 12.2199 3.36
      vertex 3.36 23.7355 1.22
      vertex 3.47617 22.4329 3.36
    endloop
  endfacet
  facet normal 0.447218 0.774601 0.447202
    outer loop
      vertex 3.36 23.7355 1.22
      vertex 21.1656 12.2199 3.36
      vertex 3.36 24.1319 0.533394
    endloop
  endfacet
  facet normal 0.447168 0.774556 0.447329
    outer loop
      vertex 21.1656 12.2199 3.36
      vertex 3.36 24.4284 0.02
      vertex 3.36 24.1319 0.533394
    endloop
  endfacet
  facet normal 0.447212 0.774592 0.447223
    outer loop
      vertex 22.8456 13.1899 0
      vertex 3.36 24.4284 0.02
      vertex 21.1656 12.2199 3.36
    endloop
  endfacet
  facet normal 0.447538 0.775159 0.445912
    outer loop
      vertex 0 26.3798 0
      vertex 3.36 24.4284 0.02
      vertex 22.8456 13.1899 0
    endloop
  endfacet
  facet normal 0.447069 0.77437 0.44775
    outer loop
      vertex 3.36 24.4284 0.02
      vertex 0 26.3798 0
      vertex 0.125986 26.2955 0.02
    endloop
  endfacet
  facet normal -0.447006 -0.774242 0.448033
    outer loop
      vertex 10.3664 13.328 1.2
      vertex 0.609999 18.9724 1.22
      vertex 0.599999 18.9666 1.2
    endloop
  endfacet
  facet normal -0.447218 -0.774605 0.447194
    outer loop
      vertex 0.609999 18.9724 1.22
      vertex 10.3664 13.328 1.2
      vertex 1.6102 19.4367 3.02449
    endloop
  endfacet
  facet normal -0.447162 -0.774564 0.447322
    outer loop
      vertex 10.3664 13.328 1.2
      vertex 1.79617 19.5231 3.36
      vertex 1.6102 19.4367 3.02449
    endloop
  endfacet
  facet normal -0.44721 -0.774594 0.447221
    outer loop
      vertex 1.79617 19.5231 3.36
      vertex 10.3664 13.328 1.2
      vertex 17.8056 10.2801 3.36
    endloop
  endfacet
  facet normal -0.44721 -0.77459 0.447229
    outer loop
      vertex 17.8056 10.2801 3.36
      vertex 10.3664 13.328 1.2
      vertex 16.7256 9.65651 1.2
    endloop
  endfacet
  facet normal -0.446876 -0.773839 -0.448859
    outer loop
      vertex 0 18.626 -0.00999928
      vertex 0.0529889 18.5954 -0.00999928
      vertex 0 18.6202 0
    endloop
  endfacet
  facet normal -0.446903 -0.77406 -0.448452
    outer loop
      vertex 0.0529889 18.5954 -0.00999928
      vertex 16.1256 9.3101 0
      vertex 0 18.6202 0
    endloop
  endfacet
  facet normal -0.447157 -0.774498 -0.447441
    outer loop
      vertex 16.1256 9.3101 0
      vertex 0.0529889 18.5954 -0.00999928
      vertex 16.1306 9.31299 -0.00999928
    endloop
  endfacet
  facet normal 0.447419 0.774954 -0.446388
    outer loop
      vertex 22.7776 13.2234 -0.00999928
      vertex 0 26.3798 0
      vertex 22.8456 13.1899 0
    endloop
  endfacet
  facet normal 0.446795 0.773874 -0.448879
    outer loop
      vertex 0 26.3798 0
      vertex 22.7776 13.2234 -0.00999928
      vertex 0 26.374 -0.00999928
    endloop
  endfacet
  facet normal 0.447233 0.774058 -0.448126
    outer loop
      vertex 22.8456 13.1899 0
      vertex 22.8406 13.187 -0.00999928
      vertex 22.7776 13.2234 -0.00999928
    endloop
  endfacet
  facet normal 0.894427 -0 0.447214
    outer loop
      vertex 21.1656 -12.2199 3.36
      vertex 22.8456 13.1899 0
      vertex 21.1656 12.2199 3.36
    endloop
  endfacet
  facet normal 0.894427 0 0.447214
    outer loop
      vertex 22.8456 13.1899 0
      vertex 21.1656 -12.2199 3.36
      vertex 22.8456 -13.1899 0
    endloop
  endfacet
  facet normal -0.894427 0 0.447214
    outer loop
      vertex 16.7256 -9.65651 1.2
      vertex 17.8056 10.2801 3.36
      vertex 16.7256 9.65651 1.2
    endloop
  endfacet
  facet normal -0.894427 0 0.447214
    outer loop
      vertex 17.8056 10.2801 3.36
      vertex 16.7256 -9.65651 1.2
      vertex 17.8056 -10.2801 3.36
    endloop
  endfacet
  facet normal -0.894414 0 -0.447239
    outer loop
      vertex 16.1306 9.31299 -0.00999928
      vertex 16.1256 -9.3101 0
      vertex 16.1256 9.3101 0
    endloop
  endfacet
  facet normal -0.894414 0 -0.447239
    outer loop
      vertex 16.1256 -9.3101 0
      vertex 16.1306 9.31299 -0.00999928
      vertex 16.1306 -9.31299 -0.00999928
    endloop
  endfacet
  facet normal 0.894414 0 -0.447239
    outer loop
      vertex 22.8456 13.1899 0
      vertex 22.8406 -13.187 -0.00999928
      vertex 22.8406 13.187 -0.00999928
    endloop
  endfacet
  facet normal 0.894414 0 -0.447239
    outer loop
      vertex 22.8406 -13.187 -0.00999928
      vertex 22.8456 13.1899 0
      vertex 22.8456 -13.1899 0
    endloop
  endfacet
  facet normal 0.447195 -0.774564 0.447289
    outer loop
      vertex 3.44863 -22.7417 2.85279
      vertex 21.1656 -12.2199 3.36
      vertex 3.47617 -22.4329 3.36
    endloop
  endfacet
  facet normal 0.447213 -0.774591 0.447224
    outer loop
      vertex 21.1656 -12.2199 3.36
      vertex 3.44863 -22.7417 2.85279
      vertex 22.8456 -13.1899 0
    endloop
  endfacet
  facet normal 0.446785 -0.773893 0.448858
    outer loop
      vertex 0 -26.3682 0.02
      vertex 0 -26.3798 0
      vertex 3.36 -24.4284 0.02
    endloop
  endfacet
  facet normal 0.447204 -0.774578 0.447254
    outer loop
      vertex 22.8456 -13.1899 0
      vertex 3.36 -23.7355 1.22
      vertex 3.36 -24.4284 0.02
    endloop
  endfacet
  facet normal 0.447216 -0.774608 0.447191
    outer loop
      vertex 3.36 -23.7355 1.22
      vertex 22.8456 -13.1899 0
      vertex 3.44863 -22.7417 2.85279
    endloop
  endfacet
  facet normal 0.447538 -0.775159 0.445912
    outer loop
      vertex 22.8456 -13.1899 0
      vertex 3.36 -24.4284 0.02
      vertex 0 -26.3798 0
    endloop
  endfacet
  facet normal -0.44721 0.77459 0.447229
    outer loop
      vertex 17.8056 -10.2801 3.36
      vertex 16.7256 -9.65651 1.2
      vertex 6.35913 -15.6416 1.2
    endloop
  endfacet
  facet normal -0.447211 0.774596 0.447217
    outer loop
      vertex 6.35913 -15.6416 1.2
      vertex 1.79617 -19.5231 3.36
      vertex 17.8056 -10.2801 3.36
    endloop
  endfacet
  facet normal -0.447212 0.774597 0.447215
    outer loop
      vertex 1.79617 -19.5231 3.36
      vertex 6.35913 -15.6416 1.2
      vertex 0.609999 -18.9724 1.22
    endloop
  endfacet
  facet normal -0.447005 0.774244 0.448033
    outer loop
      vertex 0.609999 -18.9724 1.22
      vertex 6.35913 -15.6416 1.2
      vertex 0.599999 -18.9666 1.2
    endloop
  endfacet
  facet normal -0.447059 0.774571 -0.447413
    outer loop
      vertex 16.1256 -9.3101 0
      vertex 16.1306 -9.31299 -0.00999928
      vertex 16.0776 -9.34358 -0.00999928
    endloop
  endfacet
  facet normal -0.447303 0.774754 -0.446852
    outer loop
      vertex 16.0776 -9.34358 -0.00999928
      vertex 0 -18.6202 0
      vertex 16.1256 -9.3101 0
    endloop
  endfacet
  facet normal -0.446797 0.773874 -0.448879
    outer loop
      vertex 0 -18.6202 0
      vertex 16.0776 -9.34358 -0.00999928
      vertex 0 -18.626 -0.00999928
    endloop
  endfacet
  facet normal 0.447821 -0.77565 -0.444773
    outer loop
      vertex 0.0629882 -26.3377 -0.00999928
      vertex 22.8456 -13.1899 0
      vertex 0 -26.3798 0
    endloop
  endfacet
  facet normal 0.447003 -0.774229 -0.44806
    outer loop
      vertex 22.8456 -13.1899 0
      vertex 0.0629882 -26.3377 -0.00999928
      vertex 22.8406 -13.187 -0.00999928
    endloop
  endfacet
  facet normal 0.446144 -0.774155 -0.449042
    outer loop
      vertex 0 -26.374 -0.00999928
      vertex 0.0629882 -26.3377 -0.00999928
      vertex 0 -26.3798 0
    endloop
  endfacet
  facet normal -0.447214 -0.774597 0.447213
    outer loop
      vertex -21.1656 -12.2199 3.36
      vertex -3.36 -23.7355 1.22
      vertex -3.47617 -22.4329 3.36
    endloop
  endfacet
  facet normal -0.447218 -0.774601 0.447202
    outer loop
      vertex -3.36 -23.7355 1.22
      vertex -21.1656 -12.2199 3.36
      vertex -3.36 -24.1319 0.533394
    endloop
  endfacet
  facet normal -0.446616 -0.773966 0.4489
    outer loop
      vertex 0 -26.3798 0
      vertex 0 -26.3682 0.02
      vertex -0.125986 -26.2955 0.02
    endloop
  endfacet
  facet normal -0.447168 -0.774556 0.447329
    outer loop
      vertex -21.1656 -12.2199 3.36
      vertex -3.36 -24.4284 0.02
      vertex -3.36 -24.1319 0.533394
    endloop
  endfacet
  facet normal -0.447212 -0.774592 0.447223
    outer loop
      vertex -22.8456 -13.1899 0
      vertex -3.36 -24.4284 0.02
      vertex -21.1656 -12.2199 3.36
    endloop
  endfacet
  facet normal -0.447538 -0.775159 0.445912
    outer loop
      vertex 0 -26.3798 0
      vertex -3.36 -24.4284 0.02
      vertex -22.8456 -13.1899 0
    endloop
  endfacet
  facet normal -0.447069 -0.77437 0.44775
    outer loop
      vertex -3.36 -24.4284 0.02
      vertex 0 -26.3798 0
      vertex -0.125986 -26.2955 0.02
    endloop
  endfacet
  facet normal 0 0 1
    outer loop
      vertex -3.47617 22.4329 3.36
      vertex -3.50985 21.8592 3.36
      vertex -3.47617 21.8009 3.36
    endloop
  endfacet
  facet normal 0 0 1
    outer loop
      vertex -3.47617 22.4329 3.36
      vertex -14.361 15.5943 3.36
      vertex -3.50985 21.8592 3.36
    endloop
  endfacet
  facet normal 0 0 1
    outer loop
      vertex -17.8056 10.2801 3.36
      vertex -21.1656 12.2199 3.36
      vertex -17.8056 -10.2801 3.36
    endloop
  endfacet
  facet normal 0 0 1
    outer loop
      vertex -14.361 15.5943 3.36
      vertex -21.1656 12.2199 3.36
      vertex -17.8056 10.2801 3.36
    endloop
  endfacet
  facet normal 0 0 1
    outer loop
      vertex -21.1656 12.2199 3.36
      vertex -14.361 15.5943 3.36
      vertex -3.47617 22.4329 3.36
    endloop
  endfacet
  facet normal 0 0 1
    outer loop
      vertex -13.761 14.5551 3.36
      vertex -1.79617 19.5231 3.36
      vertex -3.47617 20.493 3.36
    endloop
  endfacet
  facet normal -0 0 1
    outer loop
      vertex -13.761 14.5551 3.36
      vertex -17.8056 10.2801 3.36
      vertex -1.79617 19.5231 3.36
    endloop
  endfacet
  facet normal 0 0 1
    outer loop
      vertex -17.8056 10.2801 3.36
      vertex -13.761 14.5551 3.36
      vertex -14.361 15.5943 3.36
    endloop
  endfacet
  facet normal 0 0 1
    outer loop
      vertex -1.79617 -19.5231 3.36
      vertex -13.761 -14.5551 3.36
      vertex -3.47617 -20.493 3.36
    endloop
  endfacet
  facet normal 0 0 1
    outer loop
      vertex -13.761 -14.5551 3.36
      vertex -17.8056 -10.2801 3.36
      vertex -14.361 -15.5943 3.36
    endloop
  endfacet
  facet normal 0 0 1
    outer loop
      vertex -17.8056 -10.2801 3.36
      vertex -13.761 -14.5551 3.36
      vertex -1.79617 -19.5231 3.36
    endloop
  endfacet
  facet normal -0 0 1
    outer loop
      vertex -3.50985 -21.8592 3.36
      vertex -3.47617 -22.4329 3.36
      vertex -3.47617 -21.8009 3.36
    endloop
  endfacet
  facet normal 0 0 1
    outer loop
      vertex -14.361 -15.5943 3.36
      vertex -3.47617 -22.4329 3.36
      vertex -3.50985 -21.8592 3.36
    endloop
  endfacet
  facet normal 0 0 1
    outer loop
      vertex -14.361 -15.5943 3.36
      vertex -21.1656 -12.2199 3.36
      vertex -3.47617 -22.4329 3.36
    endloop
  endfacet
  facet normal 0 0 1
    outer loop
      vertex -17.8056 -10.2801 3.36
      vertex -21.1656 -12.2199 3.36
      vertex -14.361 -15.5943 3.36
    endloop
  endfacet
  facet normal 0 0 1
    outer loop
      vertex -21.1656 -12.2199 3.36
      vertex -17.8056 -10.2801 3.36
      vertex -21.1656 12.2199 3.36
    endloop
  endfacet
  facet normal 0 0 1
    outer loop
      vertex 2.34352 19.8391 3.36
      vertex 1.79617 19.5231 3.36
      vertex 2.30984 19.7808 3.36
    endloop
  endfacet
  facet normal 0 0 1
    outer loop
      vertex 17.8056 -10.2801 3.36
      vertex 13.161 -13.5159 3.36
      vertex 13.761 -14.5551 3.36
    endloop
  endfacet
  facet normal 0 0 1
    outer loop
      vertex 1.79617 -19.5231 3.36
      vertex 13.161 -13.5159 3.36
      vertex 17.8056 -10.2801 3.36
    endloop
  endfacet
  facet normal 0 0 1
    outer loop
      vertex 13.161 -13.5159 3.36
      vertex 1.79617 -19.5231 3.36
      vertex 2.30984 -19.7808 3.36
    endloop
  endfacet
  facet normal 0 0 1
    outer loop
      vertex 21.1656 12.2199 3.36
      vertex 17.8056 10.2801 3.36
      vertex 21.1656 -12.2199 3.36
    endloop
  endfacet
  facet normal 0 0 1
    outer loop
      vertex 21.1656 12.2199 3.36
      vertex 13.761 14.5551 3.36
      vertex 17.8056 10.2801 3.36
    endloop
  endfacet
  facet normal 0 0 1
    outer loop
      vertex 3.47617 22.4329 3.36
      vertex 13.761 14.5551 3.36
      vertex 21.1656 12.2199 3.36
    endloop
  endfacet
  facet normal -0 0 1
    outer loop
      vertex 3.47617 20.951 3.36
      vertex 13.761 14.5551 3.36
      vertex 3.47617 22.4329 3.36
    endloop
  endfacet
  facet normal -0 0 1
    outer loop
      vertex 3.47617 20.493 3.36
      vertex 13.761 14.5551 3.36
      vertex 3.47617 20.951 3.36
    endloop
  endfacet
  facet normal -0 0 1
    outer loop
      vertex 17.8056 -10.2801 3.36
      vertex 21.1656 -12.2199 3.36
      vertex 17.8056 10.2801 3.36
    endloop
  endfacet
  facet normal 0 0 1
    outer loop
      vertex 13.761 -14.5551 3.36
      vertex 21.1656 -12.2199 3.36
      vertex 17.8056 -10.2801 3.36
    endloop
  endfacet
  facet normal 0 0 1
    outer loop
      vertex 3.47617 -20.951 3.36
      vertex 13.761 -14.5551 3.36
      vertex 3.47617 -20.493 3.36
    endloop
  endfacet
  facet normal 0 0 1
    outer loop
      vertex 3.47617 -22.4329 3.36
      vertex 13.761 -14.5551 3.36
      vertex 3.47617 -20.951 3.36
    endloop
  endfacet
  facet normal -0 0 1
    outer loop
      vertex 13.761 -14.5551 3.36
      vertex 3.47617 -22.4329 3.36
      vertex 21.1656 -12.2199 3.36
    endloop
  endfacet
  facet normal -0 0 1
    outer loop
      vertex 13.161 13.5159 3.36
      vertex 17.8056 10.2801 3.36
      vertex 13.761 14.5551 3.36
    endloop
  endfacet
  facet normal -0 0 1
    outer loop
      vertex 1.79617 19.5231 3.36
      vertex 13.161 13.5159 3.36
      vertex 2.30984 19.7808 3.36
    endloop
  endfacet
  facet normal 0 0 1
    outer loop
      vertex 13.161 13.5159 3.36
      vertex 1.79617 19.5231 3.36
      vertex 17.8056 10.2801 3.36
    endloop
  endfacet
  facet normal 0 0 1
    outer loop
      vertex 2.34352 -19.8391 3.36
      vertex 2.30984 -19.7808 3.36
      vertex 1.79617 -19.5231 3.36
    endloop
  endfacet
  facet normal 0 0 1
    outer loop
      vertex -0.00793681 -22.1716 3.36
      vertex 0.288393 -22.3427 3.36
      vertex 0.288393 -22.3335 3.36
    endloop
  endfacet
  facet normal 0 0 1
    outer loop
      vertex 0.288393 -22.3427 3.36
      vertex 0.00793681 -22.8284 3.36
      vertex 0.288393 -22.6665 3.36
    endloop
  endfacet
  facet normal -0 0 1
    outer loop
      vertex -0.00793681 -22.1716 3.36
      vertex 0.288393 -22.3335 3.36
      vertex 2.66575e-07 -22.167 3.36
    endloop
  endfacet
  facet normal 0 0 1
    outer loop
      vertex 0.288393 -22.3427 3.36
      vertex -0.00793681 -22.1716 3.36
      vertex 0.00793681 -22.8284 3.36
    endloop
  endfacet
  facet normal -0 0 1
    outer loop
      vertex -0.288393 -22.6573 3.36
      vertex 0.00793681 -22.8284 3.36
      vertex -0.00793681 -22.1716 3.36
    endloop
  endfacet
  facet normal 0 0 1
    outer loop
      vertex 0.00793681 -22.8284 3.36
      vertex -0.288393 -22.6573 3.36
      vertex -2.66575e-07 -22.833 3.36
    endloop
  endfacet
  facet normal 0 0 1
    outer loop
      vertex -0.288393 -22.6573 3.36
      vertex -0.00793681 -22.1716 3.36
      vertex -0.288393 -22.3335 3.36
    endloop
  endfacet
  facet normal 0 0 1
    outer loop
      vertex -2.66575e-07 -22.833 3.36
      vertex -0.288393 -22.6573 3.36
      vertex -0.288393 -22.6665 3.36
    endloop
  endfacet
  facet normal 0 0 1
    outer loop
      vertex 0.00793681 22.8284 3.36
      vertex 0.288393 22.3427 3.36
      vertex 0.288393 22.6665 3.36
    endloop
  endfacet
  facet normal 0 0 1
    outer loop
      vertex -0.00793681 22.1716 3.36
      vertex 0.288393 22.3427 3.36
      vertex 0.00793681 22.8284 3.36
    endloop
  endfacet
  facet normal 0 0 1
    outer loop
      vertex 0.288393 22.3427 3.36
      vertex -0.00793681 22.1716 3.36
      vertex 0.288393 22.3335 3.36
    endloop
  endfacet
  facet normal 0 0 1
    outer loop
      vertex -0.288393 22.6573 3.36
      vertex 0.00793681 22.8284 3.36
      vertex -2.66575e-07 22.833 3.36
    endloop
  endfacet
  facet normal 0 0 1
    outer loop
      vertex 0.288393 22.3335 3.36
      vertex -0.00793681 22.1716 3.36
      vertex 2.66575e-07 22.167 3.36
    endloop
  endfacet
  facet normal 0 0 1
    outer loop
      vertex -0.288393 22.6573 3.36
      vertex -2.66575e-07 22.833 3.36
      vertex -0.288393 22.6665 3.36
    endloop
  endfacet
  facet normal 0 0 1
    outer loop
      vertex 0.00793681 22.8284 3.36
      vertex -0.288393 22.6573 3.36
      vertex -0.00793681 22.1716 3.36
    endloop
  endfacet
  facet normal 0 0 1
    outer loop
      vertex -0.00793681 22.1716 3.36
      vertex -0.288393 22.6573 3.36
      vertex -0.288393 22.3335 3.36
    endloop
  endfacet
  facet normal 0.447006 0.774242 0.448033
    outer loop
      vertex -10.3664 -13.328 1.2
      vertex -0.609999 -18.9724 1.22
      vertex -0.599999 -18.9666 1.2
    endloop
  endfacet
  facet normal 0.447218 0.774605 0.447194
    outer loop
      vertex -0.609999 -18.9724 1.22
      vertex -10.3664 -13.328 1.2
      vertex -1.6102 -19.4367 3.02449
    endloop
  endfacet
  facet normal 0.447162 0.774564 0.447322
    outer loop
      vertex -10.3664 -13.328 1.2
      vertex -1.79617 -19.5231 3.36
      vertex -1.6102 -19.4367 3.02449
    endloop
  endfacet
  facet normal 0.44721 0.774594 0.447221
    outer loop
      vertex -1.79617 -19.5231 3.36
      vertex -10.3664 -13.328 1.2
      vertex -17.8056 -10.2801 3.36
    endloop
  endfacet
  facet normal 0.44721 0.77459 0.447229
    outer loop
      vertex -17.8056 -10.2801 3.36
      vertex -10.3664 -13.328 1.2
      vertex -16.7256 -9.65651 1.2
    endloop
  endfacet
  facet normal 0.446876 0.773839 -0.448859
    outer loop
      vertex 0 -18.6202 0
      vertex 0 -18.626 -0.00999928
      vertex -0.0529889 -18.5954 -0.00999928
    endloop
  endfacet
  facet normal 0.446903 0.77406 -0.448452
    outer loop
      vertex -0.0529889 -18.5954 -0.00999928
      vertex -16.1256 -9.3101 0
      vertex 0 -18.6202 0
    endloop
  endfacet
  facet normal 0.447157 0.774498 -0.447441
    outer loop
      vertex -16.1256 -9.3101 0
      vertex -0.0529889 -18.5954 -0.00999928
      vertex -16.1306 -9.31299 -0.00999928
    endloop
  endfacet
  facet normal -0.447419 -0.774954 -0.446388
    outer loop
      vertex -22.7776 -13.2234 -0.00999928
      vertex 0 -26.3798 0
      vertex -22.8456 -13.1899 0
    endloop
  endfacet
  facet normal -0.446795 -0.773874 -0.448879
    outer loop
      vertex 0 -26.3798 0
      vertex -22.7776 -13.2234 -0.00999928
      vertex 0 -26.374 -0.00999928
    endloop
  endfacet
  facet normal -0.447233 -0.774058 -0.448126
    outer loop
      vertex -22.8406 -13.187 -0.00999928
      vertex -22.7776 -13.2234 -0.00999928
      vertex -22.8456 -13.1899 0
    endloop
  endfacet
  facet normal 0 0 -1
    outer loop
      vertex 16.1306 -9.31299 -0.00999928
      vertex 22.8406 13.187 -0.00999928
      vertex 22.8406 -13.187 -0.00999928
    endloop
  endfacet
  facet normal 0 0 -1
    outer loop
      vertex 16.1306 9.31299 -0.00999928
      vertex 22.8406 13.187 -0.00999928
      vertex 16.1306 -9.31299 -0.00999928
    endloop
  endfacet
  facet normal 0 0 -1
    outer loop
      vertex 22.8406 -13.187 -0.00999928
      vertex 16.0776 -9.34358 -0.00999928
      vertex 16.1306 -9.31299 -0.00999928
    endloop
  endfacet
  facet normal 0 0 -1
    outer loop
      vertex 0.0629882 -26.3377 -0.00999928
      vertex 16.0776 -9.34358 -0.00999928
      vertex 22.8406 -13.187 -0.00999928
    endloop
  endfacet
  facet normal 0 0 -1
    outer loop
      vertex 0 -18.626 -0.00999928
      vertex 0.0629882 -26.3377 -0.00999928
      vertex 0 -26.374 -0.00999928
    endloop
  endfacet
  facet normal 0 0 -1
    outer loop
      vertex 0.0629882 -26.3377 -0.00999928
      vertex 0 -18.626 -0.00999928
      vertex 16.0776 -9.34358 -0.00999928
    endloop
  endfacet
  facet normal 0 0 -1
    outer loop
      vertex 0 -26.374 -0.00999928
      vertex -0.0529889 -18.5954 -0.00999928
      vertex 0 -18.626 -0.00999928
    endloop
  endfacet
  facet normal 0 0 -1
    outer loop
      vertex -22.7776 -13.2234 -0.00999928
      vertex -0.0529889 -18.5954 -0.00999928
      vertex 0 -26.374 -0.00999928
    endloop
  endfacet
  facet normal 0 0 -1
    outer loop
      vertex -22.8406 -13.187 -0.00999928
      vertex -16.1306 -9.31299 -0.00999928
      vertex -22.7776 -13.2234 -0.00999928
    endloop
  endfacet
  facet normal 0 0 -1
    outer loop
      vertex -0.0529889 -18.5954 -0.00999928
      vertex -22.7776 -13.2234 -0.00999928
      vertex -16.1306 -9.31299 -0.00999928
    endloop
  endfacet
  facet normal -0 0 -1
    outer loop
      vertex 22.8406 13.187 -0.00999928
      vertex 16.1306 9.31299 -0.00999928
      vertex 22.7776 13.2234 -0.00999928
    endloop
  endfacet
  facet normal 0 0 -1
    outer loop
      vertex 0.0529889 18.5954 -0.00999928
      vertex 22.7776 13.2234 -0.00999928
      vertex 16.1306 9.31299 -0.00999928
    endloop
  endfacet
  facet normal 0 0 -1
    outer loop
      vertex 0 26.374 -0.00999928
      vertex 0.0529889 18.5954 -0.00999928
      vertex 0 18.626 -0.00999928
    endloop
  endfacet
  facet normal 0 0 -1
    outer loop
      vertex 0.0529889 18.5954 -0.00999928
      vertex 0 26.374 -0.00999928
      vertex 22.7776 13.2234 -0.00999928
    endloop
  endfacet
  facet normal 0 0 -1
    outer loop
      vertex 0 18.626 -0.00999928
      vertex -0.0629882 26.3377 -0.00999928
      vertex 0 26.374 -0.00999928
    endloop
  endfacet
  facet normal 0 0 -1
    outer loop
      vertex -16.0776 9.34358 -0.00999928
      vertex -0.0629882 26.3377 -0.00999928
      vertex 0 18.626 -0.00999928
    endloop
  endfacet
  facet normal 0 0 -1
    outer loop
      vertex -22.8406 13.187 -0.00999928
      vertex -16.0776 9.34358 -0.00999928
      vertex -16.1306 9.31299 -0.00999928
    endloop
  endfacet
  facet normal -0 0 -1
    outer loop
      vertex -16.1306 -9.31299 -0.00999928
      vertex -22.8406 -13.187 -0.00999928
      vertex -16.1306 9.31299 -0.00999928
    endloop
  endfacet
  facet normal 0 0 -1
    outer loop
      vertex -16.0776 9.34358 -0.00999928
      vertex -22.8406 13.187 -0.00999928
      vertex -0.0629882 26.3377 -0.00999928
    endloop
  endfacet
  facet normal 0 0 -1
    outer loop
      vertex -22.8406 13.187 -0.00999928
      vertex -16.1306 9.31299 -0.00999928
      vertex -22.8406 -13.187 -0.00999928
    endloop
  endfacet
  facet normal 0.49999 -0.866031 0
    outer loop
      vertex 0.599999 18.9666 1.2
      vertex 1.06264e-07 18.6202 1.22
      vertex 1.06264e-07 18.6202 1.2
    endloop
  endfacet
  facet normal 0.500018 -0.866014 0.0011353
    outer loop
      vertex 1.06264e-07 18.6202 1.22
      vertex 0.599999 18.9666 1.2
      vertex 0.609999 18.9724 1.22
    endloop
  endfacet
  facet normal 1 -0 0
    outer loop
      vertex 3.36 24.1319 0.533394
      vertex 3.36 24.4399 0.02
      vertex 3.36 24.4399 1.22
    endloop
  endfacet
  facet normal 1 0 0
    outer loop
      vertex 3.36 24.4399 0.02
      vertex 3.36 24.1319 0.533394
      vertex 3.36 24.4284 0.02
    endloop
  endfacet
  facet normal 1 0 -0
    outer loop
      vertex 3.36 24.1319 0.533394
      vertex 3.36 24.4399 1.22
      vertex 3.36 23.7355 1.22
    endloop
  endfacet
  facet normal -0.500001 0.866025 0
    outer loop
      vertex -1.06264e-07 26.3798 0.02
      vertex -3.36 24.4399 1.22
      vertex -1.06264e-07 26.3798 1.22
    endloop
  endfacet
  facet normal -0.500001 0.866025 0
    outer loop
      vertex -3.36 24.4399 1.22
      vertex -1.06264e-07 26.3798 0.02
      vertex -3.36 24.4399 0.02
    endloop
  endfacet
  facet normal 0.500001 0.866025 -0
    outer loop
      vertex 3.36 24.4399 0.02
      vertex -1.06264e-07 26.3798 1.22
      vertex 3.36 24.4399 1.22
    endloop
  endfacet
  facet normal 0.500001 0.866025 0
    outer loop
      vertex -1.06264e-07 26.3798 1.22
      vertex 3.36 24.4399 0.02
      vertex -1.06264e-07 26.3798 0.02
    endloop
  endfacet
  facet normal -1 0 0
    outer loop
      vertex -3.36 24.4284 0.02
      vertex -3.36 24.4399 1.22
      vertex -3.36 24.4399 0.02
    endloop
  endfacet
  facet normal -1 -0 0
    outer loop
      vertex -3.36 24.4399 1.22
      vertex -3.36 24.4284 0.02
      vertex -3.36 23.7355 1.22
    endloop
  endfacet
  facet normal -0.500018 -0.866014 0.00113539
    outer loop
      vertex -0.599999 18.9666 1.2
      vertex 1.06264e-07 18.6202 1.22
      vertex -0.609999 18.9724 1.22
    endloop
  endfacet
  facet normal -0.49999 -0.866031 -0
    outer loop
      vertex 1.06264e-07 18.6202 1.22
      vertex -0.599999 18.9666 1.2
      vertex 1.06264e-07 18.6202 1.2
    endloop
  endfacet
  facet normal 0 0 -1
    outer loop
      vertex 0.125986 26.2955 0.02
      vertex 3.36 24.4399 0.02
      vertex 3.36 24.4284 0.02
    endloop
  endfacet
  facet normal 0 0 -1
    outer loop
      vertex -1.06264e-07 26.3798 0.02
      vertex 0.125986 26.2955 0.02
      vertex 0 26.3682 0.02
    endloop
  endfacet
  facet normal 0 0 -1
    outer loop
      vertex 0.125986 26.2955 0.02
      vertex -1.06264e-07 26.3798 0.02
      vertex 3.36 24.4399 0.02
    endloop
  endfacet
  facet normal 0 0 -1
    outer loop
      vertex -3.36 24.4399 0.02
      vertex 0 26.3682 0.02
      vertex -3.36 24.4284 0.02
    endloop
  endfacet
  facet normal -0 0 -1
    outer loop
      vertex 0 26.3682 0.02
      vertex -3.36 24.4399 0.02
      vertex -1.06264e-07 26.3798 0.02
    endloop
  endfacet
  facet normal 0.520399 0.852153 -0.0549564
    outer loop
      vertex 3.36 24.4399 1.22
      vertex 4.7499 25.2439 26.8482
      vertex 4.75121 25.2431 26.8482
    endloop
  endfacet
  facet normal 0.499265 0.864752 -0.0542055
    outer loop
      vertex 4.7499 25.2439 26.8482
      vertex 3.36 24.4399 1.22
      vertex -1.06264e-07 26.3798 1.22
    endloop
  endfacet
  facet normal -0.520399 -0.852153 -0.0549571
    outer loop
      vertex -4.08282 20.1428 14.5354
      vertex -4.7499 19.7561 26.8482
      vertex -4.75121 19.7569 26.8482
    endloop
  endfacet
  facet normal -0.499246 -0.864763 -0.0542001
    outer loop
      vertex -1.79617 19.5231 3.36
      vertex -4.08282 20.1428 14.5354
      vertex -3.47617 20.493 3.36
    endloop
  endfacet
  facet normal -0.499275 -0.864746 -0.0542068
    outer loop
      vertex 1.06264e-07 18.6202 1.22
      vertex -4.08282 20.1428 14.5354
      vertex -1.79617 19.5231 3.36
    endloop
  endfacet
  facet normal -0.499283 -0.864741 -0.0542156
    outer loop
      vertex 1.06264e-07 18.6202 1.22
      vertex -1.79617 19.5231 3.36
      vertex -0.609999 18.9724 1.22
    endloop
  endfacet
  facet normal -0.499278 -0.864744 -0.0542082
    outer loop
      vertex -4.08282 20.1428 14.5354
      vertex 1.06264e-07 18.6202 1.22
      vertex -4.7499 19.7561 26.8482
    endloop
  endfacet
  facet normal -0.99853 0 -0.0542045
    outer loop
      vertex -3.36 24.4399 1.22
      vertex -4.75121 19.7584 26.8482
      vertex -4.75121 25.2431 26.8482
    endloop
  endfacet
  facet normal -0.499257 -0.864757 -0.0542038
    outer loop
      vertex -2.06719e-07 17.0138 26.8482
      vertex -4.7499 19.7561 26.8482
      vertex 1.06264e-07 18.6202 1.22
    endloop
  endfacet
  facet normal 0.499257 0.864757 -0.0542038
    outer loop
      vertex 4.7499 25.2439 26.8482
      vertex -1.06264e-07 26.3798 1.22
      vertex 2.06719e-07 27.9862 26.8482
    endloop
  endfacet
  facet normal 0.99853 0 -0.0542045
    outer loop
      vertex 3.47617 22.4329 3.36
      vertex 4.75121 25.2431 26.8482
      vertex 4.75121 25.2416 26.8482
    endloop
  endfacet
  facet normal 0.99853 7.25003e-07 -0.0542046
    outer loop
      vertex 4.75121 25.2431 26.8482
      vertex 3.47617 22.4329 3.36
      vertex 3.36 24.4399 1.22
    endloop
  endfacet
  facet normal 0.99853 0 -0.0542052
    outer loop
      vertex 3.36 24.4399 1.22
      vertex 3.47617 22.4329 3.36
      vertex 3.36 23.7355 1.22
    endloop
  endfacet
  facet normal 0.99853 0 -0.0542045
    outer loop
      vertex 3.47617 22.4329 3.36
      vertex 4.75121 25.2416 26.8482
      vertex 3.47617 20.951 3.36
    endloop
  endfacet
  facet normal 0.99853 0 -0.0542045
    outer loop
      vertex 4.75121 19.7569 26.8482
      vertex 3.47617 20.951 3.36
      vertex 4.75121 25.2416 26.8482
    endloop
  endfacet
  facet normal 0.99853 0 -0.0542045
    outer loop
      vertex 3.47617 20.951 3.36
      vertex 4.75121 19.7569 26.8482
      vertex 3.47617 20.493 3.36
    endloop
  endfacet
  facet normal -0.99853 -0 -0.0542104
    outer loop
      vertex -3.47617 22.4329 3.36
      vertex -3.47617 21.8009 3.36
      vertex -3.50985 21.8592 3.98037
    endloop
  endfacet
  facet normal -0.99853 0 -0.0542076
    outer loop
      vertex -3.44864 22.7417 2.85279
      vertex -3.36 24.4399 1.22
      vertex -3.36 23.7355 1.22
    endloop
  endfacet
  facet normal -0.998531 2.34458e-05 -0.0541833
    outer loop
      vertex -3.47617 22.4329 3.36
      vertex -3.36 24.4399 1.22
      vertex -3.44864 22.7417 2.85279
    endloop
  endfacet
  facet normal -0.99853 6.60847e-06 -0.0542043
    outer loop
      vertex -4.11821 21.508 15.1873
      vertex -3.47617 22.4329 3.36
      vertex -3.50985 21.8592 3.98037
    endloop
  endfacet
  facet normal -0.99853 5.43411e-07 -0.0542047
    outer loop
      vertex -3.47617 22.4329 3.36
      vertex -4.11821 21.508 15.1873
      vertex -3.36 24.4399 1.22
    endloop
  endfacet
  facet normal -0.99853 1.1273e-05 -0.0542025
    outer loop
      vertex -4.11821 21.508 15.1873
      vertex -4.75121 19.7584 26.8482
      vertex -3.36 24.4399 1.22
    endloop
  endfacet
  facet normal -0.99853 -1.55395e-06 -0.0542044
    outer loop
      vertex -4.75121 19.7569 26.8482
      vertex -4.11821 21.508 15.1873
      vertex -4.08282 20.1428 14.5354
    endloop
  endfacet
  facet normal -0.99853 0 -0.0542042
    outer loop
      vertex -4.11821 21.508 15.1873
      vertex -4.75121 19.7569 26.8482
      vertex -4.75121 19.7584 26.8482
    endloop
  endfacet
  facet normal -0.499266 0.864752 -0.0542035
    outer loop
      vertex -3.36 24.4399 1.22
      vertex 2.06719e-07 27.9862 26.8482
      vertex -1.06264e-07 26.3798 1.22
    endloop
  endfacet
  facet normal -0.499263 0.864753 -0.054204
    outer loop
      vertex 2.06719e-07 27.9862 26.8482
      vertex -3.36 24.4399 1.22
      vertex -4.75121 25.2431 26.8482
    endloop
  endfacet
  facet normal 0.499263 -0.864753 -0.0542007
    outer loop
      vertex -2.06719e-07 17.0138 26.8482
      vertex 2.91821 19.4295 15.1873
      vertex 4.75121 19.7569 26.8482
    endloop
  endfacet
  facet normal 0.499255 -0.864758 -0.0542039
    outer loop
      vertex 1.06264e-07 18.6202 1.22
      vertex 2.91821 19.4295 15.1873
      vertex -2.06719e-07 17.0138 26.8482
    endloop
  endfacet
  facet normal 0.499295 -0.864734 -0.0542109
    outer loop
      vertex 2.91821 19.4295 15.1873
      vertex 1.79617 19.5231 3.36
      vertex 2.30984 19.7808 3.98037
    endloop
  endfacet
  facet normal 0.499277 -0.864745 -0.0542092
    outer loop
      vertex 2.91821 19.4295 15.1873
      vertex 1.06264e-07 18.6202 1.22
      vertex 1.79617 19.5231 3.36
    endloop
  endfacet
  facet normal 0.498887 -0.864997 -0.0537756
    outer loop
      vertex 1.79617 19.5231 3.36
      vertex 1.06264e-07 18.6202 1.22
      vertex 1.6102 19.4367 3.02449
    endloop
  endfacet
  facet normal 0.499282 -0.86474 -0.0542444
    outer loop
      vertex 1.6102 19.4367 3.02449
      vertex 1.06264e-07 18.6202 1.22
      vertex 0.609999 18.9724 1.22
    endloop
  endfacet
  facet normal 0.499292 -0.864737 -0.0542057
    outer loop
      vertex 4.08282 20.1428 14.5354
      vertex 4.75121 19.7569 26.8482
      vertex 2.91821 19.4295 15.1873
    endloop
  endfacet
  facet normal -0.997013 0.0534082 0.0557959
    outer loop
      vertex 4.08282 20.1428 14.5354
      vertex 3.47617 20.493 3.36
      vertex 4.75121 19.7569 26.8482
    endloop
  endfacet
  facet normal 0.499251 -0.864763 -0.0541627
    outer loop
      vertex 2.30984 19.7808 3.98037
      vertex 1.79617 19.5231 3.36
      vertex 2.34352 19.8391 3.36
    endloop
  endfacet
  facet normal 0.50001 -0.86602 0
    outer loop
      vertex -2.06841e-07 17.0131 26.8482
      vertex 4.75176 19.7566 40.2882
      vertex -2.06841e-07 17.0131 40.2882
    endloop
  endfacet
  facet normal 0.50001 -0.86602 0
    outer loop
      vertex 4.75176 19.7566 40.2882
      vertex -2.06841e-07 17.0131 26.8482
      vertex 4.75176 19.7566 26.8482
    endloop
  endfacet
  facet normal 1 -0 0
    outer loop
      vertex 4.75176 19.7566 40.2882
      vertex 4.75176 25.2434 26.8482
      vertex 4.75176 25.2434 40.2882
    endloop
  endfacet
  facet normal 1 0 0
    outer loop
      vertex 4.75176 25.2434 26.8482
      vertex 4.75176 19.7566 40.2882
      vertex 4.75176 19.7566 26.8482
    endloop
  endfacet
  facet normal -0.50001 0.86602 0
    outer loop
      vertex 2.06841e-07 27.9869 26.8482
      vertex -4.75176 25.2434 40.2882
      vertex 2.06841e-07 27.9869 40.2882
    endloop
  endfacet
  facet normal -0.50001 0.86602 0
    outer loop
      vertex -4.75176 25.2434 40.2882
      vertex 2.06841e-07 27.9869 26.8482
      vertex -4.75176 25.2434 26.8482
    endloop
  endfacet
  facet normal 0.50001 0.86602 -0
    outer loop
      vertex 4.75176 25.2434 26.8482
      vertex 2.06841e-07 27.9869 40.2882
      vertex 4.75176 25.2434 40.2882
    endloop
  endfacet
  facet normal 0.50001 0.86602 0
    outer loop
      vertex 2.06841e-07 27.9869 40.2882
      vertex 4.75176 25.2434 26.8482
      vertex 2.06841e-07 27.9869 26.8482
    endloop
  endfacet
  facet normal -1 0 0
    outer loop
      vertex -4.75176 19.7566 26.8482
      vertex -4.75176 25.2434 40.2882
      vertex -4.75176 25.2434 26.8482
    endloop
  endfacet
  facet normal -1 -0 0
    outer loop
      vertex -4.75176 25.2434 40.2882
      vertex -4.75176 19.7566 26.8482
      vertex -4.75176 19.7566 40.2882
    endloop
  endfacet
  facet normal -0.50001 -0.86602 0
    outer loop
      vertex -4.75176 19.7566 26.8482
      vertex -2.06841e-07 17.0131 40.2882
      vertex -4.75176 19.7566 40.2882
    endloop
  endfacet
  facet normal -0.50001 -0.86602 -0
    outer loop
      vertex -2.06841e-07 17.0131 40.2882
      vertex -4.75176 19.7566 26.8482
      vertex -2.06841e-07 17.0131 26.8482
    endloop
  endfacet
  facet normal 0 0 1
    outer loop
      vertex 4.75176 25.2434 40.2882
      vertex 3.36 20.5601 40.2882
      vertex 4.75176 19.7566 40.2882
    endloop
  endfacet
  facet normal 0 0 1
    outer loop
      vertex 4.75176 25.2434 40.2882
      vertex 3.36 24.4399 40.2882
      vertex 3.36 20.5601 40.2882
    endloop
  endfacet
  facet normal 0 0 1
    outer loop
      vertex 2.06841e-07 27.9869 40.2882
      vertex 3.36 24.4399 40.2882
      vertex 4.75176 25.2434 40.2882
    endloop
  endfacet
  facet normal 0 0 1
    outer loop
      vertex 2.06841e-07 27.9869 40.2882
      vertex -1.06264e-07 26.3798 40.2882
      vertex 3.36 24.4399 40.2882
    endloop
  endfacet
  facet normal 0 0 1
    outer loop
      vertex 2.06841e-07 27.9869 40.2882
      vertex -3.36 24.4399 40.2882
      vertex -1.06264e-07 26.3798 40.2882
    endloop
  endfacet
  facet normal 0 -0 1
    outer loop
      vertex -3.36 24.4399 40.2882
      vertex 2.06841e-07 27.9869 40.2882
      vertex -4.75176 25.2434 40.2882
    endloop
  endfacet
  facet normal 0 0 1
    outer loop
      vertex 1.06264e-07 18.6202 40.2882
      vertex 4.75176 19.7566 40.2882
      vertex 3.36 20.5601 40.2882
    endloop
  endfacet
  facet normal -0 0 1
    outer loop
      vertex 1.06264e-07 18.6202 40.2882
      vertex -2.06841e-07 17.0131 40.2882
      vertex 4.75176 19.7566 40.2882
    endloop
  endfacet
  facet normal 0 0 1
    outer loop
      vertex -3.36 20.5601 40.2882
      vertex -2.06841e-07 17.0131 40.2882
      vertex 1.06264e-07 18.6202 40.2882
    endloop
  endfacet
  facet normal 0 0 1
    outer loop
      vertex -4.75176 25.2434 40.2882
      vertex -3.36 20.5601 40.2882
      vertex -3.36 24.4399 40.2882
    endloop
  endfacet
  facet normal 0 0 1
    outer loop
      vertex -3.36 20.5601 40.2882
      vertex -4.75176 19.7566 40.2882
      vertex -2.06841e-07 17.0131 40.2882
    endloop
  endfacet
  facet normal 0 0 1
    outer loop
      vertex -4.75176 19.7566 40.2882
      vertex -3.36 20.5601 40.2882
      vertex -4.75176 25.2434 40.2882
    endloop
  endfacet
  facet normal -0 0 -1
    outer loop
      vertex 4.75176 19.7566 26.8482
      vertex -2.06719e-07 17.0138 26.8482
      vertex 4.75121 19.7569 26.8482
    endloop
  endfacet
  facet normal 0 0 -1
    outer loop
      vertex -2.06841e-07 17.0131 26.8482
      vertex -2.06719e-07 17.0138 26.8482
      vertex 4.75176 19.7566 26.8482
    endloop
  endfacet
  facet normal 0 0 -1
    outer loop
      vertex -2.06841e-07 17.0131 26.8482
      vertex -4.7499 19.7561 26.8482
      vertex -2.06719e-07 17.0138 26.8482
    endloop
  endfacet
  facet normal 0 0 -1
    outer loop
      vertex -4.75176 19.7566 26.8482
      vertex -4.75121 19.7584 26.8482
      vertex -4.75121 19.7569 26.8482
    endloop
  endfacet
  facet normal 0 0 -1
    outer loop
      vertex -4.75121 19.7584 26.8482
      vertex -4.75176 25.2434 26.8482
      vertex -4.75121 25.2431 26.8482
    endloop
  endfacet
  facet normal -0 0 -1
    outer loop
      vertex -4.75121 19.7584 26.8482
      vertex -4.75176 19.7566 26.8482
      vertex -4.75176 25.2434 26.8482
    endloop
  endfacet
  facet normal 0 0 -1
    outer loop
      vertex -4.7499 19.7561 26.8482
      vertex -4.75176 19.7566 26.8482
      vertex -4.75121 19.7569 26.8482
    endloop
  endfacet
  facet normal 0 0 -1
    outer loop
      vertex -4.75176 19.7566 26.8482
      vertex -4.7499 19.7561 26.8482
      vertex -2.06841e-07 17.0131 26.8482
    endloop
  endfacet
  facet normal 0 0 -1
    outer loop
      vertex 4.75121 25.2416 26.8482
      vertex 4.75176 19.7566 26.8482
      vertex 4.75121 19.7569 26.8482
    endloop
  endfacet
  facet normal 0 0 -1
    outer loop
      vertex 4.75176 19.7566 26.8482
      vertex 4.75121 25.2416 26.8482
      vertex 4.75176 25.2434 26.8482
    endloop
  endfacet
  facet normal 0 0 -1
    outer loop
      vertex 4.75121 25.2431 26.8482
      vertex 4.75176 25.2434 26.8482
      vertex 4.75121 25.2416 26.8482
    endloop
  endfacet
  facet normal 0 0 -1
    outer loop
      vertex 4.7499 25.2439 26.8482
      vertex 4.75176 25.2434 26.8482
      vertex 4.75121 25.2431 26.8482
    endloop
  endfacet
  facet normal 0 0 -1
    outer loop
      vertex 4.7499 25.2439 26.8482
      vertex 2.06841e-07 27.9869 26.8482
      vertex 4.75176 25.2434 26.8482
    endloop
  endfacet
  facet normal 0 0 -1
    outer loop
      vertex 2.06719e-07 27.9862 26.8482
      vertex 2.06841e-07 27.9869 26.8482
      vertex 4.7499 25.2439 26.8482
    endloop
  endfacet
  facet normal 0 0 -1
    outer loop
      vertex -4.75121 25.2431 26.8482
      vertex 2.06841e-07 27.9869 26.8482
      vertex 2.06719e-07 27.9862 26.8482
    endloop
  endfacet
  facet normal 0 0 -1
    outer loop
      vertex 2.06841e-07 27.9869 26.8482
      vertex -4.75121 25.2431 26.8482
      vertex -4.75176 25.2434 26.8482
    endloop
  endfacet
  facet normal 0.499997 0.866027 -3.61345e-06
    outer loop
      vertex 13.761 14.5551 3.36
      vertex 3.47617 20.493 3.36
      vertex 4.08282 20.1428 14.5354
    endloop
  endfacet
  facet normal -0.499999 -0.866026 0
    outer loop
      vertex 13.161 13.5159 3.36
      vertex 2.30984 19.7808 3.98037
      vertex 2.30984 19.7808 3.36
    endloop
  endfacet
  facet normal -0.499999 -0.866026 -4.51022e-06
    outer loop
      vertex 2.30984 19.7808 3.98037
      vertex 13.161 13.5159 3.36
      vertex 2.91821 19.4295 15.1873
    endloop
  endfacet
  facet normal 0.612368 -0.353561 0.707107
    outer loop
      vertex 4.08282 20.1428 14.5354
      vertex 13.161 13.5159 3.36
      vertex 13.761 14.5551 3.36
    endloop
  endfacet
  facet normal 0.612363 -0.353569 0.707107
    outer loop
      vertex 13.161 13.5159 3.36
      vertex 4.08282 20.1428 14.5354
      vertex 2.91821 19.4295 15.1873
    endloop
  endfacet
  facet normal -0.865894 0.500228 0
    outer loop
      vertex 2.34352 19.8391 3.36
      vertex 2.30984 19.7808 3.36
      vertex 2.30984 19.7808 3.98037
    endloop
  endfacet
  facet normal 0.499997 -0.866027 3.61345e-06
    outer loop
      vertex -4.08282 20.1428 14.5354
      vertex -13.761 14.5551 3.36
      vertex -3.47617 20.493 3.36
    endloop
  endfacet
  facet normal -0.612385 -0.353528 0.707109
    outer loop
      vertex -14.361 15.5943 3.36
      vertex -4.08282 20.1428 14.5354
      vertex -4.11821 21.508 15.1873
    endloop
  endfacet
  facet normal -0.612368 -0.353561 0.707107
    outer loop
      vertex -4.08282 20.1428 14.5354
      vertex -14.361 15.5943 3.36
      vertex -13.761 14.5551 3.36
    endloop
  endfacet
  facet normal -0.499999 0.866026 0
    outer loop
      vertex -14.361 15.5943 3.36
      vertex -3.50985 21.8592 3.98037
      vertex -3.50985 21.8592 3.36
    endloop
  endfacet
  facet normal -0.499999 0.866026 -2.77363e-06
    outer loop
      vertex -3.50985 21.8592 3.98037
      vertex -14.361 15.5943 3.36
      vertex -4.11821 21.508 15.1873
    endloop
  endfacet
  facet normal 0.865894 0.500228 0
    outer loop
      vertex -3.47617 21.8009 3.36
      vertex -3.50985 21.8592 3.36
      vertex -3.50985 21.8592 3.98037
    endloop
  endfacet
  facet normal 0.991565 0 0.129614
    outer loop
      vertex -3.36 24.4399 26.8582
      vertex -0.288393 22.3335 3.36
      vertex -0.288393 22.6573 3.36
    endloop
  endfacet
  facet normal 0.991565 0 0.129614
    outer loop
      vertex -0.288393 22.3335 3.36
      vertex -3.36 24.4399 26.8582
      vertex -3.36 20.5601 26.8582
    endloop
  endfacet
  facet normal -0.991565 0 0.129614
    outer loop
      vertex 3.36 20.5601 26.8582
      vertex 0.288393 22.3427 3.36
      vertex 0.288393 22.3335 3.36
    endloop
  endfacet
  facet normal -0.495733 -0.858748 0.129619
    outer loop
      vertex 0.288393 22.6665 3.36
      vertex -1.06264e-07 26.3798 26.8582
      vertex 0.00793681 22.8284 3.36
    endloop
  endfacet
  facet normal -0.495783 -0.85872 0.129614
    outer loop
      vertex -1.06264e-07 26.3798 26.8582
      vertex 0.288393 22.6665 3.36
      vertex 3.36 24.4399 26.8582
    endloop
  endfacet
  facet normal -0.49721 -0.857912 0.129493
    outer loop
      vertex 0.00793681 22.8284 3.36
      vertex -1.06264e-07 26.3798 26.8582
      vertex -2.66575e-07 22.833 3.36
    endloop
  endfacet
  facet normal -0.495783 0.85872 0.129614
    outer loop
      vertex 0.288393 22.3335 3.36
      vertex 1.06264e-07 18.6202 26.8582
      vertex 3.36 20.5601 26.8582
    endloop
  endfacet
  facet normal -0.495774 0.858725 0.129615
    outer loop
      vertex 1.06264e-07 18.6202 26.8582
      vertex 0.288393 22.3335 3.36
      vertex 2.66575e-07 22.167 3.36
    endloop
  endfacet
  facet normal -0.991565 0 0.129614
    outer loop
      vertex 0.288393 22.3427 3.36
      vertex 3.36 24.4399 26.8582
      vertex 0.288393 22.6665 3.36
    endloop
  endfacet
  facet normal -0.991565 0 0.129614
    outer loop
      vertex 3.36 24.4399 26.8582
      vertex 0.288393 22.3427 3.36
      vertex 3.36 20.5601 26.8582
    endloop
  endfacet
  facet normal 0.49721 0.857912 0.129493
    outer loop
      vertex 1.06264e-07 18.6202 26.8582
      vertex 2.66575e-07 22.167 3.36
      vertex -0.00793681 22.1716 3.36
    endloop
  endfacet
  facet normal 0.495733 0.858748 0.129619
    outer loop
      vertex -0.288393 22.3335 3.36
      vertex 1.06264e-07 18.6202 26.8582
      vertex -0.00793681 22.1716 3.36
    endloop
  endfacet
  facet normal 0.495783 0.85872 0.129614
    outer loop
      vertex 1.06264e-07 18.6202 26.8582
      vertex -0.288393 22.3335 3.36
      vertex -3.36 20.5601 26.8582
    endloop
  endfacet
  facet normal 0.991565 -0 0.129614
    outer loop
      vertex -0.288393 22.6573 3.36
      vertex -0.288393 22.6665 3.36
      vertex -3.36 24.4399 26.8582
    endloop
  endfacet
  facet normal 0.495783 -0.85872 0.129614
    outer loop
      vertex -0.288393 22.6665 3.36
      vertex -1.06264e-07 26.3798 26.8582
      vertex -3.36 24.4399 26.8582
    endloop
  endfacet
  facet normal 0.495774 -0.858725 0.129615
    outer loop
      vertex -1.06264e-07 26.3798 26.8582
      vertex -0.288393 22.6665 3.36
      vertex -2.66575e-07 22.833 3.36
    endloop
  endfacet
  facet normal -0.500001 0.866025 0
    outer loop
      vertex 3.36 20.5601 26.8582
      vertex 1.06264e-07 18.6202 40.2882
      vertex 3.36 20.5601 40.2882
    endloop
  endfacet
  facet normal -0.500001 0.866025 0
    outer loop
      vertex 1.06264e-07 18.6202 40.2882
      vertex 3.36 20.5601 26.8582
      vertex 1.06264e-07 18.6202 26.8582
    endloop
  endfacet
  facet normal -1 0 0
    outer loop
      vertex 3.36 20.5601 26.8582
      vertex 3.36 24.4399 40.2882
      vertex 3.36 24.4399 26.8582
    endloop
  endfacet
  facet normal -1 -0 0
    outer loop
      vertex 3.36 24.4399 40.2882
      vertex 3.36 20.5601 26.8582
      vertex 3.36 20.5601 40.2882
    endloop
  endfacet
  facet normal 0.500001 -0.866025 0
    outer loop
      vertex -3.36 24.4399 26.8582
      vertex -1.06264e-07 26.3798 40.2882
      vertex -3.36 24.4399 40.2882
    endloop
  endfacet
  facet normal 0.500001 -0.866025 0
    outer loop
      vertex -1.06264e-07 26.3798 40.2882
      vertex -3.36 24.4399 26.8582
      vertex -1.06264e-07 26.3798 26.8582
    endloop
  endfacet
  facet normal -0.500001 -0.866025 0
    outer loop
      vertex -1.06264e-07 26.3798 26.8582
      vertex 3.36 24.4399 40.2882
      vertex -1.06264e-07 26.3798 40.2882
    endloop
  endfacet
  facet normal -0.500001 -0.866025 -0
    outer loop
      vertex 3.36 24.4399 40.2882
      vertex -1.06264e-07 26.3798 26.8582
      vertex 3.36 24.4399 26.8582
    endloop
  endfacet
  facet normal 1 -0 0
    outer loop
      vertex -3.36 20.5601 40.2882
      vertex -3.36 24.4399 26.8582
      vertex -3.36 24.4399 40.2882
    endloop
  endfacet
  facet normal 1 0 0
    outer loop
      vertex -3.36 24.4399 26.8582
      vertex -3.36 20.5601 40.2882
      vertex -3.36 20.5601 26.8582
    endloop
  endfacet
  facet normal 0.500001 0.866025 -0
    outer loop
      vertex 1.06264e-07 18.6202 26.8582
      vertex -3.36 20.5601 40.2882
      vertex 1.06264e-07 18.6202 40.2882
    endloop
  endfacet
  facet normal 0.500001 0.866025 0
    outer loop
      vertex -3.36 20.5601 40.2882
      vertex 1.06264e-07 18.6202 26.8582
      vertex -3.36 20.5601 26.8582
    endloop
  endfacet
  facet normal 0.500018 0.866014 0.0011353
    outer loop
      vertex 0.599999 -18.9666 1.2
      vertex 1.06264e-07 -18.6202 1.22
      vertex 0.609999 -18.9724 1.22
    endloop
  endfacet
  facet normal 0.49999 0.866031 0
    outer loop
      vertex 1.06264e-07 -18.6202 1.22
      vertex 0.599999 -18.9666 1.2
      vertex 1.06264e-07 -18.6202 1.2
    endloop
  endfacet
  facet normal 1 -0 0
    outer loop
      vertex 3.36 -24.4399 1.22
      vertex 3.36 -24.4284 0.02
      vertex 3.36 -23.7355 1.22
    endloop
  endfacet
  facet normal 1 0 0
    outer loop
      vertex 3.36 -24.4284 0.02
      vertex 3.36 -24.4399 1.22
      vertex 3.36 -24.4399 0.02
    endloop
  endfacet
  facet normal -0.500001 -0.866025 0
    outer loop
      vertex -3.36 -24.4399 0.02
      vertex -1.06264e-07 -26.3798 1.22
      vertex -3.36 -24.4399 1.22
    endloop
  endfacet
  facet normal -0.500001 -0.866025 -0
    outer loop
      vertex -1.06264e-07 -26.3798 1.22
      vertex -3.36 -24.4399 0.02
      vertex -1.06264e-07 -26.3798 0.02
    endloop
  endfacet
  facet normal 0.500001 -0.866025 0
    outer loop
      vertex -1.06264e-07 -26.3798 0.02
      vertex 3.36 -24.4399 1.22
      vertex -1.06264e-07 -26.3798 1.22
    endloop
  endfacet
  facet normal 0.500001 -0.866025 0
    outer loop
      vertex 3.36 -24.4399 1.22
      vertex -1.06264e-07 -26.3798 0.02
      vertex 3.36 -24.4399 0.02
    endloop
  endfacet
  facet normal -1 0 0
    outer loop
      vertex -3.36 -24.4399 0.02
      vertex -3.36 -24.1319 0.533394
      vertex -3.36 -24.4284 0.02
    endloop
  endfacet
  facet normal -1 -0 0
    outer loop
      vertex -3.36 -24.1319 0.533394
      vertex -3.36 -24.4399 0.02
      vertex -3.36 -24.4399 1.22
    endloop
  endfacet
  facet normal -1 0 0
    outer loop
      vertex -3.36 -24.1319 0.533394
      vertex -3.36 -24.4399 1.22
      vertex -3.36 -23.7355 1.22
    endloop
  endfacet
  facet normal -0.49999 0.866031 0
    outer loop
      vertex -0.599999 -18.9666 1.2
      vertex 1.06264e-07 -18.6202 1.22
      vertex 1.06264e-07 -18.6202 1.2
    endloop
  endfacet
  facet normal -0.500018 0.866014 0.00113539
    outer loop
      vertex 1.06264e-07 -18.6202 1.22
      vertex -0.599999 -18.9666 1.2
      vertex -0.609999 -18.9724 1.22
    endloop
  endfacet
  facet normal -0 0 -1
    outer loop
      vertex 3.36 -24.4399 0.02
      vertex 0 -26.3682 0.02
      vertex 3.36 -24.4284 0.02
    endloop
  endfacet
  facet normal 0 0 -1
    outer loop
      vertex -1.06264e-07 -26.3798 0.02
      vertex 0 -26.3682 0.02
      vertex 3.36 -24.4399 0.02
    endloop
  endfacet
  facet normal 0 0 -1
    outer loop
      vertex -1.06264e-07 -26.3798 0.02
      vertex -0.125986 -26.2955 0.02
      vertex 0 -26.3682 0.02
    endloop
  endfacet
  facet normal 0 0 -1
    outer loop
      vertex -3.36 -24.4399 0.02
      vertex -0.125986 -26.2955 0.02
      vertex -1.06264e-07 -26.3798 0.02
    endloop
  endfacet
  facet normal 0 0 -1
    outer loop
      vertex -0.125986 -26.2955 0.02
      vertex -3.36 -24.4399 0.02
      vertex -3.36 -24.4284 0.02
    endloop
  endfacet
  facet normal 0.499265 -0.864752 -0.0542055
    outer loop
      vertex 3.36 -24.4399 1.22
      vertex 4.7499 -25.2439 26.8482
      vertex -1.06264e-07 -26.3798 1.22
    endloop
  endfacet
  facet normal 0.520399 -0.852153 -0.0549564
    outer loop
      vertex 4.7499 -25.2439 26.8482
      vertex 3.36 -24.4399 1.22
      vertex 4.75121 -25.2431 26.8482
    endloop
  endfacet
  facet normal -0.520399 0.852153 -0.0549571
    outer loop
      vertex -4.7499 -19.7561 26.8482
      vertex -4.08282 -20.1428 14.5354
      vertex -4.75121 -19.7569 26.8482
    endloop
  endfacet
  facet normal -0.499278 0.864744 -0.0542082
    outer loop
      vertex 1.06264e-07 -18.6202 1.22
      vertex -4.08282 -20.1428 14.5354
      vertex -4.7499 -19.7561 26.8482
    endloop
  endfacet
  facet normal -0.499275 0.864746 -0.0542068
    outer loop
      vertex -4.08282 -20.1428 14.5354
      vertex 1.06264e-07 -18.6202 1.22
      vertex -1.79617 -19.5231 3.36
    endloop
  endfacet
  facet normal -0.498887 0.864997 -0.0537755
    outer loop
      vertex -1.79617 -19.5231 3.36
      vertex 1.06264e-07 -18.6202 1.22
      vertex -1.6102 -19.4367 3.02449
    endloop
  endfacet
  facet normal -0.499282 0.86474 -0.0542443
    outer loop
      vertex -1.6102 -19.4367 3.02449
      vertex 1.06264e-07 -18.6202 1.22
      vertex -0.609999 -18.9724 1.22
    endloop
  endfacet
  facet normal -0.499246 0.864763 -0.0542001
    outer loop
      vertex -4.08282 -20.1428 14.5354
      vertex -1.79617 -19.5231 3.36
      vertex -3.47617 -20.493 3.36
    endloop
  endfacet
  facet normal -0.99853 0 -0.0542045
    outer loop
      vertex -3.36 -24.4399 1.22
      vertex -4.75121 -25.2431 26.8482
      vertex -4.75121 -19.7584 26.8482
    endloop
  endfacet
  facet normal -0.499257 0.864757 -0.0542038
    outer loop
      vertex -2.06719e-07 -17.0138 26.8482
      vertex 1.06264e-07 -18.6202 1.22
      vertex -4.7499 -19.7561 26.8482
    endloop
  endfacet
  facet normal 0.499257 -0.864757 -0.0542038
    outer loop
      vertex 4.7499 -25.2439 26.8482
      vertex 2.06719e-07 -27.9862 26.8482
      vertex -1.06264e-07 -26.3798 1.22
    endloop
  endfacet
  facet normal 0.998528 3.63868e-05 -0.0542393
    outer loop
      vertex 3.36 -24.4399 1.22
      vertex 3.44863 -22.7417 2.85279
      vertex 3.47617 -22.4329 3.36
    endloop
  endfacet
  facet normal 0.99853 0 -0.0542015
    outer loop
      vertex 3.44863 -22.7417 2.85279
      vertex 3.36 -24.4399 1.22
      vertex 3.36 -23.7355 1.22
    endloop
  endfacet
  facet normal 0.99853 0 -0.0542045
    outer loop
      vertex 4.75121 -25.2416 26.8482
      vertex 3.47617 -22.4329 3.36
      vertex 3.47617 -20.951 3.36
    endloop
  endfacet
  facet normal 0.99853 0 -0.0542045
    outer loop
      vertex 4.75121 -25.2431 26.8482
      vertex 3.47617 -22.4329 3.36
      vertex 4.75121 -25.2416 26.8482
    endloop
  endfacet
  facet normal 0.99853 -7.25003e-07 -0.0542046
    outer loop
      vertex 3.47617 -22.4329 3.36
      vertex 4.75121 -25.2431 26.8482
      vertex 3.36 -24.4399 1.22
    endloop
  endfacet
  facet normal 0.99853 0 -0.0542045
    outer loop
      vertex 4.75121 -19.7569 26.8482
      vertex 3.47617 -20.951 3.36
      vertex 3.47617 -20.493 3.36
    endloop
  endfacet
  facet normal 0.99853 0 -0.0542045
    outer loop
      vertex 3.47617 -20.951 3.36
      vertex 4.75121 -19.7569 26.8482
      vertex 4.75121 -25.2416 26.8482
    endloop
  endfacet
  facet normal -0.99853 -0 -0.0542104
    outer loop
      vertex -3.47617 -21.8009 3.36
      vertex -3.47617 -22.4329 3.36
      vertex -3.50985 -21.8592 3.98037
    endloop
  endfacet
  facet normal -0.99853 1.55395e-06 -0.0542044
    outer loop
      vertex -4.11821 -21.508 15.1873
      vertex -4.75121 -19.7569 26.8482
      vertex -4.08282 -20.1428 14.5354
    endloop
  endfacet
  facet normal -0.99853 -0 -0.0542042
    outer loop
      vertex -4.75121 -19.7569 26.8482
      vertex -4.11821 -21.508 15.1873
      vertex -4.75121 -19.7584 26.8482
    endloop
  endfacet
  facet normal -0.99853 -6.60847e-06 -0.0542043
    outer loop
      vertex -3.47617 -22.4329 3.36
      vertex -4.11821 -21.508 15.1873
      vertex -3.50985 -21.8592 3.98037
    endloop
  endfacet
  facet normal -0.99853 0 -0.0542052
    outer loop
      vertex -3.36 -24.4399 1.22
      vertex -3.47617 -22.4329 3.36
      vertex -3.36 -23.7355 1.22
    endloop
  endfacet
  facet normal -0.99853 -5.43411e-07 -0.0542047
    outer loop
      vertex -3.47617 -22.4329 3.36
      vertex -3.36 -24.4399 1.22
      vertex -4.11821 -21.508 15.1873
    endloop
  endfacet
  facet normal -0.99853 -1.1273e-05 -0.0542025
    outer loop
      vertex -4.11821 -21.508 15.1873
      vertex -3.36 -24.4399 1.22
      vertex -4.75121 -19.7584 26.8482
    endloop
  endfacet
  facet normal -0.499263 -0.864753 -0.054204
    outer loop
      vertex -3.36 -24.4399 1.22
      vertex 2.06719e-07 -27.9862 26.8482
      vertex -4.75121 -25.2431 26.8482
    endloop
  endfacet
  facet normal -0.499266 -0.864752 -0.0542035
    outer loop
      vertex 2.06719e-07 -27.9862 26.8482
      vertex -3.36 -24.4399 1.22
      vertex -1.06264e-07 -26.3798 1.22
    endloop
  endfacet
  facet normal 0.499263 0.864753 -0.0542007
    outer loop
      vertex 4.75121 -19.7569 26.8482
      vertex 2.91821 -19.4295 15.1873
      vertex -2.06719e-07 -17.0138 26.8482
    endloop
  endfacet
  facet normal 0.499292 0.864737 -0.0542057
    outer loop
      vertex 4.75121 -19.7569 26.8482
      vertex 4.08282 -20.1428 14.5354
      vertex 2.91821 -19.4295 15.1873
    endloop
  endfacet
  facet normal -0.997013 -0.0534082 0.0557959
    outer loop
      vertex 3.47617 -20.493 3.36
      vertex 4.08282 -20.1428 14.5354
      vertex 4.75121 -19.7569 26.8482
    endloop
  endfacet
  facet normal 0.499295 0.864734 -0.0542109
    outer loop
      vertex 1.79617 -19.5231 3.36
      vertex 2.91821 -19.4295 15.1873
      vertex 2.30984 -19.7808 3.98037
    endloop
  endfacet
  facet normal 0.499251 0.864763 -0.0541627
    outer loop
      vertex 1.79617 -19.5231 3.36
      vertex 2.30984 -19.7808 3.98037
      vertex 2.34352 -19.8391 3.36
    endloop
  endfacet
  facet normal 0.499277 0.864745 -0.0542092
    outer loop
      vertex 1.06264e-07 -18.6202 1.22
      vertex 2.91821 -19.4295 15.1873
      vertex 1.79617 -19.5231 3.36
    endloop
  endfacet
  facet normal 0.499283 0.864741 -0.0542157
    outer loop
      vertex 1.06264e-07 -18.6202 1.22
      vertex 1.79617 -19.5231 3.36
      vertex 0.609999 -18.9724 1.22
    endloop
  endfacet
  facet normal 0.499255 0.864758 -0.0542039
    outer loop
      vertex 2.91821 -19.4295 15.1873
      vertex 1.06264e-07 -18.6202 1.22
      vertex -2.06719e-07 -17.0138 26.8482
    endloop
  endfacet
  facet normal 0.50001 0.86602 -0
    outer loop
      vertex 4.75176 -19.7566 26.8482
      vertex -2.06841e-07 -17.0131 40.2882
      vertex 4.75176 -19.7566 40.2882
    endloop
  endfacet
  facet normal 0.50001 0.86602 0
    outer loop
      vertex -2.06841e-07 -17.0131 40.2882
      vertex 4.75176 -19.7566 26.8482
      vertex -2.06841e-07 -17.0131 26.8482
    endloop
  endfacet
  facet normal 1 -0 0
    outer loop
      vertex 4.75176 -25.2434 40.2882
      vertex 4.75176 -19.7566 26.8482
      vertex 4.75176 -19.7566 40.2882
    endloop
  endfacet
  facet normal 1 0 0
    outer loop
      vertex 4.75176 -19.7566 26.8482
      vertex 4.75176 -25.2434 40.2882
      vertex 4.75176 -25.2434 26.8482
    endloop
  endfacet
  facet normal -0.50001 -0.86602 0
    outer loop
      vertex -4.75176 -25.2434 26.8482
      vertex 2.06841e-07 -27.9869 40.2882
      vertex -4.75176 -25.2434 40.2882
    endloop
  endfacet
  facet normal -0.50001 -0.86602 -0
    outer loop
      vertex 2.06841e-07 -27.9869 40.2882
      vertex -4.75176 -25.2434 26.8482
      vertex 2.06841e-07 -27.9869 26.8482
    endloop
  endfacet
  facet normal 0.50001 -0.86602 0
    outer loop
      vertex 2.06841e-07 -27.9869 26.8482
      vertex 4.75176 -25.2434 40.2882
      vertex 2.06841e-07 -27.9869 40.2882
    endloop
  endfacet
  facet normal 0.50001 -0.86602 0
    outer loop
      vertex 4.75176 -25.2434 40.2882
      vertex 2.06841e-07 -27.9869 26.8482
      vertex 4.75176 -25.2434 26.8482
    endloop
  endfacet
  facet normal -1 0 0
    outer loop
      vertex -4.75176 -25.2434 26.8482
      vertex -4.75176 -19.7566 40.2882
      vertex -4.75176 -19.7566 26.8482
    endloop
  endfacet
  facet normal -1 -0 0
    outer loop
      vertex -4.75176 -19.7566 40.2882
      vertex -4.75176 -25.2434 26.8482
      vertex -4.75176 -25.2434 40.2882
    endloop
  endfacet
  facet normal -0.50001 0.86602 0
    outer loop
      vertex -2.06841e-07 -17.0131 26.8482
      vertex -4.75176 -19.7566 40.2882
      vertex -2.06841e-07 -17.0131 40.2882
    endloop
  endfacet
  facet normal -0.50001 0.86602 0
    outer loop
      vertex -4.75176 -19.7566 40.2882
      vertex -2.06841e-07 -17.0131 26.8482
      vertex -4.75176 -19.7566 26.8482
    endloop
  endfacet
  facet normal 0 0 1
    outer loop
      vertex 4.75176 -19.7566 40.2882
      vertex 1.06264e-07 -18.6202 40.2882
      vertex 3.36 -20.5601 40.2882
    endloop
  endfacet
  facet normal 0 0 1
    outer loop
      vertex -2.06841e-07 -17.0131 40.2882
      vertex 1.06264e-07 -18.6202 40.2882
      vertex 4.75176 -19.7566 40.2882
    endloop
  endfacet
  facet normal 0 0 1
    outer loop
      vertex -2.06841e-07 -17.0131 40.2882
      vertex -3.36 -20.5601 40.2882
      vertex 1.06264e-07 -18.6202 40.2882
    endloop
  endfacet
  facet normal 0 0 1
    outer loop
      vertex -3.36 -20.5601 40.2882
      vertex -4.75176 -25.2434 40.2882
      vertex -3.36 -24.4399 40.2882
    endloop
  endfacet
  facet normal 0 0 1
    outer loop
      vertex -3.36 -20.5601 40.2882
      vertex -4.75176 -19.7566 40.2882
      vertex -4.75176 -25.2434 40.2882
    endloop
  endfacet
  facet normal -0 0 1
    outer loop
      vertex -4.75176 -19.7566 40.2882
      vertex -3.36 -20.5601 40.2882
      vertex -2.06841e-07 -17.0131 40.2882
    endloop
  endfacet
  facet normal -0 0 1
    outer loop
      vertex 3.36 -20.5601 40.2882
      vertex 4.75176 -25.2434 40.2882
      vertex 4.75176 -19.7566 40.2882
    endloop
  endfacet
  facet normal -0 0 1
    outer loop
      vertex 3.36 -24.4399 40.2882
      vertex 4.75176 -25.2434 40.2882
      vertex 3.36 -20.5601 40.2882
    endloop
  endfacet
  facet normal 0 0 1
    outer loop
      vertex 3.36 -24.4399 40.2882
      vertex 2.06841e-07 -27.9869 40.2882
      vertex 4.75176 -25.2434 40.2882
    endloop
  endfacet
  facet normal -0 0 1
    outer loop
      vertex -1.06264e-07 -26.3798 40.2882
      vertex 2.06841e-07 -27.9869 40.2882
      vertex 3.36 -24.4399 40.2882
    endloop
  endfacet
  facet normal 0 0 1
    outer loop
      vertex -3.36 -24.4399 40.2882
      vertex 2.06841e-07 -27.9869 40.2882
      vertex -1.06264e-07 -26.3798 40.2882
    endloop
  endfacet
  facet normal 0 0 1
    outer loop
      vertex 2.06841e-07 -27.9869 40.2882
      vertex -3.36 -24.4399 40.2882
      vertex -4.75176 -25.2434 40.2882
    endloop
  endfacet
  facet normal 0 0 -1
    outer loop
      vertex 4.75121 -25.2416 26.8482
      vertex 4.75176 -25.2434 26.8482
      vertex 4.75121 -25.2431 26.8482
    endloop
  endfacet
  facet normal -0 0 -1
    outer loop
      vertex 4.75176 -25.2434 26.8482
      vertex 4.7499 -25.2439 26.8482
      vertex 4.75121 -25.2431 26.8482
    endloop
  endfacet
  facet normal 0 0 -1
    outer loop
      vertex 2.06841e-07 -27.9869 26.8482
      vertex 4.7499 -25.2439 26.8482
      vertex 4.75176 -25.2434 26.8482
    endloop
  endfacet
  facet normal 0 0 -1
    outer loop
      vertex 2.06841e-07 -27.9869 26.8482
      vertex 2.06719e-07 -27.9862 26.8482
      vertex 4.7499 -25.2439 26.8482
    endloop
  endfacet
  facet normal 0 0 -1
    outer loop
      vertex 2.06841e-07 -27.9869 26.8482
      vertex -4.75121 -25.2431 26.8482
      vertex 2.06719e-07 -27.9862 26.8482
    endloop
  endfacet
  facet normal 0 0 -1
    outer loop
      vertex -4.75176 -25.2434 26.8482
      vertex -4.75121 -19.7584 26.8482
      vertex -4.75121 -25.2431 26.8482
    endloop
  endfacet
  facet normal 0 0 -1
    outer loop
      vertex -4.75176 -19.7566 26.8482
      vertex -4.75121 -19.7584 26.8482
      vertex -4.75176 -25.2434 26.8482
    endloop
  endfacet
  facet normal 0 0 -1
    outer loop
      vertex -4.75176 -25.2434 26.8482
      vertex -4.75121 -25.2431 26.8482
      vertex 2.06841e-07 -27.9869 26.8482
    endloop
  endfacet
  facet normal 0 0 -1
    outer loop
      vertex 4.75176 -25.2434 26.8482
      vertex 4.75121 -25.2416 26.8482
      vertex 4.75176 -19.7566 26.8482
    endloop
  endfacet
  facet normal 0 0 -1
    outer loop
      vertex 4.75121 -19.7569 26.8482
      vertex 4.75176 -19.7566 26.8482
      vertex 4.75121 -25.2416 26.8482
    endloop
  endfacet
  facet normal 0 0 -1
    outer loop
      vertex -2.06719e-07 -17.0138 26.8482
      vertex 4.75176 -19.7566 26.8482
      vertex 4.75121 -19.7569 26.8482
    endloop
  endfacet
  facet normal 0 0 -1
    outer loop
      vertex -2.06719e-07 -17.0138 26.8482
      vertex -2.06841e-07 -17.0131 26.8482
      vertex 4.75176 -19.7566 26.8482
    endloop
  endfacet
  facet normal 0 0 -1
    outer loop
      vertex -4.7499 -19.7561 26.8482
      vertex -2.06841e-07 -17.0131 26.8482
      vertex -2.06719e-07 -17.0138 26.8482
    endloop
  endfacet
  facet normal -0 0 -1
    outer loop
      vertex -4.7499 -19.7561 26.8482
      vertex -4.75176 -19.7566 26.8482
      vertex -2.06841e-07 -17.0131 26.8482
    endloop
  endfacet
  facet normal 0 0 -1
    outer loop
      vertex -4.75121 -19.7569 26.8482
      vertex -4.75176 -19.7566 26.8482
      vertex -4.7499 -19.7561 26.8482
    endloop
  endfacet
  facet normal 0 0 -1
    outer loop
      vertex -4.75121 -19.7584 26.8482
      vertex -4.75176 -19.7566 26.8482
      vertex -4.75121 -19.7569 26.8482
    endloop
  endfacet
  facet normal 0.499997 -0.866027 -3.61345e-06
    outer loop
      vertex 13.761 -14.5551 3.36
      vertex 4.08282 -20.1428 14.5354
      vertex 3.47617 -20.493 3.36
    endloop
  endfacet
  facet normal -0.499999 0.866026 -4.51022e-06
    outer loop
      vertex 13.161 -13.5159 3.36
      vertex 2.30984 -19.7808 3.98037
      vertex 2.91821 -19.4295 15.1873
    endloop
  endfacet
  facet normal -0.499999 0.866026 0
    outer loop
      vertex 2.30984 -19.7808 3.98037
      vertex 13.161 -13.5159 3.36
      vertex 2.30984 -19.7808 3.36
    endloop
  endfacet
  facet normal 0.612368 0.353561 0.707107
    outer loop
      vertex 13.161 -13.5159 3.36
      vertex 4.08282 -20.1428 14.5354
      vertex 13.761 -14.5551 3.36
    endloop
  endfacet
  facet normal 0.612363 0.353569 0.707107
    outer loop
      vertex 4.08282 -20.1428 14.5354
      vertex 13.161 -13.5159 3.36
      vertex 2.91821 -19.4295 15.1873
    endloop
  endfacet
  facet normal -0.865894 -0.500228 0
    outer loop
      vertex 2.34352 -19.8391 3.36
      vertex 2.30984 -19.7808 3.98037
      vertex 2.30984 -19.7808 3.36
    endloop
  endfacet
  facet normal 0.499997 0.866027 3.61345e-06
    outer loop
      vertex -4.08282 -20.1428 14.5354
      vertex -3.47617 -20.493 3.36
      vertex -13.761 -14.5551 3.36
    endloop
  endfacet
  facet normal -0.612368 0.353561 0.707107
    outer loop
      vertex -14.361 -15.5943 3.36
      vertex -4.08282 -20.1428 14.5354
      vertex -13.761 -14.5551 3.36
    endloop
  endfacet
  facet normal -0.612385 0.353528 0.707109
    outer loop
      vertex -4.08282 -20.1428 14.5354
      vertex -14.361 -15.5943 3.36
      vertex -4.11821 -21.508 15.1873
    endloop
  endfacet
  facet normal -0.499999 -0.866026 -2.77363e-06
    outer loop
      vertex -14.361 -15.5943 3.36
      vertex -3.50985 -21.8592 3.98037
      vertex -4.11821 -21.508 15.1873
    endloop
  endfacet
  facet normal -0.499999 -0.866026 -0
    outer loop
      vertex -3.50985 -21.8592 3.98037
      vertex -14.361 -15.5943 3.36
      vertex -3.50985 -21.8592 3.36
    endloop
  endfacet
  facet normal 0.865894 -0.500228 0
    outer loop
      vertex -3.47617 -21.8009 3.36
      vertex -3.50985 -21.8592 3.98037
      vertex -3.50985 -21.8592 3.36
    endloop
  endfacet
  facet normal 0.991565 0 0.129614
    outer loop
      vertex -3.36 -20.5601 26.8582
      vertex -0.288393 -22.6573 3.36
      vertex -0.288393 -22.3335 3.36
    endloop
  endfacet
  facet normal 0.991565 0 0.129614
    outer loop
      vertex -0.288393 -22.6573 3.36
      vertex -3.36 -20.5601 26.8582
      vertex -3.36 -24.4399 26.8582
    endloop
  endfacet
  facet normal -0.991565 0 0.129614
    outer loop
      vertex 3.36 -20.5601 26.8582
      vertex 0.288393 -22.3335 3.36
      vertex 0.288393 -22.3427 3.36
    endloop
  endfacet
  facet normal -0.495783 0.85872 0.129614
    outer loop
      vertex 0.288393 -22.6665 3.36
      vertex -1.06264e-07 -26.3798 26.8582
      vertex 3.36 -24.4399 26.8582
    endloop
  endfacet
  facet normal -0.495733 0.858748 0.129619
    outer loop
      vertex -1.06264e-07 -26.3798 26.8582
      vertex 0.288393 -22.6665 3.36
      vertex 0.00793681 -22.8284 3.36
    endloop
  endfacet
  facet normal -0.49721 0.857912 0.129493
    outer loop
      vertex 0.00793681 -22.8284 3.36
      vertex -2.66575e-07 -22.833 3.36
      vertex -1.06264e-07 -26.3798 26.8582
    endloop
  endfacet
  facet normal -0.495774 -0.858725 0.129615
    outer loop
      vertex 0.288393 -22.3335 3.36
      vertex 1.06264e-07 -18.6202 26.8582
      vertex 2.66575e-07 -22.167 3.36
    endloop
  endfacet
  facet normal -0.495783 -0.85872 0.129614
    outer loop
      vertex 1.06264e-07 -18.6202 26.8582
      vertex 0.288393 -22.3335 3.36
      vertex 3.36 -20.5601 26.8582
    endloop
  endfacet
  facet normal -0.991565 0 0.129614
    outer loop
      vertex 0.288393 -22.6665 3.36
      vertex 3.36 -20.5601 26.8582
      vertex 0.288393 -22.3427 3.36
    endloop
  endfacet
  facet normal -0.991565 0 0.129614
    outer loop
      vertex 3.36 -20.5601 26.8582
      vertex 0.288393 -22.6665 3.36
      vertex 3.36 -24.4399 26.8582
    endloop
  endfacet
  facet normal 0.49721 -0.857912 0.129493
    outer loop
      vertex 1.06264e-07 -18.6202 26.8582
      vertex -0.00793681 -22.1716 3.36
      vertex 2.66575e-07 -22.167 3.36
    endloop
  endfacet
  facet normal 0.495783 -0.85872 0.129614
    outer loop
      vertex -0.288393 -22.3335 3.36
      vertex 1.06264e-07 -18.6202 26.8582
      vertex -3.36 -20.5601 26.8582
    endloop
  endfacet
  facet normal 0.495733 -0.858748 0.129619
    outer loop
      vertex 1.06264e-07 -18.6202 26.8582
      vertex -0.288393 -22.3335 3.36
      vertex -0.00793681 -22.1716 3.36
    endloop
  endfacet
  facet normal 0.991565 0 0.129614
    outer loop
      vertex -0.288393 -22.6573 3.36
      vertex -3.36 -24.4399 26.8582
      vertex -0.288393 -22.6665 3.36
    endloop
  endfacet
  facet normal 0.495774 0.858725 0.129615
    outer loop
      vertex -0.288393 -22.6665 3.36
      vertex -1.06264e-07 -26.3798 26.8582
      vertex -2.66575e-07 -22.833 3.36
    endloop
  endfacet
  facet normal 0.495783 0.85872 0.129614
    outer loop
      vertex -1.06264e-07 -26.3798 26.8582
      vertex -0.288393 -22.6665 3.36
      vertex -3.36 -24.4399 26.8582
    endloop
  endfacet
  facet normal -0.500001 -0.866025 0
    outer loop
      vertex 1.06264e-07 -18.6202 26.8582
      vertex 3.36 -20.5601 40.2882
      vertex 1.06264e-07 -18.6202 40.2882
    endloop
  endfacet
  facet normal -0.500001 -0.866025 -0
    outer loop
      vertex 3.36 -20.5601 40.2882
      vertex 1.06264e-07 -18.6202 26.8582
      vertex 3.36 -20.5601 26.8582
    endloop
  endfacet
  facet normal -1 0 0
    outer loop
      vertex 3.36 -24.4399 26.8582
      vertex 3.36 -20.5601 40.2882
      vertex 3.36 -20.5601 26.8582
    endloop
  endfacet
  facet normal -1 -0 0
    outer loop
      vertex 3.36 -20.5601 40.2882
      vertex 3.36 -24.4399 26.8582
      vertex 3.36 -24.4399 40.2882
    endloop
  endfacet
  facet normal 0.500001 0.866025 -0
    outer loop
      vertex -1.06264e-07 -26.3798 26.8582
      vertex -3.36 -24.4399 40.2882
      vertex -1.06264e-07 -26.3798 40.2882
    endloop
  endfacet
  facet normal 0.500001 0.866025 0
    outer loop
      vertex -3.36 -24.4399 40.2882
      vertex -1.06264e-07 -26.3798 26.8582
      vertex -3.36 -24.4399 26.8582
    endloop
  endfacet
  facet normal -0.500001 0.866025 0
    outer loop
      vertex 3.36 -24.4399 26.8582
      vertex -1.06264e-07 -26.3798 40.2882
      vertex 3.36 -24.4399 40.2882
    endloop
  endfacet
  facet normal -0.500001 0.866025 0
    outer loop
      vertex -1.06264e-07 -26.3798 40.2882
      vertex 3.36 -24.4399 26.8582
      vertex -1.06264e-07 -26.3798 26.8582
    endloop
  endfacet
  facet normal 1 -0 0
    outer loop
      vertex -3.36 -24.4399 40.2882
      vertex -3.36 -20.5601 26.8582
      vertex -3.36 -20.5601 40.2882
    endloop
  endfacet
  facet normal 1 0 0
    outer loop
      vertex -3.36 -20.5601 26.8582
      vertex -3.36 -24.4399 40.2882
      vertex -3.36 -24.4399 26.8582
    endloop
  endfacet
  facet normal 0.500001 -0.866025 0
    outer loop
      vertex -3.36 -20.5601 26.8582
      vertex 1.06264e-07 -18.6202 40.2882
      vertex -3.36 -20.5601 40.2882
    endloop
  endfacet
  facet normal 0.500001 -0.866025 0
    outer loop
      vertex 1.06264e-07 -18.6202 40.2882
      vertex -3.36 -20.5601 26.8582
      vertex 1.06264e-07 -18.6202 26.8582
    endloop
  endfacet
  facet normal 0 0 1
    outer loop
      vertex 10.3664 13.328 1.2
      vertex 16.7256 -9.65651 1.2
      vertex 16.7256 9.65651 1.2
    endloop
  endfacet
  facet normal 0 0 1
    outer loop
      vertex 10.3664 13.328 1.2
      vertex 6.35913 -15.6416 1.2
      vertex 16.7256 -9.65651 1.2
    endloop
  endfacet
  facet normal -0 0 1
    outer loop
      vertex 1.06264e-07 18.6202 1.2
      vertex 10.3664 13.328 1.2
      vertex 0.599999 18.9666 1.2
    endloop
  endfacet
  facet normal -0 0 1
    outer loop
      vertex -6.35913 15.6416 1.2
      vertex 10.3664 13.328 1.2
      vertex 1.06264e-07 18.6202 1.2
    endloop
  endfacet
  facet normal 0 0 1
    outer loop
      vertex 10.3664 13.328 1.2
      vertex -6.35913 15.6416 1.2
      vertex 6.35913 -15.6416 1.2
    endloop
  endfacet
  facet normal 0 0 1
    outer loop
      vertex 6.35913 -15.6416 1.2
      vertex 1.06264e-07 -18.6202 1.2
      vertex 0.599999 -18.9666 1.2
    endloop
  endfacet
  facet normal 0 0 1
    outer loop
      vertex -6.35913 15.6416 1.2
      vertex 1.06264e-07 18.6202 1.2
      vertex -0.599999 18.9666 1.2
    endloop
  endfacet
  facet normal -0 0 1
    outer loop
      vertex -10.3664 -13.328 1.2
      vertex 6.35913 -15.6416 1.2
      vertex -6.35913 15.6416 1.2
    endloop
  endfacet
  facet normal 0 0 1
    outer loop
      vertex 6.35913 -15.6416 1.2
      vertex -10.3664 -13.328 1.2
      vertex 1.06264e-07 -18.6202 1.2
    endloop
  endfacet
  facet normal 0 0 1
    outer loop
      vertex 1.06264e-07 -18.6202 1.2
      vertex -10.3664 -13.328 1.2
      vertex -0.599999 -18.9666 1.2
    endloop
  endfacet
  facet normal -0 0 1
    outer loop
      vertex -16.7256 9.65651 1.2
      vertex -10.3664 -13.328 1.2
      vertex -6.35913 15.6416 1.2
    endloop
  endfacet
  facet normal 0 0 1
    outer loop
      vertex -10.3664 -13.328 1.2
      vertex -16.7256 9.65651 1.2
      vertex -16.7256 -9.65651 1.2
    endloop
  endfacet
  facet normal 0 0 -1
    outer loop
      vertex 0 -18.6202 0
      vertex 16.1256 9.3101 0
      vertex 16.1256 -9.3101 0
    endloop
  endfacet
  facet normal 0 0 -1
    outer loop
      vertex 0 -18.6202 0
      vertex 0 18.6202 0
      vertex 16.1256 9.3101 0
    endloop
  endfacet
  facet normal 0 0 -1
    outer loop
      vertex -16.1256 -9.3101 0
      vertex 0 18.6202 0
      vertex 0 -18.6202 0
    endloop
  endfacet
  facet normal 0 0 -1
    outer loop
      vertex 0 18.6202 0
      vertex -16.1256 -9.3101 0
      vertex -16.1256 9.3101 0
    endloop
  endfacet
endsolid OpenSCAD_Model
