solid OpenSCAD_Model
  facet normal -0.894427 0 0.447214
    outer loop
      vertex -23.0056 13.2823 0
      vertex -21.2456 -12.2661 3.52
      vertex -21.2456 12.2661 3.52
    endloop
  endfacet
  facet normal -0.894427 0 0.447214
    outer loop
      vertex -21.2456 -12.2661 3.52
      vertex -23.0056 13.2823 0
      vertex -23.0056 -13.2823 0
    endloop
  endfacet
  facet normal 0.894427 0 0.447214
    outer loop
      vertex -17.7256 10.2339 3.52
      vertex -16.5656 -9.56414 1.2
      vertex -16.5656 9.56414 1.2
    endloop
  endfacet
  facet normal 0.894427 0 0.447214
    outer loop
      vertex -16.5656 -9.56414 1.2
      vertex -17.7256 10.2339 3.52
      vertex -17.7256 -10.2339 3.52
    endloop
  endfacet
  facet normal 0.894414 0 -0.447239
    outer loop
      vertex -15.9656 -9.21773 0
      vertex -15.9706 9.22061 -0.00999928
      vertex -15.9656 9.21773 0
    endloop
  endfacet
  facet normal 0.894414 0 -0.447239
    outer loop
      vertex -15.9706 9.22061 -0.00999928
      vertex -15.9656 -9.21773 0
      vertex -15.9706 -9.22061 -0.00999928
    endloop
  endfacet
  facet normal -0.894414 0 -0.447239
    outer loop
      vertex -23.0006 -13.2794 -0.00999928
      vertex -23.0056 13.2823 0
      vertex -23.0006 13.2794 -0.00999928
    endloop
  endfacet
  facet normal -0.894414 -0 -0.447239
    outer loop
      vertex -23.0056 13.2823 0
      vertex -23.0006 -13.2794 -0.00999928
      vertex -23.0056 -13.2823 0
    endloop
  endfacet
  facet normal -0.447202 0.774577 0.44726
    outer loop
      vertex -3.61483 22.7646 2.96691
      vertex -21.2456 12.2661 3.52
      vertex -3.64485 22.4279 3.52
    endloop
  endfacet
  facet normal -0.447212 0.774591 0.447225
    outer loop
      vertex -21.2456 12.2661 3.52
      vertex -3.61483 22.7646 2.96691
      vertex -23.0056 13.2823 0
    endloop
  endfacet
  facet normal -0.447582 0.775225 0.445754
    outer loop
      vertex 0 26.553 0.02
      vertex 0 26.5645 0
      vertex -3.52 24.5207 0.02
    endloop
  endfacet
  facet normal -0.447214 0.774602 0.447204
    outer loop
      vertex -23.0056 13.2823 0
      vertex -3.52 23.8279 1.22
      vertex -3.52 24.5207 0.02
    endloop
  endfacet
  facet normal -0.447214 0.774602 0.447204
    outer loop
      vertex -3.52 23.8279 1.22
      vertex -23.0056 13.2823 0
      vertex -3.61483 22.7646 2.96691
    endloop
  endfacet
  facet normal -0.44726 0.774682 0.44702
    outer loop
      vertex -23.0056 13.2823 0
      vertex -3.52 24.5207 0.02
      vertex 0 26.5645 0
    endloop
  endfacet
  facet normal 0.447213 -0.774592 0.447223
    outer loop
      vertex -16.5656 9.56414 1.2
      vertex -6.04281 15.6395 1.2
      vertex -17.7256 10.2339 3.52
    endloop
  endfacet
  facet normal 0.447214 -0.774602 0.447205
    outer loop
      vertex -6.04281 15.6395 1.2
      vertex -1.88485 19.3795 3.52
      vertex -17.7256 10.2339 3.52
    endloop
  endfacet
  facet normal 0.447204 -0.774599 0.447219
    outer loop
      vertex -1.88485 19.3795 3.52
      vertex -6.04281 15.6395 1.2
      vertex -0.609999 18.7876 1.22
    endloop
  endfacet
  facet normal 0.447781 -0.775582 0.444932
    outer loop
      vertex -0.609999 18.7876 1.22
      vertex -6.04281 15.6395 1.2
      vertex -0.599999 18.7819 1.2
    endloop
  endfacet
  facet normal 0.447005 -0.774994 -0.446733
    outer loop
      vertex -15.9202 9.24968 -0.00999928
      vertex -15.9656 9.21773 0
      vertex -15.9706 9.22061 -0.00999928
    endloop
  endfacet
  facet normal 0.447754 -0.775531 -0.445049
    outer loop
      vertex -15.9202 9.24968 -0.00999928
      vertex 0 18.4355 0
      vertex -15.9656 9.21773 0
    endloop
  endfacet
  facet normal 0.448343 -0.776553 -0.442667
    outer loop
      vertex 0 18.4355 0
      vertex -15.9202 9.24968 -0.00999928
      vertex 0 18.4412 -0.00999928
    endloop
  endfacet
  facet normal -0.447479 0.775062 -0.446139
    outer loop
      vertex -0.0603524 26.5239 -0.00999928
      vertex -23.0056 13.2823 0
      vertex 0 26.5645 0
    endloop
  endfacet
  facet normal -0.447 0.774231 -0.448059
    outer loop
      vertex -23.0056 13.2823 0
      vertex -0.0603524 26.5239 -0.00999928
      vertex -23.0006 13.2794 -0.00999928
    endloop
  endfacet
  facet normal -0.448914 0.776304 -0.442525
    outer loop
      vertex 0 26.5645 0
      vertex 0 26.5588 -0.00999928
      vertex -0.0603524 26.5239 -0.00999928
    endloop
  endfacet
  facet normal 0.44761 0.775213 0.445747
    outer loop
      vertex 0.120713 26.4833 0.02
      vertex 0 26.5645 0
      vertex 0 26.553 0.02
    endloop
  endfacet
  facet normal 0.447213 0.774595 0.447217
    outer loop
      vertex 21.2456 12.2661 3.52
      vertex 3.52 23.8279 1.22
      vertex 3.64485 22.4279 3.52
    endloop
  endfacet
  facet normal 0.447198 0.774581 0.447256
    outer loop
      vertex 3.52 23.8279 1.22
      vertex 21.2456 12.2661 3.52
      vertex 3.52 24.1956 0.583199
    endloop
  endfacet
  facet normal 0.447244 0.774621 0.447141
    outer loop
      vertex 21.2456 12.2661 3.52
      vertex 3.52 24.5207 0.02
      vertex 3.52 24.1956 0.583199
    endloop
  endfacet
  facet normal 0.447209 0.774593 0.447224
    outer loop
      vertex 23.0056 13.2823 0
      vertex 3.52 24.5207 0.02
      vertex 21.2456 12.2661 3.52
    endloop
  endfacet
  facet normal 0.44726 0.774682 0.44702
    outer loop
      vertex 0 26.5645 0
      vertex 3.52 24.5207 0.02
      vertex 23.0056 13.2823 0
    endloop
  endfacet
  facet normal 0.447538 0.77515 0.445928
    outer loop
      vertex 3.52 24.5207 0.02
      vertex 0 26.5645 0
      vertex 0.120713 26.4833 0.02
    endloop
  endfacet
  facet normal -0.44778 -0.775583 0.444931
    outer loop
      vertex 10.5228 13.053 1.2
      vertex 0.609999 18.7876 1.22
      vertex 0.599999 18.7819 1.2
    endloop
  endfacet
  facet normal -0.447206 -0.774597 0.44722
    outer loop
      vertex 0.609999 18.7876 1.22
      vertex 10.5228 13.053 1.2
      vertex 1.6796 19.2842 3.14969
    endloop
  endfacet
  facet normal -0.447208 -0.774599 0.447216
    outer loop
      vertex 10.5228 13.053 1.2
      vertex 1.88485 19.3795 3.52
      vertex 1.6796 19.2842 3.14969
    endloop
  endfacet
  facet normal -0.447214 -0.774603 0.447203
    outer loop
      vertex 1.88485 19.3795 3.52
      vertex 10.5228 13.053 1.2
      vertex 17.7256 10.2339 3.52
    endloop
  endfacet
  facet normal -0.447216 -0.77459 0.447224
    outer loop
      vertex 17.7256 10.2339 3.52
      vertex 10.5228 13.053 1.2
      vertex 16.5656 9.56414 1.2
    endloop
  endfacet
  facet normal -0.447463 -0.776936 -0.442885
    outer loop
      vertex 0 18.4412 -0.00999928
      vertex 0.0503531 18.4122 -0.00999928
      vertex 0 18.4355 0
    endloop
  endfacet
  facet normal -0.44724 -0.77464 -0.447112
    outer loop
      vertex 0.0503531 18.4122 -0.00999928
      vertex 15.9656 9.21773 0
      vertex 0 18.4355 0
    endloop
  endfacet
  facet normal -0.447313 -0.774766 -0.446821
    outer loop
      vertex 15.9656 9.21773 0
      vertex 0.0503531 18.4122 -0.00999928
      vertex 15.9706 9.22061 -0.00999928
    endloop
  endfacet
  facet normal 0.445885 0.7723 -0.452481
    outer loop
      vertex 22.9402 13.3142 -0.00999928
      vertex 0 26.5645 0
      vertex 23.0056 13.2823 0
    endloop
  endfacet
  facet normal 0.448345 0.776552 -0.442667
    outer loop
      vertex 0 26.5645 0
      vertex 22.9402 13.3142 -0.00999928
      vertex 0 26.5588 -0.00999928
    endloop
  endfacet
  facet normal 0.446356 0.774709 -0.447876
    outer loop
      vertex 23.0056 13.2823 0
      vertex 23.0006 13.2794 -0.00999928
      vertex 22.9402 13.3142 -0.00999928
    endloop
  endfacet
  facet normal 0.894427 -0 0.447214
    outer loop
      vertex 21.2456 -12.2661 3.52
      vertex 23.0056 13.2823 0
      vertex 21.2456 12.2661 3.52
    endloop
  endfacet
  facet normal 0.894427 0 0.447214
    outer loop
      vertex 23.0056 13.2823 0
      vertex 21.2456 -12.2661 3.52
      vertex 23.0056 -13.2823 0
    endloop
  endfacet
  facet normal -0.894427 0 0.447214
    outer loop
      vertex 16.5656 -9.56414 1.2
      vertex 17.7256 10.2339 3.52
      vertex 16.5656 9.56414 1.2
    endloop
  endfacet
  facet normal -0.894427 0 0.447214
    outer loop
      vertex 17.7256 10.2339 3.52
      vertex 16.5656 -9.56414 1.2
      vertex 17.7256 -10.2339 3.52
    endloop
  endfacet
  facet normal -0.894414 0 -0.447239
    outer loop
      vertex 15.9706 9.22061 -0.00999928
      vertex 15.9656 -9.21773 0
      vertex 15.9656 9.21773 0
    endloop
  endfacet
  facet normal -0.894414 0 -0.447239
    outer loop
      vertex 15.9656 -9.21773 0
      vertex 15.9706 9.22061 -0.00999928
      vertex 15.9706 -9.22061 -0.00999928
    endloop
  endfacet
  facet normal 0.894414 0 -0.447239
    outer loop
      vertex 23.0056 13.2823 0
      vertex 23.0006 -13.2794 -0.00999928
      vertex 23.0006 13.2794 -0.00999928
    endloop
  endfacet
  facet normal 0.894414 0 -0.447239
    outer loop
      vertex 23.0006 -13.2794 -0.00999928
      vertex 23.0056 13.2823 0
      vertex 23.0056 -13.2823 0
    endloop
  endfacet
  facet normal 0.447202 -0.774577 0.44726
    outer loop
      vertex 3.61483 -22.7646 2.96691
      vertex 21.2456 -12.2661 3.52
      vertex 3.64485 -22.4279 3.52
    endloop
  endfacet
  facet normal 0.447212 -0.774591 0.447225
    outer loop
      vertex 21.2456 -12.2661 3.52
      vertex 3.61483 -22.7646 2.96691
      vertex 23.0056 -13.2823 0
    endloop
  endfacet
  facet normal 0.447582 -0.775225 0.445754
    outer loop
      vertex 0 -26.553 0.02
      vertex 0 -26.5645 0
      vertex 3.52 -24.5207 0.02
    endloop
  endfacet
  facet normal 0.447214 -0.774602 0.447204
    outer loop
      vertex 23.0056 -13.2823 0
      vertex 3.52 -23.8279 1.22
      vertex 3.52 -24.5207 0.02
    endloop
  endfacet
  facet normal 0.447214 -0.774602 0.447204
    outer loop
      vertex 3.52 -23.8279 1.22
      vertex 23.0056 -13.2823 0
      vertex 3.61483 -22.7646 2.96691
    endloop
  endfacet
  facet normal 0.44726 -0.774682 0.44702
    outer loop
      vertex 23.0056 -13.2823 0
      vertex 3.52 -24.5207 0.02
      vertex 0 -26.5645 0
    endloop
  endfacet
  facet normal -0.447213 0.774592 0.447223
    outer loop
      vertex 17.7256 -10.2339 3.52
      vertex 16.5656 -9.56414 1.2
      vertex 6.04281 -15.6395 1.2
    endloop
  endfacet
  facet normal -0.447214 0.774602 0.447205
    outer loop
      vertex 6.04281 -15.6395 1.2
      vertex 1.88485 -19.3795 3.52
      vertex 17.7256 -10.2339 3.52
    endloop
  endfacet
  facet normal -0.447204 0.774599 0.447219
    outer loop
      vertex 1.88485 -19.3795 3.52
      vertex 6.04281 -15.6395 1.2
      vertex 0.609999 -18.7876 1.22
    endloop
  endfacet
  facet normal -0.447781 0.775582 0.444932
    outer loop
      vertex 0.609999 -18.7876 1.22
      vertex 6.04281 -15.6395 1.2
      vertex 0.599999 -18.7819 1.2
    endloop
  endfacet
  facet normal -0.447005 0.774994 -0.446733
    outer loop
      vertex 15.9656 -9.21773 0
      vertex 15.9706 -9.22061 -0.00999928
      vertex 15.9202 -9.24968 -0.00999928
    endloop
  endfacet
  facet normal -0.447754 0.775531 -0.445049
    outer loop
      vertex 15.9202 -9.24968 -0.00999928
      vertex 0 -18.4355 0
      vertex 15.9656 -9.21773 0
    endloop
  endfacet
  facet normal -0.448343 0.776553 -0.442667
    outer loop
      vertex 0 -18.4355 0
      vertex 15.9202 -9.24968 -0.00999928
      vertex 0 -18.4412 -0.00999928
    endloop
  endfacet
  facet normal 0.447479 -0.775062 -0.446139
    outer loop
      vertex 0.0603524 -26.5239 -0.00999928
      vertex 23.0056 -13.2823 0
      vertex 0 -26.5645 0
    endloop
  endfacet
  facet normal 0.447 -0.774231 -0.448059
    outer loop
      vertex 23.0056 -13.2823 0
      vertex 0.0603524 -26.5239 -0.00999928
      vertex 23.0006 -13.2794 -0.00999928
    endloop
  endfacet
  facet normal 0.448914 -0.776304 -0.442525
    outer loop
      vertex 0 -26.5588 -0.00999928
      vertex 0.0603524 -26.5239 -0.00999928
      vertex 0 -26.5645 0
    endloop
  endfacet
  facet normal -0.447213 -0.774595 0.447217
    outer loop
      vertex -21.2456 -12.2661 3.52
      vertex -3.52 -23.8279 1.22
      vertex -3.64485 -22.4279 3.52
    endloop
  endfacet
  facet normal -0.447198 -0.774581 0.447256
    outer loop
      vertex -3.52 -23.8279 1.22
      vertex -21.2456 -12.2661 3.52
      vertex -3.52 -24.1956 0.583199
    endloop
  endfacet
  facet normal -0.44761 -0.775213 0.445747
    outer loop
      vertex 0 -26.5645 0
      vertex 0 -26.553 0.02
      vertex -0.120713 -26.4833 0.02
    endloop
  endfacet
  facet normal -0.447244 -0.774621 0.447141
    outer loop
      vertex -21.2456 -12.2661 3.52
      vertex -3.52 -24.5207 0.02
      vertex -3.52 -24.1956 0.583199
    endloop
  endfacet
  facet normal -0.447209 -0.774593 0.447224
    outer loop
      vertex -23.0056 -13.2823 0
      vertex -3.52 -24.5207 0.02
      vertex -21.2456 -12.2661 3.52
    endloop
  endfacet
  facet normal -0.44726 -0.774682 0.44702
    outer loop
      vertex 0 -26.5645 0
      vertex -3.52 -24.5207 0.02
      vertex -23.0056 -13.2823 0
    endloop
  endfacet
  facet normal -0.447538 -0.77515 0.445928
    outer loop
      vertex -3.52 -24.5207 0.02
      vertex 0 -26.5645 0
      vertex -0.120713 -26.4833 0.02
    endloop
  endfacet
  facet normal 0 0 1
    outer loop
      vertex -3.64485 22.4279 3.52
      vertex -3.64841 21.7792 3.52
      vertex -3.64485 21.7731 3.52
    endloop
  endfacet
  facet normal 0 0 1
    outer loop
      vertex -3.64485 22.4279 3.52
      vertex -14.521 15.502 3.52
      vertex -3.64841 21.7792 3.52
    endloop
  endfacet
  facet normal 0 0 1
    outer loop
      vertex -17.7256 10.2339 3.52
      vertex -21.2456 12.2661 3.52
      vertex -17.7256 -10.2339 3.52
    endloop
  endfacet
  facet normal 0 0 1
    outer loop
      vertex -14.521 15.502 3.52
      vertex -21.2456 12.2661 3.52
      vertex -17.7256 10.2339 3.52
    endloop
  endfacet
  facet normal 0 0 1
    outer loop
      vertex -21.2456 12.2661 3.52
      vertex -14.521 15.502 3.52
      vertex -3.64485 22.4279 3.52
    endloop
  endfacet
  facet normal 0 0 1
    outer loop
      vertex -13.921 14.4627 3.52
      vertex -3.21857 20.1495 3.52
      vertex -3.64485 20.3956 3.52
    endloop
  endfacet
  facet normal 0 0 1
    outer loop
      vertex -3.21857 20.1495 3.52
      vertex -13.921 14.4627 3.52
      vertex -1.88485 19.3795 3.52
    endloop
  endfacet
  facet normal -0 0 1
    outer loop
      vertex -13.921 14.4627 3.52
      vertex -17.7256 10.2339 3.52
      vertex -1.88485 19.3795 3.52
    endloop
  endfacet
  facet normal 0 0 1
    outer loop
      vertex -17.7256 10.2339 3.52
      vertex -13.921 14.4627 3.52
      vertex -14.521 15.502 3.52
    endloop
  endfacet
  facet normal 0 0 1
    outer loop
      vertex -13.921 -14.4627 3.52
      vertex -3.21857 -20.1495 3.52
      vertex -1.88485 -19.3795 3.52
    endloop
  endfacet
  facet normal 0 0 1
    outer loop
      vertex -3.21857 -20.1495 3.52
      vertex -13.921 -14.4627 3.52
      vertex -3.64485 -20.3956 3.52
    endloop
  endfacet
  facet normal 0 0 1
    outer loop
      vertex -13.921 -14.4627 3.52
      vertex -17.7256 -10.2339 3.52
      vertex -14.521 -15.502 3.52
    endloop
  endfacet
  facet normal 0 0 1
    outer loop
      vertex -17.7256 -10.2339 3.52
      vertex -13.921 -14.4627 3.52
      vertex -1.88485 -19.3795 3.52
    endloop
  endfacet
  facet normal -0 0 1
    outer loop
      vertex -3.64841 -21.7792 3.52
      vertex -3.64485 -22.4279 3.52
      vertex -3.64485 -21.7731 3.52
    endloop
  endfacet
  facet normal 0 0 1
    outer loop
      vertex -14.521 -15.502 3.52
      vertex -3.64485 -22.4279 3.52
      vertex -3.64841 -21.7792 3.52
    endloop
  endfacet
  facet normal 0 0 1
    outer loop
      vertex -14.521 -15.502 3.52
      vertex -21.2456 -12.2661 3.52
      vertex -3.64485 -22.4279 3.52
    endloop
  endfacet
  facet normal 0 0 1
    outer loop
      vertex -17.7256 -10.2339 3.52
      vertex -21.2456 -12.2661 3.52
      vertex -14.521 -15.502 3.52
    endloop
  endfacet
  facet normal 0 0 1
    outer loop
      vertex -21.2456 -12.2661 3.52
      vertex -17.7256 -10.2339 3.52
      vertex -21.2456 12.2661 3.52
    endloop
  endfacet
  facet normal 0 0 1
    outer loop
      vertex 2.45196 19.7069 3.52
      vertex 1.88485 19.3795 3.52
      vertex 2.44841 19.7008 3.52
    endloop
  endfacet
  facet normal 0 0 1
    outer loop
      vertex 17.7256 -10.2339 3.52
      vertex 13.321 -13.4235 3.52
      vertex 13.921 -14.4627 3.52
    endloop
  endfacet
  facet normal 0 0 1
    outer loop
      vertex 1.88485 -19.3795 3.52
      vertex 13.321 -13.4235 3.52
      vertex 17.7256 -10.2339 3.52
    endloop
  endfacet
  facet normal 0 0 1
    outer loop
      vertex 13.321 -13.4235 3.52
      vertex 1.88485 -19.3795 3.52
      vertex 2.44841 -19.7008 3.52
    endloop
  endfacet
  facet normal 0 0 1
    outer loop
      vertex 21.2456 12.2661 3.52
      vertex 17.7256 10.2339 3.52
      vertex 21.2456 -12.2661 3.52
    endloop
  endfacet
  facet normal 0 0 1
    outer loop
      vertex 21.2456 12.2661 3.52
      vertex 13.921 14.4627 3.52
      vertex 17.7256 10.2339 3.52
    endloop
  endfacet
  facet normal 0 0 1
    outer loop
      vertex 3.64485 22.4279 3.52
      vertex 13.921 14.4627 3.52
      vertex 21.2456 12.2661 3.52
    endloop
  endfacet
  facet normal 0 0 1
    outer loop
      vertex 13.921 14.4627 3.52
      vertex 3.64485 22.4279 3.52
      vertex 3.64485 20.3956 3.52
    endloop
  endfacet
  facet normal -0 0 1
    outer loop
      vertex 17.7256 -10.2339 3.52
      vertex 21.2456 -12.2661 3.52
      vertex 17.7256 10.2339 3.52
    endloop
  endfacet
  facet normal 0 0 1
    outer loop
      vertex 13.921 -14.4627 3.52
      vertex 21.2456 -12.2661 3.52
      vertex 17.7256 -10.2339 3.52
    endloop
  endfacet
  facet normal -0 0 1
    outer loop
      vertex 13.921 -14.4627 3.52
      vertex 3.64485 -22.4279 3.52
      vertex 21.2456 -12.2661 3.52
    endloop
  endfacet
  facet normal 0 0 1
    outer loop
      vertex 3.64485 -22.4279 3.52
      vertex 13.921 -14.4627 3.52
      vertex 3.64485 -20.3956 3.52
    endloop
  endfacet
  facet normal -0 0 1
    outer loop
      vertex 13.321 13.4235 3.52
      vertex 17.7256 10.2339 3.52
      vertex 13.921 14.4627 3.52
    endloop
  endfacet
  facet normal -0 0 1
    outer loop
      vertex 1.88485 19.3795 3.52
      vertex 13.321 13.4235 3.52
      vertex 2.44841 19.7008 3.52
    endloop
  endfacet
  facet normal 0 0 1
    outer loop
      vertex 13.321 13.4235 3.52
      vertex 1.88485 19.3795 3.52
      vertex 17.7256 10.2339 3.52
    endloop
  endfacet
  facet normal 0 0 1
    outer loop
      vertex 2.45196 -19.7069 3.52
      vertex 2.44841 -19.7008 3.52
      vertex 1.88485 -19.3795 3.52
    endloop
  endfacet
  facet normal 0 0 1
    outer loop
      vertex -0.00791806 -22.1474 3.52
      vertex 0.309343 -22.3305 3.52
      vertex 0.309343 -22.3214 3.52
    endloop
  endfacet
  facet normal 0 0 1
    outer loop
      vertex 0.309343 -22.3305 3.52
      vertex 0.00791806 -22.8526 3.52
      vertex 0.309343 -22.6786 3.52
    endloop
  endfacet
  facet normal -0 0 1
    outer loop
      vertex -0.00791806 -22.1474 3.52
      vertex 0.309343 -22.3214 3.52
      vertex 2.81004e-07 -22.1428 3.52
    endloop
  endfacet
  facet normal 0 0 1
    outer loop
      vertex 0.309343 -22.3305 3.52
      vertex -0.00791806 -22.1474 3.52
      vertex 0.00791806 -22.8526 3.52
    endloop
  endfacet
  facet normal -0 0 1
    outer loop
      vertex -0.309343 -22.6695 3.52
      vertex 0.00791806 -22.8526 3.52
      vertex -0.00791806 -22.1474 3.52
    endloop
  endfacet
  facet normal 0 0 1
    outer loop
      vertex 0.00791806 -22.8526 3.52
      vertex -0.309343 -22.6695 3.52
      vertex -2.81004e-07 -22.8572 3.52
    endloop
  endfacet
  facet normal 0 0 1
    outer loop
      vertex -2.81004e-07 -22.8572 3.52
      vertex -0.309343 -22.6695 3.52
      vertex -0.309343 -22.6786 3.52
    endloop
  endfacet
  facet normal 0 0 1
    outer loop
      vertex -0.309343 -22.6695 3.52
      vertex -0.00791806 -22.1474 3.52
      vertex -0.309343 -22.3214 3.52
    endloop
  endfacet
  facet normal 0 0 1
    outer loop
      vertex 0.00791806 22.8526 3.52
      vertex 0.309343 22.3305 3.52
      vertex 0.309343 22.6786 3.52
    endloop
  endfacet
  facet normal 0 0 1
    outer loop
      vertex -0.00791806 22.1474 3.52
      vertex 0.309343 22.3305 3.52
      vertex 0.00791806 22.8526 3.52
    endloop
  endfacet
  facet normal 0 0 1
    outer loop
      vertex 0.309343 22.3305 3.52
      vertex -0.00791806 22.1474 3.52
      vertex 0.309343 22.3214 3.52
    endloop
  endfacet
  facet normal 0 0 1
    outer loop
      vertex -0.309343 22.6695 3.52
      vertex 0.00791806 22.8526 3.52
      vertex -2.81004e-07 22.8572 3.52
    endloop
  endfacet
  facet normal 0 0 1
    outer loop
      vertex 0.309343 22.3214 3.52
      vertex -0.00791806 22.1474 3.52
      vertex 2.81004e-07 22.1428 3.52
    endloop
  endfacet
  facet normal 0 0 1
    outer loop
      vertex -0.309343 22.6695 3.52
      vertex -2.81004e-07 22.8572 3.52
      vertex -0.309343 22.6786 3.52
    endloop
  endfacet
  facet normal 0 0 1
    outer loop
      vertex 0.00791806 22.8526 3.52
      vertex -0.309343 22.6695 3.52
      vertex -0.00791806 22.1474 3.52
    endloop
  endfacet
  facet normal 0 0 1
    outer loop
      vertex -0.00791806 22.1474 3.52
      vertex -0.309343 22.6695 3.52
      vertex -0.309343 22.3214 3.52
    endloop
  endfacet
  facet normal 0.44778 0.775583 0.444931
    outer loop
      vertex -10.5228 -13.053 1.2
      vertex -0.609999 -18.7876 1.22
      vertex -0.599999 -18.7819 1.2
    endloop
  endfacet
  facet normal 0.447206 0.774597 0.44722
    outer loop
      vertex -0.609999 -18.7876 1.22
      vertex -10.5228 -13.053 1.2
      vertex -1.6796 -19.2842 3.14969
    endloop
  endfacet
  facet normal 0.447208 0.774599 0.447216
    outer loop
      vertex -10.5228 -13.053 1.2
      vertex -1.88485 -19.3795 3.52
      vertex -1.6796 -19.2842 3.14969
    endloop
  endfacet
  facet normal 0.447214 0.774603 0.447203
    outer loop
      vertex -1.88485 -19.3795 3.52
      vertex -10.5228 -13.053 1.2
      vertex -17.7256 -10.2339 3.52
    endloop
  endfacet
  facet normal 0.447216 0.77459 0.447224
    outer loop
      vertex -17.7256 -10.2339 3.52
      vertex -10.5228 -13.053 1.2
      vertex -16.5656 -9.56414 1.2
    endloop
  endfacet
  facet normal 0.447463 0.776936 -0.442885
    outer loop
      vertex 0 -18.4355 0
      vertex 0 -18.4412 -0.00999928
      vertex -0.0503531 -18.4122 -0.00999928
    endloop
  endfacet
  facet normal 0.44724 0.77464 -0.447112
    outer loop
      vertex -0.0503531 -18.4122 -0.00999928
      vertex -15.9656 -9.21773 0
      vertex 0 -18.4355 0
    endloop
  endfacet
  facet normal 0.447313 0.774766 -0.446821
    outer loop
      vertex -15.9656 -9.21773 0
      vertex -0.0503531 -18.4122 -0.00999928
      vertex -15.9706 -9.22061 -0.00999928
    endloop
  endfacet
  facet normal -0.445885 -0.7723 -0.452481
    outer loop
      vertex -22.9402 -13.3142 -0.00999928
      vertex 0 -26.5645 0
      vertex -23.0056 -13.2823 0
    endloop
  endfacet
  facet normal -0.448345 -0.776552 -0.442667
    outer loop
      vertex 0 -26.5645 0
      vertex -22.9402 -13.3142 -0.00999928
      vertex 0 -26.5588 -0.00999928
    endloop
  endfacet
  facet normal -0.446356 -0.774709 -0.447876
    outer loop
      vertex -23.0006 -13.2794 -0.00999928
      vertex -22.9402 -13.3142 -0.00999928
      vertex -23.0056 -13.2823 0
    endloop
  endfacet
  facet normal 0 0 -1
    outer loop
      vertex 15.9706 -9.22061 -0.00999928
      vertex 23.0006 13.2794 -0.00999928
      vertex 23.0006 -13.2794 -0.00999928
    endloop
  endfacet
  facet normal 0 0 -1
    outer loop
      vertex 15.9706 9.22061 -0.00999928
      vertex 23.0006 13.2794 -0.00999928
      vertex 15.9706 -9.22061 -0.00999928
    endloop
  endfacet
  facet normal 0 0 -1
    outer loop
      vertex 23.0006 -13.2794 -0.00999928
      vertex 15.9202 -9.24968 -0.00999928
      vertex 15.9706 -9.22061 -0.00999928
    endloop
  endfacet
  facet normal 0 0 -1
    outer loop
      vertex 0.0603524 -26.5239 -0.00999928
      vertex 15.9202 -9.24968 -0.00999928
      vertex 23.0006 -13.2794 -0.00999928
    endloop
  endfacet
  facet normal 0 0 -1
    outer loop
      vertex 0 -18.4412 -0.00999928
      vertex 0.0603524 -26.5239 -0.00999928
      vertex 0 -26.5588 -0.00999928
    endloop
  endfacet
  facet normal 0 0 -1
    outer loop
      vertex 0.0603524 -26.5239 -0.00999928
      vertex 0 -18.4412 -0.00999928
      vertex 15.9202 -9.24968 -0.00999928
    endloop
  endfacet
  facet normal 0 0 -1
    outer loop
      vertex 0 -26.5588 -0.00999928
      vertex -0.0503531 -18.4122 -0.00999928
      vertex 0 -18.4412 -0.00999928
    endloop
  endfacet
  facet normal 0 0 -1
    outer loop
      vertex -22.9402 -13.3142 -0.00999928
      vertex -0.0503531 -18.4122 -0.00999928
      vertex 0 -26.5588 -0.00999928
    endloop
  endfacet
  facet normal 0 0 -1
    outer loop
      vertex -23.0006 -13.2794 -0.00999928
      vertex -15.9706 -9.22061 -0.00999928
      vertex -22.9402 -13.3142 -0.00999928
    endloop
  endfacet
  facet normal 0 0 -1
    outer loop
      vertex -0.0503531 -18.4122 -0.00999928
      vertex -22.9402 -13.3142 -0.00999928
      vertex -15.9706 -9.22061 -0.00999928
    endloop
  endfacet
  facet normal -0 0 -1
    outer loop
      vertex 23.0006 13.2794 -0.00999928
      vertex 15.9706 9.22061 -0.00999928
      vertex 22.9402 13.3142 -0.00999928
    endloop
  endfacet
  facet normal 0 0 -1
    outer loop
      vertex 0.0503531 18.4122 -0.00999928
      vertex 22.9402 13.3142 -0.00999928
      vertex 15.9706 9.22061 -0.00999928
    endloop
  endfacet
  facet normal 0 0 -1
    outer loop
      vertex 0 26.5588 -0.00999928
      vertex 0.0503531 18.4122 -0.00999928
      vertex 0 18.4412 -0.00999928
    endloop
  endfacet
  facet normal 0 0 -1
    outer loop
      vertex 0.0503531 18.4122 -0.00999928
      vertex 0 26.5588 -0.00999928
      vertex 22.9402 13.3142 -0.00999928
    endloop
  endfacet
  facet normal 0 0 -1
    outer loop
      vertex 0 18.4412 -0.00999928
      vertex -0.0603524 26.5239 -0.00999928
      vertex 0 26.5588 -0.00999928
    endloop
  endfacet
  facet normal 0 0 -1
    outer loop
      vertex -15.9202 9.24968 -0.00999928
      vertex -0.0603524 26.5239 -0.00999928
      vertex 0 18.4412 -0.00999928
    endloop
  endfacet
  facet normal 0 0 -1
    outer loop
      vertex -23.0006 13.2794 -0.00999928
      vertex -15.9202 9.24968 -0.00999928
      vertex -15.9706 9.22061 -0.00999928
    endloop
  endfacet
  facet normal -0 0 -1
    outer loop
      vertex -15.9706 -9.22061 -0.00999928
      vertex -23.0006 -13.2794 -0.00999928
      vertex -15.9706 9.22061 -0.00999928
    endloop
  endfacet
  facet normal 0 0 -1
    outer loop
      vertex -15.9202 9.24968 -0.00999928
      vertex -23.0006 13.2794 -0.00999928
      vertex -0.0603524 26.5239 -0.00999928
    endloop
  endfacet
  facet normal 0 0 -1
    outer loop
      vertex -23.0006 13.2794 -0.00999928
      vertex -15.9706 9.22061 -0.00999928
      vertex -23.0006 -13.2794 -0.00999928
    endloop
  endfacet
  facet normal 0.49999 -0.866031 0
    outer loop
      vertex 0.599999 18.7819 1.2
      vertex 2.79177e-07 18.4355 1.22
      vertex 2.79177e-07 18.4355 1.2
    endloop
  endfacet
  facet normal 0.499909 -0.866072 -0.00312406
    outer loop
      vertex 2.79177e-07 18.4355 1.22
      vertex 0.599999 18.7819 1.2
      vertex 0.609999 18.7876 1.22
    endloop
  endfacet
  facet normal 1 -0 0
    outer loop
      vertex 3.52 24.1956 0.583199
      vertex 3.52 24.5323 0.02
      vertex 3.52 24.5323 1.22
    endloop
  endfacet
  facet normal 1 0 0
    outer loop
      vertex 3.52 24.5323 0.02
      vertex 3.52 24.1956 0.583199
      vertex 3.52 24.5207 0.02
    endloop
  endfacet
  facet normal 1 0 -0
    outer loop
      vertex 3.52 24.1956 0.583199
      vertex 3.52 24.5323 1.22
      vertex 3.52 23.8279 1.22
    endloop
  endfacet
  facet normal -0.499987 0.866033 0
    outer loop
      vertex -2.79177e-07 26.5645 0.02
      vertex -3.52 24.5323 1.22
      vertex -2.79177e-07 26.5645 1.22
    endloop
  endfacet
  facet normal -0.499987 0.866033 0
    outer loop
      vertex -3.52 24.5323 1.22
      vertex -2.79177e-07 26.5645 0.02
      vertex -3.52 24.5323 0.02
    endloop
  endfacet
  facet normal 0.499987 0.866033 -0
    outer loop
      vertex 3.52 24.5323 0.02
      vertex -2.79177e-07 26.5645 1.22
      vertex 3.52 24.5323 1.22
    endloop
  endfacet
  facet normal 0.499987 0.866033 0
    outer loop
      vertex -2.79177e-07 26.5645 1.22
      vertex 3.52 24.5323 0.02
      vertex -2.79177e-07 26.5645 0.02
    endloop
  endfacet
  facet normal -1 0 0
    outer loop
      vertex -3.52 24.5207 0.02
      vertex -3.52 24.5323 1.22
      vertex -3.52 24.5323 0.02
    endloop
  endfacet
  facet normal -1 -0 0
    outer loop
      vertex -3.52 24.5323 1.22
      vertex -3.52 24.5207 0.02
      vertex -3.52 23.8279 1.22
    endloop
  endfacet
  facet normal -0.499909 -0.866072 -0.00312384
    outer loop
      vertex -0.599999 18.7819 1.2
      vertex 2.79177e-07 18.4355 1.22
      vertex -0.609999 18.7876 1.22
    endloop
  endfacet
  facet normal -0.499989 -0.866031 -0
    outer loop
      vertex 2.79177e-07 18.4355 1.22
      vertex -0.599999 18.7819 1.2
      vertex 2.79177e-07 18.4355 1.2
    endloop
  endfacet
  facet normal 0 0 -1
    outer loop
      vertex 0.120713 26.4833 0.02
      vertex 3.52 24.5323 0.02
      vertex 3.52 24.5207 0.02
    endloop
  endfacet
  facet normal 0 0 -1
    outer loop
      vertex -2.79177e-07 26.5645 0.02
      vertex 0.120713 26.4833 0.02
      vertex 0 26.553 0.02
    endloop
  endfacet
  facet normal 0 0 -1
    outer loop
      vertex 0.120713 26.4833 0.02
      vertex -2.79177e-07 26.5645 0.02
      vertex 3.52 24.5323 0.02
    endloop
  endfacet
  facet normal 0 0 -1
    outer loop
      vertex -3.52 24.5323 0.02
      vertex 0 26.553 0.02
      vertex -3.52 24.5207 0.02
    endloop
  endfacet
  facet normal -0 0 -1
    outer loop
      vertex 0 26.553 0.02
      vertex -3.52 24.5323 0.02
      vertex -2.79177e-07 26.5645 0.02
    endloop
  endfacet
  facet normal 0.99853 0 -0.0542028
    outer loop
      vertex 3.52 24.5323 1.22
      vertex 3.64485 22.4279 3.52
      vertex 3.52 23.8279 1.22
    endloop
  endfacet
  facet normal 0.99853 0 -0.0542051
    outer loop
      vertex 3.64485 22.4279 3.52
      vertex 4.25099 20.0457 14.6859
      vertex 3.64485 20.3956 3.52
    endloop
  endfacet
  facet normal 0.99853 -3.29094e-06 -0.0542058
    outer loop
      vertex 3.52 24.5323 1.22
      vertex 4.25099 20.0457 14.6859
      vertex 3.64485 22.4279 3.52
    endloop
  endfacet
  facet normal 0.99853 1.65475e-07 -0.0542047
    outer loop
      vertex 4.97749 19.6278 28.0691
      vertex 4.25099 20.0457 14.6859
      vertex 3.52 24.5323 1.22
    endloop
  endfacet
  facet normal 0.99853 0 -0.0542047
    outer loop
      vertex 4.25099 20.0457 14.6859
      vertex 4.97749 19.6278 28.0691
      vertex 4.97749 19.6262 28.0691
    endloop
  endfacet
  facet normal 0.499265 0.864752 -0.0542053
    outer loop
      vertex 3.52 24.5323 1.22
      vertex 0.0013103 28.2468 28.0691
      vertex 4.97749 25.3738 28.0691
    endloop
  endfacet
  facet normal 0.499251 0.86476 -0.0542081
    outer loop
      vertex -2.79177e-07 26.5645 1.22
      vertex 0.0013103 28.2468 28.0691
      vertex 3.52 24.5323 1.22
    endloop
  endfacet
  facet normal 0.470406 0.880721 -0.0552068
    outer loop
      vertex 0.0013103 28.2468 28.0691
      vertex -2.79177e-07 26.5645 1.22
      vertex -2.79592e-07 28.2475 28.0691
    endloop
  endfacet
  facet normal 0.499258 -0.864756 -0.0542043
    outer loop
      vertex 2.79592e-07 16.7525 28.0691
      vertex 3.08638 19.3324 15.3379
      vertex 4.97749 19.6262 28.0691
    endloop
  endfacet
  facet normal 0.499252 -0.864759 -0.0542063
    outer loop
      vertex 2.79177e-07 18.4355 1.22
      vertex 3.08638 19.3324 15.3379
      vertex 2.79592e-07 16.7525 28.0691
    endloop
  endfacet
  facet normal 0.499304 -0.864729 -0.0542108
    outer loop
      vertex 3.08638 19.3324 15.3379
      vertex 1.88485 19.3795 3.52
      vertex 2.44841 19.7008 3.58549
    endloop
  endfacet
  facet normal 0.499248 -0.864762 -0.0542052
    outer loop
      vertex 3.08638 19.3324 15.3379
      vertex 2.79177e-07 18.4355 1.22
      vertex 1.88485 19.3795 3.52
    endloop
  endfacet
  facet normal 0.499145 -0.864829 -0.0540933
    outer loop
      vertex 1.88485 19.3795 3.52
      vertex 2.79177e-07 18.4355 1.22
      vertex 1.6796 19.2842 3.14969
    endloop
  endfacet
  facet normal 0.499179 -0.864807 -0.0541326
    outer loop
      vertex 1.6796 19.2842 3.14969
      vertex 2.79177e-07 18.4355 1.22
      vertex 0.609999 18.7876 1.22
    endloop
  endfacet
  facet normal 0.499287 -0.864739 -0.054209
    outer loop
      vertex 4.97749 19.6262 28.0691
      vertex 3.08638 19.3324 15.3379
      vertex 4.25099 20.0457 14.6859
    endloop
  endfacet
  facet normal 0.49926 -0.8648 -0.0534876
    outer loop
      vertex 2.44841 19.7008 3.58549
      vertex 1.88485 19.3795 3.52
      vertex 2.45196 19.7069 3.52
    endloop
  endfacet
  facet normal 0.99853 0 -0.0542047
    outer loop
      vertex 4.97749 19.6278 28.0691
      vertex 3.52 24.5323 1.22
      vertex 4.97749 25.3738 28.0691
    endloop
  endfacet
  facet normal -0.499265 -0.864752 -0.0542082
    outer loop
      vertex -4.25099 20.0457 14.6859
      vertex -0.0013103 16.7532 28.0691
      vertex -4.97749 19.6262 28.0691
    endloop
  endfacet
  facet normal -0.499245 -0.864764 -0.0542002
    outer loop
      vertex -3.21857 20.1495 3.52
      vertex -4.25099 20.0457 14.6859
      vertex -3.64485 20.3956 3.52
    endloop
  endfacet
  facet normal -0.499277 -0.864745 -0.0542029
    outer loop
      vertex -4.25099 20.0457 14.6859
      vertex -3.21857 20.1495 3.52
      vertex -0.0013103 16.7532 28.0691
    endloop
  endfacet
  facet normal -0.499253 -0.864759 -0.0542078
    outer loop
      vertex -1.88485 19.3795 3.52
      vertex -0.0013103 16.7532 28.0691
      vertex -3.21857 20.1495 3.52
    endloop
  endfacet
  facet normal -0.470328 -0.880576 -0.0581192
    outer loop
      vertex -0.0013103 16.7532 28.0691
      vertex -1.88485 19.3795 3.52
      vertex 2.79592e-07 16.7525 28.0691
    endloop
  endfacet
  facet normal -0.499178 -0.864807 -0.05413
    outer loop
      vertex 2.79177e-07 18.4355 1.22
      vertex -1.88485 19.3795 3.52
      vertex -0.609999 18.7876 1.22
    endloop
  endfacet
  facet normal -0.499249 -0.864761 -0.0542064
    outer loop
      vertex -1.88485 19.3795 3.52
      vertex 2.79177e-07 18.4355 1.22
      vertex 2.79592e-07 16.7525 28.0691
    endloop
  endfacet
  facet normal -0.99853 -1.34976e-06 -0.0542045
    outer loop
      vertex -4.28638 21.4109 15.3379
      vertex -4.97749 25.3722 28.0691
      vertex -3.87147 21.6504 7.69462
    endloop
  endfacet
  facet normal -0.99853 2.50663e-06 -0.0542046
    outer loop
      vertex -4.97749 19.6262 28.0691
      vertex -4.28638 21.4109 15.3379
      vertex -4.25099 20.0457 14.6859
    endloop
  endfacet
  facet normal -0.99853 0 -0.0542049
    outer loop
      vertex -4.28638 21.4109 15.3379
      vertex -4.97749 19.6262 28.0691
      vertex -4.97749 25.3722 28.0691
    endloop
  endfacet
  facet normal -0.998525 -0 -0.0542876
    outer loop
      vertex -3.64485 22.4279 3.52
      vertex -3.64485 21.7731 3.52
      vertex -3.64841 21.7792 3.58548
    endloop
  endfacet
  facet normal -0.99853 -4.90999e-07 -0.0542047
    outer loop
      vertex -3.87147 21.6504 7.69462
      vertex -4.97749 25.3738 28.0691
      vertex -3.52 24.5323 1.22
    endloop
  endfacet
  facet normal -0.99853 0 -0.0542046
    outer loop
      vertex -3.61483 22.7646 2.96691
      vertex -3.52 24.5323 1.22
      vertex -3.52 23.8279 1.22
    endloop
  endfacet
  facet normal -0.99853 2.73652e-07 -0.0542043
    outer loop
      vertex -3.52 24.5323 1.22
      vertex -3.61483 22.7646 2.96691
      vertex -3.87147 21.6504 7.69462
    endloop
  endfacet
  facet normal -0.99853 -1.96145e-05 -0.054209
    outer loop
      vertex -3.87147 21.6504 7.69462
      vertex -3.61483 22.7646 2.96691
      vertex -3.64485 22.4279 3.52
    endloop
  endfacet
  facet normal -0.99853 8.48138e-06 -0.0542038
    outer loop
      vertex -3.87147 21.6504 7.69462
      vertex -3.64485 22.4279 3.52
      vertex -3.64841 21.7792 3.58548
    endloop
  endfacet
  facet normal -0.99853 -0 -0.0542048
    outer loop
      vertex -4.97749 25.3738 28.0691
      vertex -3.87147 21.6504 7.69462
      vertex -4.97749 25.3722 28.0691
    endloop
  endfacet
  facet normal -0.499251 0.86476 -0.0542063
    outer loop
      vertex -3.52 24.5323 1.22
      vertex -2.79592e-07 28.2475 28.0691
      vertex -2.79177e-07 26.5645 1.22
    endloop
  endfacet
  facet normal -0.499258 0.864756 -0.054205
    outer loop
      vertex -2.79592e-07 28.2475 28.0691
      vertex -3.52 24.5323 1.22
      vertex -4.97749 25.3738 28.0691
    endloop
  endfacet
  facet normal 0.499991 -0.86603 0
    outer loop
      vertex 2.79592e-07 16.7519 28.0691
      vertex 4.97803 19.6259 42.1491
      vertex 2.79592e-07 16.7519 42.1491
    endloop
  endfacet
  facet normal 0.499991 -0.86603 0
    outer loop
      vertex 4.97803 19.6259 42.1491
      vertex 2.79592e-07 16.7519 28.0691
      vertex 4.97803 19.6259 28.0691
    endloop
  endfacet
  facet normal 1 -0 0
    outer loop
      vertex 4.97803 19.6259 42.1491
      vertex 4.97803 25.3741 28.0691
      vertex 4.97803 25.3741 42.1491
    endloop
  endfacet
  facet normal 1 0 0
    outer loop
      vertex 4.97803 25.3741 28.0691
      vertex 4.97803 19.6259 42.1491
      vertex 4.97803 19.6259 28.0691
    endloop
  endfacet
  facet normal -0.499991 0.86603 0
    outer loop
      vertex -2.79592e-07 28.2481 28.0691
      vertex -4.97803 25.3741 42.1491
      vertex -2.79592e-07 28.2481 42.1491
    endloop
  endfacet
  facet normal -0.499991 0.86603 0
    outer loop
      vertex -4.97803 25.3741 42.1491
      vertex -2.79592e-07 28.2481 28.0691
      vertex -4.97803 25.3741 28.0691
    endloop
  endfacet
  facet normal 0.499991 0.86603 -0
    outer loop
      vertex 4.97803 25.3741 28.0691
      vertex -2.79592e-07 28.2481 42.1491
      vertex 4.97803 25.3741 42.1491
    endloop
  endfacet
  facet normal 0.499991 0.86603 0
    outer loop
      vertex -2.79592e-07 28.2481 42.1491
      vertex 4.97803 25.3741 28.0691
      vertex -2.79592e-07 28.2481 28.0691
    endloop
  endfacet
  facet normal -1 0 0
    outer loop
      vertex -4.97803 19.6259 28.0691
      vertex -4.97803 25.3741 42.1491
      vertex -4.97803 25.3741 28.0691
    endloop
  endfacet
  facet normal -1 -0 0
    outer loop
      vertex -4.97803 25.3741 42.1491
      vertex -4.97803 19.6259 28.0691
      vertex -4.97803 19.6259 42.1491
    endloop
  endfacet
  facet normal -0.499991 -0.86603 0
    outer loop
      vertex -4.97803 19.6259 28.0691
      vertex 2.79592e-07 16.7519 42.1491
      vertex -4.97803 19.6259 42.1491
    endloop
  endfacet
  facet normal -0.499991 -0.86603 -0
    outer loop
      vertex 2.79592e-07 16.7519 42.1491
      vertex -4.97803 19.6259 28.0691
      vertex 2.79592e-07 16.7519 28.0691
    endloop
  endfacet
  facet normal 0 0 1
    outer loop
      vertex 4.97803 25.3741 42.1491
      vertex 3.52 24.5323 42.1491
      vertex 4.97803 19.6259 42.1491
    endloop
  endfacet
  facet normal 0 0 1
    outer loop
      vertex 4.97803 25.3741 42.1491
      vertex -2.79177e-07 26.5645 42.1491
      vertex 3.52 24.5323 42.1491
    endloop
  endfacet
  facet normal 0 0 1
    outer loop
      vertex -2.79592e-07 28.2481 42.1491
      vertex -2.79177e-07 26.5645 42.1491
      vertex 4.97803 25.3741 42.1491
    endloop
  endfacet
  facet normal 0 0 1
    outer loop
      vertex -2.79592e-07 28.2481 42.1491
      vertex -3.52 24.5323 42.1491
      vertex -2.79177e-07 26.5645 42.1491
    endloop
  endfacet
  facet normal 0 0 1
    outer loop
      vertex -3.52 24.5323 42.1491
      vertex -4.97803 25.3741 42.1491
      vertex -3.52 20.4677 42.1491
    endloop
  endfacet
  facet normal -0 0 1
    outer loop
      vertex -4.97803 25.3741 42.1491
      vertex -3.52 24.5323 42.1491
      vertex -2.79592e-07 28.2481 42.1491
    endloop
  endfacet
  facet normal -0 0 1
    outer loop
      vertex 3.52 20.4677 42.1491
      vertex 4.97803 19.6259 42.1491
      vertex 3.52 24.5323 42.1491
    endloop
  endfacet
  facet normal 0 0 1
    outer loop
      vertex 3.52 20.4677 42.1491
      vertex 2.79592e-07 16.7519 42.1491
      vertex 4.97803 19.6259 42.1491
    endloop
  endfacet
  facet normal -0 0 1
    outer loop
      vertex 2.79177e-07 18.4355 42.1491
      vertex 2.79592e-07 16.7519 42.1491
      vertex 3.52 20.4677 42.1491
    endloop
  endfacet
  facet normal 0 0 1
    outer loop
      vertex -3.52 20.4677 42.1491
      vertex 2.79592e-07 16.7519 42.1491
      vertex 2.79177e-07 18.4355 42.1491
    endloop
  endfacet
  facet normal 0 0 1
    outer loop
      vertex -3.52 20.4677 42.1491
      vertex -4.97803 19.6259 42.1491
      vertex 2.79592e-07 16.7519 42.1491
    endloop
  endfacet
  facet normal 0 0 1
    outer loop
      vertex -4.97803 19.6259 42.1491
      vertex -3.52 20.4677 42.1491
      vertex -4.97803 25.3741 42.1491
    endloop
  endfacet
  facet normal 0 0 -1
    outer loop
      vertex -4.97803 19.6259 28.0691
      vertex -4.97749 25.3722 28.0691
      vertex -4.97749 19.6262 28.0691
    endloop
  endfacet
  facet normal 0 0 -1
    outer loop
      vertex 4.97749 19.6278 28.0691
      vertex 4.97803 19.6259 28.0691
      vertex 4.97749 19.6262 28.0691
    endloop
  endfacet
  facet normal 0 0 -1
    outer loop
      vertex 2.79592e-07 16.7519 28.0691
      vertex 4.97749 19.6262 28.0691
      vertex 4.97803 19.6259 28.0691
    endloop
  endfacet
  facet normal 0 0 -1
    outer loop
      vertex 2.79592e-07 16.7519 28.0691
      vertex 2.79592e-07 16.7525 28.0691
      vertex 4.97749 19.6262 28.0691
    endloop
  endfacet
  facet normal 0 0 -1
    outer loop
      vertex 2.79592e-07 16.7519 28.0691
      vertex -0.0013103 16.7532 28.0691
      vertex 2.79592e-07 16.7525 28.0691
    endloop
  endfacet
  facet normal 0 0 -1
    outer loop
      vertex -4.97803 19.6259 28.0691
      vertex -0.0013103 16.7532 28.0691
      vertex 2.79592e-07 16.7519 28.0691
    endloop
  endfacet
  facet normal -0 0 -1
    outer loop
      vertex -4.97749 25.3722 28.0691
      vertex -4.97803 19.6259 28.0691
      vertex -4.97803 25.3741 28.0691
    endloop
  endfacet
  facet normal 0 0 -1
    outer loop
      vertex -0.0013103 16.7532 28.0691
      vertex -4.97803 19.6259 28.0691
      vertex -4.97749 19.6262 28.0691
    endloop
  endfacet
  facet normal 0 0 -1
    outer loop
      vertex 4.97749 25.3738 28.0691
      vertex 4.97803 25.3741 28.0691
      vertex 4.97803 19.6259 28.0691
    endloop
  endfacet
  facet normal 0 0 -1
    outer loop
      vertex 0.0013103 28.2468 28.0691
      vertex 4.97803 25.3741 28.0691
      vertex 4.97749 25.3738 28.0691
    endloop
  endfacet
  facet normal 0 0 -1
    outer loop
      vertex -2.79592e-07 28.2481 28.0691
      vertex 0.0013103 28.2468 28.0691
      vertex -2.79592e-07 28.2475 28.0691
    endloop
  endfacet
  facet normal 0 0 -1
    outer loop
      vertex 0.0013103 28.2468 28.0691
      vertex -2.79592e-07 28.2481 28.0691
      vertex 4.97803 25.3741 28.0691
    endloop
  endfacet
  facet normal 0 0 -1
    outer loop
      vertex -4.97749 25.3738 28.0691
      vertex -2.79592e-07 28.2481 28.0691
      vertex -2.79592e-07 28.2475 28.0691
    endloop
  endfacet
  facet normal 0 0 -1
    outer loop
      vertex -4.97749 25.3738 28.0691
      vertex -4.97803 25.3741 28.0691
      vertex -2.79592e-07 28.2481 28.0691
    endloop
  endfacet
  facet normal 0 0 -1
    outer loop
      vertex -4.97749 25.3722 28.0691
      vertex -4.97803 25.3741 28.0691
      vertex -4.97749 25.3738 28.0691
    endloop
  endfacet
  facet normal 0 0 -1
    outer loop
      vertex 4.97803 19.6259 28.0691
      vertex 4.97749 19.6278 28.0691
      vertex 4.97749 25.3738 28.0691
    endloop
  endfacet
  facet normal 0.499998 0.866027 -4.09924e-06
    outer loop
      vertex 13.921 14.4627 3.52
      vertex 3.64485 20.3956 3.52
      vertex 4.25099 20.0457 14.6859
    endloop
  endfacet
  facet normal -0.5 -0.866025 0
    outer loop
      vertex 13.321 13.4235 3.52
      vertex 2.44841 19.7008 3.58549
      vertex 2.44841 19.7008 3.52
    endloop
  endfacet
  facet normal -0.5 -0.866025 -4.9668e-06
    outer loop
      vertex 2.44841 19.7008 3.58549
      vertex 13.321 13.4235 3.52
      vertex 3.08638 19.3324 15.3379
    endloop
  endfacet
  facet normal 0.612366 -0.35356 0.707109
    outer loop
      vertex 4.25099 20.0457 14.6859
      vertex 13.321 13.4235 3.52
      vertex 13.921 14.4627 3.52
    endloop
  endfacet
  facet normal 0.612393 -0.353519 0.707107
    outer loop
      vertex 13.321 13.4235 3.52
      vertex 4.25099 20.0457 14.6859
      vertex 3.08638 19.3324 15.3379
    endloop
  endfacet
  facet normal -0.864292 0.50299 0
    outer loop
      vertex 2.45196 19.7069 3.52
      vertex 2.44841 19.7008 3.52
      vertex 2.44841 19.7008 3.58549
    endloop
  endfacet
  facet normal 0.499998 -0.866027 4.09924e-06
    outer loop
      vertex -4.25099 20.0457 14.6859
      vertex -13.921 14.4627 3.52
      vertex -3.64485 20.3956 3.52
    endloop
  endfacet
  facet normal -0.612358 -0.353578 0.707107
    outer loop
      vertex -14.521 15.502 3.52
      vertex -4.25099 20.0457 14.6859
      vertex -4.28638 21.4109 15.3379
    endloop
  endfacet
  facet normal -0.612381 -0.353534 0.707109
    outer loop
      vertex -4.25099 20.0457 14.6859
      vertex -14.521 15.502 3.52
      vertex -13.921 14.4627 3.52
    endloop
  endfacet
  facet normal -0.499994 0.866029 3.82442e-06
    outer loop
      vertex -14.521 15.502 3.52
      vertex -3.87147 21.6504 7.69462
      vertex -3.64841 21.7792 3.58548
    endloop
  endfacet
  facet normal -0.499994 0.866029 0
    outer loop
      vertex -14.521 15.502 3.52
      vertex -3.64841 21.7792 3.58548
      vertex -3.64841 21.7792 3.52
    endloop
  endfacet
  facet normal -0.499992 0.86603 -4.89857e-06
    outer loop
      vertex -3.87147 21.6504 7.69462
      vertex -14.521 15.502 3.52
      vertex -4.28638 21.4109 15.3379
    endloop
  endfacet
  facet normal 0.863676 0.504047 0
    outer loop
      vertex -3.64485 21.7731 3.52
      vertex -3.64841 21.7792 3.52
      vertex -3.64841 21.7792 3.58548
    endloop
  endfacet
  facet normal -0.991563 0 0.129629
    outer loop
      vertex 3.52 20.4677 28.0791
      vertex 0.309343 22.3305 3.52
      vertex 0.309343 22.3214 3.52
    endloop
  endfacet
  facet normal -0.495722 -0.858752 0.129633
    outer loop
      vertex 0.309343 22.6786 3.52
      vertex -2.79177e-07 26.5645 28.0791
      vertex 0.00791806 22.8526 3.52
    endloop
  endfacet
  facet normal -0.495768 -0.858726 0.129629
    outer loop
      vertex -2.79177e-07 26.5645 28.0791
      vertex 0.309343 22.6786 3.52
      vertex 3.52 24.5323 28.0791
    endloop
  endfacet
  facet normal -0.498094 -0.857409 0.129429
    outer loop
      vertex 0.00791806 22.8526 3.52
      vertex -2.79177e-07 26.5645 28.0791
      vertex -2.81004e-07 22.8572 3.52
    endloop
  endfacet
  facet normal -0.495768 0.858726 0.129629
    outer loop
      vertex 0.309343 22.3214 3.52
      vertex 2.79177e-07 18.4355 28.0791
      vertex 3.52 20.4677 28.0791
    endloop
  endfacet
  facet normal -0.495783 0.858718 0.129627
    outer loop
      vertex 2.79177e-07 18.4355 28.0791
      vertex 0.309343 22.3214 3.52
      vertex 2.81004e-07 22.1428 3.52
    endloop
  endfacet
  facet normal -0.991563 0 0.129629
    outer loop
      vertex 0.309343 22.3305 3.52
      vertex 3.52 24.5323 28.0791
      vertex 0.309343 22.6786 3.52
    endloop
  endfacet
  facet normal -0.991563 0 0.129629
    outer loop
      vertex 3.52 24.5323 28.0791
      vertex 0.309343 22.3305 3.52
      vertex 3.52 20.4677 28.0791
    endloop
  endfacet
  facet normal 0.495722 0.858752 0.129633
    outer loop
      vertex -0.309343 22.3214 3.52
      vertex 2.79177e-07 18.4355 28.0791
      vertex -0.00791806 22.1474 3.52
    endloop
  endfacet
  facet normal 0.495768 0.858726 0.129629
    outer loop
      vertex 2.79177e-07 18.4355 28.0791
      vertex -0.309343 22.3214 3.52
      vertex -3.52 20.4677 28.0791
    endloop
  endfacet
  facet normal 0.498094 0.857409 0.129429
    outer loop
      vertex 2.79177e-07 18.4355 28.0791
      vertex 2.81004e-07 22.1428 3.52
      vertex -0.00791806 22.1474 3.52
    endloop
  endfacet
  facet normal 0.991563 0 0.129629
    outer loop
      vertex -3.52 24.5323 28.0791
      vertex -0.309343 22.3214 3.52
      vertex -0.309343 22.6695 3.52
    endloop
  endfacet
  facet normal 0.991563 0 0.129629
    outer loop
      vertex -0.309343 22.3214 3.52
      vertex -3.52 24.5323 28.0791
      vertex -3.52 20.4677 28.0791
    endloop
  endfacet
  facet normal 0.991563 -0 0.129629
    outer loop
      vertex -0.309343 22.6695 3.52
      vertex -0.309343 22.6786 3.52
      vertex -3.52 24.5323 28.0791
    endloop
  endfacet
  facet normal 0.495768 -0.858726 0.129629
    outer loop
      vertex -0.309343 22.6786 3.52
      vertex -2.79177e-07 26.5645 28.0791
      vertex -3.52 24.5323 28.0791
    endloop
  endfacet
  facet normal 0.495783 -0.858718 0.129627
    outer loop
      vertex -2.79177e-07 26.5645 28.0791
      vertex -0.309343 22.6786 3.52
      vertex -2.81004e-07 22.8572 3.52
    endloop
  endfacet
  facet normal -0.499987 0.866033 0
    outer loop
      vertex 3.52 20.4677 28.0791
      vertex 2.79177e-07 18.4355 42.1491
      vertex 3.52 20.4677 42.1491
    endloop
  endfacet
  facet normal -0.499987 0.866033 0
    outer loop
      vertex 2.79177e-07 18.4355 42.1491
      vertex 3.52 20.4677 28.0791
      vertex 2.79177e-07 18.4355 28.0791
    endloop
  endfacet
  facet normal -1 0 0
    outer loop
      vertex 3.52 20.4677 28.0791
      vertex 3.52 24.5323 42.1491
      vertex 3.52 24.5323 28.0791
    endloop
  endfacet
  facet normal -1 -0 0
    outer loop
      vertex 3.52 24.5323 42.1491
      vertex 3.52 20.4677 28.0791
      vertex 3.52 20.4677 42.1491
    endloop
  endfacet
  facet normal 0.499987 -0.866033 0
    outer loop
      vertex -3.52 24.5323 28.0791
      vertex -2.79177e-07 26.5645 42.1491
      vertex -3.52 24.5323 42.1491
    endloop
  endfacet
  facet normal 0.499987 -0.866033 0
    outer loop
      vertex -2.79177e-07 26.5645 42.1491
      vertex -3.52 24.5323 28.0791
      vertex -2.79177e-07 26.5645 28.0791
    endloop
  endfacet
  facet normal -0.499987 -0.866033 0
    outer loop
      vertex -2.79177e-07 26.5645 28.0791
      vertex 3.52 24.5323 42.1491
      vertex -2.79177e-07 26.5645 42.1491
    endloop
  endfacet
  facet normal -0.499987 -0.866033 -0
    outer loop
      vertex 3.52 24.5323 42.1491
      vertex -2.79177e-07 26.5645 28.0791
      vertex 3.52 24.5323 28.0791
    endloop
  endfacet
  facet normal 1 -0 0
    outer loop
      vertex -3.52 20.4677 42.1491
      vertex -3.52 24.5323 28.0791
      vertex -3.52 24.5323 42.1491
    endloop
  endfacet
  facet normal 1 0 0
    outer loop
      vertex -3.52 24.5323 28.0791
      vertex -3.52 20.4677 42.1491
      vertex -3.52 20.4677 28.0791
    endloop
  endfacet
  facet normal 0.499987 0.866033 -0
    outer loop
      vertex 2.79177e-07 18.4355 28.0791
      vertex -3.52 20.4677 42.1491
      vertex 2.79177e-07 18.4355 42.1491
    endloop
  endfacet
  facet normal 0.499987 0.866033 0
    outer loop
      vertex -3.52 20.4677 42.1491
      vertex 2.79177e-07 18.4355 28.0791
      vertex -3.52 20.4677 28.0791
    endloop
  endfacet
  facet normal 0.499909 0.866072 -0.00312406
    outer loop
      vertex 0.599999 -18.7819 1.2
      vertex 2.79177e-07 -18.4355 1.22
      vertex 0.609999 -18.7876 1.22
    endloop
  endfacet
  facet normal 0.49999 0.866031 0
    outer loop
      vertex 2.79177e-07 -18.4355 1.22
      vertex 0.599999 -18.7819 1.2
      vertex 2.79177e-07 -18.4355 1.2
    endloop
  endfacet
  facet normal 1 -0 0
    outer loop
      vertex 3.52 -24.5323 1.22
      vertex 3.52 -24.5207 0.02
      vertex 3.52 -23.8279 1.22
    endloop
  endfacet
  facet normal 1 0 0
    outer loop
      vertex 3.52 -24.5207 0.02
      vertex 3.52 -24.5323 1.22
      vertex 3.52 -24.5323 0.02
    endloop
  endfacet
  facet normal -0.499987 -0.866033 0
    outer loop
      vertex -3.52 -24.5323 0.02
      vertex -2.79177e-07 -26.5645 1.22
      vertex -3.52 -24.5323 1.22
    endloop
  endfacet
  facet normal -0.499987 -0.866033 -0
    outer loop
      vertex -2.79177e-07 -26.5645 1.22
      vertex -3.52 -24.5323 0.02
      vertex -2.79177e-07 -26.5645 0.02
    endloop
  endfacet
  facet normal 0.499987 -0.866033 0
    outer loop
      vertex -2.79177e-07 -26.5645 0.02
      vertex 3.52 -24.5323 1.22
      vertex -2.79177e-07 -26.5645 1.22
    endloop
  endfacet
  facet normal 0.499987 -0.866033 0
    outer loop
      vertex 3.52 -24.5323 1.22
      vertex -2.79177e-07 -26.5645 0.02
      vertex 3.52 -24.5323 0.02
    endloop
  endfacet
  facet normal -1 0 0
    outer loop
      vertex -3.52 -24.5323 0.02
      vertex -3.52 -24.1956 0.583199
      vertex -3.52 -24.5207 0.02
    endloop
  endfacet
  facet normal -1 -0 0
    outer loop
      vertex -3.52 -24.1956 0.583199
      vertex -3.52 -24.5323 0.02
      vertex -3.52 -24.5323 1.22
    endloop
  endfacet
  facet normal -1 0 0
    outer loop
      vertex -3.52 -24.1956 0.583199
      vertex -3.52 -24.5323 1.22
      vertex -3.52 -23.8279 1.22
    endloop
  endfacet
  facet normal -0.499989 0.866031 0
    outer loop
      vertex -0.599999 -18.7819 1.2
      vertex 2.79177e-07 -18.4355 1.22
      vertex 2.79177e-07 -18.4355 1.2
    endloop
  endfacet
  facet normal -0.499909 0.866072 -0.00312384
    outer loop
      vertex 2.79177e-07 -18.4355 1.22
      vertex -0.599999 -18.7819 1.2
      vertex -0.609999 -18.7876 1.22
    endloop
  endfacet
  facet normal -0 0 -1
    outer loop
      vertex 3.52 -24.5323 0.02
      vertex 0 -26.553 0.02
      vertex 3.52 -24.5207 0.02
    endloop
  endfacet
  facet normal 0 0 -1
    outer loop
      vertex -2.79177e-07 -26.5645 0.02
      vertex 0 -26.553 0.02
      vertex 3.52 -24.5323 0.02
    endloop
  endfacet
  facet normal 0 0 -1
    outer loop
      vertex -2.79177e-07 -26.5645 0.02
      vertex -0.120713 -26.4833 0.02
      vertex 0 -26.553 0.02
    endloop
  endfacet
  facet normal 0 0 -1
    outer loop
      vertex -3.52 -24.5323 0.02
      vertex -0.120713 -26.4833 0.02
      vertex -2.79177e-07 -26.5645 0.02
    endloop
  endfacet
  facet normal 0 0 -1
    outer loop
      vertex -0.120713 -26.4833 0.02
      vertex -3.52 -24.5323 0.02
      vertex -3.52 -24.5207 0.02
    endloop
  endfacet
  facet normal 0.99853 0 -0.0542047
    outer loop
      vertex 4.97749 -19.6278 28.0691
      vertex 4.25099 -20.0457 14.6859
      vertex 4.97749 -19.6262 28.0691
    endloop
  endfacet
  facet normal 0.99853 -1.65475e-07 -0.0542047
    outer loop
      vertex 3.52 -24.5323 1.22
      vertex 4.25099 -20.0457 14.6859
      vertex 4.97749 -19.6278 28.0691
    endloop
  endfacet
  facet normal 0.99853 0 -0.0542051
    outer loop
      vertex 4.25099 -20.0457 14.6859
      vertex 3.64485 -22.4279 3.52
      vertex 3.64485 -20.3956 3.52
    endloop
  endfacet
  facet normal 0.99853 3.29094e-06 -0.0542058
    outer loop
      vertex 4.25099 -20.0457 14.6859
      vertex 3.52 -24.5323 1.22
      vertex 3.64485 -22.4279 3.52
    endloop
  endfacet
  facet normal 0.998531 -1.86792e-05 -0.0541858
    outer loop
      vertex 3.64485 -22.4279 3.52
      vertex 3.52 -24.5323 1.22
      vertex 3.61483 -22.7646 2.96691
    endloop
  endfacet
  facet normal 0.99853 0 -0.0542046
    outer loop
      vertex 3.61483 -22.7646 2.96691
      vertex 3.52 -24.5323 1.22
      vertex 3.52 -23.8279 1.22
    endloop
  endfacet
  facet normal 0.499265 -0.864752 -0.0542053
    outer loop
      vertex 3.52 -24.5323 1.22
      vertex 4.97749 -25.3738 28.0691
      vertex 0.0013103 -28.2468 28.0691
    endloop
  endfacet
  facet normal 0.470406 -0.880721 -0.0552068
    outer loop
      vertex -2.79177e-07 -26.5645 1.22
      vertex 0.0013103 -28.2468 28.0691
      vertex -2.79592e-07 -28.2475 28.0691
    endloop
  endfacet
  facet normal 0.499251 -0.86476 -0.0542081
    outer loop
      vertex 0.0013103 -28.2468 28.0691
      vertex -2.79177e-07 -26.5645 1.22
      vertex 3.52 -24.5323 1.22
    endloop
  endfacet
  facet normal 0.499258 0.864756 -0.0542043
    outer loop
      vertex 4.97749 -19.6262 28.0691
      vertex 3.08638 -19.3324 15.3379
      vertex 2.79592e-07 -16.7525 28.0691
    endloop
  endfacet
  facet normal 0.499287 0.864739 -0.054209
    outer loop
      vertex 3.08638 -19.3324 15.3379
      vertex 4.97749 -19.6262 28.0691
      vertex 4.25099 -20.0457 14.6859
    endloop
  endfacet
  facet normal 0.499304 0.864729 -0.0542108
    outer loop
      vertex 1.88485 -19.3795 3.52
      vertex 3.08638 -19.3324 15.3379
      vertex 2.44841 -19.7008 3.58549
    endloop
  endfacet
  facet normal 0.49926 0.8648 -0.0534876
    outer loop
      vertex 1.88485 -19.3795 3.52
      vertex 2.44841 -19.7008 3.58549
      vertex 2.45196 -19.7069 3.52
    endloop
  endfacet
  facet normal 0.499248 0.864762 -0.0542052
    outer loop
      vertex 2.79177e-07 -18.4355 1.22
      vertex 3.08638 -19.3324 15.3379
      vertex 1.88485 -19.3795 3.52
    endloop
  endfacet
  facet normal 0.499179 0.864807 -0.0541302
    outer loop
      vertex 2.79177e-07 -18.4355 1.22
      vertex 1.88485 -19.3795 3.52
      vertex 0.609999 -18.7876 1.22
    endloop
  endfacet
  facet normal 0.499252 0.864759 -0.0542063
    outer loop
      vertex 3.08638 -19.3324 15.3379
      vertex 2.79177e-07 -18.4355 1.22
      vertex 2.79592e-07 -16.7525 28.0691
    endloop
  endfacet
  facet normal 0.99853 0 -0.0542047
    outer loop
      vertex 4.97749 -19.6278 28.0691
      vertex 4.97749 -25.3738 28.0691
      vertex 3.52 -24.5323 1.22
    endloop
  endfacet
  facet normal -0.499265 0.864752 -0.0542082
    outer loop
      vertex -0.0013103 -16.7532 28.0691
      vertex -4.25099 -20.0457 14.6859
      vertex -4.97749 -19.6262 28.0691
    endloop
  endfacet
  facet normal -0.499277 0.864745 -0.0542029
    outer loop
      vertex -3.21857 -20.1495 3.52
      vertex -4.25099 -20.0457 14.6859
      vertex -0.0013103 -16.7532 28.0691
    endloop
  endfacet
  facet normal -0.499245 0.864764 -0.0542002
    outer loop
      vertex -4.25099 -20.0457 14.6859
      vertex -3.21857 -20.1495 3.52
      vertex -3.64485 -20.3956 3.52
    endloop
  endfacet
  facet normal -0.470328 0.880576 -0.0581192
    outer loop
      vertex 2.79592e-07 -16.7525 28.0691
      vertex -1.88485 -19.3795 3.52
      vertex -0.0013103 -16.7532 28.0691
    endloop
  endfacet
  facet normal -0.499249 0.864761 -0.0542064
    outer loop
      vertex 2.79177e-07 -18.4355 1.22
      vertex -1.88485 -19.3795 3.52
      vertex 2.79592e-07 -16.7525 28.0691
    endloop
  endfacet
  facet normal -0.499144 0.864829 -0.054093
    outer loop
      vertex -1.88485 -19.3795 3.52
      vertex 2.79177e-07 -18.4355 1.22
      vertex -1.6796 -19.2842 3.14969
    endloop
  endfacet
  facet normal -0.499178 0.864807 -0.0541324
    outer loop
      vertex -1.6796 -19.2842 3.14969
      vertex 2.79177e-07 -18.4355 1.22
      vertex -0.609999 -18.7876 1.22
    endloop
  endfacet
  facet normal -0.499253 0.864759 -0.0542078
    outer loop
      vertex -0.0013103 -16.7532 28.0691
      vertex -1.88485 -19.3795 3.52
      vertex -3.21857 -20.1495 3.52
    endloop
  endfacet
  facet normal -0.99853 -2.50663e-06 -0.0542046
    outer loop
      vertex -4.28638 -21.4109 15.3379
      vertex -4.97749 -19.6262 28.0691
      vertex -4.25099 -20.0457 14.6859
    endloop
  endfacet
  facet normal -0.99853 0 -0.0542049
    outer loop
      vertex -4.28638 -21.4109 15.3379
      vertex -4.97749 -25.3722 28.0691
      vertex -4.97749 -19.6262 28.0691
    endloop
  endfacet
  facet normal -0.99853 1.34976e-06 -0.0542045
    outer loop
      vertex -4.97749 -25.3722 28.0691
      vertex -4.28638 -21.4109 15.3379
      vertex -3.87147 -21.6504 7.69462
    endloop
  endfacet
  facet normal -0.998525 -0 -0.0542876
    outer loop
      vertex -3.64485 -21.7731 3.52
      vertex -3.64485 -22.4279 3.52
      vertex -3.64841 -21.7792 3.58548
    endloop
  endfacet
  facet normal -0.99853 -8.48138e-06 -0.0542038
    outer loop
      vertex -3.64485 -22.4279 3.52
      vertex -3.87147 -21.6504 7.69462
      vertex -3.64841 -21.7792 3.58548
    endloop
  endfacet
  facet normal -0.99853 0 -0.0542028
    outer loop
      vertex -3.52 -24.5323 1.22
      vertex -3.64485 -22.4279 3.52
      vertex -3.52 -23.8279 1.22
    endloop
  endfacet
  facet normal -0.99853 3.52399e-06 -0.054206
    outer loop
      vertex -3.64485 -22.4279 3.52
      vertex -3.52 -24.5323 1.22
      vertex -3.87147 -21.6504 7.69462
    endloop
  endfacet
  facet normal -0.99853 4.90999e-07 -0.0542047
    outer loop
      vertex -4.97749 -25.3738 28.0691
      vertex -3.87147 -21.6504 7.69462
      vertex -3.52 -24.5323 1.22
    endloop
  endfacet
  facet normal -0.99853 0 -0.0542048
    outer loop
      vertex -3.87147 -21.6504 7.69462
      vertex -4.97749 -25.3738 28.0691
      vertex -4.97749 -25.3722 28.0691
    endloop
  endfacet
  facet normal -0.499258 -0.864756 -0.054205
    outer loop
      vertex -3.52 -24.5323 1.22
      vertex -2.79592e-07 -28.2475 28.0691
      vertex -4.97749 -25.3738 28.0691
    endloop
  endfacet
  facet normal -0.499251 -0.86476 -0.0542063
    outer loop
      vertex -2.79592e-07 -28.2475 28.0691
      vertex -3.52 -24.5323 1.22
      vertex -2.79177e-07 -26.5645 1.22
    endloop
  endfacet
  facet normal 0.499991 0.86603 -0
    outer loop
      vertex 4.97803 -19.6259 28.0691
      vertex 2.79592e-07 -16.7519 42.1491
      vertex 4.97803 -19.6259 42.1491
    endloop
  endfacet
  facet normal 0.499991 0.86603 0
    outer loop
      vertex 2.79592e-07 -16.7519 42.1491
      vertex 4.97803 -19.6259 28.0691
      vertex 2.79592e-07 -16.7519 28.0691
    endloop
  endfacet
  facet normal 1 -0 0
    outer loop
      vertex 4.97803 -25.3741 42.1491
      vertex 4.97803 -19.6259 28.0691
      vertex 4.97803 -19.6259 42.1491
    endloop
  endfacet
  facet normal 1 0 0
    outer loop
      vertex 4.97803 -19.6259 28.0691
      vertex 4.97803 -25.3741 42.1491
      vertex 4.97803 -25.3741 28.0691
    endloop
  endfacet
  facet normal -0.499991 -0.86603 0
    outer loop
      vertex -4.97803 -25.3741 28.0691
      vertex -2.79592e-07 -28.2481 42.1491
      vertex -4.97803 -25.3741 42.1491
    endloop
  endfacet
  facet normal -0.499991 -0.86603 -0
    outer loop
      vertex -2.79592e-07 -28.2481 42.1491
      vertex -4.97803 -25.3741 28.0691
      vertex -2.79592e-07 -28.2481 28.0691
    endloop
  endfacet
  facet normal 0.499991 -0.86603 0
    outer loop
      vertex -2.79592e-07 -28.2481 28.0691
      vertex 4.97803 -25.3741 42.1491
      vertex -2.79592e-07 -28.2481 42.1491
    endloop
  endfacet
  facet normal 0.499991 -0.86603 0
    outer loop
      vertex 4.97803 -25.3741 42.1491
      vertex -2.79592e-07 -28.2481 28.0691
      vertex 4.97803 -25.3741 28.0691
    endloop
  endfacet
  facet normal -1 0 0
    outer loop
      vertex -4.97803 -25.3741 28.0691
      vertex -4.97803 -19.6259 42.1491
      vertex -4.97803 -19.6259 28.0691
    endloop
  endfacet
  facet normal -1 -0 0
    outer loop
      vertex -4.97803 -19.6259 42.1491
      vertex -4.97803 -25.3741 28.0691
      vertex -4.97803 -25.3741 42.1491
    endloop
  endfacet
  facet normal -0.499991 0.86603 0
    outer loop
      vertex 2.79592e-07 -16.7519 28.0691
      vertex -4.97803 -19.6259 42.1491
      vertex 2.79592e-07 -16.7519 42.1491
    endloop
  endfacet
  facet normal -0.499991 0.86603 0
    outer loop
      vertex -4.97803 -19.6259 42.1491
      vertex 2.79592e-07 -16.7519 28.0691
      vertex -4.97803 -19.6259 28.0691
    endloop
  endfacet
  facet normal 0 0 1
    outer loop
      vertex 4.97803 -19.6259 42.1491
      vertex 3.52 -20.4677 42.1491
      vertex 3.52 -24.5323 42.1491
    endloop
  endfacet
  facet normal 0 0 1
    outer loop
      vertex 2.79592e-07 -16.7519 42.1491
      vertex 3.52 -20.4677 42.1491
      vertex 4.97803 -19.6259 42.1491
    endloop
  endfacet
  facet normal 0 0 1
    outer loop
      vertex 2.79592e-07 -16.7519 42.1491
      vertex 2.79177e-07 -18.4355 42.1491
      vertex 3.52 -20.4677 42.1491
    endloop
  endfacet
  facet normal 0 0 1
    outer loop
      vertex 2.79592e-07 -16.7519 42.1491
      vertex -3.52 -20.4677 42.1491
      vertex 2.79177e-07 -18.4355 42.1491
    endloop
  endfacet
  facet normal 0 0 1
    outer loop
      vertex -3.52 -20.4677 42.1491
      vertex -4.97803 -19.6259 42.1491
      vertex -4.97803 -25.3741 42.1491
    endloop
  endfacet
  facet normal -0 0 1
    outer loop
      vertex -4.97803 -19.6259 42.1491
      vertex -3.52 -20.4677 42.1491
      vertex 2.79592e-07 -16.7519 42.1491
    endloop
  endfacet
  facet normal -0 0 1
    outer loop
      vertex 3.52 -24.5323 42.1491
      vertex 4.97803 -25.3741 42.1491
      vertex 4.97803 -19.6259 42.1491
    endloop
  endfacet
  facet normal 0 0 1
    outer loop
      vertex -2.79177e-07 -26.5645 42.1491
      vertex 4.97803 -25.3741 42.1491
      vertex 3.52 -24.5323 42.1491
    endloop
  endfacet
  facet normal -0 0 1
    outer loop
      vertex -2.79177e-07 -26.5645 42.1491
      vertex -2.79592e-07 -28.2481 42.1491
      vertex 4.97803 -25.3741 42.1491
    endloop
  endfacet
  facet normal 0 0 1
    outer loop
      vertex -3.52 -24.5323 42.1491
      vertex -2.79592e-07 -28.2481 42.1491
      vertex -2.79177e-07 -26.5645 42.1491
    endloop
  endfacet
  facet normal 0 0 1
    outer loop
      vertex -3.52 -24.5323 42.1491
      vertex -4.97803 -25.3741 42.1491
      vertex -2.79592e-07 -28.2481 42.1491
    endloop
  endfacet
  facet normal 0 0 1
    outer loop
      vertex -4.97803 -25.3741 42.1491
      vertex -3.52 -24.5323 42.1491
      vertex -3.52 -20.4677 42.1491
    endloop
  endfacet
  facet normal 0 0 -1
    outer loop
      vertex 4.97749 -19.6278 28.0691
      vertex 4.97803 -25.3741 28.0691
      vertex 4.97749 -25.3738 28.0691
    endloop
  endfacet
  facet normal -0 0 -1
    outer loop
      vertex 4.97803 -25.3741 28.0691
      vertex 0.0013103 -28.2468 28.0691
      vertex 4.97749 -25.3738 28.0691
    endloop
  endfacet
  facet normal 0 0 -1
    outer loop
      vertex -2.79592e-07 -28.2481 28.0691
      vertex 0.0013103 -28.2468 28.0691
      vertex 4.97803 -25.3741 28.0691
    endloop
  endfacet
  facet normal 0 0 -1
    outer loop
      vertex 0.0013103 -28.2468 28.0691
      vertex -2.79592e-07 -28.2481 28.0691
      vertex -2.79592e-07 -28.2475 28.0691
    endloop
  endfacet
  facet normal 0 0 -1
    outer loop
      vertex -2.79592e-07 -28.2481 28.0691
      vertex -4.97749 -25.3738 28.0691
      vertex -2.79592e-07 -28.2475 28.0691
    endloop
  endfacet
  facet normal 0 0 -1
    outer loop
      vertex -4.97803 -25.3741 28.0691
      vertex -4.97749 -25.3722 28.0691
      vertex -4.97749 -25.3738 28.0691
    endloop
  endfacet
  facet normal 0 0 -1
    outer loop
      vertex -4.97803 -19.6259 28.0691
      vertex -4.97749 -25.3722 28.0691
      vertex -4.97803 -25.3741 28.0691
    endloop
  endfacet
  facet normal 0 0 -1
    outer loop
      vertex -4.97803 -25.3741 28.0691
      vertex -4.97749 -25.3738 28.0691
      vertex -2.79592e-07 -28.2481 28.0691
    endloop
  endfacet
  facet normal 0 0 -1
    outer loop
      vertex 4.97803 -25.3741 28.0691
      vertex 4.97749 -19.6278 28.0691
      vertex 4.97803 -19.6259 28.0691
    endloop
  endfacet
  facet normal 0 0 -1
    outer loop
      vertex 4.97749 -19.6262 28.0691
      vertex 4.97803 -19.6259 28.0691
      vertex 4.97749 -19.6278 28.0691
    endloop
  endfacet
  facet normal 0 0 -1
    outer loop
      vertex 4.97749 -19.6262 28.0691
      vertex 2.79592e-07 -16.7519 28.0691
      vertex 4.97803 -19.6259 28.0691
    endloop
  endfacet
  facet normal 0 0 -1
    outer loop
      vertex 2.79592e-07 -16.7525 28.0691
      vertex 2.79592e-07 -16.7519 28.0691
      vertex 4.97749 -19.6262 28.0691
    endloop
  endfacet
  facet normal 0 0 -1
    outer loop
      vertex -0.0013103 -16.7532 28.0691
      vertex 2.79592e-07 -16.7519 28.0691
      vertex 2.79592e-07 -16.7525 28.0691
    endloop
  endfacet
  facet normal 0 0 -1
    outer loop
      vertex -4.97803 -19.6259 28.0691
      vertex -0.0013103 -16.7532 28.0691
      vertex -4.97749 -19.6262 28.0691
    endloop
  endfacet
  facet normal -0 0 -1
    outer loop
      vertex -0.0013103 -16.7532 28.0691
      vertex -4.97803 -19.6259 28.0691
      vertex 2.79592e-07 -16.7519 28.0691
    endloop
  endfacet
  facet normal 0 0 -1
    outer loop
      vertex -4.97749 -25.3722 28.0691
      vertex -4.97803 -19.6259 28.0691
      vertex -4.97749 -19.6262 28.0691
    endloop
  endfacet
  facet normal 0.499998 -0.866027 -4.09924e-06
    outer loop
      vertex 13.921 -14.4627 3.52
      vertex 4.25099 -20.0457 14.6859
      vertex 3.64485 -20.3956 3.52
    endloop
  endfacet
  facet normal -0.5 0.866025 -4.9668e-06
    outer loop
      vertex 13.321 -13.4235 3.52
      vertex 2.44841 -19.7008 3.58549
      vertex 3.08638 -19.3324 15.3379
    endloop
  endfacet
  facet normal -0.5 0.866025 0
    outer loop
      vertex 2.44841 -19.7008 3.58549
      vertex 13.321 -13.4235 3.52
      vertex 2.44841 -19.7008 3.52
    endloop
  endfacet
  facet normal 0.612366 0.35356 0.707109
    outer loop
      vertex 13.321 -13.4235 3.52
      vertex 4.25099 -20.0457 14.6859
      vertex 13.921 -14.4627 3.52
    endloop
  endfacet
  facet normal 0.612393 0.353519 0.707107
    outer loop
      vertex 4.25099 -20.0457 14.6859
      vertex 13.321 -13.4235 3.52
      vertex 3.08638 -19.3324 15.3379
    endloop
  endfacet
  facet normal -0.864292 -0.50299 0
    outer loop
      vertex 2.45196 -19.7069 3.52
      vertex 2.44841 -19.7008 3.58549
      vertex 2.44841 -19.7008 3.52
    endloop
  endfacet
  facet normal 0.499998 0.866027 4.09924e-06
    outer loop
      vertex -4.25099 -20.0457 14.6859
      vertex -3.64485 -20.3956 3.52
      vertex -13.921 -14.4627 3.52
    endloop
  endfacet
  facet normal -0.612381 0.353534 0.707109
    outer loop
      vertex -14.521 -15.502 3.52
      vertex -4.25099 -20.0457 14.6859
      vertex -13.921 -14.4627 3.52
    endloop
  endfacet
  facet normal -0.612358 0.353578 0.707107
    outer loop
      vertex -4.25099 -20.0457 14.6859
      vertex -14.521 -15.502 3.52
      vertex -4.28638 -21.4109 15.3379
    endloop
  endfacet
  facet normal -0.499992 -0.86603 -4.89857e-06
    outer loop
      vertex -14.521 -15.502 3.52
      vertex -3.87147 -21.6504 7.69462
      vertex -4.28638 -21.4109 15.3379
    endloop
  endfacet
  facet normal -0.499994 -0.866029 3.82442e-06
    outer loop
      vertex -3.87147 -21.6504 7.69462
      vertex -14.521 -15.502 3.52
      vertex -3.64841 -21.7792 3.58548
    endloop
  endfacet
  facet normal -0.499994 -0.866029 -0
    outer loop
      vertex -3.64841 -21.7792 3.58548
      vertex -14.521 -15.502 3.52
      vertex -3.64841 -21.7792 3.52
    endloop
  endfacet
  facet normal 0.863676 -0.504047 0
    outer loop
      vertex -3.64485 -21.7731 3.52
      vertex -3.64841 -21.7792 3.58548
      vertex -3.64841 -21.7792 3.52
    endloop
  endfacet
  facet normal -0.991563 0 0.129629
    outer loop
      vertex 3.52 -20.4677 28.0791
      vertex 0.309343 -22.3214 3.52
      vertex 0.309343 -22.3305 3.52
    endloop
  endfacet
  facet normal -0.495768 0.858726 0.129629
    outer loop
      vertex 0.309343 -22.6786 3.52
      vertex -2.79177e-07 -26.5645 28.0791
      vertex 3.52 -24.5323 28.0791
    endloop
  endfacet
  facet normal -0.495722 0.858752 0.129633
    outer loop
      vertex -2.79177e-07 -26.5645 28.0791
      vertex 0.309343 -22.6786 3.52
      vertex 0.00791806 -22.8526 3.52
    endloop
  endfacet
  facet normal -0.498094 0.857409 0.129429
    outer loop
      vertex 0.00791806 -22.8526 3.52
      vertex -2.81004e-07 -22.8572 3.52
      vertex -2.79177e-07 -26.5645 28.0791
    endloop
  endfacet
  facet normal -0.495783 -0.858718 0.129627
    outer loop
      vertex 0.309343 -22.3214 3.52
      vertex 2.79177e-07 -18.4355 28.0791
      vertex 2.81004e-07 -22.1428 3.52
    endloop
  endfacet
  facet normal -0.495768 -0.858726 0.129629
    outer loop
      vertex 2.79177e-07 -18.4355 28.0791
      vertex 0.309343 -22.3214 3.52
      vertex 3.52 -20.4677 28.0791
    endloop
  endfacet
  facet normal -0.991563 0 0.129629
    outer loop
      vertex 0.309343 -22.6786 3.52
      vertex 3.52 -20.4677 28.0791
      vertex 0.309343 -22.3305 3.52
    endloop
  endfacet
  facet normal -0.991563 0 0.129629
    outer loop
      vertex 3.52 -20.4677 28.0791
      vertex 0.309343 -22.6786 3.52
      vertex 3.52 -24.5323 28.0791
    endloop
  endfacet
  facet normal 0.495768 -0.858726 0.129629
    outer loop
      vertex -0.309343 -22.3214 3.52
      vertex 2.79177e-07 -18.4355 28.0791
      vertex -3.52 -20.4677 28.0791
    endloop
  endfacet
  facet normal 0.495722 -0.858752 0.129633
    outer loop
      vertex 2.79177e-07 -18.4355 28.0791
      vertex -0.309343 -22.3214 3.52
      vertex -0.00791806 -22.1474 3.52
    endloop
  endfacet
  facet normal 0.498094 -0.857409 0.129429
    outer loop
      vertex 2.79177e-07 -18.4355 28.0791
      vertex -0.00791806 -22.1474 3.52
      vertex 2.81004e-07 -22.1428 3.52
    endloop
  endfacet
  facet normal 0.991563 0 0.129629
    outer loop
      vertex -3.52 -20.4677 28.0791
      vertex -0.309343 -22.6695 3.52
      vertex -0.309343 -22.3214 3.52
    endloop
  endfacet
  facet normal 0.991563 0 0.129629
    outer loop
      vertex -0.309343 -22.6695 3.52
      vertex -3.52 -20.4677 28.0791
      vertex -3.52 -24.5323 28.0791
    endloop
  endfacet
  facet normal 0.991563 0 0.129629
    outer loop
      vertex -0.309343 -22.6695 3.52
      vertex -3.52 -24.5323 28.0791
      vertex -0.309343 -22.6786 3.52
    endloop
  endfacet
  facet normal 0.495783 0.858718 0.129627
    outer loop
      vertex -0.309343 -22.6786 3.52
      vertex -2.79177e-07 -26.5645 28.0791
      vertex -2.81004e-07 -22.8572 3.52
    endloop
  endfacet
  facet normal 0.495768 0.858726 0.129629
    outer loop
      vertex -2.79177e-07 -26.5645 28.0791
      vertex -0.309343 -22.6786 3.52
      vertex -3.52 -24.5323 28.0791
    endloop
  endfacet
  facet normal -0.499987 -0.866033 0
    outer loop
      vertex 2.79177e-07 -18.4355 28.0791
      vertex 3.52 -20.4677 42.1491
      vertex 2.79177e-07 -18.4355 42.1491
    endloop
  endfacet
  facet normal -0.499987 -0.866033 -0
    outer loop
      vertex 3.52 -20.4677 42.1491
      vertex 2.79177e-07 -18.4355 28.0791
      vertex 3.52 -20.4677 28.0791
    endloop
  endfacet
  facet normal -1 0 0
    outer loop
      vertex 3.52 -24.5323 28.0791
      vertex 3.52 -20.4677 42.1491
      vertex 3.52 -20.4677 28.0791
    endloop
  endfacet
  facet normal -1 -0 0
    outer loop
      vertex 3.52 -20.4677 42.1491
      vertex 3.52 -24.5323 28.0791
      vertex 3.52 -24.5323 42.1491
    endloop
  endfacet
  facet normal 0.499987 0.866033 -0
    outer loop
      vertex -2.79177e-07 -26.5645 28.0791
      vertex -3.52 -24.5323 42.1491
      vertex -2.79177e-07 -26.5645 42.1491
    endloop
  endfacet
  facet normal 0.499987 0.866033 0
    outer loop
      vertex -3.52 -24.5323 42.1491
      vertex -2.79177e-07 -26.5645 28.0791
      vertex -3.52 -24.5323 28.0791
    endloop
  endfacet
  facet normal -0.499987 0.866033 0
    outer loop
      vertex 3.52 -24.5323 28.0791
      vertex -2.79177e-07 -26.5645 42.1491
      vertex 3.52 -24.5323 42.1491
    endloop
  endfacet
  facet normal -0.499987 0.866033 0
    outer loop
      vertex -2.79177e-07 -26.5645 42.1491
      vertex 3.52 -24.5323 28.0791
      vertex -2.79177e-07 -26.5645 28.0791
    endloop
  endfacet
  facet normal 1 -0 0
    outer loop
      vertex -3.52 -24.5323 42.1491
      vertex -3.52 -20.4677 28.0791
      vertex -3.52 -20.4677 42.1491
    endloop
  endfacet
  facet normal 1 0 0
    outer loop
      vertex -3.52 -20.4677 28.0791
      vertex -3.52 -24.5323 42.1491
      vertex -3.52 -24.5323 28.0791
    endloop
  endfacet
  facet normal 0.499987 -0.866033 0
    outer loop
      vertex -3.52 -20.4677 28.0791
      vertex 2.79177e-07 -18.4355 42.1491
      vertex -3.52 -20.4677 42.1491
    endloop
  endfacet
  facet normal 0.499987 -0.866033 0
    outer loop
      vertex 2.79177e-07 -18.4355 42.1491
      vertex -3.52 -20.4677 28.0791
      vertex 2.79177e-07 -18.4355 28.0791
    endloop
  endfacet
  facet normal 0 0 1
    outer loop
      vertex 10.5228 13.053 1.2
      vertex 16.5656 -9.56414 1.2
      vertex 16.5656 9.56414 1.2
    endloop
  endfacet
  facet normal 0 0 1
    outer loop
      vertex 10.5228 13.053 1.2
      vertex 6.04281 -15.6395 1.2
      vertex 16.5656 -9.56414 1.2
    endloop
  endfacet
  facet normal -0 0 1
    outer loop
      vertex 2.79177e-07 18.4355 1.2
      vertex 10.5228 13.053 1.2
      vertex 0.599999 18.7819 1.2
    endloop
  endfacet
  facet normal -0 0 1
    outer loop
      vertex -6.04281 15.6395 1.2
      vertex 10.5228 13.053 1.2
      vertex 2.79177e-07 18.4355 1.2
    endloop
  endfacet
  facet normal 0 0 1
    outer loop
      vertex 10.5228 13.053 1.2
      vertex -6.04281 15.6395 1.2
      vertex 6.04281 -15.6395 1.2
    endloop
  endfacet
  facet normal 0 0 1
    outer loop
      vertex 6.04281 -15.6395 1.2
      vertex 2.79177e-07 -18.4355 1.2
      vertex 0.599999 -18.7819 1.2
    endloop
  endfacet
  facet normal 0 0 1
    outer loop
      vertex -6.04281 15.6395 1.2
      vertex 2.79177e-07 18.4355 1.2
      vertex -0.599999 18.7819 1.2
    endloop
  endfacet
  facet normal -0 0 1
    outer loop
      vertex -10.5228 -13.053 1.2
      vertex 6.04281 -15.6395 1.2
      vertex -6.04281 15.6395 1.2
    endloop
  endfacet
  facet normal 0 0 1
    outer loop
      vertex 6.04281 -15.6395 1.2
      vertex -10.5228 -13.053 1.2
      vertex 2.79177e-07 -18.4355 1.2
    endloop
  endfacet
  facet normal 0 0 1
    outer loop
      vertex 2.79177e-07 -18.4355 1.2
      vertex -10.5228 -13.053 1.2
      vertex -0.599999 -18.7819 1.2
    endloop
  endfacet
  facet normal -0 0 1
    outer loop
      vertex -16.5656 9.56414 1.2
      vertex -10.5228 -13.053 1.2
      vertex -6.04281 15.6395 1.2
    endloop
  endfacet
  facet normal 0 0 1
    outer loop
      vertex -10.5228 -13.053 1.2
      vertex -16.5656 9.56414 1.2
      vertex -16.5656 -9.56414 1.2
    endloop
  endfacet
  facet normal 0 0 -1
    outer loop
      vertex 0 -18.4355 0
      vertex 15.9656 9.21773 0
      vertex 15.9656 -9.21773 0
    endloop
  endfacet
  facet normal 0 0 -1
    outer loop
      vertex 0 -18.4355 0
      vertex 0 18.4355 0
      vertex 15.9656 9.21773 0
    endloop
  endfacet
  facet normal 0 0 -1
    outer loop
      vertex -15.9656 -9.21773 0
      vertex 0 18.4355 0
      vertex 0 -18.4355 0
    endloop
  endfacet
  facet normal 0 0 -1
    outer loop
      vertex 0 18.4355 0
      vertex -15.9656 -9.21773 0
      vertex -15.9656 9.21773 0
    endloop
  endfacet
endsolid OpenSCAD_Model
