solid OpenSCAD_Model
  facet normal -0 0 1
    outer loop
      vertex -0.6 51 150.02
      vertex 0.6 -51 150.02
      vertex 0.6 51 150.02
    endloop
  endfacet
  facet normal 0 0 1
    outer loop
      vertex 0.6 -51 150.02
      vertex -0.6 51 150.02
      vertex -0.6 -51 150.02
    endloop
  endfacet
  facet normal 0 0 -1
    outer loop
      vertex -0.6 -51 10
      vertex 0.6 51 10
      vertex 0.6 -51 10
    endloop
  endfacet
  facet normal -0 0 -1
    outer loop
      vertex 0.6 51 10
      vertex -0.6 -51 10
      vertex -0.6 51 10
    endloop
  endfacet
  facet normal 0 -1 0
    outer loop
      vertex -0.6 -51 10
      vertex 0.6 -51 150.02
      vertex -0.6 -51 150.02
    endloop
  endfacet
  facet normal 0 -1 -0
    outer loop
      vertex 0.6 -51 150.02
      vertex -0.6 -51 10
      vertex 0.6 -51 10
    endloop
  endfacet
  facet normal 1 -0 0
    outer loop
      vertex 0.6 -51 150.02
      vertex 0.6 51 10
      vertex 0.6 51 150.02
    endloop
  endfacet
  facet normal 1 0 0
    outer loop
      vertex 0.6 51 10
      vertex 0.6 -51 150.02
      vertex 0.6 -51 10
    endloop
  endfacet
  facet normal 0 1 -0
    outer loop
      vertex 0.6 51 10
      vertex -0.6 51 150.02
      vertex 0.6 51 150.02
    endloop
  endfacet
  facet normal 0 1 0
    outer loop
      vertex -0.6 51 150.02
      vertex 0.6 51 10
      vertex -0.6 51 10
    endloop
  endfacet
  facet normal -1 0 0
    outer loop
      vertex -0.6 -51 10
      vertex -0.6 51 150.02
      vertex -0.6 51 10
    endloop
  endfacet
  facet normal -1 -0 0
    outer loop
      vertex -0.6 51 150.02
      vertex -0.6 -51 10
      vertex -0.6 -51 150.02
    endloop
  endfacet
endsolid OpenSCAD_Model
