solid OpenSCAD_Model
  facet normal 0.980785 0.195091 0
    outer loop
      vertex 5 0 0.2
      vertex 4.6194 1.91342 0
      vertex 4.6194 1.91342 0.2
    endloop
  endfacet
  facet normal 0.980785 0.195091 0
    outer loop
      vertex 4.6194 1.91342 0
      vertex 5 0 0.2
      vertex 5 0 0
    endloop
  endfacet
  facet normal -0.980785 0.195091 0
    outer loop
      vertex -5 0 0
      vertex -4.6194 1.91342 0.2
      vertex -4.6194 1.91342 0
    endloop
  endfacet
  facet normal -0.980785 0.195091 0
    outer loop
      vertex -4.6194 1.91342 0.2
      vertex -5 0 0
      vertex -5 0 0.2
    endloop
  endfacet
  facet normal 0.195091 0.980785 -0
    outer loop
      vertex 1.91342 4.6194 0
      vertex 0 5 0.2
      vertex 1.91342 4.6194 0.2
    endloop
  endfacet
  facet normal 0.195091 0.980785 0
    outer loop
      vertex 0 5 0.2
      vertex 1.91342 4.6194 0
      vertex 0 5 0
    endloop
  endfacet
  facet normal 0.83147 0.55557 0
    outer loop
      vertex 4.6194 1.91342 0.2
      vertex 3.53553 3.53553 0
      vertex 3.53553 3.53553 0.2
    endloop
  endfacet
  facet normal 0.83147 0.55557 0
    outer loop
      vertex 3.53553 3.53553 0
      vertex 4.6194 1.91342 0.2
      vertex 4.6194 1.91342 0
    endloop
  endfacet
  facet normal -0.195091 -0.980785 0
    outer loop
      vertex -1.91342 -4.6194 0
      vertex 0 -5 0.2
      vertex -1.91342 -4.6194 0.2
    endloop
  endfacet
  facet normal -0.195091 -0.980785 -0
    outer loop
      vertex 0 -5 0.2
      vertex -1.91342 -4.6194 0
      vertex 0 -5 0
    endloop
  endfacet
  facet normal 0 0 -1
    outer loop
      vertex 4.6194 -1.91342 0
      vertex 4.6194 1.91342 0
      vertex 5 0 0
    endloop
  endfacet
  facet normal 0 0 -1
    outer loop
      vertex 3.53553 -3.53553 0
      vertex 4.6194 1.91342 0
      vertex 4.6194 -1.91342 0
    endloop
  endfacet
  facet normal 0 0 -1
    outer loop
      vertex 3.53553 -3.53553 0
      vertex 3.53553 3.53553 0
      vertex 4.6194 1.91342 0
    endloop
  endfacet
  facet normal 0 0 -1
    outer loop
      vertex 1.91342 -4.6194 0
      vertex 3.53553 3.53553 0
      vertex 3.53553 -3.53553 0
    endloop
  endfacet
  facet normal 0 0 -1
    outer loop
      vertex 1.91342 -4.6194 0
      vertex 1.91342 4.6194 0
      vertex 3.53553 3.53553 0
    endloop
  endfacet
  facet normal 0 0 -1
    outer loop
      vertex 0 -5 0
      vertex 1.91342 4.6194 0
      vertex 1.91342 -4.6194 0
    endloop
  endfacet
  facet normal 0 0 -1
    outer loop
      vertex 0 -5 0
      vertex 0 5 0
      vertex 1.91342 4.6194 0
    endloop
  endfacet
  facet normal 0 0 -1
    outer loop
      vertex -1.91342 -4.6194 0
      vertex 0 5 0
      vertex 0 -5 0
    endloop
  endfacet
  facet normal 0 0 -1
    outer loop
      vertex -1.91342 -4.6194 0
      vertex -1.91342 4.6194 0
      vertex 0 5 0
    endloop
  endfacet
  facet normal 0 0 -1
    outer loop
      vertex -3.53553 -3.53553 0
      vertex -1.91342 4.6194 0
      vertex -1.91342 -4.6194 0
    endloop
  endfacet
  facet normal 0 0 -1
    outer loop
      vertex -3.53553 -3.53553 0
      vertex -3.53553 3.53553 0
      vertex -1.91342 4.6194 0
    endloop
  endfacet
  facet normal 0 0 -1
    outer loop
      vertex -4.6194 -1.91342 0
      vertex -3.53553 3.53553 0
      vertex -3.53553 -3.53553 0
    endloop
  endfacet
  facet normal 0 0 -1
    outer loop
      vertex -4.6194 -1.91342 0
      vertex -4.6194 1.91342 0
      vertex -3.53553 3.53553 0
    endloop
  endfacet
  facet normal 0 -0 -1
    outer loop
      vertex -4.6194 1.91342 0
      vertex -4.6194 -1.91342 0
      vertex -5 0 0
    endloop
  endfacet
  facet normal 0.55557 0.83147 -0
    outer loop
      vertex 3.53553 3.53553 0
      vertex 1.91342 4.6194 0.2
      vertex 3.53553 3.53553 0.2
    endloop
  endfacet
  facet normal 0.55557 0.83147 0
    outer loop
      vertex 1.91342 4.6194 0.2
      vertex 3.53553 3.53553 0
      vertex 1.91342 4.6194 0
    endloop
  endfacet
  facet normal -0.55557 0.83147 0
    outer loop
      vertex -1.91342 4.6194 0
      vertex -3.53553 3.53553 0.2
      vertex -1.91342 4.6194 0.2
    endloop
  endfacet
  facet normal -0.55557 0.83147 0
    outer loop
      vertex -3.53553 3.53553 0.2
      vertex -1.91342 4.6194 0
      vertex -3.53553 3.53553 0
    endloop
  endfacet
  facet normal -0.83147 0.55557 0
    outer loop
      vertex -4.6194 1.91342 0
      vertex -3.53553 3.53553 0.2
      vertex -3.53553 3.53553 0
    endloop
  endfacet
  facet normal -0.83147 0.55557 0
    outer loop
      vertex -3.53553 3.53553 0.2
      vertex -4.6194 1.91342 0
      vertex -4.6194 1.91342 0.2
    endloop
  endfacet
  facet normal 0 0 1
    outer loop
      vertex 0.799999 0 0.2
      vertex 5 0 0.2
      vertex 4.6194 1.91342 0.2
    endloop
  endfacet
  facet normal 0 0 1
    outer loop
      vertex 0.799999 0 0.2
      vertex 4.6194 1.91342 0.2
      vertex 3.53553 3.53553 0.2
    endloop
  endfacet
  facet normal 0 0 1
    outer loop
      vertex 5 0 0.2
      vertex 0.799999 0 0.2
      vertex 4.6194 -1.91342 0.2
    endloop
  endfacet
  facet normal 0 0 1
    outer loop
      vertex 0.247213 0.760845 0.2
      vertex 3.53553 3.53553 0.2
      vertex 1.91342 4.6194 0.2
    endloop
  endfacet
  facet normal 0 0 1
    outer loop
      vertex 4.6194 -1.91342 0.2
      vertex 0.799999 0 0.2
      vertex 3.53553 -3.53553 0.2
    endloop
  endfacet
  facet normal -0 0 1
    outer loop
      vertex 0.247213 -0.760845 0.2
      vertex 3.53553 -3.53553 0.2
      vertex 0.799999 0 0.2
    endloop
  endfacet
  facet normal 0 0 1
    outer loop
      vertex 3.53553 3.53553 0.2
      vertex 0.247213 0.760845 0.2
      vertex 0.799999 0 0.2
    endloop
  endfacet
  facet normal 0 0 1
    outer loop
      vertex 0 5 0.2
      vertex 0.247213 0.760845 0.2
      vertex 1.91342 4.6194 0.2
    endloop
  endfacet
  facet normal -0 0 1
    outer loop
      vertex -1.91342 4.6194 0.2
      vertex 0.247213 0.760845 0.2
      vertex 0 5 0.2
    endloop
  endfacet
  facet normal -0 0 1
    outer loop
      vertex -3.53553 3.53553 0.2
      vertex -0.647213 0.470228 0.2
      vertex -1.91342 4.6194 0.2
    endloop
  endfacet
  facet normal 0 0 1
    outer loop
      vertex 0.247213 0.760845 0.2
      vertex -1.91342 4.6194 0.2
      vertex -0.647213 0.470228 0.2
    endloop
  endfacet
  facet normal 0 0 1
    outer loop
      vertex 3.53553 -3.53553 0.2
      vertex 0.247213 -0.760845 0.2
      vertex 1.91342 -4.6194 0.2
    endloop
  endfacet
  facet normal 0 0 1
    outer loop
      vertex 0.247213 -0.760845 0.2
      vertex 0 -5 0.2
      vertex 1.91342 -4.6194 0.2
    endloop
  endfacet
  facet normal 0 0 1
    outer loop
      vertex -1.91342 -4.6194 0.2
      vertex 0.247213 -0.760845 0.2
      vertex -0.647213 -0.470228 0.2
    endloop
  endfacet
  facet normal -0 0 1
    outer loop
      vertex -4.6194 1.91342 0.2
      vertex -0.647213 0.470228 0.2
      vertex -3.53553 3.53553 0.2
    endloop
  endfacet
  facet normal 0 0 1
    outer loop
      vertex 0.247213 -0.760845 0.2
      vertex -1.91342 -4.6194 0.2
      vertex 0 -5 0.2
    endloop
  endfacet
  facet normal 0 0 1
    outer loop
      vertex -5 0 0.2
      vertex -0.647213 0.470228 0.2
      vertex -4.6194 1.91342 0.2
    endloop
  endfacet
  facet normal 0 0 1
    outer loop
      vertex -0.647213 -0.470228 0.2
      vertex -3.53553 -3.53553 0.2
      vertex -1.91342 -4.6194 0.2
    endloop
  endfacet
  facet normal 0 0 1
    outer loop
      vertex -0.647213 0.470228 0.2
      vertex -5 0 0.2
      vertex -0.647213 -0.470228 0.2
    endloop
  endfacet
  facet normal 0 0 1
    outer loop
      vertex -0.647213 -0.470228 0.2
      vertex -4.6194 -1.91342 0.2
      vertex -3.53553 -3.53553 0.2
    endloop
  endfacet
  facet normal 0 0 1
    outer loop
      vertex -0.647213 -0.470228 0.2
      vertex -5 0 0.2
      vertex -4.6194 -1.91342 0.2
    endloop
  endfacet
  facet normal -0.195091 0.980785 0
    outer loop
      vertex 0 5 0
      vertex -1.91342 4.6194 0.2
      vertex 0 5 0.2
    endloop
  endfacet
  facet normal -0.195091 0.980785 0
    outer loop
      vertex -1.91342 4.6194 0.2
      vertex 0 5 0
      vertex -1.91342 4.6194 0
    endloop
  endfacet
  facet normal -0.55557 -0.83147 0
    outer loop
      vertex -3.53553 -3.53553 0
      vertex -1.91342 -4.6194 0.2
      vertex -3.53553 -3.53553 0.2
    endloop
  endfacet
  facet normal -0.55557 -0.83147 -0
    outer loop
      vertex -1.91342 -4.6194 0.2
      vertex -3.53553 -3.53553 0
      vertex -1.91342 -4.6194 0
    endloop
  endfacet
  facet normal -0.980785 -0.195091 0
    outer loop
      vertex -4.6194 -1.91342 0
      vertex -5 0 0.2
      vertex -5 0 0
    endloop
  endfacet
  facet normal -0.980785 -0.195091 0
    outer loop
      vertex -5 0 0.2
      vertex -4.6194 -1.91342 0
      vertex -4.6194 -1.91342 0.2
    endloop
  endfacet
  facet normal 0.980785 -0.195091 0
    outer loop
      vertex 4.6194 -1.91342 0.2
      vertex 5 0 0
      vertex 5 0 0.2
    endloop
  endfacet
  facet normal 0.980785 -0.195091 0
    outer loop
      vertex 5 0 0
      vertex 4.6194 -1.91342 0.2
      vertex 4.6194 -1.91342 0
    endloop
  endfacet
  facet normal 0.55557 -0.83147 0
    outer loop
      vertex 1.91342 -4.6194 0
      vertex 3.53553 -3.53553 0.2
      vertex 1.91342 -4.6194 0.2
    endloop
  endfacet
  facet normal 0.55557 -0.83147 0
    outer loop
      vertex 3.53553 -3.53553 0.2
      vertex 1.91342 -4.6194 0
      vertex 3.53553 -3.53553 0
    endloop
  endfacet
  facet normal 0.195091 -0.980785 0
    outer loop
      vertex 0 -5 0
      vertex 1.91342 -4.6194 0.2
      vertex 0 -5 0.2
    endloop
  endfacet
  facet normal 0.195091 -0.980785 0
    outer loop
      vertex 1.91342 -4.6194 0.2
      vertex 0 -5 0
      vertex 1.91342 -4.6194 0
    endloop
  endfacet
  facet normal 0.83147 -0.55557 0
    outer loop
      vertex 3.53553 -3.53553 0.2
      vertex 4.6194 -1.91342 0
      vertex 4.6194 -1.91342 0.2
    endloop
  endfacet
  facet normal 0.83147 -0.55557 0
    outer loop
      vertex 4.6194 -1.91342 0
      vertex 3.53553 -3.53553 0.2
      vertex 3.53553 -3.53553 0
    endloop
  endfacet
  facet normal -0.83147 -0.55557 0
    outer loop
      vertex -3.53553 -3.53553 0
      vertex -4.6194 -1.91342 0.2
      vertex -4.6194 -1.91342 0
    endloop
  endfacet
  facet normal -0.83147 -0.55557 0
    outer loop
      vertex -4.6194 -1.91342 0.2
      vertex -3.53553 -3.53553 0
      vertex -3.53553 -3.53553 0.2
    endloop
  endfacet
  facet normal 0.809017 0.587785 0
    outer loop
      vertex 0.799999 0 32.2
      vertex 0.247213 0.760845 0.2
      vertex 0.247213 0.760845 32.2
    endloop
  endfacet
  facet normal 0.809017 0.587785 0
    outer loop
      vertex 0.247213 0.760845 0.2
      vertex 0.799999 0 32.2
      vertex 0.799999 0 0.2
    endloop
  endfacet
  facet normal -1 0 0
    outer loop
      vertex -0.647213 -0.470228 0.2
      vertex -0.647213 0.470228 32.2
      vertex -0.647213 0.470228 0.2
    endloop
  endfacet
  facet normal -1 -0 0
    outer loop
      vertex -0.647213 0.470228 32.2
      vertex -0.647213 -0.470228 0.2
      vertex -0.647213 -0.470228 32.2
    endloop
  endfacet
  facet normal -0.309017 0.951056 0
    outer loop
      vertex 0.247213 0.760845 0.2
      vertex -0.647213 0.470228 32.2
      vertex 0.247213 0.760845 32.2
    endloop
  endfacet
  facet normal -0.309017 0.951056 0
    outer loop
      vertex -0.647213 0.470228 32.2
      vertex 0.247213 0.760845 0.2
      vertex -0.647213 0.470228 0.2
    endloop
  endfacet
  facet normal 0 0 1
    outer loop
      vertex 0.247213 0.760845 32.2
      vertex 0.247213 -0.760845 32.2
      vertex 0.799999 0 32.2
    endloop
  endfacet
  facet normal -0 0 1
    outer loop
      vertex -0.647213 0.470228 32.2
      vertex 0.247213 -0.760845 32.2
      vertex 0.247213 0.760845 32.2
    endloop
  endfacet
  facet normal 0 0 1
    outer loop
      vertex 0.247213 -0.760845 32.2
      vertex -0.647213 0.470228 32.2
      vertex -0.647213 -0.470228 32.2
    endloop
  endfacet
  facet normal -0.309017 -0.951056 0
    outer loop
      vertex -0.647213 -0.470228 0.2
      vertex 0.247213 -0.760845 32.2
      vertex -0.647213 -0.470228 32.2
    endloop
  endfacet
  facet normal -0.309017 -0.951056 -0
    outer loop
      vertex 0.247213 -0.760845 32.2
      vertex -0.647213 -0.470228 0.2
      vertex 0.247213 -0.760845 0.2
    endloop
  endfacet
  facet normal 0.809017 -0.587785 0
    outer loop
      vertex 0.247213 -0.760845 32.2
      vertex 0.799999 0 0.2
      vertex 0.799999 0 32.2
    endloop
  endfacet
  facet normal 0.809017 -0.587785 0
    outer loop
      vertex 0.799999 0 0.2
      vertex 0.247213 -0.760845 32.2
      vertex 0.247213 -0.760845 0.2
    endloop
  endfacet
endsolid OpenSCAD_Model
