solid OpenSCAD_Model
  facet normal 0 1 -0
    outer loop
      vertex 22.3919 -8 0
      vertex -22.3919 -8 11.99
      vertex 22.3919 -8 11.99
    endloop
  endfacet
  facet normal 0 1 0
    outer loop
      vertex -22.3919 -8 11.99
      vertex 22.3919 -8 0
      vertex -22.3919 -8 0
    endloop
  endfacet
  facet normal 0 0 -1
    outer loop
      vertex 22.3919 8 0
      vertex 21.2669 10.4 0
      vertex 22.3919 9.27502 0
    endloop
  endfacet
  facet normal 0 0 -1
    outer loop
      vertex 22.3919 8 0
      vertex -21.2669 10.4 0
      vertex 21.2669 10.4 0
    endloop
  endfacet
  facet normal 0 0 -1
    outer loop
      vertex -22.3919 8 0
      vertex -21.2669 10.4 0
      vertex 22.3919 8 0
    endloop
  endfacet
  facet normal 0 0 -1
    outer loop
      vertex -21.2669 10.4 0
      vertex -22.3919 8 0
      vertex -22.3919 9.27502 0
    endloop
  endfacet
  facet normal 0 0 -1
    outer loop
      vertex 21.2669 -10.4 0
      vertex 22.3919 -8 0
      vertex 22.3919 -9.27502 0
    endloop
  endfacet
  facet normal 0 0 -1
    outer loop
      vertex -21.2669 -10.4 0
      vertex 22.3919 -8 0
      vertex 21.2669 -10.4 0
    endloop
  endfacet
  facet normal 0 0 -1
    outer loop
      vertex -22.3919 -8 0
      vertex -21.2669 -10.4 0
      vertex -22.3919 -9.27502 0
    endloop
  endfacet
  facet normal 0 0 -1
    outer loop
      vertex -21.2669 -10.4 0
      vertex -22.3919 -8 0
      vertex 22.3919 -8 0
    endloop
  endfacet
  facet normal 0 -1 0
    outer loop
      vertex -21.2669 -10.4 11.99
      vertex -12.1184 -10.4 4.09706
      vertex 21.2669 -10.4 11.99
    endloop
  endfacet
  facet normal 0 -1 0
    outer loop
      vertex -21.2669 -10.4 0
      vertex -12.1184 -10.4 4.09706
      vertex -21.2669 -10.4 11.99
    endloop
  endfacet
  facet normal 0 -1 -0
    outer loop
      vertex -12.1184 -10.4 0.702943
      vertex -21.2669 -10.4 0
      vertex 12.1184 -10.4 0.702943
    endloop
  endfacet
  facet normal 0 -1 -0
    outer loop
      vertex -12.1184 -10.4 4.09706
      vertex -21.2669 -10.4 0
      vertex -12.1184 -10.4 0.702943
    endloop
  endfacet
  facet normal 0 -1 0
    outer loop
      vertex 12.1184 -10.4 4.09706
      vertex 21.2669 -10.4 11.99
      vertex -12.1184 -10.4 4.09706
    endloop
  endfacet
  facet normal 0 -1 0
    outer loop
      vertex 21.2669 -10.4 0
      vertex 12.1184 -10.4 4.09706
      vertex 12.1184 -10.4 0.702943
    endloop
  endfacet
  facet normal 0 -1 0
    outer loop
      vertex 12.1184 -10.4 4.09706
      vertex 21.2669 -10.4 0
      vertex 21.2669 -10.4 11.99
    endloop
  endfacet
  facet normal 0 -1 0
    outer loop
      vertex 21.2669 -10.4 0
      vertex 12.1184 -10.4 0.702943
      vertex -21.2669 -10.4 0
    endloop
  endfacet
  facet normal -1 0 0
    outer loop
      vertex -12.1184 -19.5485 9.85145
      vertex -12.1184 -10.4 4.09706
      vertex -12.1184 -10.4 0.702943
    endloop
  endfacet
  facet normal -1 0 0
    outer loop
      vertex -12.1184 -10.4 4.09706
      vertex -12.1184 -19.5485 9.85145
      vertex -12.1184 -18.2929 11.99
    endloop
  endfacet
  facet normal -1 -0 0
    outer loop
      vertex -12.1184 -18.2929 11.99
      vertex -12.1184 -19.5485 9.85145
      vertex -12.1184 -19.5485 11.99
    endloop
  endfacet
  facet normal 1 -0 0
    outer loop
      vertex 12.1184 -19.5485 9.85145
      vertex 12.1184 -10.4 4.09706
      vertex 12.1184 -18.2929 11.99
    endloop
  endfacet
  facet normal 1 0 0
    outer loop
      vertex 12.1184 -19.5485 9.85145
      vertex 12.1184 -18.2929 11.99
      vertex 12.1184 -19.5485 11.99
    endloop
  endfacet
  facet normal 1 0 0
    outer loop
      vertex 12.1184 -10.4 4.09706
      vertex 12.1184 -19.5485 9.85145
      vertex 12.1184 -10.4 0.702943
    endloop
  endfacet
  facet normal 0 0.707107 0.707107
    outer loop
      vertex 12.1184 -10.4 4.09706
      vertex -12.1184 -18.2929 11.99
      vertex 12.1184 -18.2929 11.99
    endloop
  endfacet
  facet normal 0 0.707107 0.707107
    outer loop
      vertex -12.1184 -18.2929 11.99
      vertex 12.1184 -10.4 4.09706
      vertex -12.1184 -10.4 4.09706
    endloop
  endfacet
  facet normal -6.91045e-08 -0.707107 -0.707107
    outer loop
      vertex -12.1184 -10.4 0.702943
      vertex -9.97985 -21.6871 11.99
      vertex -12.1184 -19.5485 9.85145
    endloop
  endfacet
  facet normal 0 -0.707107 -0.707107
    outer loop
      vertex -9.97985 -21.6871 11.99
      vertex -12.1184 -10.4 0.702943
      vertex 9.97985 -21.6871 11.99
    endloop
  endfacet
  facet normal -0 -0.707107 -0.707107
    outer loop
      vertex 12.1184 -10.4 0.702943
      vertex 9.97985 -21.6871 11.99
      vertex -12.1184 -10.4 0.702943
    endloop
  endfacet
  facet normal 6.91045e-08 -0.707107 -0.707107
    outer loop
      vertex 9.97985 -21.6871 11.99
      vertex 12.1184 -10.4 0.702943
      vertex 12.1184 -19.5485 9.85145
    endloop
  endfacet
  facet normal 0 -1 0
    outer loop
      vertex -22.3919 8 0
      vertex 22.3919 8 11.99
      vertex -22.3919 8 11.99
    endloop
  endfacet
  facet normal 0 -1 -0
    outer loop
      vertex 22.3919 8 11.99
      vertex -22.3919 8 0
      vertex 22.3919 8 0
    endloop
  endfacet
  facet normal 0 1 0
    outer loop
      vertex 21.2669 10.4 11.99
      vertex 12.1184 10.4 4.09706
      vertex -21.2669 10.4 11.99
    endloop
  endfacet
  facet normal 0 1 -0
    outer loop
      vertex 21.2669 10.4 0
      vertex 12.1184 10.4 4.09706
      vertex 21.2669 10.4 11.99
    endloop
  endfacet
  facet normal 0 1 0
    outer loop
      vertex 12.1184 10.4 0.702943
      vertex 21.2669 10.4 0
      vertex -12.1184 10.4 0.702943
    endloop
  endfacet
  facet normal 0 1 0
    outer loop
      vertex 12.1184 10.4 4.09706
      vertex 21.2669 10.4 0
      vertex 12.1184 10.4 0.702943
    endloop
  endfacet
  facet normal 0 1 -0
    outer loop
      vertex -12.1184 10.4 4.09706
      vertex -21.2669 10.4 11.99
      vertex 12.1184 10.4 4.09706
    endloop
  endfacet
  facet normal 0 1 0
    outer loop
      vertex -21.2669 10.4 0
      vertex -12.1184 10.4 4.09706
      vertex -12.1184 10.4 0.702943
    endloop
  endfacet
  facet normal 0 1 0
    outer loop
      vertex -12.1184 10.4 4.09706
      vertex -21.2669 10.4 0
      vertex -21.2669 10.4 11.99
    endloop
  endfacet
  facet normal 0 1 0
    outer loop
      vertex -21.2669 10.4 0
      vertex -12.1184 10.4 0.702943
      vertex 21.2669 10.4 0
    endloop
  endfacet
  facet normal -1 0 0
    outer loop
      vertex -12.1184 19.5485 9.85145
      vertex -12.1184 18.2929 11.99
      vertex -12.1184 19.5485 11.99
    endloop
  endfacet
  facet normal -1 0 0
    outer loop
      vertex -12.1184 10.4 4.09706
      vertex -12.1184 19.5485 9.85145
      vertex -12.1184 10.4 0.702943
    endloop
  endfacet
  facet normal -1 -0 0
    outer loop
      vertex -12.1184 19.5485 9.85145
      vertex -12.1184 10.4 4.09706
      vertex -12.1184 18.2929 11.99
    endloop
  endfacet
  facet normal 1 -0 0
    outer loop
      vertex 12.1184 18.2929 11.99
      vertex 12.1184 19.5485 9.85145
      vertex 12.1184 19.5485 11.99
    endloop
  endfacet
  facet normal 1 0 0
    outer loop
      vertex 12.1184 10.4 4.09706
      vertex 12.1184 19.5485 9.85145
      vertex 12.1184 18.2929 11.99
    endloop
  endfacet
  facet normal 1 0 0
    outer loop
      vertex 12.1184 19.5485 9.85145
      vertex 12.1184 10.4 4.09706
      vertex 12.1184 10.4 0.702943
    endloop
  endfacet
  facet normal 0 -0.707107 0.707107
    outer loop
      vertex -12.1184 10.4 4.09706
      vertex 12.1184 18.2929 11.99
      vertex -12.1184 18.2929 11.99
    endloop
  endfacet
  facet normal 0 -0.707107 0.707107
    outer loop
      vertex 12.1184 18.2929 11.99
      vertex -12.1184 10.4 4.09706
      vertex 12.1184 10.4 4.09706
    endloop
  endfacet
  facet normal 6.91045e-08 0.707107 -0.707107
    outer loop
      vertex 12.1184 10.4 0.702943
      vertex 9.97985 21.6871 11.99
      vertex 12.1184 19.5485 9.85145
    endloop
  endfacet
  facet normal 0 0.707107 -0.707107
    outer loop
      vertex 9.97985 21.6871 11.99
      vertex 12.1184 10.4 0.702943
      vertex -9.97985 21.6871 11.99
    endloop
  endfacet
  facet normal 0 0.707107 -0.707107
    outer loop
      vertex -12.1184 10.4 0.702943
      vertex -9.97985 21.6871 11.99
      vertex 12.1184 10.4 0.702943
    endloop
  endfacet
  facet normal -6.91045e-08 0.707107 -0.707107
    outer loop
      vertex -9.97985 21.6871 11.99
      vertex -12.1184 10.4 0.702943
      vertex -12.1184 19.5485 9.85145
    endloop
  endfacet
  facet normal 0.707105 0.707108 -2.7032e-07
    outer loop
      vertex 12.4122 19.2547 13.7941
      vertex 12.1184 19.5485 11.99
      vertex 11.9354 19.7316 13.9748
    endloop
  endfacet
  facet normal 0.707107 0.707106 -9.26613e-07
    outer loop
      vertex 12.8931 18.7738 13.637
      vertex 12.1184 19.5485 11.99
      vertex 12.4122 19.2547 13.7941
    endloop
  endfacet
  facet normal 0.707107 0.707107 -3.6255e-07
    outer loop
      vertex 13.3777 18.2892 13.5038
      vertex 12.1184 19.5485 11.99
      vertex 12.8931 18.7738 13.637
    endloop
  endfacet
  facet normal 0.707107 0.707107 -3.75491e-07
    outer loop
      vertex 13.8652 17.8017 13.3946
      vertex 12.1184 19.5485 11.99
      vertex 13.3777 18.2892 13.5038
    endloop
  endfacet
  facet normal 0.707107 0.707107 -3.94826e-07
    outer loop
      vertex 14.3552 17.3117 13.3096
      vertex 12.1184 19.5485 11.99
      vertex 13.8652 17.8017 13.3946
    endloop
  endfacet
  facet normal 0.707107 0.707107 -4.22441e-07
    outer loop
      vertex 14.8469 16.82 13.2487
      vertex 12.1184 19.5485 11.99
      vertex 14.3552 17.3117 13.3096
    endloop
  endfacet
  facet normal 0.707107 0.707107 -4.61584e-07
    outer loop
      vertex 15.3399 16.327 13.2122
      vertex 12.1184 19.5485 11.99
      vertex 14.8469 16.82 13.2487
    endloop
  endfacet
  facet normal 0.707107 0.707107 -5.18051e-07
    outer loop
      vertex 15.8335 15.8335 13.2
      vertex 12.1184 19.5485 11.99
      vertex 15.3399 16.327 13.2122
    endloop
  endfacet
  facet normal 0.707107 0.707107 -6.03016e-07
    outer loop
      vertex 16.327 15.3399 13.2122
      vertex 12.1184 19.5485 11.99
      vertex 15.8335 15.8335 13.2
    endloop
  endfacet
  facet normal 0.707107 0.707107 0
    outer loop
      vertex 21.2669 10.4 11.99
      vertex 16.327 15.3399 13.2122
      vertex 16.82 14.8469 13.2487
    endloop
  endfacet
  facet normal 0.707107 0.707107 0
    outer loop
      vertex 21.2669 10.4 11.99
      vertex 16.82 14.8469 13.2487
      vertex 17.3117 14.3552 13.3096
    endloop
  endfacet
  facet normal 0.707107 0.707107 0
    outer loop
      vertex 21.2669 10.4 11.99
      vertex 17.3117 14.3552 13.3096
      vertex 17.8017 13.8652 13.3946
    endloop
  endfacet
  facet normal 0.707107 0.707107 0
    outer loop
      vertex 21.2669 10.4 11.99
      vertex 17.8017 13.8652 13.3946
      vertex 18.2892 13.3777 13.5038
    endloop
  endfacet
  facet normal 0.707107 0.707107 -2.97932e-07
    outer loop
      vertex 16.327 15.3399 13.2122
      vertex 21.2669 10.4 11.99
      vertex 12.1184 19.5485 11.99
    endloop
  endfacet
  facet normal 0.707107 0.707107 0
    outer loop
      vertex 18.7738 12.8931 13.637
      vertex 21.2669 10.4 11.99
      vertex 18.2892 13.3777 13.5038
    endloop
  endfacet
  facet normal 0.707106 0.707107 -1.42032e-06
    outer loop
      vertex 19.2547 12.4122 13.7941
      vertex 21.2669 10.4 11.99
      vertex 18.7738 12.8931 13.637
    endloop
  endfacet
  facet normal 0.707108 0.707106 1.95485e-06
    outer loop
      vertex 19.7316 11.9354 13.9748
      vertex 21.2669 10.4 11.99
      vertex 19.2547 12.4122 13.7941
    endloop
  endfacet
  facet normal 0.707106 0.707107 -5.73486e-07
    outer loop
      vertex 20.2036 11.4633 14.1789
      vertex 21.2669 10.4 11.99
      vertex 19.7316 11.9354 13.9748
    endloop
  endfacet
  facet normal 0.707107 0.707107 0
    outer loop
      vertex 20.6703 10.9966 14.4061
      vertex 21.2669 10.4 11.99
      vertex 20.2036 11.4633 14.1789
    endloop
  endfacet
  facet normal 0.707107 0.707107 0
    outer loop
      vertex 21.1312 10.5357 14.6563
      vertex 21.2669 10.4 11.99
      vertex 20.6703 10.9966 14.4061
    endloop
  endfacet
  facet normal 0.707107 0.707107 0
    outer loop
      vertex 21.5856 10.0813 14.9291
      vertex 21.2669 10.4 11.99
      vertex 21.1312 10.5357 14.6563
    endloop
  endfacet
  facet normal 0.707107 0.707107 0
    outer loop
      vertex 22.033 9.63395 15.2241
      vertex 21.2669 10.4 11.99
      vertex 21.5856 10.0813 14.9291
    endloop
  endfacet
  facet normal 0.707106 0.707108 5.36612e-07
    outer loop
      vertex 22.3919 9.27502 15.4828
      vertex 21.2669 10.4 11.99
      vertex 22.033 9.63395 15.2241
    endloop
  endfacet
  facet normal 0.707106 0.707107 0
    outer loop
      vertex 21.2669 10.4 11.99
      vertex 22.3919 9.27502 15.4828
      vertex 22.3919 9.27502 0
    endloop
  endfacet
  facet normal 0.707106 0.707107 0
    outer loop
      vertex 21.2669 10.4 11.99
      vertex 22.3919 9.27502 0
      vertex 21.2669 10.4 0
    endloop
  endfacet
  facet normal 0.707108 0.707106 0
    outer loop
      vertex 9.63395 22.033 15.2241
      vertex 9.27502 22.3919 11.99
      vertex 9.27502 22.3919 15.4828
    endloop
  endfacet
  facet normal 0.707107 0.707107 1.94291e-07
    outer loop
      vertex 10.0813 21.5856 14.9291
      vertex 9.27502 22.3919 11.99
      vertex 9.63395 22.033 15.2241
    endloop
  endfacet
  facet normal 0.707107 0.707107 1.96999e-07
    outer loop
      vertex 10.5357 21.1312 14.6563
      vertex 9.27502 22.3919 11.99
      vertex 10.0813 21.5856 14.9291
    endloop
  endfacet
  facet normal 0.707108 0.707106 -6.51838e-07
    outer loop
      vertex 9.27502 22.3919 11.99
      vertex 10.5357 21.1312 14.6563
      vertex 9.97985 21.6871 11.99
    endloop
  endfacet
  facet normal 0.707107 0.707107 -2.272e-07
    outer loop
      vertex 10.9966 20.6703 14.4061
      vertex 9.97985 21.6871 11.99
      vertex 10.5357 21.1312 14.6563
    endloop
  endfacet
  facet normal 0.707107 0.707107 -2.31637e-07
    outer loop
      vertex 11.4633 20.2036 14.1789
      vertex 9.97985 21.6871 11.99
      vertex 10.9966 20.6703 14.4061
    endloop
  endfacet
  facet normal 0.707108 0.707106 1.3722e-07
    outer loop
      vertex 12.1184 19.5485 11.99
      vertex 11.4633 20.2036 14.1789
      vertex 11.9354 19.7316 13.9748
    endloop
  endfacet
  facet normal 0.707107 0.707107 -3.08081e-07
    outer loop
      vertex 11.4633 20.2036 14.1789
      vertex 12.1184 19.5485 11.99
      vertex 9.97985 21.6871 11.99
    endloop
  endfacet
  facet normal 0.707107 0.707107 0
    outer loop
      vertex 9.97985 21.6871 11.99
      vertex 12.1184 19.5485 11.99
      vertex 12.1184 19.5485 9.85145
    endloop
  endfacet
  facet normal -1 0 0
    outer loop
      vertex -22.3919 -9.27502 0
      vertex -22.3919 -8 11.99
      vertex -22.3919 -8 0
    endloop
  endfacet
  facet normal -1 0 0
    outer loop
      vertex -22.3919 -8 11.99
      vertex -22.3919 -9.11322 15.541
      vertex -22.3919 -8.24975 15.8795
    endloop
  endfacet
  facet normal -1 -0 0
    outer loop
      vertex -22.3919 -8 11.99
      vertex -22.3919 -9.27502 0
      vertex -22.3919 -9.27502 15.4828
    endloop
  endfacet
  facet normal -1 0 0
    outer loop
      vertex -22.3919 -8 11.99
      vertex -22.3919 -9.27502 15.4828
      vertex -22.3919 -9.11322 15.541
    endloop
  endfacet
  facet normal -1 0 0
    outer loop
      vertex -22.3919 8 11.99
      vertex -22.3919 9.27502 0
      vertex -22.3919 8 0
    endloop
  endfacet
  facet normal -1 0 0
    outer loop
      vertex -22.3919 9.27502 0
      vertex -22.3919 8 11.99
      vertex -22.3919 9.27502 33.2
    endloop
  endfacet
  facet normal -1 0 0
    outer loop
      vertex -22.3919 4.7967 27.6873
      vertex -22.3919 9.27502 33.2
      vertex -22.3919 8 11.99
    endloop
  endfacet
  facet normal -1 -0 0
    outer loop
      vertex -22.3919 9.27502 33.2
      vertex -22.3919 5.87516 32.502
      vertex -22.3919 5.89239 33.2
    endloop
  endfacet
  facet normal -1 0 0
    outer loop
      vertex -22.3919 9.27502 33.2
      vertex -22.3919 5.82349 31.8049
      vertex -22.3919 5.87516 32.502
    endloop
  endfacet
  facet normal -1 0 0
    outer loop
      vertex -22.3919 9.27502 33.2
      vertex -22.3919 5.73744 31.1094
      vertex -22.3919 5.82349 31.8049
    endloop
  endfacet
  facet normal -1 0 0
    outer loop
      vertex -22.3919 9.27502 33.2
      vertex -22.3919 5.61713 30.4165
      vertex -22.3919 5.73744 31.1094
    endloop
  endfacet
  facet normal -1 0 0
    outer loop
      vertex -22.3919 9.27502 33.2
      vertex -22.3919 5.46269 29.727
      vertex -22.3919 5.61713 30.4165
    endloop
  endfacet
  facet normal -1 0 0
    outer loop
      vertex -22.3919 9.27502 33.2
      vertex -22.3919 5.27431 29.0418
      vertex -22.3919 5.46269 29.727
    endloop
  endfacet
  facet normal -1 0 0
    outer loop
      vertex -22.3919 9.27502 33.2
      vertex -22.3919 5.05223 28.3616
      vertex -22.3919 5.27431 29.0418
    endloop
  endfacet
  facet normal -1 0 0
    outer loop
      vertex -22.3919 9.27502 33.2
      vertex -22.3919 4.7967 27.6873
      vertex -22.3919 5.05223 28.3616
    endloop
  endfacet
  facet normal -1 0 0
    outer loop
      vertex -22.3919 8 11.99
      vertex -22.3919 4.50806 27.0197
      vertex -22.3919 4.7967 27.6873
    endloop
  endfacet
  facet normal -1 0 0
    outer loop
      vertex -22.3919 8 11.99
      vertex -22.3919 4.18664 26.3596
      vertex -22.3919 4.50806 27.0197
    endloop
  endfacet
  facet normal -1 0 0
    outer loop
      vertex -22.3919 8 11.99
      vertex -22.3919 3.83284 25.7079
      vertex -22.3919 4.18664 26.3596
    endloop
  endfacet
  facet normal -1 0 0
    outer loop
      vertex -22.3919 8 11.99
      vertex -22.3919 3.44708 25.0653
      vertex -22.3919 3.83284 25.7079
    endloop
  endfacet
  facet normal -1 0 0
    outer loop
      vertex -22.3919 8 11.99
      vertex -22.3919 3.02985 24.4326
      vertex -22.3919 3.44708 25.0653
    endloop
  endfacet
  facet normal -1 0 0
    outer loop
      vertex -22.3919 8 11.99
      vertex -22.3919 2.58165 23.8106
      vertex -22.3919 3.02985 24.4326
    endloop
  endfacet
  facet normal -1 0 0
    outer loop
      vertex -22.3919 8 11.99
      vertex -22.3919 2.10301 23.2
      vertex -22.3919 2.58165 23.8106
    endloop
  endfacet
  facet normal -1 0 0
    outer loop
      vertex -22.3919 8 11.99
      vertex -22.3919 1.59454 22.6016
      vertex -22.3919 2.10301 23.2
    endloop
  endfacet
  facet normal -1 0 0
    outer loop
      vertex -22.3919 8 11.99
      vertex -22.3919 1.05684 22.0161
      vertex -22.3919 1.59454 22.6016
    endloop
  endfacet
  facet normal -1 0 0
    outer loop
      vertex -22.3919 8 11.99
      vertex -22.3919 0.490574 21.4443
      vertex -22.3919 1.05684 22.0161
    endloop
  endfacet
  facet normal -1 0 0
    outer loop
      vertex -22.3919 8 11.99
      vertex -22.3919 -0.103573 20.8868
      vertex -22.3919 0.490574 21.4443
    endloop
  endfacet
  facet normal -1 0 0
    outer loop
      vertex -22.3919 8 11.99
      vertex -22.3919 -0.724874 20.3442
      vertex -22.3919 -0.103573 20.8868
    endloop
  endfacet
  facet normal -1 0 0
    outer loop
      vertex -22.3919 8 11.99
      vertex -22.3919 -1.37257 19.8174
      vertex -22.3919 -0.724874 20.3442
    endloop
  endfacet
  facet normal -1 0 0
    outer loop
      vertex -22.3919 8 11.99
      vertex -22.3919 -2.04588 19.3068
      vertex -22.3919 -1.37257 19.8174
    endloop
  endfacet
  facet normal -1 0 0
    outer loop
      vertex -22.3919 8 11.99
      vertex -22.3919 -2.74398 18.8132
      vertex -22.3919 -2.04588 19.3068
    endloop
  endfacet
  facet normal -1 0 0
    outer loop
      vertex -22.3919 8 11.99
      vertex -22.3919 -3.46601 18.3371
      vertex -22.3919 -2.74398 18.8132
    endloop
  endfacet
  facet normal -1 0 0
    outer loop
      vertex -22.3919 8 11.99
      vertex -22.3919 -4.2111 17.8791
      vertex -22.3919 -3.46601 18.3371
    endloop
  endfacet
  facet normal -1 0 0
    outer loop
      vertex -22.3919 -8 11.99
      vertex -22.3919 -4.2111 17.8791
      vertex -22.3919 8 11.99
    endloop
  endfacet
  facet normal -1 0 0
    outer loop
      vertex -22.3919 -4.2111 17.8791
      vertex -22.3919 -8 11.99
      vertex -22.3919 -4.97835 17.4398
    endloop
  endfacet
  facet normal -1 0 0
    outer loop
      vertex -22.3919 -4.97835 17.4398
      vertex -22.3919 -8 11.99
      vertex -22.3919 -5.76681 17.0197
    endloop
  endfacet
  facet normal -1 0 0
    outer loop
      vertex -22.3919 -5.76681 17.0197
      vertex -22.3919 -8 11.99
      vertex -22.3919 -6.57552 16.6192
    endloop
  endfacet
  facet normal -1 0 0
    outer loop
      vertex -22.3919 -6.57552 16.6192
      vertex -22.3919 -8 11.99
      vertex -22.3919 -7.4035 16.239
    endloop
  endfacet
  facet normal -1 0 0
    outer loop
      vertex -22.3919 -7.4035 16.239
      vertex -22.3919 -8 11.99
      vertex -22.3919 -8.24975 15.8795
    endloop
  endfacet
  facet normal -0.707106 0.707107 0
    outer loop
      vertex -21.2669 10.4 0
      vertex -22.3919 9.27502 0
      vertex -21.2669 10.4 11.99
    endloop
  endfacet
  facet normal -0.707108 0.707106 0
    outer loop
      vertex -9.97985 21.6871 11.99
      vertex -9.27502 22.3919 33.2
      vertex -9.27502 22.3919 11.99
    endloop
  endfacet
  facet normal -0.707107 0.707107 0
    outer loop
      vertex -12.1184 19.5485 11.99
      vertex -9.97985 21.6871 11.99
      vertex -12.1184 19.5485 9.85145
    endloop
  endfacet
  facet normal -0.707107 0.707107 -6.35879e-08
    outer loop
      vertex -9.97985 21.6871 11.99
      vertex -12.1184 19.5485 11.99
      vertex -9.27502 22.3919 33.2
    endloop
  endfacet
  facet normal -0.707107 0.707107 -2.78843e-08
    outer loop
      vertex -22.3919 9.27502 33.2
      vertex -12.1184 19.5485 11.99
      vertex -21.2669 10.4 11.99
    endloop
  endfacet
  facet normal -0.707107 0.707107 -6.35879e-08
    outer loop
      vertex -12.1184 19.5485 11.99
      vertex -22.3919 9.27502 33.2
      vertex -9.27502 22.3919 33.2
    endloop
  endfacet
  facet normal -0.707106 0.707107 0
    outer loop
      vertex -22.3919 9.27502 33.2
      vertex -21.2669 10.4 11.99
      vertex -22.3919 9.27502 0
    endloop
  endfacet
  facet normal 0.707106 -0.707107 0
    outer loop
      vertex 22.3919 -9.27502 33.2
      vertex 21.2669 -10.4 11.99
      vertex 22.3919 -9.27502 0
    endloop
  endfacet
  facet normal 0.707107 -0.707107 -2.78843e-08
    outer loop
      vertex 22.3919 -9.27502 33.2
      vertex 12.1184 -19.5485 11.99
      vertex 21.2669 -10.4 11.99
    endloop
  endfacet
  facet normal 0.707107 -0.707107 0
    outer loop
      vertex 12.1184 -19.5485 11.99
      vertex 9.97985 -21.6871 11.99
      vertex 12.1184 -19.5485 9.85145
    endloop
  endfacet
  facet normal 0.707107 -0.707107 -6.35879e-08
    outer loop
      vertex 9.27502 -22.3919 33.2
      vertex 12.1184 -19.5485 11.99
      vertex 22.3919 -9.27502 33.2
    endloop
  endfacet
  facet normal 0.707107 -0.707107 -6.35879e-08
    outer loop
      vertex 12.1184 -19.5485 11.99
      vertex 9.27502 -22.3919 33.2
      vertex 9.97985 -21.6871 11.99
    endloop
  endfacet
  facet normal 0.707108 -0.707106 0
    outer loop
      vertex 9.97985 -21.6871 11.99
      vertex 9.27502 -22.3919 33.2
      vertex 9.27502 -22.3919 11.99
    endloop
  endfacet
  facet normal 0.707106 -0.707107 0
    outer loop
      vertex 22.3919 -9.27502 0
      vertex 21.2669 -10.4 11.99
      vertex 21.2669 -10.4 0
    endloop
  endfacet
  facet normal -0.707107 -0.707107 0
    outer loop
      vertex -9.97985 -21.6871 11.99
      vertex -12.1184 -19.5485 11.99
      vertex -12.1184 -19.5485 9.85145
    endloop
  endfacet
  facet normal -0.707107 -0.707107 -3.08081e-07
    outer loop
      vertex -11.4633 -20.2036 14.1789
      vertex -12.1184 -19.5485 11.99
      vertex -9.97985 -21.6871 11.99
    endloop
  endfacet
  facet normal -0.707108 -0.707106 1.3722e-07
    outer loop
      vertex -12.1184 -19.5485 11.99
      vertex -11.4633 -20.2036 14.1789
      vertex -11.9354 -19.7316 13.9748
    endloop
  endfacet
  facet normal -0.707107 -0.707107 -2.31637e-07
    outer loop
      vertex -11.4633 -20.2036 14.1789
      vertex -9.97985 -21.6871 11.99
      vertex -10.9966 -20.6703 14.4061
    endloop
  endfacet
  facet normal -0.707107 -0.707107 -2.272e-07
    outer loop
      vertex -10.9966 -20.6703 14.4061
      vertex -9.97985 -21.6871 11.99
      vertex -10.5357 -21.1312 14.6563
    endloop
  endfacet
  facet normal -0.707108 -0.707106 -6.51838e-07
    outer loop
      vertex -9.27502 -22.3919 11.99
      vertex -10.5357 -21.1312 14.6563
      vertex -9.97985 -21.6871 11.99
    endloop
  endfacet
  facet normal -0.707107 -0.707107 1.96999e-07
    outer loop
      vertex -10.5357 -21.1312 14.6563
      vertex -9.27502 -22.3919 11.99
      vertex -10.0813 -21.5856 14.9291
    endloop
  endfacet
  facet normal -0.707107 -0.707107 1.94291e-07
    outer loop
      vertex -10.0813 -21.5856 14.9291
      vertex -9.27502 -22.3919 11.99
      vertex -9.63395 -22.033 15.2241
    endloop
  endfacet
  facet normal -0.707108 -0.707106 0
    outer loop
      vertex -9.63395 -22.033 15.2241
      vertex -9.27502 -22.3919 11.99
      vertex -9.27502 -22.3919 15.4828
    endloop
  endfacet
  facet normal -0.707106 -0.707107 0
    outer loop
      vertex -21.2669 -10.4 11.99
      vertex -22.3919 -9.27502 15.4828
      vertex -22.3919 -9.27502 0
    endloop
  endfacet
  facet normal -0.707106 -0.707108 5.36612e-07
    outer loop
      vertex -22.3919 -9.27502 15.4828
      vertex -21.2669 -10.4 11.99
      vertex -22.033 -9.63395 15.2241
    endloop
  endfacet
  facet normal -0.707106 -0.707107 -0
    outer loop
      vertex -21.2669 -10.4 11.99
      vertex -22.3919 -9.27502 0
      vertex -21.2669 -10.4 0
    endloop
  endfacet
  facet normal -0.707107 -0.707107 0
    outer loop
      vertex -22.033 -9.63395 15.2241
      vertex -21.2669 -10.4 11.99
      vertex -21.5856 -10.0813 14.9291
    endloop
  endfacet
  facet normal -0.707107 -0.707107 0
    outer loop
      vertex -21.2669 -10.4 11.99
      vertex -21.1312 -10.5357 14.6563
      vertex -21.5856 -10.0813 14.9291
    endloop
  endfacet
  facet normal -0.707107 -0.707107 0
    outer loop
      vertex -21.2669 -10.4 11.99
      vertex -20.6703 -10.9966 14.4061
      vertex -21.1312 -10.5357 14.6563
    endloop
  endfacet
  facet normal -0.707107 -0.707107 0
    outer loop
      vertex -21.2669 -10.4 11.99
      vertex -20.2036 -11.4633 14.1789
      vertex -20.6703 -10.9966 14.4061
    endloop
  endfacet
  facet normal -0.707106 -0.707107 -5.73486e-07
    outer loop
      vertex -21.2669 -10.4 11.99
      vertex -19.7316 -11.9354 13.9748
      vertex -20.2036 -11.4633 14.1789
    endloop
  endfacet
  facet normal -0.707108 -0.707106 1.95485e-06
    outer loop
      vertex -21.2669 -10.4 11.99
      vertex -19.2547 -12.4122 13.7941
      vertex -19.7316 -11.9354 13.9748
    endloop
  endfacet
  facet normal -0.707106 -0.707107 -1.42032e-06
    outer loop
      vertex -21.2669 -10.4 11.99
      vertex -18.7738 -12.8931 13.637
      vertex -19.2547 -12.4122 13.7941
    endloop
  endfacet
  facet normal -0.707107 -0.707107 0
    outer loop
      vertex -21.2669 -10.4 11.99
      vertex -18.2892 -13.3777 13.5038
      vertex -18.7738 -12.8931 13.637
    endloop
  endfacet
  facet normal -0.707107 -0.707107 0
    outer loop
      vertex -21.2669 -10.4 11.99
      vertex -17.8017 -13.8652 13.3946
      vertex -18.2892 -13.3777 13.5038
    endloop
  endfacet
  facet normal -0.707107 -0.707107 0
    outer loop
      vertex -21.2669 -10.4 11.99
      vertex -17.3117 -14.3552 13.3096
      vertex -17.8017 -13.8652 13.3946
    endloop
  endfacet
  facet normal -0.707107 -0.707107 0
    outer loop
      vertex -21.2669 -10.4 11.99
      vertex -16.82 -14.8469 13.2487
      vertex -17.3117 -14.3552 13.3096
    endloop
  endfacet
  facet normal -0.707107 -0.707107 0
    outer loop
      vertex -21.2669 -10.4 11.99
      vertex -16.327 -15.3399 13.2122
      vertex -16.82 -14.8469 13.2487
    endloop
  endfacet
  facet normal -0.707107 -0.707107 -2.97932e-07
    outer loop
      vertex -12.1184 -19.5485 11.99
      vertex -16.327 -15.3399 13.2122
      vertex -21.2669 -10.4 11.99
    endloop
  endfacet
  facet normal -0.707107 -0.707107 -6.03016e-07
    outer loop
      vertex -16.327 -15.3399 13.2122
      vertex -12.1184 -19.5485 11.99
      vertex -15.8335 -15.8335 13.2
    endloop
  endfacet
  facet normal -0.707107 -0.707107 -5.18051e-07
    outer loop
      vertex -15.8335 -15.8335 13.2
      vertex -12.1184 -19.5485 11.99
      vertex -15.3399 -16.327 13.2122
    endloop
  endfacet
  facet normal -0.707107 -0.707107 -4.61584e-07
    outer loop
      vertex -15.3399 -16.327 13.2122
      vertex -12.1184 -19.5485 11.99
      vertex -14.8469 -16.82 13.2487
    endloop
  endfacet
  facet normal -0.707107 -0.707107 -4.22441e-07
    outer loop
      vertex -14.8469 -16.82 13.2487
      vertex -12.1184 -19.5485 11.99
      vertex -14.3552 -17.3117 13.3096
    endloop
  endfacet
  facet normal -0.707107 -0.707107 -3.94826e-07
    outer loop
      vertex -14.3552 -17.3117 13.3096
      vertex -12.1184 -19.5485 11.99
      vertex -13.8652 -17.8017 13.3946
    endloop
  endfacet
  facet normal -0.707107 -0.707107 -3.75491e-07
    outer loop
      vertex -12.1184 -19.5485 11.99
      vertex -13.3777 -18.2892 13.5038
      vertex -13.8652 -17.8017 13.3946
    endloop
  endfacet
  facet normal -0.707107 -0.707107 -3.6255e-07
    outer loop
      vertex -12.1184 -19.5485 11.99
      vertex -12.8931 -18.7738 13.637
      vertex -13.3777 -18.2892 13.5038
    endloop
  endfacet
  facet normal -0.707107 -0.707106 -9.26613e-07
    outer loop
      vertex -12.1184 -19.5485 11.99
      vertex -12.4122 -19.2547 13.7941
      vertex -12.8931 -18.7738 13.637
    endloop
  endfacet
  facet normal -0.707105 -0.707108 -2.7032e-07
    outer loop
      vertex -12.4122 -19.2547 13.7941
      vertex -12.1184 -19.5485 11.99
      vertex -11.9354 -19.7316 13.9748
    endloop
  endfacet
  facet normal 1 0 0
    outer loop
      vertex 22.3919 7.4035 16.239
      vertex 22.3919 8 11.99
      vertex 22.3919 8.24975 15.8795
    endloop
  endfacet
  facet normal 1 0 0
    outer loop
      vertex 22.3919 6.57552 16.6192
      vertex 22.3919 8 11.99
      vertex 22.3919 7.4035 16.239
    endloop
  endfacet
  facet normal 1 0 0
    outer loop
      vertex 22.3919 5.76681 17.0197
      vertex 22.3919 8 11.99
      vertex 22.3919 6.57552 16.6192
    endloop
  endfacet
  facet normal 1 0 0
    outer loop
      vertex 22.3919 4.97835 17.4398
      vertex 22.3919 8 11.99
      vertex 22.3919 5.76681 17.0197
    endloop
  endfacet
  facet normal 1 0 0
    outer loop
      vertex 22.3919 4.2111 17.8791
      vertex 22.3919 8 11.99
      vertex 22.3919 4.97835 17.4398
    endloop
  endfacet
  facet normal 1 0 0
    outer loop
      vertex 22.3919 -8 11.99
      vertex 22.3919 4.2111 17.8791
      vertex 22.3919 3.46601 18.3371
    endloop
  endfacet
  facet normal 1 0 0
    outer loop
      vertex 22.3919 -8 11.99
      vertex 22.3919 3.46601 18.3371
      vertex 22.3919 2.74398 18.8132
    endloop
  endfacet
  facet normal 1 0 0
    outer loop
      vertex 22.3919 -8 11.99
      vertex 22.3919 2.74398 18.8132
      vertex 22.3919 2.04588 19.3068
    endloop
  endfacet
  facet normal 1 0 0
    outer loop
      vertex 22.3919 -8 11.99
      vertex 22.3919 2.04588 19.3068
      vertex 22.3919 1.37257 19.8174
    endloop
  endfacet
  facet normal 1 0 0
    outer loop
      vertex 22.3919 -8 11.99
      vertex 22.3919 1.37257 19.8174
      vertex 22.3919 0.724874 20.3442
    endloop
  endfacet
  facet normal 1 0 0
    outer loop
      vertex 22.3919 -8 11.99
      vertex 22.3919 0.724874 20.3442
      vertex 22.3919 0.103573 20.8868
    endloop
  endfacet
  facet normal 1 0 0
    outer loop
      vertex 22.3919 -8 11.99
      vertex 22.3919 0.103573 20.8868
      vertex 22.3919 -0.490574 21.4443
    endloop
  endfacet
  facet normal 1 0 0
    outer loop
      vertex 22.3919 -8 11.99
      vertex 22.3919 -0.490574 21.4443
      vertex 22.3919 -1.05684 22.0161
    endloop
  endfacet
  facet normal 1 0 0
    outer loop
      vertex 22.3919 -8 11.99
      vertex 22.3919 -1.05684 22.0161
      vertex 22.3919 -1.59454 22.6016
    endloop
  endfacet
  facet normal 1 0 0
    outer loop
      vertex 22.3919 4.2111 17.8791
      vertex 22.3919 -8 11.99
      vertex 22.3919 8 11.99
    endloop
  endfacet
  facet normal 1 0 0
    outer loop
      vertex 22.3919 -2.10301 23.2
      vertex 22.3919 -8 11.99
      vertex 22.3919 -1.59454 22.6016
    endloop
  endfacet
  facet normal 1 0 0
    outer loop
      vertex 22.3919 -2.58165 23.8106
      vertex 22.3919 -8 11.99
      vertex 22.3919 -2.10301 23.2
    endloop
  endfacet
  facet normal 1 0 0
    outer loop
      vertex 22.3919 -3.02985 24.4326
      vertex 22.3919 -8 11.99
      vertex 22.3919 -2.58165 23.8106
    endloop
  endfacet
  facet normal 1 0 0
    outer loop
      vertex 22.3919 -3.44708 25.0653
      vertex 22.3919 -8 11.99
      vertex 22.3919 -3.02985 24.4326
    endloop
  endfacet
  facet normal 1 0 0
    outer loop
      vertex 22.3919 -3.83284 25.7079
      vertex 22.3919 -8 11.99
      vertex 22.3919 -3.44708 25.0653
    endloop
  endfacet
  facet normal 1 0 0
    outer loop
      vertex 22.3919 -4.18664 26.3596
      vertex 22.3919 -8 11.99
      vertex 22.3919 -3.83284 25.7079
    endloop
  endfacet
  facet normal 1 0 0
    outer loop
      vertex 22.3919 -4.50806 27.0197
      vertex 22.3919 -8 11.99
      vertex 22.3919 -4.18664 26.3596
    endloop
  endfacet
  facet normal 1 0 0
    outer loop
      vertex 22.3919 -4.7967 27.6873
      vertex 22.3919 -8 11.99
      vertex 22.3919 -4.50806 27.0197
    endloop
  endfacet
  facet normal 1 0 0
    outer loop
      vertex 22.3919 -9.27502 33.2
      vertex 22.3919 -4.7967 27.6873
      vertex 22.3919 -5.05223 28.3616
    endloop
  endfacet
  facet normal 1 0 0
    outer loop
      vertex 22.3919 -9.27502 33.2
      vertex 22.3919 -5.05223 28.3616
      vertex 22.3919 -5.27431 29.0418
    endloop
  endfacet
  facet normal 1 0 0
    outer loop
      vertex 22.3919 -9.27502 33.2
      vertex 22.3919 -5.27431 29.0418
      vertex 22.3919 -5.46269 29.727
    endloop
  endfacet
  facet normal 1 0 0
    outer loop
      vertex 22.3919 -9.27502 33.2
      vertex 22.3919 -5.46269 29.727
      vertex 22.3919 -5.61713 30.4165
    endloop
  endfacet
  facet normal 1 0 0
    outer loop
      vertex 22.3919 -9.27502 33.2
      vertex 22.3919 -5.61713 30.4165
      vertex 22.3919 -5.73744 31.1094
    endloop
  endfacet
  facet normal 1 0 0
    outer loop
      vertex 22.3919 -9.27502 33.2
      vertex 22.3919 -5.73744 31.1094
      vertex 22.3919 -5.82349 31.8049
    endloop
  endfacet
  facet normal 1 0 0
    outer loop
      vertex 22.3919 -9.27502 33.2
      vertex 22.3919 -5.82349 31.8049
      vertex 22.3919 -5.87516 32.502
    endloop
  endfacet
  facet normal 1 -0 0
    outer loop
      vertex 22.3919 -9.27502 33.2
      vertex 22.3919 -5.87516 32.502
      vertex 22.3919 -5.89239 33.2
    endloop
  endfacet
  facet normal 1 0 0
    outer loop
      vertex 22.3919 -4.7967 27.6873
      vertex 22.3919 -9.27502 33.2
      vertex 22.3919 -8 11.99
    endloop
  endfacet
  facet normal 1 0 0
    outer loop
      vertex 22.3919 -9.27502 0
      vertex 22.3919 -8 11.99
      vertex 22.3919 -9.27502 33.2
    endloop
  endfacet
  facet normal 1 0 0
    outer loop
      vertex 22.3919 -8 11.99
      vertex 22.3919 -9.27502 0
      vertex 22.3919 -8 0
    endloop
  endfacet
  facet normal 1 0 0
    outer loop
      vertex 22.3919 8 11.99
      vertex 22.3919 9.27502 15.4828
      vertex 22.3919 9.11322 15.541
    endloop
  endfacet
  facet normal 1 0 0
    outer loop
      vertex 22.3919 8 11.99
      vertex 22.3919 9.11322 15.541
      vertex 22.3919 8.24975 15.8795
    endloop
  endfacet
  facet normal 1 0 0
    outer loop
      vertex 22.3919 9.27502 15.4828
      vertex 22.3919 8 11.99
      vertex 22.3919 9.27502 0
    endloop
  endfacet
  facet normal 1 0 0
    outer loop
      vertex 22.3919 9.27502 0
      vertex 22.3919 8 11.99
      vertex 22.3919 8 0
    endloop
  endfacet
  facet normal 0 1 0
    outer loop
      vertex -5.87516 22.3919 32.502
      vertex -9.27502 22.3919 33.2
      vertex -5.89239 22.3919 33.2
    endloop
  endfacet
  facet normal 0 1 0
    outer loop
      vertex -5.82349 22.3919 31.8049
      vertex -9.27502 22.3919 33.2
      vertex -5.87516 22.3919 32.502
    endloop
  endfacet
  facet normal 0 1 0
    outer loop
      vertex -5.73744 22.3919 31.1094
      vertex -9.27502 22.3919 33.2
      vertex -5.82349 22.3919 31.8049
    endloop
  endfacet
  facet normal 0 1 0
    outer loop
      vertex -5.61713 22.3919 30.4165
      vertex -9.27502 22.3919 33.2
      vertex -5.73744 22.3919 31.1094
    endloop
  endfacet
  facet normal 0 1 0
    outer loop
      vertex -5.46269 22.3919 29.727
      vertex -9.27502 22.3919 33.2
      vertex -5.61713 22.3919 30.4165
    endloop
  endfacet
  facet normal 0 1 0
    outer loop
      vertex -5.27431 22.3919 29.0418
      vertex -9.27502 22.3919 33.2
      vertex -5.46269 22.3919 29.727
    endloop
  endfacet
  facet normal 0 1 0
    outer loop
      vertex -5.05223 22.3919 28.3616
      vertex -9.27502 22.3919 33.2
      vertex -5.27431 22.3919 29.0418
    endloop
  endfacet
  facet normal 0 1 0
    outer loop
      vertex -4.7967 22.3919 27.6873
      vertex -9.27502 22.3919 33.2
      vertex -5.05223 22.3919 28.3616
    endloop
  endfacet
  facet normal 0 1 0
    outer loop
      vertex -9.27502 22.3919 11.99
      vertex -4.7967 22.3919 27.6873
      vertex -4.50806 22.3919 27.0197
    endloop
  endfacet
  facet normal 0 1 0
    outer loop
      vertex -9.27502 22.3919 11.99
      vertex -4.50806 22.3919 27.0197
      vertex -4.18664 22.3919 26.3596
    endloop
  endfacet
  facet normal 0 1 0
    outer loop
      vertex -9.27502 22.3919 11.99
      vertex -4.18664 22.3919 26.3596
      vertex -3.83284 22.3919 25.7079
    endloop
  endfacet
  facet normal 0 1 0
    outer loop
      vertex -9.27502 22.3919 11.99
      vertex -3.83284 22.3919 25.7079
      vertex -3.44708 22.3919 25.0653
    endloop
  endfacet
  facet normal 0 1 0
    outer loop
      vertex -9.27502 22.3919 11.99
      vertex -3.44708 22.3919 25.0653
      vertex -3.02985 22.3919 24.4326
    endloop
  endfacet
  facet normal 0 1 -0
    outer loop
      vertex 9.27502 22.3919 11.99
      vertex 9.11322 22.3919 15.541
      vertex 9.27502 22.3919 15.4828
    endloop
  endfacet
  facet normal 0 1 0
    outer loop
      vertex 9.27502 22.3919 11.99
      vertex 8.24975 22.3919 15.8795
      vertex 9.11322 22.3919 15.541
    endloop
  endfacet
  facet normal 0 1 0
    outer loop
      vertex 9.27502 22.3919 11.99
      vertex 7.4035 22.3919 16.239
      vertex 8.24975 22.3919 15.8795
    endloop
  endfacet
  facet normal 0 1 0
    outer loop
      vertex 9.27502 22.3919 11.99
      vertex 6.57552 22.3919 16.6192
      vertex 7.4035 22.3919 16.239
    endloop
  endfacet
  facet normal 0 1 0
    outer loop
      vertex 9.27502 22.3919 11.99
      vertex 5.76681 22.3919 17.0197
      vertex 6.57552 22.3919 16.6192
    endloop
  endfacet
  facet normal 0 1 0
    outer loop
      vertex 9.27502 22.3919 11.99
      vertex 4.97835 22.3919 17.4398
      vertex 5.76681 22.3919 17.0197
    endloop
  endfacet
  facet normal 0 1 0
    outer loop
      vertex -9.27502 22.3919 11.99
      vertex 4.97835 22.3919 17.4398
      vertex 9.27502 22.3919 11.99
    endloop
  endfacet
  facet normal 0 1 0
    outer loop
      vertex 4.97835 22.3919 17.4398
      vertex -9.27502 22.3919 11.99
      vertex 4.2111 22.3919 17.8791
    endloop
  endfacet
  facet normal 0 1 0
    outer loop
      vertex 4.2111 22.3919 17.8791
      vertex -9.27502 22.3919 11.99
      vertex 3.46601 22.3919 18.3371
    endloop
  endfacet
  facet normal 0 1 0
    outer loop
      vertex 3.46601 22.3919 18.3371
      vertex -9.27502 22.3919 11.99
      vertex 2.74398 22.3919 18.8132
    endloop
  endfacet
  facet normal 0 1 0
    outer loop
      vertex 2.74398 22.3919 18.8132
      vertex -9.27502 22.3919 11.99
      vertex 2.04588 22.3919 19.3068
    endloop
  endfacet
  facet normal 0 1 0
    outer loop
      vertex 2.04588 22.3919 19.3068
      vertex -9.27502 22.3919 11.99
      vertex 1.37257 22.3919 19.8174
    endloop
  endfacet
  facet normal 0 1 0
    outer loop
      vertex 1.37257 22.3919 19.8174
      vertex -9.27502 22.3919 11.99
      vertex 0.724874 22.3919 20.3442
    endloop
  endfacet
  facet normal 0 1 0
    outer loop
      vertex 0.724874 22.3919 20.3442
      vertex -9.27502 22.3919 11.99
      vertex 0.103573 22.3919 20.8868
    endloop
  endfacet
  facet normal 0 1 0
    outer loop
      vertex -4.7967 22.3919 27.6873
      vertex -9.27502 22.3919 11.99
      vertex -9.27502 22.3919 33.2
    endloop
  endfacet
  facet normal 0 1 0
    outer loop
      vertex -2.58165 22.3919 23.8106
      vertex -9.27502 22.3919 11.99
      vertex -3.02985 22.3919 24.4326
    endloop
  endfacet
  facet normal 0 1 0
    outer loop
      vertex -2.10301 22.3919 23.2
      vertex -9.27502 22.3919 11.99
      vertex -2.58165 22.3919 23.8106
    endloop
  endfacet
  facet normal 0 1 0
    outer loop
      vertex -1.59454 22.3919 22.6016
      vertex -9.27502 22.3919 11.99
      vertex -2.10301 22.3919 23.2
    endloop
  endfacet
  facet normal 0 1 0
    outer loop
      vertex -1.05684 22.3919 22.0161
      vertex -9.27502 22.3919 11.99
      vertex -1.59454 22.3919 22.6016
    endloop
  endfacet
  facet normal 0 1 0
    outer loop
      vertex -0.490574 22.3919 21.4443
      vertex -9.27502 22.3919 11.99
      vertex -1.05684 22.3919 22.0161
    endloop
  endfacet
  facet normal 0 1 0
    outer loop
      vertex 0.103573 22.3919 20.8868
      vertex -9.27502 22.3919 11.99
      vertex -0.490574 22.3919 21.4443
    endloop
  endfacet
  facet normal 0 0 -1
    outer loop
      vertex 9.97985 21.6871 11.99
      vertex -9.27502 22.3919 11.99
      vertex 9.27502 22.3919 11.99
    endloop
  endfacet
  facet normal 0 -0 -1
    outer loop
      vertex -9.27502 22.3919 11.99
      vertex 9.97985 21.6871 11.99
      vertex -9.97985 21.6871 11.99
    endloop
  endfacet
  facet normal 0 0 -1
    outer loop
      vertex -9.27502 -22.3919 11.99
      vertex 9.97985 -21.6871 11.99
      vertex 9.27502 -22.3919 11.99
    endloop
  endfacet
  facet normal -0 0 -1
    outer loop
      vertex 9.97985 -21.6871 11.99
      vertex -9.27502 -22.3919 11.99
      vertex -9.97985 -21.6871 11.99
    endloop
  endfacet
  facet normal 0 0 -1
    outer loop
      vertex -12.1184 -19.5485 11.99
      vertex -21.2669 -10.4 11.99
      vertex -12.1184 -18.2929 11.99
    endloop
  endfacet
  facet normal 0 0 -1
    outer loop
      vertex 12.1184 -18.2929 11.99
      vertex 21.2669 -10.4 11.99
      vertex 12.1184 -19.5485 11.99
    endloop
  endfacet
  facet normal 0 0 -1
    outer loop
      vertex -12.1184 -18.2929 11.99
      vertex 21.2669 -10.4 11.99
      vertex 12.1184 -18.2929 11.99
    endloop
  endfacet
  facet normal -0 0 -1
    outer loop
      vertex 21.2669 -10.4 11.99
      vertex -12.1184 -18.2929 11.99
      vertex -21.2669 -10.4 11.99
    endloop
  endfacet
  facet normal 0 0 -1
    outer loop
      vertex -22.3919 -8 11.99
      vertex 22.3919 8 11.99
      vertex 22.3919 -8 11.99
    endloop
  endfacet
  facet normal -0 0 -1
    outer loop
      vertex 22.3919 8 11.99
      vertex -22.3919 -8 11.99
      vertex -22.3919 8 11.99
    endloop
  endfacet
  facet normal 0 0 -1
    outer loop
      vertex 21.2669 10.4 11.99
      vertex -12.1184 18.2929 11.99
      vertex 12.1184 18.2929 11.99
    endloop
  endfacet
  facet normal -0 0 -1
    outer loop
      vertex -12.1184 18.2929 11.99
      vertex -21.2669 10.4 11.99
      vertex -12.1184 19.5485 11.99
    endloop
  endfacet
  facet normal 0 0 -1
    outer loop
      vertex -21.2669 10.4 11.99
      vertex -12.1184 18.2929 11.99
      vertex 21.2669 10.4 11.99
    endloop
  endfacet
  facet normal 0 0 -1
    outer loop
      vertex 21.2669 10.4 11.99
      vertex 12.1184 18.2929 11.99
      vertex 12.1184 19.5485 11.99
    endloop
  endfacet
  facet normal 0 0 1
    outer loop
      vertex 22.3919 -5.89239 33.2
      vertex 9.27502 -22.3919 33.2
      vertex 22.3919 -9.27502 33.2
    endloop
  endfacet
  facet normal 0 -0 1
    outer loop
      vertex 9.27502 -22.3919 33.2
      vertex 22.3919 -5.89239 33.2
      vertex 5.89239 -22.3919 33.2
    endloop
  endfacet
  facet normal 0 0 1
    outer loop
      vertex -22.3919 9.27502 33.2
      vertex -5.89239 22.3919 33.2
      vertex -9.27502 22.3919 33.2
    endloop
  endfacet
  facet normal 0 0 1
    outer loop
      vertex -5.89239 22.3919 33.2
      vertex -22.3919 9.27502 33.2
      vertex -22.3919 5.89239 33.2
    endloop
  endfacet
  facet normal 0 -1 0
    outer loop
      vertex 5.87516 -22.3919 32.502
      vertex 9.27502 -22.3919 33.2
      vertex 5.89239 -22.3919 33.2
    endloop
  endfacet
  facet normal 0 -1 0
    outer loop
      vertex 5.82349 -22.3919 31.8049
      vertex 9.27502 -22.3919 33.2
      vertex 5.87516 -22.3919 32.502
    endloop
  endfacet
  facet normal 0 -1 0
    outer loop
      vertex 5.73744 -22.3919 31.1094
      vertex 9.27502 -22.3919 33.2
      vertex 5.82349 -22.3919 31.8049
    endloop
  endfacet
  facet normal 0 -1 0
    outer loop
      vertex 5.61713 -22.3919 30.4165
      vertex 9.27502 -22.3919 33.2
      vertex 5.73744 -22.3919 31.1094
    endloop
  endfacet
  facet normal 0 -1 0
    outer loop
      vertex 5.46269 -22.3919 29.727
      vertex 9.27502 -22.3919 33.2
      vertex 5.61713 -22.3919 30.4165
    endloop
  endfacet
  facet normal 0 -1 0
    outer loop
      vertex 5.27431 -22.3919 29.0418
      vertex 9.27502 -22.3919 33.2
      vertex 5.46269 -22.3919 29.727
    endloop
  endfacet
  facet normal 0 -1 0
    outer loop
      vertex 5.05223 -22.3919 28.3616
      vertex 9.27502 -22.3919 33.2
      vertex 5.27431 -22.3919 29.0418
    endloop
  endfacet
  facet normal 0 -1 0
    outer loop
      vertex 4.7967 -22.3919 27.6873
      vertex 9.27502 -22.3919 33.2
      vertex 5.05223 -22.3919 28.3616
    endloop
  endfacet
  facet normal 0 -1 0
    outer loop
      vertex 9.27502 -22.3919 11.99
      vertex 4.7967 -22.3919 27.6873
      vertex 4.50806 -22.3919 27.0197
    endloop
  endfacet
  facet normal 0 -1 0
    outer loop
      vertex 9.27502 -22.3919 11.99
      vertex 4.50806 -22.3919 27.0197
      vertex 4.18664 -22.3919 26.3596
    endloop
  endfacet
  facet normal 0 -1 0
    outer loop
      vertex 9.27502 -22.3919 11.99
      vertex 4.18664 -22.3919 26.3596
      vertex 3.83284 -22.3919 25.7079
    endloop
  endfacet
  facet normal 0 -1 0
    outer loop
      vertex 9.27502 -22.3919 11.99
      vertex 3.83284 -22.3919 25.7079
      vertex 3.44708 -22.3919 25.0653
    endloop
  endfacet
  facet normal 0 -1 0
    outer loop
      vertex 9.27502 -22.3919 11.99
      vertex 3.44708 -22.3919 25.0653
      vertex 3.02985 -22.3919 24.4326
    endloop
  endfacet
  facet normal 0 -1 0
    outer loop
      vertex -9.27502 -22.3919 11.99
      vertex -9.11322 -22.3919 15.541
      vertex -9.27502 -22.3919 15.4828
    endloop
  endfacet
  facet normal 0 -1 0
    outer loop
      vertex -9.27502 -22.3919 11.99
      vertex -8.24975 -22.3919 15.8795
      vertex -9.11322 -22.3919 15.541
    endloop
  endfacet
  facet normal 0 -1 0
    outer loop
      vertex -9.27502 -22.3919 11.99
      vertex -7.4035 -22.3919 16.239
      vertex -8.24975 -22.3919 15.8795
    endloop
  endfacet
  facet normal 0 -1 0
    outer loop
      vertex -9.27502 -22.3919 11.99
      vertex -6.57552 -22.3919 16.6192
      vertex -7.4035 -22.3919 16.239
    endloop
  endfacet
  facet normal 0 -1 0
    outer loop
      vertex -9.27502 -22.3919 11.99
      vertex -5.76681 -22.3919 17.0197
      vertex -6.57552 -22.3919 16.6192
    endloop
  endfacet
  facet normal 0 -1 0
    outer loop
      vertex -9.27502 -22.3919 11.99
      vertex -4.97835 -22.3919 17.4398
      vertex -5.76681 -22.3919 17.0197
    endloop
  endfacet
  facet normal 0 -1 0
    outer loop
      vertex 9.27502 -22.3919 11.99
      vertex -4.97835 -22.3919 17.4398
      vertex -9.27502 -22.3919 11.99
    endloop
  endfacet
  facet normal 0 -1 0
    outer loop
      vertex -4.97835 -22.3919 17.4398
      vertex 9.27502 -22.3919 11.99
      vertex -4.2111 -22.3919 17.8791
    endloop
  endfacet
  facet normal 0 -1 0
    outer loop
      vertex -4.2111 -22.3919 17.8791
      vertex 9.27502 -22.3919 11.99
      vertex -3.46601 -22.3919 18.3371
    endloop
  endfacet
  facet normal 0 -1 0
    outer loop
      vertex -3.46601 -22.3919 18.3371
      vertex 9.27502 -22.3919 11.99
      vertex -2.74398 -22.3919 18.8132
    endloop
  endfacet
  facet normal 0 -1 0
    outer loop
      vertex -2.74398 -22.3919 18.8132
      vertex 9.27502 -22.3919 11.99
      vertex -2.04588 -22.3919 19.3068
    endloop
  endfacet
  facet normal 0 -1 0
    outer loop
      vertex -2.04588 -22.3919 19.3068
      vertex 9.27502 -22.3919 11.99
      vertex -1.37257 -22.3919 19.8174
    endloop
  endfacet
  facet normal 0 -1 0
    outer loop
      vertex -1.37257 -22.3919 19.8174
      vertex 9.27502 -22.3919 11.99
      vertex -0.724874 -22.3919 20.3442
    endloop
  endfacet
  facet normal 0 -1 0
    outer loop
      vertex -0.724874 -22.3919 20.3442
      vertex 9.27502 -22.3919 11.99
      vertex -0.103573 -22.3919 20.8868
    endloop
  endfacet
  facet normal 0 -1 0
    outer loop
      vertex 4.7967 -22.3919 27.6873
      vertex 9.27502 -22.3919 11.99
      vertex 9.27502 -22.3919 33.2
    endloop
  endfacet
  facet normal 0 -1 0
    outer loop
      vertex 2.58165 -22.3919 23.8106
      vertex 9.27502 -22.3919 11.99
      vertex 3.02985 -22.3919 24.4326
    endloop
  endfacet
  facet normal 0 -1 0
    outer loop
      vertex 2.10301 -22.3919 23.2
      vertex 9.27502 -22.3919 11.99
      vertex 2.58165 -22.3919 23.8106
    endloop
  endfacet
  facet normal 0 -1 0
    outer loop
      vertex 1.59454 -22.3919 22.6016
      vertex 9.27502 -22.3919 11.99
      vertex 2.10301 -22.3919 23.2
    endloop
  endfacet
  facet normal 0 -1 0
    outer loop
      vertex 1.05684 -22.3919 22.0161
      vertex 9.27502 -22.3919 11.99
      vertex 1.59454 -22.3919 22.6016
    endloop
  endfacet
  facet normal 0 -1 0
    outer loop
      vertex 0.490574 -22.3919 21.4443
      vertex 9.27502 -22.3919 11.99
      vertex 1.05684 -22.3919 22.0161
    endloop
  endfacet
  facet normal 0 -1 0
    outer loop
      vertex -0.103573 -22.3919 20.8868
      vertex 9.27502 -22.3919 11.99
      vertex 0.490574 -22.3919 21.4443
    endloop
  endfacet
  facet normal 0.0123404 -0.0123404 0.999848
    outer loop
      vertex 15.3399 16.327 13.2122
      vertex -15.8335 -15.8335 13.2
      vertex 15.8335 15.8335 13.2
    endloop
  endfacet
  facet normal 0.0123404 -0.0123404 0.999848
    outer loop
      vertex -15.8335 -15.8335 13.2
      vertex 15.3399 16.327 13.2122
      vertex -16.327 -15.3399 13.2122
    endloop
  endfacet
  facet normal 0.159064 -0.159064 0.97437
    outer loop
      vertex 12.4122 19.2547 13.7941
      vertex -18.7738 -12.8931 13.637
      vertex 12.8931 18.7738 13.637
    endloop
  endfacet
  facet normal 0.159064 -0.159064 0.97437
    outer loop
      vertex -18.7738 -12.8931 13.637
      vertex 12.4122 19.2547 13.7941
      vertex -19.2547 -12.4122 13.7941
    endloop
  endfacet
  facet normal 0.230212 -0.230212 0.945518
    outer loop
      vertex 10.9966 20.6703 14.4061
      vertex -20.2036 -11.4633 14.1789
      vertex 11.4633 20.2036 14.1789
    endloop
  endfacet
  facet normal 0.230212 -0.230212 0.945518
    outer loop
      vertex -20.2036 -11.4633 14.1789
      vertex 10.9966 20.6703 14.4061
      vertex -20.6703 -10.9966 14.4061
    endloop
  endfacet
  facet normal 0.183014 -0.183014 0.965925
    outer loop
      vertex 11.9354 19.7316 13.9748
      vertex -19.2547 -12.4122 13.7941
      vertex 12.4122 19.2547 13.7941
    endloop
  endfacet
  facet normal 0.183014 -0.183014 0.965925
    outer loop
      vertex -19.2547 -12.4122 13.7941
      vertex 11.9354 19.7316 13.9748
      vertex -19.7316 -11.9354 13.9748
    endloop
  endfacet
  facet normal 0.425547 -0.425547 0.798636
    outer loop
      vertex -22.3919 -4.97835 17.4398
      vertex 5.76681 22.3919 17.0197
      vertex 4.97835 22.3919 17.4398
    endloop
  endfacet
  facet normal 0.425547 -0.425547 0.798636
    outer loop
      vertex 5.76681 22.3919 17.0197
      vertex -22.3919 -4.97835 17.4398
      vertex -22.3919 -5.76681 17.0197
    endloop
  endfacet
  facet normal 0.405581 -0.405581 0.819151
    outer loop
      vertex -22.3919 -5.76681 17.0197
      vertex 6.57552 22.3919 16.6192
      vertex 5.76681 22.3919 17.0197
    endloop
  endfacet
  facet normal 0.405581 -0.405581 0.819151
    outer loop
      vertex 6.57552 22.3919 16.6192
      vertex -22.3919 -5.76681 17.0197
      vertex -22.3919 -6.57552 16.6192
    endloop
  endfacet
  facet normal 0.5 -0.5 0.707107
    outer loop
      vertex -22.3919 -2.04588 19.3068
      vertex 2.74398 22.3919 18.8132
      vertex 2.04588 22.3919 19.3068
    endloop
  endfacet
  facet normal 0.5 -0.5 0.707107
    outer loop
      vertex 2.74398 22.3919 18.8132
      vertex -22.3919 -2.04588 19.3068
      vertex -22.3919 -2.74398 18.8132
    endloop
  endfacet
  facet normal 0.704416 -0.704416 0.0871558
    outer loop
      vertex -22.3919 5.82349 31.8049
      vertex -5.73744 22.3919 31.1094
      vertex -5.82349 22.3919 31.8049
    endloop
  endfacet
  facet normal 0.704416 -0.704416 0.0871558
    outer loop
      vertex -5.73744 22.3919 31.1094
      vertex -22.3919 5.82349 31.8049
      vertex -22.3919 5.73744 31.1094
    endloop
  endfacet
  facet normal -0.183014 0.183014 0.965925
    outer loop
      vertex 19.2547 12.4122 13.7941
      vertex -11.9354 -19.7316 13.9748
      vertex 19.7316 11.9354 13.9748
    endloop
  endfacet
  facet normal -0.183014 0.183014 0.965925
    outer loop
      vertex -11.9354 -19.7316 13.9748
      vertex 19.2547 12.4122 13.7941
      vertex -12.4122 -19.2547 13.7941
    endloop
  endfacet
  facet normal -0.425547 0.425547 0.798636
    outer loop
      vertex 22.3919 5.76681 17.0197
      vertex -4.97835 -22.3919 17.4398
      vertex 22.3919 4.97835 17.4398
    endloop
  endfacet
  facet normal -0.425547 0.425547 0.798636
    outer loop
      vertex -4.97835 -22.3919 17.4398
      vertex 22.3919 5.76681 17.0197
      vertex -5.76681 -22.3919 17.0197
    endloop
  endfacet
  facet normal -0.640857 0.640857 0.422618
    outer loop
      vertex 3.02985 -22.3919 24.4326
      vertex 22.3919 -3.44708 25.0653
      vertex 22.3919 -3.02985 24.4326
    endloop
  endfacet
  facet normal -0.640857 0.640857 0.422618
    outer loop
      vertex 22.3919 -3.44708 25.0653
      vertex 3.02985 -22.3919 24.4326
      vertex 3.44708 -22.3919 25.0653
    endloop
  endfacet
  facet normal 0.364186 -0.364186 0.857168
    outer loop
      vertex -22.3919 -7.4035 16.239
      vertex 8.24975 22.3919 15.8795
      vertex 7.4035 22.3919 16.239
    endloop
  endfacet
  facet normal 0.364186 -0.364186 0.857168
    outer loop
      vertex 8.24975 22.3919 15.8795
      vertex -22.3919 -7.4035 16.239
      vertex -22.3919 -8.24975 15.8795
    endloop
  endfacet
  facet normal 0.253404 -0.253404 0.93358
    outer loop
      vertex 10.5357 21.1312 14.6563
      vertex -20.6703 -10.9966 14.4061
      vertex 10.9966 20.6703 14.4061
    endloop
  endfacet
  facet normal 0.253404 -0.253404 0.93358
    outer loop
      vertex -20.6703 -10.9966 14.4061
      vertex 10.5357 21.1312 14.6563
      vertex -21.1312 -10.5357 14.6563
    endloop
  endfacet
  facet normal 0.482246 -0.482246 0.731354
    outer loop
      vertex -22.3919 -2.74398 18.8132
      vertex 3.46601 22.3919 18.3371
      vertex 2.74398 22.3919 18.8132
    endloop
  endfacet
  facet normal 0.482246 -0.482246 0.731354
    outer loop
      vertex 3.46601 22.3919 18.3371
      vertex -22.3919 -2.74398 18.8132
      vertex -22.3919 -3.46601 18.3371
    endloop
  endfacet
  facet normal 0.444996 -0.444996 0.777147
    outer loop
      vertex -22.3919 -4.2111 17.8791
      vertex 4.97835 22.3919 17.4398
      vertex 4.2111 22.3919 17.8791
    endloop
  endfacet
  facet normal 0.444996 -0.444996 0.777147
    outer loop
      vertex 4.97835 22.3919 17.4398
      vertex -22.3919 -4.2111 17.8791
      vertex -22.3919 -4.97835 17.4398
    endloop
  endfacet
  facet normal 0.56472 -0.56472 0.601816
    outer loop
      vertex -22.3919 0.490574 21.4443
      vertex 0.103573 22.3919 20.8868
      vertex -0.490574 22.3919 21.4443
    endloop
  endfacet
  facet normal 0.56472 -0.56472 0.601816
    outer loop
      vertex 0.103573 22.3919 20.8868
      vertex -22.3919 0.490574 21.4443
      vertex -22.3919 -0.103573 20.8868
    endloop
  endfacet
  facet normal 0.660141 -0.660141 0.358368
    outer loop
      vertex -22.3919 4.18664 26.3596
      vertex -3.83284 22.3919 25.7079
      vertex -4.18664 22.3919 26.3596
    endloop
  endfacet
  facet normal 0.660141 -0.660141 0.358368
    outer loop
      vertex -3.83284 22.3919 25.7079
      vertex -22.3919 4.18664 26.3596
      vertex -22.3919 3.83284 25.7079
    endloop
  endfacet
  facet normal 0.706138 -0.706138 0.052336
    outer loop
      vertex -22.3919 5.87516 32.502
      vertex -5.82349 22.3919 31.8049
      vertex -5.87516 22.3919 32.502
    endloop
  endfacet
  facet normal 0.706138 -0.706138 0.052336
    outer loop
      vertex -5.82349 22.3919 31.8049
      vertex -22.3919 5.87516 32.502
      vertex -22.3919 5.82349 31.8049
    endloop
  endfacet
  facet normal 0.688984 -0.688984 0.22495
    outer loop
      vertex -22.3919 5.27431 29.0418
      vertex -5.05223 22.3919 28.3616
      vertex -5.27431 22.3919 29.0418
    endloop
  endfacet
  facet normal 0.688984 -0.688984 0.22495
    outer loop
      vertex -5.05223 22.3919 28.3616
      vertex -22.3919 5.27431 29.0418
      vertex -22.3919 5.05223 28.3616
    endloop
  endfacet
  facet normal 0.0616287 -0.0616287 0.996195
    outer loop
      vertex 14.3552 17.3117 13.3096
      vertex -16.82 -14.8469 13.2487
      vertex 14.8469 16.82 13.2487
    endloop
  endfacet
  facet normal 0.0616287 -0.0616287 0.996195
    outer loop
      vertex -16.82 -14.8469 13.2487
      vertex 14.3552 17.3117 13.3096
      vertex -17.3117 -14.3552 13.3096
    endloop
  endfacet
  facet normal 0.0370068 -0.0370068 0.99863
    outer loop
      vertex 14.8469 16.82 13.2487
      vertex -16.327 -15.3399 13.2122
      vertex 15.3399 16.327 13.2122
    endloop
  endfacet
  facet normal 0.0370068 -0.0370068 0.99863
    outer loop
      vertex -16.327 -15.3399 13.2122
      vertex 14.8469 16.82 13.2487
      vertex -16.82 -14.8469 13.2487
    endloop
  endfacet
  facet normal -0.0370068 0.0370068 0.99863
    outer loop
      vertex 16.327 15.3399 13.2122
      vertex -14.8469 -16.82 13.2487
      vertex 16.82 14.8469 13.2487
    endloop
  endfacet
  facet normal -0.0370068 0.0370068 0.99863
    outer loop
      vertex -14.8469 -16.82 13.2487
      vertex 16.327 15.3399 13.2122
      vertex -15.3399 -16.327 13.2122
    endloop
  endfacet
  facet normal -0.230212 0.230212 0.945518
    outer loop
      vertex 20.2036 11.4633 14.1789
      vertex -10.9966 -20.6703 14.4061
      vertex 20.6703 10.9966 14.4061
    endloop
  endfacet
  facet normal -0.230212 0.230212 0.945518
    outer loop
      vertex -10.9966 -20.6703 14.4061
      vertex 20.2036 11.4633 14.1789
      vertex -11.4633 -20.2036 14.1789
    endloop
  endfacet
  facet normal -0.701836 0.701836 0.121869
    outer loop
      vertex 22.3919 -5.61713 30.4165
      vertex 5.73744 -22.3919 31.1094
      vertex 22.3919 -5.73744 31.1094
    endloop
  endfacet
  facet normal -0.701836 0.701836 0.121869
    outer loop
      vertex 5.73744 -22.3919 31.1094
      vertex 22.3919 -5.61713 30.4165
      vertex 5.61713 -22.3919 30.4165
    endloop
  endfacet
  facet normal -0.668583 0.668583 0.325568
    outer loop
      vertex 4.18664 -22.3919 26.3596
      vertex 22.3919 -4.50806 27.0197
      vertex 22.3919 -4.18664 26.3596
    endloop
  endfacet
  facet normal -0.668583 0.668583 0.325568
    outer loop
      vertex 22.3919 -4.50806 27.0197
      vertex 4.18664 -22.3919 26.3596
      vertex 4.50806 -22.3919 27.0197
    endloop
  endfacet
  facet normal -0.706999 0.706999 0.0174524
    outer loop
      vertex 5.87516 -22.3919 32.502
      vertex 22.3919 -5.89239 33.2
      vertex 22.3919 -5.87516 32.502
    endloop
  endfacet
  facet normal -0.706999 0.706999 0.0174524
    outer loop
      vertex 22.3919 -5.89239 33.2
      vertex 5.87516 -22.3919 32.502
      vertex 5.89239 -22.3919 33.2
    endloop
  endfacet
  facet normal 0.206737 -0.206737 0.956305
    outer loop
      vertex 11.4633 20.2036 14.1789
      vertex -19.7316 -11.9354 13.9748
      vertex 11.9354 19.7316 13.9748
    endloop
  endfacet
  facet normal 0.206737 -0.206737 0.956305
    outer loop
      vertex -19.7316 -11.9354 13.9748
      vertex 11.4633 20.2036 14.1789
      vertex -20.2036 -11.4633 14.1789
    endloop
  endfacet
  facet normal 0.276289 -0.276289 0.920505
    outer loop
      vertex 10.0813 21.5856 14.9291
      vertex -21.1312 -10.5357 14.6563
      vertex 10.5357 21.1312 14.6563
    endloop
  endfacet
  facet normal 0.276289 -0.276289 0.920505
    outer loop
      vertex -21.1312 -10.5357 14.6563
      vertex 10.0813 21.5856 14.9291
      vertex -21.5856 -10.0813 14.9291
    endloop
  endfacet
  facet normal 0.463904 -0.463904 0.754709
    outer loop
      vertex -22.3919 -3.46601 18.3371
      vertex 4.2111 22.3919 17.8791
      vertex 3.46601 22.3919 18.3371
    endloop
  endfacet
  facet normal 0.463904 -0.463904 0.754709
    outer loop
      vertex 4.2111 22.3919 17.8791
      vertex -22.3919 -3.46601 18.3371
      vertex -22.3919 -4.2111 17.8791
    endloop
  endfacet
  facet normal 0.517145 -0.517145 0.681998
    outer loop
      vertex -22.3919 -1.37257 19.8174
      vertex 2.04588 22.3919 19.3068
      vertex 1.37257 22.3919 19.8174
    endloop
  endfacet
  facet normal 0.517145 -0.517145 0.681998
    outer loop
      vertex 2.04588 22.3919 19.3068
      vertex -22.3919 -1.37257 19.8174
      vertex -22.3919 -2.04588 19.3068
    endloop
  endfacet
  facet normal 0.706999 -0.706999 0.0174524
    outer loop
      vertex -22.3919 5.89239 33.2
      vertex -5.87516 22.3919 32.502
      vertex -5.89239 22.3919 33.2
    endloop
  endfacet
  facet normal 0.706999 -0.706999 0.0174524
    outer loop
      vertex -5.87516 22.3919 32.502
      vertex -22.3919 5.89239 33.2
      vertex -22.3919 5.87516 32.502
    endloop
  endfacet
  facet normal 0.683013 -0.683013 0.25882
    outer loop
      vertex -22.3919 5.05223 28.3616
      vertex -4.7967 22.3919 27.6873
      vertex -5.05223 22.3919 28.3616
    endloop
  endfacet
  facet normal 0.683013 -0.683013 0.25882
    outer loop
      vertex -4.7967 22.3919 27.6873
      vertex -22.3919 5.05223 28.3616
      vertex -22.3919 4.7967 27.6873
    endloop
  endfacet
  facet normal 0.110616 -0.110616 0.987688
    outer loop
      vertex 13.3777 18.2892 13.5038
      vertex -17.8017 -13.8652 13.3946
      vertex 13.8652 17.8017 13.3946
    endloop
  endfacet
  facet normal 0.110616 -0.110616 0.987688
    outer loop
      vertex -17.8017 -13.8652 13.3946
      vertex 13.3777 18.2892 13.5038
      vertex -18.2892 -13.3777 13.5038
    endloop
  endfacet
  facet normal 0.134923 -0.134923 0.981627
    outer loop
      vertex 12.8931 18.7738 13.637
      vertex -18.2892 -13.3777 13.5038
      vertex 13.3777 18.2892 13.5038
    endloop
  endfacet
  facet normal 0.134923 -0.134923 0.981627
    outer loop
      vertex -18.2892 -13.3777 13.5038
      vertex 12.8931 18.7738 13.637
      vertex -18.7738 -12.8931 13.637
    endloop
  endfacet
  facet normal 0.0861746 -0.0861746 0.992546
    outer loop
      vertex 13.8652 17.8017 13.3946
      vertex -17.3117 -14.3552 13.3096
      vertex 14.3552 17.3117 13.3096
    endloop
  endfacet
  facet normal 0.0861746 -0.0861746 0.992546
    outer loop
      vertex -17.3117 -14.3552 13.3096
      vertex 13.8652 17.8017 13.3946
      vertex -17.8017 -13.8652 13.3946
    endloop
  endfacet
  facet normal -0.0123404 0.0123404 0.999848
    outer loop
      vertex 15.8335 15.8335 13.2
      vertex -15.3399 -16.327 13.2122
      vertex 16.327 15.3399 13.2122
    endloop
  endfacet
  facet normal -0.0123404 0.0123404 0.999848
    outer loop
      vertex -15.3399 -16.327 13.2122
      vertex 15.8335 15.8335 13.2
      vertex -15.8335 -15.8335 13.2
    endloop
  endfacet
  facet normal -0.0861746 0.0861746 0.992546
    outer loop
      vertex 17.3117 14.3552 13.3096
      vertex -13.8652 -17.8017 13.3946
      vertex 17.8017 13.8652 13.3946
    endloop
  endfacet
  facet normal -0.0861746 0.0861746 0.992546
    outer loop
      vertex -13.8652 -17.8017 13.3946
      vertex 17.3117 14.3552 13.3096
      vertex -14.3552 -17.3117 13.3096
    endloop
  endfacet
  facet normal -0.364186 0.364186 0.857168
    outer loop
      vertex 22.3919 8.24975 15.8795
      vertex -7.4035 -22.3919 16.239
      vertex 22.3919 7.4035 16.239
    endloop
  endfacet
  facet normal -0.364186 0.364186 0.857168
    outer loop
      vertex -7.4035 -22.3919 16.239
      vertex 22.3919 8.24975 15.8795
      vertex -8.24975 -22.3919 15.8795
    endloop
  endfacet
  facet normal -0.159064 0.159064 0.97437
    outer loop
      vertex 18.7738 12.8931 13.637
      vertex -12.4122 -19.2547 13.7941
      vertex 19.2547 12.4122 13.7941
    endloop
  endfacet
  facet normal -0.159064 0.159064 0.97437
    outer loop
      vertex -12.4122 -19.2547 13.7941
      vertex 18.7738 12.8931 13.637
      vertex -12.8931 -18.7738 13.637
    endloop
  endfacet
  facet normal -0.482246 0.482246 0.731354
    outer loop
      vertex 22.3919 3.46601 18.3371
      vertex -2.74398 -22.3919 18.8132
      vertex 22.3919 2.74398 18.8132
    endloop
  endfacet
  facet normal -0.482246 0.482246 0.731354
    outer loop
      vertex -2.74398 -22.3919 18.8132
      vertex 22.3919 3.46601 18.3371
      vertex -3.46601 -22.3919 18.3371
    endloop
  endfacet
  facet normal -0.688984 0.688984 0.22495
    outer loop
      vertex 5.05223 -22.3919 28.3616
      vertex 22.3919 -5.27431 29.0418
      vertex 22.3919 -5.05223 28.3616
    endloop
  endfacet
  facet normal -0.688984 0.688984 0.22495
    outer loop
      vertex 22.3919 -5.27431 29.0418
      vertex 5.05223 -22.3919 28.3616
      vertex 5.27431 -22.3919 29.0418
    endloop
  endfacet
  facet normal -0.694115 0.694115 0.190809
    outer loop
      vertex 5.27431 -22.3919 29.0418
      vertex 22.3919 -5.46269 29.727
      vertex 22.3919 -5.27431 29.0418
    endloop
  endfacet
  facet normal -0.694115 0.694115 0.190809
    outer loop
      vertex 22.3919 -5.46269 29.727
      vertex 5.27431 -22.3919 29.0418
      vertex 5.46269 -22.3919 29.727
    endloop
  endfacet
  facet normal 0.298835 -0.298835 0.906308
    outer loop
      vertex 9.63395 22.033 15.2241
      vertex -21.5856 -10.0813 14.9291
      vertex 10.0813 21.5856 14.9291
    endloop
  endfacet
  facet normal 0.298835 -0.298835 0.906308
    outer loop
      vertex -21.5856 -10.0813 14.9291
      vertex 9.63395 22.033 15.2241
      vertex -22.033 -9.63395 15.2241
    endloop
  endfacet
  facet normal 0.385118 -0.385118 0.83867
    outer loop
      vertex -22.3919 -6.57552 16.6192
      vertex 7.4035 22.3919 16.239
      vertex 6.57552 22.3919 16.6192
    endloop
  endfacet
  facet normal 0.385118 -0.385118 0.83867
    outer loop
      vertex 7.4035 22.3919 16.239
      vertex -22.3919 -6.57552 16.6192
      vertex -22.3919 -7.4035 16.239
    endloop
  endfacet
  facet normal 0.53366 -0.53366 0.65606
    outer loop
      vertex -22.3919 -0.724874 20.3442
      vertex 1.37257 22.3919 19.8174
      vertex 0.724874 22.3919 20.3442
    endloop
  endfacet
  facet normal 0.53366 -0.53366 0.65606
    outer loop
      vertex 1.37257 22.3919 19.8174
      vertex -22.3919 -0.724874 20.3442
      vertex -22.3919 -1.37257 19.8174
    endloop
  endfacet
  facet normal 0.549526 -0.549526 0.62932
    outer loop
      vertex -22.3919 -0.103573 20.8868
      vertex 0.724874 22.3919 20.3442
      vertex 0.103573 22.3919 20.8868
    endloop
  endfacet
  facet normal 0.549526 -0.549526 0.62932
    outer loop
      vertex 0.724874 22.3919 20.3442
      vertex -22.3919 -0.103573 20.8868
      vertex -22.3919 -0.724874 20.3442
    endloop
  endfacet
  facet normal 0.630036 -0.630036 0.453992
    outer loop
      vertex -22.3919 3.02985 24.4326
      vertex -2.58165 22.3919 23.8106
      vertex -3.02985 22.3919 24.4326
    endloop
  endfacet
  facet normal 0.630036 -0.630036 0.453992
    outer loop
      vertex -2.58165 22.3919 23.8106
      vertex -22.3919 3.02985 24.4326
      vertex -22.3919 2.58165 23.8106
    endloop
  endfacet
  facet normal 0.618449 -0.618449 0.484811
    outer loop
      vertex -22.3919 2.58165 23.8106
      vertex -2.10301 22.3919 23.2
      vertex -2.58165 22.3919 23.8106
    endloop
  endfacet
  facet normal 0.618449 -0.618449 0.484811
    outer loop
      vertex -2.10301 22.3919 23.2
      vertex -22.3919 2.58165 23.8106
      vertex -22.3919 2.10301 23.2
    endloop
  endfacet
  facet normal 0.694115 -0.694115 0.190809
    outer loop
      vertex -22.3919 5.46269 29.727
      vertex -5.27431 22.3919 29.0418
      vertex -5.46269 22.3919 29.727
    endloop
  endfacet
  facet normal 0.694115 -0.694115 0.190809
    outer loop
      vertex -5.27431 22.3919 29.0418
      vertex -22.3919 5.46269 29.727
      vertex -22.3919 5.27431 29.0418
    endloop
  endfacet
  facet normal -0.0616287 0.0616287 0.996195
    outer loop
      vertex 16.82 14.8469 13.2487
      vertex -14.3552 -17.3117 13.3096
      vertex 17.3117 14.3552 13.3096
    endloop
  endfacet
  facet normal -0.0616287 0.0616287 0.996195
    outer loop
      vertex -14.3552 -17.3117 13.3096
      vertex 16.82 14.8469 13.2487
      vertex -14.8469 -16.82 13.2487
    endloop
  endfacet
  facet normal -0.276289 0.276289 0.920505
    outer loop
      vertex 21.1312 10.5357 14.6563
      vertex -10.0813 -21.5856 14.9291
      vertex 21.5856 10.0813 14.9291
    endloop
  endfacet
  facet normal -0.276289 0.276289 0.920505
    outer loop
      vertex -10.0813 -21.5856 14.9291
      vertex 21.1312 10.5357 14.6563
      vertex -10.5357 -21.1312 14.6563
    endloop
  endfacet
  facet normal -0.298835 0.298835 0.906308
    outer loop
      vertex 21.5856 10.0813 14.9291
      vertex -9.63395 -22.033 15.2241
      vertex 22.033 9.63395 15.2241
    endloop
  endfacet
  facet normal -0.298835 0.298835 0.906308
    outer loop
      vertex -9.63395 -22.033 15.2241
      vertex 21.5856 10.0813 14.9291
      vertex -10.0813 -21.5856 14.9291
    endloop
  endfacet
  facet normal -0.342812 0.342812 0.87462
    outer loop
      vertex 22.3919 9.11322 15.541
      vertex -8.24975 -22.3919 15.8795
      vertex 22.3919 8.24975 15.8795
    endloop
  endfacet
  facet normal -0.342812 0.342812 0.87462
    outer loop
      vertex -8.24975 -22.3919 15.8795
      vertex 22.3919 9.11322 15.541
      vertex -9.11322 -22.3919 15.541
    endloop
  endfacet
  facet normal -0.517145 0.517145 0.681998
    outer loop
      vertex 22.3919 2.04588 19.3068
      vertex -1.37257 -22.3919 19.8174
      vertex 22.3919 1.37257 19.8174
    endloop
  endfacet
  facet normal -0.517145 0.517145 0.681998
    outer loop
      vertex -1.37257 -22.3919 19.8174
      vertex 22.3919 2.04588 19.3068
      vertex -2.04588 -22.3919 19.3068
    endloop
  endfacet
  facet normal -0.593029 0.593029 0.544639
    outer loop
      vertex 1.05684 -22.3919 22.0161
      vertex 22.3919 -1.59454 22.6016
      vertex 22.3919 -1.05684 22.0161
    endloop
  endfacet
  facet normal -0.593029 0.593029 0.544639
    outer loop
      vertex 22.3919 -1.59454 22.6016
      vertex 1.05684 -22.3919 22.0161
      vertex 1.59454 -22.3919 22.6016
    endloop
  endfacet
  facet normal -0.618449 0.618449 0.484811
    outer loop
      vertex 2.10301 -22.3919 23.2
      vertex 22.3919 -2.58165 23.8106
      vertex 22.3919 -2.10301 23.2
    endloop
  endfacet
  facet normal -0.618449 0.618449 0.484811
    outer loop
      vertex 22.3919 -2.58165 23.8106
      vertex 2.10301 -22.3919 23.2
      vertex 2.58165 -22.3919 23.8106
    endloop
  endfacet
  facet normal -0.650895 0.650895 0.390731
    outer loop
      vertex 3.44708 -22.3919 25.0653
      vertex 22.3919 -3.83284 25.7079
      vertex 22.3919 -3.44708 25.0653
    endloop
  endfacet
  facet normal -0.650895 0.650895 0.390731
    outer loop
      vertex 22.3919 -3.83284 25.7079
      vertex 3.44708 -22.3919 25.0653
      vertex 3.83284 -22.3919 25.7079
    endloop
  endfacet
  facet normal -0.660141 0.660141 0.358368
    outer loop
      vertex 3.83284 -22.3919 25.7079
      vertex 22.3919 -4.18664 26.3596
      vertex 22.3919 -3.83284 25.7079
    endloop
  endfacet
  facet normal -0.660141 0.660141 0.358368
    outer loop
      vertex 22.3919 -4.18664 26.3596
      vertex 3.83284 -22.3919 25.7079
      vertex 4.18664 -22.3919 26.3596
    endloop
  endfacet
  facet normal -0.676209 0.676209 0.292372
    outer loop
      vertex 22.3919 -4.50806 27.0197
      vertex 4.7967 -22.3919 27.6873
      vertex 22.3919 -4.7967 27.6873
    endloop
  endfacet
  facet normal -0.676209 0.676209 0.292372
    outer loop
      vertex 4.7967 -22.3919 27.6873
      vertex 22.3919 -4.50806 27.0197
      vertex 4.50806 -22.3919 27.0197
    endloop
  endfacet
  facet normal -0.683013 0.683013 0.25882
    outer loop
      vertex 22.3919 -4.7967 27.6873
      vertex 5.05223 -22.3919 28.3616
      vertex 22.3919 -5.05223 28.3616
    endloop
  endfacet
  facet normal -0.683013 0.683013 0.25882
    outer loop
      vertex 5.05223 -22.3919 28.3616
      vertex 22.3919 -4.7967 27.6873
      vertex 4.7967 -22.3919 27.6873
    endloop
  endfacet
  facet normal 0.342812 -0.342812 0.87462
    outer loop
      vertex -22.3919 -8.24975 15.8795
      vertex 9.11322 22.3919 15.541
      vertex 8.24975 22.3919 15.8795
    endloop
  endfacet
  facet normal 0.342812 -0.342812 0.87462
    outer loop
      vertex 9.11322 22.3919 15.541
      vertex -22.3919 -8.24975 15.8795
      vertex -22.3919 -9.11322 15.541
    endloop
  endfacet
  facet normal 0.321018 -0.321024 0.891006
    outer loop
      vertex 9.11322 22.3919 15.541
      vertex 9.63395 22.033 15.2241
      vertex 9.27502 22.3919 15.4828
    endloop
  endfacet
  facet normal 0.321021 -0.321021 0.891006
    outer loop
      vertex 9.11322 22.3919 15.541
      vertex -22.033 -9.63395 15.2241
      vertex 9.63395 22.033 15.2241
    endloop
  endfacet
  facet normal 0.321021 -0.321021 0.891006
    outer loop
      vertex -22.3919 -9.11322 15.541
      vertex -22.033 -9.63395 15.2241
      vertex 9.11322 22.3919 15.541
    endloop
  endfacet
  facet normal 0.321024 -0.321018 0.891006
    outer loop
      vertex -22.033 -9.63395 15.2241
      vertex -22.3919 -9.11322 15.541
      vertex -22.3919 -9.27502 15.4828
    endloop
  endfacet
  facet normal 0.650895 -0.650895 0.390731
    outer loop
      vertex -22.3919 3.83284 25.7079
      vertex -3.44708 22.3919 25.0653
      vertex -3.83284 22.3919 25.7079
    endloop
  endfacet
  facet normal 0.650895 -0.650895 0.390731
    outer loop
      vertex -3.44708 22.3919 25.0653
      vertex -22.3919 3.83284 25.7079
      vertex -22.3919 3.44708 25.0653
    endloop
  endfacet
  facet normal 0.640857 -0.640857 0.422618
    outer loop
      vertex -22.3919 3.44708 25.0653
      vertex -3.02985 22.3919 24.4326
      vertex -3.44708 22.3919 25.0653
    endloop
  endfacet
  facet normal 0.640857 -0.640857 0.422618
    outer loop
      vertex -3.02985 22.3919 24.4326
      vertex -22.3919 3.44708 25.0653
      vertex -22.3919 3.02985 24.4326
    endloop
  endfacet
  facet normal 0.701836 -0.701836 0.121869
    outer loop
      vertex -22.3919 5.73744 31.1094
      vertex -5.61713 22.3919 30.4165
      vertex -5.73744 22.3919 31.1094
    endloop
  endfacet
  facet normal 0.701836 -0.701836 0.121869
    outer loop
      vertex -5.61713 22.3919 30.4165
      vertex -22.3919 5.73744 31.1094
      vertex -22.3919 5.61713 30.4165
    endloop
  endfacet
  facet normal 0.698401 -0.698401 0.156435
    outer loop
      vertex -22.3919 5.61713 30.4165
      vertex -5.46269 22.3919 29.727
      vertex -5.61713 22.3919 30.4165
    endloop
  endfacet
  facet normal 0.698401 -0.698401 0.156435
    outer loop
      vertex -5.46269 22.3919 29.727
      vertex -22.3919 5.61713 30.4165
      vertex -22.3919 5.46269 29.727
    endloop
  endfacet
  facet normal 0.676209 -0.676209 0.292372
    outer loop
      vertex -22.3919 4.7967 27.6873
      vertex -4.50806 22.3919 27.0197
      vertex -4.7967 22.3919 27.6873
    endloop
  endfacet
  facet normal 0.676209 -0.676209 0.292372
    outer loop
      vertex -4.50806 22.3919 27.0197
      vertex -22.3919 4.7967 27.6873
      vertex -22.3919 4.50806 27.0197
    endloop
  endfacet
  facet normal 0.668583 -0.668583 0.325568
    outer loop
      vertex -22.3919 4.50806 27.0197
      vertex -4.18664 22.3919 26.3596
      vertex -4.50806 22.3919 27.0197
    endloop
  endfacet
  facet normal 0.668583 -0.668583 0.325568
    outer loop
      vertex -4.18664 22.3919 26.3596
      vertex -22.3919 4.50806 27.0197
      vertex -22.3919 4.18664 26.3596
    endloop
  endfacet
  facet normal -0.110616 0.110616 0.987688
    outer loop
      vertex 17.8017 13.8652 13.3946
      vertex -13.3777 -18.2892 13.5038
      vertex 18.2892 13.3777 13.5038
    endloop
  endfacet
  facet normal -0.110616 0.110616 0.987688
    outer loop
      vertex -13.3777 -18.2892 13.5038
      vertex 17.8017 13.8652 13.3946
      vertex -13.8652 -17.8017 13.3946
    endloop
  endfacet
  facet normal -0.253404 0.253404 0.93358
    outer loop
      vertex 20.6703 10.9966 14.4061
      vertex -10.5357 -21.1312 14.6563
      vertex 21.1312 10.5357 14.6563
    endloop
  endfacet
  facet normal -0.253404 0.253404 0.93358
    outer loop
      vertex -10.5357 -21.1312 14.6563
      vertex 20.6703 10.9966 14.4061
      vertex -10.9966 -20.6703 14.4061
    endloop
  endfacet
  facet normal -0.321024 0.321018 0.891006
    outer loop
      vertex 22.033 9.63395 15.2241
      vertex 22.3919 9.11322 15.541
      vertex 22.3919 9.27502 15.4828
    endloop
  endfacet
  facet normal -0.321021 0.321021 0.891006
    outer loop
      vertex 22.033 9.63395 15.2241
      vertex -9.11322 -22.3919 15.541
      vertex 22.3919 9.11322 15.541
    endloop
  endfacet
  facet normal -0.321021 0.321021 0.891006
    outer loop
      vertex -9.63395 -22.033 15.2241
      vertex -9.11322 -22.3919 15.541
      vertex 22.033 9.63395 15.2241
    endloop
  endfacet
  facet normal -0.321018 0.321024 0.891006
    outer loop
      vertex -9.11322 -22.3919 15.541
      vertex -9.63395 -22.033 15.2241
      vertex -9.27502 -22.3919 15.4828
    endloop
  endfacet
  facet normal -0.206737 0.206737 0.956305
    outer loop
      vertex 19.7316 11.9354 13.9748
      vertex -11.4633 -20.2036 14.1789
      vertex 20.2036 11.4633 14.1789
    endloop
  endfacet
  facet normal -0.206737 0.206737 0.956305
    outer loop
      vertex -11.4633 -20.2036 14.1789
      vertex 19.7316 11.9354 13.9748
      vertex -11.9354 -19.7316 13.9748
    endloop
  endfacet
  facet normal -0.385118 0.385118 0.83867
    outer loop
      vertex 22.3919 7.4035 16.239
      vertex -6.57552 -22.3919 16.6192
      vertex 22.3919 6.57552 16.6192
    endloop
  endfacet
  facet normal -0.385118 0.385118 0.83867
    outer loop
      vertex -6.57552 -22.3919 16.6192
      vertex 22.3919 7.4035 16.239
      vertex -7.4035 -22.3919 16.239
    endloop
  endfacet
  facet normal -0.405581 0.405581 0.819151
    outer loop
      vertex 22.3919 6.57552 16.6192
      vertex -5.76681 -22.3919 17.0197
      vertex 22.3919 5.76681 17.0197
    endloop
  endfacet
  facet normal -0.405581 0.405581 0.819151
    outer loop
      vertex -5.76681 -22.3919 17.0197
      vertex 22.3919 6.57552 16.6192
      vertex -6.57552 -22.3919 16.6192
    endloop
  endfacet
  facet normal -0.444996 0.444996 0.777147
    outer loop
      vertex 22.3919 4.97835 17.4398
      vertex -4.2111 -22.3919 17.8791
      vertex 22.3919 4.2111 17.8791
    endloop
  endfacet
  facet normal -0.444996 0.444996 0.777147
    outer loop
      vertex -4.2111 -22.3919 17.8791
      vertex 22.3919 4.97835 17.4398
      vertex -4.97835 -22.3919 17.4398
    endloop
  endfacet
  facet normal -0.463904 0.463904 0.754709
    outer loop
      vertex 22.3919 4.2111 17.8791
      vertex -3.46601 -22.3919 18.3371
      vertex 22.3919 3.46601 18.3371
    endloop
  endfacet
  facet normal -0.463904 0.463904 0.754709
    outer loop
      vertex -3.46601 -22.3919 18.3371
      vertex 22.3919 4.2111 17.8791
      vertex -4.2111 -22.3919 17.8791
    endloop
  endfacet
  facet normal -0.549526 0.549526 0.62932
    outer loop
      vertex 22.3919 0.724874 20.3442
      vertex -0.103573 -22.3919 20.8868
      vertex 22.3919 0.103573 20.8868
    endloop
  endfacet
  facet normal -0.549526 0.549526 0.62932
    outer loop
      vertex -0.103573 -22.3919 20.8868
      vertex 22.3919 0.724874 20.3442
      vertex -0.724874 -22.3919 20.3442
    endloop
  endfacet
  facet normal -0.606109 0.606109 0.515037
    outer loop
      vertex 1.59454 -22.3919 22.6016
      vertex 22.3919 -2.10301 23.2
      vertex 22.3919 -1.59454 22.6016
    endloop
  endfacet
  facet normal -0.606109 0.606109 0.515037
    outer loop
      vertex 22.3919 -2.10301 23.2
      vertex 1.59454 -22.3919 22.6016
      vertex 2.10301 -22.3919 23.2
    endloop
  endfacet
  facet normal -0.630036 0.630036 0.453992
    outer loop
      vertex 2.58165 -22.3919 23.8106
      vertex 22.3919 -3.02985 24.4326
      vertex 22.3919 -2.58165 23.8106
    endloop
  endfacet
  facet normal -0.630036 0.630036 0.453992
    outer loop
      vertex 22.3919 -3.02985 24.4326
      vertex 2.58165 -22.3919 23.8106
      vertex 3.02985 -22.3919 24.4326
    endloop
  endfacet
  facet normal -0.698401 0.698401 0.156435
    outer loop
      vertex 5.46269 -22.3919 29.727
      vertex 22.3919 -5.61713 30.4165
      vertex 22.3919 -5.46269 29.727
    endloop
  endfacet
  facet normal -0.698401 0.698401 0.156435
    outer loop
      vertex 22.3919 -5.61713 30.4165
      vertex 5.46269 -22.3919 29.727
      vertex 5.61713 -22.3919 30.4165
    endloop
  endfacet
  facet normal -0.704416 0.704416 0.0871558
    outer loop
      vertex 22.3919 -5.73744 31.1094
      vertex 5.82349 -22.3919 31.8049
      vertex 22.3919 -5.82349 31.8049
    endloop
  endfacet
  facet normal -0.704416 0.704416 0.0871558
    outer loop
      vertex 5.82349 -22.3919 31.8049
      vertex 22.3919 -5.73744 31.1094
      vertex 5.73744 -22.3919 31.1094
    endloop
  endfacet
  facet normal -0.706138 0.706138 0.052336
    outer loop
      vertex 5.82349 -22.3919 31.8049
      vertex 22.3919 -5.87516 32.502
      vertex 22.3919 -5.82349 31.8049
    endloop
  endfacet
  facet normal -0.706138 0.706138 0.052336
    outer loop
      vertex 22.3919 -5.87516 32.502
      vertex 5.82349 -22.3919 31.8049
      vertex 5.87516 -22.3919 32.502
    endloop
  endfacet
  facet normal 0.593029 -0.593029 0.544639
    outer loop
      vertex -22.3919 1.59454 22.6016
      vertex -1.05684 22.3919 22.0161
      vertex -1.59454 22.3919 22.6016
    endloop
  endfacet
  facet normal 0.593029 -0.593029 0.544639
    outer loop
      vertex -1.05684 22.3919 22.0161
      vertex -22.3919 1.59454 22.6016
      vertex -22.3919 1.05684 22.0161
    endloop
  endfacet
  facet normal 0.579228 -0.579228 0.573575
    outer loop
      vertex -22.3919 1.05684 22.0161
      vertex -0.490574 22.3919 21.4443
      vertex -1.05684 22.3919 22.0161
    endloop
  endfacet
  facet normal 0.579228 -0.579228 0.573575
    outer loop
      vertex -0.490574 22.3919 21.4443
      vertex -22.3919 1.05684 22.0161
      vertex -22.3919 0.490574 21.4443
    endloop
  endfacet
  facet normal 0.606109 -0.606109 0.515037
    outer loop
      vertex -22.3919 2.10301 23.2
      vertex -1.59454 22.3919 22.6016
      vertex -2.10301 22.3919 23.2
    endloop
  endfacet
  facet normal 0.606109 -0.606109 0.515037
    outer loop
      vertex -1.59454 22.3919 22.6016
      vertex -22.3919 2.10301 23.2
      vertex -22.3919 1.59454 22.6016
    endloop
  endfacet
  facet normal -0.134923 0.134923 0.981627
    outer loop
      vertex 18.2892 13.3777 13.5038
      vertex -12.8931 -18.7738 13.637
      vertex 18.7738 12.8931 13.637
    endloop
  endfacet
  facet normal -0.134923 0.134923 0.981627
    outer loop
      vertex -12.8931 -18.7738 13.637
      vertex 18.2892 13.3777 13.5038
      vertex -13.3777 -18.2892 13.5038
    endloop
  endfacet
  facet normal -0.5 0.5 0.707107
    outer loop
      vertex 22.3919 2.74398 18.8132
      vertex -2.04588 -22.3919 19.3068
      vertex 22.3919 2.04588 19.3068
    endloop
  endfacet
  facet normal -0.5 0.5 0.707107
    outer loop
      vertex -2.04588 -22.3919 19.3068
      vertex 22.3919 2.74398 18.8132
      vertex -2.74398 -22.3919 18.8132
    endloop
  endfacet
  facet normal -0.56472 0.56472 0.601816
    outer loop
      vertex 22.3919 0.103573 20.8868
      vertex 0.490574 -22.3919 21.4443
      vertex 22.3919 -0.490574 21.4443
    endloop
  endfacet
  facet normal -0.56472 0.56472 0.601816
    outer loop
      vertex 0.490574 -22.3919 21.4443
      vertex 22.3919 0.103573 20.8868
      vertex -0.103573 -22.3919 20.8868
    endloop
  endfacet
  facet normal -0.53366 0.53366 0.65606
    outer loop
      vertex 22.3919 1.37257 19.8174
      vertex -0.724874 -22.3919 20.3442
      vertex 22.3919 0.724874 20.3442
    endloop
  endfacet
  facet normal -0.53366 0.53366 0.65606
    outer loop
      vertex -0.724874 -22.3919 20.3442
      vertex 22.3919 1.37257 19.8174
      vertex -1.37257 -22.3919 19.8174
    endloop
  endfacet
  facet normal -0.579228 0.579228 0.573575
    outer loop
      vertex 22.3919 -0.490574 21.4443
      vertex 1.05684 -22.3919 22.0161
      vertex 22.3919 -1.05684 22.0161
    endloop
  endfacet
  facet normal -0.579228 0.579228 0.573575
    outer loop
      vertex 1.05684 -22.3919 22.0161
      vertex 22.3919 -0.490574 21.4443
      vertex 0.490574 -22.3919 21.4443
    endloop
  endfacet
endsolid OpenSCAD_Model
