solid OpenSCAD_Model
  facet normal 0 1 -0
    outer loop
      vertex 22.3919 -4 0
      vertex -22.3919 -4 15.99
      vertex 22.3919 -4 15.99
    endloop
  endfacet
  facet normal 0 1 0
    outer loop
      vertex -22.3919 -4 15.99
      vertex 22.3919 -4 0
      vertex -22.3919 -4 0
    endloop
  endfacet
  facet normal 0 0 -1
    outer loop
      vertex -22.3919 4 0
      vertex 22.3919 6.4 0
      vertex 22.3919 4 0
    endloop
  endfacet
  facet normal -0 0 -1
    outer loop
      vertex 22.3919 6.4 0
      vertex -22.3919 4 0
      vertex -22.3919 6.4 0
    endloop
  endfacet
  facet normal 0 0 -1
    outer loop
      vertex -22.3919 -6.4 0
      vertex 22.3919 -4 0
      vertex 22.3919 -6.4 0
    endloop
  endfacet
  facet normal -0 0 -1
    outer loop
      vertex 22.3919 -4 0
      vertex -22.3919 -6.4 0
      vertex -22.3919 -4 0
    endloop
  endfacet
  facet normal 0 -1 0
    outer loop
      vertex -22.3919 -6.4 15.99
      vertex -12.1184 -6.4 4.09706
      vertex 22.3919 -6.4 15.99
    endloop
  endfacet
  facet normal 0 -1 0
    outer loop
      vertex -22.3919 -6.4 0
      vertex -12.1184 -6.4 4.09706
      vertex -22.3919 -6.4 15.99
    endloop
  endfacet
  facet normal 0 -1 -0
    outer loop
      vertex -12.1184 -6.4 0.702943
      vertex -22.3919 -6.4 0
      vertex 12.1184 -6.4 0.702943
    endloop
  endfacet
  facet normal 0 -1 -0
    outer loop
      vertex -12.1184 -6.4 4.09706
      vertex -22.3919 -6.4 0
      vertex -12.1184 -6.4 0.702943
    endloop
  endfacet
  facet normal 0 -1 0
    outer loop
      vertex 12.1184 -6.4 4.09706
      vertex 22.3919 -6.4 15.99
      vertex -12.1184 -6.4 4.09706
    endloop
  endfacet
  facet normal 0 -1 0
    outer loop
      vertex 22.3919 -6.4 0
      vertex 12.1184 -6.4 4.09706
      vertex 12.1184 -6.4 0.702943
    endloop
  endfacet
  facet normal 0 -1 0
    outer loop
      vertex 12.1184 -6.4 4.09706
      vertex 22.3919 -6.4 0
      vertex 22.3919 -6.4 15.99
    endloop
  endfacet
  facet normal 0 -1 0
    outer loop
      vertex 22.3919 -6.4 0
      vertex 12.1184 -6.4 0.702943
      vertex -22.3919 -6.4 0
    endloop
  endfacet
  facet normal -1 0 0
    outer loop
      vertex -12.1184 -19.5485 13.8514
      vertex -12.1184 -6.4 4.09706
      vertex -12.1184 -6.4 0.702943
    endloop
  endfacet
  facet normal -1 0 0
    outer loop
      vertex -12.1184 -6.4 4.09706
      vertex -12.1184 -19.5485 13.8514
      vertex -12.1184 -18.2929 15.99
    endloop
  endfacet
  facet normal -1 -0 0
    outer loop
      vertex -12.1184 -18.2929 15.99
      vertex -12.1184 -19.5485 13.8514
      vertex -12.1184 -19.5485 15.99
    endloop
  endfacet
  facet normal 1 -0 0
    outer loop
      vertex 12.1184 -19.5485 13.8514
      vertex 12.1184 -6.4 4.09706
      vertex 12.1184 -18.2929 15.99
    endloop
  endfacet
  facet normal 1 0 0
    outer loop
      vertex 12.1184 -19.5485 13.8514
      vertex 12.1184 -18.2929 15.99
      vertex 12.1184 -19.5485 15.99
    endloop
  endfacet
  facet normal 1 0 0
    outer loop
      vertex 12.1184 -6.4 4.09706
      vertex 12.1184 -19.5485 13.8514
      vertex 12.1184 -6.4 0.702943
    endloop
  endfacet
  facet normal 0 0.707107 0.707107
    outer loop
      vertex 12.1184 -6.4 4.09706
      vertex -12.1184 -18.2929 15.99
      vertex 12.1184 -18.2929 15.99
    endloop
  endfacet
  facet normal 0 0.707107 0.707107
    outer loop
      vertex -12.1184 -18.2929 15.99
      vertex 12.1184 -6.4 4.09706
      vertex -12.1184 -6.4 4.09706
    endloop
  endfacet
  facet normal -7.37253e-08 -0.707107 -0.707107
    outer loop
      vertex -12.1184 -6.4 0.702943
      vertex -9.97985 -21.6871 15.99
      vertex -12.1184 -19.5485 13.8514
    endloop
  endfacet
  facet normal 0 -0.707107 -0.707107
    outer loop
      vertex -9.97985 -21.6871 15.99
      vertex -12.1184 -6.4 0.702943
      vertex 9.97985 -21.6871 15.99
    endloop
  endfacet
  facet normal -0 -0.707107 -0.707107
    outer loop
      vertex 12.1184 -6.4 0.702943
      vertex 9.97985 -21.6871 15.99
      vertex -12.1184 -6.4 0.702943
    endloop
  endfacet
  facet normal 7.37253e-08 -0.707107 -0.707107
    outer loop
      vertex 9.97985 -21.6871 15.99
      vertex 12.1184 -6.4 0.702943
      vertex 12.1184 -19.5485 13.8514
    endloop
  endfacet
  facet normal 0 -1 0
    outer loop
      vertex -22.3919 4 0
      vertex 22.3919 4 15.99
      vertex -22.3919 4 15.99
    endloop
  endfacet
  facet normal 0 -1 -0
    outer loop
      vertex 22.3919 4 15.99
      vertex -22.3919 4 0
      vertex 22.3919 4 0
    endloop
  endfacet
  facet normal 0 1 0
    outer loop
      vertex 22.3919 6.4 15.99
      vertex 12.1184 6.4 4.09706
      vertex -22.3919 6.4 15.99
    endloop
  endfacet
  facet normal 0 1 -0
    outer loop
      vertex 22.3919 6.4 0
      vertex 12.1184 6.4 4.09706
      vertex 22.3919 6.4 15.99
    endloop
  endfacet
  facet normal 0 1 0
    outer loop
      vertex 12.1184 6.4 0.702943
      vertex 22.3919 6.4 0
      vertex -12.1184 6.4 0.702943
    endloop
  endfacet
  facet normal 0 1 0
    outer loop
      vertex 12.1184 6.4 4.09706
      vertex 22.3919 6.4 0
      vertex 12.1184 6.4 0.702943
    endloop
  endfacet
  facet normal 0 1 -0
    outer loop
      vertex -12.1184 6.4 4.09706
      vertex -22.3919 6.4 15.99
      vertex 12.1184 6.4 4.09706
    endloop
  endfacet
  facet normal 0 1 0
    outer loop
      vertex -22.3919 6.4 0
      vertex -12.1184 6.4 4.09706
      vertex -12.1184 6.4 0.702943
    endloop
  endfacet
  facet normal 0 1 0
    outer loop
      vertex -12.1184 6.4 4.09706
      vertex -22.3919 6.4 0
      vertex -22.3919 6.4 15.99
    endloop
  endfacet
  facet normal 0 1 0
    outer loop
      vertex -22.3919 6.4 0
      vertex -12.1184 6.4 0.702943
      vertex 22.3919 6.4 0
    endloop
  endfacet
  facet normal -1 0 0
    outer loop
      vertex -12.1184 19.5485 13.8514
      vertex -12.1184 18.2929 15.99
      vertex -12.1184 19.5485 15.99
    endloop
  endfacet
  facet normal -1 0 0
    outer loop
      vertex -12.1184 6.4 4.09706
      vertex -12.1184 19.5485 13.8514
      vertex -12.1184 6.4 0.702943
    endloop
  endfacet
  facet normal -1 -0 0
    outer loop
      vertex -12.1184 19.5485 13.8514
      vertex -12.1184 6.4 4.09706
      vertex -12.1184 18.2929 15.99
    endloop
  endfacet
  facet normal 1 -0 0
    outer loop
      vertex 12.1184 18.2929 15.99
      vertex 12.1184 19.5485 13.8514
      vertex 12.1184 19.5485 15.99
    endloop
  endfacet
  facet normal 1 0 0
    outer loop
      vertex 12.1184 6.4 4.09706
      vertex 12.1184 19.5485 13.8514
      vertex 12.1184 18.2929 15.99
    endloop
  endfacet
  facet normal 1 0 0
    outer loop
      vertex 12.1184 19.5485 13.8514
      vertex 12.1184 6.4 4.09706
      vertex 12.1184 6.4 0.702943
    endloop
  endfacet
  facet normal 0 -0.707107 0.707107
    outer loop
      vertex -12.1184 6.4 4.09706
      vertex 12.1184 18.2929 15.99
      vertex -12.1184 18.2929 15.99
    endloop
  endfacet
  facet normal 0 -0.707107 0.707107
    outer loop
      vertex 12.1184 18.2929 15.99
      vertex -12.1184 6.4 4.09706
      vertex 12.1184 6.4 4.09706
    endloop
  endfacet
  facet normal 7.37253e-08 0.707107 -0.707107
    outer loop
      vertex 12.1184 6.4 0.702943
      vertex 9.97985 21.6871 15.99
      vertex 12.1184 19.5485 13.8514
    endloop
  endfacet
  facet normal 0 0.707107 -0.707107
    outer loop
      vertex 9.97985 21.6871 15.99
      vertex 12.1184 6.4 0.702943
      vertex -9.97985 21.6871 15.99
    endloop
  endfacet
  facet normal 0 0.707107 -0.707107
    outer loop
      vertex -12.1184 6.4 0.702943
      vertex -9.97985 21.6871 15.99
      vertex 12.1184 6.4 0.702943
    endloop
  endfacet
  facet normal -7.37253e-08 0.707107 -0.707107
    outer loop
      vertex -9.97985 21.6871 15.99
      vertex -12.1184 6.4 0.702943
      vertex -12.1184 19.5485 13.8514
    endloop
  endfacet
  facet normal 0.707105 0.707108 -2.7032e-07
    outer loop
      vertex 12.4122 19.2547 17.7941
      vertex 12.1184 19.5485 15.99
      vertex 11.9354 19.7316 17.9748
    endloop
  endfacet
  facet normal 0.707107 0.707106 -9.26613e-07
    outer loop
      vertex 12.8931 18.7738 17.637
      vertex 12.1184 19.5485 15.99
      vertex 12.4122 19.2547 17.7941
    endloop
  endfacet
  facet normal 0.707107 0.707107 -3.6255e-07
    outer loop
      vertex 13.3777 18.2892 17.5038
      vertex 12.1184 19.5485 15.99
      vertex 12.8931 18.7738 17.637
    endloop
  endfacet
  facet normal 0.707107 0.707107 -3.7549e-07
    outer loop
      vertex 13.8652 17.8017 17.3946
      vertex 12.1184 19.5485 15.99
      vertex 13.3777 18.2892 17.5038
    endloop
  endfacet
  facet normal 0.707107 0.707107 -3.94827e-07
    outer loop
      vertex 14.3552 17.3117 17.3096
      vertex 12.1184 19.5485 15.99
      vertex 13.8652 17.8017 17.3946
    endloop
  endfacet
  facet normal 0.707107 0.707107 -4.2244e-07
    outer loop
      vertex 14.8469 16.82 17.2487
      vertex 12.1184 19.5485 15.99
      vertex 14.3552 17.3117 17.3096
    endloop
  endfacet
  facet normal 0.707107 0.707107 -4.61584e-07
    outer loop
      vertex 15.3399 16.327 17.2122
      vertex 12.1184 19.5485 15.99
      vertex 14.8469 16.82 17.2487
    endloop
  endfacet
  facet normal 0.707107 0.707107 -5.18054e-07
    outer loop
      vertex 15.8335 15.8335 17.2
      vertex 12.1184 19.5485 15.99
      vertex 15.3399 16.327 17.2122
    endloop
  endfacet
  facet normal 0.707107 0.707107 -6.03011e-07
    outer loop
      vertex 16.327 15.3399 17.2122
      vertex 12.1184 19.5485 15.99
      vertex 15.8335 15.8335 17.2
    endloop
  endfacet
  facet normal 0.707107 0.707107 4.03396e-07
    outer loop
      vertex 22.3919 9.27502 15.99
      vertex 16.327 15.3399 17.2122
      vertex 16.82 14.8469 17.2487
    endloop
  endfacet
  facet normal 0.707107 0.707107 3.46152e-07
    outer loop
      vertex 22.3919 9.27502 15.99
      vertex 16.82 14.8469 17.2487
      vertex 17.3117 14.3552 17.3096
    endloop
  endfacet
  facet normal 0.707107 0.707107 3.06287e-07
    outer loop
      vertex 22.3919 9.27502 15.99
      vertex 17.3117 14.3552 17.3096
      vertex 17.8017 13.8652 17.3946
    endloop
  endfacet
  facet normal 0.707107 0.707107 2.7719e-07
    outer loop
      vertex 22.3919 9.27502 15.99
      vertex 17.8017 13.8652 17.3946
      vertex 18.2892 13.3777 17.5038
    endloop
  endfacet
  facet normal 0.707107 0.707107 -9.96949e-08
    outer loop
      vertex 16.327 15.3399 17.2122
      vertex 22.3919 9.27502 15.99
      vertex 12.1184 19.5485 15.99
    endloop
  endfacet
  facet normal 0.707107 0.707107 2.55277e-07
    outer loop
      vertex 18.7738 12.8931 17.637
      vertex 22.3919 9.27502 15.99
      vertex 18.2892 13.3777 17.5038
    endloop
  endfacet
  facet normal 0.707106 0.707107 -1.55511e-06
    outer loop
      vertex 19.2547 12.4122 17.7941
      vertex 22.3919 9.27502 15.99
      vertex 18.7738 12.8931 17.637
    endloop
  endfacet
  facet normal 0.707108 0.707106 2.96495e-06
    outer loop
      vertex 19.7316 11.9354 17.9748
      vertex 22.3919 9.27502 15.99
      vertex 19.2547 12.4122 17.7941
    endloop
  endfacet
  facet normal 0.707106 0.707107 -7.82023e-07
    outer loop
      vertex 20.2036 11.4633 18.1789
      vertex 22.3919 9.27502 15.99
      vertex 19.7316 11.9354 17.9748
    endloop
  endfacet
  facet normal 0.707107 0.707107 2.07208e-07
    outer loop
      vertex 20.6703 10.9966 18.4061
      vertex 22.3919 9.27502 15.99
      vertex 20.2036 11.4633 18.1789
    endloop
  endfacet
  facet normal 0.707107 0.707107 2.01256e-07
    outer loop
      vertex 21.1312 10.5357 18.6563
      vertex 22.3919 9.27502 15.99
      vertex 20.6703 10.9966 18.4061
    endloop
  endfacet
  facet normal 0.707107 0.707107 1.96999e-07
    outer loop
      vertex 21.5856 10.0813 18.9291
      vertex 22.3919 9.27502 15.99
      vertex 21.1312 10.5357 18.6563
    endloop
  endfacet
  facet normal 0.707107 0.707107 1.94292e-07
    outer loop
      vertex 22.033 9.63395 19.2241
      vertex 22.3919 9.27502 15.99
      vertex 21.5856 10.0813 18.9291
    endloop
  endfacet
  facet normal 0.707106 0.707108 -0
    outer loop
      vertex 22.3919 9.27502 15.99
      vertex 22.033 9.63395 19.2241
      vertex 22.3919 9.27502 19.4828
    endloop
  endfacet
  facet normal 0.707108 0.707106 0
    outer loop
      vertex 9.63395 22.033 19.2241
      vertex 9.27502 22.3919 15.99
      vertex 9.27502 22.3919 19.4828
    endloop
  endfacet
  facet normal 0.707107 0.707107 1.94292e-07
    outer loop
      vertex 10.0813 21.5856 18.9291
      vertex 9.27502 22.3919 15.99
      vertex 9.63395 22.033 19.2241
    endloop
  endfacet
  facet normal 0.707107 0.707107 1.96999e-07
    outer loop
      vertex 10.5357 21.1312 18.6563
      vertex 9.27502 22.3919 15.99
      vertex 10.0813 21.5856 18.9291
    endloop
  endfacet
  facet normal 0.707107 0.707106 -1.99462e-07
    outer loop
      vertex 9.27502 22.3919 15.99
      vertex 10.5357 21.1312 18.6563
      vertex 9.97985 21.6871 15.99
    endloop
  endfacet
  facet normal 0.707107 0.707107 0
    outer loop
      vertex 10.9966 20.6703 18.4061
      vertex 9.97985 21.6871 15.99
      vertex 10.5357 21.1312 18.6563
    endloop
  endfacet
  facet normal 0.707107 0.707107 0
    outer loop
      vertex 11.4633 20.2036 18.1789
      vertex 9.97985 21.6871 15.99
      vertex 10.9966 20.6703 18.4061
    endloop
  endfacet
  facet normal 0.707108 0.707106 1.3722e-07
    outer loop
      vertex 12.1184 19.5485 15.99
      vertex 11.4633 20.2036 18.1789
      vertex 11.9354 19.7316 17.9748
    endloop
  endfacet
  facet normal 0.707107 0.707107 -2.13706e-07
    outer loop
      vertex 11.4633 20.2036 18.1789
      vertex 12.1184 19.5485 15.99
      vertex 9.97985 21.6871 15.99
    endloop
  endfacet
  facet normal 0.707107 0.707107 0
    outer loop
      vertex 9.97985 21.6871 15.99
      vertex 12.1184 19.5485 15.99
      vertex 12.1184 19.5485 13.8514
    endloop
  endfacet
  facet normal -1 0 0
    outer loop
      vertex -22.3919 -6.4 15.99
      vertex -22.3919 -4 15.99
      vertex -22.3919 -4 0
    endloop
  endfacet
  facet normal -1 0 0
    outer loop
      vertex -22.3919 -6.57552 20.6192
      vertex -22.3919 -4 15.99
      vertex -22.3919 -6.4 15.99
    endloop
  endfacet
  facet normal -1 0 0
    outer loop
      vertex -22.3919 -4 15.99
      vertex -22.3919 -4.97835 21.4398
      vertex -22.3919 -4.2111 21.8791
    endloop
  endfacet
  facet normal -1 0 0
    outer loop
      vertex -22.3919 -6.4 15.99
      vertex -22.3919 -4 0
      vertex -22.3919 -6.4 0
    endloop
  endfacet
  facet normal -1 0 0
    outer loop
      vertex -22.3919 -4 15.99
      vertex -22.3919 -5.76681 21.0197
      vertex -22.3919 -4.97835 21.4398
    endloop
  endfacet
  facet normal -1 0 0
    outer loop
      vertex -22.3919 -4 15.99
      vertex -22.3919 -6.57552 20.6192
      vertex -22.3919 -5.76681 21.0197
    endloop
  endfacet
  facet normal -1 0 0
    outer loop
      vertex -22.3919 -6.4 15.99
      vertex -22.3919 -7.4035 20.239
      vertex -22.3919 -6.57552 20.6192
    endloop
  endfacet
  facet normal -1 0 0
    outer loop
      vertex -22.3919 -6.4 15.99
      vertex -22.3919 -8.24975 19.8795
      vertex -22.3919 -7.4035 20.239
    endloop
  endfacet
  facet normal -1 0 0
    outer loop
      vertex -22.3919 -9.27502 15.99
      vertex -22.3919 -8.24975 19.8795
      vertex -22.3919 -6.4 15.99
    endloop
  endfacet
  facet normal -1 0 0
    outer loop
      vertex -22.3919 -8.24975 19.8795
      vertex -22.3919 -9.27502 15.99
      vertex -22.3919 -9.11322 19.541
    endloop
  endfacet
  facet normal -1 0 0
    outer loop
      vertex -22.3919 -9.11322 19.541
      vertex -22.3919 -9.27502 15.99
      vertex -22.3919 -9.27502 19.4828
    endloop
  endfacet
  facet normal -1 0 0
    outer loop
      vertex -22.3919 4 15.99
      vertex -22.3919 6.4 15.99
      vertex -22.3919 6.4 0
    endloop
  endfacet
  facet normal -1 0 0
    outer loop
      vertex -22.3919 6.4 15.99
      vertex -22.3919 5.87516 36.502
      vertex -22.3919 5.89239 37.2
    endloop
  endfacet
  facet normal -1 0 0
    outer loop
      vertex -22.3919 6.4 15.99
      vertex -22.3919 5.82349 35.8049
      vertex -22.3919 5.87516 36.502
    endloop
  endfacet
  facet normal -1 0 0
    outer loop
      vertex -22.3919 6.4 15.99
      vertex -22.3919 5.73744 35.1094
      vertex -22.3919 5.82349 35.8049
    endloop
  endfacet
  facet normal -1 0 0
    outer loop
      vertex -22.3919 6.4 15.99
      vertex -22.3919 5.61713 34.4165
      vertex -22.3919 5.73744 35.1094
    endloop
  endfacet
  facet normal -1 0 0
    outer loop
      vertex -22.3919 1.05684 26.0161
      vertex -22.3919 6.4 15.99
      vertex -22.3919 4 15.99
    endloop
  endfacet
  facet normal -1 0 0
    outer loop
      vertex -22.3919 6.4 15.99
      vertex -22.3919 5.46269 33.727
      vertex -22.3919 5.61713 34.4165
    endloop
  endfacet
  facet normal -1 0 0
    outer loop
      vertex -22.3919 6.4 15.99
      vertex -22.3919 5.27431 33.0418
      vertex -22.3919 5.46269 33.727
    endloop
  endfacet
  facet normal -1 0 0
    outer loop
      vertex -22.3919 6.4 15.99
      vertex -22.3919 5.05223 32.3616
      vertex -22.3919 5.27431 33.0418
    endloop
  endfacet
  facet normal -1 0 0
    outer loop
      vertex -22.3919 6.4 15.99
      vertex -22.3919 4.7967 31.6873
      vertex -22.3919 5.05223 32.3616
    endloop
  endfacet
  facet normal -1 0 0
    outer loop
      vertex -22.3919 6.4 15.99
      vertex -22.3919 4.50806 31.0197
      vertex -22.3919 4.7967 31.6873
    endloop
  endfacet
  facet normal -1 0 0
    outer loop
      vertex -22.3919 4 15.99
      vertex -22.3919 6.4 0
      vertex -22.3919 4 0
    endloop
  endfacet
  facet normal -1 0 0
    outer loop
      vertex -22.3919 6.4 15.99
      vertex -22.3919 4.18664 30.3596
      vertex -22.3919 4.50806 31.0197
    endloop
  endfacet
  facet normal -1 0 0
    outer loop
      vertex -22.3919 6.4 15.99
      vertex -22.3919 3.83284 29.7079
      vertex -22.3919 4.18664 30.3596
    endloop
  endfacet
  facet normal -1 0 0
    outer loop
      vertex -22.3919 6.4 15.99
      vertex -22.3919 3.44708 29.0653
      vertex -22.3919 3.83284 29.7079
    endloop
  endfacet
  facet normal -1 0 0
    outer loop
      vertex -22.3919 6.4 15.99
      vertex -22.3919 3.02985 28.4326
      vertex -22.3919 3.44708 29.0653
    endloop
  endfacet
  facet normal -1 0 0
    outer loop
      vertex -22.3919 6.4 15.99
      vertex -22.3919 2.58165 27.8106
      vertex -22.3919 3.02985 28.4326
    endloop
  endfacet
  facet normal -1 0 0
    outer loop
      vertex -22.3919 6.4 15.99
      vertex -22.3919 2.10301 27.2
      vertex -22.3919 2.58165 27.8106
    endloop
  endfacet
  facet normal -1 0 0
    outer loop
      vertex -22.3919 6.4 15.99
      vertex -22.3919 1.59454 26.6016
      vertex -22.3919 2.10301 27.2
    endloop
  endfacet
  facet normal -1 0 0
    outer loop
      vertex -22.3919 6.4 15.99
      vertex -22.3919 1.05684 26.0161
      vertex -22.3919 1.59454 26.6016
    endloop
  endfacet
  facet normal -1 0 0
    outer loop
      vertex -22.3919 4 15.99
      vertex -22.3919 0.490574 25.4443
      vertex -22.3919 1.05684 26.0161
    endloop
  endfacet
  facet normal -1 0 0
    outer loop
      vertex -22.3919 4 15.99
      vertex -22.3919 -0.103573 24.8868
      vertex -22.3919 0.490574 25.4443
    endloop
  endfacet
  facet normal -1 0 0
    outer loop
      vertex -22.3919 4 15.99
      vertex -22.3919 -0.724874 24.3442
      vertex -22.3919 -0.103573 24.8868
    endloop
  endfacet
  facet normal -1 0 0
    outer loop
      vertex -22.3919 4 15.99
      vertex -22.3919 -1.37257 23.8174
      vertex -22.3919 -0.724874 24.3442
    endloop
  endfacet
  facet normal -1 0 0
    outer loop
      vertex -22.3919 4 15.99
      vertex -22.3919 -2.04588 23.3068
      vertex -22.3919 -1.37257 23.8174
    endloop
  endfacet
  facet normal -1 0 0
    outer loop
      vertex -22.3919 4 15.99
      vertex -22.3919 -2.74398 22.8132
      vertex -22.3919 -2.04588 23.3068
    endloop
  endfacet
  facet normal -1 0 0
    outer loop
      vertex -22.3919 -4 15.99
      vertex -22.3919 -2.74398 22.8132
      vertex -22.3919 4 15.99
    endloop
  endfacet
  facet normal -1 0 0
    outer loop
      vertex -22.3919 -2.74398 22.8132
      vertex -22.3919 -4 15.99
      vertex -22.3919 -3.46601 22.3371
    endloop
  endfacet
  facet normal -1 0 0
    outer loop
      vertex -22.3919 -3.46601 22.3371
      vertex -22.3919 -4 15.99
      vertex -22.3919 -4.2111 21.8791
    endloop
  endfacet
  facet normal -1 0 0
    outer loop
      vertex -22.3919 6.4 15.99
      vertex -22.3919 9.27502 37.2
      vertex -22.3919 9.27502 15.99
    endloop
  endfacet
  facet normal -1 -0 0
    outer loop
      vertex -22.3919 9.27502 37.2
      vertex -22.3919 6.4 15.99
      vertex -22.3919 5.89239 37.2
    endloop
  endfacet
  facet normal -0.707107 0.707106 0
    outer loop
      vertex -9.97985 21.6871 15.99
      vertex -9.27502 22.3919 37.2
      vertex -9.27502 22.3919 15.99
    endloop
  endfacet
  facet normal -0.707107 0.707107 0
    outer loop
      vertex -12.1184 19.5485 15.99
      vertex -9.97985 21.6871 15.99
      vertex -12.1184 19.5485 13.8514
    endloop
  endfacet
  facet normal -0.707107 0.707107 -2.13152e-08
    outer loop
      vertex -9.97985 21.6871 15.99
      vertex -12.1184 19.5485 15.99
      vertex -9.27502 22.3919 37.2
    endloop
  endfacet
  facet normal -0.707107 0.707107 0
    outer loop
      vertex -22.3919 9.27502 37.2
      vertex -12.1184 19.5485 15.99
      vertex -22.3919 9.27502 15.99
    endloop
  endfacet
  facet normal -0.707107 0.707107 -6.35879e-08
    outer loop
      vertex -12.1184 19.5485 15.99
      vertex -22.3919 9.27502 37.2
      vertex -9.27502 22.3919 37.2
    endloop
  endfacet
  facet normal 0.707107 -0.707107 0
    outer loop
      vertex 22.3919 -9.27502 37.2
      vertex 12.1184 -19.5485 15.99
      vertex 22.3919 -9.27502 15.99
    endloop
  endfacet
  facet normal 0.707107 -0.707107 0
    outer loop
      vertex 12.1184 -19.5485 15.99
      vertex 9.97985 -21.6871 15.99
      vertex 12.1184 -19.5485 13.8514
    endloop
  endfacet
  facet normal 0.707107 -0.707107 -6.35879e-08
    outer loop
      vertex 9.27502 -22.3919 37.2
      vertex 12.1184 -19.5485 15.99
      vertex 22.3919 -9.27502 37.2
    endloop
  endfacet
  facet normal 0.707107 -0.707107 -2.13152e-08
    outer loop
      vertex 12.1184 -19.5485 15.99
      vertex 9.27502 -22.3919 37.2
      vertex 9.97985 -21.6871 15.99
    endloop
  endfacet
  facet normal 0.707107 -0.707106 0
    outer loop
      vertex 9.97985 -21.6871 15.99
      vertex 9.27502 -22.3919 37.2
      vertex 9.27502 -22.3919 15.99
    endloop
  endfacet
  facet normal -0.707107 -0.707107 0
    outer loop
      vertex -9.97985 -21.6871 15.99
      vertex -12.1184 -19.5485 15.99
      vertex -12.1184 -19.5485 13.8514
    endloop
  endfacet
  facet normal -0.707107 -0.707107 -2.13706e-07
    outer loop
      vertex -11.4633 -20.2036 18.1789
      vertex -12.1184 -19.5485 15.99
      vertex -9.97985 -21.6871 15.99
    endloop
  endfacet
  facet normal -0.707108 -0.707106 1.3722e-07
    outer loop
      vertex -12.1184 -19.5485 15.99
      vertex -11.4633 -20.2036 18.1789
      vertex -11.9354 -19.7316 17.9748
    endloop
  endfacet
  facet normal -0.707107 -0.707107 0
    outer loop
      vertex -11.4633 -20.2036 18.1789
      vertex -9.97985 -21.6871 15.99
      vertex -10.9966 -20.6703 18.4061
    endloop
  endfacet
  facet normal -0.707107 -0.707107 0
    outer loop
      vertex -10.9966 -20.6703 18.4061
      vertex -9.97985 -21.6871 15.99
      vertex -10.5357 -21.1312 18.6563
    endloop
  endfacet
  facet normal -0.707107 -0.707106 -1.99462e-07
    outer loop
      vertex -9.27502 -22.3919 15.99
      vertex -10.5357 -21.1312 18.6563
      vertex -9.97985 -21.6871 15.99
    endloop
  endfacet
  facet normal -0.707107 -0.707107 1.96999e-07
    outer loop
      vertex -10.5357 -21.1312 18.6563
      vertex -9.27502 -22.3919 15.99
      vertex -10.0813 -21.5856 18.9291
    endloop
  endfacet
  facet normal -0.707107 -0.707107 1.94292e-07
    outer loop
      vertex -10.0813 -21.5856 18.9291
      vertex -9.27502 -22.3919 15.99
      vertex -9.63395 -22.033 19.2241
    endloop
  endfacet
  facet normal -0.707108 -0.707106 0
    outer loop
      vertex -9.63395 -22.033 19.2241
      vertex -9.27502 -22.3919 15.99
      vertex -9.27502 -22.3919 19.4828
    endloop
  endfacet
  facet normal -0.707106 -0.707108 0
    outer loop
      vertex -22.3919 -9.27502 15.99
      vertex -22.033 -9.63395 19.2241
      vertex -22.3919 -9.27502 19.4828
    endloop
  endfacet
  facet normal -0.707107 -0.707107 1.94292e-07
    outer loop
      vertex -22.3919 -9.27502 15.99
      vertex -21.5856 -10.0813 18.9291
      vertex -22.033 -9.63395 19.2241
    endloop
  endfacet
  facet normal -0.707107 -0.707107 1.96999e-07
    outer loop
      vertex -22.3919 -9.27502 15.99
      vertex -21.1312 -10.5357 18.6563
      vertex -21.5856 -10.0813 18.9291
    endloop
  endfacet
  facet normal -0.707107 -0.707107 2.01256e-07
    outer loop
      vertex -22.3919 -9.27502 15.99
      vertex -20.6703 -10.9966 18.4061
      vertex -21.1312 -10.5357 18.6563
    endloop
  endfacet
  facet normal -0.707107 -0.707107 2.07208e-07
    outer loop
      vertex -22.3919 -9.27502 15.99
      vertex -20.2036 -11.4633 18.1789
      vertex -20.6703 -10.9966 18.4061
    endloop
  endfacet
  facet normal -0.707106 -0.707107 -7.82023e-07
    outer loop
      vertex -22.3919 -9.27502 15.99
      vertex -19.7316 -11.9354 17.9748
      vertex -20.2036 -11.4633 18.1789
    endloop
  endfacet
  facet normal -0.707108 -0.707106 2.96495e-06
    outer loop
      vertex -22.3919 -9.27502 15.99
      vertex -19.2547 -12.4122 17.7941
      vertex -19.7316 -11.9354 17.9748
    endloop
  endfacet
  facet normal -0.707106 -0.707107 -1.55511e-06
    outer loop
      vertex -22.3919 -9.27502 15.99
      vertex -18.7738 -12.8931 17.637
      vertex -19.2547 -12.4122 17.7941
    endloop
  endfacet
  facet normal -0.707107 -0.707107 2.55277e-07
    outer loop
      vertex -22.3919 -9.27502 15.99
      vertex -18.2892 -13.3777 17.5038
      vertex -18.7738 -12.8931 17.637
    endloop
  endfacet
  facet normal -0.707107 -0.707107 2.7719e-07
    outer loop
      vertex -22.3919 -9.27502 15.99
      vertex -17.8017 -13.8652 17.3946
      vertex -18.2892 -13.3777 17.5038
    endloop
  endfacet
  facet normal -0.707107 -0.707107 3.06287e-07
    outer loop
      vertex -22.3919 -9.27502 15.99
      vertex -17.3117 -14.3552 17.3096
      vertex -17.8017 -13.8652 17.3946
    endloop
  endfacet
  facet normal -0.707107 -0.707107 3.46152e-07
    outer loop
      vertex -22.3919 -9.27502 15.99
      vertex -16.82 -14.8469 17.2487
      vertex -17.3117 -14.3552 17.3096
    endloop
  endfacet
  facet normal -0.707107 -0.707107 4.03396e-07
    outer loop
      vertex -22.3919 -9.27502 15.99
      vertex -16.327 -15.3399 17.2122
      vertex -16.82 -14.8469 17.2487
    endloop
  endfacet
  facet normal -0.707107 -0.707107 -9.96949e-08
    outer loop
      vertex -12.1184 -19.5485 15.99
      vertex -16.327 -15.3399 17.2122
      vertex -22.3919 -9.27502 15.99
    endloop
  endfacet
  facet normal -0.707107 -0.707107 -6.03011e-07
    outer loop
      vertex -16.327 -15.3399 17.2122
      vertex -12.1184 -19.5485 15.99
      vertex -15.8335 -15.8335 17.2
    endloop
  endfacet
  facet normal -0.707107 -0.707107 -5.18054e-07
    outer loop
      vertex -15.8335 -15.8335 17.2
      vertex -12.1184 -19.5485 15.99
      vertex -15.3399 -16.327 17.2122
    endloop
  endfacet
  facet normal -0.707107 -0.707107 -4.61584e-07
    outer loop
      vertex -15.3399 -16.327 17.2122
      vertex -12.1184 -19.5485 15.99
      vertex -14.8469 -16.82 17.2487
    endloop
  endfacet
  facet normal -0.707107 -0.707107 -4.2244e-07
    outer loop
      vertex -14.8469 -16.82 17.2487
      vertex -12.1184 -19.5485 15.99
      vertex -14.3552 -17.3117 17.3096
    endloop
  endfacet
  facet normal -0.707107 -0.707107 -3.94827e-07
    outer loop
      vertex -12.1184 -19.5485 15.99
      vertex -13.8652 -17.8017 17.3946
      vertex -14.3552 -17.3117 17.3096
    endloop
  endfacet
  facet normal -0.707107 -0.707107 -3.7549e-07
    outer loop
      vertex -12.1184 -19.5485 15.99
      vertex -13.3777 -18.2892 17.5038
      vertex -13.8652 -17.8017 17.3946
    endloop
  endfacet
  facet normal -0.707107 -0.707107 -3.6255e-07
    outer loop
      vertex -12.1184 -19.5485 15.99
      vertex -12.8931 -18.7738 17.637
      vertex -13.3777 -18.2892 17.5038
    endloop
  endfacet
  facet normal -0.707107 -0.707106 -9.26613e-07
    outer loop
      vertex -12.1184 -19.5485 15.99
      vertex -12.4122 -19.2547 17.7941
      vertex -12.8931 -18.7738 17.637
    endloop
  endfacet
  facet normal -0.707105 -0.707108 -2.7032e-07
    outer loop
      vertex -12.4122 -19.2547 17.7941
      vertex -12.1184 -19.5485 15.99
      vertex -11.9354 -19.7316 17.9748
    endloop
  endfacet
  facet normal 1 0 0
    outer loop
      vertex 22.3919 -4.7967 31.6873
      vertex 22.3919 -9.27502 15.99
      vertex 22.3919 -4.50806 31.0197
    endloop
  endfacet
  facet normal 1 0 0
    outer loop
      vertex 22.3919 -4.50806 31.0197
      vertex 22.3919 -9.27502 15.99
      vertex 22.3919 -6.4 15.99
    endloop
  endfacet
  facet normal 1 0 0
    outer loop
      vertex 22.3919 3.46601 22.3371
      vertex 22.3919 4 15.99
      vertex 22.3919 4.2111 21.8791
    endloop
  endfacet
  facet normal 1 0 0
    outer loop
      vertex 22.3919 2.74398 22.8132
      vertex 22.3919 4 15.99
      vertex 22.3919 3.46601 22.3371
    endloop
  endfacet
  facet normal 1 0 0
    outer loop
      vertex 22.3919 -4 15.99
      vertex 22.3919 2.74398 22.8132
      vertex 22.3919 2.04588 23.3068
    endloop
  endfacet
  facet normal 1 0 0
    outer loop
      vertex 22.3919 -4 15.99
      vertex 22.3919 2.04588 23.3068
      vertex 22.3919 1.37257 23.8174
    endloop
  endfacet
  facet normal 1 0 0
    outer loop
      vertex 22.3919 -4 15.99
      vertex 22.3919 1.37257 23.8174
      vertex 22.3919 0.724874 24.3442
    endloop
  endfacet
  facet normal 1 0 0
    outer loop
      vertex 22.3919 -4 15.99
      vertex 22.3919 0.724874 24.3442
      vertex 22.3919 0.103573 24.8868
    endloop
  endfacet
  facet normal 1 0 0
    outer loop
      vertex 22.3919 -4 15.99
      vertex 22.3919 0.103573 24.8868
      vertex 22.3919 -0.490574 25.4443
    endloop
  endfacet
  facet normal 1 0 0
    outer loop
      vertex 22.3919 -4 15.99
      vertex 22.3919 -0.490574 25.4443
      vertex 22.3919 -1.05684 26.0161
    endloop
  endfacet
  facet normal 1 0 0
    outer loop
      vertex 22.3919 -6.4 15.99
      vertex 22.3919 -1.05684 26.0161
      vertex 22.3919 -1.59454 26.6016
    endloop
  endfacet
  facet normal 1 0 0
    outer loop
      vertex 22.3919 -6.4 15.99
      vertex 22.3919 -1.59454 26.6016
      vertex 22.3919 -2.10301 27.2
    endloop
  endfacet
  facet normal 1 0 0
    outer loop
      vertex 22.3919 -6.4 15.99
      vertex 22.3919 -2.10301 27.2
      vertex 22.3919 -2.58165 27.8106
    endloop
  endfacet
  facet normal 1 0 0
    outer loop
      vertex 22.3919 -6.4 15.99
      vertex 22.3919 -2.58165 27.8106
      vertex 22.3919 -3.02985 28.4326
    endloop
  endfacet
  facet normal 1 0 0
    outer loop
      vertex 22.3919 -6.4 15.99
      vertex 22.3919 -3.02985 28.4326
      vertex 22.3919 -3.44708 29.0653
    endloop
  endfacet
  facet normal 1 0 0
    outer loop
      vertex 22.3919 -6.4 15.99
      vertex 22.3919 -3.44708 29.0653
      vertex 22.3919 -3.83284 29.7079
    endloop
  endfacet
  facet normal 1 0 0
    outer loop
      vertex 22.3919 2.74398 22.8132
      vertex 22.3919 -4 15.99
      vertex 22.3919 4 15.99
    endloop
  endfacet
  facet normal 1 0 0
    outer loop
      vertex 22.3919 -6.4 15.99
      vertex 22.3919 -3.83284 29.7079
      vertex 22.3919 -4.18664 30.3596
    endloop
  endfacet
  facet normal 1 0 0
    outer loop
      vertex 22.3919 -1.05684 26.0161
      vertex 22.3919 -6.4 15.99
      vertex 22.3919 -4 15.99
    endloop
  endfacet
  facet normal 1 0 0
    outer loop
      vertex 22.3919 -6.4 15.99
      vertex 22.3919 -4.18664 30.3596
      vertex 22.3919 -4.50806 31.0197
    endloop
  endfacet
  facet normal 1 0 0
    outer loop
      vertex 22.3919 -9.27502 15.99
      vertex 22.3919 -4.7967 31.6873
      vertex 22.3919 -9.27502 37.2
    endloop
  endfacet
  facet normal 1 0 0
    outer loop
      vertex 22.3919 -9.27502 37.2
      vertex 22.3919 -4.7967 31.6873
      vertex 22.3919 -5.05223 32.3616
    endloop
  endfacet
  facet normal 1 0 0
    outer loop
      vertex 22.3919 -9.27502 37.2
      vertex 22.3919 -5.05223 32.3616
      vertex 22.3919 -5.27431 33.0418
    endloop
  endfacet
  facet normal 1 0 0
    outer loop
      vertex 22.3919 -9.27502 37.2
      vertex 22.3919 -5.27431 33.0418
      vertex 22.3919 -5.46269 33.727
    endloop
  endfacet
  facet normal 1 0 0
    outer loop
      vertex 22.3919 -9.27502 37.2
      vertex 22.3919 -5.46269 33.727
      vertex 22.3919 -5.61713 34.4165
    endloop
  endfacet
  facet normal 1 0 0
    outer loop
      vertex 22.3919 -9.27502 37.2
      vertex 22.3919 -5.61713 34.4165
      vertex 22.3919 -5.73744 35.1094
    endloop
  endfacet
  facet normal 1 0 0
    outer loop
      vertex 22.3919 -9.27502 37.2
      vertex 22.3919 -5.73744 35.1094
      vertex 22.3919 -5.82349 35.8049
    endloop
  endfacet
  facet normal 1 0 0
    outer loop
      vertex 22.3919 -9.27502 37.2
      vertex 22.3919 -5.82349 35.8049
      vertex 22.3919 -5.87516 36.502
    endloop
  endfacet
  facet normal 1 -0 0
    outer loop
      vertex 22.3919 -9.27502 37.2
      vertex 22.3919 -5.87516 36.502
      vertex 22.3919 -5.89239 37.2
    endloop
  endfacet
  facet normal 1 0 0
    outer loop
      vertex 22.3919 -4 15.99
      vertex 22.3919 -6.4 15.99
      vertex 22.3919 -4 0
    endloop
  endfacet
  facet normal 1 0 0
    outer loop
      vertex 22.3919 -4 0
      vertex 22.3919 -6.4 15.99
      vertex 22.3919 -6.4 0
    endloop
  endfacet
  facet normal 1 0 0
    outer loop
      vertex 22.3919 9.11322 19.541
      vertex 22.3919 9.27502 15.99
      vertex 22.3919 9.27502 19.4828
    endloop
  endfacet
  facet normal 1 0 0
    outer loop
      vertex 22.3919 8.24975 19.8795
      vertex 22.3919 9.27502 15.99
      vertex 22.3919 9.11322 19.541
    endloop
  endfacet
  facet normal 1 0 0
    outer loop
      vertex 22.3919 6.4 15.99
      vertex 22.3919 8.24975 19.8795
      vertex 22.3919 7.4035 20.239
    endloop
  endfacet
  facet normal 1 0 0
    outer loop
      vertex 22.3919 6.4 15.99
      vertex 22.3919 7.4035 20.239
      vertex 22.3919 6.57552 20.6192
    endloop
  endfacet
  facet normal 1 0 0
    outer loop
      vertex 22.3919 8.24975 19.8795
      vertex 22.3919 6.4 15.99
      vertex 22.3919 9.27502 15.99
    endloop
  endfacet
  facet normal 1 0 0
    outer loop
      vertex 22.3919 4 15.99
      vertex 22.3919 6.57552 20.6192
      vertex 22.3919 5.76681 21.0197
    endloop
  endfacet
  facet normal 1 0 0
    outer loop
      vertex 22.3919 6.57552 20.6192
      vertex 22.3919 4 15.99
      vertex 22.3919 6.4 15.99
    endloop
  endfacet
  facet normal 1 0 0
    outer loop
      vertex 22.3919 4 15.99
      vertex 22.3919 5.76681 21.0197
      vertex 22.3919 4.97835 21.4398
    endloop
  endfacet
  facet normal 1 0 0
    outer loop
      vertex 22.3919 4 15.99
      vertex 22.3919 4.97835 21.4398
      vertex 22.3919 4.2111 21.8791
    endloop
  endfacet
  facet normal 1 0 0
    outer loop
      vertex 22.3919 6.4 15.99
      vertex 22.3919 4 15.99
      vertex 22.3919 6.4 0
    endloop
  endfacet
  facet normal 1 0 0
    outer loop
      vertex 22.3919 6.4 0
      vertex 22.3919 4 15.99
      vertex 22.3919 4 0
    endloop
  endfacet
  facet normal 0 1 0
    outer loop
      vertex -5.87516 22.3919 36.502
      vertex -9.27502 22.3919 37.2
      vertex -5.89239 22.3919 37.2
    endloop
  endfacet
  facet normal 0 1 0
    outer loop
      vertex -5.82349 22.3919 35.8049
      vertex -9.27502 22.3919 37.2
      vertex -5.87516 22.3919 36.502
    endloop
  endfacet
  facet normal 0 1 0
    outer loop
      vertex -5.73744 22.3919 35.1094
      vertex -9.27502 22.3919 37.2
      vertex -5.82349 22.3919 35.8049
    endloop
  endfacet
  facet normal 0 1 0
    outer loop
      vertex -5.61713 22.3919 34.4165
      vertex -9.27502 22.3919 37.2
      vertex -5.73744 22.3919 35.1094
    endloop
  endfacet
  facet normal 0 1 0
    outer loop
      vertex -5.46269 22.3919 33.727
      vertex -9.27502 22.3919 37.2
      vertex -5.61713 22.3919 34.4165
    endloop
  endfacet
  facet normal 0 1 0
    outer loop
      vertex -5.27431 22.3919 33.0418
      vertex -9.27502 22.3919 37.2
      vertex -5.46269 22.3919 33.727
    endloop
  endfacet
  facet normal 0 1 0
    outer loop
      vertex -5.05223 22.3919 32.3616
      vertex -9.27502 22.3919 37.2
      vertex -5.27431 22.3919 33.0418
    endloop
  endfacet
  facet normal 0 1 0
    outer loop
      vertex -4.7967 22.3919 31.6873
      vertex -9.27502 22.3919 37.2
      vertex -5.05223 22.3919 32.3616
    endloop
  endfacet
  facet normal 0 1 0
    outer loop
      vertex -9.27502 22.3919 15.99
      vertex -4.7967 22.3919 31.6873
      vertex -4.50806 22.3919 31.0197
    endloop
  endfacet
  facet normal 0 1 0
    outer loop
      vertex -9.27502 22.3919 15.99
      vertex -4.50806 22.3919 31.0197
      vertex -4.18664 22.3919 30.3596
    endloop
  endfacet
  facet normal 0 1 0
    outer loop
      vertex -9.27502 22.3919 15.99
      vertex -4.18664 22.3919 30.3596
      vertex -3.83284 22.3919 29.7079
    endloop
  endfacet
  facet normal 0 1 0
    outer loop
      vertex -9.27502 22.3919 15.99
      vertex -3.83284 22.3919 29.7079
      vertex -3.44708 22.3919 29.0653
    endloop
  endfacet
  facet normal 0 1 0
    outer loop
      vertex -9.27502 22.3919 15.99
      vertex -3.44708 22.3919 29.0653
      vertex -3.02985 22.3919 28.4326
    endloop
  endfacet
  facet normal 0 1 -0
    outer loop
      vertex 9.27502 22.3919 15.99
      vertex 9.11322 22.3919 19.541
      vertex 9.27502 22.3919 19.4828
    endloop
  endfacet
  facet normal 0 1 0
    outer loop
      vertex 9.27502 22.3919 15.99
      vertex 8.24975 22.3919 19.8795
      vertex 9.11322 22.3919 19.541
    endloop
  endfacet
  facet normal 0 1 0
    outer loop
      vertex 9.27502 22.3919 15.99
      vertex 7.4035 22.3919 20.239
      vertex 8.24975 22.3919 19.8795
    endloop
  endfacet
  facet normal 0 1 0
    outer loop
      vertex 9.27502 22.3919 15.99
      vertex 6.57552 22.3919 20.6192
      vertex 7.4035 22.3919 20.239
    endloop
  endfacet
  facet normal 0 1 0
    outer loop
      vertex 9.27502 22.3919 15.99
      vertex 5.76681 22.3919 21.0197
      vertex 6.57552 22.3919 20.6192
    endloop
  endfacet
  facet normal 0 1 0
    outer loop
      vertex 9.27502 22.3919 15.99
      vertex 4.97835 22.3919 21.4398
      vertex 5.76681 22.3919 21.0197
    endloop
  endfacet
  facet normal 0 1 0
    outer loop
      vertex -9.27502 22.3919 15.99
      vertex 4.97835 22.3919 21.4398
      vertex 9.27502 22.3919 15.99
    endloop
  endfacet
  facet normal 0 1 0
    outer loop
      vertex 4.97835 22.3919 21.4398
      vertex -9.27502 22.3919 15.99
      vertex 4.2111 22.3919 21.8791
    endloop
  endfacet
  facet normal 0 1 0
    outer loop
      vertex 4.2111 22.3919 21.8791
      vertex -9.27502 22.3919 15.99
      vertex 3.46601 22.3919 22.3371
    endloop
  endfacet
  facet normal 0 1 0
    outer loop
      vertex 3.46601 22.3919 22.3371
      vertex -9.27502 22.3919 15.99
      vertex 2.74398 22.3919 22.8132
    endloop
  endfacet
  facet normal 0 1 0
    outer loop
      vertex 2.74398 22.3919 22.8132
      vertex -9.27502 22.3919 15.99
      vertex 2.04588 22.3919 23.3068
    endloop
  endfacet
  facet normal 0 1 0
    outer loop
      vertex 2.04588 22.3919 23.3068
      vertex -9.27502 22.3919 15.99
      vertex 1.37257 22.3919 23.8174
    endloop
  endfacet
  facet normal 0 1 0
    outer loop
      vertex 1.37257 22.3919 23.8174
      vertex -9.27502 22.3919 15.99
      vertex 0.724874 22.3919 24.3442
    endloop
  endfacet
  facet normal 0 1 0
    outer loop
      vertex 0.724874 22.3919 24.3442
      vertex -9.27502 22.3919 15.99
      vertex 0.103573 22.3919 24.8868
    endloop
  endfacet
  facet normal 0 1 0
    outer loop
      vertex -4.7967 22.3919 31.6873
      vertex -9.27502 22.3919 15.99
      vertex -9.27502 22.3919 37.2
    endloop
  endfacet
  facet normal 0 1 0
    outer loop
      vertex -2.58165 22.3919 27.8106
      vertex -9.27502 22.3919 15.99
      vertex -3.02985 22.3919 28.4326
    endloop
  endfacet
  facet normal 0 1 0
    outer loop
      vertex -2.10301 22.3919 27.2
      vertex -9.27502 22.3919 15.99
      vertex -2.58165 22.3919 27.8106
    endloop
  endfacet
  facet normal 0 1 0
    outer loop
      vertex -1.59454 22.3919 26.6016
      vertex -9.27502 22.3919 15.99
      vertex -2.10301 22.3919 27.2
    endloop
  endfacet
  facet normal 0 1 0
    outer loop
      vertex -1.05684 22.3919 26.0161
      vertex -9.27502 22.3919 15.99
      vertex -1.59454 22.3919 26.6016
    endloop
  endfacet
  facet normal 0 1 0
    outer loop
      vertex -0.490574 22.3919 25.4443
      vertex -9.27502 22.3919 15.99
      vertex -1.05684 22.3919 26.0161
    endloop
  endfacet
  facet normal 0 1 0
    outer loop
      vertex 0.103573 22.3919 24.8868
      vertex -9.27502 22.3919 15.99
      vertex -0.490574 22.3919 25.4443
    endloop
  endfacet
  facet normal 0 0 -1
    outer loop
      vertex 9.97985 21.6871 15.99
      vertex -9.27502 22.3919 15.99
      vertex 9.27502 22.3919 15.99
    endloop
  endfacet
  facet normal 0 -0 -1
    outer loop
      vertex -9.27502 22.3919 15.99
      vertex 9.97985 21.6871 15.99
      vertex -9.97985 21.6871 15.99
    endloop
  endfacet
  facet normal 0 0 -1
    outer loop
      vertex -12.1184 -19.5485 15.99
      vertex -22.3919 -9.27502 15.99
      vertex -12.1184 -18.2929 15.99
    endloop
  endfacet
  facet normal 0 0 -1
    outer loop
      vertex 12.1184 -18.2929 15.99
      vertex 22.3919 -9.27502 15.99
      vertex 12.1184 -19.5485 15.99
    endloop
  endfacet
  facet normal -0 0 -1
    outer loop
      vertex 22.3919 -9.27502 15.99
      vertex 12.1184 -18.2929 15.99
      vertex 22.3919 -6.4 15.99
    endloop
  endfacet
  facet normal 0 0 -1
    outer loop
      vertex -12.1184 -18.2929 15.99
      vertex 22.3919 -6.4 15.99
      vertex 12.1184 -18.2929 15.99
    endloop
  endfacet
  facet normal 0 0 -1
    outer loop
      vertex -22.3919 -6.4 15.99
      vertex -12.1184 -18.2929 15.99
      vertex -22.3919 -9.27502 15.99
    endloop
  endfacet
  facet normal 0 0 -1
    outer loop
      vertex -12.1184 -18.2929 15.99
      vertex -22.3919 -6.4 15.99
      vertex 22.3919 -6.4 15.99
    endloop
  endfacet
  facet normal 0 0 -1
    outer loop
      vertex -9.27502 -22.3919 15.99
      vertex 9.97985 -21.6871 15.99
      vertex 9.27502 -22.3919 15.99
    endloop
  endfacet
  facet normal -0 0 -1
    outer loop
      vertex 9.97985 -21.6871 15.99
      vertex -9.27502 -22.3919 15.99
      vertex -9.97985 -21.6871 15.99
    endloop
  endfacet
  facet normal 0 0 -1
    outer loop
      vertex 22.3919 6.4 15.99
      vertex 12.1184 18.2929 15.99
      vertex 22.3919 9.27502 15.99
    endloop
  endfacet
  facet normal 0 0 -1
    outer loop
      vertex 22.3919 6.4 15.99
      vertex -12.1184 18.2929 15.99
      vertex 12.1184 18.2929 15.99
    endloop
  endfacet
  facet normal 0 0 -1
    outer loop
      vertex -22.3919 6.4 15.99
      vertex -12.1184 18.2929 15.99
      vertex 22.3919 6.4 15.99
    endloop
  endfacet
  facet normal 0 0 -1
    outer loop
      vertex -22.3919 9.27502 15.99
      vertex -12.1184 18.2929 15.99
      vertex -22.3919 6.4 15.99
    endloop
  endfacet
  facet normal -0 0 -1
    outer loop
      vertex -12.1184 18.2929 15.99
      vertex -22.3919 9.27502 15.99
      vertex -12.1184 19.5485 15.99
    endloop
  endfacet
  facet normal 0 0 -1
    outer loop
      vertex 22.3919 9.27502 15.99
      vertex 12.1184 18.2929 15.99
      vertex 12.1184 19.5485 15.99
    endloop
  endfacet
  facet normal 0 0 -1
    outer loop
      vertex -22.3919 -4 15.99
      vertex 22.3919 4 15.99
      vertex 22.3919 -4 15.99
    endloop
  endfacet
  facet normal -0 0 -1
    outer loop
      vertex 22.3919 4 15.99
      vertex -22.3919 -4 15.99
      vertex -22.3919 4 15.99
    endloop
  endfacet
  facet normal 0 0 1
    outer loop
      vertex 22.3919 -5.89239 37.2
      vertex 9.27502 -22.3919 37.2
      vertex 22.3919 -9.27502 37.2
    endloop
  endfacet
  facet normal 0 -0 1
    outer loop
      vertex 9.27502 -22.3919 37.2
      vertex 22.3919 -5.89239 37.2
      vertex 5.89239 -22.3919 37.2
    endloop
  endfacet
  facet normal 0 0 1
    outer loop
      vertex -22.3919 9.27502 37.2
      vertex -5.89239 22.3919 37.2
      vertex -9.27502 22.3919 37.2
    endloop
  endfacet
  facet normal 0 0 1
    outer loop
      vertex -5.89239 22.3919 37.2
      vertex -22.3919 9.27502 37.2
      vertex -22.3919 5.89239 37.2
    endloop
  endfacet
  facet normal 0 -1 0
    outer loop
      vertex 5.87516 -22.3919 36.502
      vertex 9.27502 -22.3919 37.2
      vertex 5.89239 -22.3919 37.2
    endloop
  endfacet
  facet normal 0 -1 0
    outer loop
      vertex 5.82349 -22.3919 35.8049
      vertex 9.27502 -22.3919 37.2
      vertex 5.87516 -22.3919 36.502
    endloop
  endfacet
  facet normal 0 -1 0
    outer loop
      vertex 5.73744 -22.3919 35.1094
      vertex 9.27502 -22.3919 37.2
      vertex 5.82349 -22.3919 35.8049
    endloop
  endfacet
  facet normal 0 -1 0
    outer loop
      vertex 5.61713 -22.3919 34.4165
      vertex 9.27502 -22.3919 37.2
      vertex 5.73744 -22.3919 35.1094
    endloop
  endfacet
  facet normal 0 -1 0
    outer loop
      vertex 5.46269 -22.3919 33.727
      vertex 9.27502 -22.3919 37.2
      vertex 5.61713 -22.3919 34.4165
    endloop
  endfacet
  facet normal 0 -1 0
    outer loop
      vertex 5.27431 -22.3919 33.0418
      vertex 9.27502 -22.3919 37.2
      vertex 5.46269 -22.3919 33.727
    endloop
  endfacet
  facet normal 0 -1 0
    outer loop
      vertex 5.05223 -22.3919 32.3616
      vertex 9.27502 -22.3919 37.2
      vertex 5.27431 -22.3919 33.0418
    endloop
  endfacet
  facet normal 0 -1 0
    outer loop
      vertex 4.7967 -22.3919 31.6873
      vertex 9.27502 -22.3919 37.2
      vertex 5.05223 -22.3919 32.3616
    endloop
  endfacet
  facet normal 0 -1 0
    outer loop
      vertex 9.27502 -22.3919 15.99
      vertex 4.7967 -22.3919 31.6873
      vertex 4.50806 -22.3919 31.0197
    endloop
  endfacet
  facet normal 0 -1 0
    outer loop
      vertex 9.27502 -22.3919 15.99
      vertex 4.50806 -22.3919 31.0197
      vertex 4.18664 -22.3919 30.3596
    endloop
  endfacet
  facet normal 0 -1 0
    outer loop
      vertex 9.27502 -22.3919 15.99
      vertex 4.18664 -22.3919 30.3596
      vertex 3.83284 -22.3919 29.7079
    endloop
  endfacet
  facet normal 0 -1 0
    outer loop
      vertex 9.27502 -22.3919 15.99
      vertex 3.83284 -22.3919 29.7079
      vertex 3.44708 -22.3919 29.0653
    endloop
  endfacet
  facet normal 0 -1 0
    outer loop
      vertex 9.27502 -22.3919 15.99
      vertex 3.44708 -22.3919 29.0653
      vertex 3.02985 -22.3919 28.4326
    endloop
  endfacet
  facet normal 0 -1 0
    outer loop
      vertex -9.27502 -22.3919 15.99
      vertex -9.11322 -22.3919 19.541
      vertex -9.27502 -22.3919 19.4828
    endloop
  endfacet
  facet normal 0 -1 0
    outer loop
      vertex -9.27502 -22.3919 15.99
      vertex -8.24975 -22.3919 19.8795
      vertex -9.11322 -22.3919 19.541
    endloop
  endfacet
  facet normal 0 -1 0
    outer loop
      vertex -9.27502 -22.3919 15.99
      vertex -7.4035 -22.3919 20.239
      vertex -8.24975 -22.3919 19.8795
    endloop
  endfacet
  facet normal 0 -1 0
    outer loop
      vertex -9.27502 -22.3919 15.99
      vertex -6.57552 -22.3919 20.6192
      vertex -7.4035 -22.3919 20.239
    endloop
  endfacet
  facet normal 0 -1 0
    outer loop
      vertex -9.27502 -22.3919 15.99
      vertex -5.76681 -22.3919 21.0197
      vertex -6.57552 -22.3919 20.6192
    endloop
  endfacet
  facet normal 0 -1 0
    outer loop
      vertex -9.27502 -22.3919 15.99
      vertex -4.97835 -22.3919 21.4398
      vertex -5.76681 -22.3919 21.0197
    endloop
  endfacet
  facet normal 0 -1 0
    outer loop
      vertex 9.27502 -22.3919 15.99
      vertex -4.97835 -22.3919 21.4398
      vertex -9.27502 -22.3919 15.99
    endloop
  endfacet
  facet normal 0 -1 0
    outer loop
      vertex -4.97835 -22.3919 21.4398
      vertex 9.27502 -22.3919 15.99
      vertex -4.2111 -22.3919 21.8791
    endloop
  endfacet
  facet normal 0 -1 0
    outer loop
      vertex -4.2111 -22.3919 21.8791
      vertex 9.27502 -22.3919 15.99
      vertex -3.46601 -22.3919 22.3371
    endloop
  endfacet
  facet normal 0 -1 0
    outer loop
      vertex -3.46601 -22.3919 22.3371
      vertex 9.27502 -22.3919 15.99
      vertex -2.74398 -22.3919 22.8132
    endloop
  endfacet
  facet normal 0 -1 0
    outer loop
      vertex -2.74398 -22.3919 22.8132
      vertex 9.27502 -22.3919 15.99
      vertex -2.04588 -22.3919 23.3068
    endloop
  endfacet
  facet normal 0 -1 0
    outer loop
      vertex -2.04588 -22.3919 23.3068
      vertex 9.27502 -22.3919 15.99
      vertex -1.37257 -22.3919 23.8174
    endloop
  endfacet
  facet normal 0 -1 0
    outer loop
      vertex -1.37257 -22.3919 23.8174
      vertex 9.27502 -22.3919 15.99
      vertex -0.724874 -22.3919 24.3442
    endloop
  endfacet
  facet normal 0 -1 0
    outer loop
      vertex -0.724874 -22.3919 24.3442
      vertex 9.27502 -22.3919 15.99
      vertex -0.103573 -22.3919 24.8868
    endloop
  endfacet
  facet normal 0 -1 0
    outer loop
      vertex 4.7967 -22.3919 31.6873
      vertex 9.27502 -22.3919 15.99
      vertex 9.27502 -22.3919 37.2
    endloop
  endfacet
  facet normal 0 -1 0
    outer loop
      vertex 2.58165 -22.3919 27.8106
      vertex 9.27502 -22.3919 15.99
      vertex 3.02985 -22.3919 28.4326
    endloop
  endfacet
  facet normal 0 -1 0
    outer loop
      vertex 2.10301 -22.3919 27.2
      vertex 9.27502 -22.3919 15.99
      vertex 2.58165 -22.3919 27.8106
    endloop
  endfacet
  facet normal 0 -1 0
    outer loop
      vertex 1.59454 -22.3919 26.6016
      vertex 9.27502 -22.3919 15.99
      vertex 2.10301 -22.3919 27.2
    endloop
  endfacet
  facet normal 0 -1 0
    outer loop
      vertex 1.05684 -22.3919 26.0161
      vertex 9.27502 -22.3919 15.99
      vertex 1.59454 -22.3919 26.6016
    endloop
  endfacet
  facet normal 0 -1 0
    outer loop
      vertex 0.490574 -22.3919 25.4443
      vertex 9.27502 -22.3919 15.99
      vertex 1.05684 -22.3919 26.0161
    endloop
  endfacet
  facet normal 0 -1 0
    outer loop
      vertex -0.103573 -22.3919 24.8868
      vertex 9.27502 -22.3919 15.99
      vertex 0.490574 -22.3919 25.4443
    endloop
  endfacet
  facet normal 0.183014 -0.183014 0.965925
    outer loop
      vertex 11.9354 19.7316 17.9748
      vertex -19.2547 -12.4122 17.7941
      vertex 12.4122 19.2547 17.7941
    endloop
  endfacet
  facet normal 0.183014 -0.183014 0.965925
    outer loop
      vertex -19.2547 -12.4122 17.7941
      vertex 11.9354 19.7316 17.9748
      vertex -19.7316 -11.9354 17.9748
    endloop
  endfacet
  facet normal 0.706138 -0.706138 0.052336
    outer loop
      vertex -22.3919 5.87516 36.502
      vertex -5.82349 22.3919 35.8049
      vertex -5.87516 22.3919 36.502
    endloop
  endfacet
  facet normal 0.706138 -0.706138 0.052336
    outer loop
      vertex -5.82349 22.3919 35.8049
      vertex -22.3919 5.87516 36.502
      vertex -22.3919 5.82349 35.8049
    endloop
  endfacet
  facet normal 0.704416 -0.704416 0.0871556
    outer loop
      vertex -22.3919 5.82349 35.8049
      vertex -5.73744 22.3919 35.1094
      vertex -5.82349 22.3919 35.8049
    endloop
  endfacet
  facet normal 0.704416 -0.704416 0.0871556
    outer loop
      vertex -5.73744 22.3919 35.1094
      vertex -22.3919 5.82349 35.8049
      vertex -22.3919 5.73744 35.1094
    endloop
  endfacet
  facet normal 0.405581 -0.405581 0.819151
    outer loop
      vertex -22.3919 -5.76681 21.0197
      vertex 6.57552 22.3919 20.6192
      vertex 5.76681 22.3919 21.0197
    endloop
  endfacet
  facet normal 0.405581 -0.405581 0.819151
    outer loop
      vertex 6.57552 22.3919 20.6192
      vertex -22.3919 -5.76681 21.0197
      vertex -22.3919 -6.57552 20.6192
    endloop
  endfacet
  facet normal 0.159064 -0.159064 0.97437
    outer loop
      vertex 12.4122 19.2547 17.7941
      vertex -18.7738 -12.8931 17.637
      vertex 12.8931 18.7738 17.637
    endloop
  endfacet
  facet normal 0.159064 -0.159064 0.97437
    outer loop
      vertex -18.7738 -12.8931 17.637
      vertex 12.4122 19.2547 17.7941
      vertex -19.2547 -12.4122 17.7941
    endloop
  endfacet
  facet normal 0.517145 -0.517145 0.681998
    outer loop
      vertex -22.3919 -1.37257 23.8174
      vertex 2.04588 22.3919 23.3068
      vertex 1.37257 22.3919 23.8174
    endloop
  endfacet
  facet normal 0.517145 -0.517145 0.681998
    outer loop
      vertex 2.04588 22.3919 23.3068
      vertex -22.3919 -1.37257 23.8174
      vertex -22.3919 -2.04588 23.3068
    endloop
  endfacet
  facet normal 0.698401 -0.698401 0.156435
    outer loop
      vertex -22.3919 5.61713 34.4165
      vertex -5.46269 22.3919 33.727
      vertex -5.61713 22.3919 34.4165
    endloop
  endfacet
  facet normal 0.698401 -0.698401 0.156435
    outer loop
      vertex -5.46269 22.3919 33.727
      vertex -22.3919 5.61713 34.4165
      vertex -22.3919 5.46269 33.727
    endloop
  endfacet
  facet normal 0.706999 -0.706999 0.0174524
    outer loop
      vertex -22.3919 5.89239 37.2
      vertex -5.87516 22.3919 36.502
      vertex -5.89239 22.3919 37.2
    endloop
  endfacet
  facet normal 0.706999 -0.706999 0.0174524
    outer loop
      vertex -5.87516 22.3919 36.502
      vertex -22.3919 5.89239 37.2
      vertex -22.3919 5.87516 36.502
    endloop
  endfacet
  facet normal -0.640857 0.640857 0.422618
    outer loop
      vertex 3.02985 -22.3919 28.4326
      vertex 22.3919 -3.44708 29.0653
      vertex 22.3919 -3.02985 28.4326
    endloop
  endfacet
  facet normal -0.640857 0.640857 0.422618
    outer loop
      vertex 22.3919 -3.44708 29.0653
      vertex 3.02985 -22.3919 28.4326
      vertex 3.44708 -22.3919 29.0653
    endloop
  endfacet
  facet normal 0.425547 -0.425547 0.798636
    outer loop
      vertex -22.3919 -4.97835 21.4398
      vertex 5.76681 22.3919 21.0197
      vertex 4.97835 22.3919 21.4398
    endloop
  endfacet
  facet normal 0.425547 -0.425547 0.798636
    outer loop
      vertex 5.76681 22.3919 21.0197
      vertex -22.3919 -4.97835 21.4398
      vertex -22.3919 -5.76681 21.0197
    endloop
  endfacet
  facet normal 0.53366 -0.53366 0.65606
    outer loop
      vertex -22.3919 -0.724874 24.3442
      vertex 1.37257 22.3919 23.8174
      vertex 0.724874 22.3919 24.3442
    endloop
  endfacet
  facet normal 0.53366 -0.53366 0.65606
    outer loop
      vertex 1.37257 22.3919 23.8174
      vertex -22.3919 -0.724874 24.3442
      vertex -22.3919 -1.37257 23.8174
    endloop
  endfacet
  facet normal 0.56472 -0.56472 0.601816
    outer loop
      vertex -22.3919 0.490574 25.4443
      vertex 0.103573 22.3919 24.8868
      vertex -0.490574 22.3919 25.4443
    endloop
  endfacet
  facet normal 0.56472 -0.56472 0.601816
    outer loop
      vertex 0.103573 22.3919 24.8868
      vertex -22.3919 0.490574 25.4443
      vertex -22.3919 -0.103573 24.8868
    endloop
  endfacet
  facet normal 0.676209 -0.676209 0.292372
    outer loop
      vertex -22.3919 4.7967 31.6873
      vertex -4.50806 22.3919 31.0197
      vertex -4.7967 22.3919 31.6873
    endloop
  endfacet
  facet normal 0.676209 -0.676209 0.292372
    outer loop
      vertex -4.50806 22.3919 31.0197
      vertex -22.3919 4.7967 31.6873
      vertex -22.3919 4.50806 31.0197
    endloop
  endfacet
  facet normal -0.0370068 0.0370068 0.99863
    outer loop
      vertex 16.327 15.3399 17.2122
      vertex -14.8469 -16.82 17.2487
      vertex 16.82 14.8469 17.2487
    endloop
  endfacet
  facet normal -0.0370068 0.0370068 0.99863
    outer loop
      vertex -14.8469 -16.82 17.2487
      vertex 16.327 15.3399 17.2122
      vertex -15.3399 -16.327 17.2122
    endloop
  endfacet
  facet normal -0.183014 0.183014 0.965925
    outer loop
      vertex 19.2547 12.4122 17.7941
      vertex -11.9354 -19.7316 17.9748
      vertex 19.7316 11.9354 17.9748
    endloop
  endfacet
  facet normal -0.183014 0.183014 0.965925
    outer loop
      vertex -11.9354 -19.7316 17.9748
      vertex 19.2547 12.4122 17.7941
      vertex -12.4122 -19.2547 17.7941
    endloop
  endfacet
  facet normal -0.230212 0.230212 0.945518
    outer loop
      vertex 20.2036 11.4633 18.1789
      vertex -10.9966 -20.6703 18.4061
      vertex 20.6703 10.9966 18.4061
    endloop
  endfacet
  facet normal -0.230212 0.230212 0.945518
    outer loop
      vertex -10.9966 -20.6703 18.4061
      vertex 20.2036 11.4633 18.1789
      vertex -11.4633 -20.2036 18.1789
    endloop
  endfacet
  facet normal -0.425547 0.425547 0.798636
    outer loop
      vertex 22.3919 5.76681 21.0197
      vertex -4.97835 -22.3919 21.4398
      vertex 22.3919 4.97835 21.4398
    endloop
  endfacet
  facet normal -0.425547 0.425547 0.798636
    outer loop
      vertex -4.97835 -22.3919 21.4398
      vertex 22.3919 5.76681 21.0197
      vertex -5.76681 -22.3919 21.0197
    endloop
  endfacet
  facet normal -0.701836 0.701836 0.121869
    outer loop
      vertex 5.61713 -22.3919 34.4165
      vertex 22.3919 -5.73744 35.1094
      vertex 22.3919 -5.61713 34.4165
    endloop
  endfacet
  facet normal -0.701836 0.701836 0.121869
    outer loop
      vertex 22.3919 -5.73744 35.1094
      vertex 5.61713 -22.3919 34.4165
      vertex 5.73744 -22.3919 35.1094
    endloop
  endfacet
  facet normal -0.706138 0.706138 0.052336
    outer loop
      vertex 5.82349 -22.3919 35.8049
      vertex 22.3919 -5.87516 36.502
      vertex 22.3919 -5.82349 35.8049
    endloop
  endfacet
  facet normal -0.706138 0.706138 0.052336
    outer loop
      vertex 22.3919 -5.87516 36.502
      vertex 5.82349 -22.3919 35.8049
      vertex 5.87516 -22.3919 36.502
    endloop
  endfacet
  facet normal -0.688984 0.688984 0.22495
    outer loop
      vertex 5.05223 -22.3919 32.3616
      vertex 22.3919 -5.27431 33.0418
      vertex 22.3919 -5.05223 32.3616
    endloop
  endfacet
  facet normal -0.688984 0.688984 0.22495
    outer loop
      vertex 22.3919 -5.27431 33.0418
      vertex 5.05223 -22.3919 32.3616
      vertex 5.27431 -22.3919 33.0418
    endloop
  endfacet
  facet normal -0.668583 0.668583 0.325568
    outer loop
      vertex 4.18664 -22.3919 30.3596
      vertex 22.3919 -4.50806 31.0197
      vertex 22.3919 -4.18664 30.3596
    endloop
  endfacet
  facet normal -0.668583 0.668583 0.325568
    outer loop
      vertex 22.3919 -4.50806 31.0197
      vertex 4.18664 -22.3919 30.3596
      vertex 4.50806 -22.3919 31.0197
    endloop
  endfacet
  facet normal -0.706999 0.706999 0.0174524
    outer loop
      vertex 5.87516 -22.3919 36.502
      vertex 22.3919 -5.89239 37.2
      vertex 22.3919 -5.87516 36.502
    endloop
  endfacet
  facet normal -0.706999 0.706999 0.0174524
    outer loop
      vertex 22.3919 -5.89239 37.2
      vertex 5.87516 -22.3919 36.502
      vertex 5.89239 -22.3919 37.2
    endloop
  endfacet
  facet normal 0.321018 -0.321026 0.891005
    outer loop
      vertex 9.11322 22.3919 19.541
      vertex 9.63395 22.033 19.2241
      vertex 9.27502 22.3919 19.4828
    endloop
  endfacet
  facet normal 0.321021 -0.321021 0.891005
    outer loop
      vertex 9.11322 22.3919 19.541
      vertex -22.033 -9.63395 19.2241
      vertex 9.63395 22.033 19.2241
    endloop
  endfacet
  facet normal 0.321021 -0.321021 0.891005
    outer loop
      vertex -22.3919 -9.11322 19.541
      vertex -22.033 -9.63395 19.2241
      vertex 9.11322 22.3919 19.541
    endloop
  endfacet
  facet normal 0.321026 -0.321018 0.891005
    outer loop
      vertex -22.033 -9.63395 19.2241
      vertex -22.3919 -9.11322 19.541
      vertex -22.3919 -9.27502 19.4828
    endloop
  endfacet
  facet normal 0.253404 -0.253404 0.93358
    outer loop
      vertex 10.5357 21.1312 18.6563
      vertex -20.6703 -10.9966 18.4061
      vertex 10.9966 20.6703 18.4061
    endloop
  endfacet
  facet normal 0.253404 -0.253404 0.93358
    outer loop
      vertex -20.6703 -10.9966 18.4061
      vertex 10.5357 21.1312 18.6563
      vertex -21.1312 -10.5357 18.6563
    endloop
  endfacet
  facet normal 0.110617 -0.110617 0.987688
    outer loop
      vertex 13.3777 18.2892 17.5038
      vertex -17.8017 -13.8652 17.3946
      vertex 13.8652 17.8017 17.3946
    endloop
  endfacet
  facet normal 0.110617 -0.110617 0.987688
    outer loop
      vertex -17.8017 -13.8652 17.3946
      vertex 13.3777 18.2892 17.5038
      vertex -18.2892 -13.3777 17.5038
    endloop
  endfacet
  facet normal 0.134921 -0.134921 0.981628
    outer loop
      vertex 12.8931 18.7738 17.637
      vertex -18.2892 -13.3777 17.5038
      vertex 13.3777 18.2892 17.5038
    endloop
  endfacet
  facet normal 0.134921 -0.134921 0.981628
    outer loop
      vertex -18.2892 -13.3777 17.5038
      vertex 12.8931 18.7738 17.637
      vertex -18.7738 -12.8931 17.637
    endloop
  endfacet
  facet normal 0.206737 -0.206737 0.956305
    outer loop
      vertex 11.4633 20.2036 18.1789
      vertex -19.7316 -11.9354 17.9748
      vertex 11.9354 19.7316 17.9748
    endloop
  endfacet
  facet normal 0.206737 -0.206737 0.956305
    outer loop
      vertex -19.7316 -11.9354 17.9748
      vertex 11.4633 20.2036 18.1789
      vertex -20.2036 -11.4633 18.1789
    endloop
  endfacet
  facet normal 0.230212 -0.230212 0.945518
    outer loop
      vertex 10.9966 20.6703 18.4061
      vertex -20.2036 -11.4633 18.1789
      vertex 11.4633 20.2036 18.1789
    endloop
  endfacet
  facet normal 0.230212 -0.230212 0.945518
    outer loop
      vertex -20.2036 -11.4633 18.1789
      vertex 10.9966 20.6703 18.4061
      vertex -20.6703 -10.9966 18.4061
    endloop
  endfacet
  facet normal 0.5 -0.5 0.707107
    outer loop
      vertex -22.3919 -2.04588 23.3068
      vertex 2.74398 22.3919 22.8132
      vertex 2.04588 22.3919 23.3068
    endloop
  endfacet
  facet normal 0.5 -0.5 0.707107
    outer loop
      vertex 2.74398 22.3919 22.8132
      vertex -22.3919 -2.04588 23.3068
      vertex -22.3919 -2.74398 22.8132
    endloop
  endfacet
  facet normal 0.593029 -0.593029 0.544639
    outer loop
      vertex -22.3919 1.59454 26.6016
      vertex -1.05684 22.3919 26.0161
      vertex -1.59454 22.3919 26.6016
    endloop
  endfacet
  facet normal 0.593029 -0.593029 0.544639
    outer loop
      vertex -1.05684 22.3919 26.0161
      vertex -22.3919 1.59454 26.6016
      vertex -22.3919 1.05684 26.0161
    endloop
  endfacet
  facet normal 0.618449 -0.618449 0.484811
    outer loop
      vertex -22.3919 2.58165 27.8106
      vertex -2.10301 22.3919 27.2
      vertex -2.58165 22.3919 27.8106
    endloop
  endfacet
  facet normal 0.618449 -0.618449 0.484811
    outer loop
      vertex -2.10301 22.3919 27.2
      vertex -22.3919 2.58165 27.8106
      vertex -22.3919 2.10301 27.2
    endloop
  endfacet
  facet normal 0.668583 -0.668583 0.325568
    outer loop
      vertex -22.3919 4.50806 31.0197
      vertex -4.18664 22.3919 30.3596
      vertex -4.50806 22.3919 31.0197
    endloop
  endfacet
  facet normal 0.668583 -0.668583 0.325568
    outer loop
      vertex -4.18664 22.3919 30.3596
      vertex -22.3919 4.50806 31.0197
      vertex -22.3919 4.18664 30.3596
    endloop
  endfacet
  facet normal 0.701836 -0.701836 0.121869
    outer loop
      vertex -22.3919 5.73744 35.1094
      vertex -5.61713 22.3919 34.4165
      vertex -5.73744 22.3919 35.1094
    endloop
  endfacet
  facet normal 0.701836 -0.701836 0.121869
    outer loop
      vertex -5.61713 22.3919 34.4165
      vertex -22.3919 5.73744 35.1094
      vertex -22.3919 5.61713 34.4165
    endloop
  endfacet
  facet normal 0.688984 -0.688984 0.22495
    outer loop
      vertex -22.3919 5.27431 33.0418
      vertex -5.05223 22.3919 32.3616
      vertex -5.27431 22.3919 33.0418
    endloop
  endfacet
  facet normal 0.688984 -0.688984 0.22495
    outer loop
      vertex -5.05223 22.3919 32.3616
      vertex -22.3919 5.27431 33.0418
      vertex -22.3919 5.05223 32.3616
    endloop
  endfacet
  facet normal 0.0370068 -0.0370068 0.99863
    outer loop
      vertex 14.8469 16.82 17.2487
      vertex -16.327 -15.3399 17.2122
      vertex 15.3399 16.327 17.2122
    endloop
  endfacet
  facet normal 0.0370068 -0.0370068 0.99863
    outer loop
      vertex -16.327 -15.3399 17.2122
      vertex 14.8469 16.82 17.2487
      vertex -16.82 -14.8469 17.2487
    endloop
  endfacet
  facet normal 0.0616297 -0.0616297 0.996195
    outer loop
      vertex 14.3552 17.3117 17.3096
      vertex -16.82 -14.8469 17.2487
      vertex 14.8469 16.82 17.2487
    endloop
  endfacet
  facet normal 0.0616297 -0.0616297 0.996195
    outer loop
      vertex -16.82 -14.8469 17.2487
      vertex 14.3552 17.3117 17.3096
      vertex -17.3117 -14.3552 17.3096
    endloop
  endfacet
  facet normal 0.0123395 -0.0123395 0.999848
    outer loop
      vertex 15.3399 16.327 17.2122
      vertex -15.8335 -15.8335 17.2
      vertex 15.8335 15.8335 17.2
    endloop
  endfacet
  facet normal 0.0123395 -0.0123395 0.999848
    outer loop
      vertex -15.8335 -15.8335 17.2
      vertex 15.3399 16.327 17.2122
      vertex -16.327 -15.3399 17.2122
    endloop
  endfacet
  facet normal -0.0123395 0.0123395 0.999848
    outer loop
      vertex 15.8335 15.8335 17.2
      vertex -15.3399 -16.327 17.2122
      vertex 16.327 15.3399 17.2122
    endloop
  endfacet
  facet normal -0.0123395 0.0123395 0.999848
    outer loop
      vertex -15.3399 -16.327 17.2122
      vertex 15.8335 15.8335 17.2
      vertex -15.8335 -15.8335 17.2
    endloop
  endfacet
  facet normal -0.0861736 0.0861736 0.992546
    outer loop
      vertex 17.3117 14.3552 17.3096
      vertex -13.8652 -17.8017 17.3946
      vertex 17.8017 13.8652 17.3946
    endloop
  endfacet
  facet normal -0.0861736 0.0861736 0.992546
    outer loop
      vertex -13.8652 -17.8017 17.3946
      vertex 17.3117 14.3552 17.3096
      vertex -14.3552 -17.3117 17.3096
    endloop
  endfacet
  facet normal -0.159064 0.159064 0.97437
    outer loop
      vertex 18.7738 12.8931 17.637
      vertex -12.4122 -19.2547 17.7941
      vertex 19.2547 12.4122 17.7941
    endloop
  endfacet
  facet normal -0.159064 0.159064 0.97437
    outer loop
      vertex -12.4122 -19.2547 17.7941
      vertex 18.7738 12.8931 17.637
      vertex -12.8931 -18.7738 17.637
    endloop
  endfacet
  facet normal -0.364186 0.364186 0.857168
    outer loop
      vertex 22.3919 8.24975 19.8795
      vertex -7.4035 -22.3919 20.239
      vertex 22.3919 7.4035 20.239
    endloop
  endfacet
  facet normal -0.364186 0.364186 0.857168
    outer loop
      vertex -7.4035 -22.3919 20.239
      vertex 22.3919 8.24975 19.8795
      vertex -8.24975 -22.3919 19.8795
    endloop
  endfacet
  facet normal -0.593029 0.593029 0.544639
    outer loop
      vertex 1.05684 -22.3919 26.0161
      vertex 22.3919 -1.59454 26.6016
      vertex 22.3919 -1.05684 26.0161
    endloop
  endfacet
  facet normal -0.593029 0.593029 0.544639
    outer loop
      vertex 22.3919 -1.59454 26.6016
      vertex 1.05684 -22.3919 26.0161
      vertex 1.59454 -22.3919 26.6016
    endloop
  endfacet
  facet normal -0.444996 0.444996 0.777147
    outer loop
      vertex 22.3919 4.97835 21.4398
      vertex -4.2111 -22.3919 21.8791
      vertex 22.3919 4.2111 21.8791
    endloop
  endfacet
  facet normal -0.444996 0.444996 0.777147
    outer loop
      vertex -4.2111 -22.3919 21.8791
      vertex 22.3919 4.97835 21.4398
      vertex -4.97835 -22.3919 21.4398
    endloop
  endfacet
  facet normal -0.704416 0.704416 0.0871556
    outer loop
      vertex 22.3919 -5.73744 35.1094
      vertex 5.82349 -22.3919 35.8049
      vertex 22.3919 -5.82349 35.8049
    endloop
  endfacet
  facet normal -0.704416 0.704416 0.0871556
    outer loop
      vertex 5.82349 -22.3919 35.8049
      vertex 22.3919 -5.73744 35.1094
      vertex 5.73744 -22.3919 35.1094
    endloop
  endfacet
  facet normal -0.698401 0.698401 0.156435
    outer loop
      vertex 5.46269 -22.3919 33.727
      vertex 22.3919 -5.61713 34.4165
      vertex 22.3919 -5.46269 33.727
    endloop
  endfacet
  facet normal -0.698401 0.698401 0.156435
    outer loop
      vertex 22.3919 -5.61713 34.4165
      vertex 5.46269 -22.3919 33.727
      vertex 5.61713 -22.3919 34.4165
    endloop
  endfacet
  facet normal 0.385118 -0.385118 0.83867
    outer loop
      vertex -22.3919 -6.57552 20.6192
      vertex 7.4035 22.3919 20.239
      vertex 6.57552 22.3919 20.6192
    endloop
  endfacet
  facet normal 0.385118 -0.385118 0.83867
    outer loop
      vertex 7.4035 22.3919 20.239
      vertex -22.3919 -6.57552 20.6192
      vertex -22.3919 -7.4035 20.239
    endloop
  endfacet
  facet normal 0.364186 -0.364186 0.857168
    outer loop
      vertex -22.3919 -7.4035 20.239
      vertex 8.24975 22.3919 19.8795
      vertex 7.4035 22.3919 20.239
    endloop
  endfacet
  facet normal 0.364186 -0.364186 0.857168
    outer loop
      vertex 8.24975 22.3919 19.8795
      vertex -22.3919 -7.4035 20.239
      vertex -22.3919 -8.24975 19.8795
    endloop
  endfacet
  facet normal 0.0861736 -0.0861736 0.992546
    outer loop
      vertex 13.8652 17.8017 17.3946
      vertex -17.3117 -14.3552 17.3096
      vertex 14.3552 17.3117 17.3096
    endloop
  endfacet
  facet normal 0.0861736 -0.0861736 0.992546
    outer loop
      vertex -17.3117 -14.3552 17.3096
      vertex 13.8652 17.8017 17.3946
      vertex -17.8017 -13.8652 17.3946
    endloop
  endfacet
  facet normal 0.276289 -0.276289 0.920505
    outer loop
      vertex 10.0813 21.5856 18.9291
      vertex -21.1312 -10.5357 18.6563
      vertex 10.5357 21.1312 18.6563
    endloop
  endfacet
  facet normal 0.276289 -0.276289 0.920505
    outer loop
      vertex -21.1312 -10.5357 18.6563
      vertex 10.0813 21.5856 18.9291
      vertex -21.5856 -10.0813 18.9291
    endloop
  endfacet
  facet normal 0.444996 -0.444996 0.777147
    outer loop
      vertex -22.3919 -4.2111 21.8791
      vertex 4.97835 22.3919 21.4398
      vertex 4.2111 22.3919 21.8791
    endloop
  endfacet
  facet normal 0.444996 -0.444996 0.777147
    outer loop
      vertex 4.97835 22.3919 21.4398
      vertex -22.3919 -4.2111 21.8791
      vertex -22.3919 -4.97835 21.4398
    endloop
  endfacet
  facet normal 0.482246 -0.482246 0.731354
    outer loop
      vertex -22.3919 -2.74398 22.8132
      vertex 3.46601 22.3919 22.3371
      vertex 2.74398 22.3919 22.8132
    endloop
  endfacet
  facet normal 0.482246 -0.482246 0.731354
    outer loop
      vertex 3.46601 22.3919 22.3371
      vertex -22.3919 -2.74398 22.8132
      vertex -22.3919 -3.46601 22.3371
    endloop
  endfacet
  facet normal 0.549526 -0.549526 0.62932
    outer loop
      vertex -22.3919 -0.103573 24.8868
      vertex 0.724874 22.3919 24.3442
      vertex 0.103573 22.3919 24.8868
    endloop
  endfacet
  facet normal 0.549526 -0.549526 0.62932
    outer loop
      vertex 0.724874 22.3919 24.3442
      vertex -22.3919 -0.103573 24.8868
      vertex -22.3919 -0.724874 24.3442
    endloop
  endfacet
  facet normal 0.660141 -0.660141 0.358368
    outer loop
      vertex -22.3919 4.18664 30.3596
      vertex -3.83284 22.3919 29.7079
      vertex -4.18664 22.3919 30.3596
    endloop
  endfacet
  facet normal 0.660141 -0.660141 0.358368
    outer loop
      vertex -3.83284 22.3919 29.7079
      vertex -22.3919 4.18664 30.3596
      vertex -22.3919 3.83284 29.7079
    endloop
  endfacet
  facet normal 0.579228 -0.579228 0.573575
    outer loop
      vertex -22.3919 1.05684 26.0161
      vertex -0.490574 22.3919 25.4443
      vertex -1.05684 22.3919 26.0161
    endloop
  endfacet
  facet normal 0.579228 -0.579228 0.573575
    outer loop
      vertex -0.490574 22.3919 25.4443
      vertex -22.3919 1.05684 26.0161
      vertex -22.3919 0.490574 25.4443
    endloop
  endfacet
  facet normal 0.683013 -0.683013 0.25882
    outer loop
      vertex -22.3919 5.05223 32.3616
      vertex -4.7967 22.3919 31.6873
      vertex -5.05223 22.3919 32.3616
    endloop
  endfacet
  facet normal 0.683013 -0.683013 0.25882
    outer loop
      vertex -4.7967 22.3919 31.6873
      vertex -22.3919 5.05223 32.3616
      vertex -22.3919 4.7967 31.6873
    endloop
  endfacet
  facet normal 0.694115 -0.694115 0.190809
    outer loop
      vertex -22.3919 5.46269 33.727
      vertex -5.27431 22.3919 33.0418
      vertex -5.46269 22.3919 33.727
    endloop
  endfacet
  facet normal 0.694115 -0.694115 0.190809
    outer loop
      vertex -5.27431 22.3919 33.0418
      vertex -22.3919 5.46269 33.727
      vertex -22.3919 5.27431 33.0418
    endloop
  endfacet
  facet normal -0.0616297 0.0616297 0.996195
    outer loop
      vertex 16.82 14.8469 17.2487
      vertex -14.3552 -17.3117 17.3096
      vertex 17.3117 14.3552 17.3096
    endloop
  endfacet
  facet normal -0.0616297 0.0616297 0.996195
    outer loop
      vertex -14.3552 -17.3117 17.3096
      vertex 16.82 14.8469 17.2487
      vertex -14.8469 -16.82 17.2487
    endloop
  endfacet
  facet normal -0.276289 0.276289 0.920505
    outer loop
      vertex 21.1312 10.5357 18.6563
      vertex -10.0813 -21.5856 18.9291
      vertex 21.5856 10.0813 18.9291
    endloop
  endfacet
  facet normal -0.276289 0.276289 0.920505
    outer loop
      vertex -10.0813 -21.5856 18.9291
      vertex 21.1312 10.5357 18.6563
      vertex -10.5357 -21.1312 18.6563
    endloop
  endfacet
  facet normal -0.298835 0.298835 0.906309
    outer loop
      vertex 21.5856 10.0813 18.9291
      vertex -9.63395 -22.033 19.2241
      vertex 22.033 9.63395 19.2241
    endloop
  endfacet
  facet normal -0.298835 0.298835 0.906309
    outer loop
      vertex -9.63395 -22.033 19.2241
      vertex 21.5856 10.0813 18.9291
      vertex -10.0813 -21.5856 18.9291
    endloop
  endfacet
  facet normal -0.342812 0.342812 0.87462
    outer loop
      vertex 22.3919 9.11322 19.541
      vertex -8.24975 -22.3919 19.8795
      vertex 22.3919 8.24975 19.8795
    endloop
  endfacet
  facet normal -0.342812 0.342812 0.87462
    outer loop
      vertex -8.24975 -22.3919 19.8795
      vertex 22.3919 9.11322 19.541
      vertex -9.11322 -22.3919 19.541
    endloop
  endfacet
  facet normal -0.606109 0.606109 0.515037
    outer loop
      vertex 1.59454 -22.3919 26.6016
      vertex 22.3919 -2.10301 27.2
      vertex 22.3919 -1.59454 26.6016
    endloop
  endfacet
  facet normal -0.606109 0.606109 0.515037
    outer loop
      vertex 22.3919 -2.10301 27.2
      vertex 1.59454 -22.3919 26.6016
      vertex 2.10301 -22.3919 27.2
    endloop
  endfacet
  facet normal -0.463904 0.463904 0.754709
    outer loop
      vertex 22.3919 4.2111 21.8791
      vertex -3.46601 -22.3919 22.3371
      vertex 22.3919 3.46601 22.3371
    endloop
  endfacet
  facet normal -0.463904 0.463904 0.754709
    outer loop
      vertex -3.46601 -22.3919 22.3371
      vertex 22.3919 4.2111 21.8791
      vertex -4.2111 -22.3919 21.8791
    endloop
  endfacet
  facet normal -0.694115 0.694115 0.190809
    outer loop
      vertex 5.27431 -22.3919 33.0418
      vertex 22.3919 -5.46269 33.727
      vertex 22.3919 -5.27431 33.0418
    endloop
  endfacet
  facet normal -0.694115 0.694115 0.190809
    outer loop
      vertex 22.3919 -5.46269 33.727
      vertex 5.27431 -22.3919 33.0418
      vertex 5.46269 -22.3919 33.727
    endloop
  endfacet
  facet normal -0.650895 0.650895 0.390731
    outer loop
      vertex 3.44708 -22.3919 29.0653
      vertex 22.3919 -3.83284 29.7079
      vertex 22.3919 -3.44708 29.0653
    endloop
  endfacet
  facet normal -0.650895 0.650895 0.390731
    outer loop
      vertex 22.3919 -3.83284 29.7079
      vertex 3.44708 -22.3919 29.0653
      vertex 3.83284 -22.3919 29.7079
    endloop
  endfacet
  facet normal -0.660141 0.660141 0.358368
    outer loop
      vertex 3.83284 -22.3919 29.7079
      vertex 22.3919 -4.18664 30.3596
      vertex 22.3919 -3.83284 29.7079
    endloop
  endfacet
  facet normal -0.660141 0.660141 0.358368
    outer loop
      vertex 22.3919 -4.18664 30.3596
      vertex 3.83284 -22.3919 29.7079
      vertex 4.18664 -22.3919 30.3596
    endloop
  endfacet
  facet normal -0.676209 0.676209 0.292372
    outer loop
      vertex 22.3919 -4.50806 31.0197
      vertex 4.7967 -22.3919 31.6873
      vertex 22.3919 -4.7967 31.6873
    endloop
  endfacet
  facet normal -0.676209 0.676209 0.292372
    outer loop
      vertex 4.7967 -22.3919 31.6873
      vertex 22.3919 -4.50806 31.0197
      vertex 4.50806 -22.3919 31.0197
    endloop
  endfacet
  facet normal -0.683013 0.683013 0.25882
    outer loop
      vertex 22.3919 -4.7967 31.6873
      vertex 5.05223 -22.3919 32.3616
      vertex 22.3919 -5.05223 32.3616
    endloop
  endfacet
  facet normal -0.683013 0.683013 0.25882
    outer loop
      vertex 5.05223 -22.3919 32.3616
      vertex 22.3919 -4.7967 31.6873
      vertex 4.7967 -22.3919 31.6873
    endloop
  endfacet
  facet normal 0.342812 -0.342812 0.87462
    outer loop
      vertex -22.3919 -8.24975 19.8795
      vertex 9.11322 22.3919 19.541
      vertex 8.24975 22.3919 19.8795
    endloop
  endfacet
  facet normal 0.342812 -0.342812 0.87462
    outer loop
      vertex 9.11322 22.3919 19.541
      vertex -22.3919 -8.24975 19.8795
      vertex -22.3919 -9.11322 19.541
    endloop
  endfacet
  facet normal 0.298835 -0.298835 0.906309
    outer loop
      vertex 9.63395 22.033 19.2241
      vertex -21.5856 -10.0813 18.9291
      vertex 10.0813 21.5856 18.9291
    endloop
  endfacet
  facet normal 0.298835 -0.298835 0.906309
    outer loop
      vertex -21.5856 -10.0813 18.9291
      vertex 9.63395 22.033 19.2241
      vertex -22.033 -9.63395 19.2241
    endloop
  endfacet
  facet normal 0.463904 -0.463904 0.754709
    outer loop
      vertex -22.3919 -3.46601 22.3371
      vertex 4.2111 22.3919 21.8791
      vertex 3.46601 22.3919 22.3371
    endloop
  endfacet
  facet normal 0.463904 -0.463904 0.754709
    outer loop
      vertex 4.2111 22.3919 21.8791
      vertex -22.3919 -3.46601 22.3371
      vertex -22.3919 -4.2111 21.8791
    endloop
  endfacet
  facet normal 0.606109 -0.606109 0.515037
    outer loop
      vertex -22.3919 2.10301 27.2
      vertex -1.59454 22.3919 26.6016
      vertex -2.10301 22.3919 27.2
    endloop
  endfacet
  facet normal 0.606109 -0.606109 0.515037
    outer loop
      vertex -1.59454 22.3919 26.6016
      vertex -22.3919 2.10301 27.2
      vertex -22.3919 1.59454 26.6016
    endloop
  endfacet
  facet normal 0.640857 -0.640857 0.422618
    outer loop
      vertex -22.3919 3.44708 29.0653
      vertex -3.02985 22.3919 28.4326
      vertex -3.44708 22.3919 29.0653
    endloop
  endfacet
  facet normal 0.640857 -0.640857 0.422618
    outer loop
      vertex -3.02985 22.3919 28.4326
      vertex -22.3919 3.44708 29.0653
      vertex -22.3919 3.02985 28.4326
    endloop
  endfacet
  facet normal 0.630036 -0.630036 0.453992
    outer loop
      vertex -22.3919 3.02985 28.4326
      vertex -2.58165 22.3919 27.8106
      vertex -3.02985 22.3919 28.4326
    endloop
  endfacet
  facet normal 0.630036 -0.630036 0.453992
    outer loop
      vertex -2.58165 22.3919 27.8106
      vertex -22.3919 3.02985 28.4326
      vertex -22.3919 2.58165 27.8106
    endloop
  endfacet
  facet normal 0.650895 -0.650895 0.390731
    outer loop
      vertex -22.3919 3.83284 29.7079
      vertex -3.44708 22.3919 29.0653
      vertex -3.83284 22.3919 29.7079
    endloop
  endfacet
  facet normal 0.650895 -0.650895 0.390731
    outer loop
      vertex -3.44708 22.3919 29.0653
      vertex -22.3919 3.83284 29.7079
      vertex -22.3919 3.44708 29.0653
    endloop
  endfacet
  facet normal -0.110617 0.110617 0.987688
    outer loop
      vertex 17.8017 13.8652 17.3946
      vertex -13.3777 -18.2892 17.5038
      vertex 18.2892 13.3777 17.5038
    endloop
  endfacet
  facet normal -0.110617 0.110617 0.987688
    outer loop
      vertex -13.3777 -18.2892 17.5038
      vertex 17.8017 13.8652 17.3946
      vertex -13.8652 -17.8017 17.3946
    endloop
  endfacet
  facet normal -0.253404 0.253404 0.93358
    outer loop
      vertex 20.6703 10.9966 18.4061
      vertex -10.5357 -21.1312 18.6563
      vertex 21.1312 10.5357 18.6563
    endloop
  endfacet
  facet normal -0.253404 0.253404 0.93358
    outer loop
      vertex -10.5357 -21.1312 18.6563
      vertex 20.6703 10.9966 18.4061
      vertex -10.9966 -20.6703 18.4061
    endloop
  endfacet
  facet normal -0.206737 0.206737 0.956305
    outer loop
      vertex 19.7316 11.9354 17.9748
      vertex -11.4633 -20.2036 18.1789
      vertex 20.2036 11.4633 18.1789
    endloop
  endfacet
  facet normal -0.206737 0.206737 0.956305
    outer loop
      vertex -11.4633 -20.2036 18.1789
      vertex 19.7316 11.9354 17.9748
      vertex -11.9354 -19.7316 17.9748
    endloop
  endfacet
  facet normal -0.321026 0.321018 0.891005
    outer loop
      vertex 22.033 9.63395 19.2241
      vertex 22.3919 9.11322 19.541
      vertex 22.3919 9.27502 19.4828
    endloop
  endfacet
  facet normal -0.321021 0.321021 0.891005
    outer loop
      vertex 22.033 9.63395 19.2241
      vertex -9.11322 -22.3919 19.541
      vertex 22.3919 9.11322 19.541
    endloop
  endfacet
  facet normal -0.321021 0.321021 0.891005
    outer loop
      vertex -9.63395 -22.033 19.2241
      vertex -9.11322 -22.3919 19.541
      vertex 22.033 9.63395 19.2241
    endloop
  endfacet
  facet normal -0.321018 0.321026 0.891005
    outer loop
      vertex -9.11322 -22.3919 19.541
      vertex -9.63395 -22.033 19.2241
      vertex -9.27502 -22.3919 19.4828
    endloop
  endfacet
  facet normal -0.482246 0.482246 0.731354
    outer loop
      vertex 22.3919 3.46601 22.3371
      vertex -2.74398 -22.3919 22.8132
      vertex 22.3919 2.74398 22.8132
    endloop
  endfacet
  facet normal -0.482246 0.482246 0.731354
    outer loop
      vertex -2.74398 -22.3919 22.8132
      vertex 22.3919 3.46601 22.3371
      vertex -3.46601 -22.3919 22.3371
    endloop
  endfacet
  facet normal -0.53366 0.53366 0.65606
    outer loop
      vertex 22.3919 1.37257 23.8174
      vertex -0.724874 -22.3919 24.3442
      vertex 22.3919 0.724874 24.3442
    endloop
  endfacet
  facet normal -0.53366 0.53366 0.65606
    outer loop
      vertex -0.724874 -22.3919 24.3442
      vertex 22.3919 1.37257 23.8174
      vertex -1.37257 -22.3919 23.8174
    endloop
  endfacet
  facet normal -0.579228 0.579228 0.573575
    outer loop
      vertex 22.3919 -0.490574 25.4443
      vertex 1.05684 -22.3919 26.0161
      vertex 22.3919 -1.05684 26.0161
    endloop
  endfacet
  facet normal -0.579228 0.579228 0.573575
    outer loop
      vertex 1.05684 -22.3919 26.0161
      vertex 22.3919 -0.490574 25.4443
      vertex 0.490574 -22.3919 25.4443
    endloop
  endfacet
  facet normal -0.134921 0.134921 0.981628
    outer loop
      vertex 18.2892 13.3777 17.5038
      vertex -12.8931 -18.7738 17.637
      vertex 18.7738 12.8931 17.637
    endloop
  endfacet
  facet normal -0.134921 0.134921 0.981628
    outer loop
      vertex -12.8931 -18.7738 17.637
      vertex 18.2892 13.3777 17.5038
      vertex -13.3777 -18.2892 17.5038
    endloop
  endfacet
  facet normal -0.5 0.5 0.707107
    outer loop
      vertex 22.3919 2.74398 22.8132
      vertex -2.04588 -22.3919 23.3068
      vertex 22.3919 2.04588 23.3068
    endloop
  endfacet
  facet normal -0.5 0.5 0.707107
    outer loop
      vertex -2.04588 -22.3919 23.3068
      vertex 22.3919 2.74398 22.8132
      vertex -2.74398 -22.3919 22.8132
    endloop
  endfacet
  facet normal -0.517145 0.517145 0.681998
    outer loop
      vertex 22.3919 2.04588 23.3068
      vertex -1.37257 -22.3919 23.8174
      vertex 22.3919 1.37257 23.8174
    endloop
  endfacet
  facet normal -0.517145 0.517145 0.681998
    outer loop
      vertex -1.37257 -22.3919 23.8174
      vertex 22.3919 2.04588 23.3068
      vertex -2.04588 -22.3919 23.3068
    endloop
  endfacet
  facet normal -0.549526 0.549526 0.62932
    outer loop
      vertex 22.3919 0.724874 24.3442
      vertex -0.103573 -22.3919 24.8868
      vertex 22.3919 0.103573 24.8868
    endloop
  endfacet
  facet normal -0.549526 0.549526 0.62932
    outer loop
      vertex -0.103573 -22.3919 24.8868
      vertex 22.3919 0.724874 24.3442
      vertex -0.724874 -22.3919 24.3442
    endloop
  endfacet
  facet normal -0.56472 0.56472 0.601816
    outer loop
      vertex 22.3919 0.103573 24.8868
      vertex 0.490574 -22.3919 25.4443
      vertex 22.3919 -0.490574 25.4443
    endloop
  endfacet
  facet normal -0.56472 0.56472 0.601816
    outer loop
      vertex 0.490574 -22.3919 25.4443
      vertex 22.3919 0.103573 24.8868
      vertex -0.103573 -22.3919 24.8868
    endloop
  endfacet
  facet normal -0.618449 0.618449 0.484811
    outer loop
      vertex 2.10301 -22.3919 27.2
      vertex 22.3919 -2.58165 27.8106
      vertex 22.3919 -2.10301 27.2
    endloop
  endfacet
  facet normal -0.618449 0.618449 0.484811
    outer loop
      vertex 22.3919 -2.58165 27.8106
      vertex 2.10301 -22.3919 27.2
      vertex 2.58165 -22.3919 27.8106
    endloop
  endfacet
  facet normal -0.630036 0.630036 0.453992
    outer loop
      vertex 2.58165 -22.3919 27.8106
      vertex 22.3919 -3.02985 28.4326
      vertex 22.3919 -2.58165 27.8106
    endloop
  endfacet
  facet normal -0.630036 0.630036 0.453992
    outer loop
      vertex 22.3919 -3.02985 28.4326
      vertex 2.58165 -22.3919 27.8106
      vertex 3.02985 -22.3919 28.4326
    endloop
  endfacet
  facet normal -0.385118 0.385118 0.83867
    outer loop
      vertex 22.3919 7.4035 20.239
      vertex -6.57552 -22.3919 20.6192
      vertex 22.3919 6.57552 20.6192
    endloop
  endfacet
  facet normal -0.385118 0.385118 0.83867
    outer loop
      vertex -6.57552 -22.3919 20.6192
      vertex 22.3919 7.4035 20.239
      vertex -7.4035 -22.3919 20.239
    endloop
  endfacet
  facet normal -0.405581 0.405581 0.819151
    outer loop
      vertex 22.3919 6.57552 20.6192
      vertex -5.76681 -22.3919 21.0197
      vertex 22.3919 5.76681 21.0197
    endloop
  endfacet
  facet normal -0.405581 0.405581 0.819151
    outer loop
      vertex -5.76681 -22.3919 21.0197
      vertex 22.3919 6.57552 20.6192
      vertex -6.57552 -22.3919 20.6192
    endloop
  endfacet
endsolid OpenSCAD_Model
