solid OpenSCAD_Model
  facet normal 0 1 0
    outer loop
      vertex -55.35 20.1 0
      vertex 55.35 20.1 20
      vertex 55.35 20.1 0
    endloop
  endfacet
  facet normal 0 -1 0
    outer loop
      vertex 55.35 -20.1 0
      vertex 55.35 -20.1 20
      vertex -55.35 -20.1 0
    endloop
  endfacet
  facet normal -0.17779 0 0.984068
    outer loop
      vertex -55.35 20.1 0
      vertex 55.35 -20.1 20
      vertex 55.35 20.1 20
    endloop
  endfacet
  facet normal -0.17779 0 0.984068
    outer loop
      vertex -55.35 20.1 0
      vertex -55.35 -20.1 0
      vertex 55.35 -20.1 20
    endloop
  endfacet
  facet normal -0 0 -1
    outer loop
      vertex 55.35 20.1 0
      vertex -55.35 -20.1 0
      vertex -55.35 20.1 0
    endloop
  endfacet
  facet normal 0 -0 -1
    outer loop
      vertex 55.35 20.1 0
      vertex 55.35 -20.1 0
      vertex -55.35 -20.1 0
    endloop
  endfacet
  facet normal 1 0 0
    outer loop
      vertex 55.35 20.1 20
      vertex 55.35 -20.1 0
      vertex 55.35 20.1 0
    endloop
  endfacet
  facet normal 1 0 0
    outer loop
      vertex 55.35 20.1 20
      vertex 55.35 -20.1 20
      vertex 55.35 -20.1 0
    endloop
  endfacet
endsolid OpenSCAD_Model
