solid OpenSCAD_Model
  facet normal 1 -0 0
    outer loop
      vertex -64.99 -5 32.4
      vertex -64.99 5 1.2
      vertex -64.99 5 32.4
    endloop
  endfacet
  facet normal 1 0 0
    outer loop
      vertex -64.99 5 1.2
      vertex -64.99 -5 32.4
      vertex -64.99 -5 1.2
    endloop
  endfacet
  facet normal -0 0 1
    outer loop
      vertex -66.79 5 32.4
      vertex -64.99 -5 32.4
      vertex -64.99 5 32.4
    endloop
  endfacet
  facet normal 0 0 1
    outer loop
      vertex -64.99 -5 32.4
      vertex -66.79 5 32.4
      vertex -66.79 -5 32.4
    endloop
  endfacet
  facet normal -1 0 0
    outer loop
      vertex -66.79 -5 0
      vertex -66.79 5 32.4
      vertex -66.79 5 0
    endloop
  endfacet
  facet normal -1 -0 0
    outer loop
      vertex -66.79 5 32.4
      vertex -66.79 -5 0
      vertex -66.79 -5 32.4
    endloop
  endfacet
  facet normal 0 0 -1
    outer loop
      vertex -66.79 -5 0
      vertex -65 5 0
      vertex -65 -5 0
    endloop
  endfacet
  facet normal -0 0 -1
    outer loop
      vertex -65 5 0
      vertex -66.79 -5 0
      vertex -66.79 5 0
    endloop
  endfacet
  facet normal 0 0 -1
    outer loop
      vertex -65 -5 0
      vertex -50 -9 0
      vertex -65 -9 0
    endloop
  endfacet
  facet normal 0 0 -1
    outer loop
      vertex -50 -9 0
      vertex -65 -5 0
      vertex -50 9 0
    endloop
  endfacet
  facet normal 0 0 -1
    outer loop
      vertex -65 5 0
      vertex -50 9 0
      vertex -65 -5 0
    endloop
  endfacet
  facet normal -0 0 -1
    outer loop
      vertex -50 9 0
      vertex -65 5 0
      vertex -65 9 0
    endloop
  endfacet
  facet normal 0 0 -1
    outer loop
      vertex -50 -9 0
      vertex -30 -9 0
      vertex -30 -10.79 0
    endloop
  endfacet
  facet normal 0 0 -1
    outer loop
      vertex -30 -9 0
      vertex -50 -9 0
      vertex -30 9 0
    endloop
  endfacet
  facet normal 0 0 -1
    outer loop
      vertex -50 -9 0
      vertex -30 -10.79 0
      vertex -50 -10.79 0
    endloop
  endfacet
  facet normal 0 0 -1
    outer loop
      vertex -50 9 0
      vertex -30 9 0
      vertex -50 -9 0
    endloop
  endfacet
  facet normal 0 0 -1
    outer loop
      vertex -30 9 0
      vertex -50 9 0
      vertex -30 10.79 0
    endloop
  endfacet
  facet normal -0 0 -1
    outer loop
      vertex -30 10.79 0
      vertex -50 9 0
      vertex -50 10.79 0
    endloop
  endfacet
  facet normal 0 0 -1
    outer loop
      vertex -30 -9 0
      vertex 30 9 0
      vertex 30 -9 0
    endloop
  endfacet
  facet normal -0 0 -1
    outer loop
      vertex 30 9 0
      vertex -30 -9 0
      vertex -30 9 0
    endloop
  endfacet
  facet normal 0 0 -1
    outer loop
      vertex 30 -9 0
      vertex 50 -9 0
      vertex 50 -10.79 0
    endloop
  endfacet
  facet normal 0 0 -1
    outer loop
      vertex 50 -9 0
      vertex 30 -9 0
      vertex 50 9 0
    endloop
  endfacet
  facet normal 0 0 -1
    outer loop
      vertex 30 -9 0
      vertex 50 -10.79 0
      vertex 30 -10.79 0
    endloop
  endfacet
  facet normal 0 0 -1
    outer loop
      vertex 30 9 0
      vertex 50 9 0
      vertex 30 -9 0
    endloop
  endfacet
  facet normal 0 0 -1
    outer loop
      vertex 50 9 0
      vertex 30 9 0
      vertex 50 10.79 0
    endloop
  endfacet
  facet normal -0 0 -1
    outer loop
      vertex 50 10.79 0
      vertex 30 9 0
      vertex 30 10.79 0
    endloop
  endfacet
  facet normal 0 0 -1
    outer loop
      vertex 50 -9 0
      vertex 65 -5 0
      vertex 65 -9 0
    endloop
  endfacet
  facet normal -0 0 -1
    outer loop
      vertex 65 -5 0
      vertex 50 -9 0
      vertex 65 5 0
    endloop
  endfacet
  facet normal 0 0 -1
    outer loop
      vertex 50 9 0
      vertex 65 5 0
      vertex 50 -9 0
    endloop
  endfacet
  facet normal 0 0 -1
    outer loop
      vertex 65 5 0
      vertex 50 9 0
      vertex 65 9 0
    endloop
  endfacet
  facet normal 0 0 -1
    outer loop
      vertex 65 -5 0
      vertex 66.79 5 0
      vertex 66.79 -5 0
    endloop
  endfacet
  facet normal -0 0 -1
    outer loop
      vertex 66.79 5 0
      vertex 65 -5 0
      vertex 65 5 0
    endloop
  endfacet
  facet normal 0 -1 0
    outer loop
      vertex -66.79 -5 32.4
      vertex -65 -5 1.2
      vertex -64.99 -5 32.4
    endloop
  endfacet
  facet normal 0 -1 0
    outer loop
      vertex -66.79 -5 0
      vertex -65 -5 1.2
      vertex -66.79 -5 32.4
    endloop
  endfacet
  facet normal 0 -1 -0
    outer loop
      vertex -65 -5 1.2
      vertex -66.79 -5 0
      vertex -65 -5 0
    endloop
  endfacet
  facet normal 0 -1 -0
    outer loop
      vertex -64.99 -5 32.4
      vertex -65 -5 1.2
      vertex -64.99 -5 1.2
    endloop
  endfacet
  facet normal 0 1 0
    outer loop
      vertex -65 5 1.2
      vertex -64.99 5 32.4
      vertex -64.99 5 1.2
    endloop
  endfacet
  facet normal 0 1 0
    outer loop
      vertex -64.99 5 32.4
      vertex -65 5 1.2
      vertex -66.79 5 32.4
    endloop
  endfacet
  facet normal 0 1 0
    outer loop
      vertex -66.79 5 0
      vertex -65 5 1.2
      vertex -65 5 0
    endloop
  endfacet
  facet normal 0 1 0
    outer loop
      vertex -65 5 1.2
      vertex -66.79 5 0
      vertex -66.79 5 32.4
    endloop
  endfacet
  facet normal 1 0 0
    outer loop
      vertex -30 10.79 32.4
      vertex -30 9 1.2
      vertex -30 10.79 0
    endloop
  endfacet
  facet normal 1 -0 0
    outer loop
      vertex -30 8.99 32.4
      vertex -30 9 1.2
      vertex -30 10.79 32.4
    endloop
  endfacet
  facet normal 1 0 0
    outer loop
      vertex -30 9 1.2
      vertex -30 8.99 32.4
      vertex -30 8.99 1.2
    endloop
  endfacet
  facet normal 1 0 0
    outer loop
      vertex -30 10.79 0
      vertex -30 9 1.2
      vertex -30 9 0
    endloop
  endfacet
  facet normal -0 0 1
    outer loop
      vertex -50 10.79 32.4
      vertex -30 8.99 32.4
      vertex -30 10.79 32.4
    endloop
  endfacet
  facet normal 0 0 1
    outer loop
      vertex -30 8.99 32.4
      vertex -50 10.79 32.4
      vertex -50 8.99 32.4
    endloop
  endfacet
  facet normal -1 0 0
    outer loop
      vertex -50 9 1.2
      vertex -50 10.79 0
      vertex -50 9 0
    endloop
  endfacet
  facet normal -1 0 0
    outer loop
      vertex -50 10.79 0
      vertex -50 9 1.2
      vertex -50 10.79 32.4
    endloop
  endfacet
  facet normal -1 0 0
    outer loop
      vertex -50 8.99 32.4
      vertex -50 9 1.2
      vertex -50 8.99 1.2
    endloop
  endfacet
  facet normal -1 0 0
    outer loop
      vertex -50 9 1.2
      vertex -50 8.99 32.4
      vertex -50 10.79 32.4
    endloop
  endfacet
  facet normal 0 1 -0
    outer loop
      vertex -30 10.79 0
      vertex -50 10.79 32.4
      vertex -30 10.79 32.4
    endloop
  endfacet
  facet normal 0 1 0
    outer loop
      vertex -50 10.79 32.4
      vertex -30 10.79 0
      vertex -50 10.79 0
    endloop
  endfacet
  facet normal 0 -1 0
    outer loop
      vertex -50 8.99 1.2
      vertex -30 8.99 32.4
      vertex -50 8.99 32.4
    endloop
  endfacet
  facet normal 0 -1 -0
    outer loop
      vertex -30 8.99 32.4
      vertex -50 8.99 1.2
      vertex -30 8.99 1.2
    endloop
  endfacet
  facet normal -0 0 1
    outer loop
      vertex 30 -8.99 32.4
      vertex 50 -10.79 32.4
      vertex 50 -8.99 32.4
    endloop
  endfacet
  facet normal 0 0 1
    outer loop
      vertex 50 -10.79 32.4
      vertex 30 -8.99 32.4
      vertex 30 -10.79 32.4
    endloop
  endfacet
  facet normal 1 0 0
    outer loop
      vertex 50 -8.99 32.4
      vertex 50 -9 1.2
      vertex 50 -8.99 1.2
    endloop
  endfacet
  facet normal 1 -0 0
    outer loop
      vertex 50 -10.79 32.4
      vertex 50 -9 1.2
      vertex 50 -8.99 32.4
    endloop
  endfacet
  facet normal 1 0 0
    outer loop
      vertex 50 -10.79 0
      vertex 50 -9 1.2
      vertex 50 -10.79 32.4
    endloop
  endfacet
  facet normal 1 0 0
    outer loop
      vertex 50 -9 1.2
      vertex 50 -10.79 0
      vertex 50 -9 0
    endloop
  endfacet
  facet normal 0 1 -0
    outer loop
      vertex 50 -8.99 1.2
      vertex 30 -8.99 32.4
      vertex 50 -8.99 32.4
    endloop
  endfacet
  facet normal 0 1 0
    outer loop
      vertex 30 -8.99 32.4
      vertex 50 -8.99 1.2
      vertex 30 -8.99 1.2
    endloop
  endfacet
  facet normal -1 0 0
    outer loop
      vertex 30 -9 0
      vertex 30 -10.79 0
      vertex 30 -9 1.2
    endloop
  endfacet
  facet normal -1 0 0
    outer loop
      vertex 30 -9 1.2
      vertex 30 -8.99 32.4
      vertex 30 -8.99 1.2
    endloop
  endfacet
  facet normal -1 0 0
    outer loop
      vertex 30 -10.79 32.4
      vertex 30 -9 1.2
      vertex 30 -10.79 0
    endloop
  endfacet
  facet normal -1 0 0
    outer loop
      vertex 30 -9 1.2
      vertex 30 -10.79 32.4
      vertex 30 -8.99 32.4
    endloop
  endfacet
  facet normal 0 -1 0
    outer loop
      vertex 30 -10.79 0
      vertex 50 -10.79 32.4
      vertex 30 -10.79 32.4
    endloop
  endfacet
  facet normal 0 -1 -0
    outer loop
      vertex 50 -10.79 32.4
      vertex 30 -10.79 0
      vertex 50 -10.79 0
    endloop
  endfacet
  facet normal -1 0 0
    outer loop
      vertex 64.99 -5 1.2
      vertex 64.99 5 32.4
      vertex 64.99 5 1.2
    endloop
  endfacet
  facet normal -1 -0 0
    outer loop
      vertex 64.99 5 32.4
      vertex 64.99 -5 1.2
      vertex 64.99 -5 32.4
    endloop
  endfacet
  facet normal -0 0 1
    outer loop
      vertex 64.99 5 32.4
      vertex 66.79 -5 32.4
      vertex 66.79 5 32.4
    endloop
  endfacet
  facet normal 0 0 1
    outer loop
      vertex 66.79 -5 32.4
      vertex 64.99 5 32.4
      vertex 64.99 -5 32.4
    endloop
  endfacet
  facet normal 1 -0 0
    outer loop
      vertex 66.79 -5 32.4
      vertex 66.79 5 0
      vertex 66.79 5 32.4
    endloop
  endfacet
  facet normal 1 0 0
    outer loop
      vertex 66.79 5 0
      vertex 66.79 -5 32.4
      vertex 66.79 -5 0
    endloop
  endfacet
  facet normal 0 1 0
    outer loop
      vertex 66.79 5 32.4
      vertex 65 5 1.2
      vertex 64.99 5 32.4
    endloop
  endfacet
  facet normal 0 1 -0
    outer loop
      vertex 66.79 5 0
      vertex 65 5 1.2
      vertex 66.79 5 32.4
    endloop
  endfacet
  facet normal 0 1 0
    outer loop
      vertex 65 5 1.2
      vertex 66.79 5 0
      vertex 65 5 0
    endloop
  endfacet
  facet normal 0 1 0
    outer loop
      vertex 64.99 5 32.4
      vertex 65 5 1.2
      vertex 64.99 5 1.2
    endloop
  endfacet
  facet normal 0 -1 0
    outer loop
      vertex 65 -5 1.2
      vertex 64.99 -5 32.4
      vertex 64.99 -5 1.2
    endloop
  endfacet
  facet normal 0 -1 0
    outer loop
      vertex 64.99 -5 32.4
      vertex 65 -5 1.2
      vertex 66.79 -5 32.4
    endloop
  endfacet
  facet normal 0 -1 0
    outer loop
      vertex 66.79 -5 0
      vertex 65 -5 1.2
      vertex 65 -5 0
    endloop
  endfacet
  facet normal 0 -1 0
    outer loop
      vertex 65 -5 1.2
      vertex 66.79 -5 0
      vertex 66.79 -5 32.4
    endloop
  endfacet
  facet normal -1 0 0
    outer loop
      vertex 30 9 1.2
      vertex 30 10.79 0
      vertex 30 9 0
    endloop
  endfacet
  facet normal -1 0 0
    outer loop
      vertex 30 10.79 0
      vertex 30 9 1.2
      vertex 30 10.79 32.4
    endloop
  endfacet
  facet normal -1 0 0
    outer loop
      vertex 30 8.99 32.4
      vertex 30 9 1.2
      vertex 30 8.99 1.2
    endloop
  endfacet
  facet normal -1 0 0
    outer loop
      vertex 30 9 1.2
      vertex 30 8.99 32.4
      vertex 30 10.79 32.4
    endloop
  endfacet
  facet normal -0 0 1
    outer loop
      vertex 30 10.79 32.4
      vertex 50 8.99 32.4
      vertex 50 10.79 32.4
    endloop
  endfacet
  facet normal 0 0 1
    outer loop
      vertex 50 8.99 32.4
      vertex 30 10.79 32.4
      vertex 30 8.99 32.4
    endloop
  endfacet
  facet normal 1 0 0
    outer loop
      vertex 50 10.79 32.4
      vertex 50 9 1.2
      vertex 50 10.79 0
    endloop
  endfacet
  facet normal 1 -0 0
    outer loop
      vertex 50 8.99 32.4
      vertex 50 9 1.2
      vertex 50 10.79 32.4
    endloop
  endfacet
  facet normal 1 0 0
    outer loop
      vertex 50 9 1.2
      vertex 50 8.99 32.4
      vertex 50 8.99 1.2
    endloop
  endfacet
  facet normal 1 0 0
    outer loop
      vertex 50 10.79 0
      vertex 50 9 1.2
      vertex 50 9 0
    endloop
  endfacet
  facet normal 0 -1 0
    outer loop
      vertex 30 8.99 1.2
      vertex 50 8.99 32.4
      vertex 30 8.99 32.4
    endloop
  endfacet
  facet normal 0 -1 -0
    outer loop
      vertex 50 8.99 32.4
      vertex 30 8.99 1.2
      vertex 50 8.99 1.2
    endloop
  endfacet
  facet normal 0 1 -0
    outer loop
      vertex 50 10.79 0
      vertex 30 10.79 32.4
      vertex 50 10.79 32.4
    endloop
  endfacet
  facet normal 0 1 0
    outer loop
      vertex 30 10.79 32.4
      vertex 50 10.79 0
      vertex 30 10.79 0
    endloop
  endfacet
  facet normal -0 0 1
    outer loop
      vertex -50 -8.99 32.4
      vertex -30 -10.79 32.4
      vertex -30 -8.99 32.4
    endloop
  endfacet
  facet normal 0 0 1
    outer loop
      vertex -30 -10.79 32.4
      vertex -50 -8.99 32.4
      vertex -50 -10.79 32.4
    endloop
  endfacet
  facet normal -1 0 0
    outer loop
      vertex -50 -9 0
      vertex -50 -10.79 0
      vertex -50 -9 1.2
    endloop
  endfacet
  facet normal -1 0 0
    outer loop
      vertex -50 -9 1.2
      vertex -50 -8.99 32.4
      vertex -50 -8.99 1.2
    endloop
  endfacet
  facet normal -1 0 0
    outer loop
      vertex -50 -10.79 32.4
      vertex -50 -9 1.2
      vertex -50 -10.79 0
    endloop
  endfacet
  facet normal -1 0 0
    outer loop
      vertex -50 -9 1.2
      vertex -50 -10.79 32.4
      vertex -50 -8.99 32.4
    endloop
  endfacet
  facet normal 0 1 -0
    outer loop
      vertex -30 -8.99 1.2
      vertex -50 -8.99 32.4
      vertex -30 -8.99 32.4
    endloop
  endfacet
  facet normal 0 1 0
    outer loop
      vertex -50 -8.99 32.4
      vertex -30 -8.99 1.2
      vertex -50 -8.99 1.2
    endloop
  endfacet
  facet normal 1 0 0
    outer loop
      vertex -30 -8.99 32.4
      vertex -30 -9 1.2
      vertex -30 -8.99 1.2
    endloop
  endfacet
  facet normal 1 -0 0
    outer loop
      vertex -30 -10.79 32.4
      vertex -30 -9 1.2
      vertex -30 -8.99 32.4
    endloop
  endfacet
  facet normal 1 0 0
    outer loop
      vertex -30 -10.79 0
      vertex -30 -9 1.2
      vertex -30 -10.79 32.4
    endloop
  endfacet
  facet normal 1 0 0
    outer loop
      vertex -30 -9 1.2
      vertex -30 -10.79 0
      vertex -30 -9 0
    endloop
  endfacet
  facet normal 0 -1 0
    outer loop
      vertex -50 -10.79 0
      vertex -30 -10.79 32.4
      vertex -50 -10.79 32.4
    endloop
  endfacet
  facet normal 0 -1 -0
    outer loop
      vertex -30 -10.79 32.4
      vertex -50 -10.79 0
      vertex -30 -10.79 0
    endloop
  endfacet
  facet normal -1 0 0
    outer loop
      vertex -65 -9 0
      vertex -65 -5 1.2
      vertex -65 -5 0
    endloop
  endfacet
  facet normal -1 -0 0
    outer loop
      vertex -65 -5 1.2
      vertex -65 -9 0
      vertex -65 -9 1.2
    endloop
  endfacet
  facet normal -1 0 0
    outer loop
      vertex -65 5 0
      vertex -65 9 1.2
      vertex -65 9 0
    endloop
  endfacet
  facet normal -1 -0 0
    outer loop
      vertex -65 9 1.2
      vertex -65 5 0
      vertex -65 5 1.2
    endloop
  endfacet
  facet normal 0 0 1
    outer loop
      vertex 65 9 1.2
      vertex 64.99 5 1.2
      vertex 65 5 1.2
    endloop
  endfacet
  facet normal 0 0 1
    outer loop
      vertex 65 9 1.2
      vertex 50 8.99 1.2
      vertex 64.99 5 1.2
    endloop
  endfacet
  facet normal 0 0 1
    outer loop
      vertex 50 8.99 1.2
      vertex 65 9 1.2
      vertex 50 9 1.2
    endloop
  endfacet
  facet normal -0 0 1
    outer loop
      vertex 64.99 -5 1.2
      vertex 65 -9 1.2
      vertex 65 -5 1.2
    endloop
  endfacet
  facet normal 0 0 1
    outer loop
      vertex 64.99 5 1.2
      vertex 50 8.99 1.2
      vertex 64.99 -5 1.2
    endloop
  endfacet
  facet normal 0 0 1
    outer loop
      vertex 50 -8.99 1.2
      vertex 64.99 -5 1.2
      vertex 50 8.99 1.2
    endloop
  endfacet
  facet normal 0 0 1
    outer loop
      vertex 64.99 -5 1.2
      vertex 50 -8.99 1.2
      vertex 65 -9 1.2
    endloop
  endfacet
  facet normal 0 0 1
    outer loop
      vertex 65 -9 1.2
      vertex 50 -8.99 1.2
      vertex 50 -9 1.2
    endloop
  endfacet
  facet normal -0 0 1
    outer loop
      vertex -65 9 1.2
      vertex -50 8.99 1.2
      vertex -50 9 1.2
    endloop
  endfacet
  facet normal 0 0 1
    outer loop
      vertex -50 8.99 1.2
      vertex -64.99 5 1.2
      vertex -50 -8.99 1.2
    endloop
  endfacet
  facet normal -0 0 1
    outer loop
      vertex -64.99 -5 1.2
      vertex -50 -8.99 1.2
      vertex -64.99 5 1.2
    endloop
  endfacet
  facet normal 0 0 1
    outer loop
      vertex -50 8.99 1.2
      vertex -65 9 1.2
      vertex -64.99 5 1.2
    endloop
  endfacet
  facet normal 0 0 1
    outer loop
      vertex -64.99 5 1.2
      vertex -65 9 1.2
      vertex -65 5 1.2
    endloop
  endfacet
  facet normal -0 0 1
    outer loop
      vertex -50 8.99 1.2
      vertex -30 -8.99 1.2
      vertex -30 8.99 1.2
    endloop
  endfacet
  facet normal 0 0 1
    outer loop
      vertex -30 -8.99 1.2
      vertex -50 8.99 1.2
      vertex -50 -8.99 1.2
    endloop
  endfacet
  facet normal 0 0 1
    outer loop
      vertex -30 8.99 1.2
      vertex 30 8.99 1.2
      vertex 30 9 1.2
    endloop
  endfacet
  facet normal 0 0 1
    outer loop
      vertex 30 8.99 1.2
      vertex -30 8.99 1.2
      vertex 30 -8.99 1.2
    endloop
  endfacet
  facet normal 0 0 1
    outer loop
      vertex -30 8.99 1.2
      vertex 30 9 1.2
      vertex -30 9 1.2
    endloop
  endfacet
  facet normal 0 0 1
    outer loop
      vertex -30 -8.99 1.2
      vertex 30 -8.99 1.2
      vertex -30 8.99 1.2
    endloop
  endfacet
  facet normal 0 0 1
    outer loop
      vertex 30 -8.99 1.2
      vertex -30 -8.99 1.2
      vertex 30 -9 1.2
    endloop
  endfacet
  facet normal 0 0 1
    outer loop
      vertex 30 -9 1.2
      vertex -30 -8.99 1.2
      vertex -30 -9 1.2
    endloop
  endfacet
  facet normal -0 0 1
    outer loop
      vertex 30 8.99 1.2
      vertex 50 -8.99 1.2
      vertex 50 8.99 1.2
    endloop
  endfacet
  facet normal 0 0 1
    outer loop
      vertex 50 -8.99 1.2
      vertex 30 8.99 1.2
      vertex 30 -8.99 1.2
    endloop
  endfacet
  facet normal 0 0 1
    outer loop
      vertex -65 -9 1.2
      vertex -50 -8.99 1.2
      vertex -64.99 -5 1.2
    endloop
  endfacet
  facet normal 0 0 1
    outer loop
      vertex -65 -9 1.2
      vertex -64.99 -5 1.2
      vertex -65 -5 1.2
    endloop
  endfacet
  facet normal 0 0 1
    outer loop
      vertex -50 -8.99 1.2
      vertex -65 -9 1.2
      vertex -50 -9 1.2
    endloop
  endfacet
  facet normal 1 -0 0
    outer loop
      vertex 65 -9 1.2
      vertex 65 -5 0
      vertex 65 -5 1.2
    endloop
  endfacet
  facet normal 1 0 0
    outer loop
      vertex 65 -5 0
      vertex 65 -9 1.2
      vertex 65 -9 0
    endloop
  endfacet
  facet normal 1 -0 0
    outer loop
      vertex 65 5 1.2
      vertex 65 9 0
      vertex 65 9 1.2
    endloop
  endfacet
  facet normal 1 0 0
    outer loop
      vertex 65 9 0
      vertex 65 5 1.2
      vertex 65 5 0
    endloop
  endfacet
  facet normal 0 1 -0
    outer loop
      vertex 65 9 0
      vertex 50 9 1.2
      vertex 65 9 1.2
    endloop
  endfacet
  facet normal 0 1 0
    outer loop
      vertex 50 9 1.2
      vertex 65 9 0
      vertex 50 9 0
    endloop
  endfacet
  facet normal 0 1 -0
    outer loop
      vertex -50 9 0
      vertex -65 9 1.2
      vertex -50 9 1.2
    endloop
  endfacet
  facet normal 0 1 0
    outer loop
      vertex -65 9 1.2
      vertex -50 9 0
      vertex -65 9 0
    endloop
  endfacet
  facet normal 0 1 -0
    outer loop
      vertex 30 9 0
      vertex -30 9 1.2
      vertex 30 9 1.2
    endloop
  endfacet
  facet normal 0 1 0
    outer loop
      vertex -30 9 1.2
      vertex 30 9 0
      vertex -30 9 0
    endloop
  endfacet
  facet normal 0 -1 0
    outer loop
      vertex 50 -9 0
      vertex 65 -9 1.2
      vertex 50 -9 1.2
    endloop
  endfacet
  facet normal 0 -1 -0
    outer loop
      vertex 65 -9 1.2
      vertex 50 -9 0
      vertex 65 -9 0
    endloop
  endfacet
  facet normal 0 -1 0
    outer loop
      vertex -65 -9 0
      vertex -50 -9 1.2
      vertex -65 -9 1.2
    endloop
  endfacet
  facet normal 0 -1 -0
    outer loop
      vertex -50 -9 1.2
      vertex -65 -9 0
      vertex -50 -9 0
    endloop
  endfacet
  facet normal 0 -1 0
    outer loop
      vertex -30 -9 0
      vertex 30 -9 1.2
      vertex -30 -9 1.2
    endloop
  endfacet
  facet normal 0 -1 -0
    outer loop
      vertex 30 -9 1.2
      vertex -30 -9 0
      vertex 30 -9 0
    endloop
  endfacet
endsolid OpenSCAD_Model
