solid OpenSCAD_Model
  facet normal -0 0 1
    outer loop
      vertex -63.5 8 1.2
      vertex 63.5 -8 1.2
      vertex 63.5 8 1.2
    endloop
  endfacet
  facet normal 0 0 1
    outer loop
      vertex 63.5 -8 1.2
      vertex -63.5 8 1.2
      vertex -63.5 -8 1.2
    endloop
  endfacet
  facet normal 0 0 -1
    outer loop
      vertex -63.5 -8 0
      vertex 63.5 8 0
      vertex 63.5 -8 0
    endloop
  endfacet
  facet normal -0 0 -1
    outer loop
      vertex 63.5 8 0
      vertex -63.5 -8 0
      vertex -63.5 8 0
    endloop
  endfacet
  facet normal 0 -1 0
    outer loop
      vertex -63.5 -8 0
      vertex 63.5 -8 1.2
      vertex -63.5 -8 1.2
    endloop
  endfacet
  facet normal 0 -1 -0
    outer loop
      vertex 63.5 -8 1.2
      vertex -63.5 -8 0
      vertex 63.5 -8 0
    endloop
  endfacet
  facet normal 1 -0 0
    outer loop
      vertex 63.5 -8 1.2
      vertex 63.5 8 0
      vertex 63.5 8 1.2
    endloop
  endfacet
  facet normal 1 0 0
    outer loop
      vertex 63.5 8 0
      vertex 63.5 -8 1.2
      vertex 63.5 -8 0
    endloop
  endfacet
  facet normal 0 1 -0
    outer loop
      vertex 63.5 8 0
      vertex -63.5 8 1.2
      vertex 63.5 8 1.2
    endloop
  endfacet
  facet normal 0 1 0
    outer loop
      vertex -63.5 8 1.2
      vertex 63.5 8 0
      vertex -63.5 8 0
    endloop
  endfacet
  facet normal -1 0 0
    outer loop
      vertex -63.5 -8 0
      vertex -63.5 8 1.2
      vertex -63.5 8 0
    endloop
  endfacet
  facet normal -1 -0 0
    outer loop
      vertex -63.5 8 1.2
      vertex -63.5 -8 0
      vertex -63.5 -8 1.2
    endloop
  endfacet
endsolid OpenSCAD_Model
