solid OpenSCAD_Model
  facet normal -1 0 0
    outer loop
      vertex -100 -29.5 0
      vertex -100 29.5 3
      vertex -100 29.5 0
    endloop
  endfacet
  facet normal -1 -0 0
    outer loop
      vertex -100 29.5 3
      vertex -100 -29.5 0
      vertex -100 -29.5 3
    endloop
  endfacet
  facet normal 0 0 1
    outer loop
      vertex 0 29.5 3
      vertex -5.2 10.2 3
      vertex 0 5.2 3
    endloop
  endfacet
  facet normal 0 0 1
    outer loop
      vertex -5.2 10.2 3
      vertex -100 29.5 3
      vertex -5.2 -10.2 3
    endloop
  endfacet
  facet normal -0 0 1
    outer loop
      vertex -100 29.5 3
      vertex -5.2 10.2 3
      vertex 0 29.5 3
    endloop
  endfacet
  facet normal -0 0 1
    outer loop
      vertex -5.2 -10.2 3
      vertex 0 -29.5 3
      vertex 0 -5.2 3
    endloop
  endfacet
  facet normal 0 0 1
    outer loop
      vertex -100 -29.5 3
      vertex -5.2 -10.2 3
      vertex -100 29.5 3
    endloop
  endfacet
  facet normal 0 0 1
    outer loop
      vertex -5.2 -10.2 3
      vertex -100 -29.5 3
      vertex 0 -29.5 3
    endloop
  endfacet
  facet normal 0 0 -1
    outer loop
      vertex 0 -29.5 0
      vertex -5.2 -10.2 0
      vertex 0 -5.2 0
    endloop
  endfacet
  facet normal -0 0 -1
    outer loop
      vertex -5.2 -10.2 0
      vertex -100 -29.5 0
      vertex -5.2 10.2 0
    endloop
  endfacet
  facet normal 0 0 -1
    outer loop
      vertex -100 -29.5 0
      vertex -5.2 -10.2 0
      vertex 0 -29.5 0
    endloop
  endfacet
  facet normal 0 0 -1
    outer loop
      vertex -5.2 10.2 0
      vertex 0 29.5 0
      vertex 0 5.2 0
    endloop
  endfacet
  facet normal 0 0 -1
    outer loop
      vertex -100 29.5 0
      vertex -5.2 10.2 0
      vertex -100 -29.5 0
    endloop
  endfacet
  facet normal 0 0 -1
    outer loop
      vertex -5.2 10.2 0
      vertex -100 29.5 0
      vertex 0 29.5 0
    endloop
  endfacet
  facet normal 0 -1 0
    outer loop
      vertex -100 -29.5 0
      vertex 0 -29.5 3
      vertex -100 -29.5 3
    endloop
  endfacet
  facet normal 0 -1 -0
    outer loop
      vertex 0 -29.5 3
      vertex -100 -29.5 0
      vertex 0 -29.5 0
    endloop
  endfacet
  facet normal 0 1 -0
    outer loop
      vertex 0 29.5 0
      vertex -100 29.5 3
      vertex 0 29.5 3
    endloop
  endfacet
  facet normal 0 1 0
    outer loop
      vertex -100 29.5 3
      vertex 0 29.5 0
      vertex -100 29.5 0
    endloop
  endfacet
  facet normal -0.693109 0.720833 0
    outer loop
      vertex 0 -5.2 0
      vertex -5.2 -10.2 3
      vertex 0 -5.2 3
    endloop
  endfacet
  facet normal -0.693109 0.720833 0
    outer loop
      vertex -5.2 -10.2 3
      vertex 0 -5.2 0
      vertex -5.2 -10.2 0
    endloop
  endfacet
  facet normal 1 -0 0
    outer loop
      vertex -5.2 -10.2 3
      vertex -5.2 10.2 0
      vertex -5.2 10.2 3
    endloop
  endfacet
  facet normal 1 0 0
    outer loop
      vertex -5.2 10.2 0
      vertex -5.2 -10.2 3
      vertex -5.2 -10.2 0
    endloop
  endfacet
  facet normal -0.693109 -0.720833 0
    outer loop
      vertex -5.2 10.2 0
      vertex 0 5.2 3
      vertex -5.2 10.2 3
    endloop
  endfacet
  facet normal -0.693109 -0.720833 -0
    outer loop
      vertex 0 5.2 3
      vertex -5.2 10.2 0
      vertex 0 5.2 0
    endloop
  endfacet
  facet normal 1 -0 0
    outer loop
      vertex 0 5.2 3
      vertex 0 29.5 0
      vertex 0 29.5 3
    endloop
  endfacet
  facet normal 1 0 0
    outer loop
      vertex 0 29.5 0
      vertex 0 5.2 3
      vertex 0 5.2 0
    endloop
  endfacet
  facet normal 1 -0 0
    outer loop
      vertex 0 -29.5 3
      vertex 0 -5.2 0
      vertex 0 -5.2 3
    endloop
  endfacet
  facet normal 1 0 0
    outer loop
      vertex 0 -5.2 0
      vertex 0 -29.5 3
      vertex 0 -29.5 0
    endloop
  endfacet
endsolid OpenSCAD_Model
