solid OpenSCAD_Model
  facet normal 1 0 0
    outer loop
      vertex -71.5 -31.19 83.6
      vertex -71.5 -31.2 1.8
      vertex -71.5 -31.19 1.8
    endloop
  endfacet
  facet normal 1 -0 0
    outer loop
      vertex -71.5 -32.39 83.6
      vertex -71.5 -31.2 1.8
      vertex -71.5 -31.19 83.6
    endloop
  endfacet
  facet normal 1 0 0
    outer loop
      vertex -71.5 -32.39 0
      vertex -71.5 -31.2 1.8
      vertex -71.5 -32.39 83.6
    endloop
  endfacet
  facet normal 1 0 0
    outer loop
      vertex -71.5 -31.2 1.8
      vertex -71.5 -32.39 0
      vertex -71.5 -31.2 0
    endloop
  endfacet
  facet normal -0 0 1
    outer loop
      vertex -81.5 -31.19 83.6
      vertex -71.5 -32.39 83.6
      vertex -71.5 -31.19 83.6
    endloop
  endfacet
  facet normal 0 0 1
    outer loop
      vertex -71.5 -32.39 83.6
      vertex -81.5 -31.19 83.6
      vertex -81.5 -32.39 83.6
    endloop
  endfacet
  facet normal -1 0 0
    outer loop
      vertex -81.5 -31.2 0
      vertex -81.5 -32.39 0
      vertex -81.5 -31.2 1.8
    endloop
  endfacet
  facet normal -1 0 0
    outer loop
      vertex -81.5 -31.2 1.8
      vertex -81.5 -31.19 83.6
      vertex -81.5 -31.19 1.8
    endloop
  endfacet
  facet normal -1 0 0
    outer loop
      vertex -81.5 -32.39 83.6
      vertex -81.5 -31.2 1.8
      vertex -81.5 -32.39 0
    endloop
  endfacet
  facet normal -1 0 0
    outer loop
      vertex -81.5 -31.2 1.8
      vertex -81.5 -32.39 83.6
      vertex -81.5 -31.19 83.6
    endloop
  endfacet
  facet normal 0 -1 0
    outer loop
      vertex -81.5 -32.39 0
      vertex -71.5 -32.39 83.6
      vertex -81.5 -32.39 83.6
    endloop
  endfacet
  facet normal 0 -1 -0
    outer loop
      vertex -71.5 -32.39 83.6
      vertex -81.5 -32.39 0
      vertex -71.5 -32.39 0
    endloop
  endfacet
  facet normal 0 0 -1
    outer loop
      vertex -71.5 -32.39 0
      vertex -81.5 -32.39 0
      vertex -71.5 -31.2 0
    endloop
  endfacet
  facet normal 0 0 -1
    outer loop
      vertex -20.75 -32.39 0
      vertex -30.75 -32.39 0
      vertex -20.75 -31.2 0
    endloop
  endfacet
  facet normal 0 0 -1
    outer loop
      vertex 0 -31.2 0
      vertex -3.29999 -6.29999 0
      vertex 0 -3.29999 0
    endloop
  endfacet
  facet normal -0 0 -1
    outer loop
      vertex -3.29999 -6.29999 0
      vertex -6.5 -26.2 0
      vertex -3.29999 6.29999 0
    endloop
  endfacet
  facet normal 0 0 -1
    outer loop
      vertex 0 -31.2 0
      vertex -6.5 -26.2 0
      vertex -3.29999 -6.29999 0
    endloop
  endfacet
  facet normal 0 0 -1
    outer loop
      vertex -20.75 -31.2 0
      vertex -6.5 -26.2 0
      vertex 0 -31.2 0
    endloop
  endfacet
  facet normal 0 0 -1
    outer loop
      vertex -30.75 -31.2 0
      vertex -20.75 -31.2 0
      vertex -30.75 -32.39 0
    endloop
  endfacet
  facet normal 0 0 -1
    outer loop
      vertex -20.75 -31.2 0
      vertex -30.75 -31.2 0
      vertex -6.5 -26.2 0
    endloop
  endfacet
  facet normal 0 0 -1
    outer loop
      vertex -71.5 -31.2 0
      vertex -6.5 -26.2 0
      vertex -30.75 -31.2 0
    endloop
  endfacet
  facet normal 0 0 -1
    outer loop
      vertex -81.5 -31.2 0
      vertex -71.5 -31.2 0
      vertex -81.5 -32.39 0
    endloop
  endfacet
  facet normal 0 0 -1
    outer loop
      vertex -95 -26.2 0
      vertex -71.5 -31.2 0
      vertex -81.5 -31.2 0
    endloop
  endfacet
  facet normal 0 0 -1
    outer loop
      vertex -71.5 -31.2 0
      vertex -95 -26.2 0
      vertex -6.5 -26.2 0
    endloop
  endfacet
  facet normal 0 0 -1
    outer loop
      vertex -101.5 -3.75 0
      vertex -95 -26.2 0
      vertex -101.5 -31.2 0
    endloop
  endfacet
  facet normal 0 0 -1
    outer loop
      vertex -101.5 -31.2 0
      vertex -95 -26.2 0
      vertex -81.5 -31.2 0
    endloop
  endfacet
  facet normal 0 0 -1
    outer loop
      vertex -3.29999 6.29999 0
      vertex 0 31.2 0
      vertex 0 3.29999 0
    endloop
  endfacet
  facet normal 0 0 -1
    outer loop
      vertex -6.5 26.2 0
      vertex -3.29999 6.29999 0
      vertex -6.5 -26.2 0
    endloop
  endfacet
  facet normal 0 0 -1
    outer loop
      vertex -6.5 26.2 0
      vertex 0 31.2 0
      vertex -3.29999 6.29999 0
    endloop
  endfacet
  facet normal 0 0 -1
    outer loop
      vertex -6.5 26.2 0
      vertex -20.75 31.2 0
      vertex 0 31.2 0
    endloop
  endfacet
  facet normal 0 0 -1
    outer loop
      vertex -20.75 31.2 0
      vertex -30.75 31.2 0
      vertex -20.75 32.39 0
    endloop
  endfacet
  facet normal 0 0 -1
    outer loop
      vertex -6.5 26.2 0
      vertex -30.75 31.2 0
      vertex -20.75 31.2 0
    endloop
  endfacet
  facet normal 0 0 -1
    outer loop
      vertex -6.5 26.2 0
      vertex -71.5 31.2 0
      vertex -30.75 31.2 0
    endloop
  endfacet
  facet normal 0 0 -1
    outer loop
      vertex -71.5 31.2 0
      vertex -81.5 31.2 0
      vertex -71.5 32.39 0
    endloop
  endfacet
  facet normal 0 0 -1
    outer loop
      vertex -95 26.2 0
      vertex -71.5 31.2 0
      vertex -6.5 26.2 0
    endloop
  endfacet
  facet normal -0 0 -1
    outer loop
      vertex -71.5 31.2 0
      vertex -95 26.2 0
      vertex -81.5 31.2 0
    endloop
  endfacet
  facet normal 0 0 -1
    outer loop
      vertex -95 -26.2 0
      vertex -101.5 -3.75 0
      vertex -95 26.2 0
    endloop
  endfacet
  facet normal 0 0 -1
    outer loop
      vertex -101.5 3.75 0
      vertex -95 26.2 0
      vertex -101.5 -3.75 0
    endloop
  endfacet
  facet normal 0 0 -1
    outer loop
      vertex -95 26.2 0
      vertex -101.5 31.2 0
      vertex -81.5 31.2 0
    endloop
  endfacet
  facet normal 0 0 -1
    outer loop
      vertex -101.5 31.2 0
      vertex -95 26.2 0
      vertex -101.5 3.75 0
    endloop
  endfacet
  facet normal -0 0 -1
    outer loop
      vertex -20.75 32.39 0
      vertex -30.75 31.2 0
      vertex -30.75 32.39 0
    endloop
  endfacet
  facet normal 0 0 -1
    outer loop
      vertex -102.69 -3.75 0
      vertex -101.5 3.75 0
      vertex -101.5 -3.75 0
    endloop
  endfacet
  facet normal -0 0 -1
    outer loop
      vertex -101.5 3.75 0
      vertex -102.69 -3.75 0
      vertex -102.69 3.75 0
    endloop
  endfacet
  facet normal -0 0 -1
    outer loop
      vertex -71.5 32.39 0
      vertex -81.5 31.2 0
      vertex -81.5 32.39 0
    endloop
  endfacet
  facet normal 0 1 -0
    outer loop
      vertex -71.5 -31.19 1.8
      vertex -81.5 -31.19 83.6
      vertex -71.5 -31.19 83.6
    endloop
  endfacet
  facet normal 0 1 0
    outer loop
      vertex -81.5 -31.19 83.6
      vertex -71.5 -31.19 1.8
      vertex -81.5 -31.19 1.8
    endloop
  endfacet
  facet normal 1 0 0
    outer loop
      vertex -20.75 -31.19 83.6
      vertex -20.75 -31.2 1.8
      vertex -20.75 -31.19 1.8
    endloop
  endfacet
  facet normal 1 -0 0
    outer loop
      vertex -20.75 -32.39 83.6
      vertex -20.75 -31.2 1.8
      vertex -20.75 -31.19 83.6
    endloop
  endfacet
  facet normal 1 0 0
    outer loop
      vertex -20.75 -32.39 0
      vertex -20.75 -31.2 1.8
      vertex -20.75 -32.39 83.6
    endloop
  endfacet
  facet normal 1 0 0
    outer loop
      vertex -20.75 -31.2 1.8
      vertex -20.75 -32.39 0
      vertex -20.75 -31.2 0
    endloop
  endfacet
  facet normal -0 0 1
    outer loop
      vertex -30.75 -31.19 83.6
      vertex -20.75 -32.39 83.6
      vertex -20.75 -31.19 83.6
    endloop
  endfacet
  facet normal 0 0 1
    outer loop
      vertex -20.75 -32.39 83.6
      vertex -30.75 -31.19 83.6
      vertex -30.75 -32.39 83.6
    endloop
  endfacet
  facet normal -1 0 0
    outer loop
      vertex -30.75 -31.2 0
      vertex -30.75 -32.39 0
      vertex -30.75 -31.2 1.8
    endloop
  endfacet
  facet normal -1 0 0
    outer loop
      vertex -30.75 -31.2 1.8
      vertex -30.75 -31.19 83.6
      vertex -30.75 -31.19 1.8
    endloop
  endfacet
  facet normal -1 0 0
    outer loop
      vertex -30.75 -32.39 83.6
      vertex -30.75 -31.2 1.8
      vertex -30.75 -32.39 0
    endloop
  endfacet
  facet normal -1 0 0
    outer loop
      vertex -30.75 -31.2 1.8
      vertex -30.75 -32.39 83.6
      vertex -30.75 -31.19 83.6
    endloop
  endfacet
  facet normal 0 1 -0
    outer loop
      vertex -20.75 -31.19 1.8
      vertex -30.75 -31.19 83.6
      vertex -20.75 -31.19 83.6
    endloop
  endfacet
  facet normal 0 1 0
    outer loop
      vertex -30.75 -31.19 83.6
      vertex -20.75 -31.19 1.8
      vertex -30.75 -31.19 1.8
    endloop
  endfacet
  facet normal 0 -1 0
    outer loop
      vertex -30.75 -32.39 0
      vertex -20.75 -32.39 83.6
      vertex -30.75 -32.39 83.6
    endloop
  endfacet
  facet normal 0 -1 -0
    outer loop
      vertex -20.75 -32.39 83.6
      vertex -30.75 -32.39 0
      vertex -20.75 -32.39 0
    endloop
  endfacet
  facet normal 1 -0 0
    outer loop
      vertex -101.49 -3.75 83.6
      vertex -101.49 3.75 1.8
      vertex -101.49 3.75 83.6
    endloop
  endfacet
  facet normal 1 0 0
    outer loop
      vertex -101.49 3.75 1.8
      vertex -101.49 -3.75 83.6
      vertex -101.49 -3.75 1.8
    endloop
  endfacet
  facet normal -0 0 1
    outer loop
      vertex -102.69 3.75 83.6
      vertex -101.49 -3.75 83.6
      vertex -101.49 3.75 83.6
    endloop
  endfacet
  facet normal 0 0 1
    outer loop
      vertex -101.49 -3.75 83.6
      vertex -102.69 3.75 83.6
      vertex -102.69 -3.75 83.6
    endloop
  endfacet
  facet normal -1 0 0
    outer loop
      vertex -102.69 -3.75 0
      vertex -102.69 3.75 83.6
      vertex -102.69 3.75 0
    endloop
  endfacet
  facet normal -1 -0 0
    outer loop
      vertex -102.69 3.75 83.6
      vertex -102.69 -3.75 0
      vertex -102.69 -3.75 83.6
    endloop
  endfacet
  facet normal 0 1 0
    outer loop
      vertex -101.5 3.75 1.8
      vertex -101.49 3.75 83.6
      vertex -101.49 3.75 1.8
    endloop
  endfacet
  facet normal 0 1 0
    outer loop
      vertex -101.49 3.75 83.6
      vertex -101.5 3.75 1.8
      vertex -102.69 3.75 83.6
    endloop
  endfacet
  facet normal 0 1 0
    outer loop
      vertex -102.69 3.75 0
      vertex -101.5 3.75 1.8
      vertex -101.5 3.75 0
    endloop
  endfacet
  facet normal 0 1 0
    outer loop
      vertex -101.5 3.75 1.8
      vertex -102.69 3.75 0
      vertex -102.69 3.75 83.6
    endloop
  endfacet
  facet normal 0 -1 0
    outer loop
      vertex -102.69 -3.75 83.6
      vertex -101.5 -3.75 1.8
      vertex -101.49 -3.75 83.6
    endloop
  endfacet
  facet normal 0 -1 0
    outer loop
      vertex -102.69 -3.75 0
      vertex -101.5 -3.75 1.8
      vertex -102.69 -3.75 83.6
    endloop
  endfacet
  facet normal 0 -1 -0
    outer loop
      vertex -101.5 -3.75 1.8
      vertex -102.69 -3.75 0
      vertex -101.5 -3.75 0
    endloop
  endfacet
  facet normal 0 -1 -0
    outer loop
      vertex -101.49 -3.75 83.6
      vertex -101.5 -3.75 1.8
      vertex -101.49 -3.75 1.8
    endloop
  endfacet
  facet normal 1 0 0
    outer loop
      vertex -71.5 32.39 83.6
      vertex -71.5 31.2 1.8
      vertex -71.5 32.39 0
    endloop
  endfacet
  facet normal 1 -0 0
    outer loop
      vertex -71.5 31.19 83.6
      vertex -71.5 31.2 1.8
      vertex -71.5 32.39 83.6
    endloop
  endfacet
  facet normal 1 0 0
    outer loop
      vertex -71.5 31.2 1.8
      vertex -71.5 31.19 83.6
      vertex -71.5 31.19 1.8
    endloop
  endfacet
  facet normal 1 0 0
    outer loop
      vertex -71.5 32.39 0
      vertex -71.5 31.2 1.8
      vertex -71.5 31.2 0
    endloop
  endfacet
  facet normal -0 0 1
    outer loop
      vertex -81.5 32.39 83.6
      vertex -71.5 31.19 83.6
      vertex -71.5 32.39 83.6
    endloop
  endfacet
  facet normal 0 0 1
    outer loop
      vertex -71.5 31.19 83.6
      vertex -81.5 32.39 83.6
      vertex -81.5 31.19 83.6
    endloop
  endfacet
  facet normal -1 0 0
    outer loop
      vertex -81.5 31.2 1.8
      vertex -81.5 32.39 0
      vertex -81.5 31.2 0
    endloop
  endfacet
  facet normal -1 0 0
    outer loop
      vertex -81.5 32.39 0
      vertex -81.5 31.2 1.8
      vertex -81.5 32.39 83.6
    endloop
  endfacet
  facet normal -1 0 0
    outer loop
      vertex -81.5 31.19 83.6
      vertex -81.5 31.2 1.8
      vertex -81.5 31.19 1.8
    endloop
  endfacet
  facet normal -1 0 0
    outer loop
      vertex -81.5 31.2 1.8
      vertex -81.5 31.19 83.6
      vertex -81.5 32.39 83.6
    endloop
  endfacet
  facet normal 0 1 -0
    outer loop
      vertex -71.5 32.39 0
      vertex -81.5 32.39 83.6
      vertex -71.5 32.39 83.6
    endloop
  endfacet
  facet normal 0 1 0
    outer loop
      vertex -81.5 32.39 83.6
      vertex -71.5 32.39 0
      vertex -81.5 32.39 0
    endloop
  endfacet
  facet normal 0 -1 0
    outer loop
      vertex -81.5 31.19 1.8
      vertex -71.5 31.19 83.6
      vertex -81.5 31.19 83.6
    endloop
  endfacet
  facet normal 0 -1 -0
    outer loop
      vertex -71.5 31.19 83.6
      vertex -81.5 31.19 1.8
      vertex -71.5 31.19 1.8
    endloop
  endfacet
  facet normal 1 0 0
    outer loop
      vertex -20.75 32.39 83.6
      vertex -20.75 31.2 1.8
      vertex -20.75 32.39 0
    endloop
  endfacet
  facet normal 1 -0 0
    outer loop
      vertex -20.75 31.19 83.6
      vertex -20.75 31.2 1.8
      vertex -20.75 32.39 83.6
    endloop
  endfacet
  facet normal 1 0 0
    outer loop
      vertex -20.75 31.2 1.8
      vertex -20.75 31.19 83.6
      vertex -20.75 31.19 1.8
    endloop
  endfacet
  facet normal 1 0 0
    outer loop
      vertex -20.75 32.39 0
      vertex -20.75 31.2 1.8
      vertex -20.75 31.2 0
    endloop
  endfacet
  facet normal -0 0 1
    outer loop
      vertex -30.75 32.39 83.6
      vertex -20.75 31.19 83.6
      vertex -20.75 32.39 83.6
    endloop
  endfacet
  facet normal 0 0 1
    outer loop
      vertex -20.75 31.19 83.6
      vertex -30.75 32.39 83.6
      vertex -30.75 31.19 83.6
    endloop
  endfacet
  facet normal -1 0 0
    outer loop
      vertex -30.75 31.2 1.8
      vertex -30.75 32.39 0
      vertex -30.75 31.2 0
    endloop
  endfacet
  facet normal -1 0 0
    outer loop
      vertex -30.75 32.39 0
      vertex -30.75 31.2 1.8
      vertex -30.75 32.39 83.6
    endloop
  endfacet
  facet normal -1 0 0
    outer loop
      vertex -30.75 31.19 83.6
      vertex -30.75 31.2 1.8
      vertex -30.75 31.19 1.8
    endloop
  endfacet
  facet normal -1 0 0
    outer loop
      vertex -30.75 31.2 1.8
      vertex -30.75 31.19 83.6
      vertex -30.75 32.39 83.6
    endloop
  endfacet
  facet normal 0 1 -0
    outer loop
      vertex -20.75 32.39 0
      vertex -30.75 32.39 83.6
      vertex -20.75 32.39 83.6
    endloop
  endfacet
  facet normal 0 1 0
    outer loop
      vertex -30.75 32.39 83.6
      vertex -20.75 32.39 0
      vertex -30.75 32.39 0
    endloop
  endfacet
  facet normal 0 -1 0
    outer loop
      vertex -30.75 31.19 1.8
      vertex -20.75 31.19 83.6
      vertex -30.75 31.19 83.6
    endloop
  endfacet
  facet normal 0 -1 -0
    outer loop
      vertex -20.75 31.19 83.6
      vertex -30.75 31.19 1.8
      vertex -20.75 31.19 1.8
    endloop
  endfacet
  facet normal -1 0 0
    outer loop
      vertex -101.5 -31.2 0
      vertex -101.5 -3.75 1.8
      vertex -101.5 -3.75 0
    endloop
  endfacet
  facet normal -1 -0 0
    outer loop
      vertex -101.5 -3.75 1.8
      vertex -101.5 -31.2 0
      vertex -101.5 -31.2 1.8
    endloop
  endfacet
  facet normal -1 0 0
    outer loop
      vertex -101.5 3.75 0
      vertex -101.5 31.2 1.8
      vertex -101.5 31.2 0
    endloop
  endfacet
  facet normal -1 -0 0
    outer loop
      vertex -101.5 31.2 1.8
      vertex -101.5 3.75 0
      vertex -101.5 3.75 1.8
    endloop
  endfacet
  facet normal 0 0 1
    outer loop
      vertex -30.75 31.2 1.8
      vertex -71.5 31.2 1.8
      vertex -30.75 31.19 1.8
    endloop
  endfacet
  facet normal 0 0 1
    outer loop
      vertex -6.5 -26.2 1.8
      vertex -30.75 -31.19 1.8
      vertex -20.75 -31.19 1.8
    endloop
  endfacet
  facet normal 0 0 1
    outer loop
      vertex -30.75 -31.19 1.8
      vertex -71.5 -31.19 1.8
      vertex -30.75 -31.2 1.8
    endloop
  endfacet
  facet normal 0 0 1
    outer loop
      vertex -6.5 -26.2 1.8
      vertex -71.5 -31.19 1.8
      vertex -30.75 -31.19 1.8
    endloop
  endfacet
  facet normal -0 0 1
    outer loop
      vertex -95 -26.2 1.8
      vertex -71.5 -31.19 1.8
      vertex -6.5 -26.2 1.8
    endloop
  endfacet
  facet normal 0 0 1
    outer loop
      vertex -71.5 -31.19 1.8
      vertex -95 -26.2 1.8
      vertex -81.5 -31.19 1.8
    endloop
  endfacet
  facet normal 0 0 1
    outer loop
      vertex -95 -26.2 1.8
      vertex -81.5 -31.2 1.8
      vertex -81.5 -31.19 1.8
    endloop
  endfacet
  facet normal -0 0 1
    outer loop
      vertex -101.49 -3.75 1.8
      vertex -95 -26.2 1.8
      vertex -101.49 3.75 1.8
    endloop
  endfacet
  facet normal -0 0 1
    outer loop
      vertex -101.5 -3.75 1.8
      vertex -95 -26.2 1.8
      vertex -101.49 -3.75 1.8
    endloop
  endfacet
  facet normal 0 0 1
    outer loop
      vertex -95 -26.2 1.8
      vertex -101.5 -31.2 1.8
      vertex -81.5 -31.2 1.8
    endloop
  endfacet
  facet normal 0 0 1
    outer loop
      vertex -101.5 -31.2 1.8
      vertex -95 -26.2 1.8
      vertex -101.5 -3.75 1.8
    endloop
  endfacet
  facet normal 0 0 1
    outer loop
      vertex 0 31.2 1.8
      vertex -3.29999 6.29999 1.8
      vertex 0 3.29999 1.8
    endloop
  endfacet
  facet normal 0 0 1
    outer loop
      vertex -3.29999 6.29999 1.8
      vertex -6.5 26.2 1.8
      vertex -3.29999 -6.29999 1.8
    endloop
  endfacet
  facet normal 0 0 1
    outer loop
      vertex 0 31.2 1.8
      vertex -6.5 26.2 1.8
      vertex -3.29999 6.29999 1.8
    endloop
  endfacet
  facet normal -0 0 1
    outer loop
      vertex -20.75 31.2 1.8
      vertex -6.5 26.2 1.8
      vertex 0 31.2 1.8
    endloop
  endfacet
  facet normal -0 0 1
    outer loop
      vertex -20.75 31.19 1.8
      vertex -6.5 26.2 1.8
      vertex -20.75 31.2 1.8
    endloop
  endfacet
  facet normal -0 0 1
    outer loop
      vertex -30.75 31.19 1.8
      vertex -6.5 26.2 1.8
      vertex -20.75 31.19 1.8
    endloop
  endfacet
  facet normal 0 0 1
    outer loop
      vertex -71.5 31.19 1.8
      vertex -30.75 31.19 1.8
      vertex -71.5 31.2 1.8
    endloop
  endfacet
  facet normal 0 0 1
    outer loop
      vertex -30.75 31.19 1.8
      vertex -71.5 31.19 1.8
      vertex -6.5 26.2 1.8
    endloop
  endfacet
  facet normal 0 0 1
    outer loop
      vertex -95 26.2 1.8
      vertex -71.5 31.19 1.8
      vertex -81.5 31.19 1.8
    endloop
  endfacet
  facet normal 0 0 1
    outer loop
      vertex -71.5 31.19 1.8
      vertex -95 26.2 1.8
      vertex -6.5 26.2 1.8
    endloop
  endfacet
  facet normal -0 0 1
    outer loop
      vertex -3.29999 -6.29999 1.8
      vertex 0 -31.2 1.8
      vertex 0 -3.29999 1.8
    endloop
  endfacet
  facet normal 0 0 1
    outer loop
      vertex -6.5 -26.2 1.8
      vertex -3.29999 -6.29999 1.8
      vertex -6.5 26.2 1.8
    endloop
  endfacet
  facet normal -0 0 1
    outer loop
      vertex -6.5 -26.2 1.8
      vertex 0 -31.2 1.8
      vertex -3.29999 -6.29999 1.8
    endloop
  endfacet
  facet normal 0 0 1
    outer loop
      vertex -20.75 -31.2 1.8
      vertex -6.5 -26.2 1.8
      vertex -20.75 -31.19 1.8
    endloop
  endfacet
  facet normal 0 0 1
    outer loop
      vertex -6.5 -26.2 1.8
      vertex -20.75 -31.2 1.8
      vertex 0 -31.2 1.8
    endloop
  endfacet
  facet normal 0 0 1
    outer loop
      vertex -81.5 31.2 1.8
      vertex -95 26.2 1.8
      vertex -81.5 31.19 1.8
    endloop
  endfacet
  facet normal 0 0 1
    outer loop
      vertex -95 26.2 1.8
      vertex -101.49 3.75 1.8
      vertex -95 -26.2 1.8
    endloop
  endfacet
  facet normal -0 0 1
    outer loop
      vertex -101.5 31.2 1.8
      vertex -95 26.2 1.8
      vertex -81.5 31.2 1.8
    endloop
  endfacet
  facet normal 0 0 1
    outer loop
      vertex -101.5 3.75 1.8
      vertex -95 26.2 1.8
      vertex -101.5 31.2 1.8
    endloop
  endfacet
  facet normal 0 0 1
    outer loop
      vertex -95 26.2 1.8
      vertex -101.5 3.75 1.8
      vertex -101.49 3.75 1.8
    endloop
  endfacet
  facet normal 0 0 1
    outer loop
      vertex -30.75 -31.2 1.8
      vertex -71.5 -31.19 1.8
      vertex -71.5 -31.2 1.8
    endloop
  endfacet
  facet normal 0 -1 0
    outer loop
      vertex -101.5 -31.2 0
      vertex -81.5 -31.2 1.8
      vertex -101.5 -31.2 1.8
    endloop
  endfacet
  facet normal 0 -1 -0
    outer loop
      vertex -81.5 -31.2 1.8
      vertex -101.5 -31.2 0
      vertex -81.5 -31.2 0
    endloop
  endfacet
  facet normal 0 -1 0
    outer loop
      vertex -71.5 -31.2 0
      vertex -30.75 -31.2 1.8
      vertex -71.5 -31.2 1.8
    endloop
  endfacet
  facet normal 0 -1 -0
    outer loop
      vertex -30.75 -31.2 1.8
      vertex -71.5 -31.2 0
      vertex -30.75 -31.2 0
    endloop
  endfacet
  facet normal 0 -1 0
    outer loop
      vertex -20.75 -31.2 0
      vertex 0 -31.2 1.8
      vertex -20.75 -31.2 1.8
    endloop
  endfacet
  facet normal 0 -1 -0
    outer loop
      vertex 0 -31.2 1.8
      vertex -20.75 -31.2 0
      vertex 0 -31.2 0
    endloop
  endfacet
  facet normal 0 1 -0
    outer loop
      vertex -81.5 31.2 0
      vertex -101.5 31.2 1.8
      vertex -81.5 31.2 1.8
    endloop
  endfacet
  facet normal 0 1 0
    outer loop
      vertex -101.5 31.2 1.8
      vertex -81.5 31.2 0
      vertex -101.5 31.2 0
    endloop
  endfacet
  facet normal 0 1 -0
    outer loop
      vertex -30.75 31.2 0
      vertex -71.5 31.2 1.8
      vertex -30.75 31.2 1.8
    endloop
  endfacet
  facet normal 0 1 0
    outer loop
      vertex -71.5 31.2 1.8
      vertex -30.75 31.2 0
      vertex -71.5 31.2 0
    endloop
  endfacet
  facet normal 0 1 -0
    outer loop
      vertex 0 31.2 0
      vertex -20.75 31.2 1.8
      vertex 0 31.2 1.8
    endloop
  endfacet
  facet normal 0 1 0
    outer loop
      vertex -20.75 31.2 1.8
      vertex 0 31.2 0
      vertex -20.75 31.2 0
    endloop
  endfacet
  facet normal -0.672674 0.739939 0
    outer loop
      vertex 0 -3.29999 0
      vertex -3.29999 -6.29999 1.8
      vertex 0 -3.29999 1.8
    endloop
  endfacet
  facet normal -0.672674 0.739939 0
    outer loop
      vertex -3.29999 -6.29999 1.8
      vertex 0 -3.29999 0
      vertex -3.29999 -6.29999 0
    endloop
  endfacet
  facet normal 1 -0 0
    outer loop
      vertex -3.29999 -6.29999 1.8
      vertex -3.29999 6.29999 0
      vertex -3.29999 6.29999 1.8
    endloop
  endfacet
  facet normal 1 0 0
    outer loop
      vertex -3.29999 6.29999 0
      vertex -3.29999 -6.29999 1.8
      vertex -3.29999 -6.29999 0
    endloop
  endfacet
  facet normal -0.672674 -0.739939 0
    outer loop
      vertex -3.29999 6.29999 0
      vertex 0 3.29999 1.8
      vertex -3.29999 6.29999 1.8
    endloop
  endfacet
  facet normal -0.672674 -0.739939 -0
    outer loop
      vertex 0 3.29999 1.8
      vertex -3.29999 6.29999 0
      vertex 0 3.29999 0
    endloop
  endfacet
  facet normal 1 -0 0
    outer loop
      vertex 0 3.29999 1.8
      vertex 0 31.2 0
      vertex 0 31.2 1.8
    endloop
  endfacet
  facet normal 1 0 0
    outer loop
      vertex 0 31.2 0
      vertex 0 3.29999 1.8
      vertex 0 3.29999 0
    endloop
  endfacet
  facet normal 1 -0 0
    outer loop
      vertex 0 -31.2 1.8
      vertex 0 -3.29999 0
      vertex 0 -3.29999 1.8
    endloop
  endfacet
  facet normal 1 0 0
    outer loop
      vertex 0 -3.29999 0
      vertex 0 -31.2 1.8
      vertex 0 -31.2 0
    endloop
  endfacet
  facet normal 1 -0 0
    outer loop
      vertex -95 -26.2 1.8
      vertex -95 26.2 0
      vertex -95 26.2 1.8
    endloop
  endfacet
  facet normal 1 0 0
    outer loop
      vertex -95 26.2 0
      vertex -95 -26.2 1.8
      vertex -95 -26.2 0
    endloop
  endfacet
  facet normal -1 0 0
    outer loop
      vertex -6.5 -26.2 0
      vertex -6.5 26.2 1.8
      vertex -6.5 26.2 0
    endloop
  endfacet
  facet normal -1 -0 0
    outer loop
      vertex -6.5 26.2 1.8
      vertex -6.5 -26.2 0
      vertex -6.5 -26.2 1.8
    endloop
  endfacet
  facet normal 0 1 -0
    outer loop
      vertex -6.5 -26.2 0
      vertex -95 -26.2 1.8
      vertex -6.5 -26.2 1.8
    endloop
  endfacet
  facet normal 0 1 0
    outer loop
      vertex -95 -26.2 1.8
      vertex -6.5 -26.2 0
      vertex -95 -26.2 0
    endloop
  endfacet
  facet normal 0 -1 0
    outer loop
      vertex -95 26.2 0
      vertex -6.5 26.2 1.8
      vertex -95 26.2 1.8
    endloop
  endfacet
  facet normal 0 -1 -0
    outer loop
      vertex -6.5 26.2 1.8
      vertex -95 26.2 0
      vertex -6.5 26.2 0
    endloop
  endfacet
endsolid OpenSCAD_Model
