solid OpenSCAD_Model
  facet normal 1 -0 0
    outer loop
      vertex -77.49 -5 82.4
      vertex -77.49 5 1.2
      vertex -77.49 5 82.4
    endloop
  endfacet
  facet normal 1 0 0
    outer loop
      vertex -77.49 5 1.2
      vertex -77.49 -5 82.4
      vertex -77.49 -5 1.2
    endloop
  endfacet
  facet normal -0 0 1
    outer loop
      vertex -79.29 5 82.4
      vertex -77.49 -5 82.4
      vertex -77.49 5 82.4
    endloop
  endfacet
  facet normal 0 0 1
    outer loop
      vertex -77.49 -5 82.4
      vertex -79.29 5 82.4
      vertex -79.29 -5 82.4
    endloop
  endfacet
  facet normal -1 0 0
    outer loop
      vertex -79.29 -5 0
      vertex -79.29 5 82.4
      vertex -79.29 5 0
    endloop
  endfacet
  facet normal -1 -0 0
    outer loop
      vertex -79.29 5 82.4
      vertex -79.29 -5 0
      vertex -79.29 -5 82.4
    endloop
  endfacet
  facet normal 0 1 0
    outer loop
      vertex -77.5 5 1.2
      vertex -77.49 5 82.4
      vertex -77.49 5 1.2
    endloop
  endfacet
  facet normal 0 1 0
    outer loop
      vertex -77.49 5 82.4
      vertex -77.5 5 1.2
      vertex -79.29 5 82.4
    endloop
  endfacet
  facet normal 0 1 0
    outer loop
      vertex -79.29 5 0
      vertex -77.5 5 1.2
      vertex -77.5 5 0
    endloop
  endfacet
  facet normal 0 1 0
    outer loop
      vertex -77.5 5 1.2
      vertex -79.29 5 0
      vertex -79.29 5 82.4
    endloop
  endfacet
  facet normal 0 0 -1
    outer loop
      vertex -79.29 -5 0
      vertex -77.5 5 0
      vertex -77.5 -5 0
    endloop
  endfacet
  facet normal -0 0 -1
    outer loop
      vertex -77.5 5 0
      vertex -79.29 -5 0
      vertex -79.29 5 0
    endloop
  endfacet
  facet normal 0 0 -1
    outer loop
      vertex -77.5 -5 0
      vertex -57.5 -18 0
      vertex -77.5 -18 0
    endloop
  endfacet
  facet normal 0 0 -1
    outer loop
      vertex -57.5 -18 0
      vertex -77.5 -5 0
      vertex -57.5 18 0
    endloop
  endfacet
  facet normal 0 0 -1
    outer loop
      vertex -77.5 5 0
      vertex -57.5 18 0
      vertex -77.5 -5 0
    endloop
  endfacet
  facet normal -0 0 -1
    outer loop
      vertex -57.5 18 0
      vertex -77.5 5 0
      vertex -77.5 18 0
    endloop
  endfacet
  facet normal 0 0 -1
    outer loop
      vertex -57.5 -18 0
      vertex -37.5 -18 0
      vertex -37.5 -19.79 0
    endloop
  endfacet
  facet normal 0 0 -1
    outer loop
      vertex -37.5 -18 0
      vertex -57.5 -18 0
      vertex -37.5 18 0
    endloop
  endfacet
  facet normal 0 0 -1
    outer loop
      vertex -57.5 -18 0
      vertex -37.5 -19.79 0
      vertex -57.5 -19.79 0
    endloop
  endfacet
  facet normal 0 0 -1
    outer loop
      vertex -57.5 18 0
      vertex -37.5 18 0
      vertex -57.5 -18 0
    endloop
  endfacet
  facet normal 0 0 -1
    outer loop
      vertex -37.5 18 0
      vertex -57.5 18 0
      vertex -37.5 19.79 0
    endloop
  endfacet
  facet normal -0 0 -1
    outer loop
      vertex -37.5 19.79 0
      vertex -57.5 18 0
      vertex -57.5 19.79 0
    endloop
  endfacet
  facet normal 0 0 -1
    outer loop
      vertex -37.5 -18 0
      vertex 37.5 18 0
      vertex 37.5 -18 0
    endloop
  endfacet
  facet normal -0 0 -1
    outer loop
      vertex 37.5 18 0
      vertex -37.5 -18 0
      vertex -37.5 18 0
    endloop
  endfacet
  facet normal 0 0 -1
    outer loop
      vertex 37.5 -18 0
      vertex 57.5 -18 0
      vertex 57.5 -19.79 0
    endloop
  endfacet
  facet normal 0 0 -1
    outer loop
      vertex 57.5 -18 0
      vertex 37.5 -18 0
      vertex 57.5 18 0
    endloop
  endfacet
  facet normal 0 0 -1
    outer loop
      vertex 37.5 -18 0
      vertex 57.5 -19.79 0
      vertex 37.5 -19.79 0
    endloop
  endfacet
  facet normal 0 0 -1
    outer loop
      vertex 37.5 18 0
      vertex 57.5 18 0
      vertex 37.5 -18 0
    endloop
  endfacet
  facet normal 0 0 -1
    outer loop
      vertex 57.5 18 0
      vertex 37.5 18 0
      vertex 57.5 19.79 0
    endloop
  endfacet
  facet normal -0 0 -1
    outer loop
      vertex 57.5 19.79 0
      vertex 37.5 18 0
      vertex 37.5 19.79 0
    endloop
  endfacet
  facet normal 0 0 -1
    outer loop
      vertex 57.5 -18 0
      vertex 77.5 -5 0
      vertex 77.5 -18 0
    endloop
  endfacet
  facet normal -0 0 -1
    outer loop
      vertex 77.5 -5 0
      vertex 57.5 -18 0
      vertex 77.5 5 0
    endloop
  endfacet
  facet normal 0 0 -1
    outer loop
      vertex 57.5 18 0
      vertex 77.5 5 0
      vertex 57.5 -18 0
    endloop
  endfacet
  facet normal 0 0 -1
    outer loop
      vertex 77.5 5 0
      vertex 57.5 18 0
      vertex 77.5 18 0
    endloop
  endfacet
  facet normal 0 0 -1
    outer loop
      vertex 77.5 -5 0
      vertex 79.29 5 0
      vertex 79.29 -5 0
    endloop
  endfacet
  facet normal -0 0 -1
    outer loop
      vertex 79.29 5 0
      vertex 77.5 -5 0
      vertex 77.5 5 0
    endloop
  endfacet
  facet normal 0 -1 0
    outer loop
      vertex -79.29 -5 82.4
      vertex -77.5 -5 1.2
      vertex -77.49 -5 82.4
    endloop
  endfacet
  facet normal 0 -1 0
    outer loop
      vertex -79.29 -5 0
      vertex -77.5 -5 1.2
      vertex -79.29 -5 82.4
    endloop
  endfacet
  facet normal 0 -1 -0
    outer loop
      vertex -77.5 -5 1.2
      vertex -79.29 -5 0
      vertex -77.5 -5 0
    endloop
  endfacet
  facet normal 0 -1 -0
    outer loop
      vertex -77.49 -5 82.4
      vertex -77.5 -5 1.2
      vertex -77.49 -5 1.2
    endloop
  endfacet
  facet normal 1 0 0
    outer loop
      vertex -37.5 19.79 82.4
      vertex -37.5 18 1.2
      vertex -37.5 19.79 0
    endloop
  endfacet
  facet normal 1 -0 0
    outer loop
      vertex -37.5 17.99 82.4
      vertex -37.5 18 1.2
      vertex -37.5 19.79 82.4
    endloop
  endfacet
  facet normal 1 0 0
    outer loop
      vertex -37.5 18 1.2
      vertex -37.5 17.99 82.4
      vertex -37.5 17.99 1.2
    endloop
  endfacet
  facet normal 1 0 0
    outer loop
      vertex -37.5 19.79 0
      vertex -37.5 18 1.2
      vertex -37.5 18 0
    endloop
  endfacet
  facet normal -0 0 1
    outer loop
      vertex -57.5 19.79 82.4
      vertex -37.5 17.99 82.4
      vertex -37.5 19.79 82.4
    endloop
  endfacet
  facet normal 0 0 1
    outer loop
      vertex -37.5 17.99 82.4
      vertex -57.5 19.79 82.4
      vertex -57.5 17.99 82.4
    endloop
  endfacet
  facet normal -1 0 0
    outer loop
      vertex -57.5 18 1.2
      vertex -57.5 19.79 0
      vertex -57.5 18 0
    endloop
  endfacet
  facet normal -1 0 0
    outer loop
      vertex -57.5 19.79 0
      vertex -57.5 18 1.2
      vertex -57.5 19.79 82.4
    endloop
  endfacet
  facet normal -1 0 0
    outer loop
      vertex -57.5 17.99 82.4
      vertex -57.5 18 1.2
      vertex -57.5 17.99 1.2
    endloop
  endfacet
  facet normal -1 0 0
    outer loop
      vertex -57.5 18 1.2
      vertex -57.5 17.99 82.4
      vertex -57.5 19.79 82.4
    endloop
  endfacet
  facet normal 0 -1 0
    outer loop
      vertex -57.5 17.99 1.2
      vertex -37.5 17.99 82.4
      vertex -57.5 17.99 82.4
    endloop
  endfacet
  facet normal 0 -1 -0
    outer loop
      vertex -37.5 17.99 82.4
      vertex -57.5 17.99 1.2
      vertex -37.5 17.99 1.2
    endloop
  endfacet
  facet normal 0 1 -0
    outer loop
      vertex -37.5 19.79 0
      vertex -57.5 19.79 82.4
      vertex -37.5 19.79 82.4
    endloop
  endfacet
  facet normal 0 1 0
    outer loop
      vertex -57.5 19.79 82.4
      vertex -37.5 19.79 0
      vertex -57.5 19.79 0
    endloop
  endfacet
  facet normal -0 0 1
    outer loop
      vertex 37.5 -17.99 82.4
      vertex 57.5 -19.79 82.4
      vertex 57.5 -17.99 82.4
    endloop
  endfacet
  facet normal 0 0 1
    outer loop
      vertex 57.5 -19.79 82.4
      vertex 37.5 -17.99 82.4
      vertex 37.5 -19.79 82.4
    endloop
  endfacet
  facet normal 1 0 0
    outer loop
      vertex 57.5 -17.99 82.4
      vertex 57.5 -18 1.2
      vertex 57.5 -17.99 1.2
    endloop
  endfacet
  facet normal 1 -0 0
    outer loop
      vertex 57.5 -19.79 82.4
      vertex 57.5 -18 1.2
      vertex 57.5 -17.99 82.4
    endloop
  endfacet
  facet normal 1 0 0
    outer loop
      vertex 57.5 -19.79 0
      vertex 57.5 -18 1.2
      vertex 57.5 -19.79 82.4
    endloop
  endfacet
  facet normal 1 0 0
    outer loop
      vertex 57.5 -18 1.2
      vertex 57.5 -19.79 0
      vertex 57.5 -18 0
    endloop
  endfacet
  facet normal 0 1 -0
    outer loop
      vertex 57.5 -17.99 1.2
      vertex 37.5 -17.99 82.4
      vertex 57.5 -17.99 82.4
    endloop
  endfacet
  facet normal 0 1 0
    outer loop
      vertex 37.5 -17.99 82.4
      vertex 57.5 -17.99 1.2
      vertex 37.5 -17.99 1.2
    endloop
  endfacet
  facet normal -1 0 0
    outer loop
      vertex 37.5 -18 0
      vertex 37.5 -19.79 0
      vertex 37.5 -18 1.2
    endloop
  endfacet
  facet normal -1 0 0
    outer loop
      vertex 37.5 -18 1.2
      vertex 37.5 -17.99 82.4
      vertex 37.5 -17.99 1.2
    endloop
  endfacet
  facet normal -1 0 0
    outer loop
      vertex 37.5 -19.79 82.4
      vertex 37.5 -18 1.2
      vertex 37.5 -19.79 0
    endloop
  endfacet
  facet normal -1 0 0
    outer loop
      vertex 37.5 -18 1.2
      vertex 37.5 -19.79 82.4
      vertex 37.5 -17.99 82.4
    endloop
  endfacet
  facet normal 0 -1 0
    outer loop
      vertex 37.5 -19.79 0
      vertex 57.5 -19.79 82.4
      vertex 37.5 -19.79 82.4
    endloop
  endfacet
  facet normal 0 -1 -0
    outer loop
      vertex 57.5 -19.79 82.4
      vertex 37.5 -19.79 0
      vertex 57.5 -19.79 0
    endloop
  endfacet
  facet normal -1 0 0
    outer loop
      vertex 77.49 -5 1.2
      vertex 77.49 5 82.4
      vertex 77.49 5 1.2
    endloop
  endfacet
  facet normal -1 -0 0
    outer loop
      vertex 77.49 5 82.4
      vertex 77.49 -5 1.2
      vertex 77.49 -5 82.4
    endloop
  endfacet
  facet normal -0 0 1
    outer loop
      vertex 77.49 5 82.4
      vertex 79.29 -5 82.4
      vertex 79.29 5 82.4
    endloop
  endfacet
  facet normal 0 0 1
    outer loop
      vertex 79.29 -5 82.4
      vertex 77.49 5 82.4
      vertex 77.49 -5 82.4
    endloop
  endfacet
  facet normal 1 -0 0
    outer loop
      vertex 79.29 -5 82.4
      vertex 79.29 5 0
      vertex 79.29 5 82.4
    endloop
  endfacet
  facet normal 1 0 0
    outer loop
      vertex 79.29 5 0
      vertex 79.29 -5 82.4
      vertex 79.29 -5 0
    endloop
  endfacet
  facet normal 0 -1 0
    outer loop
      vertex 77.5 -5 1.2
      vertex 77.49 -5 82.4
      vertex 77.49 -5 1.2
    endloop
  endfacet
  facet normal 0 -1 0
    outer loop
      vertex 77.49 -5 82.4
      vertex 77.5 -5 1.2
      vertex 79.29 -5 82.4
    endloop
  endfacet
  facet normal 0 -1 0
    outer loop
      vertex 79.29 -5 0
      vertex 77.5 -5 1.2
      vertex 77.5 -5 0
    endloop
  endfacet
  facet normal 0 -1 0
    outer loop
      vertex 77.5 -5 1.2
      vertex 79.29 -5 0
      vertex 79.29 -5 82.4
    endloop
  endfacet
  facet normal 0 1 0
    outer loop
      vertex 79.29 5 82.4
      vertex 77.5 5 1.2
      vertex 77.49 5 82.4
    endloop
  endfacet
  facet normal 0 1 -0
    outer loop
      vertex 79.29 5 0
      vertex 77.5 5 1.2
      vertex 79.29 5 82.4
    endloop
  endfacet
  facet normal 0 1 0
    outer loop
      vertex 77.5 5 1.2
      vertex 79.29 5 0
      vertex 77.5 5 0
    endloop
  endfacet
  facet normal 0 1 0
    outer loop
      vertex 77.49 5 82.4
      vertex 77.5 5 1.2
      vertex 77.49 5 1.2
    endloop
  endfacet
  facet normal -1 0 0
    outer loop
      vertex 37.5 18 1.2
      vertex 37.5 19.79 0
      vertex 37.5 18 0
    endloop
  endfacet
  facet normal -1 0 0
    outer loop
      vertex 37.5 19.79 0
      vertex 37.5 18 1.2
      vertex 37.5 19.79 82.4
    endloop
  endfacet
  facet normal -1 0 0
    outer loop
      vertex 37.5 17.99 82.4
      vertex 37.5 18 1.2
      vertex 37.5 17.99 1.2
    endloop
  endfacet
  facet normal -1 0 0
    outer loop
      vertex 37.5 18 1.2
      vertex 37.5 17.99 82.4
      vertex 37.5 19.79 82.4
    endloop
  endfacet
  facet normal -0 0 1
    outer loop
      vertex 37.5 19.79 82.4
      vertex 57.5 17.99 82.4
      vertex 57.5 19.79 82.4
    endloop
  endfacet
  facet normal 0 0 1
    outer loop
      vertex 57.5 17.99 82.4
      vertex 37.5 19.79 82.4
      vertex 37.5 17.99 82.4
    endloop
  endfacet
  facet normal 1 0 0
    outer loop
      vertex 57.5 19.79 82.4
      vertex 57.5 18 1.2
      vertex 57.5 19.79 0
    endloop
  endfacet
  facet normal 1 -0 0
    outer loop
      vertex 57.5 17.99 82.4
      vertex 57.5 18 1.2
      vertex 57.5 19.79 82.4
    endloop
  endfacet
  facet normal 1 0 0
    outer loop
      vertex 57.5 18 1.2
      vertex 57.5 17.99 82.4
      vertex 57.5 17.99 1.2
    endloop
  endfacet
  facet normal 1 0 0
    outer loop
      vertex 57.5 19.79 0
      vertex 57.5 18 1.2
      vertex 57.5 18 0
    endloop
  endfacet
  facet normal 0 -1 0
    outer loop
      vertex 37.5 17.99 1.2
      vertex 57.5 17.99 82.4
      vertex 37.5 17.99 82.4
    endloop
  endfacet
  facet normal 0 -1 -0
    outer loop
      vertex 57.5 17.99 82.4
      vertex 37.5 17.99 1.2
      vertex 57.5 17.99 1.2
    endloop
  endfacet
  facet normal 0 1 -0
    outer loop
      vertex 57.5 19.79 0
      vertex 37.5 19.79 82.4
      vertex 57.5 19.79 82.4
    endloop
  endfacet
  facet normal 0 1 0
    outer loop
      vertex 37.5 19.79 82.4
      vertex 57.5 19.79 0
      vertex 37.5 19.79 0
    endloop
  endfacet
  facet normal -0 0 1
    outer loop
      vertex -57.5 -17.99 82.4
      vertex -37.5 -19.79 82.4
      vertex -37.5 -17.99 82.4
    endloop
  endfacet
  facet normal 0 0 1
    outer loop
      vertex -37.5 -19.79 82.4
      vertex -57.5 -17.99 82.4
      vertex -57.5 -19.79 82.4
    endloop
  endfacet
  facet normal -1 0 0
    outer loop
      vertex -57.5 -18 0
      vertex -57.5 -19.79 0
      vertex -57.5 -18 1.2
    endloop
  endfacet
  facet normal -1 0 0
    outer loop
      vertex -57.5 -18 1.2
      vertex -57.5 -17.99 82.4
      vertex -57.5 -17.99 1.2
    endloop
  endfacet
  facet normal -1 0 0
    outer loop
      vertex -57.5 -19.79 82.4
      vertex -57.5 -18 1.2
      vertex -57.5 -19.79 0
    endloop
  endfacet
  facet normal -1 0 0
    outer loop
      vertex -57.5 -18 1.2
      vertex -57.5 -19.79 82.4
      vertex -57.5 -17.99 82.4
    endloop
  endfacet
  facet normal 1 0 0
    outer loop
      vertex -37.5 -17.99 82.4
      vertex -37.5 -18 1.2
      vertex -37.5 -17.99 1.2
    endloop
  endfacet
  facet normal 1 -0 0
    outer loop
      vertex -37.5 -19.79 82.4
      vertex -37.5 -18 1.2
      vertex -37.5 -17.99 82.4
    endloop
  endfacet
  facet normal 1 0 0
    outer loop
      vertex -37.5 -19.79 0
      vertex -37.5 -18 1.2
      vertex -37.5 -19.79 82.4
    endloop
  endfacet
  facet normal 1 0 0
    outer loop
      vertex -37.5 -18 1.2
      vertex -37.5 -19.79 0
      vertex -37.5 -18 0
    endloop
  endfacet
  facet normal 0 1 -0
    outer loop
      vertex -37.5 -17.99 1.2
      vertex -57.5 -17.99 82.4
      vertex -37.5 -17.99 82.4
    endloop
  endfacet
  facet normal 0 1 0
    outer loop
      vertex -57.5 -17.99 82.4
      vertex -37.5 -17.99 1.2
      vertex -57.5 -17.99 1.2
    endloop
  endfacet
  facet normal 0 -1 0
    outer loop
      vertex -57.5 -19.79 0
      vertex -37.5 -19.79 82.4
      vertex -57.5 -19.79 82.4
    endloop
  endfacet
  facet normal 0 -1 -0
    outer loop
      vertex -37.5 -19.79 82.4
      vertex -57.5 -19.79 0
      vertex -37.5 -19.79 0
    endloop
  endfacet
  facet normal -1 0 0
    outer loop
      vertex -77.5 -18 0
      vertex -77.5 -5 1.2
      vertex -77.5 -5 0
    endloop
  endfacet
  facet normal -1 -0 0
    outer loop
      vertex -77.5 -5 1.2
      vertex -77.5 -18 0
      vertex -77.5 -18 1.2
    endloop
  endfacet
  facet normal -1 0 0
    outer loop
      vertex -77.5 5 0
      vertex -77.5 18 1.2
      vertex -77.5 18 0
    endloop
  endfacet
  facet normal -1 -0 0
    outer loop
      vertex -77.5 18 1.2
      vertex -77.5 5 0
      vertex -77.5 5 1.2
    endloop
  endfacet
  facet normal 0 0 1
    outer loop
      vertex 77.5 18 1.2
      vertex 77.49 5 1.2
      vertex 77.5 5 1.2
    endloop
  endfacet
  facet normal 0 0 1
    outer loop
      vertex 77.5 18 1.2
      vertex 57.5 17.99 1.2
      vertex 77.49 5 1.2
    endloop
  endfacet
  facet normal 0 0 1
    outer loop
      vertex 57.5 17.99 1.2
      vertex 77.5 18 1.2
      vertex 57.5 18 1.2
    endloop
  endfacet
  facet normal -0 0 1
    outer loop
      vertex 77.49 -5 1.2
      vertex 77.5 -18 1.2
      vertex 77.5 -5 1.2
    endloop
  endfacet
  facet normal 0 0 1
    outer loop
      vertex 77.49 5 1.2
      vertex 57.5 17.99 1.2
      vertex 77.49 -5 1.2
    endloop
  endfacet
  facet normal 0 0 1
    outer loop
      vertex 57.5 -17.99 1.2
      vertex 77.49 -5 1.2
      vertex 57.5 17.99 1.2
    endloop
  endfacet
  facet normal 0 0 1
    outer loop
      vertex 77.49 -5 1.2
      vertex 57.5 -17.99 1.2
      vertex 77.5 -18 1.2
    endloop
  endfacet
  facet normal 0 0 1
    outer loop
      vertex 77.5 -18 1.2
      vertex 57.5 -17.99 1.2
      vertex 57.5 -18 1.2
    endloop
  endfacet
  facet normal -0 0 1
    outer loop
      vertex -77.5 18 1.2
      vertex -57.5 17.99 1.2
      vertex -57.5 18 1.2
    endloop
  endfacet
  facet normal 0 0 1
    outer loop
      vertex -57.5 17.99 1.2
      vertex -77.49 5 1.2
      vertex -57.5 -17.99 1.2
    endloop
  endfacet
  facet normal -0 0 1
    outer loop
      vertex -77.49 -5 1.2
      vertex -57.5 -17.99 1.2
      vertex -77.49 5 1.2
    endloop
  endfacet
  facet normal 0 0 1
    outer loop
      vertex -57.5 17.99 1.2
      vertex -77.5 18 1.2
      vertex -77.49 5 1.2
    endloop
  endfacet
  facet normal 0 0 1
    outer loop
      vertex -77.49 5 1.2
      vertex -77.5 18 1.2
      vertex -77.5 5 1.2
    endloop
  endfacet
  facet normal -0 0 1
    outer loop
      vertex -57.5 17.99 1.2
      vertex -37.5 -17.99 1.2
      vertex -37.5 17.99 1.2
    endloop
  endfacet
  facet normal 0 0 1
    outer loop
      vertex -37.5 -17.99 1.2
      vertex -57.5 17.99 1.2
      vertex -57.5 -17.99 1.2
    endloop
  endfacet
  facet normal 0 0 1
    outer loop
      vertex -37.5 17.99 1.2
      vertex 37.5 17.99 1.2
      vertex 37.5 18 1.2
    endloop
  endfacet
  facet normal 0 0 1
    outer loop
      vertex 37.5 17.99 1.2
      vertex -37.5 17.99 1.2
      vertex 37.5 -17.99 1.2
    endloop
  endfacet
  facet normal 0 0 1
    outer loop
      vertex -37.5 17.99 1.2
      vertex 37.5 18 1.2
      vertex -37.5 18 1.2
    endloop
  endfacet
  facet normal 0 0 1
    outer loop
      vertex -37.5 -17.99 1.2
      vertex 37.5 -17.99 1.2
      vertex -37.5 17.99 1.2
    endloop
  endfacet
  facet normal 0 0 1
    outer loop
      vertex 37.5 -17.99 1.2
      vertex -37.5 -17.99 1.2
      vertex 37.5 -18 1.2
    endloop
  endfacet
  facet normal 0 0 1
    outer loop
      vertex 37.5 -18 1.2
      vertex -37.5 -17.99 1.2
      vertex -37.5 -18 1.2
    endloop
  endfacet
  facet normal -0 0 1
    outer loop
      vertex 37.5 17.99 1.2
      vertex 57.5 -17.99 1.2
      vertex 57.5 17.99 1.2
    endloop
  endfacet
  facet normal 0 0 1
    outer loop
      vertex 57.5 -17.99 1.2
      vertex 37.5 17.99 1.2
      vertex 37.5 -17.99 1.2
    endloop
  endfacet
  facet normal 0 0 1
    outer loop
      vertex -77.5 -18 1.2
      vertex -57.5 -17.99 1.2
      vertex -77.49 -5 1.2
    endloop
  endfacet
  facet normal 0 0 1
    outer loop
      vertex -77.5 -18 1.2
      vertex -77.49 -5 1.2
      vertex -77.5 -5 1.2
    endloop
  endfacet
  facet normal 0 0 1
    outer loop
      vertex -57.5 -17.99 1.2
      vertex -77.5 -18 1.2
      vertex -57.5 -18 1.2
    endloop
  endfacet
  facet normal 1 -0 0
    outer loop
      vertex 77.5 -18 1.2
      vertex 77.5 -5 0
      vertex 77.5 -5 1.2
    endloop
  endfacet
  facet normal 1 0 0
    outer loop
      vertex 77.5 -5 0
      vertex 77.5 -18 1.2
      vertex 77.5 -18 0
    endloop
  endfacet
  facet normal 1 -0 0
    outer loop
      vertex 77.5 5 1.2
      vertex 77.5 18 0
      vertex 77.5 18 1.2
    endloop
  endfacet
  facet normal 1 0 0
    outer loop
      vertex 77.5 18 0
      vertex 77.5 5 1.2
      vertex 77.5 5 0
    endloop
  endfacet
  facet normal 0 -1 0
    outer loop
      vertex 57.5 -18 0
      vertex 77.5 -18 1.2
      vertex 57.5 -18 1.2
    endloop
  endfacet
  facet normal 0 -1 -0
    outer loop
      vertex 77.5 -18 1.2
      vertex 57.5 -18 0
      vertex 77.5 -18 0
    endloop
  endfacet
  facet normal 0 -1 0
    outer loop
      vertex -77.5 -18 0
      vertex -57.5 -18 1.2
      vertex -77.5 -18 1.2
    endloop
  endfacet
  facet normal 0 -1 -0
    outer loop
      vertex -57.5 -18 1.2
      vertex -77.5 -18 0
      vertex -57.5 -18 0
    endloop
  endfacet
  facet normal 0 -1 0
    outer loop
      vertex -37.5 -18 0
      vertex 37.5 -18 1.2
      vertex -37.5 -18 1.2
    endloop
  endfacet
  facet normal 0 -1 -0
    outer loop
      vertex 37.5 -18 1.2
      vertex -37.5 -18 0
      vertex 37.5 -18 0
    endloop
  endfacet
  facet normal 0 1 -0
    outer loop
      vertex 77.5 18 0
      vertex 57.5 18 1.2
      vertex 77.5 18 1.2
    endloop
  endfacet
  facet normal 0 1 0
    outer loop
      vertex 57.5 18 1.2
      vertex 77.5 18 0
      vertex 57.5 18 0
    endloop
  endfacet
  facet normal 0 1 -0
    outer loop
      vertex -57.5 18 0
      vertex -77.5 18 1.2
      vertex -57.5 18 1.2
    endloop
  endfacet
  facet normal 0 1 0
    outer loop
      vertex -77.5 18 1.2
      vertex -57.5 18 0
      vertex -77.5 18 0
    endloop
  endfacet
  facet normal 0 1 -0
    outer loop
      vertex 37.5 18 0
      vertex -37.5 18 1.2
      vertex 37.5 18 1.2
    endloop
  endfacet
  facet normal 0 1 0
    outer loop
      vertex -37.5 18 1.2
      vertex 37.5 18 0
      vertex -37.5 18 0
    endloop
  endfacet
endsolid OpenSCAD_Model
