solid OpenSCAD_Model
  facet normal 1 -0 0
    outer loop
      vertex -96.49 -5 22.4
      vertex -96.49 5 1.2
      vertex -96.49 5 22.4
    endloop
  endfacet
  facet normal 1 0 0
    outer loop
      vertex -96.49 5 1.2
      vertex -96.49 -5 22.4
      vertex -96.49 -5 1.2
    endloop
  endfacet
  facet normal -0 0 1
    outer loop
      vertex -98.29 5 22.4
      vertex -96.49 -5 22.4
      vertex -96.49 5 22.4
    endloop
  endfacet
  facet normal 0 0 1
    outer loop
      vertex -96.49 -5 22.4
      vertex -98.29 5 22.4
      vertex -98.29 -5 22.4
    endloop
  endfacet
  facet normal -1 0 0
    outer loop
      vertex -98.29 -5 0
      vertex -98.29 5 22.4
      vertex -98.29 5 0
    endloop
  endfacet
  facet normal -1 -0 0
    outer loop
      vertex -98.29 5 22.4
      vertex -98.29 -5 0
      vertex -98.29 -5 22.4
    endloop
  endfacet
  facet normal 0 1 0
    outer loop
      vertex -96.5 5 1.2
      vertex -96.49 5 22.4
      vertex -96.49 5 1.2
    endloop
  endfacet
  facet normal 0 1 0
    outer loop
      vertex -96.49 5 22.4
      vertex -96.5 5 1.2
      vertex -98.29 5 22.4
    endloop
  endfacet
  facet normal 0 1 0
    outer loop
      vertex -98.29 5 0
      vertex -96.5 5 1.2
      vertex -96.5 5 0
    endloop
  endfacet
  facet normal 0 1 0
    outer loop
      vertex -96.5 5 1.2
      vertex -98.29 5 0
      vertex -98.29 5 22.4
    endloop
  endfacet
  facet normal 0 0 -1
    outer loop
      vertex -98.29 -5 0
      vertex -96.5 5 0
      vertex -96.5 -5 0
    endloop
  endfacet
  facet normal -0 0 -1
    outer loop
      vertex -96.5 5 0
      vertex -98.29 -5 0
      vertex -98.29 5 0
    endloop
  endfacet
  facet normal 0 0 -1
    outer loop
      vertex -96.5 -5 0
      vertex -76.5 -18 0
      vertex -96.5 -18 0
    endloop
  endfacet
  facet normal 0 0 -1
    outer loop
      vertex -76.5 -18 0
      vertex -96.5 -5 0
      vertex -76.5 18 0
    endloop
  endfacet
  facet normal 0 0 -1
    outer loop
      vertex -96.5 5 0
      vertex -76.5 18 0
      vertex -96.5 -5 0
    endloop
  endfacet
  facet normal -0 0 -1
    outer loop
      vertex -76.5 18 0
      vertex -96.5 5 0
      vertex -96.5 18 0
    endloop
  endfacet
  facet normal 0 0 -1
    outer loop
      vertex -76.5 -18 0
      vertex -56.5 -18 0
      vertex -56.5 -19.79 0
    endloop
  endfacet
  facet normal 0 0 -1
    outer loop
      vertex -56.5 -18 0
      vertex -76.5 -18 0
      vertex -56.5 18 0
    endloop
  endfacet
  facet normal 0 0 -1
    outer loop
      vertex -76.5 -18 0
      vertex -56.5 -19.79 0
      vertex -76.5 -19.79 0
    endloop
  endfacet
  facet normal 0 0 -1
    outer loop
      vertex -76.5 18 0
      vertex -56.5 18 0
      vertex -76.5 -18 0
    endloop
  endfacet
  facet normal 0 0 -1
    outer loop
      vertex -56.5 18 0
      vertex -76.5 18 0
      vertex -56.5 19.79 0
    endloop
  endfacet
  facet normal -0 0 -1
    outer loop
      vertex -56.5 19.79 0
      vertex -76.5 18 0
      vertex -76.5 19.79 0
    endloop
  endfacet
  facet normal 0 0 -1
    outer loop
      vertex -56.5 -18 0
      vertex 56.5 18 0
      vertex 56.5 -18 0
    endloop
  endfacet
  facet normal -0 0 -1
    outer loop
      vertex 56.5 18 0
      vertex -56.5 -18 0
      vertex -56.5 18 0
    endloop
  endfacet
  facet normal 0 0 -1
    outer loop
      vertex 56.5 -18 0
      vertex 76.5 -18 0
      vertex 76.5 -19.79 0
    endloop
  endfacet
  facet normal 0 0 -1
    outer loop
      vertex 76.5 -18 0
      vertex 56.5 -18 0
      vertex 76.5 18 0
    endloop
  endfacet
  facet normal 0 0 -1
    outer loop
      vertex 56.5 -18 0
      vertex 76.5 -19.79 0
      vertex 56.5 -19.79 0
    endloop
  endfacet
  facet normal 0 0 -1
    outer loop
      vertex 56.5 18 0
      vertex 76.5 18 0
      vertex 56.5 -18 0
    endloop
  endfacet
  facet normal 0 0 -1
    outer loop
      vertex 76.5 18 0
      vertex 56.5 18 0
      vertex 76.5 19.79 0
    endloop
  endfacet
  facet normal -0 0 -1
    outer loop
      vertex 76.5 19.79 0
      vertex 56.5 18 0
      vertex 56.5 19.79 0
    endloop
  endfacet
  facet normal 0 0 -1
    outer loop
      vertex 76.5 -18 0
      vertex 96.5 -5 0
      vertex 96.5 -18 0
    endloop
  endfacet
  facet normal -0 0 -1
    outer loop
      vertex 96.5 -5 0
      vertex 76.5 -18 0
      vertex 96.5 5 0
    endloop
  endfacet
  facet normal 0 0 -1
    outer loop
      vertex 76.5 18 0
      vertex 96.5 5 0
      vertex 76.5 -18 0
    endloop
  endfacet
  facet normal 0 0 -1
    outer loop
      vertex 96.5 5 0
      vertex 76.5 18 0
      vertex 96.5 18 0
    endloop
  endfacet
  facet normal 0 0 -1
    outer loop
      vertex 96.5 -5 0
      vertex 98.29 5 0
      vertex 98.29 -5 0
    endloop
  endfacet
  facet normal -0 0 -1
    outer loop
      vertex 98.29 5 0
      vertex 96.5 -5 0
      vertex 96.5 5 0
    endloop
  endfacet
  facet normal 0 -1 0
    outer loop
      vertex -98.29 -5 22.4
      vertex -96.5 -5 1.2
      vertex -96.49 -5 22.4
    endloop
  endfacet
  facet normal 0 -1 0
    outer loop
      vertex -98.29 -5 0
      vertex -96.5 -5 1.2
      vertex -98.29 -5 22.4
    endloop
  endfacet
  facet normal 0 -1 -0
    outer loop
      vertex -96.5 -5 1.2
      vertex -98.29 -5 0
      vertex -96.5 -5 0
    endloop
  endfacet
  facet normal 0 -1 -0
    outer loop
      vertex -96.49 -5 22.4
      vertex -96.5 -5 1.2
      vertex -96.49 -5 1.2
    endloop
  endfacet
  facet normal 1 0 0
    outer loop
      vertex -56.5 19.79 22.4
      vertex -56.5 18 1.2
      vertex -56.5 19.79 0
    endloop
  endfacet
  facet normal 1 -0 0
    outer loop
      vertex -56.5 17.99 22.4
      vertex -56.5 18 1.2
      vertex -56.5 19.79 22.4
    endloop
  endfacet
  facet normal 1 0 0
    outer loop
      vertex -56.5 18 1.2
      vertex -56.5 17.99 22.4
      vertex -56.5 17.99 1.2
    endloop
  endfacet
  facet normal 1 0 0
    outer loop
      vertex -56.5 19.79 0
      vertex -56.5 18 1.2
      vertex -56.5 18 0
    endloop
  endfacet
  facet normal -0 0 1
    outer loop
      vertex -76.5 19.79 22.4
      vertex -56.5 17.99 22.4
      vertex -56.5 19.79 22.4
    endloop
  endfacet
  facet normal 0 0 1
    outer loop
      vertex -56.5 17.99 22.4
      vertex -76.5 19.79 22.4
      vertex -76.5 17.99 22.4
    endloop
  endfacet
  facet normal -1 0 0
    outer loop
      vertex -76.5 18 1.2
      vertex -76.5 19.79 0
      vertex -76.5 18 0
    endloop
  endfacet
  facet normal -1 0 0
    outer loop
      vertex -76.5 19.79 0
      vertex -76.5 18 1.2
      vertex -76.5 19.79 22.4
    endloop
  endfacet
  facet normal -1 0 0
    outer loop
      vertex -76.5 17.99 22.4
      vertex -76.5 18 1.2
      vertex -76.5 17.99 1.2
    endloop
  endfacet
  facet normal -1 0 0
    outer loop
      vertex -76.5 18 1.2
      vertex -76.5 17.99 22.4
      vertex -76.5 19.79 22.4
    endloop
  endfacet
  facet normal 0 -1 0
    outer loop
      vertex -76.5 17.99 1.2
      vertex -56.5 17.99 22.4
      vertex -76.5 17.99 22.4
    endloop
  endfacet
  facet normal 0 -1 -0
    outer loop
      vertex -56.5 17.99 22.4
      vertex -76.5 17.99 1.2
      vertex -56.5 17.99 1.2
    endloop
  endfacet
  facet normal 0 1 -0
    outer loop
      vertex -56.5 19.79 0
      vertex -76.5 19.79 22.4
      vertex -56.5 19.79 22.4
    endloop
  endfacet
  facet normal 0 1 0
    outer loop
      vertex -76.5 19.79 22.4
      vertex -56.5 19.79 0
      vertex -76.5 19.79 0
    endloop
  endfacet
  facet normal -0 0 1
    outer loop
      vertex 56.5 -17.99 22.4
      vertex 76.5 -19.79 22.4
      vertex 76.5 -17.99 22.4
    endloop
  endfacet
  facet normal 0 0 1
    outer loop
      vertex 76.5 -19.79 22.4
      vertex 56.5 -17.99 22.4
      vertex 56.5 -19.79 22.4
    endloop
  endfacet
  facet normal 1 0 0
    outer loop
      vertex 76.5 -17.99 22.4
      vertex 76.5 -18 1.2
      vertex 76.5 -17.99 1.2
    endloop
  endfacet
  facet normal 1 -0 0
    outer loop
      vertex 76.5 -19.79 22.4
      vertex 76.5 -18 1.2
      vertex 76.5 -17.99 22.4
    endloop
  endfacet
  facet normal 1 0 0
    outer loop
      vertex 76.5 -19.79 0
      vertex 76.5 -18 1.2
      vertex 76.5 -19.79 22.4
    endloop
  endfacet
  facet normal 1 0 0
    outer loop
      vertex 76.5 -18 1.2
      vertex 76.5 -19.79 0
      vertex 76.5 -18 0
    endloop
  endfacet
  facet normal 0 1 -0
    outer loop
      vertex 76.5 -17.99 1.2
      vertex 56.5 -17.99 22.4
      vertex 76.5 -17.99 22.4
    endloop
  endfacet
  facet normal 0 1 0
    outer loop
      vertex 56.5 -17.99 22.4
      vertex 76.5 -17.99 1.2
      vertex 56.5 -17.99 1.2
    endloop
  endfacet
  facet normal -1 0 0
    outer loop
      vertex 56.5 -18 0
      vertex 56.5 -19.79 0
      vertex 56.5 -18 1.2
    endloop
  endfacet
  facet normal -1 0 0
    outer loop
      vertex 56.5 -18 1.2
      vertex 56.5 -17.99 22.4
      vertex 56.5 -17.99 1.2
    endloop
  endfacet
  facet normal -1 0 0
    outer loop
      vertex 56.5 -19.79 22.4
      vertex 56.5 -18 1.2
      vertex 56.5 -19.79 0
    endloop
  endfacet
  facet normal -1 0 0
    outer loop
      vertex 56.5 -18 1.2
      vertex 56.5 -19.79 22.4
      vertex 56.5 -17.99 22.4
    endloop
  endfacet
  facet normal 0 -1 0
    outer loop
      vertex 56.5 -19.79 0
      vertex 76.5 -19.79 22.4
      vertex 56.5 -19.79 22.4
    endloop
  endfacet
  facet normal 0 -1 -0
    outer loop
      vertex 76.5 -19.79 22.4
      vertex 56.5 -19.79 0
      vertex 76.5 -19.79 0
    endloop
  endfacet
  facet normal -1 0 0
    outer loop
      vertex 96.49 -5 1.2
      vertex 96.49 5 22.4
      vertex 96.49 5 1.2
    endloop
  endfacet
  facet normal -1 -0 0
    outer loop
      vertex 96.49 5 22.4
      vertex 96.49 -5 1.2
      vertex 96.49 -5 22.4
    endloop
  endfacet
  facet normal -0 0 1
    outer loop
      vertex 96.49 5 22.4
      vertex 98.29 -5 22.4
      vertex 98.29 5 22.4
    endloop
  endfacet
  facet normal 0 0 1
    outer loop
      vertex 98.29 -5 22.4
      vertex 96.49 5 22.4
      vertex 96.49 -5 22.4
    endloop
  endfacet
  facet normal 1 -0 0
    outer loop
      vertex 98.29 -5 22.4
      vertex 98.29 5 0
      vertex 98.29 5 22.4
    endloop
  endfacet
  facet normal 1 0 0
    outer loop
      vertex 98.29 5 0
      vertex 98.29 -5 22.4
      vertex 98.29 -5 0
    endloop
  endfacet
  facet normal 0 -1 0
    outer loop
      vertex 96.5 -5 1.2
      vertex 96.49 -5 22.4
      vertex 96.49 -5 1.2
    endloop
  endfacet
  facet normal 0 -1 0
    outer loop
      vertex 96.49 -5 22.4
      vertex 96.5 -5 1.2
      vertex 98.29 -5 22.4
    endloop
  endfacet
  facet normal 0 -1 0
    outer loop
      vertex 98.29 -5 0
      vertex 96.5 -5 1.2
      vertex 96.5 -5 0
    endloop
  endfacet
  facet normal 0 -1 0
    outer loop
      vertex 96.5 -5 1.2
      vertex 98.29 -5 0
      vertex 98.29 -5 22.4
    endloop
  endfacet
  facet normal 0 1 0
    outer loop
      vertex 98.29 5 22.4
      vertex 96.5 5 1.2
      vertex 96.49 5 22.4
    endloop
  endfacet
  facet normal 0 1 -0
    outer loop
      vertex 98.29 5 0
      vertex 96.5 5 1.2
      vertex 98.29 5 22.4
    endloop
  endfacet
  facet normal 0 1 0
    outer loop
      vertex 96.5 5 1.2
      vertex 98.29 5 0
      vertex 96.5 5 0
    endloop
  endfacet
  facet normal 0 1 0
    outer loop
      vertex 96.49 5 22.4
      vertex 96.5 5 1.2
      vertex 96.49 5 1.2
    endloop
  endfacet
  facet normal -1 0 0
    outer loop
      vertex 56.5 18 1.2
      vertex 56.5 19.79 0
      vertex 56.5 18 0
    endloop
  endfacet
  facet normal -1 0 0
    outer loop
      vertex 56.5 19.79 0
      vertex 56.5 18 1.2
      vertex 56.5 19.79 22.4
    endloop
  endfacet
  facet normal -1 0 0
    outer loop
      vertex 56.5 17.99 22.4
      vertex 56.5 18 1.2
      vertex 56.5 17.99 1.2
    endloop
  endfacet
  facet normal -1 0 0
    outer loop
      vertex 56.5 18 1.2
      vertex 56.5 17.99 22.4
      vertex 56.5 19.79 22.4
    endloop
  endfacet
  facet normal -0 0 1
    outer loop
      vertex 56.5 19.79 22.4
      vertex 76.5 17.99 22.4
      vertex 76.5 19.79 22.4
    endloop
  endfacet
  facet normal 0 0 1
    outer loop
      vertex 76.5 17.99 22.4
      vertex 56.5 19.79 22.4
      vertex 56.5 17.99 22.4
    endloop
  endfacet
  facet normal 1 0 0
    outer loop
      vertex 76.5 19.79 22.4
      vertex 76.5 18 1.2
      vertex 76.5 19.79 0
    endloop
  endfacet
  facet normal 1 -0 0
    outer loop
      vertex 76.5 17.99 22.4
      vertex 76.5 18 1.2
      vertex 76.5 19.79 22.4
    endloop
  endfacet
  facet normal 1 0 0
    outer loop
      vertex 76.5 18 1.2
      vertex 76.5 17.99 22.4
      vertex 76.5 17.99 1.2
    endloop
  endfacet
  facet normal 1 0 0
    outer loop
      vertex 76.5 19.79 0
      vertex 76.5 18 1.2
      vertex 76.5 18 0
    endloop
  endfacet
  facet normal 0 -1 0
    outer loop
      vertex 56.5 17.99 1.2
      vertex 76.5 17.99 22.4
      vertex 56.5 17.99 22.4
    endloop
  endfacet
  facet normal 0 -1 -0
    outer loop
      vertex 76.5 17.99 22.4
      vertex 56.5 17.99 1.2
      vertex 76.5 17.99 1.2
    endloop
  endfacet
  facet normal 0 1 -0
    outer loop
      vertex 76.5 19.79 0
      vertex 56.5 19.79 22.4
      vertex 76.5 19.79 22.4
    endloop
  endfacet
  facet normal 0 1 0
    outer loop
      vertex 56.5 19.79 22.4
      vertex 76.5 19.79 0
      vertex 56.5 19.79 0
    endloop
  endfacet
  facet normal -0 0 1
    outer loop
      vertex -76.5 -17.99 22.4
      vertex -56.5 -19.79 22.4
      vertex -56.5 -17.99 22.4
    endloop
  endfacet
  facet normal 0 0 1
    outer loop
      vertex -56.5 -19.79 22.4
      vertex -76.5 -17.99 22.4
      vertex -76.5 -19.79 22.4
    endloop
  endfacet
  facet normal -1 0 0
    outer loop
      vertex -76.5 -18 0
      vertex -76.5 -19.79 0
      vertex -76.5 -18 1.2
    endloop
  endfacet
  facet normal -1 0 0
    outer loop
      vertex -76.5 -18 1.2
      vertex -76.5 -17.99 22.4
      vertex -76.5 -17.99 1.2
    endloop
  endfacet
  facet normal -1 0 0
    outer loop
      vertex -76.5 -19.79 22.4
      vertex -76.5 -18 1.2
      vertex -76.5 -19.79 0
    endloop
  endfacet
  facet normal -1 0 0
    outer loop
      vertex -76.5 -18 1.2
      vertex -76.5 -19.79 22.4
      vertex -76.5 -17.99 22.4
    endloop
  endfacet
  facet normal 1 0 0
    outer loop
      vertex -56.5 -17.99 22.4
      vertex -56.5 -18 1.2
      vertex -56.5 -17.99 1.2
    endloop
  endfacet
  facet normal 1 -0 0
    outer loop
      vertex -56.5 -19.79 22.4
      vertex -56.5 -18 1.2
      vertex -56.5 -17.99 22.4
    endloop
  endfacet
  facet normal 1 0 0
    outer loop
      vertex -56.5 -19.79 0
      vertex -56.5 -18 1.2
      vertex -56.5 -19.79 22.4
    endloop
  endfacet
  facet normal 1 0 0
    outer loop
      vertex -56.5 -18 1.2
      vertex -56.5 -19.79 0
      vertex -56.5 -18 0
    endloop
  endfacet
  facet normal 0 1 -0
    outer loop
      vertex -56.5 -17.99 1.2
      vertex -76.5 -17.99 22.4
      vertex -56.5 -17.99 22.4
    endloop
  endfacet
  facet normal 0 1 0
    outer loop
      vertex -76.5 -17.99 22.4
      vertex -56.5 -17.99 1.2
      vertex -76.5 -17.99 1.2
    endloop
  endfacet
  facet normal 0 -1 0
    outer loop
      vertex -76.5 -19.79 0
      vertex -56.5 -19.79 22.4
      vertex -76.5 -19.79 22.4
    endloop
  endfacet
  facet normal 0 -1 -0
    outer loop
      vertex -56.5 -19.79 22.4
      vertex -76.5 -19.79 0
      vertex -56.5 -19.79 0
    endloop
  endfacet
  facet normal -1 0 0
    outer loop
      vertex -96.5 -18 0
      vertex -96.5 -5 1.2
      vertex -96.5 -5 0
    endloop
  endfacet
  facet normal -1 -0 0
    outer loop
      vertex -96.5 -5 1.2
      vertex -96.5 -18 0
      vertex -96.5 -18 1.2
    endloop
  endfacet
  facet normal -1 0 0
    outer loop
      vertex -96.5 5 0
      vertex -96.5 18 1.2
      vertex -96.5 18 0
    endloop
  endfacet
  facet normal -1 -0 0
    outer loop
      vertex -96.5 18 1.2
      vertex -96.5 5 0
      vertex -96.5 5 1.2
    endloop
  endfacet
  facet normal 0 0 1
    outer loop
      vertex 96.5 18 1.2
      vertex 96.49 5 1.2
      vertex 96.5 5 1.2
    endloop
  endfacet
  facet normal 0 0 1
    outer loop
      vertex 96.5 18 1.2
      vertex 76.5 17.99 1.2
      vertex 96.49 5 1.2
    endloop
  endfacet
  facet normal 0 0 1
    outer loop
      vertex 76.5 17.99 1.2
      vertex 96.5 18 1.2
      vertex 76.5 18 1.2
    endloop
  endfacet
  facet normal -0 0 1
    outer loop
      vertex 96.49 -5 1.2
      vertex 96.5 -18 1.2
      vertex 96.5 -5 1.2
    endloop
  endfacet
  facet normal 0 0 1
    outer loop
      vertex 96.49 5 1.2
      vertex 76.5 17.99 1.2
      vertex 96.49 -5 1.2
    endloop
  endfacet
  facet normal 0 0 1
    outer loop
      vertex 76.5 -17.99 1.2
      vertex 96.49 -5 1.2
      vertex 76.5 17.99 1.2
    endloop
  endfacet
  facet normal 0 0 1
    outer loop
      vertex 96.49 -5 1.2
      vertex 76.5 -17.99 1.2
      vertex 96.5 -18 1.2
    endloop
  endfacet
  facet normal 0 0 1
    outer loop
      vertex 96.5 -18 1.2
      vertex 76.5 -17.99 1.2
      vertex 76.5 -18 1.2
    endloop
  endfacet
  facet normal -0 0 1
    outer loop
      vertex -96.5 18 1.2
      vertex -76.5 17.99 1.2
      vertex -76.5 18 1.2
    endloop
  endfacet
  facet normal 0 0 1
    outer loop
      vertex -76.5 17.99 1.2
      vertex -96.49 5 1.2
      vertex -76.5 -17.99 1.2
    endloop
  endfacet
  facet normal -0 0 1
    outer loop
      vertex -96.49 -5 1.2
      vertex -76.5 -17.99 1.2
      vertex -96.49 5 1.2
    endloop
  endfacet
  facet normal 0 0 1
    outer loop
      vertex -76.5 17.99 1.2
      vertex -96.5 18 1.2
      vertex -96.49 5 1.2
    endloop
  endfacet
  facet normal 0 0 1
    outer loop
      vertex -96.49 5 1.2
      vertex -96.5 18 1.2
      vertex -96.5 5 1.2
    endloop
  endfacet
  facet normal -0 0 1
    outer loop
      vertex -76.5 17.99 1.2
      vertex -56.5 -17.99 1.2
      vertex -56.5 17.99 1.2
    endloop
  endfacet
  facet normal 0 0 1
    outer loop
      vertex -56.5 -17.99 1.2
      vertex -76.5 17.99 1.2
      vertex -76.5 -17.99 1.2
    endloop
  endfacet
  facet normal 0 0 1
    outer loop
      vertex -56.5 17.99 1.2
      vertex 56.5 17.99 1.2
      vertex 56.5 18 1.2
    endloop
  endfacet
  facet normal 0 0 1
    outer loop
      vertex 56.5 17.99 1.2
      vertex -56.5 17.99 1.2
      vertex 56.5 -17.99 1.2
    endloop
  endfacet
  facet normal 0 0 1
    outer loop
      vertex -56.5 17.99 1.2
      vertex 56.5 18 1.2
      vertex -56.5 18 1.2
    endloop
  endfacet
  facet normal 0 0 1
    outer loop
      vertex -56.5 -17.99 1.2
      vertex 56.5 -17.99 1.2
      vertex -56.5 17.99 1.2
    endloop
  endfacet
  facet normal 0 0 1
    outer loop
      vertex 56.5 -17.99 1.2
      vertex -56.5 -17.99 1.2
      vertex 56.5 -18 1.2
    endloop
  endfacet
  facet normal 0 0 1
    outer loop
      vertex 56.5 -18 1.2
      vertex -56.5 -17.99 1.2
      vertex -56.5 -18 1.2
    endloop
  endfacet
  facet normal -0 0 1
    outer loop
      vertex 56.5 17.99 1.2
      vertex 76.5 -17.99 1.2
      vertex 76.5 17.99 1.2
    endloop
  endfacet
  facet normal 0 0 1
    outer loop
      vertex 76.5 -17.99 1.2
      vertex 56.5 17.99 1.2
      vertex 56.5 -17.99 1.2
    endloop
  endfacet
  facet normal 0 0 1
    outer loop
      vertex -96.5 -18 1.2
      vertex -76.5 -17.99 1.2
      vertex -96.49 -5 1.2
    endloop
  endfacet
  facet normal 0 0 1
    outer loop
      vertex -96.5 -18 1.2
      vertex -96.49 -5 1.2
      vertex -96.5 -5 1.2
    endloop
  endfacet
  facet normal 0 0 1
    outer loop
      vertex -76.5 -17.99 1.2
      vertex -96.5 -18 1.2
      vertex -76.5 -18 1.2
    endloop
  endfacet
  facet normal 1 -0 0
    outer loop
      vertex 96.5 -18 1.2
      vertex 96.5 -5 0
      vertex 96.5 -5 1.2
    endloop
  endfacet
  facet normal 1 0 0
    outer loop
      vertex 96.5 -5 0
      vertex 96.5 -18 1.2
      vertex 96.5 -18 0
    endloop
  endfacet
  facet normal 1 -0 0
    outer loop
      vertex 96.5 5 1.2
      vertex 96.5 18 0
      vertex 96.5 18 1.2
    endloop
  endfacet
  facet normal 1 0 0
    outer loop
      vertex 96.5 18 0
      vertex 96.5 5 1.2
      vertex 96.5 5 0
    endloop
  endfacet
  facet normal 0 1 -0
    outer loop
      vertex 96.5 18 0
      vertex 76.5 18 1.2
      vertex 96.5 18 1.2
    endloop
  endfacet
  facet normal 0 1 0
    outer loop
      vertex 76.5 18 1.2
      vertex 96.5 18 0
      vertex 76.5 18 0
    endloop
  endfacet
  facet normal 0 1 -0
    outer loop
      vertex -76.5 18 0
      vertex -96.5 18 1.2
      vertex -76.5 18 1.2
    endloop
  endfacet
  facet normal 0 1 0
    outer loop
      vertex -96.5 18 1.2
      vertex -76.5 18 0
      vertex -96.5 18 0
    endloop
  endfacet
  facet normal 0 1 -0
    outer loop
      vertex 56.5 18 0
      vertex -56.5 18 1.2
      vertex 56.5 18 1.2
    endloop
  endfacet
  facet normal 0 1 0
    outer loop
      vertex -56.5 18 1.2
      vertex 56.5 18 0
      vertex -56.5 18 0
    endloop
  endfacet
  facet normal 0 -1 0
    outer loop
      vertex 76.5 -18 0
      vertex 96.5 -18 1.2
      vertex 76.5 -18 1.2
    endloop
  endfacet
  facet normal 0 -1 -0
    outer loop
      vertex 96.5 -18 1.2
      vertex 76.5 -18 0
      vertex 96.5 -18 0
    endloop
  endfacet
  facet normal 0 -1 0
    outer loop
      vertex -96.5 -18 0
      vertex -76.5 -18 1.2
      vertex -96.5 -18 1.2
    endloop
  endfacet
  facet normal 0 -1 -0
    outer loop
      vertex -76.5 -18 1.2
      vertex -96.5 -18 0
      vertex -76.5 -18 0
    endloop
  endfacet
  facet normal 0 -1 0
    outer loop
      vertex -56.5 -18 0
      vertex 56.5 -18 1.2
      vertex -56.5 -18 1.2
    endloop
  endfacet
  facet normal 0 -1 -0
    outer loop
      vertex 56.5 -18 1.2
      vertex -56.5 -18 0
      vertex 56.5 -18 0
    endloop
  endfacet
endsolid OpenSCAD_Model
