solid OpenSCAD_Model
  facet normal 0 0 -1
    outer loop
      vertex -4.79999 -9.79999 0
      vertex 0 4.79999 0
      vertex 0 -4.79999 0
    endloop
  endfacet
  facet normal -0 0 -1
    outer loop
      vertex 0 4.79999 0
      vertex -4.79999 -9.79999 0
      vertex -4.79999 9.79999 0
    endloop
  endfacet
  facet normal 0 0 -1
    outer loop
      vertex 0 -4.79999 0
      vertex 27.75 -18 0
      vertex 0 -18 0
    endloop
  endfacet
  facet normal 0 0 -1
    outer loop
      vertex 27.75 -18 0
      vertex 0 -4.79999 0
      vertex 27.75 18 0
    endloop
  endfacet
  facet normal 0 0 -1
    outer loop
      vertex 0 4.79999 0
      vertex 27.75 18 0
      vertex 0 -4.79999 0
    endloop
  endfacet
  facet normal -0 0 -1
    outer loop
      vertex 27.75 18 0
      vertex 0 4.79999 0
      vertex 0 18 0
    endloop
  endfacet
  facet normal 0 0 -1
    outer loop
      vertex 27.75 -18 0
      vertex 37.75 -18 0
      vertex 37.75 -19.19 0
    endloop
  endfacet
  facet normal 0 0 -1
    outer loop
      vertex 37.75 -18 0
      vertex 27.75 -18 0
      vertex 37.75 18 0
    endloop
  endfacet
  facet normal 0 0 -1
    outer loop
      vertex 27.75 -18 0
      vertex 37.75 -19.19 0
      vertex 27.75 -19.19 0
    endloop
  endfacet
  facet normal 0 0 -1
    outer loop
      vertex 27.75 18 0
      vertex 37.75 18 0
      vertex 27.75 -18 0
    endloop
  endfacet
  facet normal 0 0 -1
    outer loop
      vertex 37.75 18 0
      vertex 27.75 18 0
      vertex 37.75 19.19 0
    endloop
  endfacet
  facet normal -0 0 -1
    outer loop
      vertex 37.75 19.19 0
      vertex 27.75 18 0
      vertex 27.75 19.19 0
    endloop
  endfacet
  facet normal 0 0 -1
    outer loop
      vertex 37.75 -18 0
      vertex 85.5 18 0
      vertex 85.5 -18 0
    endloop
  endfacet
  facet normal -0 0 -1
    outer loop
      vertex 85.5 18 0
      vertex 37.75 -18 0
      vertex 37.75 18 0
    endloop
  endfacet
  facet normal 0 0 -1
    outer loop
      vertex 85.5 -18 0
      vertex 95.5 -18 0
      vertex 95.5 -19.19 0
    endloop
  endfacet
  facet normal 0 0 -1
    outer loop
      vertex 95.5 -18 0
      vertex 85.5 -18 0
      vertex 95.5 18 0
    endloop
  endfacet
  facet normal 0 0 -1
    outer loop
      vertex 85.5 -18 0
      vertex 95.5 -19.19 0
      vertex 85.5 -19.19 0
    endloop
  endfacet
  facet normal 0 0 -1
    outer loop
      vertex 85.5 18 0
      vertex 95.5 18 0
      vertex 85.5 -18 0
    endloop
  endfacet
  facet normal 0 0 -1
    outer loop
      vertex 95.5 18 0
      vertex 85.5 18 0
      vertex 95.5 19.19 0
    endloop
  endfacet
  facet normal -0 0 -1
    outer loop
      vertex 95.5 19.19 0
      vertex 85.5 18 0
      vertex 85.5 19.19 0
    endloop
  endfacet
  facet normal 0 0 -1
    outer loop
      vertex 95.5 -18 0
      vertex 115.5 -9.1 0
      vertex 115.5 -18 0
    endloop
  endfacet
  facet normal -0 0 -1
    outer loop
      vertex 115.5 -9.1 0
      vertex 95.5 -18 0
      vertex 115.5 9.1 0
    endloop
  endfacet
  facet normal 0 0 -1
    outer loop
      vertex 95.5 18 0
      vertex 115.5 9.1 0
      vertex 95.5 -18 0
    endloop
  endfacet
  facet normal 0 0 -1
    outer loop
      vertex 115.5 9.1 0
      vertex 95.5 18 0
      vertex 115.5 18 0
    endloop
  endfacet
  facet normal 0 0 -1
    outer loop
      vertex 115.5 -9.1 0
      vertex 116.69 9.1 0
      vertex 116.69 -9.1 0
    endloop
  endfacet
  facet normal -0 0 -1
    outer loop
      vertex 116.69 9.1 0
      vertex 115.5 -9.1 0
      vertex 115.5 9.1 0
    endloop
  endfacet
  facet normal -1 0 0
    outer loop
      vertex 85.5 -18 3
      vertex 85.5 -17.99 36
      vertex 85.5 -17.99 3
    endloop
  endfacet
  facet normal -1 0 0
    outer loop
      vertex 85.5 -19.19 36
      vertex 85.5 -18 3
      vertex 85.5 -19.19 0
    endloop
  endfacet
  facet normal -1 0 0
    outer loop
      vertex 85.5 -18 3
      vertex 85.5 -19.19 36
      vertex 85.5 -17.99 36
    endloop
  endfacet
  facet normal -1 0 0
    outer loop
      vertex 85.5 -18 0
      vertex 85.5 -19.19 0
      vertex 85.5 -18 3
    endloop
  endfacet
  facet normal -0 0 1
    outer loop
      vertex 85.5 -17.99 36
      vertex 95.5 -19.19 36
      vertex 95.5 -17.99 36
    endloop
  endfacet
  facet normal 0 0 1
    outer loop
      vertex 95.5 -19.19 36
      vertex 85.5 -17.99 36
      vertex 85.5 -19.19 36
    endloop
  endfacet
  facet normal 1 0 0
    outer loop
      vertex 95.5 -17.99 36
      vertex 95.5 -18 3
      vertex 95.5 -17.99 3
    endloop
  endfacet
  facet normal 1 -0 0
    outer loop
      vertex 95.5 -19.19 36
      vertex 95.5 -18 3
      vertex 95.5 -17.99 36
    endloop
  endfacet
  facet normal 1 0 0
    outer loop
      vertex 95.5 -19.19 0
      vertex 95.5 -18 3
      vertex 95.5 -19.19 36
    endloop
  endfacet
  facet normal 1 0 0
    outer loop
      vertex 95.5 -18 3
      vertex 95.5 -19.19 0
      vertex 95.5 -18 0
    endloop
  endfacet
  facet normal 0 -1 0
    outer loop
      vertex 85.5 -19.19 0
      vertex 95.5 -19.19 36
      vertex 85.5 -19.19 36
    endloop
  endfacet
  facet normal 0 -1 -0
    outer loop
      vertex 95.5 -19.19 36
      vertex 85.5 -19.19 0
      vertex 95.5 -19.19 0
    endloop
  endfacet
  facet normal 0 1 -0
    outer loop
      vertex 95.5 -17.99 3
      vertex 85.5 -17.99 36
      vertex 95.5 -17.99 36
    endloop
  endfacet
  facet normal 0 1 0
    outer loop
      vertex 85.5 -17.99 36
      vertex 95.5 -17.99 3
      vertex 85.5 -17.99 3
    endloop
  endfacet
  facet normal -1 0 0
    outer loop
      vertex 27.75 -18 3
      vertex 27.75 -17.99 36
      vertex 27.75 -17.99 3
    endloop
  endfacet
  facet normal -1 0 0
    outer loop
      vertex 27.75 -19.19 36
      vertex 27.75 -18 3
      vertex 27.75 -19.19 0
    endloop
  endfacet
  facet normal -1 0 0
    outer loop
      vertex 27.75 -18 3
      vertex 27.75 -19.19 36
      vertex 27.75 -17.99 36
    endloop
  endfacet
  facet normal -1 0 0
    outer loop
      vertex 27.75 -18 0
      vertex 27.75 -19.19 0
      vertex 27.75 -18 3
    endloop
  endfacet
  facet normal -0 0 1
    outer loop
      vertex 27.75 -17.99 36
      vertex 37.75 -19.19 36
      vertex 37.75 -17.99 36
    endloop
  endfacet
  facet normal 0 0 1
    outer loop
      vertex 37.75 -19.19 36
      vertex 27.75 -17.99 36
      vertex 27.75 -19.19 36
    endloop
  endfacet
  facet normal 1 0 0
    outer loop
      vertex 37.75 -17.99 36
      vertex 37.75 -18 3
      vertex 37.75 -17.99 3
    endloop
  endfacet
  facet normal 1 -0 0
    outer loop
      vertex 37.75 -19.19 36
      vertex 37.75 -18 3
      vertex 37.75 -17.99 36
    endloop
  endfacet
  facet normal 1 0 0
    outer loop
      vertex 37.75 -19.19 0
      vertex 37.75 -18 3
      vertex 37.75 -19.19 36
    endloop
  endfacet
  facet normal 1 0 0
    outer loop
      vertex 37.75 -18 3
      vertex 37.75 -19.19 0
      vertex 37.75 -18 0
    endloop
  endfacet
  facet normal 0 -1 0
    outer loop
      vertex 27.75 -19.19 0
      vertex 37.75 -19.19 36
      vertex 27.75 -19.19 36
    endloop
  endfacet
  facet normal 0 -1 -0
    outer loop
      vertex 37.75 -19.19 36
      vertex 27.75 -19.19 0
      vertex 37.75 -19.19 0
    endloop
  endfacet
  facet normal 0 1 -0
    outer loop
      vertex 37.75 -17.99 3
      vertex 27.75 -17.99 36
      vertex 37.75 -17.99 36
    endloop
  endfacet
  facet normal 0 1 0
    outer loop
      vertex 27.75 -17.99 36
      vertex 37.75 -17.99 3
      vertex 27.75 -17.99 3
    endloop
  endfacet
  facet normal -1 0 0
    outer loop
      vertex 115.49 -9.1 3
      vertex 115.49 9.1 36
      vertex 115.49 9.1 3
    endloop
  endfacet
  facet normal -1 -0 0
    outer loop
      vertex 115.49 9.1 36
      vertex 115.49 -9.1 3
      vertex 115.49 -9.1 36
    endloop
  endfacet
  facet normal -0 0 1
    outer loop
      vertex 115.49 9.1 36
      vertex 116.69 -9.1 36
      vertex 116.69 9.1 36
    endloop
  endfacet
  facet normal 0 0 1
    outer loop
      vertex 116.69 -9.1 36
      vertex 115.49 9.1 36
      vertex 115.49 -9.1 36
    endloop
  endfacet
  facet normal 1 -0 0
    outer loop
      vertex 116.69 -9.1 36
      vertex 116.69 9.1 0
      vertex 116.69 9.1 36
    endloop
  endfacet
  facet normal 1 0 0
    outer loop
      vertex 116.69 9.1 0
      vertex 116.69 -9.1 36
      vertex 116.69 -9.1 0
    endloop
  endfacet
  facet normal 0 -1 0
    outer loop
      vertex 115.5 -9.1 3
      vertex 115.49 -9.1 36
      vertex 115.49 -9.1 3
    endloop
  endfacet
  facet normal 0 -1 0
    outer loop
      vertex 115.49 -9.1 36
      vertex 115.5 -9.1 3
      vertex 116.69 -9.1 36
    endloop
  endfacet
  facet normal 0 -1 0
    outer loop
      vertex 116.69 -9.1 0
      vertex 115.5 -9.1 3
      vertex 115.5 -9.1 0
    endloop
  endfacet
  facet normal 0 -1 0
    outer loop
      vertex 115.5 -9.1 3
      vertex 116.69 -9.1 0
      vertex 116.69 -9.1 36
    endloop
  endfacet
  facet normal 0 1 0
    outer loop
      vertex 116.69 9.1 36
      vertex 115.5 9.1 3
      vertex 115.49 9.1 36
    endloop
  endfacet
  facet normal 0 1 -0
    outer loop
      vertex 116.69 9.1 0
      vertex 115.5 9.1 3
      vertex 116.69 9.1 36
    endloop
  endfacet
  facet normal 0 1 0
    outer loop
      vertex 115.5 9.1 3
      vertex 116.69 9.1 0
      vertex 115.5 9.1 0
    endloop
  endfacet
  facet normal 0 1 0
    outer loop
      vertex 115.49 9.1 36
      vertex 115.5 9.1 3
      vertex 115.49 9.1 3
    endloop
  endfacet
  facet normal -1 0 0
    outer loop
      vertex 85.5 18 3
      vertex 85.5 19.19 0
      vertex 85.5 18 0
    endloop
  endfacet
  facet normal -1 0 0
    outer loop
      vertex 85.5 19.19 0
      vertex 85.5 18 3
      vertex 85.5 19.19 36
    endloop
  endfacet
  facet normal -1 0 0
    outer loop
      vertex 85.5 17.99 36
      vertex 85.5 18 3
      vertex 85.5 17.99 3
    endloop
  endfacet
  facet normal -1 0 0
    outer loop
      vertex 85.5 18 3
      vertex 85.5 17.99 36
      vertex 85.5 19.19 36
    endloop
  endfacet
  facet normal -0 0 1
    outer loop
      vertex 85.5 19.19 36
      vertex 95.5 17.99 36
      vertex 95.5 19.19 36
    endloop
  endfacet
  facet normal 0 0 1
    outer loop
      vertex 95.5 17.99 36
      vertex 85.5 19.19 36
      vertex 85.5 17.99 36
    endloop
  endfacet
  facet normal 1 0 0
    outer loop
      vertex 95.5 19.19 36
      vertex 95.5 18 3
      vertex 95.5 19.19 0
    endloop
  endfacet
  facet normal 1 -0 0
    outer loop
      vertex 95.5 17.99 36
      vertex 95.5 18 3
      vertex 95.5 19.19 36
    endloop
  endfacet
  facet normal 1 0 0
    outer loop
      vertex 95.5 18 3
      vertex 95.5 17.99 36
      vertex 95.5 17.99 3
    endloop
  endfacet
  facet normal 1 0 0
    outer loop
      vertex 95.5 19.19 0
      vertex 95.5 18 3
      vertex 95.5 18 0
    endloop
  endfacet
  facet normal 0 -1 0
    outer loop
      vertex 85.5 17.99 3
      vertex 95.5 17.99 36
      vertex 85.5 17.99 36
    endloop
  endfacet
  facet normal 0 -1 -0
    outer loop
      vertex 95.5 17.99 36
      vertex 85.5 17.99 3
      vertex 95.5 17.99 3
    endloop
  endfacet
  facet normal 0 1 -0
    outer loop
      vertex 95.5 19.19 0
      vertex 85.5 19.19 36
      vertex 95.5 19.19 36
    endloop
  endfacet
  facet normal 0 1 0
    outer loop
      vertex 85.5 19.19 36
      vertex 95.5 19.19 0
      vertex 85.5 19.19 0
    endloop
  endfacet
  facet normal -1 0 0
    outer loop
      vertex 27.75 18 3
      vertex 27.75 19.19 0
      vertex 27.75 18 0
    endloop
  endfacet
  facet normal -1 0 0
    outer loop
      vertex 27.75 19.19 0
      vertex 27.75 18 3
      vertex 27.75 19.19 36
    endloop
  endfacet
  facet normal -1 0 0
    outer loop
      vertex 27.75 17.99 36
      vertex 27.75 18 3
      vertex 27.75 17.99 3
    endloop
  endfacet
  facet normal -1 0 0
    outer loop
      vertex 27.75 18 3
      vertex 27.75 17.99 36
      vertex 27.75 19.19 36
    endloop
  endfacet
  facet normal -0 0 1
    outer loop
      vertex 27.75 19.19 36
      vertex 37.75 17.99 36
      vertex 37.75 19.19 36
    endloop
  endfacet
  facet normal 0 0 1
    outer loop
      vertex 37.75 17.99 36
      vertex 27.75 19.19 36
      vertex 27.75 17.99 36
    endloop
  endfacet
  facet normal 1 0 0
    outer loop
      vertex 37.75 19.19 36
      vertex 37.75 18 3
      vertex 37.75 19.19 0
    endloop
  endfacet
  facet normal 1 -0 0
    outer loop
      vertex 37.75 17.99 36
      vertex 37.75 18 3
      vertex 37.75 19.19 36
    endloop
  endfacet
  facet normal 1 0 0
    outer loop
      vertex 37.75 18 3
      vertex 37.75 17.99 36
      vertex 37.75 17.99 3
    endloop
  endfacet
  facet normal 1 0 0
    outer loop
      vertex 37.75 19.19 0
      vertex 37.75 18 3
      vertex 37.75 18 0
    endloop
  endfacet
  facet normal 0 1 -0
    outer loop
      vertex 37.75 19.19 0
      vertex 27.75 19.19 36
      vertex 37.75 19.19 36
    endloop
  endfacet
  facet normal 0 1 0
    outer loop
      vertex 27.75 19.19 36
      vertex 37.75 19.19 0
      vertex 27.75 19.19 0
    endloop
  endfacet
  facet normal 0 -1 0
    outer loop
      vertex 27.75 17.99 3
      vertex 37.75 17.99 36
      vertex 27.75 17.99 36
    endloop
  endfacet
  facet normal 0 -1 -0
    outer loop
      vertex 37.75 17.99 36
      vertex 27.75 17.99 3
      vertex 37.75 17.99 3
    endloop
  endfacet
  facet normal 0 0 1
    outer loop
      vertex 115.5 18 3
      vertex 115.49 9.1 3
      vertex 115.5 9.1 3
    endloop
  endfacet
  facet normal 0 0 1
    outer loop
      vertex 115.5 18 3
      vertex 95.5 17.99 3
      vertex 115.49 9.1 3
    endloop
  endfacet
  facet normal 0 0 1
    outer loop
      vertex 95.5 17.99 3
      vertex 115.5 18 3
      vertex 95.5 18 3
    endloop
  endfacet
  facet normal -0 0 1
    outer loop
      vertex 115.49 -9.1 3
      vertex 115.5 -18 3
      vertex 115.5 -9.1 3
    endloop
  endfacet
  facet normal 0 0 1
    outer loop
      vertex 115.49 9.1 3
      vertex 95.5 17.99 3
      vertex 115.49 -9.1 3
    endloop
  endfacet
  facet normal 0 0 1
    outer loop
      vertex 95.5 -17.99 3
      vertex 115.49 -9.1 3
      vertex 95.5 17.99 3
    endloop
  endfacet
  facet normal 0 0 1
    outer loop
      vertex 115.49 -9.1 3
      vertex 95.5 -17.99 3
      vertex 115.5 -18 3
    endloop
  endfacet
  facet normal 0 0 1
    outer loop
      vertex 115.5 -18 3
      vertex 95.5 -17.99 3
      vertex 95.5 -18 3
    endloop
  endfacet
  facet normal 0 0 1
    outer loop
      vertex -4.79999 9.79999 3
      vertex 0 -4.79999 3
      vertex 0 4.79999 3
    endloop
  endfacet
  facet normal 0 0 1
    outer loop
      vertex 0 -4.79999 3
      vertex -4.79999 9.79999 3
      vertex -4.79999 -9.79999 3
    endloop
  endfacet
  facet normal -0 0 1
    outer loop
      vertex 0 18 3
      vertex 27.75 17.99 3
      vertex 27.75 18 3
    endloop
  endfacet
  facet normal 0 0 1
    outer loop
      vertex 27.75 17.99 3
      vertex 0 4.79999 3
      vertex 27.75 -17.99 3
    endloop
  endfacet
  facet normal 0 0 1
    outer loop
      vertex 27.75 17.99 3
      vertex 0 18 3
      vertex 0 4.79999 3
    endloop
  endfacet
  facet normal -0 0 1
    outer loop
      vertex 0 -4.79999 3
      vertex 27.75 -17.99 3
      vertex 0 4.79999 3
    endloop
  endfacet
  facet normal 0 0 1
    outer loop
      vertex 0 -18 3
      vertex 27.75 -17.99 3
      vertex 0 -4.79999 3
    endloop
  endfacet
  facet normal 0 0 1
    outer loop
      vertex 27.75 -17.99 3
      vertex 0 -18 3
      vertex 27.75 -18 3
    endloop
  endfacet
  facet normal -0 0 1
    outer loop
      vertex 27.75 17.99 3
      vertex 37.75 -17.99 3
      vertex 37.75 17.99 3
    endloop
  endfacet
  facet normal 0 0 1
    outer loop
      vertex 37.75 -17.99 3
      vertex 27.75 17.99 3
      vertex 27.75 -17.99 3
    endloop
  endfacet
  facet normal 0 0 1
    outer loop
      vertex 37.75 17.99 3
      vertex 85.5 17.99 3
      vertex 85.5 18 3
    endloop
  endfacet
  facet normal 0 0 1
    outer loop
      vertex 85.5 17.99 3
      vertex 37.75 17.99 3
      vertex 85.5 -17.99 3
    endloop
  endfacet
  facet normal 0 0 1
    outer loop
      vertex 37.75 17.99 3
      vertex 85.5 18 3
      vertex 37.75 18 3
    endloop
  endfacet
  facet normal 0 0 1
    outer loop
      vertex 37.75 -17.99 3
      vertex 85.5 -17.99 3
      vertex 37.75 17.99 3
    endloop
  endfacet
  facet normal 0 0 1
    outer loop
      vertex 85.5 -17.99 3
      vertex 37.75 -17.99 3
      vertex 85.5 -18 3
    endloop
  endfacet
  facet normal 0 0 1
    outer loop
      vertex 85.5 -18 3
      vertex 37.75 -17.99 3
      vertex 37.75 -18 3
    endloop
  endfacet
  facet normal -0 0 1
    outer loop
      vertex 85.5 17.99 3
      vertex 95.5 -17.99 3
      vertex 95.5 17.99 3
    endloop
  endfacet
  facet normal 0 0 1
    outer loop
      vertex 95.5 -17.99 3
      vertex 85.5 17.99 3
      vertex 85.5 -17.99 3
    endloop
  endfacet
  facet normal 1 -0 0
    outer loop
      vertex 115.5 -18 3
      vertex 115.5 -9.1 0
      vertex 115.5 -9.1 3
    endloop
  endfacet
  facet normal 1 0 0
    outer loop
      vertex 115.5 -9.1 0
      vertex 115.5 -18 3
      vertex 115.5 -18 0
    endloop
  endfacet
  facet normal 1 -0 0
    outer loop
      vertex 115.5 9.1 3
      vertex 115.5 18 0
      vertex 115.5 18 3
    endloop
  endfacet
  facet normal 1 0 0
    outer loop
      vertex 115.5 18 0
      vertex 115.5 9.1 3
      vertex 115.5 9.1 0
    endloop
  endfacet
  facet normal 0 -1 0
    outer loop
      vertex 95.5 -18 0
      vertex 115.5 -18 3
      vertex 95.5 -18 3
    endloop
  endfacet
  facet normal 0 -1 -0
    outer loop
      vertex 115.5 -18 3
      vertex 95.5 -18 0
      vertex 115.5 -18 0
    endloop
  endfacet
  facet normal 0 -1 0
    outer loop
      vertex 0 -18 0
      vertex 27.75 -18 3
      vertex 0 -18 3
    endloop
  endfacet
  facet normal 0 -1 -0
    outer loop
      vertex 27.75 -18 3
      vertex 0 -18 0
      vertex 27.75 -18 0
    endloop
  endfacet
  facet normal 0 -1 0
    outer loop
      vertex 37.75 -18 0
      vertex 85.5 -18 3
      vertex 37.75 -18 3
    endloop
  endfacet
  facet normal 0 -1 -0
    outer loop
      vertex 85.5 -18 3
      vertex 37.75 -18 0
      vertex 85.5 -18 0
    endloop
  endfacet
  facet normal 0 1 -0
    outer loop
      vertex 115.5 18 0
      vertex 95.5 18 3
      vertex 115.5 18 3
    endloop
  endfacet
  facet normal 0 1 0
    outer loop
      vertex 95.5 18 3
      vertex 115.5 18 0
      vertex 95.5 18 0
    endloop
  endfacet
  facet normal 0 1 -0
    outer loop
      vertex 27.75 18 0
      vertex 0 18 3
      vertex 27.75 18 3
    endloop
  endfacet
  facet normal 0 1 0
    outer loop
      vertex 0 18 3
      vertex 27.75 18 0
      vertex 0 18 0
    endloop
  endfacet
  facet normal 0 1 -0
    outer loop
      vertex 85.5 18 0
      vertex 37.75 18 3
      vertex 85.5 18 3
    endloop
  endfacet
  facet normal 0 1 0
    outer loop
      vertex 37.75 18 3
      vertex 85.5 18 0
      vertex 37.75 18 0
    endloop
  endfacet
  facet normal 0.721388 -0.692531 0
    outer loop
      vertex -4.79999 -9.79999 3
      vertex 0 -4.79999 0
      vertex 0 -4.79999 3
    endloop
  endfacet
  facet normal 0.721388 -0.692531 0
    outer loop
      vertex 0 -4.79999 0
      vertex -4.79999 -9.79999 3
      vertex -4.79999 -9.79999 0
    endloop
  endfacet
  facet normal -1 0 0
    outer loop
      vertex -4.79999 -9.79999 0
      vertex -4.79999 9.79999 3
      vertex -4.79999 9.79999 0
    endloop
  endfacet
  facet normal -1 -0 0
    outer loop
      vertex -4.79999 9.79999 3
      vertex -4.79999 -9.79999 0
      vertex -4.79999 -9.79999 3
    endloop
  endfacet
  facet normal 0.721388 0.692531 0
    outer loop
      vertex 0 4.79999 3
      vertex -4.79999 9.79999 0
      vertex -4.79999 9.79999 3
    endloop
  endfacet
  facet normal 0.721388 0.692531 0
    outer loop
      vertex -4.79999 9.79999 0
      vertex 0 4.79999 3
      vertex 0 4.79999 0
    endloop
  endfacet
  facet normal -1 0 0
    outer loop
      vertex 0 4.79999 0
      vertex 0 18 3
      vertex 0 18 0
    endloop
  endfacet
  facet normal -1 -0 0
    outer loop
      vertex 0 18 3
      vertex 0 4.79999 0
      vertex 0 4.79999 3
    endloop
  endfacet
  facet normal -1 0 0
    outer loop
      vertex 0 -18 0
      vertex 0 -4.79999 3
      vertex 0 -4.79999 0
    endloop
  endfacet
  facet normal -1 -0 0
    outer loop
      vertex 0 -4.79999 3
      vertex 0 -18 0
      vertex 0 -18 3
    endloop
  endfacet
endsolid OpenSCAD_Model
