solid OpenSCAD_Model
  facet normal 0 0 1
    outer loop
      vertex -4.79999 9.79999 3
      vertex 0 -4.79999 3
      vertex 0 4.79999 3
    endloop
  endfacet
  facet normal 0 0 1
    outer loop
      vertex 0 -4.79999 3
      vertex -4.79999 9.79999 3
      vertex -4.79999 -9.79999 3
    endloop
  endfacet
  facet normal 0 0 1
    outer loop
      vertex 0 4.79999 3
      vertex 114 17 3
      vertex 0 17 3
    endloop
  endfacet
  facet normal 0 0 1
    outer loop
      vertex 114 17 3
      vertex 0 4.79999 3
      vertex 114 -17 3
    endloop
  endfacet
  facet normal -0 0 1
    outer loop
      vertex 0 -4.79999 3
      vertex 114 -17 3
      vertex 0 4.79999 3
    endloop
  endfacet
  facet normal 0 0 1
    outer loop
      vertex 114 -17 3
      vertex 0 -4.79999 3
      vertex 0 -17 3
    endloop
  endfacet
  facet normal 1 -0 0
    outer loop
      vertex 114 -17 3
      vertex 114 17 0
      vertex 114 17 3
    endloop
  endfacet
  facet normal 1 0 0
    outer loop
      vertex 114 17 0
      vertex 114 -17 3
      vertex 114 -17 0
    endloop
  endfacet
  facet normal 0 1 -0
    outer loop
      vertex 114 17 0
      vertex 0 17 3
      vertex 114 17 3
    endloop
  endfacet
  facet normal 0 1 0
    outer loop
      vertex 0 17 3
      vertex 114 17 0
      vertex 0 17 0
    endloop
  endfacet
  facet normal 0 0 -1
    outer loop
      vertex -4.79999 -9.79999 0
      vertex 0 4.79999 0
      vertex 0 -4.79999 0
    endloop
  endfacet
  facet normal -0 0 -1
    outer loop
      vertex 0 4.79999 0
      vertex -4.79999 -9.79999 0
      vertex -4.79999 9.79999 0
    endloop
  endfacet
  facet normal 0 0 -1
    outer loop
      vertex 0 -4.79999 0
      vertex 114 -17 0
      vertex 0 -17 0
    endloop
  endfacet
  facet normal 0 0 -1
    outer loop
      vertex 114 -17 0
      vertex 0 -4.79999 0
      vertex 114 17 0
    endloop
  endfacet
  facet normal 0 0 -1
    outer loop
      vertex 0 4.79999 0
      vertex 114 17 0
      vertex 0 -4.79999 0
    endloop
  endfacet
  facet normal -0 0 -1
    outer loop
      vertex 114 17 0
      vertex 0 4.79999 0
      vertex 0 17 0
    endloop
  endfacet
  facet normal 0 -1 0
    outer loop
      vertex 0 -17 0
      vertex 114 -17 3
      vertex 0 -17 3
    endloop
  endfacet
  facet normal 0 -1 -0
    outer loop
      vertex 114 -17 3
      vertex 0 -17 0
      vertex 114 -17 0
    endloop
  endfacet
  facet normal 0.721388 -0.692531 0
    outer loop
      vertex -4.79999 -9.79999 3
      vertex 0 -4.79999 0
      vertex 0 -4.79999 3
    endloop
  endfacet
  facet normal 0.721388 -0.692531 0
    outer loop
      vertex 0 -4.79999 0
      vertex -4.79999 -9.79999 3
      vertex -4.79999 -9.79999 0
    endloop
  endfacet
  facet normal -1 0 0
    outer loop
      vertex -4.79999 -9.79999 0
      vertex -4.79999 9.79999 3
      vertex -4.79999 9.79999 0
    endloop
  endfacet
  facet normal -1 -0 0
    outer loop
      vertex -4.79999 9.79999 3
      vertex -4.79999 -9.79999 0
      vertex -4.79999 -9.79999 3
    endloop
  endfacet
  facet normal 0.721388 0.692531 0
    outer loop
      vertex 0 4.79999 3
      vertex -4.79999 9.79999 0
      vertex -4.79999 9.79999 3
    endloop
  endfacet
  facet normal 0.721388 0.692531 0
    outer loop
      vertex -4.79999 9.79999 0
      vertex 0 4.79999 3
      vertex 0 4.79999 0
    endloop
  endfacet
  facet normal -1 0 0
    outer loop
      vertex 0 4.79999 0
      vertex 0 17 3
      vertex 0 17 0
    endloop
  endfacet
  facet normal -1 -0 0
    outer loop
      vertex 0 17 3
      vertex 0 4.79999 0
      vertex 0 4.79999 3
    endloop
  endfacet
  facet normal -1 0 0
    outer loop
      vertex 0 -17 0
      vertex 0 -4.79999 3
      vertex 0 -4.79999 0
    endloop
  endfacet
  facet normal -1 -0 0
    outer loop
      vertex 0 -4.79999 3
      vertex 0 -17 0
      vertex 0 -17 3
    endloop
  endfacet
endsolid OpenSCAD_Model
