solid OpenSCAD_Model
  facet normal 1 -0 0
    outer loop
      vertex -20.49 -5 42.4
      vertex -20.49 5 1.2
      vertex -20.49 5 42.4
    endloop
  endfacet
  facet normal 1 0 0
    outer loop
      vertex -20.49 5 1.2
      vertex -20.49 -5 42.4
      vertex -20.49 -5 1.2
    endloop
  endfacet
  facet normal -0 0 1
    outer loop
      vertex -22.29 5 42.4
      vertex -20.49 -5 42.4
      vertex -20.49 5 42.4
    endloop
  endfacet
  facet normal 0 0 1
    outer loop
      vertex -20.49 -5 42.4
      vertex -22.29 5 42.4
      vertex -22.29 -5 42.4
    endloop
  endfacet
  facet normal -1 0 0
    outer loop
      vertex -22.29 -5 0
      vertex -22.29 5 42.4
      vertex -22.29 5 0
    endloop
  endfacet
  facet normal -1 -0 0
    outer loop
      vertex -22.29 5 42.4
      vertex -22.29 -5 0
      vertex -22.29 -5 42.4
    endloop
  endfacet
  facet normal 0 1 0
    outer loop
      vertex -20.5 5 1.2
      vertex -20.49 5 42.4
      vertex -20.49 5 1.2
    endloop
  endfacet
  facet normal 0 1 0
    outer loop
      vertex -20.49 5 42.4
      vertex -20.5 5 1.2
      vertex -22.29 5 42.4
    endloop
  endfacet
  facet normal 0 1 0
    outer loop
      vertex -22.29 5 0
      vertex -20.5 5 1.2
      vertex -20.5 5 0
    endloop
  endfacet
  facet normal 0 1 0
    outer loop
      vertex -20.5 5 1.2
      vertex -22.29 5 0
      vertex -22.29 5 42.4
    endloop
  endfacet
  facet normal 0 0 -1
    outer loop
      vertex -22.29 -5 0
      vertex -20.5 5 0
      vertex -20.5 -5 0
    endloop
  endfacet
  facet normal -0 0 -1
    outer loop
      vertex -20.5 5 0
      vertex -22.29 -5 0
      vertex -22.29 5 0
    endloop
  endfacet
  facet normal 0 0 -1
    outer loop
      vertex -20.5 -5 0
      vertex -10.5 -18 0
      vertex -20.5 -18 0
    endloop
  endfacet
  facet normal 0 0 -1
    outer loop
      vertex -10.5 -18 0
      vertex -20.5 -5 0
      vertex -10.5 18 0
    endloop
  endfacet
  facet normal 0 0 -1
    outer loop
      vertex -20.5 5 0
      vertex -10.5 18 0
      vertex -20.5 -5 0
    endloop
  endfacet
  facet normal -0 0 -1
    outer loop
      vertex -10.5 18 0
      vertex -20.5 5 0
      vertex -20.5 18 0
    endloop
  endfacet
  facet normal 0 0 -1
    outer loop
      vertex -10.5 -18 0
      vertex 10.5 -18 0
      vertex 10.5 -19.79 0
    endloop
  endfacet
  facet normal 0 0 -1
    outer loop
      vertex 10.5 -18 0
      vertex -10.5 -18 0
      vertex 10.5 18 0
    endloop
  endfacet
  facet normal 0 0 -1
    outer loop
      vertex -10.5 -18 0
      vertex 10.5 -19.79 0
      vertex -10.5 -19.79 0
    endloop
  endfacet
  facet normal 0 0 -1
    outer loop
      vertex -10.5 18 0
      vertex 10.5 18 0
      vertex -10.5 -18 0
    endloop
  endfacet
  facet normal 0 0 -1
    outer loop
      vertex 10.5 18 0
      vertex -10.5 18 0
      vertex 10.5 19.79 0
    endloop
  endfacet
  facet normal -0 0 -1
    outer loop
      vertex 10.5 19.79 0
      vertex -10.5 18 0
      vertex -10.5 19.79 0
    endloop
  endfacet
  facet normal 0 0 -1
    outer loop
      vertex 10.5 -18 0
      vertex 20.5 -5 0
      vertex 20.5 -18 0
    endloop
  endfacet
  facet normal -0 0 -1
    outer loop
      vertex 20.5 -5 0
      vertex 10.5 -18 0
      vertex 20.5 5 0
    endloop
  endfacet
  facet normal 0 0 -1
    outer loop
      vertex 10.5 18 0
      vertex 20.5 5 0
      vertex 10.5 -18 0
    endloop
  endfacet
  facet normal 0 0 -1
    outer loop
      vertex 20.5 5 0
      vertex 10.5 18 0
      vertex 20.5 18 0
    endloop
  endfacet
  facet normal 0 0 -1
    outer loop
      vertex 20.5 -5 0
      vertex 22.29 5 0
      vertex 22.29 -5 0
    endloop
  endfacet
  facet normal -0 0 -1
    outer loop
      vertex 22.29 5 0
      vertex 20.5 -5 0
      vertex 20.5 5 0
    endloop
  endfacet
  facet normal 0 -1 0
    outer loop
      vertex -22.29 -5 42.4
      vertex -20.5 -5 1.2
      vertex -20.49 -5 42.4
    endloop
  endfacet
  facet normal 0 -1 0
    outer loop
      vertex -22.29 -5 0
      vertex -20.5 -5 1.2
      vertex -22.29 -5 42.4
    endloop
  endfacet
  facet normal 0 -1 -0
    outer loop
      vertex -20.5 -5 1.2
      vertex -22.29 -5 0
      vertex -20.5 -5 0
    endloop
  endfacet
  facet normal 0 -1 -0
    outer loop
      vertex -20.49 -5 42.4
      vertex -20.5 -5 1.2
      vertex -20.49 -5 1.2
    endloop
  endfacet
  facet normal -0 0 1
    outer loop
      vertex -10.5 19.79 42.4
      vertex 10.5 17.99 42.4
      vertex 10.5 19.79 42.4
    endloop
  endfacet
  facet normal 0 0 1
    outer loop
      vertex 10.5 17.99 42.4
      vertex -10.5 19.79 42.4
      vertex -10.5 17.99 42.4
    endloop
  endfacet
  facet normal -1 0 0
    outer loop
      vertex -10.5 18 1.2
      vertex -10.5 19.79 0
      vertex -10.5 18 0
    endloop
  endfacet
  facet normal -1 0 0
    outer loop
      vertex -10.5 19.79 0
      vertex -10.5 18 1.2
      vertex -10.5 19.79 42.4
    endloop
  endfacet
  facet normal -1 0 0
    outer loop
      vertex -10.5 17.99 42.4
      vertex -10.5 18 1.2
      vertex -10.5 17.99 1.2
    endloop
  endfacet
  facet normal -1 0 0
    outer loop
      vertex -10.5 18 1.2
      vertex -10.5 17.99 42.4
      vertex -10.5 19.79 42.4
    endloop
  endfacet
  facet normal 0 -1 0
    outer loop
      vertex -10.5 17.99 1.2
      vertex 10.5 17.99 42.4
      vertex -10.5 17.99 42.4
    endloop
  endfacet
  facet normal 0 -1 -0
    outer loop
      vertex 10.5 17.99 42.4
      vertex -10.5 17.99 1.2
      vertex 10.5 17.99 1.2
    endloop
  endfacet
  facet normal 0 1 -0
    outer loop
      vertex 10.5 19.79 0
      vertex -10.5 19.79 42.4
      vertex 10.5 19.79 42.4
    endloop
  endfacet
  facet normal 0 1 0
    outer loop
      vertex -10.5 19.79 42.4
      vertex 10.5 19.79 0
      vertex -10.5 19.79 0
    endloop
  endfacet
  facet normal -0 0 1
    outer loop
      vertex -10.5 -17.99 42.4
      vertex 10.5 -19.79 42.4
      vertex 10.5 -17.99 42.4
    endloop
  endfacet
  facet normal 0 0 1
    outer loop
      vertex 10.5 -19.79 42.4
      vertex -10.5 -17.99 42.4
      vertex -10.5 -19.79 42.4
    endloop
  endfacet
  facet normal 1 0 0
    outer loop
      vertex 10.5 -17.99 42.4
      vertex 10.5 -18 1.2
      vertex 10.5 -17.99 1.2
    endloop
  endfacet
  facet normal 1 -0 0
    outer loop
      vertex 10.5 -19.79 42.4
      vertex 10.5 -18 1.2
      vertex 10.5 -17.99 42.4
    endloop
  endfacet
  facet normal 1 0 0
    outer loop
      vertex 10.5 -19.79 0
      vertex 10.5 -18 1.2
      vertex 10.5 -19.79 42.4
    endloop
  endfacet
  facet normal 1 0 0
    outer loop
      vertex 10.5 -18 1.2
      vertex 10.5 -19.79 0
      vertex 10.5 -18 0
    endloop
  endfacet
  facet normal 0 1 -0
    outer loop
      vertex 10.5 -17.99 1.2
      vertex -10.5 -17.99 42.4
      vertex 10.5 -17.99 42.4
    endloop
  endfacet
  facet normal 0 1 0
    outer loop
      vertex -10.5 -17.99 42.4
      vertex 10.5 -17.99 1.2
      vertex -10.5 -17.99 1.2
    endloop
  endfacet
  facet normal 0 -1 0
    outer loop
      vertex -10.5 -19.79 0
      vertex 10.5 -19.79 42.4
      vertex -10.5 -19.79 42.4
    endloop
  endfacet
  facet normal 0 -1 -0
    outer loop
      vertex 10.5 -19.79 42.4
      vertex -10.5 -19.79 0
      vertex 10.5 -19.79 0
    endloop
  endfacet
  facet normal -1 0 0
    outer loop
      vertex 20.49 -5 1.2
      vertex 20.49 5 42.4
      vertex 20.49 5 1.2
    endloop
  endfacet
  facet normal -1 -0 0
    outer loop
      vertex 20.49 5 42.4
      vertex 20.49 -5 1.2
      vertex 20.49 -5 42.4
    endloop
  endfacet
  facet normal -0 0 1
    outer loop
      vertex 20.49 5 42.4
      vertex 22.29 -5 42.4
      vertex 22.29 5 42.4
    endloop
  endfacet
  facet normal 0 0 1
    outer loop
      vertex 22.29 -5 42.4
      vertex 20.49 5 42.4
      vertex 20.49 -5 42.4
    endloop
  endfacet
  facet normal 1 -0 0
    outer loop
      vertex 22.29 -5 42.4
      vertex 22.29 5 0
      vertex 22.29 5 42.4
    endloop
  endfacet
  facet normal 1 0 0
    outer loop
      vertex 22.29 5 0
      vertex 22.29 -5 42.4
      vertex 22.29 -5 0
    endloop
  endfacet
  facet normal 0 -1 0
    outer loop
      vertex 20.5 -5 1.2
      vertex 20.49 -5 42.4
      vertex 20.49 -5 1.2
    endloop
  endfacet
  facet normal 0 -1 0
    outer loop
      vertex 20.49 -5 42.4
      vertex 20.5 -5 1.2
      vertex 22.29 -5 42.4
    endloop
  endfacet
  facet normal 0 -1 0
    outer loop
      vertex 22.29 -5 0
      vertex 20.5 -5 1.2
      vertex 20.5 -5 0
    endloop
  endfacet
  facet normal 0 -1 0
    outer loop
      vertex 20.5 -5 1.2
      vertex 22.29 -5 0
      vertex 22.29 -5 42.4
    endloop
  endfacet
  facet normal 0 1 0
    outer loop
      vertex 22.29 5 42.4
      vertex 20.5 5 1.2
      vertex 20.49 5 42.4
    endloop
  endfacet
  facet normal 0 1 -0
    outer loop
      vertex 22.29 5 0
      vertex 20.5 5 1.2
      vertex 22.29 5 42.4
    endloop
  endfacet
  facet normal 0 1 0
    outer loop
      vertex 20.5 5 1.2
      vertex 22.29 5 0
      vertex 20.5 5 0
    endloop
  endfacet
  facet normal 0 1 0
    outer loop
      vertex 20.49 5 42.4
      vertex 20.5 5 1.2
      vertex 20.49 5 1.2
    endloop
  endfacet
  facet normal 1 0 0
    outer loop
      vertex 10.5 19.79 42.4
      vertex 10.5 18 1.2
      vertex 10.5 19.79 0
    endloop
  endfacet
  facet normal 1 -0 0
    outer loop
      vertex 10.5 17.99 42.4
      vertex 10.5 18 1.2
      vertex 10.5 19.79 42.4
    endloop
  endfacet
  facet normal 1 0 0
    outer loop
      vertex 10.5 18 1.2
      vertex 10.5 17.99 42.4
      vertex 10.5 17.99 1.2
    endloop
  endfacet
  facet normal 1 0 0
    outer loop
      vertex 10.5 19.79 0
      vertex 10.5 18 1.2
      vertex 10.5 18 0
    endloop
  endfacet
  facet normal -1 0 0
    outer loop
      vertex -10.5 -18 0
      vertex -10.5 -19.79 0
      vertex -10.5 -18 1.2
    endloop
  endfacet
  facet normal -1 0 0
    outer loop
      vertex -10.5 -18 1.2
      vertex -10.5 -17.99 42.4
      vertex -10.5 -17.99 1.2
    endloop
  endfacet
  facet normal -1 0 0
    outer loop
      vertex -10.5 -19.79 42.4
      vertex -10.5 -18 1.2
      vertex -10.5 -19.79 0
    endloop
  endfacet
  facet normal -1 0 0
    outer loop
      vertex -10.5 -18 1.2
      vertex -10.5 -19.79 42.4
      vertex -10.5 -17.99 42.4
    endloop
  endfacet
  facet normal -1 0 0
    outer loop
      vertex -20.5 -18 0
      vertex -20.5 -5 1.2
      vertex -20.5 -5 0
    endloop
  endfacet
  facet normal -1 -0 0
    outer loop
      vertex -20.5 -5 1.2
      vertex -20.5 -18 0
      vertex -20.5 -18 1.2
    endloop
  endfacet
  facet normal -1 0 0
    outer loop
      vertex -20.5 5 0
      vertex -20.5 18 1.2
      vertex -20.5 18 0
    endloop
  endfacet
  facet normal -1 -0 0
    outer loop
      vertex -20.5 18 1.2
      vertex -20.5 5 0
      vertex -20.5 5 1.2
    endloop
  endfacet
  facet normal 0 0 1
    outer loop
      vertex 20.5 18 1.2
      vertex 20.49 5 1.2
      vertex 20.5 5 1.2
    endloop
  endfacet
  facet normal 0 0 1
    outer loop
      vertex 20.5 18 1.2
      vertex 10.5 17.99 1.2
      vertex 20.49 5 1.2
    endloop
  endfacet
  facet normal 0 0 1
    outer loop
      vertex 10.5 17.99 1.2
      vertex 20.5 18 1.2
      vertex 10.5 18 1.2
    endloop
  endfacet
  facet normal -0 0 1
    outer loop
      vertex 20.49 -5 1.2
      vertex 20.5 -18 1.2
      vertex 20.5 -5 1.2
    endloop
  endfacet
  facet normal 0 0 1
    outer loop
      vertex 20.49 5 1.2
      vertex 10.5 17.99 1.2
      vertex 20.49 -5 1.2
    endloop
  endfacet
  facet normal 0 0 1
    outer loop
      vertex 10.5 -17.99 1.2
      vertex 20.49 -5 1.2
      vertex 10.5 17.99 1.2
    endloop
  endfacet
  facet normal 0 0 1
    outer loop
      vertex 20.49 -5 1.2
      vertex 10.5 -17.99 1.2
      vertex 20.5 -18 1.2
    endloop
  endfacet
  facet normal 0 0 1
    outer loop
      vertex 20.5 -18 1.2
      vertex 10.5 -17.99 1.2
      vertex 10.5 -18 1.2
    endloop
  endfacet
  facet normal -0 0 1
    outer loop
      vertex -20.5 18 1.2
      vertex -10.5 17.99 1.2
      vertex -10.5 18 1.2
    endloop
  endfacet
  facet normal 0 0 1
    outer loop
      vertex -10.5 17.99 1.2
      vertex -20.49 5 1.2
      vertex -10.5 -17.99 1.2
    endloop
  endfacet
  facet normal -0 0 1
    outer loop
      vertex -20.49 -5 1.2
      vertex -10.5 -17.99 1.2
      vertex -20.49 5 1.2
    endloop
  endfacet
  facet normal 0 0 1
    outer loop
      vertex -10.5 17.99 1.2
      vertex -20.5 18 1.2
      vertex -20.49 5 1.2
    endloop
  endfacet
  facet normal 0 0 1
    outer loop
      vertex -20.49 5 1.2
      vertex -20.5 18 1.2
      vertex -20.5 5 1.2
    endloop
  endfacet
  facet normal -0 0 1
    outer loop
      vertex -10.5 17.99 1.2
      vertex 10.5 -17.99 1.2
      vertex 10.5 17.99 1.2
    endloop
  endfacet
  facet normal 0 0 1
    outer loop
      vertex 10.5 -17.99 1.2
      vertex -10.5 17.99 1.2
      vertex -10.5 -17.99 1.2
    endloop
  endfacet
  facet normal 0 0 1
    outer loop
      vertex -20.5 -18 1.2
      vertex -10.5 -17.99 1.2
      vertex -20.49 -5 1.2
    endloop
  endfacet
  facet normal 0 0 1
    outer loop
      vertex -20.5 -18 1.2
      vertex -20.49 -5 1.2
      vertex -20.5 -5 1.2
    endloop
  endfacet
  facet normal 0 0 1
    outer loop
      vertex -10.5 -17.99 1.2
      vertex -20.5 -18 1.2
      vertex -10.5 -18 1.2
    endloop
  endfacet
  facet normal 1 -0 0
    outer loop
      vertex 20.5 -18 1.2
      vertex 20.5 -5 0
      vertex 20.5 -5 1.2
    endloop
  endfacet
  facet normal 1 0 0
    outer loop
      vertex 20.5 -5 0
      vertex 20.5 -18 1.2
      vertex 20.5 -18 0
    endloop
  endfacet
  facet normal 1 -0 0
    outer loop
      vertex 20.5 5 1.2
      vertex 20.5 18 0
      vertex 20.5 18 1.2
    endloop
  endfacet
  facet normal 1 0 0
    outer loop
      vertex 20.5 18 0
      vertex 20.5 5 1.2
      vertex 20.5 5 0
    endloop
  endfacet
  facet normal 0 -1 0
    outer loop
      vertex 10.5 -18 0
      vertex 20.5 -18 1.2
      vertex 10.5 -18 1.2
    endloop
  endfacet
  facet normal 0 -1 -0
    outer loop
      vertex 20.5 -18 1.2
      vertex 10.5 -18 0
      vertex 20.5 -18 0
    endloop
  endfacet
  facet normal 0 -1 0
    outer loop
      vertex -20.5 -18 0
      vertex -10.5 -18 1.2
      vertex -20.5 -18 1.2
    endloop
  endfacet
  facet normal 0 -1 -0
    outer loop
      vertex -10.5 -18 1.2
      vertex -20.5 -18 0
      vertex -10.5 -18 0
    endloop
  endfacet
  facet normal 0 1 -0
    outer loop
      vertex 20.5 18 0
      vertex 10.5 18 1.2
      vertex 20.5 18 1.2
    endloop
  endfacet
  facet normal 0 1 0
    outer loop
      vertex 10.5 18 1.2
      vertex 20.5 18 0
      vertex 10.5 18 0
    endloop
  endfacet
  facet normal 0 1 -0
    outer loop
      vertex -10.5 18 0
      vertex -20.5 18 1.2
      vertex -10.5 18 1.2
    endloop
  endfacet
  facet normal 0 1 0
    outer loop
      vertex -20.5 18 1.2
      vertex -10.5 18 0
      vertex -20.5 18 0
    endloop
  endfacet
endsolid OpenSCAD_Model
