solid OpenSCAD_Model
  facet normal 1 0 0
    outer loop
      vertex -85.5 -17.99 34
      vertex -85.5 -18 2
      vertex -85.5 -17.99 2
    endloop
  endfacet
  facet normal 1 -0 0
    outer loop
      vertex -85.5 -19.19 34
      vertex -85.5 -18 2
      vertex -85.5 -17.99 34
    endloop
  endfacet
  facet normal 1 0 0
    outer loop
      vertex -85.5 -19.19 0
      vertex -85.5 -18 2
      vertex -85.5 -19.19 34
    endloop
  endfacet
  facet normal 1 0 0
    outer loop
      vertex -85.5 -18 2
      vertex -85.5 -19.19 0
      vertex -85.5 -18 0
    endloop
  endfacet
  facet normal -0 0 1
    outer loop
      vertex -95.5 -17.99 34
      vertex -85.5 -19.19 34
      vertex -85.5 -17.99 34
    endloop
  endfacet
  facet normal 0 0 1
    outer loop
      vertex -85.5 -19.19 34
      vertex -95.5 -17.99 34
      vertex -95.5 -19.19 34
    endloop
  endfacet
  facet normal -1 0 0
    outer loop
      vertex -95.5 -18 0
      vertex -95.5 -19.19 0
      vertex -95.5 -18 2
    endloop
  endfacet
  facet normal -1 0 0
    outer loop
      vertex -95.5 -18 2
      vertex -95.5 -17.99 34
      vertex -95.5 -17.99 2
    endloop
  endfacet
  facet normal -1 0 0
    outer loop
      vertex -95.5 -19.19 34
      vertex -95.5 -18 2
      vertex -95.5 -19.19 0
    endloop
  endfacet
  facet normal -1 0 0
    outer loop
      vertex -95.5 -18 2
      vertex -95.5 -19.19 34
      vertex -95.5 -17.99 34
    endloop
  endfacet
  facet normal 0 -1 0
    outer loop
      vertex -95.5 -19.19 0
      vertex -85.5 -19.19 34
      vertex -95.5 -19.19 34
    endloop
  endfacet
  facet normal 0 -1 -0
    outer loop
      vertex -85.5 -19.19 34
      vertex -95.5 -19.19 0
      vertex -85.5 -19.19 0
    endloop
  endfacet
  facet normal 0 0 -1
    outer loop
      vertex -116.69 -9.1 0
      vertex -115.5 9.1 0
      vertex -115.5 -9.1 0
    endloop
  endfacet
  facet normal -0 0 -1
    outer loop
      vertex -115.5 9.1 0
      vertex -116.69 -9.1 0
      vertex -116.69 9.1 0
    endloop
  endfacet
  facet normal 0 0 -1
    outer loop
      vertex -115.5 -9.1 0
      vertex -95.5 -18 0
      vertex -115.5 -18 0
    endloop
  endfacet
  facet normal 0 0 -1
    outer loop
      vertex -95.5 -18 0
      vertex -115.5 -9.1 0
      vertex -95.5 18 0
    endloop
  endfacet
  facet normal 0 0 -1
    outer loop
      vertex -115.5 9.1 0
      vertex -95.5 18 0
      vertex -115.5 -9.1 0
    endloop
  endfacet
  facet normal -0 0 -1
    outer loop
      vertex -95.5 18 0
      vertex -115.5 9.1 0
      vertex -115.5 18 0
    endloop
  endfacet
  facet normal 0 0 -1
    outer loop
      vertex -95.5 -18 0
      vertex -85.5 -18 0
      vertex -85.5 -19.19 0
    endloop
  endfacet
  facet normal 0 0 -1
    outer loop
      vertex -85.5 -18 0
      vertex -95.5 -18 0
      vertex -85.5 18 0
    endloop
  endfacet
  facet normal 0 0 -1
    outer loop
      vertex -95.5 -18 0
      vertex -85.5 -19.19 0
      vertex -95.5 -19.19 0
    endloop
  endfacet
  facet normal 0 0 -1
    outer loop
      vertex -95.5 18 0
      vertex -85.5 18 0
      vertex -95.5 -18 0
    endloop
  endfacet
  facet normal 0 0 -1
    outer loop
      vertex -85.5 18 0
      vertex -95.5 18 0
      vertex -85.5 19.19 0
    endloop
  endfacet
  facet normal -0 0 -1
    outer loop
      vertex -85.5 19.19 0
      vertex -95.5 18 0
      vertex -95.5 19.19 0
    endloop
  endfacet
  facet normal 0 0 -1
    outer loop
      vertex -85.5 -18 0
      vertex -37.75 18 0
      vertex -37.75 -18 0
    endloop
  endfacet
  facet normal -0 0 -1
    outer loop
      vertex -37.75 18 0
      vertex -85.5 -18 0
      vertex -85.5 18 0
    endloop
  endfacet
  facet normal 0 0 -1
    outer loop
      vertex -37.75 -18 0
      vertex -27.75 -18 0
      vertex -27.75 -19.19 0
    endloop
  endfacet
  facet normal 0 0 -1
    outer loop
      vertex -27.75 -18 0
      vertex -37.75 -18 0
      vertex -27.75 18 0
    endloop
  endfacet
  facet normal 0 0 -1
    outer loop
      vertex -37.75 -18 0
      vertex -27.75 -19.19 0
      vertex -37.75 -19.19 0
    endloop
  endfacet
  facet normal 0 0 -1
    outer loop
      vertex -37.75 18 0
      vertex -27.75 18 0
      vertex -37.75 -18 0
    endloop
  endfacet
  facet normal 0 0 -1
    outer loop
      vertex -27.75 18 0
      vertex -37.75 18 0
      vertex -27.75 19.19 0
    endloop
  endfacet
  facet normal -0 0 -1
    outer loop
      vertex -27.75 19.19 0
      vertex -37.75 18 0
      vertex -37.75 19.19 0
    endloop
  endfacet
  facet normal 0 0 -1
    outer loop
      vertex -27.75 -18 0
      vertex 27.75 18 0
      vertex 27.75 -18 0
    endloop
  endfacet
  facet normal -0 0 -1
    outer loop
      vertex 27.75 18 0
      vertex -27.75 -18 0
      vertex -27.75 18 0
    endloop
  endfacet
  facet normal 0 0 -1
    outer loop
      vertex 27.75 -18 0
      vertex 37.75 -18 0
      vertex 37.75 -19.19 0
    endloop
  endfacet
  facet normal 0 0 -1
    outer loop
      vertex 37.75 -18 0
      vertex 27.75 -18 0
      vertex 37.75 18 0
    endloop
  endfacet
  facet normal 0 0 -1
    outer loop
      vertex 27.75 -18 0
      vertex 37.75 -19.19 0
      vertex 27.75 -19.19 0
    endloop
  endfacet
  facet normal 0 0 -1
    outer loop
      vertex 27.75 18 0
      vertex 37.75 18 0
      vertex 27.75 -18 0
    endloop
  endfacet
  facet normal 0 0 -1
    outer loop
      vertex 37.75 18 0
      vertex 27.75 18 0
      vertex 37.75 19.19 0
    endloop
  endfacet
  facet normal -0 0 -1
    outer loop
      vertex 37.75 19.19 0
      vertex 27.75 18 0
      vertex 27.75 19.19 0
    endloop
  endfacet
  facet normal 0 0 -1
    outer loop
      vertex 37.75 -18 0
      vertex 85.5 18 0
      vertex 85.5 -18 0
    endloop
  endfacet
  facet normal -0 0 -1
    outer loop
      vertex 85.5 18 0
      vertex 37.75 -18 0
      vertex 37.75 18 0
    endloop
  endfacet
  facet normal 0 0 -1
    outer loop
      vertex 85.5 -18 0
      vertex 95.5 -18 0
      vertex 95.5 -19.19 0
    endloop
  endfacet
  facet normal 0 0 -1
    outer loop
      vertex 95.5 -18 0
      vertex 85.5 -18 0
      vertex 95.5 18 0
    endloop
  endfacet
  facet normal 0 0 -1
    outer loop
      vertex 85.5 -18 0
      vertex 95.5 -19.19 0
      vertex 85.5 -19.19 0
    endloop
  endfacet
  facet normal 0 0 -1
    outer loop
      vertex 85.5 18 0
      vertex 95.5 18 0
      vertex 85.5 -18 0
    endloop
  endfacet
  facet normal 0 0 -1
    outer loop
      vertex 95.5 18 0
      vertex 85.5 18 0
      vertex 95.5 19.19 0
    endloop
  endfacet
  facet normal -0 0 -1
    outer loop
      vertex 95.5 19.19 0
      vertex 85.5 18 0
      vertex 85.5 19.19 0
    endloop
  endfacet
  facet normal 0 0 -1
    outer loop
      vertex 95.5 -18 0
      vertex 115.5 -9.1 0
      vertex 115.5 -18 0
    endloop
  endfacet
  facet normal -0 0 -1
    outer loop
      vertex 115.5 -9.1 0
      vertex 95.5 -18 0
      vertex 115.5 9.1 0
    endloop
  endfacet
  facet normal 0 0 -1
    outer loop
      vertex 95.5 18 0
      vertex 115.5 9.1 0
      vertex 95.5 -18 0
    endloop
  endfacet
  facet normal 0 0 -1
    outer loop
      vertex 115.5 9.1 0
      vertex 95.5 18 0
      vertex 115.5 18 0
    endloop
  endfacet
  facet normal 0 0 -1
    outer loop
      vertex 115.5 -9.1 0
      vertex 116.69 9.1 0
      vertex 116.69 -9.1 0
    endloop
  endfacet
  facet normal -0 0 -1
    outer loop
      vertex 116.69 9.1 0
      vertex 115.5 -9.1 0
      vertex 115.5 9.1 0
    endloop
  endfacet
  facet normal 0 1 -0
    outer loop
      vertex -85.5 -17.99 2
      vertex -95.5 -17.99 34
      vertex -85.5 -17.99 34
    endloop
  endfacet
  facet normal 0 1 0
    outer loop
      vertex -95.5 -17.99 34
      vertex -85.5 -17.99 2
      vertex -95.5 -17.99 2
    endloop
  endfacet
  facet normal 1 0 0
    outer loop
      vertex -27.75 -17.99 34
      vertex -27.75 -18 2
      vertex -27.75 -17.99 2
    endloop
  endfacet
  facet normal 1 -0 0
    outer loop
      vertex -27.75 -19.19 34
      vertex -27.75 -18 2
      vertex -27.75 -17.99 34
    endloop
  endfacet
  facet normal 1 0 0
    outer loop
      vertex -27.75 -19.19 0
      vertex -27.75 -18 2
      vertex -27.75 -19.19 34
    endloop
  endfacet
  facet normal 1 0 0
    outer loop
      vertex -27.75 -18 2
      vertex -27.75 -19.19 0
      vertex -27.75 -18 0
    endloop
  endfacet
  facet normal -0 0 1
    outer loop
      vertex -37.75 -17.99 34
      vertex -27.75 -19.19 34
      vertex -27.75 -17.99 34
    endloop
  endfacet
  facet normal 0 0 1
    outer loop
      vertex -27.75 -19.19 34
      vertex -37.75 -17.99 34
      vertex -37.75 -19.19 34
    endloop
  endfacet
  facet normal -1 0 0
    outer loop
      vertex -37.75 -18 0
      vertex -37.75 -19.19 0
      vertex -37.75 -18 2
    endloop
  endfacet
  facet normal -1 0 0
    outer loop
      vertex -37.75 -18 2
      vertex -37.75 -17.99 34
      vertex -37.75 -17.99 2
    endloop
  endfacet
  facet normal -1 0 0
    outer loop
      vertex -37.75 -19.19 34
      vertex -37.75 -18 2
      vertex -37.75 -19.19 0
    endloop
  endfacet
  facet normal -1 0 0
    outer loop
      vertex -37.75 -18 2
      vertex -37.75 -19.19 34
      vertex -37.75 -17.99 34
    endloop
  endfacet
  facet normal 0 1 -0
    outer loop
      vertex -27.75 -17.99 2
      vertex -37.75 -17.99 34
      vertex -27.75 -17.99 34
    endloop
  endfacet
  facet normal 0 1 0
    outer loop
      vertex -37.75 -17.99 34
      vertex -27.75 -17.99 2
      vertex -37.75 -17.99 2
    endloop
  endfacet
  facet normal 0 -1 0
    outer loop
      vertex -37.75 -19.19 0
      vertex -27.75 -19.19 34
      vertex -37.75 -19.19 34
    endloop
  endfacet
  facet normal 0 -1 -0
    outer loop
      vertex -27.75 -19.19 34
      vertex -37.75 -19.19 0
      vertex -27.75 -19.19 0
    endloop
  endfacet
  facet normal -1 0 0
    outer loop
      vertex 85.5 -18 2
      vertex 85.5 -17.99 34
      vertex 85.5 -17.99 2
    endloop
  endfacet
  facet normal -1 0 0
    outer loop
      vertex 85.5 -19.19 34
      vertex 85.5 -18 2
      vertex 85.5 -19.19 0
    endloop
  endfacet
  facet normal -1 0 0
    outer loop
      vertex 85.5 -18 2
      vertex 85.5 -19.19 34
      vertex 85.5 -17.99 34
    endloop
  endfacet
  facet normal -1 0 0
    outer loop
      vertex 85.5 -18 0
      vertex 85.5 -19.19 0
      vertex 85.5 -18 2
    endloop
  endfacet
  facet normal -0 0 1
    outer loop
      vertex 85.5 -17.99 34
      vertex 95.5 -19.19 34
      vertex 95.5 -17.99 34
    endloop
  endfacet
  facet normal 0 0 1
    outer loop
      vertex 95.5 -19.19 34
      vertex 85.5 -17.99 34
      vertex 85.5 -19.19 34
    endloop
  endfacet
  facet normal 1 0 0
    outer loop
      vertex 95.5 -17.99 34
      vertex 95.5 -18 2
      vertex 95.5 -17.99 2
    endloop
  endfacet
  facet normal 1 -0 0
    outer loop
      vertex 95.5 -19.19 34
      vertex 95.5 -18 2
      vertex 95.5 -17.99 34
    endloop
  endfacet
  facet normal 1 0 0
    outer loop
      vertex 95.5 -19.19 0
      vertex 95.5 -18 2
      vertex 95.5 -19.19 34
    endloop
  endfacet
  facet normal 1 0 0
    outer loop
      vertex 95.5 -18 2
      vertex 95.5 -19.19 0
      vertex 95.5 -18 0
    endloop
  endfacet
  facet normal 0 1 -0
    outer loop
      vertex 95.5 -17.99 2
      vertex 85.5 -17.99 34
      vertex 95.5 -17.99 34
    endloop
  endfacet
  facet normal 0 1 0
    outer loop
      vertex 85.5 -17.99 34
      vertex 95.5 -17.99 2
      vertex 85.5 -17.99 2
    endloop
  endfacet
  facet normal 0 -1 0
    outer loop
      vertex 85.5 -19.19 0
      vertex 95.5 -19.19 34
      vertex 85.5 -19.19 34
    endloop
  endfacet
  facet normal 0 -1 -0
    outer loop
      vertex 95.5 -19.19 34
      vertex 85.5 -19.19 0
      vertex 95.5 -19.19 0
    endloop
  endfacet
  facet normal -1 0 0
    outer loop
      vertex 27.75 -18 2
      vertex 27.75 -17.99 34
      vertex 27.75 -17.99 2
    endloop
  endfacet
  facet normal -1 0 0
    outer loop
      vertex 27.75 -19.19 34
      vertex 27.75 -18 2
      vertex 27.75 -19.19 0
    endloop
  endfacet
  facet normal -1 0 0
    outer loop
      vertex 27.75 -18 2
      vertex 27.75 -19.19 34
      vertex 27.75 -17.99 34
    endloop
  endfacet
  facet normal -1 0 0
    outer loop
      vertex 27.75 -18 0
      vertex 27.75 -19.19 0
      vertex 27.75 -18 2
    endloop
  endfacet
  facet normal -0 0 1
    outer loop
      vertex 27.75 -17.99 34
      vertex 37.75 -19.19 34
      vertex 37.75 -17.99 34
    endloop
  endfacet
  facet normal 0 0 1
    outer loop
      vertex 37.75 -19.19 34
      vertex 27.75 -17.99 34
      vertex 27.75 -19.19 34
    endloop
  endfacet
  facet normal 1 0 0
    outer loop
      vertex 37.75 -17.99 34
      vertex 37.75 -18 2
      vertex 37.75 -17.99 2
    endloop
  endfacet
  facet normal 1 -0 0
    outer loop
      vertex 37.75 -19.19 34
      vertex 37.75 -18 2
      vertex 37.75 -17.99 34
    endloop
  endfacet
  facet normal 1 0 0
    outer loop
      vertex 37.75 -19.19 0
      vertex 37.75 -18 2
      vertex 37.75 -19.19 34
    endloop
  endfacet
  facet normal 1 0 0
    outer loop
      vertex 37.75 -18 2
      vertex 37.75 -19.19 0
      vertex 37.75 -18 0
    endloop
  endfacet
  facet normal 0 -1 0
    outer loop
      vertex 27.75 -19.19 0
      vertex 37.75 -19.19 34
      vertex 27.75 -19.19 34
    endloop
  endfacet
  facet normal 0 -1 -0
    outer loop
      vertex 37.75 -19.19 34
      vertex 27.75 -19.19 0
      vertex 37.75 -19.19 0
    endloop
  endfacet
  facet normal 0 1 -0
    outer loop
      vertex 37.75 -17.99 2
      vertex 27.75 -17.99 34
      vertex 37.75 -17.99 34
    endloop
  endfacet
  facet normal 0 1 0
    outer loop
      vertex 27.75 -17.99 34
      vertex 37.75 -17.99 2
      vertex 27.75 -17.99 2
    endloop
  endfacet
  facet normal 1 -0 0
    outer loop
      vertex -115.49 -9.1 34
      vertex -115.49 9.1 2
      vertex -115.49 9.1 34
    endloop
  endfacet
  facet normal 1 0 0
    outer loop
      vertex -115.49 9.1 2
      vertex -115.49 -9.1 34
      vertex -115.49 -9.1 2
    endloop
  endfacet
  facet normal -0 0 1
    outer loop
      vertex -116.69 9.1 34
      vertex -115.49 -9.1 34
      vertex -115.49 9.1 34
    endloop
  endfacet
  facet normal 0 0 1
    outer loop
      vertex -115.49 -9.1 34
      vertex -116.69 9.1 34
      vertex -116.69 -9.1 34
    endloop
  endfacet
  facet normal -1 0 0
    outer loop
      vertex -116.69 -9.1 0
      vertex -116.69 9.1 34
      vertex -116.69 9.1 0
    endloop
  endfacet
  facet normal -1 -0 0
    outer loop
      vertex -116.69 9.1 34
      vertex -116.69 -9.1 0
      vertex -116.69 -9.1 34
    endloop
  endfacet
  facet normal 0 1 0
    outer loop
      vertex -115.5 9.1 2
      vertex -115.49 9.1 34
      vertex -115.49 9.1 2
    endloop
  endfacet
  facet normal 0 1 0
    outer loop
      vertex -115.49 9.1 34
      vertex -115.5 9.1 2
      vertex -116.69 9.1 34
    endloop
  endfacet
  facet normal 0 1 0
    outer loop
      vertex -116.69 9.1 0
      vertex -115.5 9.1 2
      vertex -115.5 9.1 0
    endloop
  endfacet
  facet normal 0 1 0
    outer loop
      vertex -115.5 9.1 2
      vertex -116.69 9.1 0
      vertex -116.69 9.1 34
    endloop
  endfacet
  facet normal 0 -1 0
    outer loop
      vertex -116.69 -9.1 34
      vertex -115.5 -9.1 2
      vertex -115.49 -9.1 34
    endloop
  endfacet
  facet normal 0 -1 0
    outer loop
      vertex -116.69 -9.1 0
      vertex -115.5 -9.1 2
      vertex -116.69 -9.1 34
    endloop
  endfacet
  facet normal 0 -1 -0
    outer loop
      vertex -115.5 -9.1 2
      vertex -116.69 -9.1 0
      vertex -115.5 -9.1 0
    endloop
  endfacet
  facet normal 0 -1 -0
    outer loop
      vertex -115.49 -9.1 34
      vertex -115.5 -9.1 2
      vertex -115.49 -9.1 2
    endloop
  endfacet
  facet normal 1 0 0
    outer loop
      vertex -85.5 19.19 34
      vertex -85.5 18 2
      vertex -85.5 19.19 0
    endloop
  endfacet
  facet normal 1 -0 0
    outer loop
      vertex -85.5 17.99 34
      vertex -85.5 18 2
      vertex -85.5 19.19 34
    endloop
  endfacet
  facet normal 1 0 0
    outer loop
      vertex -85.5 18 2
      vertex -85.5 17.99 34
      vertex -85.5 17.99 2
    endloop
  endfacet
  facet normal 1 0 0
    outer loop
      vertex -85.5 19.19 0
      vertex -85.5 18 2
      vertex -85.5 18 0
    endloop
  endfacet
  facet normal -0 0 1
    outer loop
      vertex -95.5 19.19 34
      vertex -85.5 17.99 34
      vertex -85.5 19.19 34
    endloop
  endfacet
  facet normal 0 0 1
    outer loop
      vertex -85.5 17.99 34
      vertex -95.5 19.19 34
      vertex -95.5 17.99 34
    endloop
  endfacet
  facet normal -1 0 0
    outer loop
      vertex -95.5 18 2
      vertex -95.5 19.19 0
      vertex -95.5 18 0
    endloop
  endfacet
  facet normal -1 0 0
    outer loop
      vertex -95.5 19.19 0
      vertex -95.5 18 2
      vertex -95.5 19.19 34
    endloop
  endfacet
  facet normal -1 0 0
    outer loop
      vertex -95.5 17.99 34
      vertex -95.5 18 2
      vertex -95.5 17.99 2
    endloop
  endfacet
  facet normal -1 0 0
    outer loop
      vertex -95.5 18 2
      vertex -95.5 17.99 34
      vertex -95.5 19.19 34
    endloop
  endfacet
  facet normal 0 1 -0
    outer loop
      vertex -85.5 19.19 0
      vertex -95.5 19.19 34
      vertex -85.5 19.19 34
    endloop
  endfacet
  facet normal 0 1 0
    outer loop
      vertex -95.5 19.19 34
      vertex -85.5 19.19 0
      vertex -95.5 19.19 0
    endloop
  endfacet
  facet normal 0 -1 0
    outer loop
      vertex -95.5 17.99 2
      vertex -85.5 17.99 34
      vertex -95.5 17.99 34
    endloop
  endfacet
  facet normal 0 -1 -0
    outer loop
      vertex -85.5 17.99 34
      vertex -95.5 17.99 2
      vertex -85.5 17.99 2
    endloop
  endfacet
  facet normal 1 0 0
    outer loop
      vertex -27.75 19.19 34
      vertex -27.75 18 2
      vertex -27.75 19.19 0
    endloop
  endfacet
  facet normal 1 -0 0
    outer loop
      vertex -27.75 17.99 34
      vertex -27.75 18 2
      vertex -27.75 19.19 34
    endloop
  endfacet
  facet normal 1 0 0
    outer loop
      vertex -27.75 18 2
      vertex -27.75 17.99 34
      vertex -27.75 17.99 2
    endloop
  endfacet
  facet normal 1 0 0
    outer loop
      vertex -27.75 19.19 0
      vertex -27.75 18 2
      vertex -27.75 18 0
    endloop
  endfacet
  facet normal -0 0 1
    outer loop
      vertex -37.75 19.19 34
      vertex -27.75 17.99 34
      vertex -27.75 19.19 34
    endloop
  endfacet
  facet normal 0 0 1
    outer loop
      vertex -27.75 17.99 34
      vertex -37.75 19.19 34
      vertex -37.75 17.99 34
    endloop
  endfacet
  facet normal -1 0 0
    outer loop
      vertex -37.75 18 2
      vertex -37.75 19.19 0
      vertex -37.75 18 0
    endloop
  endfacet
  facet normal -1 0 0
    outer loop
      vertex -37.75 19.19 0
      vertex -37.75 18 2
      vertex -37.75 19.19 34
    endloop
  endfacet
  facet normal -1 0 0
    outer loop
      vertex -37.75 17.99 34
      vertex -37.75 18 2
      vertex -37.75 17.99 2
    endloop
  endfacet
  facet normal -1 0 0
    outer loop
      vertex -37.75 18 2
      vertex -37.75 17.99 34
      vertex -37.75 19.19 34
    endloop
  endfacet
  facet normal 0 1 -0
    outer loop
      vertex -27.75 19.19 0
      vertex -37.75 19.19 34
      vertex -27.75 19.19 34
    endloop
  endfacet
  facet normal 0 1 0
    outer loop
      vertex -37.75 19.19 34
      vertex -27.75 19.19 0
      vertex -37.75 19.19 0
    endloop
  endfacet
  facet normal 0 -1 0
    outer loop
      vertex -37.75 17.99 2
      vertex -27.75 17.99 34
      vertex -37.75 17.99 34
    endloop
  endfacet
  facet normal 0 -1 -0
    outer loop
      vertex -27.75 17.99 34
      vertex -37.75 17.99 2
      vertex -27.75 17.99 2
    endloop
  endfacet
  facet normal -1 0 0
    outer loop
      vertex 115.49 -9.1 2
      vertex 115.49 9.1 34
      vertex 115.49 9.1 2
    endloop
  endfacet
  facet normal -1 -0 0
    outer loop
      vertex 115.49 9.1 34
      vertex 115.49 -9.1 2
      vertex 115.49 -9.1 34
    endloop
  endfacet
  facet normal -0 0 1
    outer loop
      vertex 115.49 9.1 34
      vertex 116.69 -9.1 34
      vertex 116.69 9.1 34
    endloop
  endfacet
  facet normal 0 0 1
    outer loop
      vertex 116.69 -9.1 34
      vertex 115.49 9.1 34
      vertex 115.49 -9.1 34
    endloop
  endfacet
  facet normal 1 -0 0
    outer loop
      vertex 116.69 -9.1 34
      vertex 116.69 9.1 0
      vertex 116.69 9.1 34
    endloop
  endfacet
  facet normal 1 0 0
    outer loop
      vertex 116.69 9.1 0
      vertex 116.69 -9.1 34
      vertex 116.69 -9.1 0
    endloop
  endfacet
  facet normal 0 -1 0
    outer loop
      vertex 115.5 -9.1 2
      vertex 115.49 -9.1 34
      vertex 115.49 -9.1 2
    endloop
  endfacet
  facet normal 0 -1 0
    outer loop
      vertex 115.49 -9.1 34
      vertex 115.5 -9.1 2
      vertex 116.69 -9.1 34
    endloop
  endfacet
  facet normal 0 -1 0
    outer loop
      vertex 116.69 -9.1 0
      vertex 115.5 -9.1 2
      vertex 115.5 -9.1 0
    endloop
  endfacet
  facet normal 0 -1 0
    outer loop
      vertex 115.5 -9.1 2
      vertex 116.69 -9.1 0
      vertex 116.69 -9.1 34
    endloop
  endfacet
  facet normal 0 1 0
    outer loop
      vertex 116.69 9.1 34
      vertex 115.5 9.1 2
      vertex 115.49 9.1 34
    endloop
  endfacet
  facet normal 0 1 -0
    outer loop
      vertex 116.69 9.1 0
      vertex 115.5 9.1 2
      vertex 116.69 9.1 34
    endloop
  endfacet
  facet normal 0 1 0
    outer loop
      vertex 115.5 9.1 2
      vertex 116.69 9.1 0
      vertex 115.5 9.1 0
    endloop
  endfacet
  facet normal 0 1 0
    outer loop
      vertex 115.49 9.1 34
      vertex 115.5 9.1 2
      vertex 115.49 9.1 2
    endloop
  endfacet
  facet normal -1 0 0
    outer loop
      vertex 85.5 18 2
      vertex 85.5 19.19 0
      vertex 85.5 18 0
    endloop
  endfacet
  facet normal -1 0 0
    outer loop
      vertex 85.5 19.19 0
      vertex 85.5 18 2
      vertex 85.5 19.19 34
    endloop
  endfacet
  facet normal -1 0 0
    outer loop
      vertex 85.5 17.99 34
      vertex 85.5 18 2
      vertex 85.5 17.99 2
    endloop
  endfacet
  facet normal -1 0 0
    outer loop
      vertex 85.5 18 2
      vertex 85.5 17.99 34
      vertex 85.5 19.19 34
    endloop
  endfacet
  facet normal -0 0 1
    outer loop
      vertex 85.5 19.19 34
      vertex 95.5 17.99 34
      vertex 95.5 19.19 34
    endloop
  endfacet
  facet normal 0 0 1
    outer loop
      vertex 95.5 17.99 34
      vertex 85.5 19.19 34
      vertex 85.5 17.99 34
    endloop
  endfacet
  facet normal 1 0 0
    outer loop
      vertex 95.5 19.19 34
      vertex 95.5 18 2
      vertex 95.5 19.19 0
    endloop
  endfacet
  facet normal 1 -0 0
    outer loop
      vertex 95.5 17.99 34
      vertex 95.5 18 2
      vertex 95.5 19.19 34
    endloop
  endfacet
  facet normal 1 0 0
    outer loop
      vertex 95.5 18 2
      vertex 95.5 17.99 34
      vertex 95.5 17.99 2
    endloop
  endfacet
  facet normal 1 0 0
    outer loop
      vertex 95.5 19.19 0
      vertex 95.5 18 2
      vertex 95.5 18 0
    endloop
  endfacet
  facet normal 0 1 -0
    outer loop
      vertex 95.5 19.19 0
      vertex 85.5 19.19 34
      vertex 95.5 19.19 34
    endloop
  endfacet
  facet normal 0 1 0
    outer loop
      vertex 85.5 19.19 34
      vertex 95.5 19.19 0
      vertex 85.5 19.19 0
    endloop
  endfacet
  facet normal 0 -1 0
    outer loop
      vertex 85.5 17.99 2
      vertex 95.5 17.99 34
      vertex 85.5 17.99 34
    endloop
  endfacet
  facet normal 0 -1 -0
    outer loop
      vertex 95.5 17.99 34
      vertex 85.5 17.99 2
      vertex 95.5 17.99 2
    endloop
  endfacet
  facet normal -1 0 0
    outer loop
      vertex 27.75 18 2
      vertex 27.75 19.19 0
      vertex 27.75 18 0
    endloop
  endfacet
  facet normal -1 0 0
    outer loop
      vertex 27.75 19.19 0
      vertex 27.75 18 2
      vertex 27.75 19.19 34
    endloop
  endfacet
  facet normal -1 0 0
    outer loop
      vertex 27.75 17.99 34
      vertex 27.75 18 2
      vertex 27.75 17.99 2
    endloop
  endfacet
  facet normal -1 0 0
    outer loop
      vertex 27.75 18 2
      vertex 27.75 17.99 34
      vertex 27.75 19.19 34
    endloop
  endfacet
  facet normal -0 0 1
    outer loop
      vertex 27.75 19.19 34
      vertex 37.75 17.99 34
      vertex 37.75 19.19 34
    endloop
  endfacet
  facet normal 0 0 1
    outer loop
      vertex 37.75 17.99 34
      vertex 27.75 19.19 34
      vertex 27.75 17.99 34
    endloop
  endfacet
  facet normal 1 0 0
    outer loop
      vertex 37.75 19.19 34
      vertex 37.75 18 2
      vertex 37.75 19.19 0
    endloop
  endfacet
  facet normal 1 -0 0
    outer loop
      vertex 37.75 17.99 34
      vertex 37.75 18 2
      vertex 37.75 19.19 34
    endloop
  endfacet
  facet normal 1 0 0
    outer loop
      vertex 37.75 18 2
      vertex 37.75 17.99 34
      vertex 37.75 17.99 2
    endloop
  endfacet
  facet normal 1 0 0
    outer loop
      vertex 37.75 19.19 0
      vertex 37.75 18 2
      vertex 37.75 18 0
    endloop
  endfacet
  facet normal 0 -1 0
    outer loop
      vertex 27.75 17.99 2
      vertex 37.75 17.99 34
      vertex 27.75 17.99 34
    endloop
  endfacet
  facet normal 0 -1 -0
    outer loop
      vertex 37.75 17.99 34
      vertex 27.75 17.99 2
      vertex 37.75 17.99 2
    endloop
  endfacet
  facet normal 0 1 -0
    outer loop
      vertex 37.75 19.19 0
      vertex 27.75 19.19 34
      vertex 37.75 19.19 34
    endloop
  endfacet
  facet normal 0 1 0
    outer loop
      vertex 27.75 19.19 34
      vertex 37.75 19.19 0
      vertex 27.75 19.19 0
    endloop
  endfacet
  facet normal -1 0 0
    outer loop
      vertex -115.5 -18 0
      vertex -115.5 -9.1 2
      vertex -115.5 -9.1 0
    endloop
  endfacet
  facet normal -1 -0 0
    outer loop
      vertex -115.5 -9.1 2
      vertex -115.5 -18 0
      vertex -115.5 -18 2
    endloop
  endfacet
  facet normal -1 0 0
    outer loop
      vertex -115.5 9.1 0
      vertex -115.5 18 2
      vertex -115.5 18 0
    endloop
  endfacet
  facet normal -1 -0 0
    outer loop
      vertex -115.5 18 2
      vertex -115.5 9.1 0
      vertex -115.5 9.1 2
    endloop
  endfacet
  facet normal 0 0 1
    outer loop
      vertex 115.5 18 2
      vertex 115.49 9.1 2
      vertex 115.5 9.1 2
    endloop
  endfacet
  facet normal 0 0 1
    outer loop
      vertex 115.5 18 2
      vertex 95.5 17.99 2
      vertex 115.49 9.1 2
    endloop
  endfacet
  facet normal 0 0 1
    outer loop
      vertex 95.5 17.99 2
      vertex 115.5 18 2
      vertex 95.5 18 2
    endloop
  endfacet
  facet normal -0 0 1
    outer loop
      vertex 115.49 -9.1 2
      vertex 115.5 -18 2
      vertex 115.5 -9.1 2
    endloop
  endfacet
  facet normal 0 0 1
    outer loop
      vertex 115.49 9.1 2
      vertex 95.5 17.99 2
      vertex 115.49 -9.1 2
    endloop
  endfacet
  facet normal 0 0 1
    outer loop
      vertex 95.5 -17.99 2
      vertex 115.49 -9.1 2
      vertex 95.5 17.99 2
    endloop
  endfacet
  facet normal 0 0 1
    outer loop
      vertex 115.49 -9.1 2
      vertex 95.5 -17.99 2
      vertex 115.5 -18 2
    endloop
  endfacet
  facet normal 0 0 1
    outer loop
      vertex 115.5 -18 2
      vertex 95.5 -17.99 2
      vertex 95.5 -18 2
    endloop
  endfacet
  facet normal -0 0 1
    outer loop
      vertex -115.5 18 2
      vertex -95.5 17.99 2
      vertex -95.5 18 2
    endloop
  endfacet
  facet normal 0 0 1
    outer loop
      vertex -95.5 17.99 2
      vertex -115.49 9.1 2
      vertex -95.5 -17.99 2
    endloop
  endfacet
  facet normal -0 0 1
    outer loop
      vertex -115.49 -9.1 2
      vertex -95.5 -17.99 2
      vertex -115.49 9.1 2
    endloop
  endfacet
  facet normal 0 0 1
    outer loop
      vertex -95.5 17.99 2
      vertex -115.5 18 2
      vertex -115.49 9.1 2
    endloop
  endfacet
  facet normal 0 0 1
    outer loop
      vertex -115.49 9.1 2
      vertex -115.5 18 2
      vertex -115.5 9.1 2
    endloop
  endfacet
  facet normal -0 0 1
    outer loop
      vertex -95.5 17.99 2
      vertex -85.5 -17.99 2
      vertex -85.5 17.99 2
    endloop
  endfacet
  facet normal 0 0 1
    outer loop
      vertex -85.5 -17.99 2
      vertex -95.5 17.99 2
      vertex -95.5 -17.99 2
    endloop
  endfacet
  facet normal 0 0 1
    outer loop
      vertex -85.5 17.99 2
      vertex -37.75 17.99 2
      vertex -37.75 18 2
    endloop
  endfacet
  facet normal 0 0 1
    outer loop
      vertex -37.75 17.99 2
      vertex -85.5 17.99 2
      vertex -37.75 -17.99 2
    endloop
  endfacet
  facet normal 0 0 1
    outer loop
      vertex -85.5 17.99 2
      vertex -37.75 18 2
      vertex -85.5 18 2
    endloop
  endfacet
  facet normal 0 0 1
    outer loop
      vertex -85.5 -17.99 2
      vertex -37.75 -17.99 2
      vertex -85.5 17.99 2
    endloop
  endfacet
  facet normal 0 0 1
    outer loop
      vertex -37.75 -17.99 2
      vertex -85.5 -17.99 2
      vertex -37.75 -18 2
    endloop
  endfacet
  facet normal 0 0 1
    outer loop
      vertex -37.75 -18 2
      vertex -85.5 -17.99 2
      vertex -85.5 -18 2
    endloop
  endfacet
  facet normal -0 0 1
    outer loop
      vertex -37.75 17.99 2
      vertex -27.75 -17.99 2
      vertex -27.75 17.99 2
    endloop
  endfacet
  facet normal 0 0 1
    outer loop
      vertex -27.75 -17.99 2
      vertex -37.75 17.99 2
      vertex -37.75 -17.99 2
    endloop
  endfacet
  facet normal 0 0 1
    outer loop
      vertex -27.75 17.99 2
      vertex 27.75 17.99 2
      vertex 27.75 18 2
    endloop
  endfacet
  facet normal 0 0 1
    outer loop
      vertex 27.75 17.99 2
      vertex -27.75 17.99 2
      vertex 27.75 -17.99 2
    endloop
  endfacet
  facet normal 0 0 1
    outer loop
      vertex -27.75 17.99 2
      vertex 27.75 18 2
      vertex -27.75 18 2
    endloop
  endfacet
  facet normal 0 0 1
    outer loop
      vertex -27.75 -17.99 2
      vertex 27.75 -17.99 2
      vertex -27.75 17.99 2
    endloop
  endfacet
  facet normal 0 0 1
    outer loop
      vertex 27.75 -17.99 2
      vertex -27.75 -17.99 2
      vertex 27.75 -18 2
    endloop
  endfacet
  facet normal 0 0 1
    outer loop
      vertex 27.75 -18 2
      vertex -27.75 -17.99 2
      vertex -27.75 -18 2
    endloop
  endfacet
  facet normal -0 0 1
    outer loop
      vertex 27.75 17.99 2
      vertex 37.75 -17.99 2
      vertex 37.75 17.99 2
    endloop
  endfacet
  facet normal 0 0 1
    outer loop
      vertex 37.75 -17.99 2
      vertex 27.75 17.99 2
      vertex 27.75 -17.99 2
    endloop
  endfacet
  facet normal 0 0 1
    outer loop
      vertex 37.75 17.99 2
      vertex 85.5 17.99 2
      vertex 85.5 18 2
    endloop
  endfacet
  facet normal 0 0 1
    outer loop
      vertex 85.5 17.99 2
      vertex 37.75 17.99 2
      vertex 85.5 -17.99 2
    endloop
  endfacet
  facet normal 0 0 1
    outer loop
      vertex 37.75 17.99 2
      vertex 85.5 18 2
      vertex 37.75 18 2
    endloop
  endfacet
  facet normal 0 0 1
    outer loop
      vertex 37.75 -17.99 2
      vertex 85.5 -17.99 2
      vertex 37.75 17.99 2
    endloop
  endfacet
  facet normal 0 0 1
    outer loop
      vertex 85.5 -17.99 2
      vertex 37.75 -17.99 2
      vertex 85.5 -18 2
    endloop
  endfacet
  facet normal 0 0 1
    outer loop
      vertex 85.5 -18 2
      vertex 37.75 -17.99 2
      vertex 37.75 -18 2
    endloop
  endfacet
  facet normal -0 0 1
    outer loop
      vertex 85.5 17.99 2
      vertex 95.5 -17.99 2
      vertex 95.5 17.99 2
    endloop
  endfacet
  facet normal 0 0 1
    outer loop
      vertex 95.5 -17.99 2
      vertex 85.5 17.99 2
      vertex 85.5 -17.99 2
    endloop
  endfacet
  facet normal 0 0 1
    outer loop
      vertex -115.5 -18 2
      vertex -95.5 -17.99 2
      vertex -115.49 -9.1 2
    endloop
  endfacet
  facet normal 0 0 1
    outer loop
      vertex -115.5 -18 2
      vertex -115.49 -9.1 2
      vertex -115.5 -9.1 2
    endloop
  endfacet
  facet normal 0 0 1
    outer loop
      vertex -95.5 -17.99 2
      vertex -115.5 -18 2
      vertex -95.5 -18 2
    endloop
  endfacet
  facet normal 1 -0 0
    outer loop
      vertex 115.5 -18 2
      vertex 115.5 -9.1 0
      vertex 115.5 -9.1 2
    endloop
  endfacet
  facet normal 1 0 0
    outer loop
      vertex 115.5 -9.1 0
      vertex 115.5 -18 2
      vertex 115.5 -18 0
    endloop
  endfacet
  facet normal 1 -0 0
    outer loop
      vertex 115.5 9.1 2
      vertex 115.5 18 0
      vertex 115.5 18 2
    endloop
  endfacet
  facet normal 1 0 0
    outer loop
      vertex 115.5 18 0
      vertex 115.5 9.1 2
      vertex 115.5 9.1 0
    endloop
  endfacet
  facet normal 0 -1 0
    outer loop
      vertex 95.5 -18 0
      vertex 115.5 -18 2
      vertex 95.5 -18 2
    endloop
  endfacet
  facet normal 0 -1 -0
    outer loop
      vertex 115.5 -18 2
      vertex 95.5 -18 0
      vertex 115.5 -18 0
    endloop
  endfacet
  facet normal 0 -1 0
    outer loop
      vertex -115.5 -18 0
      vertex -95.5 -18 2
      vertex -115.5 -18 2
    endloop
  endfacet
  facet normal 0 -1 -0
    outer loop
      vertex -95.5 -18 2
      vertex -115.5 -18 0
      vertex -95.5 -18 0
    endloop
  endfacet
  facet normal 0 -1 0
    outer loop
      vertex -85.5 -18 0
      vertex -37.75 -18 2
      vertex -85.5 -18 2
    endloop
  endfacet
  facet normal 0 -1 -0
    outer loop
      vertex -37.75 -18 2
      vertex -85.5 -18 0
      vertex -37.75 -18 0
    endloop
  endfacet
  facet normal 0 -1 0
    outer loop
      vertex -27.75 -18 0
      vertex 27.75 -18 2
      vertex -27.75 -18 2
    endloop
  endfacet
  facet normal 0 -1 -0
    outer loop
      vertex 27.75 -18 2
      vertex -27.75 -18 0
      vertex 27.75 -18 0
    endloop
  endfacet
  facet normal 0 -1 0
    outer loop
      vertex 37.75 -18 0
      vertex 85.5 -18 2
      vertex 37.75 -18 2
    endloop
  endfacet
  facet normal 0 -1 -0
    outer loop
      vertex 85.5 -18 2
      vertex 37.75 -18 0
      vertex 85.5 -18 0
    endloop
  endfacet
  facet normal 0 1 -0
    outer loop
      vertex 115.5 18 0
      vertex 95.5 18 2
      vertex 115.5 18 2
    endloop
  endfacet
  facet normal 0 1 0
    outer loop
      vertex 95.5 18 2
      vertex 115.5 18 0
      vertex 95.5 18 0
    endloop
  endfacet
  facet normal 0 1 -0
    outer loop
      vertex -95.5 18 0
      vertex -115.5 18 2
      vertex -95.5 18 2
    endloop
  endfacet
  facet normal 0 1 0
    outer loop
      vertex -115.5 18 2
      vertex -95.5 18 0
      vertex -115.5 18 0
    endloop
  endfacet
  facet normal 0 1 -0
    outer loop
      vertex -37.75 18 0
      vertex -85.5 18 2
      vertex -37.75 18 2
    endloop
  endfacet
  facet normal 0 1 0
    outer loop
      vertex -85.5 18 2
      vertex -37.75 18 0
      vertex -85.5 18 0
    endloop
  endfacet
  facet normal 0 1 -0
    outer loop
      vertex 27.75 18 0
      vertex -27.75 18 2
      vertex 27.75 18 2
    endloop
  endfacet
  facet normal 0 1 0
    outer loop
      vertex -27.75 18 2
      vertex 27.75 18 0
      vertex -27.75 18 0
    endloop
  endfacet
  facet normal 0 1 -0
    outer loop
      vertex 85.5 18 0
      vertex 37.75 18 2
      vertex 85.5 18 2
    endloop
  endfacet
  facet normal 0 1 0
    outer loop
      vertex 37.75 18 2
      vertex 85.5 18 0
      vertex 37.75 18 0
    endloop
  endfacet
endsolid OpenSCAD_Model
