solid OpenSCAD_Model
  facet normal 1 -0 0
    outer loop
      vertex -60.49 -5 84.8
      vertex -60.49 5 0.9
      vertex -60.49 5 84.8
    endloop
  endfacet
  facet normal 1 0 0
    outer loop
      vertex -60.49 5 0.9
      vertex -60.49 -5 84.8
      vertex -60.49 -5 0.9
    endloop
  endfacet
  facet normal -0 0 1
    outer loop
      vertex -61.69 5 84.8
      vertex -60.49 -5 84.8
      vertex -60.49 5 84.8
    endloop
  endfacet
  facet normal 0 0 1
    outer loop
      vertex -60.49 -5 84.8
      vertex -61.69 5 84.8
      vertex -61.69 -5 84.8
    endloop
  endfacet
  facet normal -1 0 0
    outer loop
      vertex -61.69 -5 0
      vertex -61.69 5 84.8
      vertex -61.69 5 0
    endloop
  endfacet
  facet normal -1 -0 0
    outer loop
      vertex -61.69 5 84.8
      vertex -61.69 -5 0
      vertex -61.69 -5 84.8
    endloop
  endfacet
  facet normal 0 1 0
    outer loop
      vertex -60.5 5 0.9
      vertex -60.49 5 84.8
      vertex -60.49 5 0.9
    endloop
  endfacet
  facet normal 0 1 0
    outer loop
      vertex -60.49 5 84.8
      vertex -60.5 5 0.9
      vertex -61.69 5 84.8
    endloop
  endfacet
  facet normal 0 1 0
    outer loop
      vertex -61.69 5 0
      vertex -60.5 5 0.9
      vertex -60.5 5 0
    endloop
  endfacet
  facet normal 0 1 0
    outer loop
      vertex -60.5 5 0.9
      vertex -61.69 5 0
      vertex -61.69 5 84.8
    endloop
  endfacet
  facet normal 0 0 -1
    outer loop
      vertex -61.69 -5 0
      vertex -60.5 5 0
      vertex -60.5 -5 0
    endloop
  endfacet
  facet normal -0 0 -1
    outer loop
      vertex -60.5 5 0
      vertex -61.69 -5 0
      vertex -61.69 5 0
    endloop
  endfacet
  facet normal 0 0 -1
    outer loop
      vertex -60.5 -5 0
      vertex -40.5 -38.5 0
      vertex -60.5 -38.5 0
    endloop
  endfacet
  facet normal 0 0 -1
    outer loop
      vertex -40.5 -38.5 0
      vertex -60.5 -5 0
      vertex -40.5 38.5 0
    endloop
  endfacet
  facet normal 0 0 -1
    outer loop
      vertex -60.5 5 0
      vertex -40.5 38.5 0
      vertex -60.5 -5 0
    endloop
  endfacet
  facet normal -0 0 -1
    outer loop
      vertex -40.5 38.5 0
      vertex -60.5 5 0
      vertex -60.5 38.5 0
    endloop
  endfacet
  facet normal 0 0 -1
    outer loop
      vertex -40.5 -38.5 0
      vertex -20.5 -38.5 0
      vertex -20.5 -39.69 0
    endloop
  endfacet
  facet normal 0 0 -1
    outer loop
      vertex -20.5 -38.5 0
      vertex -40.5 -38.5 0
      vertex -20.5 38.5 0
    endloop
  endfacet
  facet normal 0 0 -1
    outer loop
      vertex -40.5 -38.5 0
      vertex -20.5 -39.69 0
      vertex -40.5 -39.69 0
    endloop
  endfacet
  facet normal 0 0 -1
    outer loop
      vertex -40.5 38.5 0
      vertex -20.5 38.5 0
      vertex -40.5 -38.5 0
    endloop
  endfacet
  facet normal 0 0 -1
    outer loop
      vertex -20.5 38.5 0
      vertex -40.5 38.5 0
      vertex -20.5 39.69 0
    endloop
  endfacet
  facet normal -0 0 -1
    outer loop
      vertex -20.5 39.69 0
      vertex -40.5 38.5 0
      vertex -40.5 39.69 0
    endloop
  endfacet
  facet normal 0 0 -1
    outer loop
      vertex -20.5 -38.5 0
      vertex 20.5 38.5 0
      vertex 20.5 -38.5 0
    endloop
  endfacet
  facet normal -0 0 -1
    outer loop
      vertex 20.5 38.5 0
      vertex -20.5 -38.5 0
      vertex -20.5 38.5 0
    endloop
  endfacet
  facet normal 0 0 -1
    outer loop
      vertex 20.5 -38.5 0
      vertex 40.5 -38.5 0
      vertex 40.5 -39.69 0
    endloop
  endfacet
  facet normal 0 0 -1
    outer loop
      vertex 40.5 -38.5 0
      vertex 20.5 -38.5 0
      vertex 40.5 38.5 0
    endloop
  endfacet
  facet normal 0 0 -1
    outer loop
      vertex 20.5 -38.5 0
      vertex 40.5 -39.69 0
      vertex 20.5 -39.69 0
    endloop
  endfacet
  facet normal 0 0 -1
    outer loop
      vertex 20.5 38.5 0
      vertex 40.5 38.5 0
      vertex 20.5 -38.5 0
    endloop
  endfacet
  facet normal 0 0 -1
    outer loop
      vertex 40.5 38.5 0
      vertex 20.5 38.5 0
      vertex 40.5 39.69 0
    endloop
  endfacet
  facet normal -0 0 -1
    outer loop
      vertex 40.5 39.69 0
      vertex 20.5 38.5 0
      vertex 20.5 39.69 0
    endloop
  endfacet
  facet normal 0 0 -1
    outer loop
      vertex 40.5 -38.5 0
      vertex 60.5 -5 0
      vertex 60.5 -38.5 0
    endloop
  endfacet
  facet normal -0 0 -1
    outer loop
      vertex 60.5 -5 0
      vertex 40.5 -38.5 0
      vertex 60.5 5 0
    endloop
  endfacet
  facet normal 0 0 -1
    outer loop
      vertex 40.5 38.5 0
      vertex 60.5 5 0
      vertex 40.5 -38.5 0
    endloop
  endfacet
  facet normal 0 0 -1
    outer loop
      vertex 60.5 5 0
      vertex 40.5 38.5 0
      vertex 60.5 38.5 0
    endloop
  endfacet
  facet normal 0 0 -1
    outer loop
      vertex 60.5 -5 0
      vertex 61.69 5 0
      vertex 61.69 -5 0
    endloop
  endfacet
  facet normal -0 0 -1
    outer loop
      vertex 61.69 5 0
      vertex 60.5 -5 0
      vertex 60.5 5 0
    endloop
  endfacet
  facet normal 0 -1 0
    outer loop
      vertex -61.69 -5 84.8
      vertex -60.5 -5 0.9
      vertex -60.49 -5 84.8
    endloop
  endfacet
  facet normal 0 -1 0
    outer loop
      vertex -61.69 -5 0
      vertex -60.5 -5 0.9
      vertex -61.69 -5 84.8
    endloop
  endfacet
  facet normal 0 -1 -0
    outer loop
      vertex -60.5 -5 0.9
      vertex -61.69 -5 0
      vertex -60.5 -5 0
    endloop
  endfacet
  facet normal 0 -1 -0
    outer loop
      vertex -60.49 -5 84.8
      vertex -60.5 -5 0.9
      vertex -60.49 -5 0.9
    endloop
  endfacet
  facet normal 1 0 0
    outer loop
      vertex -20.5 39.69 84.8
      vertex -20.5 38.5 0.9
      vertex -20.5 39.69 0
    endloop
  endfacet
  facet normal 1 -0 0
    outer loop
      vertex -20.5 38.49 84.8
      vertex -20.5 38.5 0.9
      vertex -20.5 39.69 84.8
    endloop
  endfacet
  facet normal 1 0 0
    outer loop
      vertex -20.5 38.5 0.9
      vertex -20.5 38.49 84.8
      vertex -20.5 38.49 0.9
    endloop
  endfacet
  facet normal 1 0 0
    outer loop
      vertex -20.5 39.69 0
      vertex -20.5 38.5 0.9
      vertex -20.5 38.5 0
    endloop
  endfacet
  facet normal -0 0 1
    outer loop
      vertex -40.5 39.69 84.8
      vertex -20.5 38.49 84.8
      vertex -20.5 39.69 84.8
    endloop
  endfacet
  facet normal 0 0 1
    outer loop
      vertex -20.5 38.49 84.8
      vertex -40.5 39.69 84.8
      vertex -40.5 38.49 84.8
    endloop
  endfacet
  facet normal -1 0 0
    outer loop
      vertex -40.5 38.5 0.9
      vertex -40.5 39.69 0
      vertex -40.5 38.5 0
    endloop
  endfacet
  facet normal -1 0 0
    outer loop
      vertex -40.5 39.69 0
      vertex -40.5 38.5 0.9
      vertex -40.5 39.69 84.8
    endloop
  endfacet
  facet normal -1 0 0
    outer loop
      vertex -40.5 38.49 84.8
      vertex -40.5 38.5 0.9
      vertex -40.5 38.49 0.9
    endloop
  endfacet
  facet normal -1 0 0
    outer loop
      vertex -40.5 38.5 0.9
      vertex -40.5 38.49 84.8
      vertex -40.5 39.69 84.8
    endloop
  endfacet
  facet normal 0 -1 0
    outer loop
      vertex -40.5 38.49 0.9
      vertex -20.5 38.49 84.8
      vertex -40.5 38.49 84.8
    endloop
  endfacet
  facet normal 0 -1 -0
    outer loop
      vertex -20.5 38.49 84.8
      vertex -40.5 38.49 0.9
      vertex -20.5 38.49 0.9
    endloop
  endfacet
  facet normal 0 1 -0
    outer loop
      vertex -20.5 39.69 0
      vertex -40.5 39.69 84.8
      vertex -20.5 39.69 84.8
    endloop
  endfacet
  facet normal 0 1 0
    outer loop
      vertex -40.5 39.69 84.8
      vertex -20.5 39.69 0
      vertex -40.5 39.69 0
    endloop
  endfacet
  facet normal -0 0 1
    outer loop
      vertex 20.5 -38.49 84.8
      vertex 40.5 -39.69 84.8
      vertex 40.5 -38.49 84.8
    endloop
  endfacet
  facet normal 0 0 1
    outer loop
      vertex 40.5 -39.69 84.8
      vertex 20.5 -38.49 84.8
      vertex 20.5 -39.69 84.8
    endloop
  endfacet
  facet normal 1 0 0
    outer loop
      vertex 40.5 -38.49 84.8
      vertex 40.5 -38.5 0.9
      vertex 40.5 -38.49 0.9
    endloop
  endfacet
  facet normal 1 -0 0
    outer loop
      vertex 40.5 -39.69 84.8
      vertex 40.5 -38.5 0.9
      vertex 40.5 -38.49 84.8
    endloop
  endfacet
  facet normal 1 0 0
    outer loop
      vertex 40.5 -39.69 0
      vertex 40.5 -38.5 0.9
      vertex 40.5 -39.69 84.8
    endloop
  endfacet
  facet normal 1 0 0
    outer loop
      vertex 40.5 -38.5 0.9
      vertex 40.5 -39.69 0
      vertex 40.5 -38.5 0
    endloop
  endfacet
  facet normal 0 1 -0
    outer loop
      vertex 40.5 -38.49 0.9
      vertex 20.5 -38.49 84.8
      vertex 40.5 -38.49 84.8
    endloop
  endfacet
  facet normal 0 1 0
    outer loop
      vertex 20.5 -38.49 84.8
      vertex 40.5 -38.49 0.9
      vertex 20.5 -38.49 0.9
    endloop
  endfacet
  facet normal -1 0 0
    outer loop
      vertex 20.5 -38.5 0
      vertex 20.5 -39.69 0
      vertex 20.5 -38.5 0.9
    endloop
  endfacet
  facet normal -1 0 0
    outer loop
      vertex 20.5 -38.5 0.9
      vertex 20.5 -38.49 84.8
      vertex 20.5 -38.49 0.9
    endloop
  endfacet
  facet normal -1 0 0
    outer loop
      vertex 20.5 -39.69 84.8
      vertex 20.5 -38.5 0.9
      vertex 20.5 -39.69 0
    endloop
  endfacet
  facet normal -1 0 0
    outer loop
      vertex 20.5 -38.5 0.9
      vertex 20.5 -39.69 84.8
      vertex 20.5 -38.49 84.8
    endloop
  endfacet
  facet normal 0 -1 0
    outer loop
      vertex 20.5 -39.69 0
      vertex 40.5 -39.69 84.8
      vertex 20.5 -39.69 84.8
    endloop
  endfacet
  facet normal 0 -1 -0
    outer loop
      vertex 40.5 -39.69 84.8
      vertex 20.5 -39.69 0
      vertex 40.5 -39.69 0
    endloop
  endfacet
  facet normal -1 0 0
    outer loop
      vertex 60.49 -5 0.9
      vertex 60.49 5 84.8
      vertex 60.49 5 0.9
    endloop
  endfacet
  facet normal -1 -0 0
    outer loop
      vertex 60.49 5 84.8
      vertex 60.49 -5 0.9
      vertex 60.49 -5 84.8
    endloop
  endfacet
  facet normal -0 0 1
    outer loop
      vertex 60.49 5 84.8
      vertex 61.69 -5 84.8
      vertex 61.69 5 84.8
    endloop
  endfacet
  facet normal 0 0 1
    outer loop
      vertex 61.69 -5 84.8
      vertex 60.49 5 84.8
      vertex 60.49 -5 84.8
    endloop
  endfacet
  facet normal 1 -0 0
    outer loop
      vertex 61.69 -5 84.8
      vertex 61.69 5 0
      vertex 61.69 5 84.8
    endloop
  endfacet
  facet normal 1 0 0
    outer loop
      vertex 61.69 5 0
      vertex 61.69 -5 84.8
      vertex 61.69 -5 0
    endloop
  endfacet
  facet normal 0 -1 0
    outer loop
      vertex 60.5 -5 0.9
      vertex 60.49 -5 84.8
      vertex 60.49 -5 0.9
    endloop
  endfacet
  facet normal 0 -1 0
    outer loop
      vertex 60.49 -5 84.8
      vertex 60.5 -5 0.9
      vertex 61.69 -5 84.8
    endloop
  endfacet
  facet normal 0 -1 0
    outer loop
      vertex 61.69 -5 0
      vertex 60.5 -5 0.9
      vertex 60.5 -5 0
    endloop
  endfacet
  facet normal 0 -1 0
    outer loop
      vertex 60.5 -5 0.9
      vertex 61.69 -5 0
      vertex 61.69 -5 84.8
    endloop
  endfacet
  facet normal 0 1 0
    outer loop
      vertex 61.69 5 84.8
      vertex 60.5 5 0.9
      vertex 60.49 5 84.8
    endloop
  endfacet
  facet normal 0 1 -0
    outer loop
      vertex 61.69 5 0
      vertex 60.5 5 0.9
      vertex 61.69 5 84.8
    endloop
  endfacet
  facet normal 0 1 0
    outer loop
      vertex 60.5 5 0.9
      vertex 61.69 5 0
      vertex 60.5 5 0
    endloop
  endfacet
  facet normal 0 1 0
    outer loop
      vertex 60.49 5 84.8
      vertex 60.5 5 0.9
      vertex 60.49 5 0.9
    endloop
  endfacet
  facet normal -1 0 0
    outer loop
      vertex 20.5 38.5 0.9
      vertex 20.5 39.69 0
      vertex 20.5 38.5 0
    endloop
  endfacet
  facet normal -1 0 0
    outer loop
      vertex 20.5 39.69 0
      vertex 20.5 38.5 0.9
      vertex 20.5 39.69 84.8
    endloop
  endfacet
  facet normal -1 0 0
    outer loop
      vertex 20.5 38.49 84.8
      vertex 20.5 38.5 0.9
      vertex 20.5 38.49 0.9
    endloop
  endfacet
  facet normal -1 0 0
    outer loop
      vertex 20.5 38.5 0.9
      vertex 20.5 38.49 84.8
      vertex 20.5 39.69 84.8
    endloop
  endfacet
  facet normal -0 0 1
    outer loop
      vertex 20.5 39.69 84.8
      vertex 40.5 38.49 84.8
      vertex 40.5 39.69 84.8
    endloop
  endfacet
  facet normal 0 0 1
    outer loop
      vertex 40.5 38.49 84.8
      vertex 20.5 39.69 84.8
      vertex 20.5 38.49 84.8
    endloop
  endfacet
  facet normal 1 0 0
    outer loop
      vertex 40.5 39.69 84.8
      vertex 40.5 38.5 0.9
      vertex 40.5 39.69 0
    endloop
  endfacet
  facet normal 1 -0 0
    outer loop
      vertex 40.5 38.49 84.8
      vertex 40.5 38.5 0.9
      vertex 40.5 39.69 84.8
    endloop
  endfacet
  facet normal 1 0 0
    outer loop
      vertex 40.5 38.5 0.9
      vertex 40.5 38.49 84.8
      vertex 40.5 38.49 0.9
    endloop
  endfacet
  facet normal 1 0 0
    outer loop
      vertex 40.5 39.69 0
      vertex 40.5 38.5 0.9
      vertex 40.5 38.5 0
    endloop
  endfacet
  facet normal 0 1 -0
    outer loop
      vertex 40.5 39.69 0
      vertex 20.5 39.69 84.8
      vertex 40.5 39.69 84.8
    endloop
  endfacet
  facet normal 0 1 0
    outer loop
      vertex 20.5 39.69 84.8
      vertex 40.5 39.69 0
      vertex 20.5 39.69 0
    endloop
  endfacet
  facet normal 0 -1 0
    outer loop
      vertex 20.5 38.49 0.9
      vertex 40.5 38.49 84.8
      vertex 20.5 38.49 84.8
    endloop
  endfacet
  facet normal 0 -1 -0
    outer loop
      vertex 40.5 38.49 84.8
      vertex 20.5 38.49 0.9
      vertex 40.5 38.49 0.9
    endloop
  endfacet
  facet normal -0 0 1
    outer loop
      vertex -40.5 -38.49 84.8
      vertex -20.5 -39.69 84.8
      vertex -20.5 -38.49 84.8
    endloop
  endfacet
  facet normal 0 0 1
    outer loop
      vertex -20.5 -39.69 84.8
      vertex -40.5 -38.49 84.8
      vertex -40.5 -39.69 84.8
    endloop
  endfacet
  facet normal -1 0 0
    outer loop
      vertex -40.5 -38.5 0
      vertex -40.5 -39.69 0
      vertex -40.5 -38.5 0.9
    endloop
  endfacet
  facet normal -1 0 0
    outer loop
      vertex -40.5 -38.5 0.9
      vertex -40.5 -38.49 84.8
      vertex -40.5 -38.49 0.9
    endloop
  endfacet
  facet normal -1 0 0
    outer loop
      vertex -40.5 -39.69 84.8
      vertex -40.5 -38.5 0.9
      vertex -40.5 -39.69 0
    endloop
  endfacet
  facet normal -1 0 0
    outer loop
      vertex -40.5 -38.5 0.9
      vertex -40.5 -39.69 84.8
      vertex -40.5 -38.49 84.8
    endloop
  endfacet
  facet normal 0 1 -0
    outer loop
      vertex -20.5 -38.49 0.9
      vertex -40.5 -38.49 84.8
      vertex -20.5 -38.49 84.8
    endloop
  endfacet
  facet normal 0 1 0
    outer loop
      vertex -40.5 -38.49 84.8
      vertex -20.5 -38.49 0.9
      vertex -40.5 -38.49 0.9
    endloop
  endfacet
  facet normal 1 0 0
    outer loop
      vertex -20.5 -38.49 84.8
      vertex -20.5 -38.5 0.9
      vertex -20.5 -38.49 0.9
    endloop
  endfacet
  facet normal 1 -0 0
    outer loop
      vertex -20.5 -39.69 84.8
      vertex -20.5 -38.5 0.9
      vertex -20.5 -38.49 84.8
    endloop
  endfacet
  facet normal 1 0 0
    outer loop
      vertex -20.5 -39.69 0
      vertex -20.5 -38.5 0.9
      vertex -20.5 -39.69 84.8
    endloop
  endfacet
  facet normal 1 0 0
    outer loop
      vertex -20.5 -38.5 0.9
      vertex -20.5 -39.69 0
      vertex -20.5 -38.5 0
    endloop
  endfacet
  facet normal 0 -1 0
    outer loop
      vertex -40.5 -39.69 0
      vertex -20.5 -39.69 84.8
      vertex -40.5 -39.69 84.8
    endloop
  endfacet
  facet normal 0 -1 -0
    outer loop
      vertex -20.5 -39.69 84.8
      vertex -40.5 -39.69 0
      vertex -20.5 -39.69 0
    endloop
  endfacet
  facet normal -1 0 0
    outer loop
      vertex -60.5 -38.5 0
      vertex -60.5 -5 0.9
      vertex -60.5 -5 0
    endloop
  endfacet
  facet normal -1 -0 0
    outer loop
      vertex -60.5 -5 0.9
      vertex -60.5 -38.5 0
      vertex -60.5 -38.5 0.9
    endloop
  endfacet
  facet normal -1 0 0
    outer loop
      vertex -60.5 5 0
      vertex -60.5 38.5 0.9
      vertex -60.5 38.5 0
    endloop
  endfacet
  facet normal -1 -0 0
    outer loop
      vertex -60.5 38.5 0.9
      vertex -60.5 5 0
      vertex -60.5 5 0.9
    endloop
  endfacet
  facet normal 0 0 1
    outer loop
      vertex 60.5 38.5 0.9
      vertex 60.49 5 0.9
      vertex 60.5 5 0.9
    endloop
  endfacet
  facet normal 0 0 1
    outer loop
      vertex 60.5 38.5 0.9
      vertex 40.5 38.49 0.9
      vertex 60.49 5 0.9
    endloop
  endfacet
  facet normal 0 0 1
    outer loop
      vertex 40.5 38.49 0.9
      vertex 60.5 38.5 0.9
      vertex 40.5 38.5 0.9
    endloop
  endfacet
  facet normal -0 0 1
    outer loop
      vertex 60.49 -5 0.9
      vertex 60.5 -38.5 0.9
      vertex 60.5 -5 0.9
    endloop
  endfacet
  facet normal -0 0 1
    outer loop
      vertex 20.5 38.49 0.9
      vertex 60.49 5 0.9
      vertex 40.5 38.49 0.9
    endloop
  endfacet
  facet normal 0 0 1
    outer loop
      vertex 60.49 5 0.9
      vertex 20.5 38.49 0.9
      vertex 60.49 -5 0.9
    endloop
  endfacet
  facet normal 0 0 1
    outer loop
      vertex 60.49 -5 0.9
      vertex 40.5 -38.49 0.9
      vertex 60.5 -38.5 0.9
    endloop
  endfacet
  facet normal 0 0 1
    outer loop
      vertex 60.5 -38.5 0.9
      vertex 40.5 -38.49 0.9
      vertex 40.5 -38.5 0.9
    endloop
  endfacet
  facet normal -0 0 1
    outer loop
      vertex -60.5 38.5 0.9
      vertex -40.5 38.49 0.9
      vertex -40.5 38.5 0.9
    endloop
  endfacet
  facet normal 0 0 1
    outer loop
      vertex -40.5 38.49 0.9
      vertex -60.49 5 0.9
      vertex -40.5 -38.49 0.9
    endloop
  endfacet
  facet normal -0 0 1
    outer loop
      vertex -60.49 -5 0.9
      vertex -40.5 -38.49 0.9
      vertex -60.49 5 0.9
    endloop
  endfacet
  facet normal 0 0 1
    outer loop
      vertex -40.5 38.49 0.9
      vertex -60.5 38.5 0.9
      vertex -60.49 5 0.9
    endloop
  endfacet
  facet normal 0 0 1
    outer loop
      vertex -60.49 5 0.9
      vertex -60.5 38.5 0.9
      vertex -60.5 5 0.9
    endloop
  endfacet
  facet normal -0 0 1
    outer loop
      vertex -40.5 38.49 0.9
      vertex -20.5 -38.49 0.9
      vertex -20.5 38.49 0.9
    endloop
  endfacet
  facet normal 0 0 1
    outer loop
      vertex -20.5 -38.49 0.9
      vertex -40.5 38.49 0.9
      vertex -40.5 -38.49 0.9
    endloop
  endfacet
  facet normal 0 0 1
    outer loop
      vertex -20.5 38.49 0.9
      vertex 20.5 38.49 0.9
      vertex 20.5 38.5 0.9
    endloop
  endfacet
  facet normal 0 0 1
    outer loop
      vertex 20.5 38.49 0.9
      vertex -20.5 38.49 0.9
      vertex 20.5 -38.49 0.9
    endloop
  endfacet
  facet normal 0 0 1
    outer loop
      vertex -20.5 38.49 0.9
      vertex 20.5 38.5 0.9
      vertex -20.5 38.5 0.9
    endloop
  endfacet
  facet normal 0 0 1
    outer loop
      vertex -20.5 -38.49 0.9
      vertex 20.5 -38.49 0.9
      vertex -20.5 38.49 0.9
    endloop
  endfacet
  facet normal 0 0 1
    outer loop
      vertex 20.5 -38.49 0.9
      vertex -20.5 -38.49 0.9
      vertex 20.5 -38.5 0.9
    endloop
  endfacet
  facet normal 0 0 1
    outer loop
      vertex 20.5 -38.5 0.9
      vertex -20.5 -38.49 0.9
      vertex -20.5 -38.5 0.9
    endloop
  endfacet
  facet normal 0 0 1
    outer loop
      vertex 20.5 -38.49 0.9
      vertex 60.49 -5 0.9
      vertex 20.5 38.49 0.9
    endloop
  endfacet
  facet normal 0 0 1
    outer loop
      vertex 60.49 -5 0.9
      vertex 20.5 -38.49 0.9
      vertex 40.5 -38.49 0.9
    endloop
  endfacet
  facet normal 0 0 1
    outer loop
      vertex -60.5 -38.5 0.9
      vertex -40.5 -38.49 0.9
      vertex -60.49 -5 0.9
    endloop
  endfacet
  facet normal 0 0 1
    outer loop
      vertex -60.5 -38.5 0.9
      vertex -60.49 -5 0.9
      vertex -60.5 -5 0.9
    endloop
  endfacet
  facet normal 0 0 1
    outer loop
      vertex -40.5 -38.49 0.9
      vertex -60.5 -38.5 0.9
      vertex -40.5 -38.5 0.9
    endloop
  endfacet
  facet normal 1 -0 0
    outer loop
      vertex 60.5 -38.5 0.9
      vertex 60.5 -5 0
      vertex 60.5 -5 0.9
    endloop
  endfacet
  facet normal 1 0 0
    outer loop
      vertex 60.5 -5 0
      vertex 60.5 -38.5 0.9
      vertex 60.5 -38.5 0
    endloop
  endfacet
  facet normal 1 -0 0
    outer loop
      vertex 60.5 5 0.9
      vertex 60.5 38.5 0
      vertex 60.5 38.5 0.9
    endloop
  endfacet
  facet normal 1 0 0
    outer loop
      vertex 60.5 38.5 0
      vertex 60.5 5 0.9
      vertex 60.5 5 0
    endloop
  endfacet
  facet normal 0 1 -0
    outer loop
      vertex 60.5 38.5 0
      vertex 40.5 38.5 0.9
      vertex 60.5 38.5 0.9
    endloop
  endfacet
  facet normal 0 1 0
    outer loop
      vertex 40.5 38.5 0.9
      vertex 60.5 38.5 0
      vertex 40.5 38.5 0
    endloop
  endfacet
  facet normal 0 1 -0
    outer loop
      vertex -40.5 38.5 0
      vertex -60.5 38.5 0.9
      vertex -40.5 38.5 0.9
    endloop
  endfacet
  facet normal 0 1 0
    outer loop
      vertex -60.5 38.5 0.9
      vertex -40.5 38.5 0
      vertex -60.5 38.5 0
    endloop
  endfacet
  facet normal 0 1 -0
    outer loop
      vertex 20.5 38.5 0
      vertex -20.5 38.5 0.9
      vertex 20.5 38.5 0.9
    endloop
  endfacet
  facet normal 0 1 0
    outer loop
      vertex -20.5 38.5 0.9
      vertex 20.5 38.5 0
      vertex -20.5 38.5 0
    endloop
  endfacet
  facet normal 0 -1 0
    outer loop
      vertex 40.5 -38.5 0
      vertex 60.5 -38.5 0.9
      vertex 40.5 -38.5 0.9
    endloop
  endfacet
  facet normal 0 -1 -0
    outer loop
      vertex 60.5 -38.5 0.9
      vertex 40.5 -38.5 0
      vertex 60.5 -38.5 0
    endloop
  endfacet
  facet normal 0 -1 0
    outer loop
      vertex -60.5 -38.5 0
      vertex -40.5 -38.5 0.9
      vertex -60.5 -38.5 0.9
    endloop
  endfacet
  facet normal 0 -1 -0
    outer loop
      vertex -40.5 -38.5 0.9
      vertex -60.5 -38.5 0
      vertex -40.5 -38.5 0
    endloop
  endfacet
  facet normal 0 -1 0
    outer loop
      vertex -20.5 -38.5 0
      vertex 20.5 -38.5 0.9
      vertex -20.5 -38.5 0.9
    endloop
  endfacet
  facet normal 0 -1 -0
    outer loop
      vertex 20.5 -38.5 0.9
      vertex -20.5 -38.5 0
      vertex 20.5 -38.5 0
    endloop
  endfacet
endsolid OpenSCAD_Model
