solid OpenSCAD_Model
  facet normal 1 0 0
    outer loop
      vertex -58 -5.29 24
      vertex -58 -5.3 2
      vertex -58 -5.29 2
    endloop
  endfacet
  facet normal 1 -0 0
    outer loop
      vertex -58 -6.49 24
      vertex -58 -5.3 2
      vertex -58 -5.29 24
    endloop
  endfacet
  facet normal 1 0 0
    outer loop
      vertex -58 -6.49 0
      vertex -58 -5.3 2
      vertex -58 -6.49 24
    endloop
  endfacet
  facet normal 1 0 0
    outer loop
      vertex -58 -5.3 2
      vertex -58 -6.49 0
      vertex -58 -5.3 0
    endloop
  endfacet
  facet normal -0 0 1
    outer loop
      vertex -68 -5.29 24
      vertex -58 -6.49 24
      vertex -58 -5.29 24
    endloop
  endfacet
  facet normal 0 0 1
    outer loop
      vertex -58 -6.49 24
      vertex -68 -5.29 24
      vertex -68 -6.49 24
    endloop
  endfacet
  facet normal -1 0 0
    outer loop
      vertex -68 -6.49 2
      vertex -68 -5.29 24
      vertex -68 -5.29 2
    endloop
  endfacet
  facet normal -1 -0 0
    outer loop
      vertex -68 -5.29 24
      vertex -68 -6.49 2
      vertex -68 -6.49 24
    endloop
  endfacet
  facet normal 0 -1 0
    outer loop
      vertex -62.99 -6.49 2
      vertex -68 -6.49 24
      vertex -68 -6.49 2
    endloop
  endfacet
  facet normal 0 -1 0
    outer loop
      vertex -68 -6.49 24
      vertex -62.99 -6.49 2
      vertex -58 -6.49 24
    endloop
  endfacet
  facet normal 0 -1 0
    outer loop
      vertex -58 -6.49 0
      vertex -62.99 -6.49 2
      vertex -62.99 -6.49 0
    endloop
  endfacet
  facet normal 0 -1 0
    outer loop
      vertex -62.99 -6.49 2
      vertex -58 -6.49 0
      vertex -58 -6.49 24
    endloop
  endfacet
  facet normal 0 0 -1
    outer loop
      vertex -74.19 -5.45 0
      vertex -72.99 5.45 0
      vertex -72.99 -5.45 0
    endloop
  endfacet
  facet normal -0 0 -1
    outer loop
      vertex -72.99 5.45 0
      vertex -74.19 -5.45 0
      vertex -74.19 5.45 0
    endloop
  endfacet
  facet normal 0 0 -1
    outer loop
      vertex -72.99 -30.45 0
      vertex -62.99 -6.49 0
      vertex -62.99 -30.45 0
    endloop
  endfacet
  facet normal 0 0 -1
    outer loop
      vertex -62.99 -6.49 0
      vertex -72.99 -5.45 0
      vertex -62.99 6.49 0
    endloop
  endfacet
  facet normal -0 0 -1
    outer loop
      vertex -62.99 -6.49 0
      vertex -72.99 -30.45 0
      vertex -72.99 -5.45 0
    endloop
  endfacet
  facet normal 0 0 -1
    outer loop
      vertex -72.99 5.45 0
      vertex -62.99 6.49 0
      vertex -72.99 -5.45 0
    endloop
  endfacet
  facet normal 0 0 -1
    outer loop
      vertex -72.99 19.55 0
      vertex -62.99 6.49 0
      vertex -72.99 5.45 0
    endloop
  endfacet
  facet normal 0 0 -1
    outer loop
      vertex -62.99 6.49 0
      vertex -72.99 19.55 0
      vertex -62.99 19.55 0
    endloop
  endfacet
  facet normal 0 0 -1
    outer loop
      vertex -62.99 -6.49 0
      vertex -58 -5.3 0
      vertex -58 -6.49 0
    endloop
  endfacet
  facet normal -0 0 -1
    outer loop
      vertex -58 -5.3 0
      vertex -62.99 -6.49 0
      vertex -58 5.3 0
    endloop
  endfacet
  facet normal 0 0 -1
    outer loop
      vertex -62.99 6.49 0
      vertex -58 5.3 0
      vertex -62.99 -6.49 0
    endloop
  endfacet
  facet normal 0 0 -1
    outer loop
      vertex -58 5.3 0
      vertex -62.99 6.49 0
      vertex -58 6.49 0
    endloop
  endfacet
  facet normal 0 0 -1
    outer loop
      vertex -58 -5.3 0
      vertex -19.3333 5.3 0
      vertex -19.3333 -5.3 0
    endloop
  endfacet
  facet normal -0 0 -1
    outer loop
      vertex -19.3333 5.3 0
      vertex -58 -5.3 0
      vertex -58 5.3 0
    endloop
  endfacet
  facet normal 0 0 -1
    outer loop
      vertex -19.3333 -5.3 0
      vertex -9.33333 -5.3 0
      vertex -9.33333 -6.49 0
    endloop
  endfacet
  facet normal 0 0 -1
    outer loop
      vertex -9.33333 -5.3 0
      vertex -19.3333 -5.3 0
      vertex -9.33333 5.3 0
    endloop
  endfacet
  facet normal 0 0 -1
    outer loop
      vertex -19.3333 -5.3 0
      vertex -9.33333 -6.49 0
      vertex -19.3333 -6.49 0
    endloop
  endfacet
  facet normal 0 0 -1
    outer loop
      vertex -19.3333 5.3 0
      vertex -9.33333 5.3 0
      vertex -19.3333 -5.3 0
    endloop
  endfacet
  facet normal 0 0 -1
    outer loop
      vertex -9.33333 5.3 0
      vertex -19.3333 5.3 0
      vertex -9.33333 6.49 0
    endloop
  endfacet
  facet normal -0 0 -1
    outer loop
      vertex -9.33333 6.49 0
      vertex -19.3333 5.3 0
      vertex -19.3333 6.49 0
    endloop
  endfacet
  facet normal 0 0 -1
    outer loop
      vertex -9.33333 -5.3 0
      vertex 9.33333 5.3 0
      vertex 9.33333 -5.3 0
    endloop
  endfacet
  facet normal -0 0 -1
    outer loop
      vertex 9.33333 5.3 0
      vertex -9.33333 -5.3 0
      vertex -9.33333 5.3 0
    endloop
  endfacet
  facet normal 0 0 -1
    outer loop
      vertex 9.33333 -5.3 0
      vertex 19.3333 -5.3 0
      vertex 19.3333 -6.49 0
    endloop
  endfacet
  facet normal 0 0 -1
    outer loop
      vertex 19.3333 -5.3 0
      vertex 9.33333 -5.3 0
      vertex 19.3333 5.3 0
    endloop
  endfacet
  facet normal 0 0 -1
    outer loop
      vertex 9.33333 -5.3 0
      vertex 19.3333 -6.49 0
      vertex 9.33333 -6.49 0
    endloop
  endfacet
  facet normal 0 0 -1
    outer loop
      vertex 9.33333 5.3 0
      vertex 19.3333 5.3 0
      vertex 9.33333 -5.3 0
    endloop
  endfacet
  facet normal 0 0 -1
    outer loop
      vertex 19.3333 5.3 0
      vertex 9.33333 5.3 0
      vertex 19.3333 6.49 0
    endloop
  endfacet
  facet normal -0 0 -1
    outer loop
      vertex 19.3333 6.49 0
      vertex 9.33333 5.3 0
      vertex 9.33333 6.49 0
    endloop
  endfacet
  facet normal 0 0 -1
    outer loop
      vertex 19.3333 -5.3 0
      vertex 58 5.3 0
      vertex 58 -5.3 0
    endloop
  endfacet
  facet normal -0 0 -1
    outer loop
      vertex 58 5.3 0
      vertex 19.3333 -5.3 0
      vertex 19.3333 5.3 0
    endloop
  endfacet
  facet normal 0 0 -1
    outer loop
      vertex 58 -5.3 0
      vertex 62.99 -6.49 0
      vertex 58 -6.49 0
    endloop
  endfacet
  facet normal 0 0 -1
    outer loop
      vertex 62.99 -6.49 0
      vertex 58 -5.3 0
      vertex 62.99 6.49 0
    endloop
  endfacet
  facet normal 0 0 -1
    outer loop
      vertex 58 5.3 0
      vertex 62.99 6.49 0
      vertex 58 -5.3 0
    endloop
  endfacet
  facet normal -0 0 -1
    outer loop
      vertex 62.99 6.49 0
      vertex 58 5.3 0
      vertex 58 6.49 0
    endloop
  endfacet
  facet normal 0 0 -1
    outer loop
      vertex 62.99 -6.49 0
      vertex 72.99 -5.45 0
      vertex 72.99 -30.45 0
    endloop
  endfacet
  facet normal -0 0 -1
    outer loop
      vertex 72.99 -5.45 0
      vertex 62.99 -6.49 0
      vertex 72.99 5.45 0
    endloop
  endfacet
  facet normal 0 0 -1
    outer loop
      vertex 62.99 -6.49 0
      vertex 72.99 -30.45 0
      vertex 62.99 -30.45 0
    endloop
  endfacet
  facet normal 0 0 -1
    outer loop
      vertex 62.99 6.49 0
      vertex 72.99 5.45 0
      vertex 62.99 -6.49 0
    endloop
  endfacet
  facet normal 0 0 -1
    outer loop
      vertex 72.99 5.45 0
      vertex 62.99 6.49 0
      vertex 72.99 19.55 0
    endloop
  endfacet
  facet normal -0 0 -1
    outer loop
      vertex 72.99 19.55 0
      vertex 62.99 6.49 0
      vertex 62.99 19.55 0
    endloop
  endfacet
  facet normal 0 0 -1
    outer loop
      vertex 72.99 -5.45 0
      vertex 74.19 5.45 0
      vertex 74.19 -5.45 0
    endloop
  endfacet
  facet normal -0 0 -1
    outer loop
      vertex 74.19 5.45 0
      vertex 72.99 -5.45 0
      vertex 72.99 5.45 0
    endloop
  endfacet
  facet normal 0 1 -0
    outer loop
      vertex -58 -5.29 2
      vertex -68 -5.29 24
      vertex -58 -5.29 24
    endloop
  endfacet
  facet normal 0 1 0
    outer loop
      vertex -68 -5.29 24
      vertex -58 -5.29 2
      vertex -68 -5.29 2
    endloop
  endfacet
  facet normal 1 0 0
    outer loop
      vertex -9.33333 -5.29 24
      vertex -9.33333 -5.3 2
      vertex -9.33333 -5.29 2
    endloop
  endfacet
  facet normal 1 -0 0
    outer loop
      vertex -9.33333 -6.49 24
      vertex -9.33333 -5.3 2
      vertex -9.33333 -5.29 24
    endloop
  endfacet
  facet normal 1 0 0
    outer loop
      vertex -9.33333 -6.49 0
      vertex -9.33333 -5.3 2
      vertex -9.33333 -6.49 24
    endloop
  endfacet
  facet normal 1 0 0
    outer loop
      vertex -9.33333 -5.3 2
      vertex -9.33333 -6.49 0
      vertex -9.33333 -5.3 0
    endloop
  endfacet
  facet normal -0 0 1
    outer loop
      vertex -19.3333 -5.29 24
      vertex -9.33333 -6.49 24
      vertex -9.33333 -5.29 24
    endloop
  endfacet
  facet normal 0 0 1
    outer loop
      vertex -9.33333 -6.49 24
      vertex -19.3333 -5.29 24
      vertex -19.3333 -6.49 24
    endloop
  endfacet
  facet normal -1 0 0
    outer loop
      vertex -19.3333 -5.3 0
      vertex -19.3333 -6.49 0
      vertex -19.3333 -5.3 2
    endloop
  endfacet
  facet normal -1 0 0
    outer loop
      vertex -19.3333 -5.3 2
      vertex -19.3333 -5.29 24
      vertex -19.3333 -5.29 2
    endloop
  endfacet
  facet normal -1 0 0
    outer loop
      vertex -19.3333 -6.49 24
      vertex -19.3333 -5.3 2
      vertex -19.3333 -6.49 0
    endloop
  endfacet
  facet normal -1 0 0
    outer loop
      vertex -19.3333 -5.3 2
      vertex -19.3333 -6.49 24
      vertex -19.3333 -5.29 24
    endloop
  endfacet
  facet normal 0 1 -0
    outer loop
      vertex -9.33333 -5.29 2
      vertex -19.3333 -5.29 24
      vertex -9.33333 -5.29 24
    endloop
  endfacet
  facet normal 0 1 0
    outer loop
      vertex -19.3333 -5.29 24
      vertex -9.33333 -5.29 2
      vertex -19.3333 -5.29 2
    endloop
  endfacet
  facet normal 0 -1 0
    outer loop
      vertex -19.3333 -6.49 0
      vertex -9.33333 -6.49 24
      vertex -19.3333 -6.49 24
    endloop
  endfacet
  facet normal 0 -1 -0
    outer loop
      vertex -9.33333 -6.49 24
      vertex -19.3333 -6.49 0
      vertex -9.33333 -6.49 0
    endloop
  endfacet
  facet normal -1 0 0
    outer loop
      vertex 58 -5.3 2
      vertex 58 -5.29 24
      vertex 58 -5.29 2
    endloop
  endfacet
  facet normal -1 0 0
    outer loop
      vertex 58 -6.49 24
      vertex 58 -5.3 2
      vertex 58 -6.49 0
    endloop
  endfacet
  facet normal -1 0 0
    outer loop
      vertex 58 -5.3 2
      vertex 58 -6.49 24
      vertex 58 -5.29 24
    endloop
  endfacet
  facet normal -1 0 0
    outer loop
      vertex 58 -5.3 0
      vertex 58 -6.49 0
      vertex 58 -5.3 2
    endloop
  endfacet
  facet normal -0 0 1
    outer loop
      vertex 58 -5.29 24
      vertex 68 -6.49 24
      vertex 68 -5.29 24
    endloop
  endfacet
  facet normal 0 0 1
    outer loop
      vertex 68 -6.49 24
      vertex 58 -5.29 24
      vertex 58 -6.49 24
    endloop
  endfacet
  facet normal 1 -0 0
    outer loop
      vertex 68 -6.49 24
      vertex 68 -5.29 2
      vertex 68 -5.29 24
    endloop
  endfacet
  facet normal 1 0 0
    outer loop
      vertex 68 -5.29 2
      vertex 68 -6.49 24
      vertex 68 -6.49 2
    endloop
  endfacet
  facet normal 0 1 -0
    outer loop
      vertex 68 -5.29 2
      vertex 58 -5.29 24
      vertex 68 -5.29 24
    endloop
  endfacet
  facet normal 0 1 0
    outer loop
      vertex 58 -5.29 24
      vertex 68 -5.29 2
      vertex 58 -5.29 2
    endloop
  endfacet
  facet normal 0 -1 0
    outer loop
      vertex 58 -6.49 24
      vertex 62.99 -6.49 2
      vertex 68 -6.49 24
    endloop
  endfacet
  facet normal 0 -1 0
    outer loop
      vertex 58 -6.49 0
      vertex 62.99 -6.49 2
      vertex 58 -6.49 24
    endloop
  endfacet
  facet normal 0 -1 -0
    outer loop
      vertex 62.99 -6.49 2
      vertex 58 -6.49 0
      vertex 62.99 -6.49 0
    endloop
  endfacet
  facet normal 0 -1 -0
    outer loop
      vertex 68 -6.49 24
      vertex 62.99 -6.49 2
      vertex 68 -6.49 2
    endloop
  endfacet
  facet normal -1 0 0
    outer loop
      vertex 9.33333 -5.3 2
      vertex 9.33333 -5.29 24
      vertex 9.33333 -5.29 2
    endloop
  endfacet
  facet normal -1 0 0
    outer loop
      vertex 9.33333 -6.49 24
      vertex 9.33333 -5.3 2
      vertex 9.33333 -6.49 0
    endloop
  endfacet
  facet normal -1 0 0
    outer loop
      vertex 9.33333 -5.3 2
      vertex 9.33333 -6.49 24
      vertex 9.33333 -5.29 24
    endloop
  endfacet
  facet normal -1 0 0
    outer loop
      vertex 9.33333 -5.3 0
      vertex 9.33333 -6.49 0
      vertex 9.33333 -5.3 2
    endloop
  endfacet
  facet normal -0 0 1
    outer loop
      vertex 9.33333 -5.29 24
      vertex 19.3333 -6.49 24
      vertex 19.3333 -5.29 24
    endloop
  endfacet
  facet normal 0 0 1
    outer loop
      vertex 19.3333 -6.49 24
      vertex 9.33333 -5.29 24
      vertex 9.33333 -6.49 24
    endloop
  endfacet
  facet normal 1 0 0
    outer loop
      vertex 19.3333 -5.29 24
      vertex 19.3333 -5.3 2
      vertex 19.3333 -5.29 2
    endloop
  endfacet
  facet normal 1 -0 0
    outer loop
      vertex 19.3333 -6.49 24
      vertex 19.3333 -5.3 2
      vertex 19.3333 -5.29 24
    endloop
  endfacet
  facet normal 1 0 0
    outer loop
      vertex 19.3333 -6.49 0
      vertex 19.3333 -5.3 2
      vertex 19.3333 -6.49 24
    endloop
  endfacet
  facet normal 1 0 0
    outer loop
      vertex 19.3333 -5.3 2
      vertex 19.3333 -6.49 0
      vertex 19.3333 -5.3 0
    endloop
  endfacet
  facet normal 0 1 -0
    outer loop
      vertex 19.3333 -5.29 2
      vertex 9.33333 -5.29 24
      vertex 19.3333 -5.29 24
    endloop
  endfacet
  facet normal 0 1 0
    outer loop
      vertex 9.33333 -5.29 24
      vertex 19.3333 -5.29 2
      vertex 9.33333 -5.29 2
    endloop
  endfacet
  facet normal 0 -1 0
    outer loop
      vertex 9.33333 -6.49 0
      vertex 19.3333 -6.49 24
      vertex 9.33333 -6.49 24
    endloop
  endfacet
  facet normal 0 -1 -0
    outer loop
      vertex 19.3333 -6.49 24
      vertex 9.33333 -6.49 0
      vertex 19.3333 -6.49 0
    endloop
  endfacet
  facet normal -1 0 0
    outer loop
      vertex -72.99 5.45 0
      vertex -72.99 19.55 2
      vertex -72.99 19.55 0
    endloop
  endfacet
  facet normal -1 -0 0
    outer loop
      vertex -72.99 19.55 2
      vertex -72.99 5.45 0
      vertex -72.99 5.45 2
    endloop
  endfacet
  facet normal -1 0 0
    outer loop
      vertex -72.99 -30.45 0
      vertex -72.99 -5.45 2
      vertex -72.99 -5.45 0
    endloop
  endfacet
  facet normal -1 -0 0
    outer loop
      vertex -72.99 -5.45 2
      vertex -72.99 -30.45 0
      vertex -72.99 -30.45 2
    endloop
  endfacet
  facet normal 1 -0 0
    outer loop
      vertex -72.99 -5.45 24
      vertex -72.99 5.45 2
      vertex -72.99 5.45 24
    endloop
  endfacet
  facet normal 1 0 0
    outer loop
      vertex -72.99 5.45 2
      vertex -72.99 -5.45 24
      vertex -72.99 -5.45 2
    endloop
  endfacet
  facet normal -0 0 1
    outer loop
      vertex -74.19 5.45 24
      vertex -72.99 -5.45 24
      vertex -72.99 5.45 24
    endloop
  endfacet
  facet normal 0 0 1
    outer loop
      vertex -72.99 -5.45 24
      vertex -74.19 5.45 24
      vertex -74.19 -5.45 24
    endloop
  endfacet
  facet normal -1 0 0
    outer loop
      vertex -74.19 -5.45 0
      vertex -74.19 5.45 24
      vertex -74.19 5.45 0
    endloop
  endfacet
  facet normal -1 -0 0
    outer loop
      vertex -74.19 5.45 24
      vertex -74.19 -5.45 0
      vertex -74.19 -5.45 24
    endloop
  endfacet
  facet normal 0 1 -0
    outer loop
      vertex -72.99 5.45 2
      vertex -74.19 5.45 24
      vertex -72.99 5.45 24
    endloop
  endfacet
  facet normal 0 1 0
    outer loop
      vertex -74.19 5.45 0
      vertex -72.99 5.45 2
      vertex -72.99 5.45 0
    endloop
  endfacet
  facet normal 0 1 0
    outer loop
      vertex -72.99 5.45 2
      vertex -74.19 5.45 0
      vertex -74.19 5.45 24
    endloop
  endfacet
  facet normal 0 -1 0
    outer loop
      vertex -74.19 -5.45 24
      vertex -72.99 -5.45 2
      vertex -72.99 -5.45 24
    endloop
  endfacet
  facet normal 0 -1 0
    outer loop
      vertex -74.19 -5.45 0
      vertex -72.99 -5.45 2
      vertex -74.19 -5.45 24
    endloop
  endfacet
  facet normal 0 -1 -0
    outer loop
      vertex -72.99 -5.45 2
      vertex -74.19 -5.45 0
      vertex -72.99 -5.45 0
    endloop
  endfacet
  facet normal 1 0 0
    outer loop
      vertex -58 6.49 24
      vertex -58 5.3 2
      vertex -58 6.49 0
    endloop
  endfacet
  facet normal 1 -0 0
    outer loop
      vertex -58 5.29 24
      vertex -58 5.3 2
      vertex -58 6.49 24
    endloop
  endfacet
  facet normal 1 0 0
    outer loop
      vertex -58 5.3 2
      vertex -58 5.29 24
      vertex -58 5.29 2
    endloop
  endfacet
  facet normal 1 0 0
    outer loop
      vertex -58 6.49 0
      vertex -58 5.3 2
      vertex -58 5.3 0
    endloop
  endfacet
  facet normal -0 0 1
    outer loop
      vertex -68 6.49 24
      vertex -58 5.29 24
      vertex -58 6.49 24
    endloop
  endfacet
  facet normal 0 0 1
    outer loop
      vertex -58 5.29 24
      vertex -68 6.49 24
      vertex -68 5.29 24
    endloop
  endfacet
  facet normal -1 0 0
    outer loop
      vertex -68 5.29 2
      vertex -68 6.49 24
      vertex -68 6.49 2
    endloop
  endfacet
  facet normal -1 -0 0
    outer loop
      vertex -68 6.49 24
      vertex -68 5.29 2
      vertex -68 5.29 24
    endloop
  endfacet
  facet normal 0 1 0
    outer loop
      vertex -58 6.49 24
      vertex -62.99 6.49 2
      vertex -68 6.49 24
    endloop
  endfacet
  facet normal 0 1 -0
    outer loop
      vertex -58 6.49 0
      vertex -62.99 6.49 2
      vertex -58 6.49 24
    endloop
  endfacet
  facet normal 0 1 0
    outer loop
      vertex -62.99 6.49 2
      vertex -58 6.49 0
      vertex -62.99 6.49 0
    endloop
  endfacet
  facet normal 0 1 0
    outer loop
      vertex -68 6.49 24
      vertex -62.99 6.49 2
      vertex -68 6.49 2
    endloop
  endfacet
  facet normal 0 -1 0
    outer loop
      vertex -68 5.29 2
      vertex -58 5.29 24
      vertex -68 5.29 24
    endloop
  endfacet
  facet normal 0 -1 -0
    outer loop
      vertex -58 5.29 24
      vertex -68 5.29 2
      vertex -58 5.29 2
    endloop
  endfacet
  facet normal 1 0 0
    outer loop
      vertex -9.33333 6.49 24
      vertex -9.33333 5.3 2
      vertex -9.33333 6.49 0
    endloop
  endfacet
  facet normal 1 -0 0
    outer loop
      vertex -9.33333 5.29 24
      vertex -9.33333 5.3 2
      vertex -9.33333 6.49 24
    endloop
  endfacet
  facet normal 1 0 0
    outer loop
      vertex -9.33333 5.3 2
      vertex -9.33333 5.29 24
      vertex -9.33333 5.29 2
    endloop
  endfacet
  facet normal 1 0 0
    outer loop
      vertex -9.33333 6.49 0
      vertex -9.33333 5.3 2
      vertex -9.33333 5.3 0
    endloop
  endfacet
  facet normal -0 0 1
    outer loop
      vertex -19.3333 6.49 24
      vertex -9.33333 5.29 24
      vertex -9.33333 6.49 24
    endloop
  endfacet
  facet normal 0 0 1
    outer loop
      vertex -9.33333 5.29 24
      vertex -19.3333 6.49 24
      vertex -19.3333 5.29 24
    endloop
  endfacet
  facet normal -1 0 0
    outer loop
      vertex -19.3333 5.3 2
      vertex -19.3333 6.49 0
      vertex -19.3333 5.3 0
    endloop
  endfacet
  facet normal -1 0 0
    outer loop
      vertex -19.3333 6.49 0
      vertex -19.3333 5.3 2
      vertex -19.3333 6.49 24
    endloop
  endfacet
  facet normal -1 0 0
    outer loop
      vertex -19.3333 5.29 24
      vertex -19.3333 5.3 2
      vertex -19.3333 5.29 2
    endloop
  endfacet
  facet normal -1 0 0
    outer loop
      vertex -19.3333 5.3 2
      vertex -19.3333 5.29 24
      vertex -19.3333 6.49 24
    endloop
  endfacet
  facet normal 0 1 -0
    outer loop
      vertex -9.33333 6.49 0
      vertex -19.3333 6.49 24
      vertex -9.33333 6.49 24
    endloop
  endfacet
  facet normal 0 1 0
    outer loop
      vertex -19.3333 6.49 24
      vertex -9.33333 6.49 0
      vertex -19.3333 6.49 0
    endloop
  endfacet
  facet normal 0 -1 0
    outer loop
      vertex -19.3333 5.29 2
      vertex -9.33333 5.29 24
      vertex -19.3333 5.29 24
    endloop
  endfacet
  facet normal 0 -1 -0
    outer loop
      vertex -9.33333 5.29 24
      vertex -19.3333 5.29 2
      vertex -9.33333 5.29 2
    endloop
  endfacet
  facet normal 1 -0 0
    outer loop
      vertex 72.99 -30.45 2
      vertex 72.99 -5.45 0
      vertex 72.99 -5.45 2
    endloop
  endfacet
  facet normal 1 0 0
    outer loop
      vertex 72.99 -5.45 0
      vertex 72.99 -30.45 2
      vertex 72.99 -30.45 0
    endloop
  endfacet
  facet normal 1 -0 0
    outer loop
      vertex 72.99 5.45 2
      vertex 72.99 19.55 0
      vertex 72.99 19.55 2
    endloop
  endfacet
  facet normal 1 0 0
    outer loop
      vertex 72.99 19.55 0
      vertex 72.99 5.45 2
      vertex 72.99 5.45 0
    endloop
  endfacet
  facet normal -1 0 0
    outer loop
      vertex 72.99 -5.45 2
      vertex 72.99 5.45 24
      vertex 72.99 5.45 2
    endloop
  endfacet
  facet normal -1 -0 0
    outer loop
      vertex 72.99 5.45 24
      vertex 72.99 -5.45 2
      vertex 72.99 -5.45 24
    endloop
  endfacet
  facet normal -0 0 1
    outer loop
      vertex 72.99 5.45 24
      vertex 74.19 -5.45 24
      vertex 74.19 5.45 24
    endloop
  endfacet
  facet normal 0 0 1
    outer loop
      vertex 74.19 -5.45 24
      vertex 72.99 5.45 24
      vertex 72.99 -5.45 24
    endloop
  endfacet
  facet normal 1 -0 0
    outer loop
      vertex 74.19 -5.45 24
      vertex 74.19 5.45 0
      vertex 74.19 5.45 24
    endloop
  endfacet
  facet normal 1 0 0
    outer loop
      vertex 74.19 5.45 0
      vertex 74.19 -5.45 24
      vertex 74.19 -5.45 0
    endloop
  endfacet
  facet normal 0 -1 0
    outer loop
      vertex 72.99 -5.45 2
      vertex 74.19 -5.45 24
      vertex 72.99 -5.45 24
    endloop
  endfacet
  facet normal 0 -1 0
    outer loop
      vertex 74.19 -5.45 0
      vertex 72.99 -5.45 2
      vertex 72.99 -5.45 0
    endloop
  endfacet
  facet normal 0 -1 0
    outer loop
      vertex 72.99 -5.45 2
      vertex 74.19 -5.45 0
      vertex 74.19 -5.45 24
    endloop
  endfacet
  facet normal 0 1 0
    outer loop
      vertex 74.19 5.45 24
      vertex 72.99 5.45 2
      vertex 72.99 5.45 24
    endloop
  endfacet
  facet normal 0 1 -0
    outer loop
      vertex 74.19 5.45 0
      vertex 72.99 5.45 2
      vertex 74.19 5.45 24
    endloop
  endfacet
  facet normal 0 1 0
    outer loop
      vertex 72.99 5.45 2
      vertex 74.19 5.45 0
      vertex 72.99 5.45 0
    endloop
  endfacet
  facet normal -1 0 0
    outer loop
      vertex 58 5.3 2
      vertex 58 6.49 0
      vertex 58 5.3 0
    endloop
  endfacet
  facet normal -1 0 0
    outer loop
      vertex 58 6.49 0
      vertex 58 5.3 2
      vertex 58 6.49 24
    endloop
  endfacet
  facet normal -1 0 0
    outer loop
      vertex 58 5.29 24
      vertex 58 5.3 2
      vertex 58 5.29 2
    endloop
  endfacet
  facet normal -1 0 0
    outer loop
      vertex 58 5.3 2
      vertex 58 5.29 24
      vertex 58 6.49 24
    endloop
  endfacet
  facet normal -0 0 1
    outer loop
      vertex 58 6.49 24
      vertex 68 5.29 24
      vertex 68 6.49 24
    endloop
  endfacet
  facet normal 0 0 1
    outer loop
      vertex 68 5.29 24
      vertex 58 6.49 24
      vertex 58 5.29 24
    endloop
  endfacet
  facet normal 1 -0 0
    outer loop
      vertex 68 5.29 24
      vertex 68 6.49 2
      vertex 68 6.49 24
    endloop
  endfacet
  facet normal 1 0 0
    outer loop
      vertex 68 6.49 2
      vertex 68 5.29 24
      vertex 68 5.29 2
    endloop
  endfacet
  facet normal 0 -1 0
    outer loop
      vertex 58 5.29 2
      vertex 68 5.29 24
      vertex 58 5.29 24
    endloop
  endfacet
  facet normal 0 -1 -0
    outer loop
      vertex 68 5.29 24
      vertex 58 5.29 2
      vertex 68 5.29 2
    endloop
  endfacet
  facet normal 0 1 0
    outer loop
      vertex 62.99 6.49 2
      vertex 68 6.49 24
      vertex 68 6.49 2
    endloop
  endfacet
  facet normal 0 1 0
    outer loop
      vertex 68 6.49 24
      vertex 62.99 6.49 2
      vertex 58 6.49 24
    endloop
  endfacet
  facet normal 0 1 0
    outer loop
      vertex 58 6.49 0
      vertex 62.99 6.49 2
      vertex 62.99 6.49 0
    endloop
  endfacet
  facet normal 0 1 0
    outer loop
      vertex 62.99 6.49 2
      vertex 58 6.49 0
      vertex 58 6.49 24
    endloop
  endfacet
  facet normal -1 0 0
    outer loop
      vertex 9.33333 5.3 2
      vertex 9.33333 6.49 0
      vertex 9.33333 5.3 0
    endloop
  endfacet
  facet normal -1 0 0
    outer loop
      vertex 9.33333 6.49 0
      vertex 9.33333 5.3 2
      vertex 9.33333 6.49 24
    endloop
  endfacet
  facet normal -1 0 0
    outer loop
      vertex 9.33333 5.29 24
      vertex 9.33333 5.3 2
      vertex 9.33333 5.29 2
    endloop
  endfacet
  facet normal -1 0 0
    outer loop
      vertex 9.33333 5.3 2
      vertex 9.33333 5.29 24
      vertex 9.33333 6.49 24
    endloop
  endfacet
  facet normal -0 0 1
    outer loop
      vertex 9.33333 6.49 24
      vertex 19.3333 5.29 24
      vertex 19.3333 6.49 24
    endloop
  endfacet
  facet normal 0 0 1
    outer loop
      vertex 19.3333 5.29 24
      vertex 9.33333 6.49 24
      vertex 9.33333 5.29 24
    endloop
  endfacet
  facet normal 1 0 0
    outer loop
      vertex 19.3333 6.49 24
      vertex 19.3333 5.3 2
      vertex 19.3333 6.49 0
    endloop
  endfacet
  facet normal 1 -0 0
    outer loop
      vertex 19.3333 5.29 24
      vertex 19.3333 5.3 2
      vertex 19.3333 6.49 24
    endloop
  endfacet
  facet normal 1 0 0
    outer loop
      vertex 19.3333 5.3 2
      vertex 19.3333 5.29 24
      vertex 19.3333 5.29 2
    endloop
  endfacet
  facet normal 1 0 0
    outer loop
      vertex 19.3333 6.49 0
      vertex 19.3333 5.3 2
      vertex 19.3333 5.3 0
    endloop
  endfacet
  facet normal 0 1 -0
    outer loop
      vertex 19.3333 6.49 0
      vertex 9.33333 6.49 24
      vertex 19.3333 6.49 24
    endloop
  endfacet
  facet normal 0 1 0
    outer loop
      vertex 9.33333 6.49 24
      vertex 19.3333 6.49 0
      vertex 9.33333 6.49 0
    endloop
  endfacet
  facet normal 0 -1 0
    outer loop
      vertex 9.33333 5.29 2
      vertex 19.3333 5.29 24
      vertex 9.33333 5.29 24
    endloop
  endfacet
  facet normal 0 -1 -0
    outer loop
      vertex 19.3333 5.29 24
      vertex 9.33333 5.29 2
      vertex 19.3333 5.29 2
    endloop
  endfacet
  facet normal 0 0 1
    outer loop
      vertex -62.99 19.55 2
      vertex -68 6.49 2
      vertex -62.99 6.49 2
    endloop
  endfacet
  facet normal -0 0 1
    outer loop
      vertex -72.99 5.45 2
      vertex -68 5.29 2
      vertex -68 6.49 2
    endloop
  endfacet
  facet normal 0 0 1
    outer loop
      vertex -68 5.29 2
      vertex -72.99 5.45 2
      vertex -68 -5.29 2
    endloop
  endfacet
  facet normal 0 0 1
    outer loop
      vertex -72.99 5.45 2
      vertex -68 6.49 2
      vertex -72.99 19.55 2
    endloop
  endfacet
  facet normal -0 0 1
    outer loop
      vertex -72.99 19.55 2
      vertex -68 6.49 2
      vertex -62.99 19.55 2
    endloop
  endfacet
  facet normal -0 0 1
    outer loop
      vertex -68 5.29 2
      vertex -58 -5.29 2
      vertex -58 5.29 2
    endloop
  endfacet
  facet normal 0 0 1
    outer loop
      vertex -58 -5.29 2
      vertex -68 5.29 2
      vertex -68 -5.29 2
    endloop
  endfacet
  facet normal 0 0 1
    outer loop
      vertex -58 5.29 2
      vertex -19.3333 5.29 2
      vertex -19.3333 5.3 2
    endloop
  endfacet
  facet normal 0 0 1
    outer loop
      vertex -19.3333 5.29 2
      vertex -58 5.29 2
      vertex -19.3333 -5.29 2
    endloop
  endfacet
  facet normal 0 0 1
    outer loop
      vertex -58 5.29 2
      vertex -19.3333 5.3 2
      vertex -58 5.3 2
    endloop
  endfacet
  facet normal 0 0 1
    outer loop
      vertex -58 -5.29 2
      vertex -19.3333 -5.29 2
      vertex -58 5.29 2
    endloop
  endfacet
  facet normal 0 0 1
    outer loop
      vertex -19.3333 -5.29 2
      vertex -58 -5.29 2
      vertex -19.3333 -5.3 2
    endloop
  endfacet
  facet normal 0 0 1
    outer loop
      vertex -19.3333 -5.3 2
      vertex -58 -5.29 2
      vertex -58 -5.3 2
    endloop
  endfacet
  facet normal -0 0 1
    outer loop
      vertex -19.3333 5.29 2
      vertex -9.33333 -5.29 2
      vertex -9.33333 5.29 2
    endloop
  endfacet
  facet normal 0 0 1
    outer loop
      vertex -9.33333 -5.29 2
      vertex -19.3333 5.29 2
      vertex -19.3333 -5.29 2
    endloop
  endfacet
  facet normal 0 0 1
    outer loop
      vertex -9.33333 5.29 2
      vertex 9.33333 5.29 2
      vertex 9.33333 5.3 2
    endloop
  endfacet
  facet normal 0 0 1
    outer loop
      vertex 9.33333 5.29 2
      vertex -9.33333 5.29 2
      vertex 9.33333 -5.29 2
    endloop
  endfacet
  facet normal 0 0 1
    outer loop
      vertex -9.33333 5.29 2
      vertex 9.33333 5.3 2
      vertex -9.33333 5.3 2
    endloop
  endfacet
  facet normal 0 0 1
    outer loop
      vertex -9.33333 -5.29 2
      vertex 9.33333 -5.29 2
      vertex -9.33333 5.29 2
    endloop
  endfacet
  facet normal 0 0 1
    outer loop
      vertex 9.33333 -5.29 2
      vertex -9.33333 -5.29 2
      vertex 9.33333 -5.3 2
    endloop
  endfacet
  facet normal 0 0 1
    outer loop
      vertex 9.33333 -5.3 2
      vertex -9.33333 -5.29 2
      vertex -9.33333 -5.3 2
    endloop
  endfacet
  facet normal -0 0 1
    outer loop
      vertex 9.33333 5.29 2
      vertex 19.3333 -5.29 2
      vertex 19.3333 5.29 2
    endloop
  endfacet
  facet normal 0 0 1
    outer loop
      vertex 19.3333 -5.29 2
      vertex 9.33333 5.29 2
      vertex 9.33333 -5.29 2
    endloop
  endfacet
  facet normal 0 0 1
    outer loop
      vertex 19.3333 5.29 2
      vertex 58 5.29 2
      vertex 58 5.3 2
    endloop
  endfacet
  facet normal 0 0 1
    outer loop
      vertex 58 5.29 2
      vertex 19.3333 5.29 2
      vertex 58 -5.29 2
    endloop
  endfacet
  facet normal 0 0 1
    outer loop
      vertex 19.3333 5.29 2
      vertex 58 5.3 2
      vertex 19.3333 5.3 2
    endloop
  endfacet
  facet normal 0 0 1
    outer loop
      vertex 19.3333 -5.29 2
      vertex 58 -5.29 2
      vertex 19.3333 5.29 2
    endloop
  endfacet
  facet normal 0 0 1
    outer loop
      vertex 58 -5.29 2
      vertex 19.3333 -5.29 2
      vertex 58 -5.3 2
    endloop
  endfacet
  facet normal 0 0 1
    outer loop
      vertex 58 -5.3 2
      vertex 19.3333 -5.29 2
      vertex 19.3333 -5.3 2
    endloop
  endfacet
  facet normal -0 0 1
    outer loop
      vertex 58 5.29 2
      vertex 68 -5.29 2
      vertex 68 5.29 2
    endloop
  endfacet
  facet normal 0 0 1
    outer loop
      vertex 68 -5.29 2
      vertex 58 5.29 2
      vertex 58 -5.29 2
    endloop
  endfacet
  facet normal -0 0 1
    outer loop
      vertex 68 6.49 2
      vertex 72.99 5.45 2
      vertex 72.99 19.55 2
    endloop
  endfacet
  facet normal 0 0 1
    outer loop
      vertex 68 5.29 2
      vertex 72.99 5.45 2
      vertex 68 6.49 2
    endloop
  endfacet
  facet normal 0 0 1
    outer loop
      vertex 72.99 5.45 2
      vertex 68 5.29 2
      vertex 72.99 -5.45 2
    endloop
  endfacet
  facet normal -0 0 1
    outer loop
      vertex 62.99 19.55 2
      vertex 68 6.49 2
      vertex 72.99 19.55 2
    endloop
  endfacet
  facet normal 0 0 1
    outer loop
      vertex 68 6.49 2
      vertex 62.99 19.55 2
      vertex 62.99 6.49 2
    endloop
  endfacet
  facet normal 0 0 1
    outer loop
      vertex 72.99 -5.45 2
      vertex 68 5.29 2
      vertex 68 -5.29 2
    endloop
  endfacet
  facet normal 0 0 1
    outer loop
      vertex 68 -6.49 2
      vertex 72.99 -5.45 2
      vertex 68 -5.29 2
    endloop
  endfacet
  facet normal 0 0 1
    outer loop
      vertex 72.99 -5.45 2
      vertex 68 -6.49 2
      vertex 72.99 -30.45 2
    endloop
  endfacet
  facet normal 0 0 1
    outer loop
      vertex 62.99 -30.45 2
      vertex 68 -6.49 2
      vertex 62.99 -6.49 2
    endloop
  endfacet
  facet normal 0 0 1
    outer loop
      vertex 68 -6.49 2
      vertex 62.99 -30.45 2
      vertex 72.99 -30.45 2
    endloop
  endfacet
  facet normal -0 0 1
    outer loop
      vertex -68 -6.49 2
      vertex -62.99 -30.45 2
      vertex -62.99 -6.49 2
    endloop
  endfacet
  facet normal 0 0 1
    outer loop
      vertex -72.99 -5.45 2
      vertex -68 -5.29 2
      vertex -72.99 5.45 2
    endloop
  endfacet
  facet normal 0 0 1
    outer loop
      vertex -68 -5.29 2
      vertex -72.99 -5.45 2
      vertex -68 -6.49 2
    endloop
  endfacet
  facet normal 0 0 1
    outer loop
      vertex -72.99 -30.45 2
      vertex -68 -6.49 2
      vertex -72.99 -5.45 2
    endloop
  endfacet
  facet normal 0 0 1
    outer loop
      vertex -68 -6.49 2
      vertex -72.99 -30.45 2
      vertex -62.99 -30.45 2
    endloop
  endfacet
  facet normal 0 1 -0
    outer loop
      vertex -19.3333 5.3 0
      vertex -58 5.3 2
      vertex -19.3333 5.3 2
    endloop
  endfacet
  facet normal 0 1 0
    outer loop
      vertex -58 5.3 2
      vertex -19.3333 5.3 0
      vertex -58 5.3 0
    endloop
  endfacet
  facet normal 0 1 -0
    outer loop
      vertex 9.33333 5.3 0
      vertex -9.33333 5.3 2
      vertex 9.33333 5.3 2
    endloop
  endfacet
  facet normal 0 1 0
    outer loop
      vertex -9.33333 5.3 2
      vertex 9.33333 5.3 0
      vertex -9.33333 5.3 0
    endloop
  endfacet
  facet normal 0 1 -0
    outer loop
      vertex 58 5.3 0
      vertex 19.3333 5.3 2
      vertex 58 5.3 2
    endloop
  endfacet
  facet normal 0 1 0
    outer loop
      vertex 19.3333 5.3 2
      vertex 58 5.3 0
      vertex 19.3333 5.3 0
    endloop
  endfacet
  facet normal 0 -1 0
    outer loop
      vertex -58 -5.3 0
      vertex -19.3333 -5.3 2
      vertex -58 -5.3 2
    endloop
  endfacet
  facet normal 0 -1 -0
    outer loop
      vertex -19.3333 -5.3 2
      vertex -58 -5.3 0
      vertex -19.3333 -5.3 0
    endloop
  endfacet
  facet normal 0 -1 0
    outer loop
      vertex -9.33333 -5.3 0
      vertex 9.33333 -5.3 2
      vertex -9.33333 -5.3 2
    endloop
  endfacet
  facet normal 0 -1 -0
    outer loop
      vertex 9.33333 -5.3 2
      vertex -9.33333 -5.3 0
      vertex 9.33333 -5.3 0
    endloop
  endfacet
  facet normal 0 -1 0
    outer loop
      vertex 19.3333 -5.3 0
      vertex 58 -5.3 2
      vertex 19.3333 -5.3 2
    endloop
  endfacet
  facet normal 0 -1 -0
    outer loop
      vertex 58 -5.3 2
      vertex 19.3333 -5.3 0
      vertex 58 -5.3 0
    endloop
  endfacet
  facet normal -1 0 0
    outer loop
      vertex 62.99 -30.45 0
      vertex 62.99 -6.49 2
      vertex 62.99 -6.49 0
    endloop
  endfacet
  facet normal -1 -0 0
    outer loop
      vertex 62.99 -6.49 2
      vertex 62.99 -30.45 0
      vertex 62.99 -30.45 2
    endloop
  endfacet
  facet normal -1 0 0
    outer loop
      vertex 62.99 6.49 0
      vertex 62.99 19.55 2
      vertex 62.99 19.55 0
    endloop
  endfacet
  facet normal -1 -0 0
    outer loop
      vertex 62.99 19.55 2
      vertex 62.99 6.49 0
      vertex 62.99 6.49 2
    endloop
  endfacet
  facet normal 0 1 -0
    outer loop
      vertex 72.99 19.55 0
      vertex 62.99 19.55 2
      vertex 72.99 19.55 2
    endloop
  endfacet
  facet normal 0 1 0
    outer loop
      vertex 62.99 19.55 2
      vertex 72.99 19.55 0
      vertex 62.99 19.55 0
    endloop
  endfacet
  facet normal 0 -1 0
    outer loop
      vertex 62.99 -30.45 0
      vertex 72.99 -30.45 2
      vertex 62.99 -30.45 2
    endloop
  endfacet
  facet normal 0 -1 -0
    outer loop
      vertex 72.99 -30.45 2
      vertex 62.99 -30.45 0
      vertex 72.99 -30.45 0
    endloop
  endfacet
  facet normal 0 1 -0
    outer loop
      vertex -62.99 19.55 0
      vertex -72.99 19.55 2
      vertex -62.99 19.55 2
    endloop
  endfacet
  facet normal 0 1 0
    outer loop
      vertex -72.99 19.55 2
      vertex -62.99 19.55 0
      vertex -72.99 19.55 0
    endloop
  endfacet
  facet normal 1 -0 0
    outer loop
      vertex -62.99 6.49 2
      vertex -62.99 19.55 0
      vertex -62.99 19.55 2
    endloop
  endfacet
  facet normal 1 0 0
    outer loop
      vertex -62.99 19.55 0
      vertex -62.99 6.49 2
      vertex -62.99 6.49 0
    endloop
  endfacet
  facet normal 1 -0 0
    outer loop
      vertex -62.99 -30.45 2
      vertex -62.99 -6.49 0
      vertex -62.99 -6.49 2
    endloop
  endfacet
  facet normal 1 0 0
    outer loop
      vertex -62.99 -6.49 0
      vertex -62.99 -30.45 2
      vertex -62.99 -30.45 0
    endloop
  endfacet
  facet normal 0 -1 0
    outer loop
      vertex -72.99 -30.45 0
      vertex -62.99 -30.45 2
      vertex -72.99 -30.45 2
    endloop
  endfacet
  facet normal 0 -1 -0
    outer loop
      vertex -62.99 -30.45 2
      vertex -72.99 -30.45 0
      vertex -62.99 -30.45 0
    endloop
  endfacet
endsolid OpenSCAD_Model
