solid OpenSCAD_Model
  facet normal 1 -0 0
    outer loop
      vertex 35.0503 0 20
      vertex 35.0503 3.5 0
      vertex 35.0503 3.5 20
    endloop
  endfacet
  facet normal 1 0 0
    outer loop
      vertex 35.0503 3.5 0
      vertex 35.0503 0 20
      vertex 35.0503 0 0
    endloop
  endfacet
  facet normal 1 -0 0
    outer loop
      vertex 35.0503 11.5 20
      vertex 35.0503 15 0
      vertex 35.0503 15 20
    endloop
  endfacet
  facet normal 1 0 0
    outer loop
      vertex 35.0503 15 0
      vertex 35.0503 11.5 20
      vertex 35.0503 11.5 0
    endloop
  endfacet
  facet normal 0 0 1
    outer loop
      vertex 35.0503 15 20
      vertex 20 11.5 20
      vertex 35.0503 11.5 20
    endloop
  endfacet
  facet normal 0 0 1
    outer loop
      vertex 20 11.5 20
      vertex 15.0603 15 20
      vertex 20 3.5 20
    endloop
  endfacet
  facet normal -0 0 1
    outer loop
      vertex 15.0603 15 20
      vertex 20 11.5 20
      vertex 35.0503 15 20
    endloop
  endfacet
  facet normal -0 0 1
    outer loop
      vertex 20 3.5 20
      vertex 35.0503 0 20
      vertex 35.0503 3.5 20
    endloop
  endfacet
  facet normal 0 0 1
    outer loop
      vertex 20 3.5 20
      vertex 15.0603 0 20
      vertex 35.0503 0 20
    endloop
  endfacet
  facet normal 0 0 1
    outer loop
      vertex 15.0603 0 20
      vertex 20 3.5 20
      vertex 15.0603 15 20
    endloop
  endfacet
  facet normal 0 1 -0
    outer loop
      vertex 35.0503 15 0
      vertex 15.0603 15 20
      vertex 35.0503 15 20
    endloop
  endfacet
  facet normal 0 1 0
    outer loop
      vertex 15.0603 15 20
      vertex 35.0503 15 0
      vertex -4.93975 15 0
    endloop
  endfacet
  facet normal 0 0 -1
    outer loop
      vertex -62.39 -57.6 0
      vertex -59.99 -10 0
      vertex -59.99 -57.6 0
    endloop
  endfacet
  facet normal 0 0 -1
    outer loop
      vertex -62.39 2.4 0
      vertex -59.99 -10 0
      vertex -62.39 -57.6 0
    endloop
  endfacet
  facet normal 0 0 -1
    outer loop
      vertex -59.99 -10 0
      vertex -62.39 2.4 0
      vertex -60 2.4 0
    endloop
  endfacet
  facet normal 0 0 -1
    outer loop
      vertex -49.99 -0.0547819 0
      vertex -51.0353 -0.0547819 0
      vertex -49.99 0 0
    endloop
  endfacet
  facet normal 0 0 -1
    outer loop
      vertex 35.0503 0 0
      vertex 5.7094e-07 3.5 0
      vertex 35.0503 3.5 0
    endloop
  endfacet
  facet normal -0 0 -1
    outer loop
      vertex 5.7094e-07 3.5 0
      vertex -4.93975 3 0
      vertex 5.7094e-07 11.5 0
    endloop
  endfacet
  facet normal 0 0 -1
    outer loop
      vertex 35.0503 0 0
      vertex -4.93975 3 0
      vertex 5.7094e-07 3.5 0
    endloop
  endfacet
  facet normal 0 0 -1
    outer loop
      vertex -49.99 0 0
      vertex -4.93975 3 0
      vertex 35.0503 0 0
    endloop
  endfacet
  facet normal 0 0 -1
    outer loop
      vertex -60 3 0
      vertex -49.99 0 0
      vertex -51.0353 -0.0547819 0
    endloop
  endfacet
  facet normal 0 0 -1
    outer loop
      vertex -60 2.4 0
      vertex -59.7715 -7.92088 0
      vertex -59.99 -10 0
    endloop
  endfacet
  facet normal 0 0 -1
    outer loop
      vertex -60 2.4 0
      vertex -59.1255 -5.93263 0
      vertex -59.7715 -7.92088 0
    endloop
  endfacet
  facet normal 0 0 -1
    outer loop
      vertex -60 2.4 0
      vertex -58.0802 -4.12215 0
      vertex -59.1255 -5.93263 0
    endloop
  endfacet
  facet normal 0 0 -1
    outer loop
      vertex -60 2.4 0
      vertex -56.6813 -2.56855 0
      vertex -58.0802 -4.12215 0
    endloop
  endfacet
  facet normal 0 0 -1
    outer loop
      vertex -60 2.4 0
      vertex -54.99 -1.33975 0
      vertex -56.6813 -2.56855 0
    endloop
  endfacet
  facet normal 0 0 -1
    outer loop
      vertex -60 3 0
      vertex -54.99 -1.33975 0
      vertex -60 2.4 0
    endloop
  endfacet
  facet normal 0 0 -1
    outer loop
      vertex -54.99 -1.33975 0
      vertex -60 3 0
      vertex -53.0802 -0.489435 0
    endloop
  endfacet
  facet normal 0 0 -1
    outer loop
      vertex -53.0802 -0.489435 0
      vertex -60 3 0
      vertex -51.0353 -0.0547819 0
    endloop
  endfacet
  facet normal 0 0 -1
    outer loop
      vertex -49.99 0 0
      vertex -60 3 0
      vertex -4.93975 3 0
    endloop
  endfacet
  facet normal 0 0 -1
    outer loop
      vertex 5.7094e-07 11.5 0
      vertex 35.0503 15 0
      vertex 35.0503 11.5 0
    endloop
  endfacet
  facet normal 0 0 -1
    outer loop
      vertex 5.7094e-07 11.5 0
      vertex -4.93975 15 0
      vertex 35.0503 15 0
    endloop
  endfacet
  facet normal 0 0 -1
    outer loop
      vertex -4.93975 15 0
      vertex 5.7094e-07 11.5 0
      vertex -4.93975 3 0
    endloop
  endfacet
  facet normal 0 -1 0
    outer loop
      vertex -49.99 0 2.4
      vertex -60 0 3
      vertex -60 0 2.4
    endloop
  endfacet
  facet normal 0 -1 0
    outer loop
      vertex 35.0503 0 0
      vertex 15.0603 0 20
      vertex -1.93975 0 3
    endloop
  endfacet
  facet normal 0 -1 0
    outer loop
      vertex -60 0 3
      vertex -49.99 0 2.4
      vertex -1.93975 0 3
    endloop
  endfacet
  facet normal 0 -1 0
    outer loop
      vertex -49.99 0 0
      vertex -1.93975 0 3
      vertex -49.99 0 2.4
    endloop
  endfacet
  facet normal 0 -1 0
    outer loop
      vertex 15.0603 0 20
      vertex 35.0503 0 0
      vertex 35.0503 0 20
    endloop
  endfacet
  facet normal 0 -1 0
    outer loop
      vertex 35.0503 0 0
      vertex -1.93975 0 3
      vertex -49.99 0 0
    endloop
  endfacet
  facet normal -0.707107 0 0.707107
    outer loop
      vertex -1.93975 3 3
      vertex -4.93975 15 0
      vertex -4.93975 3 0
    endloop
  endfacet
  facet normal -0.707107 -2.80979e-09 0.707107
    outer loop
      vertex -4.93975 15 0
      vertex -1.93975 3 3
      vertex 15.0603 15 20
    endloop
  endfacet
  facet normal -0.707107 0 0.707107
    outer loop
      vertex 15.0603 0 20
      vertex -1.93975 3 3
      vertex -1.93975 0 3
    endloop
  endfacet
  facet normal -0.707107 0 0.707107
    outer loop
      vertex -1.93975 3 3
      vertex 15.0603 0 20
      vertex 15.0603 15 20
    endloop
  endfacet
  facet normal 0.707107 0 -0.707107
    outer loop
      vertex 20 3.5 20
      vertex 5.7094e-07 11.5 0
      vertex 20 11.5 20
    endloop
  endfacet
  facet normal 0.707107 0 -0.707107
    outer loop
      vertex 5.7094e-07 11.5 0
      vertex 20 3.5 20
      vertex 5.7094e-07 3.5 0
    endloop
  endfacet
  facet normal 0 1 -0
    outer loop
      vertex 35.0503 3.5 0
      vertex 20 3.5 20
      vertex 35.0503 3.5 20
    endloop
  endfacet
  facet normal 0 1 0
    outer loop
      vertex 20 3.5 20
      vertex 35.0503 3.5 0
      vertex 5.7094e-07 3.5 0
    endloop
  endfacet
  facet normal 0 -1 0
    outer loop
      vertex 35.0503 11.5 0
      vertex 20 11.5 20
      vertex 5.7094e-07 11.5 0
    endloop
  endfacet
  facet normal 0 -1 0
    outer loop
      vertex 20 11.5 20
      vertex 35.0503 11.5 0
      vertex 35.0503 11.5 20
    endloop
  endfacet
  facet normal 1 -0 0
    outer loop
      vertex -60 -71.2 5.6
      vertex -60 -57.6 0
      vertex -60 -57.6 5.6
    endloop
  endfacet
  facet normal 1 0 0
    outer loop
      vertex -60 -57.6 0
      vertex -60 -71.2 5.6
      vertex -60 -71.2 0
    endloop
  endfacet
  facet normal -0 0 1
    outer loop
      vertex -65.6 -57.6 5.6
      vertex -60 -71.2 5.6
      vertex -60 -57.6 5.6
    endloop
  endfacet
  facet normal 0 0 1
    outer loop
      vertex -60 -71.2 5.6
      vertex -65.6 -57.6 5.6
      vertex -65.6 -71.2 5.6
    endloop
  endfacet
  facet normal -1 0 0
    outer loop
      vertex -65.6 -71.2 0
      vertex -65.6 -57.6 5.6
      vertex -65.6 -57.6 0
    endloop
  endfacet
  facet normal -1 -0 0
    outer loop
      vertex -65.6 -57.6 5.6
      vertex -65.6 -71.2 0
      vertex -65.6 -71.2 5.6
    endloop
  endfacet
  facet normal 0 1 -0
    outer loop
      vertex -60 -57.6 0
      vertex -65.6 -57.6 5.6
      vertex -60 -57.6 5.6
    endloop
  endfacet
  facet normal 0 1 0
    outer loop
      vertex -65.6 -57.6 5.6
      vertex -60 -57.6 0
      vertex -65.6 -57.6 0
    endloop
  endfacet
  facet normal 0 0 -1
    outer loop
      vertex -65.6 -71.2 0
      vertex -60 -57.6 0
      vertex -60 -71.2 0
    endloop
  endfacet
  facet normal -0 0 -1
    outer loop
      vertex -60 -57.6 0
      vertex -65.6 -71.2 0
      vertex -65.6 -57.6 0
    endloop
  endfacet
  facet normal 0 -1 0
    outer loop
      vertex -65.6 -71.2 5.6
      vertex -62.8 -71.2 4
      vertex -60 -71.2 5.6
    endloop
  endfacet
  facet normal 0 -1 0
    outer loop
      vertex -65.6 -71.2 5.6
      vertex -63.1708 -71.2 3.94127
      vertex -62.8 -71.2 4
    endloop
  endfacet
  facet normal 0 -1 0
    outer loop
      vertex -65.6 -71.2 5.6
      vertex -63.5053 -71.2 3.77082
      vertex -63.1708 -71.2 3.94127
    endloop
  endfacet
  facet normal 0 -1 0
    outer loop
      vertex -65.6 -71.2 5.6
      vertex -63.7708 -71.2 3.50534
      vertex -63.5053 -71.2 3.77082
    endloop
  endfacet
  facet normal 0 -1 0
    outer loop
      vertex -65.6 -71.2 5.6
      vertex -63.9413 -71.2 3.17082
      vertex -63.7708 -71.2 3.50534
    endloop
  endfacet
  facet normal 0 -1 0
    outer loop
      vertex -65.6 -71.2 5.6
      vertex -64 -71.2 2.8
      vertex -63.9413 -71.2 3.17082
    endloop
  endfacet
  facet normal 0 -1 0
    outer loop
      vertex -65.6 -71.2 0
      vertex -64 -71.2 2.8
      vertex -65.6 -71.2 5.6
    endloop
  endfacet
  facet normal 0 -1 -0
    outer loop
      vertex -64 -71.2 2.8
      vertex -65.6 -71.2 0
      vertex -63.9413 -71.2 2.42918
    endloop
  endfacet
  facet normal 0 -1 -0
    outer loop
      vertex -63.1708 -71.2 1.65873
      vertex -65.6 -71.2 0
      vertex -62.8 -71.2 1.6
    endloop
  endfacet
  facet normal 0 -1 -0
    outer loop
      vertex -63.5053 -71.2 1.82918
      vertex -65.6 -71.2 0
      vertex -63.1708 -71.2 1.65873
    endloop
  endfacet
  facet normal 0 -1 -0
    outer loop
      vertex -63.7708 -71.2 2.09466
      vertex -65.6 -71.2 0
      vertex -63.5053 -71.2 1.82918
    endloop
  endfacet
  facet normal 0 -1 -0
    outer loop
      vertex -63.9413 -71.2 2.42918
      vertex -65.6 -71.2 0
      vertex -63.7708 -71.2 2.09466
    endloop
  endfacet
  facet normal 0 -1 0
    outer loop
      vertex -62.4292 -71.2 3.94127
      vertex -60 -71.2 5.6
      vertex -62.8 -71.2 4
    endloop
  endfacet
  facet normal 0 -1 0
    outer loop
      vertex -62.0947 -71.2 3.77082
      vertex -60 -71.2 5.6
      vertex -62.4292 -71.2 3.94127
    endloop
  endfacet
  facet normal 0 -1 0
    outer loop
      vertex -61.8292 -71.2 3.50534
      vertex -60 -71.2 5.6
      vertex -62.0947 -71.2 3.77082
    endloop
  endfacet
  facet normal 0 -1 0
    outer loop
      vertex -61.6587 -71.2 3.17082
      vertex -60 -71.2 5.6
      vertex -61.8292 -71.2 3.50534
    endloop
  endfacet
  facet normal 0 -1 0
    outer loop
      vertex -61.6 -71.2 2.8
      vertex -60 -71.2 5.6
      vertex -61.6587 -71.2 3.17082
    endloop
  endfacet
  facet normal 0 -1 0
    outer loop
      vertex -60 -71.2 0
      vertex -61.6 -71.2 2.8
      vertex -61.6587 -71.2 2.42918
    endloop
  endfacet
  facet normal 0 -1 0
    outer loop
      vertex -60 -71.2 0
      vertex -61.6587 -71.2 2.42918
      vertex -61.8292 -71.2 2.09466
    endloop
  endfacet
  facet normal 0 -1 0
    outer loop
      vertex -60 -71.2 0
      vertex -62.8 -71.2 1.6
      vertex -65.6 -71.2 0
    endloop
  endfacet
  facet normal 0 -1 0
    outer loop
      vertex -62.8 -71.2 1.6
      vertex -60 -71.2 0
      vertex -62.4292 -71.2 1.65873
    endloop
  endfacet
  facet normal 0 -1 0
    outer loop
      vertex -61.6 -71.2 2.8
      vertex -60 -71.2 0
      vertex -60 -71.2 5.6
    endloop
  endfacet
  facet normal 0 -1 0
    outer loop
      vertex -62.0947 -71.2 1.82918
      vertex -60 -71.2 0
      vertex -61.8292 -71.2 2.09466
    endloop
  endfacet
  facet normal 0 -1 0
    outer loop
      vertex -62.4292 -71.2 1.65873
      vertex -60 -71.2 0
      vertex -62.0947 -71.2 1.82918
    endloop
  endfacet
  facet normal 0.987689 0 -0.156431
    outer loop
      vertex -63.9413 -71.2 3.17082
      vertex -64 -59.21 2.8
      vertex -63.9413 -59.21 3.17082
    endloop
  endfacet
  facet normal 0.987689 0 -0.156431
    outer loop
      vertex -64 -59.21 2.8
      vertex -63.9413 -71.2 3.17082
      vertex -64 -71.2 2.8
    endloop
  endfacet
  facet normal -0.987689 0 0.156432
    outer loop
      vertex -61.6587 -71.2 2.42918
      vertex -61.6 -59.21 2.8
      vertex -61.6587 -59.21 2.42918
    endloop
  endfacet
  facet normal -0.987689 0 0.156432
    outer loop
      vertex -61.6 -59.21 2.8
      vertex -61.6587 -71.2 2.42918
      vertex -61.6 -71.2 2.8
    endloop
  endfacet
  facet normal 0.453994 0 0.891005
    outer loop
      vertex -63.5053 -59.21 1.82918
      vertex -63.1708 -71.2 1.65873
      vertex -63.1708 -59.21 1.65873
    endloop
  endfacet
  facet normal 0.453994 0 0.891005
    outer loop
      vertex -63.1708 -71.2 1.65873
      vertex -63.5053 -59.21 1.82918
      vertex -63.5053 -71.2 1.82918
    endloop
  endfacet
  facet normal -0.156435 0 0.987688
    outer loop
      vertex -62.8 -59.21 1.6
      vertex -62.4292 -71.2 1.65873
      vertex -62.4292 -59.21 1.65873
    endloop
  endfacet
  facet normal -0.156435 0 0.987688
    outer loop
      vertex -62.4292 -71.2 1.65873
      vertex -62.8 -59.21 1.6
      vertex -62.8 -71.2 1.6
    endloop
  endfacet
  facet normal -0.156437 0 -0.987688
    outer loop
      vertex -62.8 -71.2 4
      vertex -62.4292 -59.21 3.94127
      vertex -62.4292 -71.2 3.94127
    endloop
  endfacet
  facet normal -0.156437 0 -0.987688
    outer loop
      vertex -62.4292 -59.21 3.94127
      vertex -62.8 -71.2 4
      vertex -62.8 -59.21 4
    endloop
  endfacet
  facet normal 0.156436 0 -0.987688
    outer loop
      vertex -63.1708 -71.2 3.94127
      vertex -62.8 -59.21 4
      vertex -62.8 -71.2 4
    endloop
  endfacet
  facet normal 0.156436 0 -0.987688
    outer loop
      vertex -62.8 -59.21 4
      vertex -63.1708 -71.2 3.94127
      vertex -63.1708 -59.21 3.94127
    endloop
  endfacet
  facet normal 0 -1 0
    outer loop
      vertex -63.1708 -59.21 3.94127
      vertex -62.4292 -59.21 3.94127
      vertex -62.8 -59.21 4
    endloop
  endfacet
  facet normal 0 -1 0
    outer loop
      vertex -63.5053 -59.21 3.77082
      vertex -62.4292 -59.21 3.94127
      vertex -63.1708 -59.21 3.94127
    endloop
  endfacet
  facet normal 0 -1 0
    outer loop
      vertex -63.5053 -59.21 3.77082
      vertex -62.0947 -59.21 3.77082
      vertex -62.4292 -59.21 3.94127
    endloop
  endfacet
  facet normal 0 -1 0
    outer loop
      vertex -63.7708 -59.21 3.50534
      vertex -62.0947 -59.21 3.77082
      vertex -63.5053 -59.21 3.77082
    endloop
  endfacet
  facet normal 0 -1 0
    outer loop
      vertex -63.7708 -59.21 3.50534
      vertex -61.8292 -59.21 3.50534
      vertex -62.0947 -59.21 3.77082
    endloop
  endfacet
  facet normal 0 -1 0
    outer loop
      vertex -63.9413 -59.21 3.17082
      vertex -61.8292 -59.21 3.50534
      vertex -63.7708 -59.21 3.50534
    endloop
  endfacet
  facet normal 0 -1 0
    outer loop
      vertex -63.9413 -59.21 3.17082
      vertex -61.6587 -59.21 3.17082
      vertex -61.8292 -59.21 3.50534
    endloop
  endfacet
  facet normal 0 -1 0
    outer loop
      vertex -64 -59.21 2.8
      vertex -61.6587 -59.21 3.17082
      vertex -63.9413 -59.21 3.17082
    endloop
  endfacet
  facet normal 0 -1 0
    outer loop
      vertex -64 -59.21 2.8
      vertex -61.6 -59.21 2.8
      vertex -61.6587 -59.21 3.17082
    endloop
  endfacet
  facet normal 0 -1 0
    outer loop
      vertex -63.9413 -59.21 2.42918
      vertex -61.6 -59.21 2.8
      vertex -64 -59.21 2.8
    endloop
  endfacet
  facet normal 0 -1 0
    outer loop
      vertex -63.9413 -59.21 2.42918
      vertex -61.6587 -59.21 2.42918
      vertex -61.6 -59.21 2.8
    endloop
  endfacet
  facet normal 0 -1 0
    outer loop
      vertex -63.7708 -59.21 2.09466
      vertex -61.6587 -59.21 2.42918
      vertex -63.9413 -59.21 2.42918
    endloop
  endfacet
  facet normal 0 -1 0
    outer loop
      vertex -63.7708 -59.21 2.09466
      vertex -61.8292 -59.21 2.09466
      vertex -61.6587 -59.21 2.42918
    endloop
  endfacet
  facet normal 0 -1 0
    outer loop
      vertex -63.5053 -59.21 1.82918
      vertex -61.8292 -59.21 2.09466
      vertex -63.7708 -59.21 2.09466
    endloop
  endfacet
  facet normal 0 -1 0
    outer loop
      vertex -63.5053 -59.21 1.82918
      vertex -62.0947 -59.21 1.82918
      vertex -61.8292 -59.21 2.09466
    endloop
  endfacet
  facet normal 0 -1 0
    outer loop
      vertex -63.1708 -59.21 1.65873
      vertex -62.0947 -59.21 1.82918
      vertex -63.5053 -59.21 1.82918
    endloop
  endfacet
  facet normal 0 -1 0
    outer loop
      vertex -63.1708 -59.21 1.65873
      vertex -62.4292 -59.21 1.65873
      vertex -62.0947 -59.21 1.82918
    endloop
  endfacet
  facet normal -0 -1 0
    outer loop
      vertex -62.4292 -59.21 1.65873
      vertex -63.1708 -59.21 1.65873
      vertex -62.8 -59.21 1.6
    endloop
  endfacet
  facet normal 0.707104 0 0.707109
    outer loop
      vertex -63.7708 -59.21 2.09466
      vertex -63.5053 -71.2 1.82918
      vertex -63.5053 -59.21 1.82918
    endloop
  endfacet
  facet normal 0.707104 0 0.707109
    outer loop
      vertex -63.5053 -71.2 1.82918
      vertex -63.7708 -59.21 2.09466
      vertex -63.7708 -71.2 2.09466
    endloop
  endfacet
  facet normal -0.45399 0 0.891007
    outer loop
      vertex -62.4292 -59.21 1.65873
      vertex -62.0947 -71.2 1.82918
      vertex -62.0947 -59.21 1.82918
    endloop
  endfacet
  facet normal -0.45399 0 0.891007
    outer loop
      vertex -62.0947 -71.2 1.82918
      vertex -62.4292 -59.21 1.65873
      vertex -62.4292 -71.2 1.65873
    endloop
  endfacet
  facet normal 0.891005 0 -0.453993
    outer loop
      vertex -63.7708 -71.2 3.50534
      vertex -63.9413 -59.21 3.17082
      vertex -63.7708 -59.21 3.50534
    endloop
  endfacet
  facet normal 0.891005 0 -0.453993
    outer loop
      vertex -63.9413 -59.21 3.17082
      vertex -63.7708 -71.2 3.50534
      vertex -63.9413 -71.2 3.17082
    endloop
  endfacet
  facet normal -0.987689 0 -0.156431
    outer loop
      vertex -61.6 -71.2 2.8
      vertex -61.6587 -59.21 3.17082
      vertex -61.6 -59.21 2.8
    endloop
  endfacet
  facet normal -0.987689 -0 -0.156431
    outer loop
      vertex -61.6587 -59.21 3.17082
      vertex -61.6 -71.2 2.8
      vertex -61.6587 -71.2 3.17082
    endloop
  endfacet
  facet normal -0.45399 0 -0.891007
    outer loop
      vertex -62.4292 -71.2 3.94127
      vertex -62.0947 -59.21 3.77082
      vertex -62.0947 -71.2 3.77082
    endloop
  endfacet
  facet normal -0.45399 0 -0.891007
    outer loop
      vertex -62.0947 -59.21 3.77082
      vertex -62.4292 -71.2 3.94127
      vertex -62.4292 -59.21 3.94127
    endloop
  endfacet
  facet normal 0.891006 -0 0.453992
    outer loop
      vertex -63.9413 -71.2 2.42918
      vertex -63.7708 -59.21 2.09466
      vertex -63.9413 -59.21 2.42918
    endloop
  endfacet
  facet normal 0.891006 0 0.453992
    outer loop
      vertex -63.7708 -59.21 2.09466
      vertex -63.9413 -71.2 2.42918
      vertex -63.7708 -71.2 2.09466
    endloop
  endfacet
  facet normal 0.987689 -0 0.156432
    outer loop
      vertex -64 -71.2 2.8
      vertex -63.9413 -59.21 2.42918
      vertex -64 -59.21 2.8
    endloop
  endfacet
  facet normal 0.987689 0 0.156432
    outer loop
      vertex -63.9413 -59.21 2.42918
      vertex -64 -71.2 2.8
      vertex -63.9413 -71.2 2.42918
    endloop
  endfacet
  facet normal 0.156433 0 0.987689
    outer loop
      vertex -63.1708 -59.21 1.65873
      vertex -62.8 -71.2 1.6
      vertex -62.8 -59.21 1.6
    endloop
  endfacet
  facet normal 0.156433 0 0.987689
    outer loop
      vertex -62.8 -71.2 1.6
      vertex -63.1708 -59.21 1.65873
      vertex -63.1708 -71.2 1.65873
    endloop
  endfacet
  facet normal -0.891006 0 0.453992
    outer loop
      vertex -61.8292 -71.2 2.09466
      vertex -61.6587 -59.21 2.42918
      vertex -61.8292 -59.21 2.09466
    endloop
  endfacet
  facet normal -0.891006 0 0.453992
    outer loop
      vertex -61.6587 -59.21 2.42918
      vertex -61.8292 -71.2 2.09466
      vertex -61.6587 -71.2 2.42918
    endloop
  endfacet
  facet normal -0.707104 0 0.707109
    outer loop
      vertex -62.0947 -59.21 1.82918
      vertex -61.8292 -71.2 2.09466
      vertex -61.8292 -59.21 2.09466
    endloop
  endfacet
  facet normal -0.707104 0 0.707109
    outer loop
      vertex -61.8292 -71.2 2.09466
      vertex -62.0947 -59.21 1.82918
      vertex -62.0947 -71.2 1.82918
    endloop
  endfacet
  facet normal 0.707104 0 -0.707109
    outer loop
      vertex -63.7708 -71.2 3.50534
      vertex -63.5053 -59.21 3.77082
      vertex -63.5053 -71.2 3.77082
    endloop
  endfacet
  facet normal 0.707104 0 -0.707109
    outer loop
      vertex -63.5053 -59.21 3.77082
      vertex -63.7708 -71.2 3.50534
      vertex -63.7708 -59.21 3.50534
    endloop
  endfacet
  facet normal 0.453994 0 -0.891005
    outer loop
      vertex -63.5053 -71.2 3.77082
      vertex -63.1708 -59.21 3.94127
      vertex -63.1708 -71.2 3.94127
    endloop
  endfacet
  facet normal 0.453994 0 -0.891005
    outer loop
      vertex -63.1708 -59.21 3.94127
      vertex -63.5053 -71.2 3.77082
      vertex -63.5053 -59.21 3.77082
    endloop
  endfacet
  facet normal -0.707104 0 -0.707109
    outer loop
      vertex -62.0947 -71.2 3.77082
      vertex -61.8292 -59.21 3.50534
      vertex -61.8292 -71.2 3.50534
    endloop
  endfacet
  facet normal -0.707104 0 -0.707109
    outer loop
      vertex -61.8292 -59.21 3.50534
      vertex -62.0947 -71.2 3.77082
      vertex -62.0947 -59.21 3.77082
    endloop
  endfacet
  facet normal -0.891005 0 -0.453993
    outer loop
      vertex -61.6587 -71.2 3.17082
      vertex -61.8292 -59.21 3.50534
      vertex -61.6587 -59.21 3.17082
    endloop
  endfacet
  facet normal -0.891005 -0 -0.453993
    outer loop
      vertex -61.8292 -59.21 3.50534
      vertex -61.6587 -71.2 3.17082
      vertex -61.8292 -71.2 3.50534
    endloop
  endfacet
  facet normal 1 -0 0
    outer loop
      vertex -49.99 -0.0547819 2.4
      vertex -49.99 0 0
      vertex -49.99 0 2.4
    endloop
  endfacet
  facet normal 1 0 0
    outer loop
      vertex -49.99 0 0
      vertex -49.99 -0.0547819 2.4
      vertex -49.99 -0.0547819 0
    endloop
  endfacet
  facet normal 0 0 1
    outer loop
      vertex -60 2.4 2.4
      vertex -62.39 2.4 2.4
      vertex -60 0 2.4
    endloop
  endfacet
  facet normal 0 0 1
    outer loop
      vertex -49.99 0 2.4
      vertex -51.0353 -0.0547819 2.4
      vertex -49.99 -0.0547819 2.4
    endloop
  endfacet
  facet normal -0 0 1
    outer loop
      vertex -60 0 2.4
      vertex -51.0353 -0.0547819 2.4
      vertex -49.99 0 2.4
    endloop
  endfacet
  facet normal 0 0 1
    outer loop
      vertex -60 0 2.4
      vertex -53.0802 -0.489435 2.4
      vertex -51.0353 -0.0547819 2.4
    endloop
  endfacet
  facet normal 0 0 1
    outer loop
      vertex -60 0 2.4
      vertex -54.99 -1.33975 2.4
      vertex -53.0802 -0.489435 2.4
    endloop
  endfacet
  facet normal 0 0 1
    outer loop
      vertex -60 0 2.4
      vertex -56.6813 -2.56855 2.4
      vertex -54.99 -1.33975 2.4
    endloop
  endfacet
  facet normal 0 0 1
    outer loop
      vertex -60 0 2.4
      vertex -58.0802 -4.12215 2.4
      vertex -56.6813 -2.56855 2.4
    endloop
  endfacet
  facet normal 0 0 1
    outer loop
      vertex -60 0 2.4
      vertex -59.1255 -5.93263 2.4
      vertex -58.0802 -4.12215 2.4
    endloop
  endfacet
  facet normal 0 0 1
    outer loop
      vertex -62.39 2.4 2.4
      vertex -59.1255 -5.93263 2.4
      vertex -60 0 2.4
    endloop
  endfacet
  facet normal 0 0 1
    outer loop
      vertex -59.1255 -5.93263 2.4
      vertex -62.39 2.4 2.4
      vertex -59.7715 -7.92088 2.4
    endloop
  endfacet
  facet normal 0 0 1
    outer loop
      vertex -59.7715 -7.92088 2.4
      vertex -62.39 2.4 2.4
      vertex -59.99 -10 2.4
    endloop
  endfacet
  facet normal 0 0 1
    outer loop
      vertex -59.99 -10 2.4
      vertex -62.39 2.4 2.4
      vertex -62.39 -57.6 2.4
    endloop
  endfacet
  facet normal 0 0 1
    outer loop
      vertex -59.99 -10 2.4
      vertex -62.39 -57.6 2.4
      vertex -59.99 -57.6 2.4
    endloop
  endfacet
  facet normal 0.994522 -0.104527 0
    outer loop
      vertex -59.99 -10 2.4
      vertex -59.7715 -7.92088 0
      vertex -59.7715 -7.92088 2.4
    endloop
  endfacet
  facet normal 0.994522 -0.104527 0
    outer loop
      vertex -59.7715 -7.92088 0
      vertex -59.99 -10 2.4
      vertex -59.99 -10 0
    endloop
  endfacet
  facet normal 0 -1 0
    outer loop
      vertex -51.0353 -0.0547819 0
      vertex -49.99 -0.0547819 2.4
      vertex -51.0353 -0.0547819 2.4
    endloop
  endfacet
  facet normal 0 -1 -0
    outer loop
      vertex -49.99 -0.0547819 2.4
      vertex -51.0353 -0.0547819 0
      vertex -49.99 -0.0547819 0
    endloop
  endfacet
  facet normal 0.587786 -0.809017 0
    outer loop
      vertex -56.6813 -2.56855 0
      vertex -54.99 -1.33975 2.4
      vertex -56.6813 -2.56855 2.4
    endloop
  endfacet
  facet normal 0.587786 -0.809017 0
    outer loop
      vertex -54.99 -1.33975 2.4
      vertex -56.6813 -2.56855 0
      vertex -54.99 -1.33975 0
    endloop
  endfacet
  facet normal 0.406736 -0.913546 0
    outer loop
      vertex -54.99 -1.33975 0
      vertex -53.0802 -0.489435 2.4
      vertex -54.99 -1.33975 2.4
    endloop
  endfacet
  facet normal 0.406736 -0.913546 0
    outer loop
      vertex -53.0802 -0.489435 2.4
      vertex -54.99 -1.33975 0
      vertex -53.0802 -0.489435 0
    endloop
  endfacet
  facet normal 0.866026 -0.5 0
    outer loop
      vertex -59.1255 -5.93263 2.4
      vertex -58.0802 -4.12215 0
      vertex -58.0802 -4.12215 2.4
    endloop
  endfacet
  facet normal 0.866026 -0.5 0
    outer loop
      vertex -58.0802 -4.12215 0
      vertex -59.1255 -5.93263 2.4
      vertex -59.1255 -5.93263 0
    endloop
  endfacet
  facet normal 0.951056 -0.309018 0
    outer loop
      vertex -59.7715 -7.92088 2.4
      vertex -59.1255 -5.93263 0
      vertex -59.1255 -5.93263 2.4
    endloop
  endfacet
  facet normal 0.951056 -0.309018 0
    outer loop
      vertex -59.1255 -5.93263 0
      vertex -59.7715 -7.92088 2.4
      vertex -59.7715 -7.92088 0
    endloop
  endfacet
  facet normal 0.743145 -0.669131 0
    outer loop
      vertex -58.0802 -4.12215 2.4
      vertex -56.6813 -2.56855 0
      vertex -56.6813 -2.56855 2.4
    endloop
  endfacet
  facet normal 0.743145 -0.669131 0
    outer loop
      vertex -56.6813 -2.56855 0
      vertex -58.0802 -4.12215 2.4
      vertex -58.0802 -4.12215 0
    endloop
  endfacet
  facet normal 0.207912 -0.978148 0
    outer loop
      vertex -53.0802 -0.489435 0
      vertex -51.0353 -0.0547819 2.4
      vertex -53.0802 -0.489435 2.4
    endloop
  endfacet
  facet normal 0.207912 -0.978148 0
    outer loop
      vertex -51.0353 -0.0547819 2.4
      vertex -53.0802 -0.489435 0
      vertex -51.0353 -0.0547819 0
    endloop
  endfacet
  facet normal -0 0 1
    outer loop
      vertex -60 3 3
      vertex -1.93975 0 3
      vertex -1.93975 3 3
    endloop
  endfacet
  facet normal 0 0 1
    outer loop
      vertex -1.93975 0 3
      vertex -60 3 3
      vertex -60 0 3
    endloop
  endfacet
  facet normal -1 0 0
    outer loop
      vertex -60 2.4 2.4
      vertex -60 3 0
      vertex -60 2.4 0
    endloop
  endfacet
  facet normal -1 0 0
    outer loop
      vertex -60 3 0
      vertex -60 2.4 2.4
      vertex -60 3 3
    endloop
  endfacet
  facet normal -1 0 0
    outer loop
      vertex -60 0 3
      vertex -60 2.4 2.4
      vertex -60 0 2.4
    endloop
  endfacet
  facet normal -1 0 0
    outer loop
      vertex -60 2.4 2.4
      vertex -60 0 3
      vertex -60 3 3
    endloop
  endfacet
  facet normal 0 1 -0
    outer loop
      vertex -4.93975 3 0
      vertex -60 3 3
      vertex -1.93975 3 3
    endloop
  endfacet
  facet normal 0 1 0
    outer loop
      vertex -60 3 3
      vertex -4.93975 3 0
      vertex -60 3 0
    endloop
  endfacet
  facet normal 1 -0 0
    outer loop
      vertex -59.99 -57.6 2.4
      vertex -59.99 -10 0
      vertex -59.99 -10 2.4
    endloop
  endfacet
  facet normal 1 0 0
    outer loop
      vertex -59.99 -10 0
      vertex -59.99 -57.6 2.4
      vertex -59.99 -57.6 0
    endloop
  endfacet
  facet normal -1 0 0
    outer loop
      vertex -62.39 -57.6 0
      vertex -62.39 2.4 2.4
      vertex -62.39 2.4 0
    endloop
  endfacet
  facet normal -1 -0 0
    outer loop
      vertex -62.39 2.4 2.4
      vertex -62.39 -57.6 0
      vertex -62.39 -57.6 2.4
    endloop
  endfacet
  facet normal 0 -1 0
    outer loop
      vertex -62.39 -57.6 0
      vertex -59.99 -57.6 2.4
      vertex -62.39 -57.6 2.4
    endloop
  endfacet
  facet normal 0 -1 -0
    outer loop
      vertex -59.99 -57.6 2.4
      vertex -62.39 -57.6 0
      vertex -59.99 -57.6 0
    endloop
  endfacet
  facet normal 0 1 -0
    outer loop
      vertex -60 2.4 0
      vertex -62.39 2.4 2.4
      vertex -60 2.4 2.4
    endloop
  endfacet
  facet normal 0 1 0
    outer loop
      vertex -62.39 2.4 2.4
      vertex -60 2.4 0
      vertex -62.39 2.4 0
    endloop
  endfacet
endsolid OpenSCAD_Model
