solid OpenSCAD_Model
  facet normal -1 0 0
    outer loop
      vertex 0 0 0
      vertex 0 10 100
      vertex 0 10 0
    endloop
  endfacet
  facet normal -1 -0 0
    outer loop
      vertex 0 10 100
      vertex 0 0 0
      vertex 0 0 100
    endloop
  endfacet
  facet normal 0 0 1
    outer loop
      vertex 0.799999 10 100
      vertex 0 10 100
      vertex 0.799999 0.799999 100
    endloop
  endfacet
  facet normal -0 0 1
    outer loop
      vertex 0.799999 0.799999 100
      vertex 10 0 100
      vertex 10 0.799999 100
    endloop
  endfacet
  facet normal 0 0 1
    outer loop
      vertex 0.799999 0.799999 100
      vertex 0 0 100
      vertex 10 0 100
    endloop
  endfacet
  facet normal 0 0 1
    outer loop
      vertex 0 0 100
      vertex 0.799999 0.799999 100
      vertex 0 10 100
    endloop
  endfacet
  facet normal 1 -0 0
    outer loop
      vertex 10 0 100
      vertex 10 0.799999 0
      vertex 10 0.799999 100
    endloop
  endfacet
  facet normal 1 0 0
    outer loop
      vertex 10 0.799999 0
      vertex 10 0 100
      vertex 10 0 0
    endloop
  endfacet
  facet normal 0 1 -0
    outer loop
      vertex 10 0.799999 0
      vertex 0.799999 0.799999 100
      vertex 10 0.799999 100
    endloop
  endfacet
  facet normal 0 1 0
    outer loop
      vertex 0.799999 0.799999 100
      vertex 10 0.799999 0
      vertex 0.799999 0.799999 0
    endloop
  endfacet
  facet normal 0 0 -1
    outer loop
      vertex 10 0 0
      vertex 0.799999 0.799999 0
      vertex 10 0.799999 0
    endloop
  endfacet
  facet normal 0 0 -1
    outer loop
      vertex 0 0 0
      vertex 0.799999 0.799999 0
      vertex 10 0 0
    endloop
  endfacet
  facet normal 0 0 -1
    outer loop
      vertex 0 10 0
      vertex 0.799999 0.799999 0
      vertex 0 0 0
    endloop
  endfacet
  facet normal 0 0 -1
    outer loop
      vertex 0.799999 0.799999 0
      vertex 0 10 0
      vertex 0.799999 10 0
    endloop
  endfacet
  facet normal 0 -1 0
    outer loop
      vertex 0 0 0
      vertex 10 0 100
      vertex 0 0 100
    endloop
  endfacet
  facet normal 0 -1 -0
    outer loop
      vertex 10 0 100
      vertex 0 0 0
      vertex 10 0 0
    endloop
  endfacet
  facet normal 1 -0 0
    outer loop
      vertex 0.799999 0.799999 100
      vertex 0.799999 10 0
      vertex 0.799999 10 100
    endloop
  endfacet
  facet normal 1 0 0
    outer loop
      vertex 0.799999 10 0
      vertex 0.799999 0.799999 100
      vertex 0.799999 0.799999 0
    endloop
  endfacet
  facet normal 0 1 -0
    outer loop
      vertex 0.799999 10 0
      vertex 0 10 100
      vertex 0.799999 10 100
    endloop
  endfacet
  facet normal 0 1 0
    outer loop
      vertex 0 10 100
      vertex 0.799999 10 0
      vertex 0 10 0
    endloop
  endfacet
endsolid OpenSCAD_Model
