solid OpenSCAD_Model
  facet normal -1 0 0
    outer loop
      vertex 1.6 1.6 0
      vertex 1.6 11.6 100
      vertex 1.6 11.6 0
    endloop
  endfacet
  facet normal -1 -0 0
    outer loop
      vertex 1.6 11.6 100
      vertex 1.6 1.6 0
      vertex 1.6 1.6 100
    endloop
  endfacet
  facet normal 0 0 1
    outer loop
      vertex 2.4 11.6 100
      vertex 1.6 11.6 100
      vertex 2.4 2.4 100
    endloop
  endfacet
  facet normal -0 0 1
    outer loop
      vertex 2.4 2.4 100
      vertex 11.6 1.6 100
      vertex 11.6 2.4 100
    endloop
  endfacet
  facet normal 0 0 1
    outer loop
      vertex 2.4 2.4 100
      vertex 1.6 1.6 100
      vertex 11.6 1.6 100
    endloop
  endfacet
  facet normal 0 0 1
    outer loop
      vertex 1.6 1.6 100
      vertex 2.4 2.4 100
      vertex 1.6 11.6 100
    endloop
  endfacet
  facet normal 1 -0 0
    outer loop
      vertex 11.6 1.6 100
      vertex 11.6 2.4 0
      vertex 11.6 2.4 100
    endloop
  endfacet
  facet normal 1 0 0
    outer loop
      vertex 11.6 2.4 0
      vertex 11.6 1.6 100
      vertex 11.6 1.6 0
    endloop
  endfacet
  facet normal 0 1 -0
    outer loop
      vertex 11.6 2.4 0
      vertex 2.4 2.4 100
      vertex 11.6 2.4 100
    endloop
  endfacet
  facet normal 0 1 0
    outer loop
      vertex 2.4 2.4 100
      vertex 11.6 2.4 0
      vertex 2.4 2.4 0
    endloop
  endfacet
  facet normal 0 0 -1
    outer loop
      vertex 11.6 1.6 0
      vertex 2.4 2.4 0
      vertex 11.6 2.4 0
    endloop
  endfacet
  facet normal 0 0 -1
    outer loop
      vertex 1.6 1.6 0
      vertex 2.4 2.4 0
      vertex 11.6 1.6 0
    endloop
  endfacet
  facet normal 0 0 -1
    outer loop
      vertex 1.6 11.6 0
      vertex 2.4 2.4 0
      vertex 1.6 1.6 0
    endloop
  endfacet
  facet normal 0 0 -1
    outer loop
      vertex 2.4 2.4 0
      vertex 1.6 11.6 0
      vertex 2.4 11.6 0
    endloop
  endfacet
  facet normal 0 -1 0
    outer loop
      vertex 1.6 1.6 0
      vertex 11.6 1.6 100
      vertex 1.6 1.6 100
    endloop
  endfacet
  facet normal 0 -1 -0
    outer loop
      vertex 11.6 1.6 100
      vertex 1.6 1.6 0
      vertex 11.6 1.6 0
    endloop
  endfacet
  facet normal 1 -0 0
    outer loop
      vertex 2.4 2.4 100
      vertex 2.4 11.6 0
      vertex 2.4 11.6 100
    endloop
  endfacet
  facet normal 1 0 0
    outer loop
      vertex 2.4 11.6 0
      vertex 2.4 2.4 100
      vertex 2.4 2.4 0
    endloop
  endfacet
  facet normal 0 1 -0
    outer loop
      vertex 2.4 11.6 0
      vertex 1.6 11.6 100
      vertex 2.4 11.6 100
    endloop
  endfacet
  facet normal 0 1 0
    outer loop
      vertex 1.6 11.6 100
      vertex 2.4 11.6 0
      vertex 1.6 11.6 0
    endloop
  endfacet
  facet normal 0 -1 0
    outer loop
      vertex -11.6 1.6 0
      vertex -1.6 1.6 100
      vertex -11.6 1.6 100
    endloop
  endfacet
  facet normal 0 -1 -0
    outer loop
      vertex -1.6 1.6 100
      vertex -11.6 1.6 0
      vertex -1.6 1.6 0
    endloop
  endfacet
  facet normal 0 0 1
    outer loop
      vertex -2.4 2.4 100
      vertex -1.6 11.6 100
      vertex -2.4 11.6 100
    endloop
  endfacet
  facet normal 0 0 1
    outer loop
      vertex -1.6 11.6 100
      vertex -2.4 2.4 100
      vertex -1.6 1.6 100
    endloop
  endfacet
  facet normal 0 0 1
    outer loop
      vertex -11.6 1.6 100
      vertex -2.4 2.4 100
      vertex -11.6 2.4 100
    endloop
  endfacet
  facet normal 0 0 1
    outer loop
      vertex -2.4 2.4 100
      vertex -11.6 1.6 100
      vertex -1.6 1.6 100
    endloop
  endfacet
  facet normal 0 1 -0
    outer loop
      vertex -1.6 11.6 0
      vertex -2.4 11.6 100
      vertex -1.6 11.6 100
    endloop
  endfacet
  facet normal 0 1 0
    outer loop
      vertex -2.4 11.6 100
      vertex -1.6 11.6 0
      vertex -2.4 11.6 0
    endloop
  endfacet
  facet normal -1 0 0
    outer loop
      vertex -2.4 2.4 0
      vertex -2.4 11.6 100
      vertex -2.4 11.6 0
    endloop
  endfacet
  facet normal -1 -0 0
    outer loop
      vertex -2.4 11.6 100
      vertex -2.4 2.4 0
      vertex -2.4 2.4 100
    endloop
  endfacet
  facet normal 0 0 -1
    outer loop
      vertex -1.6 1.6 0
      vertex -2.4 2.4 0
      vertex -1.6 11.6 0
    endloop
  endfacet
  facet normal 0 0 -1
    outer loop
      vertex -11.6 1.6 0
      vertex -2.4 2.4 0
      vertex -1.6 1.6 0
    endloop
  endfacet
  facet normal -0 0 -1
    outer loop
      vertex -2.4 2.4 0
      vertex -11.6 1.6 0
      vertex -11.6 2.4 0
    endloop
  endfacet
  facet normal -0 0 -1
    outer loop
      vertex -1.6 11.6 0
      vertex -2.4 2.4 0
      vertex -2.4 11.6 0
    endloop
  endfacet
  facet normal 1 -0 0
    outer loop
      vertex -1.6 1.6 100
      vertex -1.6 11.6 0
      vertex -1.6 11.6 100
    endloop
  endfacet
  facet normal 1 0 0
    outer loop
      vertex -1.6 11.6 0
      vertex -1.6 1.6 100
      vertex -1.6 1.6 0
    endloop
  endfacet
  facet normal 0 1 -0
    outer loop
      vertex -2.4 2.4 0
      vertex -11.6 2.4 100
      vertex -2.4 2.4 100
    endloop
  endfacet
  facet normal 0 1 0
    outer loop
      vertex -11.6 2.4 100
      vertex -2.4 2.4 0
      vertex -11.6 2.4 0
    endloop
  endfacet
  facet normal -1 0 0
    outer loop
      vertex -11.6 1.6 0
      vertex -11.6 2.4 100
      vertex -11.6 2.4 0
    endloop
  endfacet
  facet normal -1 -0 0
    outer loop
      vertex -11.6 2.4 100
      vertex -11.6 1.6 0
      vertex -11.6 1.6 100
    endloop
  endfacet
  facet normal 1 -0 0
    outer loop
      vertex -1.6 -11.6 100
      vertex -1.6 -1.6 0
      vertex -1.6 -1.6 100
    endloop
  endfacet
  facet normal 1 0 0
    outer loop
      vertex -1.6 -1.6 0
      vertex -1.6 -11.6 100
      vertex -1.6 -11.6 0
    endloop
  endfacet
  facet normal 0 0 1
    outer loop
      vertex -1.6 -1.6 100
      vertex -2.4 -2.4 100
      vertex -1.6 -11.6 100
    endloop
  endfacet
  facet normal -0 0 1
    outer loop
      vertex -11.6 -1.6 100
      vertex -2.4 -2.4 100
      vertex -1.6 -1.6 100
    endloop
  endfacet
  facet normal 0 0 1
    outer loop
      vertex -2.4 -2.4 100
      vertex -11.6 -1.6 100
      vertex -11.6 -2.4 100
    endloop
  endfacet
  facet normal 0 0 1
    outer loop
      vertex -1.6 -11.6 100
      vertex -2.4 -2.4 100
      vertex -2.4 -11.6 100
    endloop
  endfacet
  facet normal -1 0 0
    outer loop
      vertex -11.6 -2.4 0
      vertex -11.6 -1.6 100
      vertex -11.6 -1.6 0
    endloop
  endfacet
  facet normal -1 -0 0
    outer loop
      vertex -11.6 -1.6 100
      vertex -11.6 -2.4 0
      vertex -11.6 -2.4 100
    endloop
  endfacet
  facet normal 0 -1 0
    outer loop
      vertex -11.6 -2.4 0
      vertex -2.4 -2.4 100
      vertex -11.6 -2.4 100
    endloop
  endfacet
  facet normal 0 -1 -0
    outer loop
      vertex -2.4 -2.4 100
      vertex -11.6 -2.4 0
      vertex -2.4 -2.4 0
    endloop
  endfacet
  facet normal 0 0 -1
    outer loop
      vertex -2.4 -2.4 0
      vertex -1.6 -11.6 0
      vertex -2.4 -11.6 0
    endloop
  endfacet
  facet normal 0 0 -1
    outer loop
      vertex -1.6 -11.6 0
      vertex -2.4 -2.4 0
      vertex -1.6 -1.6 0
    endloop
  endfacet
  facet normal 0 0 -1
    outer loop
      vertex -11.6 -1.6 0
      vertex -2.4 -2.4 0
      vertex -11.6 -2.4 0
    endloop
  endfacet
  facet normal 0 0 -1
    outer loop
      vertex -2.4 -2.4 0
      vertex -11.6 -1.6 0
      vertex -1.6 -1.6 0
    endloop
  endfacet
  facet normal 0 1 -0
    outer loop
      vertex -1.6 -1.6 0
      vertex -11.6 -1.6 100
      vertex -1.6 -1.6 100
    endloop
  endfacet
  facet normal 0 1 0
    outer loop
      vertex -11.6 -1.6 100
      vertex -1.6 -1.6 0
      vertex -11.6 -1.6 0
    endloop
  endfacet
  facet normal -1 0 0
    outer loop
      vertex -2.4 -11.6 0
      vertex -2.4 -2.4 100
      vertex -2.4 -2.4 0
    endloop
  endfacet
  facet normal -1 -0 0
    outer loop
      vertex -2.4 -2.4 100
      vertex -2.4 -11.6 0
      vertex -2.4 -11.6 100
    endloop
  endfacet
  facet normal 0 -1 0
    outer loop
      vertex -2.4 -11.6 0
      vertex -1.6 -11.6 100
      vertex -2.4 -11.6 100
    endloop
  endfacet
  facet normal 0 -1 -0
    outer loop
      vertex -1.6 -11.6 100
      vertex -2.4 -11.6 0
      vertex -1.6 -11.6 0
    endloop
  endfacet
  facet normal 0 1 -0
    outer loop
      vertex 11.6 -1.6 0
      vertex 1.6 -1.6 100
      vertex 11.6 -1.6 100
    endloop
  endfacet
  facet normal 0 1 0
    outer loop
      vertex 1.6 -1.6 100
      vertex 11.6 -1.6 0
      vertex 1.6 -1.6 0
    endloop
  endfacet
  facet normal 0 0 1
    outer loop
      vertex 11.6 -1.6 100
      vertex 2.4 -2.4 100
      vertex 11.6 -2.4 100
    endloop
  endfacet
  facet normal -0 0 1
    outer loop
      vertex 1.6 -1.6 100
      vertex 2.4 -2.4 100
      vertex 11.6 -1.6 100
    endloop
  endfacet
  facet normal 0 0 1
    outer loop
      vertex 1.6 -11.6 100
      vertex 2.4 -2.4 100
      vertex 1.6 -1.6 100
    endloop
  endfacet
  facet normal 0 0 1
    outer loop
      vertex 2.4 -2.4 100
      vertex 1.6 -11.6 100
      vertex 2.4 -11.6 100
    endloop
  endfacet
  facet normal 0 -1 0
    outer loop
      vertex 1.6 -11.6 0
      vertex 2.4 -11.6 100
      vertex 1.6 -11.6 100
    endloop
  endfacet
  facet normal 0 -1 -0
    outer loop
      vertex 2.4 -11.6 100
      vertex 1.6 -11.6 0
      vertex 2.4 -11.6 0
    endloop
  endfacet
  facet normal 1 -0 0
    outer loop
      vertex 2.4 -11.6 100
      vertex 2.4 -2.4 0
      vertex 2.4 -2.4 100
    endloop
  endfacet
  facet normal 1 0 0
    outer loop
      vertex 2.4 -2.4 0
      vertex 2.4 -11.6 100
      vertex 2.4 -11.6 0
    endloop
  endfacet
  facet normal 0 0 -1
    outer loop
      vertex 2.4 -11.6 0
      vertex 1.6 -11.6 0
      vertex 2.4 -2.4 0
    endloop
  endfacet
  facet normal 0 0 -1
    outer loop
      vertex 2.4 -2.4 0
      vertex 11.6 -1.6 0
      vertex 11.6 -2.4 0
    endloop
  endfacet
  facet normal 0 0 -1
    outer loop
      vertex 2.4 -2.4 0
      vertex 1.6 -1.6 0
      vertex 11.6 -1.6 0
    endloop
  endfacet
  facet normal 0 0 -1
    outer loop
      vertex 1.6 -1.6 0
      vertex 2.4 -2.4 0
      vertex 1.6 -11.6 0
    endloop
  endfacet
  facet normal -1 0 0
    outer loop
      vertex 1.6 -11.6 0
      vertex 1.6 -1.6 100
      vertex 1.6 -1.6 0
    endloop
  endfacet
  facet normal -1 -0 0
    outer loop
      vertex 1.6 -1.6 100
      vertex 1.6 -11.6 0
      vertex 1.6 -11.6 100
    endloop
  endfacet
  facet normal 0 -1 0
    outer loop
      vertex 2.4 -2.4 0
      vertex 11.6 -2.4 100
      vertex 2.4 -2.4 100
    endloop
  endfacet
  facet normal 0 -1 -0
    outer loop
      vertex 11.6 -2.4 100
      vertex 2.4 -2.4 0
      vertex 11.6 -2.4 0
    endloop
  endfacet
  facet normal 1 -0 0
    outer loop
      vertex 11.6 -2.4 100
      vertex 11.6 -1.6 0
      vertex 11.6 -1.6 100
    endloop
  endfacet
  facet normal 1 0 0
    outer loop
      vertex 11.6 -1.6 0
      vertex 11.6 -2.4 100
      vertex 11.6 -2.4 0
    endloop
  endfacet
endsolid OpenSCAD_Model
