solid OpenSCAD_Model
  facet normal 1 -0 0
    outer loop
      vertex -63.9 -7.2 0.999999
      vertex -63.9 7.2 0
      vertex -63.9 7.2 0.999999
    endloop
  endfacet
  facet normal 1 0 0
    outer loop
      vertex -63.9 7.2 0
      vertex -63.9 -7.2 0.999999
      vertex -63.9 -7.2 0
    endloop
  endfacet
  facet normal -1 0 0
    outer loop
      vertex 63.9 -7.2 0
      vertex 63.9 7.2 0.999999
      vertex 63.9 7.2 0
    endloop
  endfacet
  facet normal -1 -0 0
    outer loop
      vertex 63.9 7.2 0.999999
      vertex 63.9 -7.2 0
      vertex 63.9 -7.2 0.999999
    endloop
  endfacet
  facet normal 0 -1 0
    outer loop
      vertex -63.9 7.2 0
      vertex 63.9 7.2 0.999999
      vertex -63.9 7.2 0.999999
    endloop
  endfacet
  facet normal 0 -1 -0
    outer loop
      vertex 63.9 7.2 0.999999
      vertex -63.9 7.2 0
      vertex 63.9 7.2 0
    endloop
  endfacet
  facet normal 0 1 -0
    outer loop
      vertex 63.9 -7.2 0
      vertex -63.9 -7.2 0.999999
      vertex 63.9 -7.2 0.999999
    endloop
  endfacet
  facet normal 0 1 0
    outer loop
      vertex -63.9 -7.2 0.999999
      vertex 63.9 -7.2 0
      vertex -63.9 -7.2 0
    endloop
  endfacet
  facet normal 0 0 1
    outer loop
      vertex 67.7 8.6 0.999999
      vertex 63.9 7.2 0.999999
      vertex 67.7 -8.6 0.999999
    endloop
  endfacet
  facet normal 0 0 1
    outer loop
      vertex 67.7 8.6 0.999999
      vertex -63.9 7.2 0.999999
      vertex 63.9 7.2 0.999999
    endloop
  endfacet
  facet normal 0 0 1
    outer loop
      vertex -63.9 7.2 0.999999
      vertex -67.7 8.6 0.999999
      vertex -63.9 -7.2 0.999999
    endloop
  endfacet
  facet normal -0 0 1
    outer loop
      vertex -67.7 8.6 0.999999
      vertex -63.9 7.2 0.999999
      vertex 67.7 8.6 0.999999
    endloop
  endfacet
  facet normal -0 0 1
    outer loop
      vertex 63.9 -7.2 0.999999
      vertex 67.7 -8.6 0.999999
      vertex 63.9 7.2 0.999999
    endloop
  endfacet
  facet normal -0 0 1
    outer loop
      vertex -63.9 -7.2 0.999999
      vertex 67.7 -8.6 0.999999
      vertex 63.9 -7.2 0.999999
    endloop
  endfacet
  facet normal 0 0 1
    outer loop
      vertex -63.9 -7.2 0.999999
      vertex -67.7 -8.6 0.999999
      vertex 67.7 -8.6 0.999999
    endloop
  endfacet
  facet normal 0 0 1
    outer loop
      vertex -67.7 -8.6 0.999999
      vertex -63.9 -7.2 0.999999
      vertex -67.7 8.6 0.999999
    endloop
  endfacet
  facet normal 0 1 -0
    outer loop
      vertex 67.7 -8.6 0.999999
      vertex -67.7 -8.6 4
      vertex 67.7 -8.6 4
    endloop
  endfacet
  facet normal 0 1 0
    outer loop
      vertex -67.7 -8.6 4
      vertex 67.7 -8.6 0.999999
      vertex -67.7 -8.6 0.999999
    endloop
  endfacet
  facet normal 0 -1 0
    outer loop
      vertex -67.7 8.6 0.999999
      vertex -62.3 8.6 1
      vertex -67.7 8.6 1
    endloop
  endfacet
  facet normal 0 -1 -0
    outer loop
      vertex -62.3 8.6 1
      vertex -67.7 8.6 0.999999
      vertex 62.3 8.6 1
    endloop
  endfacet
  facet normal 0 -1 0
    outer loop
      vertex 67.7 8.6 0.999999
      vertex 62.3 8.6 1
      vertex -67.7 8.6 0.999999
    endloop
  endfacet
  facet normal 0 -1 0
    outer loop
      vertex 62.3 8.6 1
      vertex 67.7 8.6 0.999999
      vertex 67.7 8.6 1
    endloop
  endfacet
  facet normal 0 -1 0
    outer loop
      vertex -62.3 8.6 1
      vertex 62.3 8.6 4
      vertex -62.3 8.6 4
    endloop
  endfacet
  facet normal 0 -1 -0
    outer loop
      vertex 62.3 8.6 4
      vertex -62.3 8.6 1
      vertex 62.3 8.6 1
    endloop
  endfacet
  facet normal 1 -0 0
    outer loop
      vertex 62.3 8.6 4
      vertex 62.3 12.1 1
      vertex 62.3 12.1 4
    endloop
  endfacet
  facet normal 1 0 0
    outer loop
      vertex 62.3 12.1 1
      vertex 62.3 8.6 4
      vertex 62.3 8.6 1
    endloop
  endfacet
  facet normal -0 0 1
    outer loop
      vertex 62.3 12.1 1
      vertex 67.7 8.6 1
      vertex 67.7 12.1 1
    endloop
  endfacet
  facet normal 0 0 1
    outer loop
      vertex 67.7 8.6 1
      vertex 62.3 12.1 1
      vertex 62.3 8.6 1
    endloop
  endfacet
  facet normal -1 0 0
    outer loop
      vertex -62.3 8.6 1
      vertex -62.3 12.1 4
      vertex -62.3 12.1 1
    endloop
  endfacet
  facet normal -1 -0 0
    outer loop
      vertex -62.3 12.1 4
      vertex -62.3 8.6 1
      vertex -62.3 8.6 4
    endloop
  endfacet
  facet normal -0 0 1
    outer loop
      vertex -67.7 12.1 1
      vertex -62.3 8.6 1
      vertex -62.3 12.1 1
    endloop
  endfacet
  facet normal 0 0 1
    outer loop
      vertex -62.3 8.6 1
      vertex -67.7 12.1 1
      vertex -67.7 8.6 1
    endloop
  endfacet
  facet normal -1 0 0
    outer loop
      vertex -67.7 12.1 0
      vertex -67.7 8.6 0.999999
      vertex -67.7 12.1 1
    endloop
  endfacet
  facet normal -1 0 0
    outer loop
      vertex -67.7 12.1 0
      vertex -67.7 -8.6 0.999999
      vertex -67.7 8.6 0.999999
    endloop
  endfacet
  facet normal -1 0 0
    outer loop
      vertex -67.7 -12.1 0
      vertex -67.7 -8.6 0.999999
      vertex -67.7 12.1 0
    endloop
  endfacet
  facet normal -1 0 0
    outer loop
      vertex -67.7 -12.1 4
      vertex -67.7 -8.6 0.999999
      vertex -67.7 -12.1 0
    endloop
  endfacet
  facet normal -1 0 0
    outer loop
      vertex -67.7 -8.6 0.999999
      vertex -67.7 -12.1 4
      vertex -67.7 -8.6 4
    endloop
  endfacet
  facet normal -1 -0 0
    outer loop
      vertex -67.7 12.1 1
      vertex -67.7 8.6 0.999999
      vertex -67.7 8.6 1
    endloop
  endfacet
  facet normal -0 0 1
    outer loop
      vertex -67.7 -8.6 4
      vertex 67.7 -12.1 4
      vertex 67.7 -8.6 4
    endloop
  endfacet
  facet normal 0 0 1
    outer loop
      vertex 67.7 -12.1 4
      vertex -67.7 -8.6 4
      vertex -67.7 -12.1 4
    endloop
  endfacet
  facet normal -0 0 1
    outer loop
      vertex -62.3 12.1 4
      vertex 62.3 8.6 4
      vertex 62.3 12.1 4
    endloop
  endfacet
  facet normal 0 0 1
    outer loop
      vertex 62.3 8.6 4
      vertex -62.3 12.1 4
      vertex -62.3 8.6 4
    endloop
  endfacet
  facet normal 1 0 0
    outer loop
      vertex 67.7 -8.6 4
      vertex 67.7 -12.1 4
      vertex 67.7 -8.6 0.999999
    endloop
  endfacet
  facet normal 1 0 0
    outer loop
      vertex 67.7 8.6 0.999999
      vertex 67.7 12.1 1
      vertex 67.7 8.6 1
    endloop
  endfacet
  facet normal 1 0 0
    outer loop
      vertex 67.7 12.1 1
      vertex 67.7 8.6 0.999999
      vertex 67.7 12.1 0
    endloop
  endfacet
  facet normal 1 -0 0
    outer loop
      vertex 67.7 -8.6 0.999999
      vertex 67.7 12.1 0
      vertex 67.7 8.6 0.999999
    endloop
  endfacet
  facet normal 1 0 0
    outer loop
      vertex 67.7 -8.6 0.999999
      vertex 67.7 -12.1 0
      vertex 67.7 12.1 0
    endloop
  endfacet
  facet normal 1 0 0
    outer loop
      vertex 67.7 -12.1 0
      vertex 67.7 -8.6 0.999999
      vertex 67.7 -12.1 4
    endloop
  endfacet
  facet normal 0 0 -1
    outer loop
      vertex 67.7 -12.1 0
      vertex 63.9 -7.2 0
      vertex 67.7 12.1 0
    endloop
  endfacet
  facet normal 0 0 -1
    outer loop
      vertex 67.7 -12.1 0
      vertex -63.9 -7.2 0
      vertex 63.9 -7.2 0
    endloop
  endfacet
  facet normal -0 0 -1
    outer loop
      vertex -63.9 -7.2 0
      vertex -67.7 -12.1 0
      vertex -63.9 7.2 0
    endloop
  endfacet
  facet normal 0 0 -1
    outer loop
      vertex -67.7 -12.1 0
      vertex -63.9 -7.2 0
      vertex 67.7 -12.1 0
    endloop
  endfacet
  facet normal 0 0 -1
    outer loop
      vertex 63.9 7.2 0
      vertex 67.7 12.1 0
      vertex 63.9 -7.2 0
    endloop
  endfacet
  facet normal 0 0 -1
    outer loop
      vertex -63.9 7.2 0
      vertex 67.7 12.1 0
      vertex 63.9 7.2 0
    endloop
  endfacet
  facet normal 0 0 -1
    outer loop
      vertex -63.9 7.2 0
      vertex -67.7 12.1 0
      vertex 67.7 12.1 0
    endloop
  endfacet
  facet normal 0 0 -1
    outer loop
      vertex -67.7 12.1 0
      vertex -63.9 7.2 0
      vertex -67.7 -12.1 0
    endloop
  endfacet
  facet normal 0 -1 0
    outer loop
      vertex -67.7 -12.1 0
      vertex 67.7 -12.1 4
      vertex -67.7 -12.1 4
    endloop
  endfacet
  facet normal 0 -1 -0
    outer loop
      vertex 67.7 -12.1 4
      vertex -67.7 -12.1 0
      vertex 67.7 -12.1 0
    endloop
  endfacet
  facet normal 0 1 -0
    outer loop
      vertex 67.7 12.1 0
      vertex 62.3 12.1 1
      vertex 67.7 12.1 1
    endloop
  endfacet
  facet normal 0 1 0
    outer loop
      vertex 62.3 12.1 1
      vertex 67.7 12.1 0
      vertex -62.3 12.1 1
    endloop
  endfacet
  facet normal 0 1 0
    outer loop
      vertex -67.7 12.1 0
      vertex -62.3 12.1 1
      vertex 67.7 12.1 0
    endloop
  endfacet
  facet normal 0 1 0
    outer loop
      vertex -62.3 12.1 1
      vertex -67.7 12.1 0
      vertex -67.7 12.1 1
    endloop
  endfacet
  facet normal 0 1 -0
    outer loop
      vertex 62.3 12.1 1
      vertex -62.3 12.1 4
      vertex 62.3 12.1 4
    endloop
  endfacet
  facet normal 0 1 0
    outer loop
      vertex -62.3 12.1 4
      vertex 62.3 12.1 1
      vertex -62.3 12.1 1
    endloop
  endfacet
endsolid OpenSCAD_Model
