solid OpenSCAD_Model
  facet normal 1 -0 0
    outer loop
      vertex -65.9 1.56667 0.999999
      vertex -65.9 9.96667 0
      vertex -65.9 9.96667 0.999999
    endloop
  endfacet
  facet normal 1 0 0
    outer loop
      vertex -65.9 9.96667 0
      vertex -65.9 1.56667 0.999999
      vertex -65.9 1.56667 0
    endloop
  endfacet
  facet normal -1 0 0
    outer loop
      vertex 65.9 1.56667 0
      vertex 65.9 9.96667 0.999999
      vertex 65.9 9.96667 0
    endloop
  endfacet
  facet normal -1 -0 0
    outer loop
      vertex 65.9 9.96667 0.999999
      vertex 65.9 1.56667 0
      vertex 65.9 1.56667 0.999999
    endloop
  endfacet
  facet normal 0 1 -0
    outer loop
      vertex 65.9 1.56667 0
      vertex -65.9 1.56667 0.999999
      vertex 65.9 1.56667 0.999999
    endloop
  endfacet
  facet normal 0 1 0
    outer loop
      vertex -65.9 1.56667 0.999999
      vertex 65.9 1.56667 0
      vertex -65.9 1.56667 0
    endloop
  endfacet
  facet normal 0 -1 0
    outer loop
      vertex -65.9 9.96667 0
      vertex 65.9 9.96667 0.999999
      vertex -65.9 9.96667 0.999999
    endloop
  endfacet
  facet normal 0 -1 -0
    outer loop
      vertex 65.9 9.96667 0.999999
      vertex -65.9 9.96667 0
      vertex 65.9 9.96667 0
    endloop
  endfacet
  facet normal 0 0 1
    outer loop
      vertex 69.7 10.9667 0.999999
      vertex 65.9 9.96667 0.999999
      vertex 69.7 0.566667 0.999999
    endloop
  endfacet
  facet normal 0 0 1
    outer loop
      vertex 69.7 10.9667 0.999999
      vertex -65.9 9.96667 0.999999
      vertex 65.9 9.96667 0.999999
    endloop
  endfacet
  facet normal 0 0 1
    outer loop
      vertex -65.9 9.96667 0.999999
      vertex -69.7 10.9667 0.999999
      vertex -65.9 1.56667 0.999999
    endloop
  endfacet
  facet normal -0 0 1
    outer loop
      vertex -69.7 10.9667 0.999999
      vertex -65.9 9.96667 0.999999
      vertex 69.7 10.9667 0.999999
    endloop
  endfacet
  facet normal -0 0 1
    outer loop
      vertex 65.9 1.56667 0.999999
      vertex 69.7 0.566667 0.999999
      vertex 65.9 9.96667 0.999999
    endloop
  endfacet
  facet normal -0 0 1
    outer loop
      vertex -65.9 1.56667 0.999999
      vertex 69.7 0.566667 0.999999
      vertex 65.9 1.56667 0.999999
    endloop
  endfacet
  facet normal 0 0 1
    outer loop
      vertex -65.9 1.56667 0.999999
      vertex -69.7 0.566667 0.999999
      vertex 69.7 0.566667 0.999999
    endloop
  endfacet
  facet normal 0 0 1
    outer loop
      vertex -69.7 0.566667 0.999999
      vertex -65.9 1.56667 0.999999
      vertex -69.7 10.9667 0.999999
    endloop
  endfacet
  facet normal 0 1 -0
    outer loop
      vertex 69.7 0.566667 0.999999
      vertex 64.3 0.566667 1
      vertex 69.7 0.566667 1
    endloop
  endfacet
  facet normal 0 1 0
    outer loop
      vertex 64.3 0.566667 1
      vertex 69.7 0.566667 0.999999
      vertex -64.3 0.566667 1
    endloop
  endfacet
  facet normal 0 1 0
    outer loop
      vertex -69.7 0.566667 0.999999
      vertex -64.3 0.566667 1
      vertex 69.7 0.566667 0.999999
    endloop
  endfacet
  facet normal 0 1 0
    outer loop
      vertex -64.3 0.566667 1
      vertex -69.7 0.566667 0.999999
      vertex -69.7 0.566667 1
    endloop
  endfacet
  facet normal 0 1 -0
    outer loop
      vertex 64.3 0.566667 1
      vertex -64.3 0.566667 4
      vertex 64.3 0.566667 4
    endloop
  endfacet
  facet normal 0 1 0
    outer loop
      vertex -64.3 0.566667 4
      vertex 64.3 0.566667 1
      vertex -64.3 0.566667 1
    endloop
  endfacet
  facet normal 0 -1 0
    outer loop
      vertex -69.7 10.9667 0.999999
      vertex -64.3 10.9667 1
      vertex -69.7 10.9667 1
    endloop
  endfacet
  facet normal 0 -1 -0
    outer loop
      vertex -64.3 10.9667 1
      vertex -69.7 10.9667 0.999999
      vertex 64.3 10.9667 1
    endloop
  endfacet
  facet normal 0 -1 0
    outer loop
      vertex 69.7 10.9667 0.999999
      vertex 64.3 10.9667 1
      vertex -69.7 10.9667 0.999999
    endloop
  endfacet
  facet normal 0 -1 0
    outer loop
      vertex 64.3 10.9667 1
      vertex 69.7 10.9667 0.999999
      vertex 69.7 10.9667 1
    endloop
  endfacet
  facet normal 0 -1 0
    outer loop
      vertex -64.3 10.9667 1
      vertex 64.3 10.9667 4
      vertex -64.3 10.9667 4
    endloop
  endfacet
  facet normal 0 -1 -0
    outer loop
      vertex 64.3 10.9667 4
      vertex -64.3 10.9667 1
      vertex 64.3 10.9667 1
    endloop
  endfacet
  facet normal 1 -0 0
    outer loop
      vertex 64.3 10.9667 4
      vertex 64.3 12.1 1
      vertex 64.3 12.1 4
    endloop
  endfacet
  facet normal 1 0 0
    outer loop
      vertex 64.3 12.1 1
      vertex 64.3 10.9667 4
      vertex 64.3 10.9667 1
    endloop
  endfacet
  facet normal -0 0 1
    outer loop
      vertex 64.3 12.1 1
      vertex 69.7 10.9667 1
      vertex 69.7 12.1 1
    endloop
  endfacet
  facet normal 0 0 1
    outer loop
      vertex 69.7 10.9667 1
      vertex 64.3 12.1 1
      vertex 64.3 10.9667 1
    endloop
  endfacet
  facet normal -1 0 0
    outer loop
      vertex -64.3 10.9667 1
      vertex -64.3 12.1 4
      vertex -64.3 12.1 1
    endloop
  endfacet
  facet normal -1 -0 0
    outer loop
      vertex -64.3 12.1 4
      vertex -64.3 10.9667 1
      vertex -64.3 10.9667 4
    endloop
  endfacet
  facet normal -0 0 1
    outer loop
      vertex -69.7 12.1 1
      vertex -64.3 10.9667 1
      vertex -64.3 12.1 1
    endloop
  endfacet
  facet normal 0 0 1
    outer loop
      vertex -64.3 10.9667 1
      vertex -69.7 12.1 1
      vertex -69.7 10.9667 1
    endloop
  endfacet
  facet normal 1 -0 0
    outer loop
      vertex -65.9 -9.96667 0.999999
      vertex -65.9 -1.56667 0
      vertex -65.9 -1.56667 0.999999
    endloop
  endfacet
  facet normal 1 0 0
    outer loop
      vertex -65.9 -1.56667 0
      vertex -65.9 -9.96667 0.999999
      vertex -65.9 -9.96667 0
    endloop
  endfacet
  facet normal -1 0 0
    outer loop
      vertex 65.9 -9.96667 0
      vertex 65.9 -1.56667 0.999999
      vertex 65.9 -1.56667 0
    endloop
  endfacet
  facet normal -1 -0 0
    outer loop
      vertex 65.9 -1.56667 0.999999
      vertex 65.9 -9.96667 0
      vertex 65.9 -9.96667 0.999999
    endloop
  endfacet
  facet normal 0 -1 0
    outer loop
      vertex -65.9 -1.56667 0
      vertex 65.9 -1.56667 0.999999
      vertex -65.9 -1.56667 0.999999
    endloop
  endfacet
  facet normal 0 -1 -0
    outer loop
      vertex 65.9 -1.56667 0.999999
      vertex -65.9 -1.56667 0
      vertex 65.9 -1.56667 0
    endloop
  endfacet
  facet normal 0 1 -0
    outer loop
      vertex 65.9 -9.96667 0
      vertex -65.9 -9.96667 0.999999
      vertex 65.9 -9.96667 0.999999
    endloop
  endfacet
  facet normal 0 1 0
    outer loop
      vertex -65.9 -9.96667 0.999999
      vertex 65.9 -9.96667 0
      vertex -65.9 -9.96667 0
    endloop
  endfacet
  facet normal 0 0 1
    outer loop
      vertex 69.7 -0.566667 0.999999
      vertex 65.9 -1.56667 0.999999
      vertex 69.7 -10.9667 0.999999
    endloop
  endfacet
  facet normal 0 0 1
    outer loop
      vertex 69.7 -0.566667 0.999999
      vertex -65.9 -1.56667 0.999999
      vertex 65.9 -1.56667 0.999999
    endloop
  endfacet
  facet normal 0 0 1
    outer loop
      vertex -65.9 -1.56667 0.999999
      vertex -69.7 -0.566667 0.999999
      vertex -65.9 -9.96667 0.999999
    endloop
  endfacet
  facet normal -0 0 1
    outer loop
      vertex -69.7 -0.566667 0.999999
      vertex -65.9 -1.56667 0.999999
      vertex 69.7 -0.566667 0.999999
    endloop
  endfacet
  facet normal -0 0 1
    outer loop
      vertex 65.9 -9.96667 0.999999
      vertex 69.7 -10.9667 0.999999
      vertex 65.9 -1.56667 0.999999
    endloop
  endfacet
  facet normal -0 0 1
    outer loop
      vertex -65.9 -9.96667 0.999999
      vertex 69.7 -10.9667 0.999999
      vertex 65.9 -9.96667 0.999999
    endloop
  endfacet
  facet normal 0 0 1
    outer loop
      vertex -65.9 -9.96667 0.999999
      vertex -69.7 -10.9667 0.999999
      vertex 69.7 -10.9667 0.999999
    endloop
  endfacet
  facet normal 0 0 1
    outer loop
      vertex -69.7 -10.9667 0.999999
      vertex -65.9 -9.96667 0.999999
      vertex -69.7 -0.566667 0.999999
    endloop
  endfacet
  facet normal 0 1 -0
    outer loop
      vertex 69.7 -10.9667 0.999999
      vertex -69.7 -10.9667 4
      vertex 69.7 -10.9667 4
    endloop
  endfacet
  facet normal 0 1 0
    outer loop
      vertex -69.7 -10.9667 4
      vertex 69.7 -10.9667 0.999999
      vertex -69.7 -10.9667 0.999999
    endloop
  endfacet
  facet normal 0 -1 0
    outer loop
      vertex -69.7 -0.566667 0.999999
      vertex -64.3 -0.566667 1
      vertex -69.7 -0.566667 1
    endloop
  endfacet
  facet normal 0 -1 -0
    outer loop
      vertex -64.3 -0.566667 1
      vertex -69.7 -0.566667 0.999999
      vertex 64.3 -0.566667 1
    endloop
  endfacet
  facet normal 0 -1 0
    outer loop
      vertex 69.7 -0.566667 0.999999
      vertex 64.3 -0.566667 1
      vertex -69.7 -0.566667 0.999999
    endloop
  endfacet
  facet normal 0 -1 0
    outer loop
      vertex 64.3 -0.566667 1
      vertex 69.7 -0.566667 0.999999
      vertex 69.7 -0.566667 1
    endloop
  endfacet
  facet normal 0 -1 0
    outer loop
      vertex -64.3 -0.566667 1
      vertex 64.3 -0.566667 4
      vertex -64.3 -0.566667 4
    endloop
  endfacet
  facet normal 0 -1 -0
    outer loop
      vertex 64.3 -0.566667 4
      vertex -64.3 -0.566667 1
      vertex 64.3 -0.566667 1
    endloop
  endfacet
  facet normal 1 -0 0
    outer loop
      vertex 64.3 -0.566667 4
      vertex 64.3 0.566667 1
      vertex 64.3 0.566667 4
    endloop
  endfacet
  facet normal 1 0 0
    outer loop
      vertex 64.3 0.566667 1
      vertex 64.3 -0.566667 4
      vertex 64.3 -0.566667 1
    endloop
  endfacet
  facet normal -0 0 1
    outer loop
      vertex 64.3 0.566667 1
      vertex 69.7 -0.566667 1
      vertex 69.7 0.566667 1
    endloop
  endfacet
  facet normal 0 0 1
    outer loop
      vertex 69.7 -0.566667 1
      vertex 64.3 0.566667 1
      vertex 64.3 -0.566667 1
    endloop
  endfacet
  facet normal -1 0 0
    outer loop
      vertex -64.3 -0.566667 1
      vertex -64.3 0.566667 4
      vertex -64.3 0.566667 1
    endloop
  endfacet
  facet normal -1 -0 0
    outer loop
      vertex -64.3 0.566667 4
      vertex -64.3 -0.566667 1
      vertex -64.3 -0.566667 4
    endloop
  endfacet
  facet normal -0 0 1
    outer loop
      vertex -69.7 0.566667 1
      vertex -64.3 -0.566667 1
      vertex -64.3 0.566667 1
    endloop
  endfacet
  facet normal 0 0 1
    outer loop
      vertex -64.3 -0.566667 1
      vertex -69.7 0.566667 1
      vertex -69.7 -0.566667 1
    endloop
  endfacet
  facet normal -1 0 0
    outer loop
      vertex -69.7 12.1 0
      vertex -69.7 10.9667 0.999999
      vertex -69.7 12.1 1
    endloop
  endfacet
  facet normal -1 0 0
    outer loop
      vertex -69.7 12.1 0
      vertex -69.7 0.566667 0.999999
      vertex -69.7 10.9667 0.999999
    endloop
  endfacet
  facet normal -1 0 0
    outer loop
      vertex -69.7 0.566667 0.999999
      vertex -69.7 -0.566667 0.999999
      vertex -69.7 0.566667 1
    endloop
  endfacet
  facet normal -1 0 0
    outer loop
      vertex -69.7 12.1 0
      vertex -69.7 -0.566667 0.999999
      vertex -69.7 0.566667 0.999999
    endloop
  endfacet
  facet normal -1 0 0
    outer loop
      vertex -69.7 -12.1 0
      vertex -69.7 -0.566667 0.999999
      vertex -69.7 12.1 0
    endloop
  endfacet
  facet normal -1 -0 0
    outer loop
      vertex -69.7 -0.566667 0.999999
      vertex -69.7 -12.1 0
      vertex -69.7 -10.9667 0.999999
    endloop
  endfacet
  facet normal -1 0 0
    outer loop
      vertex -69.7 -12.1 4
      vertex -69.7 -10.9667 0.999999
      vertex -69.7 -12.1 0
    endloop
  endfacet
  facet normal -1 0 0
    outer loop
      vertex -69.7 -10.9667 0.999999
      vertex -69.7 -12.1 4
      vertex -69.7 -10.9667 4
    endloop
  endfacet
  facet normal -1 -0 0
    outer loop
      vertex -69.7 12.1 1
      vertex -69.7 10.9667 0.999999
      vertex -69.7 10.9667 1
    endloop
  endfacet
  facet normal -1 -0 0
    outer loop
      vertex -69.7 0.566667 1
      vertex -69.7 -0.566667 0.999999
      vertex -69.7 -0.566667 1
    endloop
  endfacet
  facet normal -0 0 1
    outer loop
      vertex -69.7 -10.9667 4
      vertex 69.7 -12.1 4
      vertex 69.7 -10.9667 4
    endloop
  endfacet
  facet normal 0 0 1
    outer loop
      vertex 69.7 -12.1 4
      vertex -69.7 -10.9667 4
      vertex -69.7 -12.1 4
    endloop
  endfacet
  facet normal -0 0 1
    outer loop
      vertex -64.3 12.1 4
      vertex 64.3 10.9667 4
      vertex 64.3 12.1 4
    endloop
  endfacet
  facet normal 0 0 1
    outer loop
      vertex 64.3 10.9667 4
      vertex -64.3 12.1 4
      vertex -64.3 10.9667 4
    endloop
  endfacet
  facet normal -0 0 1
    outer loop
      vertex -64.3 0.566667 4
      vertex 64.3 -0.566667 4
      vertex 64.3 0.566667 4
    endloop
  endfacet
  facet normal 0 0 1
    outer loop
      vertex 64.3 -0.566667 4
      vertex -64.3 0.566667 4
      vertex -64.3 -0.566667 4
    endloop
  endfacet
  facet normal 1 0 0
    outer loop
      vertex 69.7 -10.9667 4
      vertex 69.7 -12.1 4
      vertex 69.7 -10.9667 0.999999
    endloop
  endfacet
  facet normal 1 0 0
    outer loop
      vertex 69.7 0.566667 1
      vertex 69.7 -0.566667 1
      vertex 69.7 0.566667 0.999999
    endloop
  endfacet
  facet normal 1 0 0
    outer loop
      vertex 69.7 10.9667 0.999999
      vertex 69.7 12.1 1
      vertex 69.7 10.9667 1
    endloop
  endfacet
  facet normal 1 0 0
    outer loop
      vertex 69.7 12.1 1
      vertex 69.7 10.9667 0.999999
      vertex 69.7 12.1 0
    endloop
  endfacet
  facet normal 1 -0 0
    outer loop
      vertex 69.7 0.566667 0.999999
      vertex 69.7 12.1 0
      vertex 69.7 10.9667 0.999999
    endloop
  endfacet
  facet normal 1 0 0
    outer loop
      vertex 69.7 -0.566667 0.999999
      vertex 69.7 0.566667 0.999999
      vertex 69.7 -0.566667 1
    endloop
  endfacet
  facet normal 1 0 0
    outer loop
      vertex 69.7 0.566667 0.999999
      vertex 69.7 -0.566667 0.999999
      vertex 69.7 12.1 0
    endloop
  endfacet
  facet normal 1 0 0
    outer loop
      vertex 69.7 -12.1 0
      vertex 69.7 -0.566667 0.999999
      vertex 69.7 -10.9667 0.999999
    endloop
  endfacet
  facet normal 1 0 0
    outer loop
      vertex 69.7 -0.566667 0.999999
      vertex 69.7 -12.1 0
      vertex 69.7 12.1 0
    endloop
  endfacet
  facet normal 1 0 0
    outer loop
      vertex 69.7 -12.1 0
      vertex 69.7 -10.9667 0.999999
      vertex 69.7 -12.1 4
    endloop
  endfacet
  facet normal 0 1 -0
    outer loop
      vertex 69.7 12.1 0
      vertex 64.3 12.1 1
      vertex 69.7 12.1 1
    endloop
  endfacet
  facet normal 0 1 0
    outer loop
      vertex 64.3 12.1 1
      vertex 69.7 12.1 0
      vertex -64.3 12.1 1
    endloop
  endfacet
  facet normal 0 1 0
    outer loop
      vertex -69.7 12.1 0
      vertex -64.3 12.1 1
      vertex 69.7 12.1 0
    endloop
  endfacet
  facet normal 0 1 0
    outer loop
      vertex -64.3 12.1 1
      vertex -69.7 12.1 0
      vertex -69.7 12.1 1
    endloop
  endfacet
  facet normal 0 1 -0
    outer loop
      vertex 64.3 12.1 1
      vertex -64.3 12.1 4
      vertex 64.3 12.1 4
    endloop
  endfacet
  facet normal 0 1 0
    outer loop
      vertex -64.3 12.1 4
      vertex 64.3 12.1 1
      vertex -64.3 12.1 1
    endloop
  endfacet
  facet normal 0 0 -1
    outer loop
      vertex -65.9 -1.56667 0
      vertex 65.9 1.56667 0
      vertex 65.9 -1.56667 0
    endloop
  endfacet
  facet normal -0 0 -1
    outer loop
      vertex 65.9 1.56667 0
      vertex -65.9 -1.56667 0
      vertex -65.9 1.56667 0
    endloop
  endfacet
  facet normal 0 0 -1
    outer loop
      vertex 65.9 -1.56667 0
      vertex 69.7 -12.1 0
      vertex 65.9 -9.96667 0
    endloop
  endfacet
  facet normal 0 0 -1
    outer loop
      vertex 69.7 -12.1 0
      vertex -65.9 -9.96667 0
      vertex 65.9 -9.96667 0
    endloop
  endfacet
  facet normal 0 0 -1
    outer loop
      vertex -69.7 -12.1 0
      vertex -65.9 -1.56667 0
      vertex -65.9 -9.96667 0
    endloop
  endfacet
  facet normal -0 0 -1
    outer loop
      vertex -65.9 -1.56667 0
      vertex -69.7 -12.1 0
      vertex -65.9 1.56667 0
    endloop
  endfacet
  facet normal 0 0 -1
    outer loop
      vertex -69.7 12.1 0
      vertex -65.9 1.56667 0
      vertex -69.7 -12.1 0
    endloop
  endfacet
  facet normal 0 0 -1
    outer loop
      vertex -69.7 -12.1 0
      vertex -65.9 -9.96667 0
      vertex 69.7 -12.1 0
    endloop
  endfacet
  facet normal 0 0 -1
    outer loop
      vertex 69.7 -12.1 0
      vertex 65.9 -1.56667 0
      vertex 69.7 12.1 0
    endloop
  endfacet
  facet normal 0 0 -1
    outer loop
      vertex 65.9 1.56667 0
      vertex 69.7 12.1 0
      vertex 65.9 -1.56667 0
    endloop
  endfacet
  facet normal 0 0 -1
    outer loop
      vertex 65.9 9.96667 0
      vertex 69.7 12.1 0
      vertex 65.9 1.56667 0
    endloop
  endfacet
  facet normal 0 0 -1
    outer loop
      vertex -65.9 9.96667 0
      vertex 69.7 12.1 0
      vertex 65.9 9.96667 0
    endloop
  endfacet
  facet normal 0 0 -1
    outer loop
      vertex -65.9 9.96667 0
      vertex -69.7 12.1 0
      vertex 69.7 12.1 0
    endloop
  endfacet
  facet normal 0 0 -1
    outer loop
      vertex -65.9 1.56667 0
      vertex -69.7 12.1 0
      vertex -65.9 9.96667 0
    endloop
  endfacet
  facet normal 0 -1 0
    outer loop
      vertex -69.7 -12.1 0
      vertex 69.7 -12.1 4
      vertex -69.7 -12.1 4
    endloop
  endfacet
  facet normal 0 -1 -0
    outer loop
      vertex 69.7 -12.1 4
      vertex -69.7 -12.1 0
      vertex 69.7 -12.1 0
    endloop
  endfacet
endsolid OpenSCAD_Model
