solid OpenSCAD_Model
  facet normal 1 -0 0
    outer loop
      vertex -72.45 1.56667 0.999999
      vertex -72.45 9.96667 0
      vertex -72.45 9.96667 0.999999
    endloop
  endfacet
  facet normal 1 0 0
    outer loop
      vertex -72.45 9.96667 0
      vertex -72.45 1.56667 0.999999
      vertex -72.45 1.56667 0
    endloop
  endfacet
  facet normal -1 0 0
    outer loop
      vertex 72.45 1.56667 0
      vertex 72.45 9.96667 0.999999
      vertex 72.45 9.96667 0
    endloop
  endfacet
  facet normal -1 -0 0
    outer loop
      vertex 72.45 9.96667 0.999999
      vertex 72.45 1.56667 0
      vertex 72.45 1.56667 0.999999
    endloop
  endfacet
  facet normal 0 -1 0
    outer loop
      vertex -72.45 9.96667 0
      vertex 72.45 9.96667 0.999999
      vertex -72.45 9.96667 0.999999
    endloop
  endfacet
  facet normal 0 -1 -0
    outer loop
      vertex 72.45 9.96667 0.999999
      vertex -72.45 9.96667 0
      vertex 72.45 9.96667 0
    endloop
  endfacet
  facet normal 0 1 -0
    outer loop
      vertex 72.45 1.56667 0
      vertex -72.45 1.56667 0.999999
      vertex 72.45 1.56667 0.999999
    endloop
  endfacet
  facet normal 0 1 0
    outer loop
      vertex -72.45 1.56667 0.999999
      vertex 72.45 1.56667 0
      vertex -72.45 1.56667 0
    endloop
  endfacet
  facet normal 0 0 1
    outer loop
      vertex 76.25 10.9667 0.999999
      vertex 72.45 9.96667 0.999999
      vertex 76.25 0.566667 0.999999
    endloop
  endfacet
  facet normal 0 0 1
    outer loop
      vertex 76.25 10.9667 0.999999
      vertex -72.45 9.96667 0.999999
      vertex 72.45 9.96667 0.999999
    endloop
  endfacet
  facet normal 0 0 1
    outer loop
      vertex -72.45 9.96667 0.999999
      vertex -76.25 10.9667 0.999999
      vertex -72.45 1.56667 0.999999
    endloop
  endfacet
  facet normal -0 0 1
    outer loop
      vertex -76.25 10.9667 0.999999
      vertex -72.45 9.96667 0.999999
      vertex 76.25 10.9667 0.999999
    endloop
  endfacet
  facet normal -0 0 1
    outer loop
      vertex 72.45 1.56667 0.999999
      vertex 76.25 0.566667 0.999999
      vertex 72.45 9.96667 0.999999
    endloop
  endfacet
  facet normal -0 0 1
    outer loop
      vertex -72.45 1.56667 0.999999
      vertex 76.25 0.566667 0.999999
      vertex 72.45 1.56667 0.999999
    endloop
  endfacet
  facet normal 0 0 1
    outer loop
      vertex -72.45 1.56667 0.999999
      vertex -76.25 0.566667 0.999999
      vertex 76.25 0.566667 0.999999
    endloop
  endfacet
  facet normal 0 0 1
    outer loop
      vertex -76.25 0.566667 0.999999
      vertex -72.45 1.56667 0.999999
      vertex -76.25 10.9667 0.999999
    endloop
  endfacet
  facet normal 0 1 -0
    outer loop
      vertex 76.25 0.566667 0.999999
      vertex 70.05 0.566667 1
      vertex 76.25 0.566667 1
    endloop
  endfacet
  facet normal 0 1 0
    outer loop
      vertex 70.05 0.566667 1
      vertex 76.25 0.566667 0.999999
      vertex -70.05 0.566667 1
    endloop
  endfacet
  facet normal 0 1 0
    outer loop
      vertex -76.25 0.566667 0.999999
      vertex -70.05 0.566667 1
      vertex 76.25 0.566667 0.999999
    endloop
  endfacet
  facet normal 0 1 0
    outer loop
      vertex -70.05 0.566667 1
      vertex -76.25 0.566667 0.999999
      vertex -76.25 0.566667 1
    endloop
  endfacet
  facet normal 0 1 -0
    outer loop
      vertex 70.05 0.566667 1
      vertex -70.05 0.566667 4
      vertex 70.05 0.566667 4
    endloop
  endfacet
  facet normal 0 1 0
    outer loop
      vertex -70.05 0.566667 4
      vertex 70.05 0.566667 1
      vertex -70.05 0.566667 1
    endloop
  endfacet
  facet normal 0 -1 0
    outer loop
      vertex -76.25 10.9667 0.999999
      vertex -70.05 10.9667 1
      vertex -76.25 10.9667 1
    endloop
  endfacet
  facet normal 0 -1 -0
    outer loop
      vertex -70.05 10.9667 1
      vertex -76.25 10.9667 0.999999
      vertex 70.05 10.9667 1
    endloop
  endfacet
  facet normal 0 -1 0
    outer loop
      vertex 76.25 10.9667 0.999999
      vertex 70.05 10.9667 1
      vertex -76.25 10.9667 0.999999
    endloop
  endfacet
  facet normal 0 -1 0
    outer loop
      vertex 70.05 10.9667 1
      vertex 76.25 10.9667 0.999999
      vertex 76.25 10.9667 1
    endloop
  endfacet
  facet normal 0 -1 0
    outer loop
      vertex -70.05 10.9667 1
      vertex 70.05 10.9667 4
      vertex -70.05 10.9667 4
    endloop
  endfacet
  facet normal 0 -1 -0
    outer loop
      vertex 70.05 10.9667 4
      vertex -70.05 10.9667 1
      vertex 70.05 10.9667 1
    endloop
  endfacet
  facet normal 1 -0 0
    outer loop
      vertex 70.05 10.9667 4
      vertex 70.05 12.1 1
      vertex 70.05 12.1 4
    endloop
  endfacet
  facet normal 1 0 0
    outer loop
      vertex 70.05 12.1 1
      vertex 70.05 10.9667 4
      vertex 70.05 10.9667 1
    endloop
  endfacet
  facet normal -0 0 1
    outer loop
      vertex 70.05 12.1 1
      vertex 76.25 10.9667 1
      vertex 76.25 12.1 1
    endloop
  endfacet
  facet normal 0 0 1
    outer loop
      vertex 76.25 10.9667 1
      vertex 70.05 12.1 1
      vertex 70.05 10.9667 1
    endloop
  endfacet
  facet normal -1 0 0
    outer loop
      vertex -70.05 10.9667 1
      vertex -70.05 12.1 4
      vertex -70.05 12.1 1
    endloop
  endfacet
  facet normal -1 -0 0
    outer loop
      vertex -70.05 12.1 4
      vertex -70.05 10.9667 1
      vertex -70.05 10.9667 4
    endloop
  endfacet
  facet normal -0 0 1
    outer loop
      vertex -76.25 12.1 1
      vertex -70.05 10.9667 1
      vertex -70.05 12.1 1
    endloop
  endfacet
  facet normal 0 0 1
    outer loop
      vertex -70.05 10.9667 1
      vertex -76.25 12.1 1
      vertex -76.25 10.9667 1
    endloop
  endfacet
  facet normal 1 -0 0
    outer loop
      vertex -72.45 -9.96667 0.999999
      vertex -72.45 -1.56667 0
      vertex -72.45 -1.56667 0.999999
    endloop
  endfacet
  facet normal 1 0 0
    outer loop
      vertex -72.45 -1.56667 0
      vertex -72.45 -9.96667 0.999999
      vertex -72.45 -9.96667 0
    endloop
  endfacet
  facet normal -1 0 0
    outer loop
      vertex 72.45 -9.96667 0
      vertex 72.45 -1.56667 0.999999
      vertex 72.45 -1.56667 0
    endloop
  endfacet
  facet normal -1 -0 0
    outer loop
      vertex 72.45 -1.56667 0.999999
      vertex 72.45 -9.96667 0
      vertex 72.45 -9.96667 0.999999
    endloop
  endfacet
  facet normal 0 1 -0
    outer loop
      vertex 72.45 -9.96667 0
      vertex -72.45 -9.96667 0.999999
      vertex 72.45 -9.96667 0.999999
    endloop
  endfacet
  facet normal 0 1 0
    outer loop
      vertex -72.45 -9.96667 0.999999
      vertex 72.45 -9.96667 0
      vertex -72.45 -9.96667 0
    endloop
  endfacet
  facet normal 0 -1 0
    outer loop
      vertex -72.45 -1.56667 0
      vertex 72.45 -1.56667 0.999999
      vertex -72.45 -1.56667 0.999999
    endloop
  endfacet
  facet normal 0 -1 -0
    outer loop
      vertex 72.45 -1.56667 0.999999
      vertex -72.45 -1.56667 0
      vertex 72.45 -1.56667 0
    endloop
  endfacet
  facet normal 0 0 1
    outer loop
      vertex 76.25 -0.566667 0.999999
      vertex 72.45 -1.56667 0.999999
      vertex 76.25 -10.9667 0.999999
    endloop
  endfacet
  facet normal 0 0 1
    outer loop
      vertex 76.25 -0.566667 0.999999
      vertex -72.45 -1.56667 0.999999
      vertex 72.45 -1.56667 0.999999
    endloop
  endfacet
  facet normal 0 0 1
    outer loop
      vertex -72.45 -1.56667 0.999999
      vertex -76.25 -0.566667 0.999999
      vertex -72.45 -9.96667 0.999999
    endloop
  endfacet
  facet normal -0 0 1
    outer loop
      vertex -76.25 -0.566667 0.999999
      vertex -72.45 -1.56667 0.999999
      vertex 76.25 -0.566667 0.999999
    endloop
  endfacet
  facet normal -0 0 1
    outer loop
      vertex 72.45 -9.96667 0.999999
      vertex 76.25 -10.9667 0.999999
      vertex 72.45 -1.56667 0.999999
    endloop
  endfacet
  facet normal -0 0 1
    outer loop
      vertex -72.45 -9.96667 0.999999
      vertex 76.25 -10.9667 0.999999
      vertex 72.45 -9.96667 0.999999
    endloop
  endfacet
  facet normal 0 0 1
    outer loop
      vertex -72.45 -9.96667 0.999999
      vertex -76.25 -10.9667 0.999999
      vertex 76.25 -10.9667 0.999999
    endloop
  endfacet
  facet normal 0 0 1
    outer loop
      vertex -76.25 -10.9667 0.999999
      vertex -72.45 -9.96667 0.999999
      vertex -76.25 -0.566667 0.999999
    endloop
  endfacet
  facet normal 0 1 -0
    outer loop
      vertex 76.25 -10.9667 0.999999
      vertex -76.25 -10.9667 4
      vertex 76.25 -10.9667 4
    endloop
  endfacet
  facet normal 0 1 0
    outer loop
      vertex -76.25 -10.9667 4
      vertex 76.25 -10.9667 0.999999
      vertex -76.25 -10.9667 0.999999
    endloop
  endfacet
  facet normal 0 -1 0
    outer loop
      vertex -76.25 -0.566667 0.999999
      vertex -70.05 -0.566667 1
      vertex -76.25 -0.566667 1
    endloop
  endfacet
  facet normal 0 -1 -0
    outer loop
      vertex -70.05 -0.566667 1
      vertex -76.25 -0.566667 0.999999
      vertex 70.05 -0.566667 1
    endloop
  endfacet
  facet normal 0 -1 0
    outer loop
      vertex 76.25 -0.566667 0.999999
      vertex 70.05 -0.566667 1
      vertex -76.25 -0.566667 0.999999
    endloop
  endfacet
  facet normal 0 -1 0
    outer loop
      vertex 70.05 -0.566667 1
      vertex 76.25 -0.566667 0.999999
      vertex 76.25 -0.566667 1
    endloop
  endfacet
  facet normal 0 -1 0
    outer loop
      vertex -70.05 -0.566667 1
      vertex 70.05 -0.566667 4
      vertex -70.05 -0.566667 4
    endloop
  endfacet
  facet normal 0 -1 -0
    outer loop
      vertex 70.05 -0.566667 4
      vertex -70.05 -0.566667 1
      vertex 70.05 -0.566667 1
    endloop
  endfacet
  facet normal 1 -0 0
    outer loop
      vertex 70.05 -0.566667 4
      vertex 70.05 0.566667 1
      vertex 70.05 0.566667 4
    endloop
  endfacet
  facet normal 1 0 0
    outer loop
      vertex 70.05 0.566667 1
      vertex 70.05 -0.566667 4
      vertex 70.05 -0.566667 1
    endloop
  endfacet
  facet normal -0 0 1
    outer loop
      vertex 70.05 0.566667 1
      vertex 76.25 -0.566667 1
      vertex 76.25 0.566667 1
    endloop
  endfacet
  facet normal 0 0 1
    outer loop
      vertex 76.25 -0.566667 1
      vertex 70.05 0.566667 1
      vertex 70.05 -0.566667 1
    endloop
  endfacet
  facet normal -1 0 0
    outer loop
      vertex -70.05 -0.566667 1
      vertex -70.05 0.566667 4
      vertex -70.05 0.566667 1
    endloop
  endfacet
  facet normal -1 -0 0
    outer loop
      vertex -70.05 0.566667 4
      vertex -70.05 -0.566667 1
      vertex -70.05 -0.566667 4
    endloop
  endfacet
  facet normal -0 0 1
    outer loop
      vertex -76.25 0.566667 1
      vertex -70.05 -0.566667 1
      vertex -70.05 0.566667 1
    endloop
  endfacet
  facet normal 0 0 1
    outer loop
      vertex -70.05 -0.566667 1
      vertex -76.25 0.566667 1
      vertex -76.25 -0.566667 1
    endloop
  endfacet
  facet normal -1 0 0
    outer loop
      vertex -76.25 12.1 0
      vertex -76.25 10.9667 0.999999
      vertex -76.25 12.1 1
    endloop
  endfacet
  facet normal -1 0 0
    outer loop
      vertex -76.25 12.1 0
      vertex -76.25 0.566667 0.999999
      vertex -76.25 10.9667 0.999999
    endloop
  endfacet
  facet normal -1 0 0
    outer loop
      vertex -76.25 0.566667 0.999999
      vertex -76.25 -0.566667 0.999999
      vertex -76.25 0.566667 1
    endloop
  endfacet
  facet normal -1 0 0
    outer loop
      vertex -76.25 12.1 0
      vertex -76.25 -0.566667 0.999999
      vertex -76.25 0.566667 0.999999
    endloop
  endfacet
  facet normal -1 0 0
    outer loop
      vertex -76.25 -12.1 0
      vertex -76.25 -0.566667 0.999999
      vertex -76.25 12.1 0
    endloop
  endfacet
  facet normal -1 -0 0
    outer loop
      vertex -76.25 -0.566667 0.999999
      vertex -76.25 -12.1 0
      vertex -76.25 -10.9667 0.999999
    endloop
  endfacet
  facet normal -1 0 0
    outer loop
      vertex -76.25 -12.1 4
      vertex -76.25 -10.9667 0.999999
      vertex -76.25 -12.1 0
    endloop
  endfacet
  facet normal -1 0 0
    outer loop
      vertex -76.25 -10.9667 0.999999
      vertex -76.25 -12.1 4
      vertex -76.25 -10.9667 4
    endloop
  endfacet
  facet normal -1 -0 0
    outer loop
      vertex -76.25 12.1 1
      vertex -76.25 10.9667 0.999999
      vertex -76.25 10.9667 1
    endloop
  endfacet
  facet normal -1 -0 0
    outer loop
      vertex -76.25 0.566667 1
      vertex -76.25 -0.566667 0.999999
      vertex -76.25 -0.566667 1
    endloop
  endfacet
  facet normal -0 0 1
    outer loop
      vertex -76.25 -10.9667 4
      vertex 76.25 -12.1 4
      vertex 76.25 -10.9667 4
    endloop
  endfacet
  facet normal 0 0 1
    outer loop
      vertex 76.25 -12.1 4
      vertex -76.25 -10.9667 4
      vertex -76.25 -12.1 4
    endloop
  endfacet
  facet normal -0 0 1
    outer loop
      vertex -70.05 12.1 4
      vertex 70.05 10.9667 4
      vertex 70.05 12.1 4
    endloop
  endfacet
  facet normal 0 0 1
    outer loop
      vertex 70.05 10.9667 4
      vertex -70.05 12.1 4
      vertex -70.05 10.9667 4
    endloop
  endfacet
  facet normal -0 0 1
    outer loop
      vertex -70.05 0.566667 4
      vertex 70.05 -0.566667 4
      vertex 70.05 0.566667 4
    endloop
  endfacet
  facet normal 0 0 1
    outer loop
      vertex 70.05 -0.566667 4
      vertex -70.05 0.566667 4
      vertex -70.05 -0.566667 4
    endloop
  endfacet
  facet normal 1 0 0
    outer loop
      vertex 76.25 -10.9667 4
      vertex 76.25 -12.1 4
      vertex 76.25 -10.9667 0.999999
    endloop
  endfacet
  facet normal 1 0 0
    outer loop
      vertex 76.25 0.566667 1
      vertex 76.25 -0.566667 1
      vertex 76.25 0.566667 0.999999
    endloop
  endfacet
  facet normal 1 0 0
    outer loop
      vertex 76.25 10.9667 0.999999
      vertex 76.25 12.1 1
      vertex 76.25 10.9667 1
    endloop
  endfacet
  facet normal 1 0 0
    outer loop
      vertex 76.25 12.1 1
      vertex 76.25 10.9667 0.999999
      vertex 76.25 12.1 0
    endloop
  endfacet
  facet normal 1 -0 0
    outer loop
      vertex 76.25 0.566667 0.999999
      vertex 76.25 12.1 0
      vertex 76.25 10.9667 0.999999
    endloop
  endfacet
  facet normal 1 0 0
    outer loop
      vertex 76.25 -0.566667 0.999999
      vertex 76.25 0.566667 0.999999
      vertex 76.25 -0.566667 1
    endloop
  endfacet
  facet normal 1 0 0
    outer loop
      vertex 76.25 0.566667 0.999999
      vertex 76.25 -0.566667 0.999999
      vertex 76.25 12.1 0
    endloop
  endfacet
  facet normal 1 0 0
    outer loop
      vertex 76.25 -12.1 0
      vertex 76.25 -0.566667 0.999999
      vertex 76.25 -10.9667 0.999999
    endloop
  endfacet
  facet normal 1 0 0
    outer loop
      vertex 76.25 -0.566667 0.999999
      vertex 76.25 -12.1 0
      vertex 76.25 12.1 0
    endloop
  endfacet
  facet normal 1 0 0
    outer loop
      vertex 76.25 -12.1 0
      vertex 76.25 -10.9667 0.999999
      vertex 76.25 -12.1 4
    endloop
  endfacet
  facet normal 0 1 -0
    outer loop
      vertex 76.25 12.1 0
      vertex 70.05 12.1 1
      vertex 76.25 12.1 1
    endloop
  endfacet
  facet normal 0 1 0
    outer loop
      vertex 70.05 12.1 1
      vertex 76.25 12.1 0
      vertex -70.05 12.1 1
    endloop
  endfacet
  facet normal 0 1 0
    outer loop
      vertex -76.25 12.1 0
      vertex -70.05 12.1 1
      vertex 76.25 12.1 0
    endloop
  endfacet
  facet normal 0 1 0
    outer loop
      vertex -70.05 12.1 1
      vertex -76.25 12.1 0
      vertex -76.25 12.1 1
    endloop
  endfacet
  facet normal 0 1 -0
    outer loop
      vertex 70.05 12.1 1
      vertex -70.05 12.1 4
      vertex 70.05 12.1 4
    endloop
  endfacet
  facet normal 0 1 0
    outer loop
      vertex -70.05 12.1 4
      vertex 70.05 12.1 1
      vertex -70.05 12.1 1
    endloop
  endfacet
  facet normal 0 0 -1
    outer loop
      vertex -72.45 -1.56667 0
      vertex 72.45 1.56667 0
      vertex 72.45 -1.56667 0
    endloop
  endfacet
  facet normal -0 0 -1
    outer loop
      vertex 72.45 1.56667 0
      vertex -72.45 -1.56667 0
      vertex -72.45 1.56667 0
    endloop
  endfacet
  facet normal 0 0 -1
    outer loop
      vertex 72.45 -1.56667 0
      vertex 76.25 -12.1 0
      vertex 72.45 -9.96667 0
    endloop
  endfacet
  facet normal 0 0 -1
    outer loop
      vertex 76.25 -12.1 0
      vertex -72.45 -9.96667 0
      vertex 72.45 -9.96667 0
    endloop
  endfacet
  facet normal 0 0 -1
    outer loop
      vertex -76.25 -12.1 0
      vertex -72.45 -1.56667 0
      vertex -72.45 -9.96667 0
    endloop
  endfacet
  facet normal -0 0 -1
    outer loop
      vertex -72.45 -1.56667 0
      vertex -76.25 -12.1 0
      vertex -72.45 1.56667 0
    endloop
  endfacet
  facet normal 0 0 -1
    outer loop
      vertex -76.25 12.1 0
      vertex -72.45 1.56667 0
      vertex -76.25 -12.1 0
    endloop
  endfacet
  facet normal 0 0 -1
    outer loop
      vertex -76.25 -12.1 0
      vertex -72.45 -9.96667 0
      vertex 76.25 -12.1 0
    endloop
  endfacet
  facet normal 0 0 -1
    outer loop
      vertex 76.25 -12.1 0
      vertex 72.45 -1.56667 0
      vertex 76.25 12.1 0
    endloop
  endfacet
  facet normal 0 0 -1
    outer loop
      vertex 72.45 1.56667 0
      vertex 76.25 12.1 0
      vertex 72.45 -1.56667 0
    endloop
  endfacet
  facet normal 0 0 -1
    outer loop
      vertex 72.45 9.96667 0
      vertex 76.25 12.1 0
      vertex 72.45 1.56667 0
    endloop
  endfacet
  facet normal 0 0 -1
    outer loop
      vertex -72.45 9.96667 0
      vertex 76.25 12.1 0
      vertex 72.45 9.96667 0
    endloop
  endfacet
  facet normal 0 0 -1
    outer loop
      vertex -72.45 9.96667 0
      vertex -76.25 12.1 0
      vertex 76.25 12.1 0
    endloop
  endfacet
  facet normal 0 0 -1
    outer loop
      vertex -72.45 1.56667 0
      vertex -76.25 12.1 0
      vertex -72.45 9.96667 0
    endloop
  endfacet
  facet normal 0 -1 0
    outer loop
      vertex -76.25 -12.1 0
      vertex 76.25 -12.1 4
      vertex -76.25 -12.1 4
    endloop
  endfacet
  facet normal 0 -1 -0
    outer loop
      vertex 76.25 -12.1 4
      vertex -76.25 -12.1 0
      vertex 76.25 -12.1 0
    endloop
  endfacet
endsolid OpenSCAD_Model
