solid OpenSCAD_Model
  facet normal -1 0 0
    outer loop
      vertex -74.25 -4.8 0
      vertex -74.25 4.8 3
      vertex -74.25 4.8 0
    endloop
  endfacet
  facet normal -1 -0 0
    outer loop
      vertex -74.25 4.8 3
      vertex -74.25 -4.8 0
      vertex -74.25 -4.8 3
    endloop
  endfacet
  facet normal 0 0 1
    outer loop
      vertex 64.65 4.8 3
      vertex -64.65 4.8 3
      vertex 64.65 4.79 3
    endloop
  endfacet
  facet normal 0 0 1
    outer loop
      vertex 74.25 4.8 3
      vertex 72.05 4 3
      vertex 74.25 -4.8 3
    endloop
  endfacet
  facet normal -0 0 1
    outer loop
      vertex 67.65 4.8 3
      vertex 72.05 4 3
      vertex 74.25 4.8 3
    endloop
  endfacet
  facet normal -0 0 1
    outer loop
      vertex 67.65 4.79 3
      vertex 72.05 4 3
      vertex 67.65 4.8 3
    endloop
  endfacet
  facet normal -0 0 1
    outer loop
      vertex 64.65 4.79 3
      vertex 72.05 4 3
      vertex 67.65 4.79 3
    endloop
  endfacet
  facet normal 0 0 1
    outer loop
      vertex -64.65 4.79 3
      vertex 64.65 4.79 3
      vertex -64.65 4.8 3
    endloop
  endfacet
  facet normal 0 0 1
    outer loop
      vertex 64.65 4.79 3
      vertex -64.65 4.79 3
      vertex 72.05 4 3
    endloop
  endfacet
  facet normal 0 0 1
    outer loop
      vertex -72.05 4 3
      vertex -64.65 4.79 3
      vertex -67.65 4.79 3
    endloop
  endfacet
  facet normal 0 0 1
    outer loop
      vertex -64.65 4.79 3
      vertex -72.05 4 3
      vertex 72.05 4 3
    endloop
  endfacet
  facet normal -0 0 1
    outer loop
      vertex 72.05 -4 3
      vertex 74.25 -4.8 3
      vertex 72.05 4 3
    endloop
  endfacet
  facet normal 0 0 1
    outer loop
      vertex 26.25 -4.8 3
      vertex 72.05 -4 3
      vertex 26.25 -4.79 3
    endloop
  endfacet
  facet normal 0 0 1
    outer loop
      vertex 72.05 -4 3
      vertex 26.25 -4.8 3
      vertex 74.25 -4.8 3
    endloop
  endfacet
  facet normal 0 0 1
    outer loop
      vertex -67.65 4.8 3
      vertex -72.05 4 3
      vertex -67.65 4.79 3
    endloop
  endfacet
  facet normal 0 0 1
    outer loop
      vertex -72.05 4 3
      vertex -74.25 4.8 3
      vertex -72.05 -4 3
    endloop
  endfacet
  facet normal -0 0 1
    outer loop
      vertex -74.25 4.8 3
      vertex -72.05 4 3
      vertex -67.65 4.8 3
    endloop
  endfacet
  facet normal 0 0 1
    outer loop
      vertex 72.05 -4 3
      vertex 23.25 -4.79 3
      vertex 26.25 -4.79 3
    endloop
  endfacet
  facet normal 0 0 1
    outer loop
      vertex 23.25 -4.79 3
      vertex -23.25 -4.79 3
      vertex 23.25 -4.8 3
    endloop
  endfacet
  facet normal 0 0 1
    outer loop
      vertex 72.05 -4 3
      vertex -23.25 -4.79 3
      vertex 23.25 -4.79 3
    endloop
  endfacet
  facet normal 0 0 1
    outer loop
      vertex 72.05 -4 3
      vertex -26.25 -4.79 3
      vertex -23.25 -4.79 3
    endloop
  endfacet
  facet normal -0 0 1
    outer loop
      vertex -72.05 -4 3
      vertex -26.25 -4.79 3
      vertex 72.05 -4 3
    endloop
  endfacet
  facet normal 0 0 1
    outer loop
      vertex -72.05 -4 3
      vertex -26.25 -4.8 3
      vertex -26.25 -4.79 3
    endloop
  endfacet
  facet normal 0 0 1
    outer loop
      vertex -72.05 -4 3
      vertex -74.25 -4.8 3
      vertex -26.25 -4.8 3
    endloop
  endfacet
  facet normal 0 0 1
    outer loop
      vertex -74.25 -4.8 3
      vertex -72.05 -4 3
      vertex -74.25 4.8 3
    endloop
  endfacet
  facet normal 0 0 1
    outer loop
      vertex 23.25 -4.8 3
      vertex -23.25 -4.79 3
      vertex -23.25 -4.8 3
    endloop
  endfacet
  facet normal 1 -0 0
    outer loop
      vertex 74.25 -4.8 3
      vertex 74.25 4.8 0
      vertex 74.25 4.8 3
    endloop
  endfacet
  facet normal 1 0 0
    outer loop
      vertex 74.25 4.8 0
      vertex 74.25 -4.8 3
      vertex 74.25 -4.8 0
    endloop
  endfacet
  facet normal 0 1 -0
    outer loop
      vertex 74.25 4.8 0
      vertex 67.65 4.8 3
      vertex 74.25 4.8 3
    endloop
  endfacet
  facet normal 0 1 0
    outer loop
      vertex 67.65 4.8 3
      vertex 74.25 4.8 0
      vertex 67.65 4.8 0
    endloop
  endfacet
  facet normal 0 1 -0
    outer loop
      vertex -67.65 4.8 0
      vertex -74.25 4.8 3
      vertex -67.65 4.8 3
    endloop
  endfacet
  facet normal 0 1 0
    outer loop
      vertex -74.25 4.8 3
      vertex -67.65 4.8 0
      vertex -74.25 4.8 0
    endloop
  endfacet
  facet normal 0 1 -0
    outer loop
      vertex 64.65 4.8 0
      vertex -64.65 4.8 3
      vertex 64.65 4.8 3
    endloop
  endfacet
  facet normal 0 1 0
    outer loop
      vertex -64.65 4.8 3
      vertex 64.65 4.8 0
      vertex -64.65 4.8 0
    endloop
  endfacet
  facet normal 0 0 -1
    outer loop
      vertex 23.25 -4.8 0
      vertex -23.25 -4.8 0
      vertex 23.25 -4.79 0
    endloop
  endfacet
  facet normal 0 0 -1
    outer loop
      vertex 72.05 4 0
      vertex 64.65 4.79 0
      vertex 67.65 4.79 0
    endloop
  endfacet
  facet normal 0 0 -1
    outer loop
      vertex 64.65 4.79 0
      vertex -64.65 4.79 0
      vertex 64.65 4.8 0
    endloop
  endfacet
  facet normal 0 0 -1
    outer loop
      vertex 72.05 4 0
      vertex -64.65 4.79 0
      vertex 64.65 4.79 0
    endloop
  endfacet
  facet normal 0 0 -1
    outer loop
      vertex -72.05 4 0
      vertex -64.65 4.79 0
      vertex 72.05 4 0
    endloop
  endfacet
  facet normal -0 0 -1
    outer loop
      vertex -64.65 4.79 0
      vertex -72.05 4 0
      vertex -67.65 4.79 0
    endloop
  endfacet
  facet normal 0 0 -1
    outer loop
      vertex -72.05 4 0
      vertex -67.65 4.8 0
      vertex -67.65 4.79 0
    endloop
  endfacet
  facet normal 0 0 -1
    outer loop
      vertex -72.05 4 0
      vertex -74.25 4.8 0
      vertex -67.65 4.8 0
    endloop
  endfacet
  facet normal 0 0 -1
    outer loop
      vertex -74.25 4.8 0
      vertex -72.05 4 0
      vertex -74.25 -4.8 0
    endloop
  endfacet
  facet normal 0 0 -1
    outer loop
      vertex 74.25 -4.8 0
      vertex 72.05 -4 0
      vertex 74.25 4.8 0
    endloop
  endfacet
  facet normal 0 0 -1
    outer loop
      vertex 26.25 -4.8 0
      vertex 72.05 -4 0
      vertex 74.25 -4.8 0
    endloop
  endfacet
  facet normal 0 0 -1
    outer loop
      vertex 26.25 -4.79 0
      vertex 72.05 -4 0
      vertex 26.25 -4.8 0
    endloop
  endfacet
  facet normal 0 0 -1
    outer loop
      vertex 23.25 -4.79 0
      vertex 72.05 -4 0
      vertex 26.25 -4.79 0
    endloop
  endfacet
  facet normal 0 0 -1
    outer loop
      vertex -23.25 -4.79 0
      vertex 23.25 -4.79 0
      vertex -23.25 -4.8 0
    endloop
  endfacet
  facet normal 0 0 -1
    outer loop
      vertex 23.25 -4.79 0
      vertex -23.25 -4.79 0
      vertex 72.05 -4 0
    endloop
  endfacet
  facet normal 0 0 -1
    outer loop
      vertex -26.25 -4.79 0
      vertex 72.05 -4 0
      vertex -23.25 -4.79 0
    endloop
  endfacet
  facet normal -0 0 -1
    outer loop
      vertex 72.05 -4 0
      vertex -26.25 -4.79 0
      vertex -72.05 -4 0
    endloop
  endfacet
  facet normal 0 0 -1
    outer loop
      vertex 72.05 4 0
      vertex 74.25 4.8 0
      vertex 72.05 -4 0
    endloop
  endfacet
  facet normal 0 0 -1
    outer loop
      vertex 67.65 4.8 0
      vertex 72.05 4 0
      vertex 67.65 4.79 0
    endloop
  endfacet
  facet normal 0 0 -1
    outer loop
      vertex 72.05 4 0
      vertex 67.65 4.8 0
      vertex 74.25 4.8 0
    endloop
  endfacet
  facet normal 0 0 -1
    outer loop
      vertex -26.25 -4.8 0
      vertex -72.05 -4 0
      vertex -26.25 -4.79 0
    endloop
  endfacet
  facet normal -0 0 -1
    outer loop
      vertex -72.05 -4 0
      vertex -74.25 -4.8 0
      vertex -72.05 4 0
    endloop
  endfacet
  facet normal 0 0 -1
    outer loop
      vertex -74.25 -4.8 0
      vertex -72.05 -4 0
      vertex -26.25 -4.8 0
    endloop
  endfacet
  facet normal -0 0 -1
    outer loop
      vertex 64.65 4.8 0
      vertex -64.65 4.79 0
      vertex -64.65 4.8 0
    endloop
  endfacet
  facet normal 0 -1 0
    outer loop
      vertex 26.25 -4.8 0
      vertex 74.25 -4.8 3
      vertex 26.25 -4.8 3
    endloop
  endfacet
  facet normal 0 -1 -0
    outer loop
      vertex 74.25 -4.8 3
      vertex 26.25 -4.8 0
      vertex 74.25 -4.8 0
    endloop
  endfacet
  facet normal 0 -1 0
    outer loop
      vertex -74.25 -4.8 0
      vertex -26.25 -4.8 3
      vertex -74.25 -4.8 3
    endloop
  endfacet
  facet normal 0 -1 -0
    outer loop
      vertex -26.25 -4.8 3
      vertex -74.25 -4.8 0
      vertex -26.25 -4.8 0
    endloop
  endfacet
  facet normal 0 -1 0
    outer loop
      vertex -23.25 -4.8 0
      vertex 23.25 -4.8 3
      vertex -23.25 -4.8 3
    endloop
  endfacet
  facet normal 0 -1 -0
    outer loop
      vertex 23.25 -4.8 3
      vertex -23.25 -4.8 0
      vertex 23.25 -4.8 0
    endloop
  endfacet
  facet normal 1 -0 0
    outer loop
      vertex -72.05 -4 3
      vertex -72.05 4 0
      vertex -72.05 4 3
    endloop
  endfacet
  facet normal 1 0 0
    outer loop
      vertex -72.05 4 0
      vertex -72.05 -4 3
      vertex -72.05 -4 0
    endloop
  endfacet
  facet normal -1 0 0
    outer loop
      vertex 72.05 -4 0
      vertex 72.05 4 3
      vertex 72.05 4 0
    endloop
  endfacet
  facet normal -1 -0 0
    outer loop
      vertex 72.05 4 3
      vertex 72.05 -4 0
      vertex 72.05 -4 3
    endloop
  endfacet
  facet normal 0 1 -0
    outer loop
      vertex 72.05 -4 0
      vertex -72.05 -4 3
      vertex 72.05 -4 3
    endloop
  endfacet
  facet normal 0 1 0
    outer loop
      vertex -72.05 -4 3
      vertex 72.05 -4 0
      vertex -72.05 -4 0
    endloop
  endfacet
  facet normal 0 -1 0
    outer loop
      vertex -72.05 4 0
      vertex 72.05 4 3
      vertex -72.05 4 3
    endloop
  endfacet
  facet normal 0 -1 -0
    outer loop
      vertex 72.05 4 3
      vertex -72.05 4 0
      vertex 72.05 4 0
    endloop
  endfacet
  facet normal -1 0 0
    outer loop
      vertex 64.65 5.53333 -0.00499916
      vertex 64.65 4.8 0
      vertex 64.65 5.53333 3.005
    endloop
  endfacet
  facet normal -1 0 0
    outer loop
      vertex 64.65 4.79 -0.00499916
      vertex 64.65 4.8 0
      vertex 64.65 5.53333 -0.00499916
    endloop
  endfacet
  facet normal -1 -0 0
    outer loop
      vertex 64.65 4.8 0
      vertex 64.65 4.79 -0.00499916
      vertex 64.65 4.79 0
    endloop
  endfacet
  facet normal -1 0 0
    outer loop
      vertex 64.65 4.8 3
      vertex 64.65 5.53333 3.005
      vertex 64.65 4.8 0
    endloop
  endfacet
  facet normal -1 0 0
    outer loop
      vertex 64.65 4.79 3.005
      vertex 64.65 4.8 3
      vertex 64.65 4.79 3
    endloop
  endfacet
  facet normal -1 0 0
    outer loop
      vertex 64.65 4.8 3
      vertex 64.65 4.79 3.005
      vertex 64.65 5.53333 3.005
    endloop
  endfacet
  facet normal -0 0 1
    outer loop
      vertex 64.65 5.53333 3.005
      vertex 67.65 4.79 3.005
      vertex 67.65 5.53333 3.005
    endloop
  endfacet
  facet normal 0 0 1
    outer loop
      vertex 67.65 4.79 3.005
      vertex 64.65 5.53333 3.005
      vertex 64.65 4.79 3.005
    endloop
  endfacet
  facet normal 1 0 0
    outer loop
      vertex 67.65 5.53333 3.005
      vertex 67.65 4.8 3
      vertex 67.65 5.53333 -0.00499916
    endloop
  endfacet
  facet normal 1 -0 0
    outer loop
      vertex 67.65 4.79 3.005
      vertex 67.65 4.8 3
      vertex 67.65 5.53333 3.005
    endloop
  endfacet
  facet normal 1 0 0
    outer loop
      vertex 67.65 4.8 3
      vertex 67.65 4.79 3.005
      vertex 67.65 4.79 3
    endloop
  endfacet
  facet normal 1 -0 0
    outer loop
      vertex 67.65 4.8 0
      vertex 67.65 5.53333 -0.00499916
      vertex 67.65 4.8 3
    endloop
  endfacet
  facet normal 1 0 0
    outer loop
      vertex 67.65 4.79 -0.00499916
      vertex 67.65 4.8 0
      vertex 67.65 4.79 0
    endloop
  endfacet
  facet normal 1 0 0
    outer loop
      vertex 67.65 4.8 0
      vertex 67.65 4.79 -0.00499916
      vertex 67.65 5.53333 -0.00499916
    endloop
  endfacet
  facet normal 0 1 -0
    outer loop
      vertex 67.65 5.53333 -0.00499916
      vertex 64.65 5.53333 3.005
      vertex 67.65 5.53333 3.005
    endloop
  endfacet
  facet normal 0 1 0
    outer loop
      vertex 64.65 5.53333 3.005
      vertex 67.65 5.53333 -0.00499916
      vertex 64.65 5.53333 -0.00499916
    endloop
  endfacet
  facet normal 0 0 -1
    outer loop
      vertex 64.65 4.79 -0.00499916
      vertex 67.65 5.53333 -0.00499916
      vertex 67.65 4.79 -0.00499916
    endloop
  endfacet
  facet normal -0 0 -1
    outer loop
      vertex 67.65 5.53333 -0.00499916
      vertex 64.65 4.79 -0.00499916
      vertex 64.65 5.53333 -0.00499916
    endloop
  endfacet
  facet normal 0 -1 0
    outer loop
      vertex 64.65 4.79 3
      vertex 67.65 4.79 3.005
      vertex 64.65 4.79 3.005
    endloop
  endfacet
  facet normal 0 -1 -0
    outer loop
      vertex 67.65 4.79 3.005
      vertex 64.65 4.79 3
      vertex 67.65 4.79 3
    endloop
  endfacet
  facet normal 0 -1 0
    outer loop
      vertex 64.65 4.79 -0.00499916
      vertex 67.65 4.79 0
      vertex 64.65 4.79 0
    endloop
  endfacet
  facet normal 0 -1 -0
    outer loop
      vertex 67.65 4.79 0
      vertex 64.65 4.79 -0.00499916
      vertex 67.65 4.79 -0.00499916
    endloop
  endfacet
  facet normal -1 0 0
    outer loop
      vertex -67.65 5.53333 -0.00499916
      vertex -67.65 4.8 0
      vertex -67.65 5.53333 3.005
    endloop
  endfacet
  facet normal -1 0 0
    outer loop
      vertex -67.65 4.79 -0.00499916
      vertex -67.65 4.8 0
      vertex -67.65 5.53333 -0.00499916
    endloop
  endfacet
  facet normal -1 -0 0
    outer loop
      vertex -67.65 4.8 0
      vertex -67.65 4.79 -0.00499916
      vertex -67.65 4.79 0
    endloop
  endfacet
  facet normal -1 0 0
    outer loop
      vertex -67.65 4.8 3
      vertex -67.65 5.53333 3.005
      vertex -67.65 4.8 0
    endloop
  endfacet
  facet normal -1 0 0
    outer loop
      vertex -67.65 4.79 3.005
      vertex -67.65 4.8 3
      vertex -67.65 4.79 3
    endloop
  endfacet
  facet normal -1 0 0
    outer loop
      vertex -67.65 4.8 3
      vertex -67.65 4.79 3.005
      vertex -67.65 5.53333 3.005
    endloop
  endfacet
  facet normal -0 0 1
    outer loop
      vertex -67.65 5.53333 3.005
      vertex -64.65 4.79 3.005
      vertex -64.65 5.53333 3.005
    endloop
  endfacet
  facet normal 0 0 1
    outer loop
      vertex -64.65 4.79 3.005
      vertex -67.65 5.53333 3.005
      vertex -67.65 4.79 3.005
    endloop
  endfacet
  facet normal 1 0 0
    outer loop
      vertex -64.65 5.53333 3.005
      vertex -64.65 4.8 3
      vertex -64.65 5.53333 -0.00499916
    endloop
  endfacet
  facet normal 1 -0 0
    outer loop
      vertex -64.65 4.79 3.005
      vertex -64.65 4.8 3
      vertex -64.65 5.53333 3.005
    endloop
  endfacet
  facet normal 1 0 0
    outer loop
      vertex -64.65 4.8 3
      vertex -64.65 4.79 3.005
      vertex -64.65 4.79 3
    endloop
  endfacet
  facet normal 1 -0 0
    outer loop
      vertex -64.65 4.8 0
      vertex -64.65 5.53333 -0.00499916
      vertex -64.65 4.8 3
    endloop
  endfacet
  facet normal 1 0 0
    outer loop
      vertex -64.65 4.79 -0.00499916
      vertex -64.65 4.8 0
      vertex -64.65 4.79 0
    endloop
  endfacet
  facet normal 1 0 0
    outer loop
      vertex -64.65 4.8 0
      vertex -64.65 4.79 -0.00499916
      vertex -64.65 5.53333 -0.00499916
    endloop
  endfacet
  facet normal 0 0 -1
    outer loop
      vertex -67.65 4.79 -0.00499916
      vertex -64.65 5.53333 -0.00499916
      vertex -64.65 4.79 -0.00499916
    endloop
  endfacet
  facet normal -0 0 -1
    outer loop
      vertex -64.65 5.53333 -0.00499916
      vertex -67.65 4.79 -0.00499916
      vertex -67.65 5.53333 -0.00499916
    endloop
  endfacet
  facet normal 0 -1 0
    outer loop
      vertex -67.65 4.79 3
      vertex -64.65 4.79 3.005
      vertex -67.65 4.79 3.005
    endloop
  endfacet
  facet normal 0 -1 -0
    outer loop
      vertex -64.65 4.79 3.005
      vertex -67.65 4.79 3
      vertex -64.65 4.79 3
    endloop
  endfacet
  facet normal 0 -1 0
    outer loop
      vertex -67.65 4.79 -0.00499916
      vertex -64.65 4.79 0
      vertex -67.65 4.79 0
    endloop
  endfacet
  facet normal 0 -1 -0
    outer loop
      vertex -64.65 4.79 0
      vertex -67.65 4.79 -0.00499916
      vertex -64.65 4.79 -0.00499916
    endloop
  endfacet
  facet normal 0 1 -0
    outer loop
      vertex -64.65 5.53333 -0.00499916
      vertex -67.65 5.53333 3.005
      vertex -64.65 5.53333 3.005
    endloop
  endfacet
  facet normal 0 1 0
    outer loop
      vertex -67.65 5.53333 3.005
      vertex -64.65 5.53333 -0.00499916
      vertex -67.65 5.53333 -0.00499916
    endloop
  endfacet
  facet normal -1 0 0
    outer loop
      vertex 23.25 -4.79 -0.00499916
      vertex 23.25 -4.8 0
      vertex 23.25 -4.79 0
    endloop
  endfacet
  facet normal -1 -0 0
    outer loop
      vertex 23.25 -4.8 0
      vertex 23.25 -5.53333 -0.00499916
      vertex 23.25 -4.8 3
    endloop
  endfacet
  facet normal -1 0 0
    outer loop
      vertex 23.25 -5.53333 -0.00499916
      vertex 23.25 -4.8 0
      vertex 23.25 -4.79 -0.00499916
    endloop
  endfacet
  facet normal -1 0 0
    outer loop
      vertex 23.25 -4.8 3
      vertex 23.25 -4.79 3.005
      vertex 23.25 -4.79 3
    endloop
  endfacet
  facet normal -1 0 0
    outer loop
      vertex 23.25 -4.8 3
      vertex 23.25 -5.53333 3.005
      vertex 23.25 -4.79 3.005
    endloop
  endfacet
  facet normal -1 0 0
    outer loop
      vertex 23.25 -5.53333 3.005
      vertex 23.25 -4.8 3
      vertex 23.25 -5.53333 -0.00499916
    endloop
  endfacet
  facet normal -0 0 1
    outer loop
      vertex 23.25 -4.79 3.005
      vertex 26.25 -5.53333 3.005
      vertex 26.25 -4.79 3.005
    endloop
  endfacet
  facet normal 0 0 1
    outer loop
      vertex 26.25 -5.53333 3.005
      vertex 23.25 -4.79 3.005
      vertex 23.25 -5.53333 3.005
    endloop
  endfacet
  facet normal 1 0 0
    outer loop
      vertex 26.25 -4.79 3.005
      vertex 26.25 -4.8 3
      vertex 26.25 -4.79 3
    endloop
  endfacet
  facet normal 1 0 0
    outer loop
      vertex 26.25 -4.8 3
      vertex 26.25 -5.53333 3.005
      vertex 26.25 -4.8 0
    endloop
  endfacet
  facet normal 1 -0 0
    outer loop
      vertex 26.25 -5.53333 3.005
      vertex 26.25 -4.8 3
      vertex 26.25 -4.79 3.005
    endloop
  endfacet
  facet normal 1 -0 0
    outer loop
      vertex 26.25 -4.8 0
      vertex 26.25 -4.79 -0.00499916
      vertex 26.25 -4.79 0
    endloop
  endfacet
  facet normal 1 0 0
    outer loop
      vertex 26.25 -4.8 0
      vertex 26.25 -5.53333 -0.00499916
      vertex 26.25 -4.79 -0.00499916
    endloop
  endfacet
  facet normal 1 0 0
    outer loop
      vertex 26.25 -5.53333 -0.00499916
      vertex 26.25 -4.8 0
      vertex 26.25 -5.53333 3.005
    endloop
  endfacet
  facet normal 0 0 -1
    outer loop
      vertex 23.25 -5.53333 -0.00499916
      vertex 26.25 -4.79 -0.00499916
      vertex 26.25 -5.53333 -0.00499916
    endloop
  endfacet
  facet normal -0 0 -1
    outer loop
      vertex 26.25 -4.79 -0.00499916
      vertex 23.25 -5.53333 -0.00499916
      vertex 23.25 -4.79 -0.00499916
    endloop
  endfacet
  facet normal 0 -1 0
    outer loop
      vertex 23.25 -5.53333 -0.00499916
      vertex 26.25 -5.53333 3.005
      vertex 23.25 -5.53333 3.005
    endloop
  endfacet
  facet normal 0 -1 -0
    outer loop
      vertex 26.25 -5.53333 3.005
      vertex 23.25 -5.53333 -0.00499916
      vertex 26.25 -5.53333 -0.00499916
    endloop
  endfacet
  facet normal 0 1 -0
    outer loop
      vertex 26.25 -4.79 -0.00499916
      vertex 23.25 -4.79 0
      vertex 26.25 -4.79 0
    endloop
  endfacet
  facet normal 0 1 0
    outer loop
      vertex 23.25 -4.79 0
      vertex 26.25 -4.79 -0.00499916
      vertex 23.25 -4.79 -0.00499916
    endloop
  endfacet
  facet normal 0 1 -0
    outer loop
      vertex 26.25 -4.79 3
      vertex 23.25 -4.79 3.005
      vertex 26.25 -4.79 3.005
    endloop
  endfacet
  facet normal 0 1 0
    outer loop
      vertex 23.25 -4.79 3.005
      vertex 26.25 -4.79 3
      vertex 23.25 -4.79 3
    endloop
  endfacet
  facet normal -1 0 0
    outer loop
      vertex -26.25 -4.79 -0.00499916
      vertex -26.25 -4.8 0
      vertex -26.25 -4.79 0
    endloop
  endfacet
  facet normal -1 -0 0
    outer loop
      vertex -26.25 -4.8 0
      vertex -26.25 -5.53333 -0.00499916
      vertex -26.25 -4.8 3
    endloop
  endfacet
  facet normal -1 0 0
    outer loop
      vertex -26.25 -5.53333 -0.00499916
      vertex -26.25 -4.8 0
      vertex -26.25 -4.79 -0.00499916
    endloop
  endfacet
  facet normal -1 0 0
    outer loop
      vertex -26.25 -4.8 3
      vertex -26.25 -4.79 3.005
      vertex -26.25 -4.79 3
    endloop
  endfacet
  facet normal -1 0 0
    outer loop
      vertex -26.25 -4.8 3
      vertex -26.25 -5.53333 3.005
      vertex -26.25 -4.79 3.005
    endloop
  endfacet
  facet normal -1 0 0
    outer loop
      vertex -26.25 -5.53333 3.005
      vertex -26.25 -4.8 3
      vertex -26.25 -5.53333 -0.00499916
    endloop
  endfacet
  facet normal -0 0 1
    outer loop
      vertex -26.25 -4.79 3.005
      vertex -23.25 -5.53333 3.005
      vertex -23.25 -4.79 3.005
    endloop
  endfacet
  facet normal 0 0 1
    outer loop
      vertex -23.25 -5.53333 3.005
      vertex -26.25 -4.79 3.005
      vertex -26.25 -5.53333 3.005
    endloop
  endfacet
  facet normal 1 0 0
    outer loop
      vertex -23.25 -4.79 3.005
      vertex -23.25 -4.8 3
      vertex -23.25 -4.79 3
    endloop
  endfacet
  facet normal 1 0 0
    outer loop
      vertex -23.25 -4.8 3
      vertex -23.25 -5.53333 3.005
      vertex -23.25 -4.8 0
    endloop
  endfacet
  facet normal 1 -0 0
    outer loop
      vertex -23.25 -5.53333 3.005
      vertex -23.25 -4.8 3
      vertex -23.25 -4.79 3.005
    endloop
  endfacet
  facet normal 1 -0 0
    outer loop
      vertex -23.25 -4.8 0
      vertex -23.25 -4.79 -0.00499916
      vertex -23.25 -4.79 0
    endloop
  endfacet
  facet normal 1 0 0
    outer loop
      vertex -23.25 -4.8 0
      vertex -23.25 -5.53333 -0.00499916
      vertex -23.25 -4.79 -0.00499916
    endloop
  endfacet
  facet normal 1 0 0
    outer loop
      vertex -23.25 -5.53333 -0.00499916
      vertex -23.25 -4.8 0
      vertex -23.25 -5.53333 3.005
    endloop
  endfacet
  facet normal 0 0 -1
    outer loop
      vertex -26.25 -5.53333 -0.00499916
      vertex -23.25 -4.79 -0.00499916
      vertex -23.25 -5.53333 -0.00499916
    endloop
  endfacet
  facet normal -0 0 -1
    outer loop
      vertex -23.25 -4.79 -0.00499916
      vertex -26.25 -5.53333 -0.00499916
      vertex -26.25 -4.79 -0.00499916
    endloop
  endfacet
  facet normal 0 -1 0
    outer loop
      vertex -26.25 -5.53333 -0.00499916
      vertex -23.25 -5.53333 3.005
      vertex -26.25 -5.53333 3.005
    endloop
  endfacet
  facet normal 0 -1 -0
    outer loop
      vertex -23.25 -5.53333 3.005
      vertex -26.25 -5.53333 -0.00499916
      vertex -23.25 -5.53333 -0.00499916
    endloop
  endfacet
  facet normal 0 1 -0
    outer loop
      vertex -23.25 -4.79 -0.00499916
      vertex -26.25 -4.79 0
      vertex -23.25 -4.79 0
    endloop
  endfacet
  facet normal 0 1 0
    outer loop
      vertex -26.25 -4.79 0
      vertex -23.25 -4.79 -0.00499916
      vertex -26.25 -4.79 -0.00499916
    endloop
  endfacet
  facet normal 0 1 -0
    outer loop
      vertex -23.25 -4.79 3
      vertex -26.25 -4.79 3.005
      vertex -23.25 -4.79 3.005
    endloop
  endfacet
  facet normal 0 1 0
    outer loop
      vertex -26.25 -4.79 3.005
      vertex -23.25 -4.79 3
      vertex -26.25 -4.79 3
    endloop
  endfacet
endsolid OpenSCAD_Model
