solid OpenSCAD_Model
  facet normal -1 0 0
    outer loop
      vertex -67.7 6.12333 0
      vertex -67.7 4.79 3
      vertex -67.7 6.12333 3.01
    endloop
  endfacet
  facet normal -1 0 0
    outer loop
      vertex -67.7 -4.8 0
      vertex -67.7 4.79 3
      vertex -67.7 6.12333 0
    endloop
  endfacet
  facet normal -1 -0 0
    outer loop
      vertex -67.7 4.79 3
      vertex -67.7 -4.8 0
      vertex -67.7 -4.8 3
    endloop
  endfacet
  facet normal -1 -0 0
    outer loop
      vertex -67.7 6.12333 3.01
      vertex -67.7 4.79 3
      vertex -67.7 4.79 3.01
    endloop
  endfacet
  facet normal 0 0 1
    outer loop
      vertex 64.7 4.8 3
      vertex -64.7 4.8 3
      vertex 64.7 4.79 3
    endloop
  endfacet
  facet normal 0 0 1
    outer loop
      vertex 67.7 4.79 3
      vertex 65.5 4 3
      vertex 67.7 -4.8 3
    endloop
  endfacet
  facet normal -0 0 1
    outer loop
      vertex 64.7 4.79 3
      vertex 65.5 4 3
      vertex 67.7 4.79 3
    endloop
  endfacet
  facet normal 0 0 1
    outer loop
      vertex -64.7 4.79 3
      vertex 64.7 4.79 3
      vertex -64.7 4.8 3
    endloop
  endfacet
  facet normal 0 0 1
    outer loop
      vertex 64.7 4.79 3
      vertex -64.7 4.79 3
      vertex 65.5 4 3
    endloop
  endfacet
  facet normal 0 0 1
    outer loop
      vertex -64.7 4.79 3
      vertex -65.5 4 3
      vertex 65.5 4 3
    endloop
  endfacet
  facet normal 0 0 1
    outer loop
      vertex -65.5 4 3
      vertex -67.7 4.79 3
      vertex -65.5 -4 3
    endloop
  endfacet
  facet normal -0 0 1
    outer loop
      vertex -67.7 4.79 3
      vertex -65.5 4 3
      vertex -64.7 4.79 3
    endloop
  endfacet
  facet normal -0 0 1
    outer loop
      vertex 65.5 -4 3
      vertex 67.7 -4.8 3
      vertex 65.5 4 3
    endloop
  endfacet
  facet normal -0 0 1
    outer loop
      vertex -65.5 -4 3
      vertex 67.7 -4.8 3
      vertex 65.5 -4 3
    endloop
  endfacet
  facet normal 0 0 1
    outer loop
      vertex -65.5 -4 3
      vertex -67.7 -4.8 3
      vertex 67.7 -4.8 3
    endloop
  endfacet
  facet normal 0 0 1
    outer loop
      vertex -67.7 -4.8 3
      vertex -65.5 -4 3
      vertex -67.7 4.79 3
    endloop
  endfacet
  facet normal 1 0 0
    outer loop
      vertex 67.7 4.79 3
      vertex 67.7 6.12333 3.01
      vertex 67.7 4.79 3.01
    endloop
  endfacet
  facet normal 1 0 0
    outer loop
      vertex 67.7 6.12333 3.01
      vertex 67.7 4.79 3
      vertex 67.7 6.12333 0
    endloop
  endfacet
  facet normal 1 0 0
    outer loop
      vertex 67.7 -4.8 0
      vertex 67.7 4.79 3
      vertex 67.7 -4.8 3
    endloop
  endfacet
  facet normal 1 0 0
    outer loop
      vertex 67.7 4.79 3
      vertex 67.7 -4.8 0
      vertex 67.7 6.12333 0
    endloop
  endfacet
  facet normal 0 0 -1
    outer loop
      vertex 65.5 4 0
      vertex -64.7 4.8 0
      vertex 64.7 4.8 0
    endloop
  endfacet
  facet normal 0 0 -1
    outer loop
      vertex -65.5 4 0
      vertex -64.7 4.8 0
      vertex 65.5 4 0
    endloop
  endfacet
  facet normal 0 0 -1
    outer loop
      vertex -65.5 4 0
      vertex -64.7 6.12333 0
      vertex -64.7 4.8 0
    endloop
  endfacet
  facet normal 0 0 -1
    outer loop
      vertex -65.5 4 0
      vertex -67.7 6.12333 0
      vertex -64.7 6.12333 0
    endloop
  endfacet
  facet normal 0 0 -1
    outer loop
      vertex -67.7 6.12333 0
      vertex -65.5 4 0
      vertex -67.7 -4.8 0
    endloop
  endfacet
  facet normal 0 0 -1
    outer loop
      vertex 65.5 4 0
      vertex 67.7 -4.8 0
      vertex 65.5 -4 0
    endloop
  endfacet
  facet normal 0 0 -1
    outer loop
      vertex 67.7 -4.8 0
      vertex -65.5 -4 0
      vertex 65.5 -4 0
    endloop
  endfacet
  facet normal -0 0 -1
    outer loop
      vertex -65.5 -4 0
      vertex -67.7 -4.8 0
      vertex -65.5 4 0
    endloop
  endfacet
  facet normal 0 0 -1
    outer loop
      vertex -67.7 -4.8 0
      vertex -65.5 -4 0
      vertex 67.7 -4.8 0
    endloop
  endfacet
  facet normal 0 0 -1
    outer loop
      vertex 67.7 -4.8 0
      vertex 65.5 4 0
      vertex 67.7 6.12333 0
    endloop
  endfacet
  facet normal 0 0 -1
    outer loop
      vertex 64.7 6.12333 0
      vertex 65.5 4 0
      vertex 64.7 4.8 0
    endloop
  endfacet
  facet normal 0 0 -1
    outer loop
      vertex 65.5 4 0
      vertex 64.7 6.12333 0
      vertex 67.7 6.12333 0
    endloop
  endfacet
  facet normal 0 -1 0
    outer loop
      vertex -67.7 -4.8 0
      vertex 67.7 -4.8 3
      vertex -67.7 -4.8 3
    endloop
  endfacet
  facet normal 0 -1 -0
    outer loop
      vertex 67.7 -4.8 3
      vertex -67.7 -4.8 0
      vertex 67.7 -4.8 0
    endloop
  endfacet
  facet normal 0 1 -0
    outer loop
      vertex 64.7 4.8 0
      vertex -64.7 4.8 3
      vertex 64.7 4.8 3
    endloop
  endfacet
  facet normal 0 1 0
    outer loop
      vertex -64.7 4.8 3
      vertex 64.7 4.8 0
      vertex -64.7 4.8 0
    endloop
  endfacet
  facet normal 1 -0 0
    outer loop
      vertex -65.5 -4 3
      vertex -65.5 4 0
      vertex -65.5 4 3
    endloop
  endfacet
  facet normal 1 0 0
    outer loop
      vertex -65.5 4 0
      vertex -65.5 -4 3
      vertex -65.5 -4 0
    endloop
  endfacet
  facet normal -1 0 0
    outer loop
      vertex 65.5 -4 0
      vertex 65.5 4 3
      vertex 65.5 4 0
    endloop
  endfacet
  facet normal -1 -0 0
    outer loop
      vertex 65.5 4 3
      vertex 65.5 -4 0
      vertex 65.5 -4 3
    endloop
  endfacet
  facet normal 0 -1 0
    outer loop
      vertex -65.5 4 0
      vertex 65.5 4 3
      vertex -65.5 4 3
    endloop
  endfacet
  facet normal 0 -1 -0
    outer loop
      vertex 65.5 4 3
      vertex -65.5 4 0
      vertex 65.5 4 0
    endloop
  endfacet
  facet normal 0 1 -0
    outer loop
      vertex 65.5 -4 0
      vertex -65.5 -4 3
      vertex 65.5 -4 3
    endloop
  endfacet
  facet normal 0 1 0
    outer loop
      vertex -65.5 -4 3
      vertex 65.5 -4 0
      vertex -65.5 -4 0
    endloop
  endfacet
  facet normal -1 0 0
    outer loop
      vertex 64.7 4.8 0
      vertex 64.7 6.12333 3.01
      vertex 64.7 6.12333 0
    endloop
  endfacet
  facet normal -1 0 0
    outer loop
      vertex 64.7 4.8 3
      vertex 64.7 6.12333 3.01
      vertex 64.7 4.8 0
    endloop
  endfacet
  facet normal -1 0 0
    outer loop
      vertex 64.7 4.79 3.01
      vertex 64.7 4.8 3
      vertex 64.7 4.79 3
    endloop
  endfacet
  facet normal -1 0 0
    outer loop
      vertex 64.7 4.8 3
      vertex 64.7 4.79 3.01
      vertex 64.7 6.12333 3.01
    endloop
  endfacet
  facet normal -0 0 1
    outer loop
      vertex 64.7 6.12333 3.01
      vertex 67.7 4.79 3.01
      vertex 67.7 6.12333 3.01
    endloop
  endfacet
  facet normal 0 0 1
    outer loop
      vertex 67.7 4.79 3.01
      vertex 64.7 6.12333 3.01
      vertex 64.7 4.79 3.01
    endloop
  endfacet
  facet normal 0 1 -0
    outer loop
      vertex 67.7 6.12333 0
      vertex 64.7 6.12333 3.01
      vertex 67.7 6.12333 3.01
    endloop
  endfacet
  facet normal 0 1 0
    outer loop
      vertex 64.7 6.12333 3.01
      vertex 67.7 6.12333 0
      vertex 64.7 6.12333 0
    endloop
  endfacet
  facet normal 0 -1 0
    outer loop
      vertex 64.7 4.79 3
      vertex 67.7 4.79 3.01
      vertex 64.7 4.79 3.01
    endloop
  endfacet
  facet normal 0 -1 -0
    outer loop
      vertex 67.7 4.79 3.01
      vertex 64.7 4.79 3
      vertex 67.7 4.79 3
    endloop
  endfacet
  facet normal -0 0 1
    outer loop
      vertex -67.7 6.12333 3.01
      vertex -64.7 4.79 3.01
      vertex -64.7 6.12333 3.01
    endloop
  endfacet
  facet normal 0 0 1
    outer loop
      vertex -64.7 4.79 3.01
      vertex -67.7 6.12333 3.01
      vertex -67.7 4.79 3.01
    endloop
  endfacet
  facet normal 1 0 0
    outer loop
      vertex -64.7 6.12333 3.01
      vertex -64.7 4.8 3
      vertex -64.7 6.12333 0
    endloop
  endfacet
  facet normal 1 -0 0
    outer loop
      vertex -64.7 4.79 3.01
      vertex -64.7 4.8 3
      vertex -64.7 6.12333 3.01
    endloop
  endfacet
  facet normal 1 0 0
    outer loop
      vertex -64.7 4.8 3
      vertex -64.7 4.79 3.01
      vertex -64.7 4.79 3
    endloop
  endfacet
  facet normal 1 0 0
    outer loop
      vertex -64.7 6.12333 0
      vertex -64.7 4.8 3
      vertex -64.7 4.8 0
    endloop
  endfacet
  facet normal 0 1 -0
    outer loop
      vertex -64.7 6.12333 0
      vertex -67.7 6.12333 3.01
      vertex -64.7 6.12333 3.01
    endloop
  endfacet
  facet normal 0 1 0
    outer loop
      vertex -67.7 6.12333 3.01
      vertex -64.7 6.12333 0
      vertex -67.7 6.12333 0
    endloop
  endfacet
  facet normal 0 -1 0
    outer loop
      vertex -67.7 4.79 3
      vertex -64.7 4.79 3.01
      vertex -67.7 4.79 3.01
    endloop
  endfacet
  facet normal 0 -1 -0
    outer loop
      vertex -64.7 4.79 3.01
      vertex -67.7 4.79 3
      vertex -64.7 4.79 3
    endloop
  endfacet
endsolid OpenSCAD_Model
