solid OpenSCAD_Model
  facet normal 1 -0 0
    outer loop
      vertex -72.45 -4.2 0.999999
      vertex -72.45 4.2 0
      vertex -72.45 4.2 0.999999
    endloop
  endfacet
  facet normal 1 0 0
    outer loop
      vertex -72.45 4.2 0
      vertex -72.45 -4.2 0.999999
      vertex -72.45 -4.2 0
    endloop
  endfacet
  facet normal -1 0 0
    outer loop
      vertex 72.45 -4.2 0
      vertex 72.45 4.2 0.999999
      vertex 72.45 4.2 0
    endloop
  endfacet
  facet normal -1 -0 0
    outer loop
      vertex 72.45 4.2 0.999999
      vertex 72.45 -4.2 0
      vertex 72.45 -4.2 0.999999
    endloop
  endfacet
  facet normal 0 -1 0
    outer loop
      vertex -72.45 4.2 0
      vertex 72.45 4.2 0.999999
      vertex -72.45 4.2 0.999999
    endloop
  endfacet
  facet normal 0 -1 -0
    outer loop
      vertex 72.45 4.2 0.999999
      vertex -72.45 4.2 0
      vertex 72.45 4.2 0
    endloop
  endfacet
  facet normal 0 1 -0
    outer loop
      vertex 72.45 -4.2 0
      vertex -72.45 -4.2 0.999999
      vertex 72.45 -4.2 0.999999
    endloop
  endfacet
  facet normal 0 1 0
    outer loop
      vertex -72.45 -4.2 0.999999
      vertex 72.45 -4.2 0
      vertex -72.45 -4.2 0
    endloop
  endfacet
  facet normal 0 0 1
    outer loop
      vertex 76.25 5.2 0.999999
      vertex 72.45 4.2 0.999999
      vertex 76.25 -5.2 0.999999
    endloop
  endfacet
  facet normal 0 0 1
    outer loop
      vertex 76.25 5.2 0.999999
      vertex -72.45 4.2 0.999999
      vertex 72.45 4.2 0.999999
    endloop
  endfacet
  facet normal 0 0 1
    outer loop
      vertex -72.45 4.2 0.999999
      vertex -76.25 5.2 0.999999
      vertex -72.45 -4.2 0.999999
    endloop
  endfacet
  facet normal -0 0 1
    outer loop
      vertex -76.25 5.2 0.999999
      vertex -72.45 4.2 0.999999
      vertex 76.25 5.2 0.999999
    endloop
  endfacet
  facet normal -0 0 1
    outer loop
      vertex 72.45 -4.2 0.999999
      vertex 76.25 -5.2 0.999999
      vertex 72.45 4.2 0.999999
    endloop
  endfacet
  facet normal -0 0 1
    outer loop
      vertex -72.45 -4.2 0.999999
      vertex 76.25 -5.2 0.999999
      vertex 72.45 -4.2 0.999999
    endloop
  endfacet
  facet normal 0 0 1
    outer loop
      vertex -72.45 -4.2 0.999999
      vertex -76.25 -5.2 0.999999
      vertex 76.25 -5.2 0.999999
    endloop
  endfacet
  facet normal 0 0 1
    outer loop
      vertex -76.25 -5.2 0.999999
      vertex -72.45 -4.2 0.999999
      vertex -76.25 5.2 0.999999
    endloop
  endfacet
  facet normal 0 1 -0
    outer loop
      vertex 76.25 -5.2 0.999999
      vertex -76.25 -5.2 4
      vertex 76.25 -5.2 4
    endloop
  endfacet
  facet normal 0 1 0
    outer loop
      vertex -76.25 -5.2 4
      vertex 76.25 -5.2 0.999999
      vertex -76.25 -5.2 0.999999
    endloop
  endfacet
  facet normal 0 -1 0
    outer loop
      vertex -76.25 5.2 0.999999
      vertex -70.85 5.2 1
      vertex -76.25 5.2 1
    endloop
  endfacet
  facet normal 0 -1 -0
    outer loop
      vertex -70.85 5.2 1
      vertex -76.25 5.2 0.999999
      vertex 70.85 5.2 1
    endloop
  endfacet
  facet normal 0 -1 0
    outer loop
      vertex 76.25 5.2 0.999999
      vertex 70.85 5.2 1
      vertex -76.25 5.2 0.999999
    endloop
  endfacet
  facet normal 0 -1 0
    outer loop
      vertex 70.85 5.2 1
      vertex 76.25 5.2 0.999999
      vertex 76.25 5.2 1
    endloop
  endfacet
  facet normal 0 -1 0
    outer loop
      vertex -70.85 5.2 1
      vertex 70.85 5.2 4
      vertex -70.85 5.2 4
    endloop
  endfacet
  facet normal 0 -1 -0
    outer loop
      vertex 70.85 5.2 4
      vertex -70.85 5.2 1
      vertex 70.85 5.2 1
    endloop
  endfacet
  facet normal 1 -0 0
    outer loop
      vertex 70.85 5.2 4
      vertex 70.85 12.1 1
      vertex 70.85 12.1 4
    endloop
  endfacet
  facet normal 1 0 0
    outer loop
      vertex 70.85 12.1 1
      vertex 70.85 5.2 4
      vertex 70.85 5.2 1
    endloop
  endfacet
  facet normal -0 0 1
    outer loop
      vertex 70.85 12.1 1
      vertex 76.25 5.2 1
      vertex 76.25 12.1 1
    endloop
  endfacet
  facet normal 0 0 1
    outer loop
      vertex 76.25 5.2 1
      vertex 70.85 12.1 1
      vertex 70.85 5.2 1
    endloop
  endfacet
  facet normal -1 0 0
    outer loop
      vertex -70.85 5.2 1
      vertex -70.85 12.1 4
      vertex -70.85 12.1 1
    endloop
  endfacet
  facet normal -1 -0 0
    outer loop
      vertex -70.85 12.1 4
      vertex -70.85 5.2 1
      vertex -70.85 5.2 4
    endloop
  endfacet
  facet normal -0 0 1
    outer loop
      vertex -76.25 12.1 1
      vertex -70.85 5.2 1
      vertex -70.85 12.1 1
    endloop
  endfacet
  facet normal 0 0 1
    outer loop
      vertex -70.85 5.2 1
      vertex -76.25 12.1 1
      vertex -76.25 5.2 1
    endloop
  endfacet
  facet normal -1 0 0
    outer loop
      vertex -76.25 12.1 0
      vertex -76.25 5.2 0.999999
      vertex -76.25 12.1 1
    endloop
  endfacet
  facet normal -1 0 0
    outer loop
      vertex -76.25 12.1 0
      vertex -76.25 -5.2 0.999999
      vertex -76.25 5.2 0.999999
    endloop
  endfacet
  facet normal -1 0 0
    outer loop
      vertex -76.25 -12.1 0
      vertex -76.25 -5.2 0.999999
      vertex -76.25 12.1 0
    endloop
  endfacet
  facet normal -1 0 0
    outer loop
      vertex -76.25 -12.1 4
      vertex -76.25 -5.2 0.999999
      vertex -76.25 -12.1 0
    endloop
  endfacet
  facet normal -1 0 0
    outer loop
      vertex -76.25 -5.2 0.999999
      vertex -76.25 -12.1 4
      vertex -76.25 -5.2 4
    endloop
  endfacet
  facet normal -1 -0 0
    outer loop
      vertex -76.25 12.1 1
      vertex -76.25 5.2 0.999999
      vertex -76.25 5.2 1
    endloop
  endfacet
  facet normal -0 0 1
    outer loop
      vertex -76.25 -5.2 4
      vertex 76.25 -12.1 4
      vertex 76.25 -5.2 4
    endloop
  endfacet
  facet normal 0 0 1
    outer loop
      vertex 76.25 -12.1 4
      vertex -76.25 -5.2 4
      vertex -76.25 -12.1 4
    endloop
  endfacet
  facet normal -0 0 1
    outer loop
      vertex -70.85 12.1 4
      vertex 70.85 5.2 4
      vertex 70.85 12.1 4
    endloop
  endfacet
  facet normal 0 0 1
    outer loop
      vertex 70.85 5.2 4
      vertex -70.85 12.1 4
      vertex -70.85 5.2 4
    endloop
  endfacet
  facet normal 1 0 0
    outer loop
      vertex 76.25 -5.2 4
      vertex 76.25 -12.1 4
      vertex 76.25 -5.2 0.999999
    endloop
  endfacet
  facet normal 1 0 0
    outer loop
      vertex 76.25 5.2 0.999999
      vertex 76.25 12.1 1
      vertex 76.25 5.2 1
    endloop
  endfacet
  facet normal 1 0 0
    outer loop
      vertex 76.25 12.1 1
      vertex 76.25 5.2 0.999999
      vertex 76.25 12.1 0
    endloop
  endfacet
  facet normal 1 -0 0
    outer loop
      vertex 76.25 -5.2 0.999999
      vertex 76.25 12.1 0
      vertex 76.25 5.2 0.999999
    endloop
  endfacet
  facet normal 1 0 0
    outer loop
      vertex 76.25 -5.2 0.999999
      vertex 76.25 -12.1 0
      vertex 76.25 12.1 0
    endloop
  endfacet
  facet normal 1 0 0
    outer loop
      vertex 76.25 -12.1 0
      vertex 76.25 -5.2 0.999999
      vertex 76.25 -12.1 4
    endloop
  endfacet
  facet normal 0 0 -1
    outer loop
      vertex 76.25 -12.1 0
      vertex 72.45 -4.2 0
      vertex 76.25 12.1 0
    endloop
  endfacet
  facet normal 0 0 -1
    outer loop
      vertex 76.25 -12.1 0
      vertex -72.45 -4.2 0
      vertex 72.45 -4.2 0
    endloop
  endfacet
  facet normal -0 0 -1
    outer loop
      vertex -72.45 -4.2 0
      vertex -76.25 -12.1 0
      vertex -72.45 4.2 0
    endloop
  endfacet
  facet normal 0 0 -1
    outer loop
      vertex -76.25 -12.1 0
      vertex -72.45 -4.2 0
      vertex 76.25 -12.1 0
    endloop
  endfacet
  facet normal 0 0 -1
    outer loop
      vertex 72.45 4.2 0
      vertex 76.25 12.1 0
      vertex 72.45 -4.2 0
    endloop
  endfacet
  facet normal 0 0 -1
    outer loop
      vertex -72.45 4.2 0
      vertex 76.25 12.1 0
      vertex 72.45 4.2 0
    endloop
  endfacet
  facet normal 0 0 -1
    outer loop
      vertex -72.45 4.2 0
      vertex -76.25 12.1 0
      vertex 76.25 12.1 0
    endloop
  endfacet
  facet normal 0 0 -1
    outer loop
      vertex -76.25 12.1 0
      vertex -72.45 4.2 0
      vertex -76.25 -12.1 0
    endloop
  endfacet
  facet normal 0 -1 0
    outer loop
      vertex -76.25 -12.1 0
      vertex 76.25 -12.1 4
      vertex -76.25 -12.1 4
    endloop
  endfacet
  facet normal 0 -1 -0
    outer loop
      vertex 76.25 -12.1 4
      vertex -76.25 -12.1 0
      vertex 76.25 -12.1 0
    endloop
  endfacet
  facet normal 0 1 -0
    outer loop
      vertex 76.25 12.1 0
      vertex 70.85 12.1 1
      vertex 76.25 12.1 1
    endloop
  endfacet
  facet normal 0 1 0
    outer loop
      vertex 70.85 12.1 1
      vertex 76.25 12.1 0
      vertex -70.85 12.1 1
    endloop
  endfacet
  facet normal 0 1 0
    outer loop
      vertex -76.25 12.1 0
      vertex -70.85 12.1 1
      vertex 76.25 12.1 0
    endloop
  endfacet
  facet normal 0 1 0
    outer loop
      vertex -70.85 12.1 1
      vertex -76.25 12.1 0
      vertex -76.25 12.1 1
    endloop
  endfacet
  facet normal 0 1 -0
    outer loop
      vertex 70.85 12.1 1
      vertex -70.85 12.1 4
      vertex 70.85 12.1 4
    endloop
  endfacet
  facet normal 0 1 0
    outer loop
      vertex -70.85 12.1 4
      vertex 70.85 12.1 1
      vertex -70.85 12.1 1
    endloop
  endfacet
endsolid OpenSCAD_Model
