<?xml version="1.0" encoding="UTF-8" standalone="no"?>
<!-- Created with Inkscape (http://www.inkscape.org/) -->

<svg
   xmlns:dc="http://purl.org/dc/elements/1.1/"
   xmlns:cc="http://creativecommons.org/ns#"
   xmlns:rdf="http://www.w3.org/1999/02/22-rdf-syntax-ns#"
   xmlns:svg="http://www.w3.org/2000/svg"
   xmlns="http://www.w3.org/2000/svg"
   xmlns:sodipodi="http://sodipodi.sourceforge.net/DTD/sodipodi-0.dtd"
   xmlns:inkscape="http://www.inkscape.org/namespaces/inkscape"
   width="210mm"
   height="297mm"
   viewBox="0 0 210 297"
   version="1.1"
   id="svg8"
   inkscape:version="0.92+devel unknown"
   sodipodi:docname="Rudolf Kochs Antwort, Version für Bodenplatte.svg">
  <defs
     id="defs2" />
  <sodipodi:namedview
     id="base"
     pagecolor="#ffffff"
     bordercolor="#666666"
     borderopacity="1.0"
     inkscape:pageopacity="0.0"
     inkscape:pageshadow="2"
     inkscape:zoom="2"
     inkscape:cx="408.99031"
     inkscape:cy="936.55682"
     inkscape:document-units="mm"
     inkscape:current-layer="layer1"
     inkscape:document-rotation="0"
     showgrid="false"
     inkscape:window-width="1920"
     inkscape:window-height="1178"
     inkscape:window-x="0"
     inkscape:window-y="0"
     inkscape:window-maximized="1" />
  <metadata
     id="metadata5">
    <rdf:RDF>
      <cc:Work
         rdf:about="">
        <dc:format>image/svg+xml</dc:format>
        <dc:type
           rdf:resource="http://purl.org/dc/dcmitype/StillImage" />
        <dc:title></dc:title>
      </cc:Work>
    </rdf:RDF>
  </metadata>
  <g
     inkscape:label="Ebene 1"
     inkscape:groupmode="layer"
     id="layer1">
    <path
       style="fill:#000000;stroke-width:0.08466667"
       d="m 151.72275,105.94069 c -0.12127,-0.12127 -0.0512,-0.89917 0.10204,-1.13306 0.22512,-0.85814 0.15884,-1.83202 0.23648,-2.67233 0.0154,-0.16298 0.0522,-0.37253 0.082,-0.46566 0.047,-0.14727 0.24978,-2.574649 0.244,-2.921003 -0.001,-0.06985 -0.004,-0.7747 -0.006,-1.566333 -0.005,-1.820546 -0.003,-1.717201 -0.0437,-2.116667 -0.0189,-0.186267 -0.0584,-1.176867 -0.0878,-2.201334 -0.0891,-3.103115 -0.1759,-4.051328 -0.43185,-4.718329 -0.0265,-0.06912 -0.0798,-0.464518 -0.11831,-0.878669 -0.0608,-0.652909 -0.24888,-1.571339 -0.40567,-1.980669 -0.0267,-0.06985 -0.0407,-0.209086 -0.031,-0.309413 0.01,-0.100328 -0.0228,-0.207351 -0.0721,-0.237831 -0.0493,-0.03048 -0.0897,-0.129783 -0.0897,-0.220676 0,-0.09089 -0.0735,-0.326768 -0.16344,-0.52417 -0.0899,-0.1974 -0.20846,-0.58751 -0.26347,-0.86691 -0.16645,-0.845175 -0.39179,-0.963897 -0.85666,-0.451329 -0.0773,0.08525 -0.17652,0.154996 -0.22047,0.154996 -0.0439,0 -0.18267,0.09525 -0.30829,0.211666 -0.12561,0.116417 -0.25501,0.212784 -0.28753,0.214148 -0.47981,0.02014 -0.77687,0.841354 -0.82603,2.283519 -0.0183,0.535517 -0.0789,1.130806 -0.13464,1.322864 l -0.10144,0.349196 0.94598,0.945486 c 0.62913,0.628791 0.94642,1.008117 0.94729,1.132471 0.002,0.315348 0.11025,0.417236 0.2974,0.280391 0.14664,-0.107224 0.19404,-0.0845 0.50856,0.24376 0.19077,0.199102 0.46818,0.424744 0.61646,0.501426 0.30079,0.155544 0.34668,0.374156 0.12145,0.57862 -0.83595,0.758881 -2.32181,2.201 -2.72707,2.646787 -0.0847,0.09313 -0.21143,0.283726 -0.28168,0.423536 -0.29683,0.590626 -0.74867,0.65532 -0.86539,0.123893 -0.0601,-0.273499 -0.45258,-1.190312 -0.54247,-1.267096 -0.0273,-0.02328 -0.17741,-0.309033 -0.33367,-0.635 -0.67628,-1.410754 -0.72463,-1.44249 -1.33071,-0.873571 -0.93302,0.731771 -1.69667,1.641766 -2.57278,2.414428 -0.18439,0.161629 -0.3591,0.369011 -0.38825,0.460858 -0.12047,0.379577 -0.88517,0.330843 -0.88517,-0.05641 -1.14195,-1.234583 -2.60738,-2.388359 -4.03684,-3.117705 -0.24118,-0.121758 -0.46385,-0.262378 -0.49483,-0.31249 -0.10225,-0.165448 -0.10958,-0.545115 -0.0128,-0.663344 0.079,-0.09649 0.12945,-1.049719 0.15299,-2.889429 0.009,-0.731932 -0.14122,-3.267095 -0.20618,-3.471334 -0.0222,-0.06985 -0.1079,-0.45085 -0.1904,-0.846666 -0.0825,-0.395817 -0.17628,-0.750204 -0.20839,-0.787527 -0.12576,-0.146147 0.0285,-0.502137 0.25961,-0.599335 0.12943,-0.05442 0.43855,-0.276016 0.68692,-0.492435 0.24838,-0.216418 0.62305,-0.530126 0.8326,-0.697128 0.74729,-0.595565 1.14103,-0.943444 1.56389,-1.381742 0.23586,-0.244475 0.47577,-0.4445 0.53314,-0.4445 0.0574,0 0.1043,-0.05125 0.1043,-0.113878 0,-0.397398 0.47912,-0.479571 0.80612,-0.138256 0.13482,0.140727 0.43723,0.369337 0.67201,0.508021 0.61466,0.363081 0.73074,0.438153 1.06154,0.686534 0.16316,0.122515 0.50621,0.336114 0.76233,0.474665 0.25612,0.13855 0.61386,0.352636 0.79498,0.475745 0.50541,0.343525 0.62254,0.305756 0.68438,-0.220665 0.0544,-0.463024 0.003,-3.864492 -0.0662,-4.3815 -0.0218,-0.162983 -0.068,-0.785247 -0.10267,-1.382808 -0.0715,-1.232476 -0.10283,-1.280317 -0.62362,-0.951561 -0.18967,0.119736 -0.36669,0.217702 -0.39337,0.217702 -1.3014,0.84369 -2.49783,2.069034 -3.42619,3.175 -0.0931,0.08428 -0.16933,0.188858 -0.16933,0.232384 0,0.337612 -0.61795,0.487292 -0.80886,0.195924 -0.41207,-0.656294 -1.05158,-1.170112 -1.45972,-1.719474 -1.04478,-1.414924 -1.10372,-1.352125 -1.25161,1.3335 -0.0262,0.475379 -0.0939,1.246732 -0.15612,1.778 -0.1216,1.038279 -0.23563,1.837872 -0.27771,1.947333 -0.0268,0.06985 -0.0562,0.18415 -0.0653,0.254 -0.009,0.06985 -0.044,0.211554 -0.0778,0.314899 -0.0807,0.24717 -0.2045,1.251282 -0.25866,2.098102 -0.0238,0.372533 -0.0701,0.810683 -0.10288,0.973666 -0.0327,0.162984 -0.0495,0.454885 -0.0371,0.64867 0.0123,0.193784 -0.017,0.425877 -0.0651,0.51576 -0.5941,4.64858 -1.31357,10.076552 -1.4845,14.475003 -0.0526,1.577234 -0.14961,1.881644 -0.60096,1.885374 -1.67154,0.78221 -3.35053,2.05887 -4.52964,3.47115 -0.1905,0.15124 -0.0655,0.15015 -0.1905,0.15124 -0.10478,9.3e-4 -0.2286,0.0102 -0.27517,0.0206 -0.32529,0.0727 -0.47924,0.0897 -0.29056,-0.38569 1.52206,-5.003281 2.43574,-11.159719 2.91103,-15.786763 0.39762,-2.664332 0.57847,-5.24317 0.75933,-7.958667 0.11406,-1.700624 0.10912,-3.475104 -0.0102,-3.668204 -0.0666,-0.107683 -0.11542,-0.792574 -0.23214,-3.253248 -0.22728,-1.08878 -0.19721,-2.363577 -0.62397,-3.410362 -0.0858,-0.40647 -0.14835,-0.887598 0.49198,-1.110819 0.15889,-0.05539 0.41974,-0.189506 0.57968,-0.298038 0.87412,-0.655499 2.10914,-1.095422 2.79792,-1.890833 0.34548,-0.407323 0.54802,-0.426195 0.94376,-0.08794 1.84097,1.600539 5.55345,2.603427 7.29825,4.061425 0.0809,0.07316 0.22563,0.20829 0.32159,0.300296 0.17403,0.166866 0.17555,0.166681 0.60305,-0.07363 1.58911,-0.517548 3.36529,-0.797823 4.77024,-1.245644 0.92752,-0.397694 1.83779,-0.512446 2.667,-1.017879 0.87507,-0.686534 1.53322,-0.100772 0.762,0.678188 -0.18626,0.188138 -0.33899,0.372131 -0.3394,0.408873 0,0.03674 -0.13189,0.205166 -0.2922,0.374275 -1.21634,2.287806 -2.16772,4.712961 -2.67292,7.185533 -0.004,0.239294 -0.20569,1.127363 -0.28528,1.256147 -0.20304,0.328529 -0.45232,2.44308 -0.25674,2.177837 0.0666,-0.09039 0.12118,-0.191357 0.12118,-0.224367 0,-0.03301 0.12382,-0.189022 0.27517,-0.346694 0.15134,-0.157673 0.54186,-0.592585 0.86783,-0.966472 1.14708,-1.450481 2.76171,-2.23225 3.85961,-3.666072 0.14339,-0.235771 0.44912,-0.431713 0.67361,-0.431713 0.24951,0 0.35259,0.441673 0.38981,1.670122 0.37044,2.485992 0.28237,4.872024 1.0987,7.304545 0.0266,0.06985 0.0645,0.52705 0.0844,1.016 0.0199,0.48895 0.0605,0.946151 0.0903,1.016001 0.79633,3.756079 0.13022,8.938275 0.95967,13.039563 0.0486,0.40315 -0.0557,0.74753 -0.05,1.15744 -0.55311,2.2726 -3.47594,3.62811 -4.90489,4.76834 -0.0687,0.1111 -0.32339,0.10841 -0.43641,-0.005 z M 145.3435,89.815058 c 0,-0.07053 -0.11716,-0.199495 -0.26037,-0.286581 -0.14319,-0.08709 -0.3168,-0.238926 -0.3858,-0.337423 -0.069,-0.0985 -0.17125,-0.179084 -0.22727,-0.179084 -0.19252,0 -0.33209,-0.337938 -0.23982,-0.580699 0.0851,-0.223955 0.2006,-0.884455 0.22412,-1.281968 0.052,-0.878293 0.15553,-1.994294 0.22781,-2.455334 0.0988,-0.630104 0.10852,-0.919706 0.0334,-0.994828 -0.0791,-0.07906 -0.72694,0.585195 -0.78105,0.800802 -0.078,0.310925 -0.3695,0.339512 -0.57317,0.05622 -0.0962,-0.133756 -0.34673,-0.42159 -0.55683,-0.639631 -0.21011,-0.21804 -0.45046,-0.494265 -0.53413,-0.613833 -0.23375,-0.334053 -0.37405,-0.274005 -0.43172,0.184771 -0.0699,0.556176 -0.0733,0.616214 -0.0537,0.9525 0.0286,0.491258 -0.18105,2.624886 -0.34719,3.53351 -0.12325,0.674085 -0.0195,0.803253 0.73076,0.909526 0.0466,0.0066 0.16087,0.03675 0.254,0.067 0.0931,0.03026 0.32894,0.07323 0.52401,0.09549 0.19507,0.02226 0.44272,0.09458 0.55033,0.160698 0.10762,0.06612 0.42426,0.1882 0.70366,0.271286 0.2794,0.08309 0.60325,0.22068 0.71967,0.305763 0.25973,0.189826 0.42333,0.202121 0.42333,0.03182 z m -55.781866,9.429988 c -0.129295,-0.04783 -0.182802,-0.138955 -0.182802,-0.311336 0,-0.448767 -0.416747,-1.120597 -1.138975,-1.836141 -0.235048,-0.232875 -0.53517,-0.567681 -0.66694,-0.744034 -0.131769,-0.176343 -0.392561,-0.417195 -0.579537,-0.535228 -0.374075,-0.236144 -0.39463,-0.399178 -0.162259,-1.286934 0.05254,-0.200711 0.112998,-0.600761 0.134359,-0.889 0.185759,-1.593566 0.09051,-3.312623 0.338047,-4.760929 0.05769,-0.332896 0.05046,-0.346697 -0.266194,-0.508 -0.511157,-0.364285 -1.124245,-0.579569 -1.612624,-0.941699 -0.5658,-0.600145 -0.891533,-0.0368 -0.644452,1.114558 0.358375,1.608414 0.174813,2.989481 0.31121,4.656667 0.04996,0.350097 -0.0611,0.519633 -0.477967,0.729598 -0.196351,0.0989 -0.526626,0.317432 -0.733946,0.485631 -0.264906,0.225771 -0.609135,0.370669 -0.858714,0.541604 -0.167379,0.128059 -0.340794,0.232834 -0.385368,0.232834 -0.04457,0 -0.250865,0.161925 -0.458425,0.359833 -1.260416,1.20181 -1.639591,1.176435 -1.322627,-0.08849 0.247291,-0.986875 0.402785,-7.607728 0.180674,-7.69296 -0.106515,-0.04087 -0.768723,0.27475 -0.84901,0.404656 -0.02635,0.04263 -0.245231,0.177031 -0.486411,0.298669 -0.593379,0.299269 -0.565289,0.185835 -0.552454,2.230953 l 0.01142,1.820334 0.635399,0.61788 c 0.349469,0.339844 0.712598,0.671966 0.806953,0.738048 0.194436,0.136195 -0.0174,0.38665 -0.214791,0.652764 -1.098572,0.733328 -1.732799,2.198829 -2.954185,2.820102 -0.31619,0.100355 -0.706963,-0.569617 -1.176522,-1.210022 -0.09254,-0.21622 -0.256587,-0.404906 -0.372704,-0.597061 l -0.140662,-0.272009 -0.329161,0.189442 c -0.517544,0.464632 -0.763043,1.420163 -0.935477,2.016066 -0.251405,0.724105 -0.636995,1.299819 -1.094432,1.126337 -0.194197,-0.07365 -1.677713,-1.009633 -1.784235,-1.125711 -0.273262,-0.216768 -0.461387,-0.469485 -0.737048,-0.582254 -0.654993,-0.278694 -1.4447,-0.02448 -1.633619,0.238682 -0.643236,0.218977 -1.186656,1.1075 -1.815965,1.281783 -0.559922,0.355332 -1.279132,0.609266 -1.457538,0.180785 -0.07271,-0.174625 -0.170776,-0.34174 -0.217929,-0.371373 -0.04715,-0.02962 -0.08573,-0.160393 -0.08573,-0.290585 -0.477366,-0.964865 -0.88871,-2.026441 -1.291101,-3.047991 -0.236048,-0.231311 -0.367056,-0.557351 -0.508066,-0.798551 -0.243569,-0.385834 -0.248069,-1.083731 -0.191893,-1.469514 0.430826,-1.374891 1.10111,-2.254259 1.643885,-3.26699 0.681864,-1.025833 1.223091,-2.149431 1.814404,-3.05283 0.246984,-0.370357 0.622213,-0.748177 0.988107,-0.996982 0.792941,-0.571623 1.466571,-1.033029 2.140812,-1.627685 0.209977,-0.134947 0.397313,-0.262728 0.629043,-0.338666 0.122035,0 0.246317,0.07031 0.299312,0.169333 1.029213,0.82556 2.34085,1.586722 3.534833,2.050466 0.467226,0.148474 0.602455,0.474121 0.280406,0.675245 -0.505199,0.494518 -0.539015,1.156368 -0.869163,1.710993 -0.271532,0.82142 -0.757913,1.822824 -0.693929,2.681931 0.05477,0.685624 0.09074,1.236584 0.13848,1.935255 l 0.37055,0.179383 c 0.419163,0.320034 0.863518,0.371796 1.330793,0.560189 0.371547,0.192134 0.38058,0.146194 0.432423,-2.199554 0.05612,-2.539164 -0.01221,-2.767908 -0.826822,-2.767908 -0.368982,0 -0.439679,-0.208728 -0.168629,-0.497868 0.382874,-0.408425 0.985618,-1.19118 1.40951,-1.830465 0.947863,-1.429501 1.016075,-1.465911 1.665548,-0.889 0.21793,0.223847 0.519924,0.363916 0.748609,0.511669 1.103132,0.847984 1.219623,0.864801 1.861439,0.268712 1.379075,-1.106727 2.745009,-1.539275 4.360732,-2.176489 0.239959,-0.125154 0.800181,0.02734 0.714804,0.194571 -0.182003,0.399267 -0.330769,0.742149 -0.566508,1.116867 -0.13832,0.419224 -0.136133,1.121048 -0.02434,1.320814 0.08674,0.154997 0.736919,-0.407487 2.245507,-1.942638 l 0.915911,-0.932039 0.311756,0.112588 c 0.171465,0.06192 0.445105,0.200697 0.608088,0.308386 1.357751,0.619273 2.352547,1.295094 3.704167,1.866764 0.151342,0.06329 0.275167,0.152653 0.275167,0.198595 0,0.04594 0.05715,0.08353 0.127,0.08353 0.06985,0 0.127,0.05965 0.127,0.132566 0,0.18478 -0.157569,0.460101 -0.26332,0.460101 -0.138495,0 -1.26068,0.749083 -1.26068,0.841532 0,0.04562 -0.08837,0.170215 -0.196368,0.276875 -0.268583,0.265241 -0.697911,1.387826 -0.642196,1.679178 -0.145603,1.080134 -0.338013,2.16133 -0.676357,3.206941 -0.212607,0.646795 -0.190973,0.687807 0.579318,1.098373 1.194817,0.634003 2.185703,1.338284 3.475599,1.746885 0.659009,0.201202 0.683251,0.863808 0.255253,1.233767 -1.290787,0.999559 -2.95871,1.433906 -4.168876,2.330092 -0.183895,0.195361 -0.448585,0.294052 -0.729577,0.190106 z M 70.038003,92.673287 c 0.01892,-1.78896 0.09009,-2.429631 0.378379,-3.406437 0.19376,-0.656515 0.09025,-0.478445 -0.553218,-0.84399 -0.224002,-0.127252 -0.517776,-0.184782 -0.605735,-0.185961 -0.226743,-0.003 -0.516513,0.0095 -0.566155,0.25293 -0.102287,0.501603 -0.375326,1.428887 -0.476281,1.617522 -0.250766,0.468559 -0.03366,1.251607 0.209186,1.760642 1.285785,2.514409 1.573388,3.724427 1.613824,0.805294 z m 90.799317,5.186138 c -0.14517,-0.174921 -0.0478,-0.598754 0.22942,-0.998812 0.2229,-0.321641 0.1942,-0.991024 -0.0496,-1.157944 -0.0692,-0.04734 -0.62994,-0.914968 -1.10947,-1.716532 -0.38708,-0.494744 -0.77058,-1.001464 -1.24395,-1.381803 -0.70949,-0.562771 -0.81616,-0.861415 -0.38735,-1.084454 0.12806,-0.06661 0.31133,-0.210461 0.40727,-0.319674 1.35356,-1.542728 3.17206,-2.481834 4.36815,-4.13557 0.71989,-1.013313 0.95091,-0.886981 1.01769,0.556514 0.46907,1.481991 0.98323,3.084301 2.00183,4.402803 0.45316,0.558309 0.47147,1.306017 0.032,1.306017 -0.0442,0 -0.12513,0.05396 -0.17986,0.119905 -1.10599,0.906195 -3.49534,2.659407 -4.02591,3.753595 -0.11612,0.244475 -0.25131,0.4445 -0.30043,0.4445 -0.0491,0 -0.17109,0.0762 -0.27106,0.169334 -0.21708,0.202243 -0.34651,0.213402 -0.48867,0.04212 z m -56.35888,-1.377112 c -0.0539,-0.03432 -0.12602,-0.214714 -0.16019,-0.400871 -0.0732,-0.398975 -0.42919,-1.239892 -0.55874,-1.319962 -0.10997,-0.06796 -0.45556,-0.62495 -0.58615,-0.944677 -0.0523,-0.128058 -0.12946,-0.232833 -0.17147,-0.232833 -0.042,0 -0.0764,-0.07153 -0.0764,-0.15897 -0.25126,-0.872438 -0.88283,-1.318231 -1.43935,-1.994837 -1.11706,-1.567509 -2.688701,-2.700538 -3.485638,-3.413027 -0.325433,-0.291041 -0.622207,-0.529166 -0.659494,-0.529166 -1.494094,-1.042245 -2.467322,-2.249605 -3.982873,-3.087775 -0.278445,-0.124112 -0.373427,-0.173314 -0.740833,-0.383761 -0.08149,-0.04668 -0.243417,-0.123888 -0.359833,-0.171578 -0.204427,-0.08374 -0.4632,-0.199555 -0.9525,-0.42628 -0.371995,-0.17237 -0.172364,-0.553392 0.257325,-0.49114 0.225643,0.03269 0.518535,-0.09117 0.951996,-0.402576 0.21912,-0.157423 0.438909,-0.286224 0.488418,-0.286224 0.489569,-0.559502 1.143581,-1.074289 1.81374,-1.534157 0.09865,-0.0528 0.269759,-0.203423 0.380243,-0.334726 0.266711,-0.316968 0.468958,-0.369458 0.78794,-0.204505 0.145364,0.07517 0.464828,0.148628 0.70993,0.163243 0.245101,0.01462 0.523121,0.06803 0.617813,0.118713 0.09469,0.05068 0.19464,0.06966 0.222114,0.04219 0.02747,-0.02747 0.207865,0.01323 0.400863,0.09045 0.192998,0.07722 0.508897,0.136036 0.702014,0.130697 0.193107,-0.0053 0.827354,-0.0076 1.409435,-0.005 1.37567,0.0061 3.63244,-0.278316 4.61378,-0.58148 0.14,-0.04325 0.61294,-0.165345 1.05096,-0.271316 0.43803,-0.105973 0.84187,-0.238135 0.89743,-0.293694 0.0556,-0.05556 0.26867,-0.145642 0.47359,-0.200183 0.20492,-0.05454 0.49119,-0.188871 0.63617,-0.29851 0.14498,-0.10964 0.35507,-0.222305 0.46688,-0.250365 0.5925,-0.148706 1.2947,-1.312678 0.79191,-1.312678 -0.069,0 -0.12538,-0.05706 -0.12538,-0.126804 0,-0.159796 -0.57937,-0.973863 -0.69309,-0.973863 -0.0465,0 -0.17857,-0.07397 -0.2935,-0.164369 -0.11493,-0.0904 -0.59719,-0.288341 -1.07169,-0.439862 -0.47449,-0.151521 -0.96672,-0.346292 -1.09381,-0.432824 -1.62812,-0.521438 -2.95243,-1.560318 -4.62482,-1.892406 -1.635471,-0.436399 -6.966357,-2.493294 -8.443382,-1.601687 -0.08949,0.06771 -0.230875,0.124323 -0.314184,0.125805 -0.08331,0.0015 -0.305402,0.155092 -0.49354,0.341359 -0.404812,0.400787 -0.412292,0.402107 -0.660553,0.116581 -0.360881,-0.41505 -0.05361,-1.029563 0.797175,-1.594282 0.260293,-0.172773 0.518904,-0.38722 0.574691,-0.476549 0.05579,-0.08933 0.141489,-0.162417 0.190448,-0.162417 0.837851,-1.1208 1.433274,-1.029373 2.550941,-2.055402 1.092941,-0.765002 2.004834,-1.866532 3.09068,-2.652458 0.728175,-0.724848 1.509797,-1.155832 2.082244,-1.854173 0.40401,-0.62514 1.00697,-0.291096 0.9687,0.536671 -0.0217,0.470323 -0.0159,0.483831 0.29793,0.691362 0.39023,0.258048 0.39996,0.265251 0.85727,0.634399 2.25701,2.398108 7.51039,4.490307 9.29306,7.458588 -0.023,0.05988 0.0323,0.203039 0.12283,0.318131 0.0905,0.115092 0.1646,0.237542 0.1646,0.272111 0,0.03457 0.0923,0.257159 0.20513,0.494646 0.45932,0.966808 0.49383,1.083268 0.4445,1.499847 -0.0265,0.223672 -0.14342,0.570162 -0.25984,0.769977 -0.11641,0.199816 -0.36776,0.668102 -0.55853,1.040635 -0.19078,0.372534 -0.4794,0.848784 -0.64141,1.058334 -0.16199,0.20955 -0.31712,0.447675 -0.34473,0.529166 -0.0276,0.08149 -0.0839,0.148167 -0.125,0.148167 -0.0411,0 -0.0748,0.03736 -0.0748,0.08302 0,0.34981 -0.59775,0.982518 -1.07075,1.133365 -0.27257,0.08693 -0.54147,0.194922 -0.59754,0.239985 -0.173,0.139016 -0.73204,0.406295 -0.84982,0.406295 -0.0614,0 -0.43936,0.17145 -0.83992,0.381 -0.7503,0.312707 -1.40736,0.635183 -2.1453,0.88797 -0.0699,5.93e-4 -0.33655,0.08152 -0.59267,0.179803 -0.48259,0.185182 -1.9369,0.515004 -2.02654,0.459599 -0.0483,-0.02987 -1.22254,0.170243 -1.40246,0.239018 -0.0466,0.0178 -0.20998,0.06133 -0.36314,0.09673 -0.37258,0.08612 -0.30719,0.213156 0.18331,0.356181 0.22207,0.06475 0.62008,0.235488 0.88446,0.379414 1.05717,0.575505 1.22992,0.66095 1.33622,0.66095 1.81307,0.625133 3.19481,2.124108 4.92888,2.963333 0.0794,0 0.18206,0.08572 0.22803,0.1905 0.046,0.104775 0.2074,0.245001 0.35874,0.311613 0.15134,0.06661 0.27517,0.170191 0.27517,0.230176 0,0.245064 0.27524,-0.02433 0.64911,-0.635328 1.08178,-1.844261 2.80049,-3.370853 3.35558,-5.509196 -0.002,-0.07339 0.0493,-0.193657 0.11304,-0.267266 0.0905,-0.104462 0.11546,-0.531848 0.1139,-1.947334 -0.001,-0.997424 0.0172,-2.023049 0.0406,-2.279166 0.0933,-1.018513 0.046,-4.389309 -0.0712,-5.08 -0.11373,-0.670159 -0.20773,-1.562914 -0.17084,-1.622603 0.0217,-0.03511 0.003,-0.132067 -0.0408,-0.215453 -0.0441,-0.08339 -0.12434,-0.380211 -0.17823,-0.659611 -0.0539,-0.2794 -0.11562,-0.57066 -0.13717,-0.647245 -0.0586,-0.208115 0.20135,-0.416738 0.50388,-0.404444 0.31315,0.01272 0.88724,-0.180102 1.66402,-0.558916 3.06128,-1.04617 5.65474,-2.29552 8.46666,-3.765732 0,-0.04657 0.1143,-0.08467 0.254,-0.08467 0.43382,0 0.0696,1.006597 -0.3686,1.018675 -0.92133,0.798096 -1.97777,1.845561 -2.59473,2.941921 0,0.0808 -0.24822,0.56952 -0.43953,0.865404 -1.10485,3.546496 -2.24309,6.867949 -2.91587,10.583334 -0.0289,0.162984 -0.089,0.342226 -0.13369,0.398318 -0.0896,0.11248 -0.23517,0.719823 -0.48691,2.030996 -0.0911,0.474639 -0.26474,1.160439 -0.3858,1.524 -0.33706,1.012234 -0.33682,1.102003 0.004,1.479068 0.16171,0.178992 0.29401,0.362506 0.29401,0.407809 0,0.0453 0.13976,0.207119 0.31058,0.35959 0.17082,0.152471 0.3899,0.368212 0.48683,0.479424 0.26238,0.301001 1.32104,1.448478 1.64012,1.777727 0.1532,0.158069 0.3759,0.453524 0.49489,0.656567 0.2665,0.45476 0.35396,0.458363 0.74051,0.0305 0.16828,-0.186267 0.33464,-0.338856 0.36969,-0.339087 0.57871,-0.0038 0.81559,-0.995835 0.65696,-2.751247 -0.0421,-0.465666 -0.0712,-1.244155 -0.0647,-1.729974 0.0126,-0.938252 -0.0503,-1.097244 -0.43644,-1.103667 -0.18274,-0.003 -0.97797,-0.227276 -1.36211,-0.384083 -0.1397,-0.05703 -0.49385,-0.152513 -0.787,-0.212194 -0.5968,-0.121502 -0.6688,-0.275628 -0.23551,-0.504172 0.13545,-0.07145 0.31616,-0.196585 0.40156,-0.278077 0.0854,-0.08149 0.19584,-0.148166 0.24542,-0.148166 0.0496,0 0.18631,-0.1143 0.30386,-0.254 0.11754,-0.1397 0.2501,-0.254 0.29457,-0.254 0.12052,0 2.27476,-2.223851 2.27476,-2.34827 0,-0.05888 0.0335,-0.107064 0.0744,-0.107064 0.0409,0 0.12234,-0.115756 0.18094,-0.257236 0.1988,-0.479937 0.57769,-0.503813 1.08111,-0.06813 0.93573,0.495085 1.8699,1.089217 2.72755,1.595357 0.1397,0.05787 0.254,0.117845 0.254,0.133289 0,0.08819 -0.20582,0.459378 -0.25472,0.459378 -0.0509,0 -0.1371,0.179235 -0.42749,0.889 -0.14777,0.36117 -0.29977,1.905 -0.18756,1.905 0.0466,0 0.19036,-0.1524 0.31944,-0.338666 0.12908,-0.186267 0.26505,-0.338667 0.30214,-0.338667 0.0371,0 0.0937,-0.0828 0.12584,-0.183992 0.0321,-0.101194 0.12897,-0.259732 0.21521,-0.352304 0.0862,-0.09257 0.28161,-0.409685 0.43414,-0.704696 0.15254,-0.29501 0.32485,-0.536523 0.38293,-0.536695 0.0581,-1.69e-4 0.25319,-0.133663 0.43359,-0.296647 0.69563,-0.536895 1.38708,-1.14236 1.87385,-1.592489 0.0699,-0.06468 0.27693,-0.279825 0.46019,-0.478091 0.34359,-0.37172 0.53849,-0.345467 0.56371,0.07593 0.0214,0.357451 0.078,0.757258 0.15053,1.063318 0.0442,0.186267 0.12518,0.567267 0.18005,0.846667 0.0549,0.2794 0.19102,0.8128 0.30257,1.185333 0.11155,0.372533 0.22825,0.829734 0.25932,1.016 0.0311,0.186267 0.10731,0.41678 0.16939,0.512251 0.12732,0.195799 -0.0415,0.546083 -0.26318,0.546083 -0.0633,0 -0.12783,0.02858 -0.14336,0.0635 -1.36528,1.099348 -2.70813,1.816197 -3.96522,2.973445 -0.25612,0.237859 -0.52282,0.422425 -0.59267,0.410147 -0.13743,-0.02416 -0.13812,-0.04781 -0.0415,-1.415089 0.10741,-1.519157 0.0997,-1.729914 -0.0644,-1.761707 -0.0897,-0.01739 -0.14817,0.02305 -0.14817,0.102546 0,0.07219 -0.0938,0.192693 -0.20836,0.267783 -0.11461,0.07509 -0.23333,0.218843 -0.26383,0.319452 -0.0305,0.100609 -0.1461,0.303964 -0.25689,0.451901 -0.3111,0.647468 -0.77616,1.249628 -0.81759,1.948872 0.75907,1.399514 2.19874,2.521695 3.31537,4.259889 0.43557,0.362935 0.49022,0.9306 0.0896,0.9306 -1.59788,1.151906 -2.30922,2.048462 -3.28623,3.3655 -0.24349,0.348615 -0.77332,0.290085 -0.77332,-0.08543 0,-0.02801 -0.1143,-0.297866 -0.254,-0.599694 -0.74282,-1.552662 -1.69408,-2.794822 -2.54783,-3.990962 -0.21687,-0.301975 -0.24595,-0.394286 -0.16934,-0.537442 0.14385,-0.268795 0.12067,-0.697469 -0.0345,-0.637925 -0.0698,0.02681 -0.127,0.09458 -0.127,0.150603 0,0.05603 -0.11358,0.218043 -0.2524,0.360032 -1.22098,1.681743 -2.25398,3.388949 -3.80826,4.771628 -0.18811,0.164254 -0.34285,0.354754 -0.34389,0.423334 -0.005,0.366987 -0.57268,0.679196 -0.78658,0.433002 -0.12903,-0.148497 -0.12946,-0.150013 -0.38769,-1.353778 -0.53415,-2.37724 -1.88504,-3.697193 -2.76207,-5.860477 -0.092,-0.418875 -0.2917,-0.445791 -0.68708,-0.09261 -2.2398,1.892923 -4.04401,3.696514 -5.7887,5.863066 0,0.03003 -0.20933,0.316849 -0.46519,0.63738 -0.25586,0.320522 -0.46541,0.626364 -0.46567,0.679644 -10e-4,0.296723 -0.59382,0.700575 -0.8182,0.557801 z m 54.20246,-7.293472 c -0.0283,-0.08898 0.0116,-0.76526 0.0885,-1.502833 0.18136,-1.739598 0.21387,-9.29971 0.04,-9.29971 -0.006,0 -0.0111,-0.40005 -0.011,-0.889 0,-1.25399 -0.0178,-3.313983 -0.0357,-4.064 -0.015,-0.628741 -0.0506,-1.21523 -0.21323,-3.513667 -0.13818,-2.176803 -0.24524,-4.413469 -0.78173,-6.451602 -0.29595,-0.608513 -0.10094,-1.630976 0.31182,-1.63494 2.18775,-1.285391 5.68226,-3.008475 7.23407,-4.542719 0.64563,-0.680711 1.43155,0.206024 0.84608,0.954616 -0.27543,1.981372 -1.02578,3.787327 -1.12465,5.790312 -0.68133,6.812235 -1.83643,14.044055 -1.93784,20.874224 -0.0171,1.39567 -0.0706,1.578004 -0.53332,1.817187 -0.93552,0.636817 -1.83763,1.220578 -2.74193,1.859019 -0.16298,0.110331 -0.42007,0.327571 -0.57131,0.482754 -0.31071,0.31881 -0.49401,0.357563 -0.56929,0.12036 z M 85.822832,83.677692 c 0,-0.1928 0.241328,-0.638341 0.848254,-1.566056 0.403758,-0.617163 0.591079,-1.017832 0.591079,-1.264286 0,-0.1019 0.09735,-0.430622 0.216321,-0.730494 0.358885,-0.904541 0.403246,-3.574225 0.078,-4.693887 -0.346112,-1.225874 -0.554625,-2.658236 -0.937994,-3.611397 -0.180563,-0.673946 -0.35142,-1.392187 -0.402696,-2.043973 -0.106847,-1.424029 -0.23638,-1.590778 -0.887119,-1.141995 -0.949661,0.654935 -1.572764,1.437587 -1.478756,2.099254 -0.122854,0.558863 -0.06291,0.674409 -0.0992,0.967727 l -0.06076,0.502949 0.579606,0.533833 c 0.562301,0.330061 0.847635,0.882808 1.234773,1.261235 1.572951,1.527854 1.599704,1.63422 0.487834,1.939589 -1.197761,0.501087 -2.219443,0.905532 -3.356705,1.530739 -0.288962,0.169629 -0.537962,0.07734 -0.537962,-0.199389 0,-0.334482 -0.579798,-2.050242 -0.692827,-2.050242 -0.131349,0 -1.572281,1.494057 -1.815648,1.882587 -0.396912,0.633662 -0.456799,0.632575 -1.096847,-0.01992 -0.475388,-0.472239 -1.012062,-0.840251 -1.334145,-1.130086 -0.374226,-0.337231 -0.638074,-0.428522 -0.80854,-0.279754 -1.059204,0.655297 -2.126295,1.108745 -3.058585,1.834432 -0.227581,0.227581 -0.637905,0.218463 -0.82507,-0.01833 -0.326729,-0.413369 -2.125238,-2.184258 -2.218326,-2.184258 -0.05491,0 -0.265965,0.1143 -0.469012,0.254 -0.728215,0.452986 -1.536158,0.762346 -2.286,1.183893 -0.553637,0.314007 -0.819742,0.320744 -1.025308,0.02596 -0.08801,-0.126215 -0.285488,-0.360262 -0.438831,-0.520105 -0.153343,-0.159843 -0.324793,-0.374907 -0.381,-0.477919 -0.104903,-0.192258 -0.628322,-0.840881 -0.973636,-1.206534 -0.243717,-0.258072 -0.324971,-0.629921 -0.173537,-0.794178 0.167652,-0.181848 0.294208,-0.39666 0.567221,-0.962783 0.647214,-1.34207 0.744427,-1.622953 1.066589,-3.081743 0.07609,-0.344525 0.175988,-0.696758 0.222003,-0.782739 0.103798,-0.193947 -0.231747,-0.4209 -0.936226,-0.633235 -0.257002,-0.07746 -0.554789,-0.194591 -0.661751,-0.260285 -0.205888,-0.126454 -0.905276,0.339122 -1.124353,0.748472 -0.04767,0.08907 -0.120944,0.140755 -0.162838,0.114863 -0.242631,-0.149954 -0.350854,1.048028 -0.206511,2.286 0.02715,0.232833 0.05871,0.809618 0.07013,1.281745 0.01626,0.6719 -0.109199,0.706517 0.08127,1.009615 0.467337,0.704998 0.693463,1.113635 1.072088,1.48684 0.548683,0.511639 0.544766,0.777867 -0.01404,0.954005 -1.007526,0.330326 -1.862444,1.015337 -2.402754,1.470947 -1.026675,0.867123 -1.279138,0.855878 -1.35545,-0.06037 -0.144495,-1.020618 -0.406956,-2.00999 -0.852604,-2.901463 -0.232774,-0.459895 -0.248095,-0.683517 -0.08467,-1.235739 0.245824,-0.946 0.528589,-1.978867 0.67876,-2.880819 -0.03094,-0.229521 -0.168084,-0.394975 -0.401877,-0.551359 -0.339588,-0.238089 -0.668015,-0.465146 -1.005719,-0.677459 -0.18805,-0.116924 -0.526745,-0.19984 -0.607715,-0.06883 -0.107494,1.526786 0.0273,2.392581 0.06616,4.194073 l 0.0099,0.497183 0.536195,0.493482 c 0.646033,0.59457 0.638859,0.681967 -0.08984,1.094486 -1.036961,0.852501 -2.159291,1.714105 -3.15904,2.470761 -0.293316,0.428407 -0.855796,0.328285 -1.084779,-0.151895 -0.189663,-0.397728 -0.146082,-1.17884 -0.09013,-1.580809 2.35e-4,-0.411331 0.140284,-0.976529 0.16778,-1.424566 0.06874,-2.682781 0.24692,-4.207743 0.381483,-6.658589 0.183684,-0.656055 -0.27494,-0.740446 -1.136372,-0.209102 -0.404327,0.249395 -1.077473,0.370079 -1.271768,0.228006 -0.310076,-0.226733 -0.138479,-0.55825 0.79179,-1.529705 0.652034,-0.975426 1.046423,-1.296664 1.659071,-2.193967 0.173876,-0.322869 0.464861,-0.473455 0.68107,-0.352459 0.241983,0.13542 1.80572,0.342138 2.891804,0.382282 0.456767,0.01688 0.612917,0.296462 0.407433,0.729488 -0.360767,0.760261 -0.297963,2.007753 0.07102,1.410722 0.02532,-0.04098 0.246647,-0.138422 0.49183,-0.216549 0.947244,-0.44432 1.79501,-0.830426 2.764374,-0.986246 0.39612,-0.0488 1.220596,-0.08808 1.295075,0.0292 0.104645,0.164776 0.08072,0.455918 -0.04612,0.561187 -0.126779,0.105217 -0.435398,1.052834 -0.506346,1.554743 -0.06734,0.476401 0.124307,0.410595 0.733356,-0.251805 0.671173,-0.710656 1.138031,-1.222293 1.655189,-1.773337 l 0.413542,-0.437642 0.514617,0.02161 c 0.447443,0.01879 0.549976,0.05618 0.785504,0.286451 0.855881,0.406445 1.882931,0.499437 2.674644,0.535562 l 0.688601,0.02347 0.472841,-0.496057 c 1.385617,-1.73143 2.447761,-3.03572 3.537744,-4.729331 0.125713,-0.194934 0.29219,-0.478693 0.369948,-0.630576 0.148742,-0.290535 0.421028,-0.542917 0.889539,-0.824516 0.405195,-0.177597 0.695574,-0.536645 1.063339,-0.719667 0.576261,0 0.707044,-0.436467 0.268623,-0.89648 -0.457966,-0.480521 -0.58188,-0.512845 -0.973918,-0.254054 -0.982992,0.44061 -2.051968,0.921616 -2.776594,1.57251 -0.09128,0.147696 -0.542972,0.09423 -0.722755,-0.08556 -0.644244,-0.43853 -1.250025,-0.815203 -1.781808,-1.232715 -0.136213,-0.164128 -0.511713,-0.107823 -0.73684,0.110486 -0.70451,0.714746 -1.270458,0.910885 -2.00877,1.639852 -0.378334,0.380087 -0.454832,0.421254 -0.719666,0.387281 -0.37825,-0.04852 -1.016708,-0.214682 -1.199675,-0.312218 -1.043409,-0.341446 -2.523029,-0.727937 -3.309118,-0.916311 -0.07903,-0.07903 -1.16903,-0.256188 -1.426337,-0.261892 -0.899168,0.530072 -1.985987,1.102927 -2.52872,2.090619 -0.0016,0.05821 -0.03188,0.105833 -0.06741,0.105833 -0.03552,0 -0.102199,0.08573 -0.148167,0.1905 -0.114249,0.260412 -0.570688,0.298333 -0.967474,0.08038 -0.16579,-0.09107 -0.453836,-0.212526 -0.640103,-0.269905 -3.49064,-1.025602 -6.310296,-3.439677 -9.398,-4.374572 -1.301334,-0.390787 -1.180343,-1.258077 0.222511,-1.595017 0.343286,-0.08245 0.684305,-0.201993 0.757822,-0.26565 1.015302,-0.391895 1.804877,-0.891238 2.605501,-1.445082 0.293149,-0.223596 0.613722,-0.265731 1.324833,-0.174131 0.330027,0.04251 0.144735,-2.787692 -0.223067,-3.407188 -0.98829,-1.625502 -1.196612,-2.684351 -1.769285,-4.243312 -0.06918,-0.256912 -0.158876,-0.372814 -0.362134,-0.467934 -0.148598,-0.06954 -0.375995,-0.183536 -0.505325,-0.253324 -0.129331,-0.06979 -0.347179,-0.130073 -0.484107,-0.133966 -0.274614,-0.0078 -0.634785,-0.325538 -0.571976,-0.504579 0.02159,-0.06154 0.0108,-0.189092 -0.02397,-0.283456 -0.126547,-0.343446 0.169561,-0.544352 0.863341,-0.585768 0.833185,-0.04974 1.764771,-0.241997 2.037056,-0.420404 0.122173,-0.08005 0.348883,-0.147417 0.5038,-0.149702 0.154918,-0.0023 0.357868,-0.05119 0.451001,-0.108685 2.039013,-0.584743 4.07006,-1.250252 6.096,-1.861255 1.458056,-0.407238 2.253722,-0.784685 2.662657,-0.902915 1.137686,-0.693557 1.930765,0.153168 1.020343,1.089362 -0.344814,0.352769 -0.621289,0.763222 -0.942796,1.078141 -0.475827,0.375616 -0.60867,0.717411 -0.680572,1.29767 -0.06993,1.410271 -0.110928,2.261348 -0.193387,3.486797 -0.03161,0.488951 -0.09886,1.021703 -0.149438,1.183895 -0.05151,0.165188 -0.09605,1.029694 -0.101269,1.965488 -0.01007,1.807294 -0.01574,1.829638 -0.482369,1.900911 -1.032626,0.255436 -2.071309,0.744414 -2.932457,1.171358 -0.728974,0.369254 -1.08724,0.61421 -1.650876,0.914576 -0.114672,0.110601 -0.166224,0.119933 -0.03023,0.229773 1.676789,0.907149 3.774735,1.875484 5.232261,2.889553 0.314217,0.244425 0.453814,0.231883 0.611743,0.179617 0.370977,-0.136288 0.759499,-0.240221 1.075669,-0.452943 0.152274,-0.16945 0.155582,-2.384398 0.004,-2.680695 -0.14114,-0.888316 -0.246074,-1.860925 -0.434938,-2.475531 -0.151093,-0.48895 -0.293648,-0.972114 -0.316789,-1.073698 -0.0431,-0.189212 0.840806,-1.100385 1.141788,-1.414819 0.506798,-0.777761 1.042808,-1.310412 1.669828,-1.998298 0.276061,-0.271139 0.553365,-0.171269 0.843808,0.06289 1.39927,0.960213 2.958563,2.08728 4.284995,2.751757 0.302745,0.18484 0.424684,-0.09186 0.292008,-0.662615 -0.111713,-0.480575 0.152014,-0.789463 0.334107,-0.906701 0.863891,-0.412089 1.869524,-0.710436 2.66958,-1.244048 0.628918,-0.424408 0.910635,-0.490581 1.007235,-0.236589 0.431116,0.672496 1.013536,0.957926 1.578988,1.397423 0.20333,0.131247 0.352604,0.09173 0.585844,0.06503 l -0.02366,-0.762 c -0.01301,-0.4191 -0.05627,-0.97155 -0.09612,-1.227667 -0.03985,-0.256117 -0.07454,-0.770467 -0.07709,-1.143 -0.0049,-0.722433 -0.157985,-1.707894 -0.292893,-1.88588 -0.09443,-0.124584 -0.09632,-0.122158 0.238694,-0.30726 1.318011,-0.837545 2.646365,-1.833073 3.598589,-2.548669 0.143497,-0.268128 0.542258,-0.259328 0.759428,0.01676 0.166499,0.21167 0.171159,1.049722 0.0069,1.248597 -0.142473,1.24027 -0.529787,2.303363 -0.636952,3.379268 -0.05834,0.600774 0.102102,0.545561 0.639841,-0.22018 0.435938,-0.496606 0.584225,-0.947801 1.110519,-1.476767 0.504903,-0.341515 0.605378,-0.379778 0.971901,0.07193 0.566601,1.406745 1.542273,2.770821 2.056783,4.051831 0.122924,0.412581 0.333792,0.443265 1.723957,1.174532 0.976414,0.513622 1.457233,0.848979 2.859264,1.583546 0.318742,0.197891 0.499998,0.351794 0.710408,0.119296 0.648181,-0.499541 1.357598,-0.974182 1.906435,-1.59909 0.525208,-0.618701 1.271682,-0.447279 1.271682,-0.447279 1.595284,-0.03814 1.848095,0.01875 4.064556,-0.08265 3.443694,-0.157541 3.365944,-0.465273 2.01732,1.832685 -0.708434,1.47319 -1.167285,2.795895 -1.671328,4.153917 -0.0397,0.365126 -0.169095,0.470091 -0.01662,0.730261 0.969253,0.622339 1.826771,1.68786 2.968952,2.311234 0.96431,0.498943 0.99807,1.072888 0.0979,1.381136 -1.674817,0.665991 -3.649732,1.177466 -5.09494,2.232365 -0.361883,0.494148 -0.921871,0.09492 -0.674929,-0.481172 0.347368,-1.16299 -0.110295,-2.306159 -0.508055,-3.407391 -0.279581,-0.489067 -0.464928,-1.3503 -0.326497,-1.517098 0.330429,-1.116008 0.311956,-2.222773 0.628074,-3.26556 0.200514,-0.654995 0.269129,-0.621093 -1.089758,-0.538433 -0.871644,0.05302 -0.862238,0.04152 -1.128039,0.350987 -0.02059,0.646564 -0.240128,2.296643 -0.586647,3.481758 -0.0532,0.181941 0.04746,0.320657 0.451116,0.621661 1.216537,0.907171 1.628765,1.668281 0.990351,1.828512 -0.654847,0.414618 -1.44082,0.837366 -2.029556,1.304155 -0.625891,0.498037 -0.745927,0.514155 -1.103434,0.148167 -1.347733,-1.379705 -1.217898,-1.362711 -2.374308,-0.310766 -0.563903,0.535456 -1.209986,0.973929 -1.787959,1.489162 -0.227666,0.240053 -0.352137,0.198411 -0.699702,-0.234088 -1.320265,-1.119677 -2.835633,-2.258241 -4.040969,-3.237193 -0.115539,-0.0689 -0.604683,0.187888 -1.03755,0.544695 -0.163713,0.134946 -0.339267,0.245356 -0.390121,0.245356 -0.05085,0 -0.220483,0.1143 -0.376958,0.254 -0.156474,0.1397 -0.315736,0.254 -0.353916,0.254 -0.107329,0 -0.380136,0.29776 -0.617932,0.674453 -0.118585,0.187851 -0.245214,0.341547 -0.281397,0.341547 -0.03618,0 -0.207763,0.262857 -0.381288,0.584127 -0.656211,0.930544 -1.353641,1.920877 -1.921467,2.583962 -0.162983,0.190069 -0.369947,0.478928 -0.459921,0.641912 -0.20614,0.373416 -0.918269,1.164961 -1.561526,1.735667 -0.322994,0.286564 -1.36522,1.422201 -1.36522,1.487579 0,0.09758 -0.182313,0.277528 -0.723133,0.713746 -0.230927,0.186261 -0.577927,0.495719 -0.771111,0.687683 -0.193185,0.191964 -0.435257,0.407869 -0.537938,0.47979 -0.530623,0.765389 -0.742838,1.668226 -1.003564,2.477435 -0.111986,0.124393 -0.544964,1.547171 -0.655735,2.154767 -0.03062,0.167977 0.02322,0.255356 0.260855,0.423333 0.541882,0.383039 0.836853,0.629529 1.258017,1.051249 0.58463,0.585402 0.624064,0.550143 1.033657,-0.924249 0.747646,-2.691263 0.729978,-2.889765 -0.314579,-3.534333 -0.318159,-0.196327 -0.57847,-0.388797 -0.57847,-0.427711 0,-0.145507 0.179118,-0.398289 0.282222,-0.398289 0.838791,-0.620254 1.761339,-1.358995 2.511779,-2.064478 0.788824,-0.745796 1.234627,-0.717046 1.654279,-0.466081 0,0.03316 0.197031,0.139435 0.597077,0.251644 l 0.727355,0.204014 -0.04483,0.276255 c -0.09523,0.362091 -0.307118,0.658853 -0.437173,0.999476 -0.0537,0.244956 -0.126129,0.44456 -0.297675,0.820336 -0.04783,0.104775 -0.120837,0.381001 -0.162236,0.613834 -0.07226,0.406381 -0.259129,0.997538 -0.428227,1.354667 -0.143515,0.440743 -0.172547,0.91432 -0.246003,1.354666 -0.13664,0.814357 -0.168089,1.190612 -0.107156,1.282026 0.152555,0.228867 1.173249,0.601286 1.296697,0.473124 0.209473,-0.217474 0.302876,-2.390617 0.157315,-3.66015 -0.200067,-1.744918 -0.193684,-1.85947 0.111531,-2.001482 1.149702,-0.68042 2.158844,-1.559669 3.088702,-2.533137 0.81762,-0.862046 0.97344,-0.932705 1.299289,-0.589177 0.58331,0.47362 1.146425,0.892837 1.7405,1.38552 0.420914,0.420243 0.49425,-0.345463 0.199909,-2.087266 -0.137616,-0.814361 -0.111613,-0.846984 1.57065,-1.970598 0.110183,-0.07359 0.325141,-0.245044 0.477683,-0.381 0.152542,-0.135957 0.467241,-0.399105 0.699331,-0.584774 0.23209,-0.18567 0.491421,-0.423795 0.576293,-0.529167 0.44783,-0.556004 0.868348,0.692731 0.478554,1.421069 -0.116552,0.217778 -0.242289,0.908785 -0.296986,1.632116 -0.05507,0.728273 -0.186373,1.277318 -0.394894,1.651248 -0.08639,0.154926 -0.148688,0.326376 -0.138428,0.381 0.01026,0.05462 -0.04171,0.308865 -0.115487,0.564981 -0.349426,1.213022 -0.253723,1.350739 0.451892,0.650279 0.483674,-0.461792 0.881182,-0.803405 1.332606,-1.158279 0.235645,-0.186266 0.503517,-0.338666 0.595273,-0.338666 0.09175,0 0.190374,-0.0381 0.219154,-0.08467 0.770933,-0.305827 1.640816,-0.565871 2.388826,-0.989858 0.588243,-0.34297 1.175734,0.08857 0.754952,0.554548 -0.122247,0.135377 -0.141873,0.41266 -0.21958,3.102307 -0.04752,1.644953 0.104069,4.013919 0.276574,4.498994 0.268569,0.667236 0.198387,1.405607 0.352119,2.142319 0.0324,0.05243 0.07573,0.56078 0.09629,1.129672 0.02056,0.568892 0.06859,1.262949 0.106741,1.542349 0.07456,0.546122 -0.02367,1.870332 -0.1501,2.023418 -0.04236,0.05129 -0.103712,0.236127 -0.136346,0.410755 -0.06199,0.331733 -0.520248,0.790084 -1.131043,1.131275 -0.975496,0.640562 -2.024926,1.401766 -2.775694,2.190541 -0.647374,0.699461 -1.129082,0.934709 -1.129082,0.551401 z m -4.876324,-9.987352 0.214701,-0.08163 -0.222334,-0.428541 c -0.177385,-0.3419 -0.204697,-0.466616 -0.135093,-0.616871 0.329728,-1.065065 0.495119,-2.198151 0.663511,-3.257497 0.08572,-0.515497 -0.145238,-0.482826 -0.748163,0.105833 -0.560739,0.54747 -0.654827,0.563801 -0.958023,0.16629 -0.12559,-0.164656 -0.343299,-0.38123 -0.483798,-0.481273 l -0.255451,-0.181898 0.06347,0.925773 c 0.03491,0.509177 0.06056,0.982925 0.05701,1.052775 -0.09719,1.910247 -0.0089,2.064526 0.667163,2.46551 0.184968,0.160375 0.360384,0.22947 0.485958,0.310008 0.16096,0.108687 0.342468,0.138846 0.651059,0.02152 z M 69.453567,55.399301 c 0.38879,-3.161555 0.177047,-4.318914 -0.636203,-3.477412 -0.27325,0.282743 -0.522131,0.514078 -0.553071,0.514078 -0.03094,0 -0.28915,0.2286 -0.573802,0.508 -0.634818,0.59322 -1.12454,1.0976 -1.791541,1.607115 -0.0962,0.07075 -0.25645,0.170814 -0.373506,0.380809 -0.09764,0.175166 0.525507,0.352208 1.247387,0.641103 0.701548,0.201807 1.37252,0.349793 2.032,0.590366 0.517012,0.108035 0.544286,0.08531 0.648736,-0.764062 z m 19.010448,0.479155 c 0.0337,-0.184887 0.03404,-0.85458 0.0014,-2.746646 -0.01876,-1.087781 -0.09672,-1.290001 -0.393818,-1.021567 -0.909405,0.716731 -1.810393,1.600703 -2.56628,2.283502 -0.565761,0.507418 -0.596108,0.695032 -0.360368,0.695032 1.070148,0.488048 1.673025,0.680899 2.726931,0.937134 0.308055,0.128756 0.550499,0.0809 0.59212,-0.147455 z m -7.39137,-0.457987 c 0.053,-0.128058 0.114269,-0.347133 0.136162,-0.486833 0.03856,-0.246042 0.139489,-0.740809 0.293403,-1.438287 0.102407,-0.464069 0.0708,-0.474022 -1.380759,-0.434782 -1.660163,0.04488 -1.654295,0.03713 -0.77562,1.024064 0.303867,0.317995 0.562443,0.712179 0.850717,1.018338 0.102793,0.09313 0.230999,0.255059 0.284902,0.359834 0.141775,0.275575 0.469336,0.25212 0.591195,-0.04233 z m -5.542964,0.07345 c 0.0254,-0.04109 -0.03049,-0.172176 -0.124184,-0.291293 -0.16599,-0.211023 -0.166742,-0.232453 -0.02934,-0.835452 0.34381,-1.508785 0.34582,-1.505265 -0.813996,-1.425487 -1.170251,0.0805 -1.318292,-0.03865 -0.613834,-0.494045 1.204362,-0.778549 1.524716,-1.384968 0.897666,-1.69926 -0.225958,-0.113254 -0.448932,-0.250208 -0.495499,-0.304342 -0.701727,-0.81576 -0.998376,-0.601026 -1.026088,0.742749 -0.01369,0.663765 -0.04025,1.625945 -0.05903,2.138178 -0.04443,1.212108 0.04932,1.649794 0.354333,1.654266 0.122531,0.0018 0.546633,0.132653 0.94245,0.290793 0.777617,0.31068 0.89683,0.338267 0.967516,0.223893 z m 8.922194,-1.893785 c 0.907424,-0.737867 1.418511,-1.129654 1.576653,-1.208627 0.228727,-0.114221 0.272985,-0.365406 0.07573,-0.429783 -0.489859,-0.159868 -1.547437,-0.779291 -1.777116,-1.040855 -0.378911,-0.431516 -0.457919,-0.304134 -0.500182,0.806423 -0.01926,0.506188 -0.06938,1.129892 -0.111365,1.386008 -0.130938,0.798714 0.13582,0.975096 0.736282,0.486834 z m -18.640636,-0.88716 c 0.179626,-0.15033 0.431367,-0.35312 0.559425,-0.450645 0.313303,-0.238602 0.294004,-0.353609 -0.105833,-0.630695 -0.213951,-0.178531 -0.381799,-0.369124 -0.592667,-0.447408 0,-0.11515 -0.51957,-0.379244 -0.59556,-0.302719 -0.114299,0.115103 -0.08924,1.495803 0.03321,1.829631 0.02989,0.08149 0.07301,0.207425 0.09582,0.279853 0.0485,0.154006 0.13907,0.112429 0.6056,-0.278013 z M 56.64457,51.00834 c 0.15569,-0.172036 0.176012,-0.549719 0.269118,-5.001236 0.02574,-1.230824 0.06947,-2.274531 0.09716,-2.319346 0.0277,-0.04482 0.06263,-0.186872 0.07763,-0.315681 0.015,-0.128808 0.03292,-0.266203 0.03984,-0.305321 0.05123,-0.289914 -0.05192,-0.267825 -0.376396,0.08061 -0.23853,0.25614 -0.372036,0.478871 -0.377754,0.630209 -0.0049,0.128733 -0.03106,0.38646 -0.05821,0.572727 -0.02715,0.186266 -0.06749,1.386416 -0.08965,2.667 -0.02216,1.280583 -0.04348,2.385483 -0.04738,2.455333 -0.07721,1.381965 0.09394,1.946431 0.465636,1.535707 z m 25.269838,-1.445446 c 0.602063,-0.333109 1.032972,-0.520509 1.620449,-0.854415 0.03085,-0.06866 0.155481,-0.319988 0.276952,-0.558495 0.246154,-0.48332 0.19013,-0.692927 -0.137676,-0.515102 -0.442527,0.31405 -1.002298,0.590772 -1.400053,0.85362 -0.462991,0.30688 -0.841431,0.724088 -1.264171,1.082325 -0.642164,0.54146 -0.328195,0.627891 0.904499,-0.0079 z m -1.76507,-0.661761 c 0.689586,-0.435055 0.676708,-0.547053 -0.167903,-1.460226 -0.537746,-0.581399 -0.590208,-0.523886 -0.591974,0.648968 -0.0019,1.279533 0.0053,1.287292 0.759877,0.811258 z m 59.265982,12.309789 c -3.4829,-1.826727 -7.88461,-2.504215 -11.16857,-3.98345 l -0.37511,-0.196186 -0.18667,0.22184 c -0.10266,0.122013 -0.52441,0.386107 -0.93722,0.586876 -0.98966,0.629283 -2.0904,1.125245 -2.89109,1.867376 -0.29568,0.275468 -1.05514,0.345628 -1.28268,-0.358321 -0.67729,-0.924906 -1.25147,-1.673987 -2.01475,-2.365159 -0.1648,-0.146626 -0.18254,-0.141013 -0.60194,0.1905 -1.56393,1.357491 -3.65094,2.079566 -5.26824,3.268765 -0.59711,0.444662 -1.10375,0.514932 -1.79782,0.640785 l -0.69248,-0.344655 c -1.35785,-0.725807 -2.74681,-1.472398 -3.78847,-2.027801 -1.50756,-0.787216 -3.15876,-1.641493 -4.34782,-2.860562 -0.16499,-0.06331 -1.05227,-0.915646 -1.05227,-1.010827 -1.02397,-1.630581 -1.75484,-3.0207 -2.55994,-4.964072 -0.0968,-0.140795 -0.13236,-0.276152 -0.0908,-0.345212 0.10409,-0.1729 1.03264,-0.989513 1.12514,-0.989513 0.89884,-0.60051 1.61246,-1.448135 2.34313,-2.137607 1.2136,-1.003933 2.04702,-2.075595 3.12702,-3.026485 1.36033,-0.96516 2.21551,-2.503234 3.16822,-3.617455 0.29231,-0.713133 0.63763,-0.935756 1.65011,-0.435534 1.1861,0.595496 2.36925,0.898017 3.58439,1.355925 0.26384,0.119588 0.5072,0.244141 0.76761,0.327093 0.79298,0.287591 1.64523,0.558047 2.37921,0.79167 1.14496,0.387242 3.77405,0.680873 4.25878,0.430212 0.81557,-0.422829 1.77182,-0.815474 2.51695,-1.439691 0.88624,-0.838424 1.46402,-0.0096 0.68253,0.979027 -0.94062,0.891948 -1.73235,1.722119 -2.8296,2.624178 -0.93464,0.977438 -1.85001,1.762179 -2.78749,2.675083 -0.2134,0.271298 -0.58547,0.231211 -0.8384,-0.09033 -0.50246,-0.638783 -1.73546,-0.101342 -3.15088,1.373412 -0.41839,0.435925 -0.48259,0.440342 -0.92284,0.0635 -0.82151,-0.557707 -1.72653,-1.149624 -2.45238,-1.482105 -0.51375,-0.234288 -0.81986,-0.150541 -0.96526,0.155349 -0.57019,1.186132 -0.85653,2.136988 -1.08483,3.306939 l -0.047,0.286849 0.44472,-0.05488 c 1.38247,-0.330963 2.28674,-0.16031 3.40805,-0.687861 0.29877,-0.206283 0.62831,-0.321323 0.94675,-0.485739 0.055,-0.04184 0.62565,-0.342165 1.26803,-0.667393 0.64237,-0.325228 1.22899,-0.646562 1.30359,-0.714074 0.20862,-0.188804 0.54483,-0.153695 0.64875,0.06775 0.78516,2.233442 1.66108,4.219811 2.33889,6.187437 0.0526,0.322604 0.36501,0.496393 0.47595,0.104855 0.35926,-1.062852 0.56254,-2.337724 0.70516,-3.392463 0.0124,-0.09313 0.0522,-0.216958 0.0885,-0.275167 0.12026,-0.192692 -0.48776,-0.567506 -1.55261,-0.957122 -0.55146,-0.201772 -0.67676,-0.464736 -0.3175,-0.666324 1.08625,-0.85601 1.74106,-2.326414 2.65996,-3.054388 0.18129,-0.164221 0.58392,-0.403345 0.71945,-0.459335 3.65453,-2.585577 6.74106,-4.086016 9.89209,-6.340435 0,-0.403702 0.76258,-0.572702 1.905,-0.422176 0.46567,0.06136 0.96097,0.107335 1.10067,0.102174 0.67829,-0.02506 0.83851,0.05376 0.75837,0.373068 -0.0588,0.23437 -0.67977,0.693931 -1.22404,0.905906 -2.71825,1.549918 -5.60341,3.363599 -7.76419,5.290465 -0.16782,0.162983 -0.385,0.302016 -0.48263,0.308962 -0.0976,0.0069 -0.42516,0.02513 -0.72785,0.04042 -1.30609,0.04272 -1.86178,0.254238 -3.14769,0.227582 -0.44019,-0.08804 -0.68656,0.371808 -0.30781,0.574513 0.52746,0.324812 1.00791,0.730786 1.54814,1.021213 0.50268,0.266108 0.54248,0.500591 0.23477,1.383313 -0.52922,1.972834 -0.95979,3.656937 -1.42944,5.391879 -0.0239,0.08857 0.0795,0.248862 0.27304,0.423333 0.51115,0.684138 0.76891,0.860755 0.97373,1.135534 0.22534,0.193572 0.41121,0.299088 0.68006,0.273043 l 0.27995,-0.02712 0.10903,-0.677334 c 0.15588,-1.542867 0.32058,-3.162524 0.20398,-4.696735 -0.0915,-1.141859 0.17154,-1.649498 0.64309,-1.885018 1.00085,-0.794086 2.47516,-2.193467 3.15306,-3.31316 0.48361,-0.237809 0.77176,-0.189584 1.11273,0.41459 1.08255,1.723025 2.12919,3.603323 3.36931,4.919746 0.57727,0.572371 0.48337,0.964541 -0.25857,1.079912 -0.38713,0.0602 -1.29227,0.411039 -1.93413,0.74969 -0.20955,0.110559 -0.60204,0.289705 -0.87221,0.398102 -0.79819,0.32026 -0.53817,0.636316 0.66054,0.802886 3.037,1.079707 5.89573,2.133728 8.46284,2.923812 1.27254,-0.07365 6.54468,-0.775128 5.50855,-0.08233 -1.61362,1.523673 -4.5608,2.193327 -5.92836,3.905468 -0.26848,0.341152 -0.45,0.490751 -0.64208,0.529167 -0.39571,0.07914 -0.43465,0.07161 -0.75613,-0.146156 z m -21.27415,-4.732121 c 0.3793,-0.588836 0.54584,-1.013707 0.48868,-1.246728 -0.0659,-0.268684 -0.42667,-0.5841 -0.81115,-0.848773 -1.25528,-1.055632 -2.81558,-1.499621 -4.28616,-1.956351 -0.40334,-0.195255 -0.42692,-0.191346 -1.33604,0.2216 -0.96683,0.439158 -1.47156,0.537279 -1.94733,0.720154 -0.82196,0.164416 -0.88296,0.34423 -0.22117,0.651915 2.00226,1.231904 4.23654,2.20593 6.18635,2.613207 0.74146,0.149999 1.03785,0.156854 1.54792,0.194081 0.0871,0.0064 0.2417,-0.13611 0.3789,-0.349097 z m 12.32271,-3.327644 c 0.78513,-0.416912 0.81147,-0.293767 -0.3567,-1.667686 -0.0693,-0.08149 -0.17466,-0.148167 -0.23416,-0.148167 -0.0595,0 -0.11085,0.06668 -0.11411,0.148167 -0.007,0.165792 -0.05,0.697024 -0.10883,1.3335 -0.0654,0.70765 0.0338,0.748379 0.8138,0.334186 z m -22.6884,-2.383487 c 0.94976,-1.899798 2.23646,-3.065656 3.65897,-4.5875 0.78038,-0.508236 1.0194,-0.873764 0.65617,-1.00345 -0.61053,-0.217972 -0.88543,-0.27206 -1.65483,-0.325592 -1.00598,-0.06999 -0.9755,-0.08198 -2.48124,0.975914 -0.78958,0.566474 -1.58001,1.125407 -2.38547,1.633635 -0.19107,0.21712 -0.21426,0.464057 0.13965,0.806521 0.53735,0.819569 1.11859,1.740226 1.49268,2.475763 0.17285,0.190985 0.35909,0.220018 0.57403,0.02471 z"
       id="path113"
       inkscape:connector-curvature="0"
       sodipodi:nodetypes="ccccccccccccsscccscccccccscccccccscccccccccscccccsscccccccccccscccscccccccccccccccccccccccccccccccccscccsccscccccccccscccccccccccccsccccccsccsccccccccccscsccccccccccccccccccccccccccccccccccccccsscscccccccsccccsssssccccccccccsssccccccccccccccsccscccccccscccccccsccccsccccsccssccccsssccccccsssccccccccccsccccccssccsccccccccccccscccccccccccccsccccccccssccccccccccccscssscccsscscsccccccccccsccscccccscscccccsccccsccccccccccccccscccccccccccsccsssccccscccccccssscccccscccssssscccccccccccccccccccccsccccccscccscscccccccccccccccsccscccccccccccscccccccccccccccccccccccccccccccccccccccccsccccccscccccccccccsccccsccccccccccccccccsccccscccscccccccsccsscccsccccsccccccccccccccccscccccsccsccsscccccscccsccccccccccccccccccccsccccccccccscccccccccccccccccccccccccccccccccccsssccscccccscccssccccccccccccccccccccccccccccscccccccccccccscccccscccccccccccccccsscccscccccccccsccccccscccccccccscccscccccscsccsccccccccccc" />
  </g>
</svg>
