<?xml version="1.0" encoding="UTF-8" standalone="no"?>
<!-- Created with Inkscape (http://www.inkscape.org/) -->

<svg
   xmlns:dc="http://purl.org/dc/elements/1.1/"
   xmlns:cc="http://creativecommons.org/ns#"
   xmlns:rdf="http://www.w3.org/1999/02/22-rdf-syntax-ns#"
   xmlns:svg="http://www.w3.org/2000/svg"
   xmlns="http://www.w3.org/2000/svg"
   xmlns:sodipodi="http://sodipodi.sourceforge.net/DTD/sodipodi-0.dtd"
   xmlns:inkscape="http://www.inkscape.org/namespaces/inkscape"
   width="210mm"
   height="297mm"
   viewBox="0 0 210 297"
   version="1.1"
   id="svg8"
   inkscape:version="0.92+devel unknown"
   sodipodi:docname="Rudolf_Kochs_Antwort_grob_vektoriert.svg">
  <defs
     id="defs2" />
  <sodipodi:namedview
     id="base"
     pagecolor="#ffffff"
     bordercolor="#666666"
     borderopacity="1.0"
     inkscape:pageopacity="0.0"
     inkscape:pageshadow="2"
     inkscape:zoom="1.4"
     inkscape:cx="428.41893"
     inkscape:cy="688.43005"
     inkscape:document-units="mm"
     inkscape:current-layer="layer1"
     inkscape:document-rotation="0"
     showgrid="false"
     inkscape:window-width="1920"
     inkscape:window-height="1178"
     inkscape:window-x="0"
     inkscape:window-y="0"
     inkscape:window-maximized="1" />
  <metadata
     id="metadata5">
    <rdf:RDF>
      <cc:Work
         rdf:about="">
        <dc:format>image/svg+xml</dc:format>
        <dc:type
           rdf:resource="http://purl.org/dc/dcmitype/StillImage" />
        <dc:title></dc:title>
      </cc:Work>
    </rdf:RDF>
  </metadata>
  <g
     inkscape:label="Ebene 1"
     inkscape:groupmode="layer"
     id="layer1">
    <path
       style="fill:#000000;stroke-width:0.08466667"
       d="m 165.88672,120.99229 c -0.12127,-0.12127 -0.0512,-0.89917 0.10204,-1.13306 0.069,-0.10529 0.12151,-0.3736 0.11848,-0.60523 -0.005,-0.38245 0.0499,-1.34438 0.11799,-2.0671 0.0154,-0.16298 0.0522,-0.37253 0.082,-0.46566 0.047,-0.14727 0.24977,-2.57465 0.244,-2.921 -0.001,-0.0699 -0.004,-0.7747 -0.006,-1.56634 -0.005,-1.82054 -0.003,-1.7172 -0.0437,-2.11666 -0.0189,-0.18627 -0.0584,-1.17687 -0.0878,-2.20134 -0.0891,-3.10311 -0.17591,-4.05133 -0.43185,-4.71833 -0.0265,-0.0691 -0.0798,-0.46451 -0.11832,-0.87867 -0.0608,-0.6529 -0.24888,-1.57134 -0.40566,-1.98066 -0.0268,-0.0699 -0.0407,-0.20909 -0.0311,-0.30942 0.01,-0.100326 -0.0228,-0.207348 -0.0721,-0.237828 -0.0493,-0.03048 -0.0897,-0.129783 -0.0897,-0.220676 0,-0.09089 -0.0736,-0.326769 -0.16344,-0.52417 -0.0899,-0.197401 -0.20846,-0.587511 -0.26348,-0.866911 -0.16644,-0.845175 -0.39179,-0.963897 -0.85666,-0.451329 -0.0773,0.08525 -0.17652,0.154996 -0.22047,0.154996 -0.0439,0 -0.18267,0.09525 -0.30829,0.211667 -0.12561,0.116416 -0.255,0.212783 -0.28752,0.214148 -0.47981,0.02014 -0.77687,0.841353 -0.82604,2.283523 -0.0183,0.53551 -0.0788,1.1308 -0.13463,1.32286 -0.10144,0.3492 -0.10144,0.3492 0.84454,1.29468 0.62912,0.62879 0.94642,1.00812 0.94728,1.13247 0.002,0.31535 0.11025,0.41724 0.2974,0.28039 0.14664,-0.10722 0.19405,-0.0845 0.50857,0.24376 0.19076,0.19911 0.46817,0.42475 0.61646,0.50143 0.30078,0.15554 0.34667,0.37416 0.12144,0.57862 -0.83595,0.75888 -2.3218,2.201 -2.72706,2.64679 -0.0847,0.0931 -0.21143,0.28372 -0.28169,0.42353 -0.29682,0.59063 -0.74866,0.65532 -0.86538,0.1239 -0.0601,-0.2735 -0.45258,-1.19032 -0.54247,-1.2671 -0.0273,-0.0233 -0.17741,-0.30903 -0.33367,-0.635 -0.67629,-1.41075 -0.72463,-1.44249 -1.33072,-0.87357 -0.2142,0.20106 -0.46237,0.39292 -0.55148,0.42634 -0.0891,0.0334 -0.16203,0.11915 -0.16203,0.1905 0,0.0713 -0.0287,0.12973 -0.0637,0.12973 -0.035,0 -0.23959,0.16192 -0.45458,0.35983 -0.21499,0.19791 -0.52923,0.48041 -0.69831,0.62778 -0.16909,0.14736 -0.30743,0.29459 -0.30743,0.32716 0,0.0326 -0.15086,0.19147 -0.33524,0.35309 -0.18439,0.16163 -0.3591,0.36901 -0.38825,0.46085 -0.12047,0.37958 -0.88517,0.33085 -0.88517,-0.0564 0,-0.18205 -1.00407,-1.12105 -1.37522,-1.28609 -0.17428,-0.0775 -0.33639,-0.20241 -0.36025,-0.27756 -0.0238,-0.0752 -0.2051,-0.22126 -0.40278,-0.32467 -0.39988,-0.20919 -0.82301,-0.49043 -1.20609,-0.80165 -0.1397,-0.1135 -0.45133,-0.30598 -0.6925,-0.42773 -0.24118,-0.12176 -0.46386,-0.26238 -0.49483,-0.31249 -0.10225,-0.16545 -0.10958,-0.54512 -0.0128,-0.66335 0.079,-0.0965 0.12945,-1.04972 0.15298,-2.88943 0.009,-0.73193 -0.14121,-3.267092 -0.20618,-3.471331 -0.0222,-0.06985 -0.10789,-0.45085 -0.19039,-0.846667 -0.0825,-0.395817 -0.17628,-0.750204 -0.20839,-0.787526 -0.12576,-0.146148 0.0284,-0.502138 0.25961,-0.599335 0.12943,-0.05442 0.43855,-0.276017 0.68692,-0.492435 0.24838,-0.216418 0.62304,-0.530126 0.83259,-0.697129 0.7473,-0.595565 1.14104,-0.943444 1.5639,-1.381742 0.23585,-0.244475 0.47576,-0.4445 0.53313,-0.4445 0.0574,0 0.10431,-0.05124 0.10431,-0.113878 0,-0.397398 0.47912,-0.47957 0.80612,-0.138255 0.13482,0.140727 0.43722,0.369336 0.672,0.50802 0.61467,0.363081 0.73074,0.438154 1.06155,0.686534 0.16316,0.122516 0.50621,0.336114 0.76233,0.474665 0.25611,0.138551 0.61385,0.352636 0.79497,0.475745 0.50541,0.343526 0.62255,0.305757 0.68439,-0.220664 0.0544,-0.463025 0.003,-3.864493 -0.0662,-4.381501 -0.0218,-0.162983 -0.068,-0.785247 -0.10267,-1.382808 -0.0715,-1.232476 -0.10284,-1.280317 -0.62362,-0.95156 -0.18967,0.119735 -0.36669,0.217702 -0.39337,0.217702 -0.324,0 -3.25686,2.656724 -3.25686,2.950211 0,0.03935 -0.0762,0.140504 -0.16933,0.224789 -0.0931,0.08429 -0.16933,0.188857 -0.16933,0.232384 0,0.337611 -0.61795,0.487292 -0.80887,0.195923 -0.0745,-0.113681 -0.26586,-0.344993 -0.42528,-0.514029 -0.15942,-0.169034 -0.28985,-0.345444 -0.28985,-0.392021 0,-0.103103 -0.21453,-0.326591 -0.31351,-0.326591 -0.0394,0 -0.23336,-0.219075 -0.43107,-0.486833 -1.04479,-1.414923 -1.10372,-1.352125 -1.25161,1.3335 -0.0262,0.47538 -0.0939,1.246732 -0.15613,1.778 -0.12159,1.03828 -0.23562,1.837872 -0.2777,1.947334 -0.0269,0.06985 -0.0562,0.18415 -0.0653,0.254 -0.009,0.06985 -0.0441,0.211554 -0.0778,0.314898 -0.0807,0.247171 -0.20449,1.251282 -0.25865,2.098102 -0.0238,0.372533 -0.0701,0.810683 -0.10288,0.973667 -0.0328,0.162983 -0.0495,0.454884 -0.0371,0.648669 0.0123,0.193782 -0.017,0.425872 -0.0651,0.515762 -0.0481,0.0899 -0.11007,0.35043 -0.13769,0.579 -0.0276,0.22856 -0.10843,0.77346 -0.17954,1.21089 -0.0711,0.43743 -0.13238,1.06608 -0.13615,1.397 -0.004,0.33092 -0.0274,0.63842 -0.0525,0.68332 -0.0251,0.0449 -0.0565,0.36875 -0.0698,0.71967 -0.0132,0.35091 -0.0381,0.80947 -0.0553,1.01902 -0.0172,0.20955 -0.0594,0.762 -0.094,1.22767 -0.0817,1.10242 -0.10615,1.30434 -0.25906,2.13736 -0.0705,0.38392 -0.12095,0.72682 -0.11218,0.762 0.009,0.0352 -0.0112,0.25447 -0.0444,0.48731 -0.0332,0.23283 -0.0993,0.86148 -0.14682,1.397 -0.0475,0.53551 -0.10101,1.08796 -0.11886,1.22766 -0.0178,0.1397 -0.053,0.8719 -0.0782,1.6271 -0.0526,1.57724 -0.14962,1.88165 -0.60097,1.88538 -0.0931,8.4e-4 -0.52207,0.22994 -0.95319,0.50929 -0.43112,0.27934 -0.81727,0.5079 -0.8581,0.5079 -0.0408,0 -0.13194,0.0881 -0.20247,0.19572 -0.0705,0.10764 -0.28026,0.24126 -0.46604,0.29692 -0.25547,0.0765 -0.37192,0.17312 -0.47781,0.39625 -0.0935,0.1971 -0.21608,0.31168 -0.3692,0.34515 -0.44245,0.0967 -0.48986,0.12268 -0.36498,0.19986 0.17414,0.10763 -0.20238,0.45377 -0.41888,0.38506 -0.0932,-0.0296 -0.16499,-0.013 -0.16499,0.038 0,0.0497 0.0381,0.0904 0.0847,0.0904 0.17967,0 0.0737,0.25352 -0.127,0.30391 -0.12585,0.0316 -0.21166,0.11375 -0.21166,0.20269 0,0.0982 -0.0655,0.15015 -0.1905,0.15124 -0.10478,9.3e-4 -0.2286,0.0102 -0.27517,0.0206 -0.32529,0.0728 -0.54991,-0.2254 -0.29056,-0.38568 0.0497,-0.0307 0.0721,-0.10359 0.0498,-0.16188 -0.0224,-0.0583 0.0322,-0.16837 0.12122,-0.24461 0.089,-0.0762 0.16473,-0.22471 0.16819,-0.32995 0.0106,-0.32141 0.0772,-0.59583 0.1724,-0.7106 0.0498,-0.0601 0.0991,-0.3678 0.10937,-0.68382 0.0155,-0.47403 0.045,-0.57966 0.16894,-0.60353 0.11467,-0.0221 0.13756,-0.0793 0.0967,-0.24195 -0.032,-0.12738 -0.005,-0.28763 0.0681,-0.39858 0.0669,-0.10207 0.14407,-0.3933 0.17155,-0.64721 0.0629,-0.58101 0.2155,-1.43999 0.27211,-1.5316 0.0236,-0.0383 0.0805,-0.3656 0.12635,-0.72745 0.0459,-0.36186 0.0997,-0.75317 0.11957,-0.86959 0.0414,-0.24186 0.0942,-0.65207 0.22374,-1.73566 0.0501,-0.4191 0.10574,-0.85725 0.12368,-0.97367 0.0179,-0.11642 0.0559,-0.40217 0.0844,-0.635 0.0285,-0.23283 0.10127,-0.63288 0.1617,-0.889 0.0604,-0.25612 0.1569,-0.84667 0.21436,-1.31233 0.0574,-0.46567 0.13944,-0.891 0.18217,-0.94517 0.0427,-0.0542 0.0728,-0.26373 0.0668,-0.46567 -0.006,-0.20194 0.0338,-0.57671 0.0884,-0.83283 0.0546,-0.25612 0.10923,-0.63712 0.12138,-0.84667 0.0173,-0.29837 0.17507,-1.71839 0.33863,-3.048 0.009,-0.0699 0.0608,-0.3175 0.11603,-0.55033 0.0552,-0.23283 0.11891,-0.899585 0.1415,-1.481668 0.0226,-0.582083 0.096,-1.877483 0.16318,-2.878667 0.11406,-1.700624 0.10912,-3.475104 -0.0102,-3.668204 -0.0666,-0.107682 -0.11543,-0.792574 -0.23214,-3.253247 -0.0226,-0.477282 -0.0759,-0.934482 -0.11824,-1.016 -0.0424,-0.08152 -0.0677,-0.281566 -0.0562,-0.444549 0.0115,-0.162984 -0.0316,-0.429684 -0.0957,-0.592667 -0.0641,-0.162984 -0.12828,-0.49029 -0.14259,-0.727349 -0.0182,-0.300576 -0.0821,-0.491173 -0.21125,-0.629798 -0.36699,-0.393925 -0.14834,-0.887598 0.49198,-1.110818 0.1589,-0.05539 0.41975,-0.189506 0.57968,-0.298039 0.15993,-0.108531 0.33671,-0.19733 0.39285,-0.19733 0.0561,0 0.16787,-0.07272 0.2483,-0.161596 0.0804,-0.08888 0.26732,-0.210322 0.41529,-0.269872 0.14797,-0.05955 0.3603,-0.215433 0.47182,-0.346403 0.11153,-0.130971 0.25441,-0.238129 0.3175,-0.238129 0.0631,0 0.11473,-0.03514 0.11473,-0.0781 0,-0.04295 0.12382,-0.119231 0.27516,-0.169503 0.15134,-0.05027 0.40437,-0.243727 0.56227,-0.429899 0.34549,-0.407323 0.54803,-0.426195 0.94377,-0.08794 0.16122,0.137808 0.34195,0.252108 0.40162,0.254 0.0597,0.0019 0.13042,0.06059 0.15723,0.130441 0.0268,0.06985 0.0923,0.127848 0.1455,0.128883 0.0532,0.001 0.19203,0.07639 0.30845,0.167451 0.11641,0.09106 0.27834,0.166414 0.35983,0.16745 0.0815,0.001 0.22437,0.07808 0.3175,0.171216 0.0931,0.09313 0.21886,0.169334 0.2794,0.169334 0.0605,0 0.14968,0.03961 0.1981,0.08803 0.11972,0.119717 0.59734,0.389727 0.983,0.555706 0.17462,0.07515 0.3175,0.165986 0.3175,0.201848 0,0.03586 0.12382,0.115109 0.27517,0.176107 0.15134,0.061 0.42756,0.207373 0.61383,0.325279 0.18627,0.117905 0.59228,0.337208 0.90227,0.487339 0.30998,0.150131 0.58846,0.313178 0.61883,0.362326 0.0304,0.04915 0.10909,0.08936 0.17492,0.08936 0.16521,0 1.06529,0.424087 1.2451,0.586655 0.0809,0.07316 0.22562,0.20829 0.32159,0.300297 0.17403,0.166866 0.17554,0.16668 0.60304,-0.07363 0.23571,-0.132502 0.5863,-0.253038 0.77908,-0.267856 0.19278,-0.01482 0.541,-0.06896 0.77384,-0.120318 0.23283,-0.05136 0.61383,-0.125831 0.84666,-0.165495 0.23284,-0.03966 0.51859,-0.110809 0.635,-0.158099 0.11642,-0.04729 0.49742,-0.166244 0.84667,-0.264341 0.34925,-0.0981 0.7493,-0.219388 0.889,-0.269534 0.1397,-0.05015 0.4064,-0.131657 0.59267,-0.181132 0.18626,-0.04948 0.43391,-0.155703 0.55033,-0.23606 0.11642,-0.08036 0.44027,-0.196076 0.71967,-0.257151 0.291,-0.06361 0.63457,-0.210354 0.80433,-0.343537 0.87506,-0.686534 1.53321,-0.100772 0.762,0.678189 -0.18627,0.188138 -0.339,0.37213 -0.3394,0.408873 0,0.03674 -0.1319,0.205166 -0.29221,0.374275 -0.1603,0.169108 -0.31659,0.407593 -0.34731,0.529967 -0.0307,0.122373 -0.0897,0.243434 -0.13113,0.269026 -0.0414,0.02559 -0.0753,0.11474 -0.0753,0.198107 0,0.08337 -0.13585,0.407576 -0.3019,0.720462 -0.24061,0.453423 -0.28147,0.593487 -0.20129,0.690093 0.0802,0.0967 0.0728,0.121208 -0.0368,0.121208 -0.0755,0 -0.13737,0.04478 -0.13737,0.09952 0,0.05473 -0.12713,0.369059 -0.28252,0.6985 -0.57076,1.21004 -0.64881,1.413514 -0.64881,1.691268 0,0.155884 -0.0572,0.445405 -0.127,0.643381 -0.0699,0.197976 -0.127,0.465111 -0.127,0.593633 0,0.128523 -0.0569,0.342807 -0.12648,0.476189 -0.0696,0.133381 -0.12807,0.337761 -0.13002,0.454178 -0.004,0.239294 -0.20568,1.127363 -0.28527,1.256148 -0.0789,0.12768 -0.31774,1.437964 -0.34975,1.918852 -0.0256,0.384229 -0.017,0.408152 0.093,0.258985 0.0666,-0.09039 0.12119,-0.191357 0.12119,-0.224367 0,-0.03301 0.12382,-0.189023 0.27516,-0.346695 0.15134,-0.157672 0.54187,-0.592585 0.86784,-0.966472 0.32596,-0.373887 0.72601,-0.784712 0.889,-0.912944 0.16298,-0.128231 0.76814,-0.678203 1.3448,-1.22216 0.57666,-0.543958 1.1419,-1.050969 1.25608,-1.126691 0.11418,-0.07572 0.28056,-0.257647 0.36973,-0.404277 0.14338,-0.23577 0.44912,-0.431713 0.67361,-0.431713 0.2495,0 0.35258,0.441673 0.3898,1.670123 0.0208,0.687982 0.074,1.384228 0.11813,1.547211 0.0441,0.162983 0.0804,0.51316 0.0807,0.77817 0,0.26501 0.0386,0.505384 0.0851,0.534163 0.0466,0.02878 0.0847,0.23833 0.0847,0.465667 0,0.227337 0.0418,0.43915 0.0928,0.470696 0.051,0.03155 0.075,0.17667 0.0533,0.322497 -0.0217,0.145827 0.006,0.417541 0.0619,0.603807 0.0557,0.186267 0.10467,0.367792 0.10875,0.40339 0.0544,0.474268 0.34231,1.9922 0.41331,2.178944 0.0266,0.06985 0.0645,0.527056 0.0844,1.016006 0.0199,0.48895 0.0605,0.94615 0.0903,1.016 0.0729,0.17086 0.0985,0.40621 0.14704,1.35467 0.0226,0.44238 0.0548,0.88053 0.0714,0.97366 0.0167,0.0931 0.055,0.30269 0.0851,0.46567 0.0757,0.40914 0.17497,1.66879 0.16156,2.0505 -0.006,0.17316 0.045,1.06851 0.11348,1.98967 0.0685,0.92115 0.13843,2.11298 0.15539,2.6485 0.0587,1.85134 0.15875,3.42949 0.2256,3.55689 0.0369,0.0703 0.0301,0.33167 -0.0152,0.58073 -0.0453,0.24907 -0.0609,0.50859 -0.0348,0.57671 0.16939,0.4414 -0.29774,1.15605 -1.1245,1.72033 -0.23879,0.16299 -0.43457,0.33575 -0.43508,0.38392 -8.5e-4,0.0482 -0.12474,0.15843 -0.27608,0.24504 -0.41182,0.23567 -0.65617,0.48201 -0.65617,0.66151 0,0.12283 -0.0404,0.14746 -0.17284,0.10542 -0.12964,-0.0411 -0.24223,0.0209 -0.45051,0.2483 -0.15272,0.16673 -0.30517,0.30315 -0.33878,0.30315 -0.12026,0 -0.98185,0.6822 -1.07029,0.84744 -0.14417,0.26939 -0.25358,0.19599 -0.25358,-0.17011 0,-0.40079 -0.1149,-0.43551 -0.29416,-0.0889 -0.17273,0.33402 -0.16285,0.42754 0.0452,0.42754 0.0959,0 0.15079,0.0381 0.12201,0.0847 -0.0687,0.1111 -0.32339,0.10841 -0.43641,-0.005 z m 1.38086,-1.31137 c 0.0639,-0.16648 -0.0117,-0.24292 -0.17737,-0.17935 -0.0744,0.0286 -0.10803,0.10482 -0.0793,0.17979 0.0642,0.16727 0.19236,0.16704 0.25663,-8.5e-4 z m -7.76011,-14.81426 c 0,-0.0705 -0.11717,-0.1995 -0.26037,-0.28658 -0.1432,-0.0871 -0.31681,-0.23893 -0.3858,-0.33743 -0.069,-0.0985 -0.17126,-0.17908 -0.22727,-0.17908 -0.19253,0 -0.33209,-0.33794 -0.23982,-0.5807 0.0851,-0.22395 0.20059,-0.88445 0.22412,-1.28197 0.052,-0.87829 0.15553,-1.99429 0.22781,-2.455331 0.0988,-0.630105 0.10851,-0.919706 0.0334,-0.994829 -0.0791,-0.07906 -0.72694,0.585195 -0.78105,0.800802 -0.078,0.310925 -0.3695,0.339513 -0.57317,0.05622 -0.0962,-0.133756 -0.34674,-0.421589 -0.55684,-0.63963 -0.2101,-0.218041 -0.45046,-0.494266 -0.53412,-0.613834 -0.23375,-0.334052 -0.37405,-0.274005 -0.43172,0.184772 -0.0699,0.556175 -0.0733,0.616214 -0.0537,0.9525 0.0286,0.491258 -0.18106,2.62488 -0.34719,3.53351 -0.12325,0.67408 -0.0195,0.80325 0.73076,0.90952 0.0466,0.007 0.16086,0.0367 0.254,0.067 0.0931,0.0302 0.32893,0.0732 0.52401,0.0955 0.19507,0.0223 0.44272,0.0946 0.55033,0.1607 0.10761,0.0661 0.42426,0.1882 0.70366,0.27129 0.2794,0.0831 0.60325,0.22068 0.71966,0.30576 0.25973,0.18983 0.42334,0.20212 0.42334,0.0318 z m -55.78187,9.42999 c -0.12929,-0.0478 -0.1828,-0.13896 -0.1828,-0.31134 0,-0.44877 -0.41675,-1.1206 -1.13898,-1.83614 -0.23504,-0.23288 -0.53517,-0.56768 -0.66694,-0.74404 -0.13177,-0.17634 -0.39256,-0.41719 -0.57953,-0.53522 -0.37408,-0.23615 -0.39463,-0.39918 -0.16226,-1.28694 0.0525,-0.20071 0.11299,-0.60076 0.13436,-0.889 0.0214,-0.28824 0.059,-0.79077 0.0837,-1.11673 0.0247,-0.32597 0.0649,-1.06892 0.0894,-1.651 0.0486,-1.15425 0.0751,-1.47484 0.16496,-1.9932 0.0577,-0.33289 0.0505,-0.34669 -0.26619,-0.508 -0.17903,-0.0912 -0.44319,-0.25137 -0.58704,-0.35596 -0.14384,-0.10458 -0.39149,-0.23466 -0.55033,-0.28906 -0.158841,-0.0544 -0.372705,-0.1879 -0.475256,-0.29668 -0.5658,-0.60014 -0.891533,-0.0368 -0.644452,1.11456 0.01999,0.0931 0.05022,0.29199 0.06718,0.44189 0.01696,0.14991 0.05886,0.31789 0.0931,0.37329 0.03424,0.0554 0.07405,0.88525 0.08847,1.84411 0.01442,0.95886 0.04253,1.85768 0.06246,1.99738 0.04996,0.3501 -0.0611,0.51963 -0.477967,0.7296 -0.196351,0.0989 -0.526626,0.31743 -0.733946,0.48563 -0.207319,0.1682 -0.416869,0.30648 -0.465667,0.3073 -0.0488,8.4e-4 -0.225669,0.10624 -0.393047,0.2343 -0.167379,0.12806 -0.340794,0.23284 -0.385368,0.23284 -0.04457,0 -0.250865,0.16192 -0.458425,0.35983 -1.260416,1.20181 -1.639591,1.17643 -1.322627,-0.0885 0.247291,-0.98687 0.402785,-7.60772 0.180674,-7.69296 -0.106515,-0.0409 -0.768723,0.27475 -0.84901,0.40466 -0.02635,0.0426 -0.245231,0.17703 -0.486411,0.29867 -0.593379,0.29927 -0.565289,0.18583 -0.552454,2.23095 l 0.01143,1.82034 0.635399,0.61788 c 0.349469,0.33984 0.712598,0.67196 0.806953,0.73804 0.194436,0.1362 0.08718,0.54908 -0.142634,0.54908 -0.06532,0 -0.222559,0.13607 -0.349416,0.30239 -0.385173,0.50499 -2.48383,2.56012 -2.676926,2.6214 -0.31619,0.10036 -1.176522,-0.78447 -1.176522,-1.21002 0,-0.0512 -0.05221,-0.14522 -0.116021,-0.20904 -0.06381,-0.0638 -0.179318,-0.23842 -0.256683,-0.38802 -0.140662,-0.27201 -0.140662,-0.27201 -0.469823,-0.0826 -0.181039,0.10419 -0.308687,0.22256 -0.283664,0.26305 0.02502,0.0405 -0.0024,0.17476 -0.06103,0.29838 -0.05859,0.12362 -0.155508,0.33906 -0.21538,0.47876 -0.05987,0.1397 -0.168829,0.39311 -0.242129,0.56313 -0.0733,0.17002 -0.133274,0.35576 -0.133274,0.41275 0,0.64426 -0.636995,1.29982 -1.094432,1.12633 -0.194197,-0.0736 -1.677713,-1.00963 -1.784235,-1.12571 -0.155794,-0.16977 -0.689044,-0.51083 -0.798684,-0.51083 -0.07296,0 -0.132649,-0.0381 -0.132649,-0.0847 0,-0.23009 -1.250415,-0.0112 -1.439334,0.25193 -0.02328,0.0324 -0.270933,0.20364 -0.550333,0.38044 -0.2794,0.17681 -0.52705,0.34586 -0.550333,0.37567 -0.104823,0.13421 -0.518074,0.34663 -0.674355,0.34663 -0.09477,0 -0.172312,0.0308 -0.172312,0.0684 0,0.13145 -0.768834,0.60897 -0.980462,0.60897 -0.166779,0 -0.242446,-0.0695 -0.345708,-0.3175 -0.07271,-0.17463 -0.170776,-0.34174 -0.217929,-0.37137 -0.04715,-0.0296 -0.08573,-0.1604 -0.08573,-0.29059 0,-0.1302 -0.09049,-0.40691 -0.201084,-0.61491 -0.110596,-0.208 -0.201083,-0.41501 -0.201083,-0.46001 0,-0.045 -0.13335,-0.36657 -0.296333,-0.7146 -0.162984,-0.34803 -0.296334,-0.69866 -0.296334,-0.77919 0,-0.0805 -0.13332,-0.2962 -0.296267,-0.47928 -0.162947,-0.18309 -0.296297,-0.36221 -0.296333,-0.39807 -3.7e-5,-0.0358 -0.09532,-0.21607 -0.211733,-0.40048 -0.243569,-0.38584 -0.298106,-1.1398 -0.09425,-1.303 0.06458,-0.0517 0.214539,-0.3226 0.333244,-0.602 0.713245,-1.67879 0.819341,-1.95004 0.819341,-2.09481 0,-0.20315 0.137694,-0.46083 0.393657,-0.73669 0.110483,-0.11908 0.22321,-0.28675 0.250505,-0.37261 0.02729,-0.0859 0.156389,-0.31447 0.286875,-0.508 0.130487,-0.19354 0.307759,-0.50429 0.393939,-0.69056 0.166385,-0.35962 0.173208,-0.3701 0.494326,-0.75919 0.11402,-0.13816 0.230599,-0.35723 0.259064,-0.48683 0.02846,-0.12961 0.08683,-0.23564 0.129695,-0.23564 0.04287,0 0.07794,-0.0584 0.07794,-0.12966 0,-0.0713 0.05715,-0.15159 0.127,-0.17839 0.06985,-0.0268 0.127,-0.0942 0.127,-0.14972 0,-0.0555 0.295275,-0.29819 0.656167,-0.53922 0.360892,-0.24103 0.808567,-0.574265 0.994833,-0.740524 0.186267,-0.166258 0.463809,-0.36265 0.616762,-0.436425 0.152951,-0.07378 0.316217,-0.205372 0.362811,-0.292435 0.04659,-0.08706 0.121478,-0.158297 0.166406,-0.158297 0.04493,0 0.157888,-0.0762 0.251021,-0.169334 0.09313,-0.09313 0.263244,-0.169333 0.378022,-0.169333 0.122035,0 0.246317,0.07031 0.299312,0.169333 0.04984,0.09313 0.130852,0.169334 0.18002,0.169334 0.04917,0 0.236556,0.125964 0.416419,0.27992 0.179864,0.153957 0.414521,0.322962 0.52146,0.375569 0.106939,0.05261 0.604009,0.29006 1.104601,0.527676 0.500592,0.237616 0.910167,0.463106 0.910167,0.501096 0,0.038 0.180975,0.12658 0.402166,0.19687 0.467226,0.14848 0.602455,0.47412 0.280406,0.67525 -0.09601,0.06 -0.174572,0.14147 -0.174572,0.18113 0,0.0397 -0.0752,0.16771 -0.167109,0.28456 -0.09191,0.11684 -0.191713,0.35145 -0.221787,0.52135 -0.03007,0.1699 -0.167636,0.49568 -0.305695,0.72395 -0.138059,0.22827 -0.286697,0.60927 -0.330307,0.84667 -0.114828,0.62508 -0.125187,0.67252 -0.17745,0.81263 -0.137148,0.36766 -0.209383,0.76445 -0.186172,1.02263 0.01432,0.15933 0.05134,0.65995 0.08226,1.11248 0.05622,0.82278 0.05622,0.82278 0.426769,1.00216 0.203803,0.0987 0.389391,0.20986 0.412418,0.24712 0.02303,0.0373 0.183847,0.0944 0.357377,0.12694 0.173531,0.0326 0.42598,0.11631 0.560998,0.18613 0.371547,0.19213 0.38058,0.14619 0.432423,-2.19956 0.05612,-2.53916 -0.01221,-2.7679 -0.826822,-2.7679 -0.368982,0 -0.439679,-0.20873 -0.168629,-0.49787 0.382874,-0.40843 0.985618,-1.19118 1.40951,-1.83047 0.947863,-1.429499 1.016075,-1.465908 1.665548,-0.889 0.20955,0.18614 0.413074,0.33849 0.452276,0.33855 0.0392,7e-5 0.172551,0.078 0.296333,0.17312 0.323985,0.24905 1.101529,0.75833 1.157779,0.75833 0.05632,0 0.53543,-0.33337 0.70366,-0.48962 0.06432,-0.0597 0.265377,-0.18434 0.446785,-0.27688 0.181409,-0.0926 0.329834,-0.1999 0.329834,-0.23856 0,-0.0884 0.821401,-0.603605 0.962359,-0.603605 0.05744,0 0.150161,-0.04572 0.206041,-0.1016 0.05588,-0.05588 0.1016,-0.07233 0.1016,-0.03657 0,0.03577 0.104775,-0.0057 0.232833,-0.09217 0.128059,-0.08646 0.442384,-0.227276 0.6985,-0.312924 0.256117,-0.08565 0.550052,-0.208002 0.653188,-0.271898 0.103137,-0.0639 0.255537,-0.11641 0.338667,-0.116697 0.08313,-2.54e-4 0.259046,-0.0568 0.390925,-0.125582 0.239959,-0.125154 0.800181,0.02734 0.714804,0.194571 -0.01644,0.03219 -0.138146,0.296658 -0.270467,0.5877 -0.132321,0.291041 -0.26554,0.529175 -0.296041,0.529175 -0.115475,0 -0.136133,1.12104 -0.02434,1.32081 0.08674,0.155 0.736919,-0.40749 2.245504,-1.942643 1.01795,-1.03587 1.0345,-1.04048 1.83575,-0.511065 0.16299,0.107689 0.42969,0.240455 0.59267,0.295037 0.16298,0.05458 0.41063,0.18192 0.55033,0.282976 0.1397,0.101056 0.46355,0.272026 0.71967,0.379934 0.25612,0.107911 0.48472,0.220511 0.508,0.250221 0.0448,0.0572 0.87049,0.46499 1.3335,0.6586 0.15134,0.0633 0.27517,0.15265 0.27517,0.1986 0,0.0459 0.0572,0.0835 0.127,0.0835 0.0698,0 0.127,0.0597 0.127,0.13256 0,0.18478 -0.15757,0.4601 -0.26332,0.4601 -0.1385,0 -1.26068,0.74909 -1.26068,0.84153 0,0.0456 -0.0884,0.17022 -0.19637,0.27688 -0.26858,0.26524 -0.69791,1.38783 -0.6422,1.67918 0.013,0.0679 -0.0299,0.40916 -0.0953,0.75841 -0.0654,0.34925 -0.12017,0.6731 -0.12169,0.71967 -0.002,0.0466 -0.0334,0.10723 -0.0708,0.1348 -0.0374,0.0276 -0.1,0.27523 -0.13896,0.55034 -0.039,0.27511 -0.15131,0.74478 -0.24958,1.04372 -0.21261,0.64679 -0.19097,0.68781 0.57932,1.09837 0.27185,0.14489 0.51618,0.32052 0.54295,0.39027 0.0268,0.0698 0.10715,0.12683 0.17863,0.12683 0.0715,0 0.27214,0.0762 0.4459,0.16934 0.17377,0.0931 0.35536,0.16933 0.40354,0.16933 0.0482,0 0.29639,0.1129 0.55159,0.2509 0.63013,0.34075 1.09935,0.56277 1.35299,0.64022 0.38916,0.11881 0.59266,0.30392 0.59266,0.53911 0,0.26799 -0.21399,0.60177 -0.3858,0.60177 -0.0672,0 -0.1222,0.0381 -0.1222,0.0847 0,0.0466 -0.0375,0.0847 -0.0833,0.0847 -0.0458,0 -0.31928,0.1143 -0.60767,0.254 -0.2884,0.1397 -0.56163,0.254 -0.60719,0.254 -0.0456,0 -0.20074,0.0867 -0.34483,0.19276 -0.38451,0.28287 -1.29119,0.82324 -1.38134,0.82324 -0.0428,0 -0.20585,0.1143 -0.36232,0.254 -0.15648,0.1397 -0.34772,0.254 -0.42499,0.254 -0.0773,0 -0.1816,0.0902 -0.23184,0.20048 -0.10111,0.2219 -0.40338,0.31521 -0.68437,0.21127 z m -19.523631,-6.57176 c 0.01892,-1.78896 0.09009,-2.42964 0.378379,-3.40644 0.19376,-0.65652 0.17092,-0.69136 -0.553218,-0.84399 -0.2794,-0.0589 -0.551981,-0.14257 -0.605735,-0.18596 -0.176455,-0.14243 -0.516513,0.009 -0.566155,0.25293 -0.102287,0.5016 -0.375326,1.42889 -0.476281,1.61752 -0.250766,0.46856 -0.07951,1.36507 0.331887,1.73738 0.09531,0.0862 0.173284,0.2237 0.173284,0.30545 0,0.0817 0.148278,0.4103 0.329507,0.73012 0.342096,0.6037 0.516414,1.09289 0.454392,1.27517 -0.02079,0.0611 0.03469,0.10583 0.131321,0.10583 0.09203,0 0.191353,0.0626 0.220715,0.13912 0.123429,0.32166 0.16434,-0.0668 0.181904,-1.72713 z m 7.414368,1.31169 c -0.06646,-0.0665 -0.06575,-0.12402 0.0025,-0.20631 0.116982,-0.14095 0.03893,-0.23316 -0.139427,-0.16472 -0.155791,0.0598 -0.114091,0.46681 0.05884,0.57428 0.138193,0.0859 0.201731,-0.0796 0.07805,-0.20325 z m 83.384953,3.87444 c -0.14517,-0.17492 -0.0478,-0.59875 0.22942,-0.99881 0.22289,-0.32164 0.1942,-0.99102 -0.0496,-1.15794 -0.0692,-0.0473 -0.62995,-0.91497 -1.10947,-1.71653 -0.16018,-0.26776 -0.33082,-0.48731 -0.37919,-0.48789 -0.0484,-8.4e-4 -0.17081,-0.12903 -0.27209,-0.28546 -0.10129,-0.15643 -0.36799,-0.43023 -0.59267,-0.60846 -0.70949,-0.56277 -0.81616,-0.86141 -0.38735,-1.08445 0.12806,-0.0666 0.31133,-0.21046 0.40726,-0.31967 0.21664,-0.24661 1.46949,-1.38587 1.73712,-1.57963 0.10859,-0.0786 0.48803,-0.42869 0.8432,-0.77794 0.35517,-0.34925 0.84183,-0.80645 1.08147,-1.016 0.23964,-0.20955 0.5575,-0.55245 0.70637,-0.762 0.71989,-1.01332 0.95091,-0.88699 1.01769,0.55651 0.0302,0.65306 0.0643,0.79897 0.22774,0.97367 0.30458,0.32562 0.49218,0.66939 0.73668,1.34989 0.23944,0.66645 0.79583,1.78161 1.03741,2.07924 0.45315,0.55831 0.47147,1.30602 0.032,1.30602 -0.0442,0 -0.12513,0.054 -0.17986,0.1199 -0.0547,0.066 -0.35468,0.29304 -0.66654,0.50465 -0.31186,0.21161 -0.61497,0.46245 -0.67357,0.55743 -0.0586,0.095 -0.159,0.17269 -0.2231,0.17269 -0.0641,0 -0.17721,0.0926 -0.25135,0.20574 -0.0741,0.11315 -0.24997,0.27377 -0.39074,0.35692 -0.14075,0.0832 -0.25593,0.19348 -0.25593,0.24517 0,0.1112 -0.35711,0.46193 -0.47112,0.4627 -0.0436,0 -0.14476,0.11572 -0.22487,0.25651 -0.0801,0.14077 -0.26085,0.32151 -0.40162,0.40163 -0.15731,0.0895 -0.33734,0.31699 -0.46708,0.59016 -0.11612,0.24447 -0.2513,0.4445 -0.30042,0.4445 -0.0491,0 -0.17109,0.0762 -0.27106,0.16933 -0.21709,0.20225 -0.34652,0.21341 -0.48867,0.0421 z m -56.35889,-1.37711 c -0.0539,-0.0343 -0.12601,-0.21471 -0.16019,-0.40087 -0.0732,-0.39897 -0.42918,-1.23989 -0.55874,-1.31996 -0.10996,-0.068 -0.45555,-0.62495 -0.58614,-0.94468 -0.0523,-0.12806 -0.12947,-0.23283 -0.17148,-0.23283 -0.042,0 -0.0764,-0.0715 -0.0764,-0.15897 0,-0.0874 -0.0572,-0.20639 -0.127,-0.26436 -0.0698,-0.058 -0.127,-0.17103 -0.127,-0.25125 0,-0.0802 -0.0762,-0.2148 -0.16933,-0.29909 -0.0931,-0.0843 -0.16933,-0.22353 -0.16933,-0.30945 0,-0.0859 -0.0318,-0.15621 -0.0706,-0.15621 -0.0907,0 -0.77609,-0.63099 -0.77609,-0.71448 0,-0.15943 -1.48603,-1.81114 -1.70718,-1.89751 -0.13279,-0.0519 -0.32395,-0.21476 -1.77845,-1.51551 -0.32544,-0.29105 -0.62221,-0.52917 -0.6595,-0.52917 -0.0373,0 -0.22482,-0.1524 -0.41676,-0.33867 -0.19193,-0.18626 -0.37628,-0.33866 -0.40968,-0.33866 -0.0334,0 -0.13812,-0.086 -0.23274,-0.19117 -0.0946,-0.10514 -0.33691,-0.30288 -0.53845,-0.43942 -0.20153,-0.13654 -0.44918,-0.3356 -0.55033,-0.44237 -0.10115,-0.10677 -0.22815,-0.19478 -0.28222,-0.19558 -0.0541,-8.5e-4 -0.19448,-0.11576 -0.31203,-0.25546 -0.11755,-0.1397 -0.23747,-0.254 -0.26649,-0.254 -0.029,0 -0.19341,-0.112584 -0.3653,-0.250182 -0.17189,-0.137598 -0.44589,-0.309616 -0.60887,-0.382263 -0.27844,-0.124112 -0.37343,-0.173315 -0.74083,-0.383762 -0.0815,-0.04668 -0.24342,-0.123888 -0.35984,-0.171578 -0.20442,-0.08374 -0.46319,-0.199554 -0.9525,-0.42628 -0.37199,-0.17237 -0.17236,-0.553392 0.25733,-0.491139 0.22564,0.03269 0.51854,-0.09117 0.952,-0.402577 0.21912,-0.157423 0.43891,-0.286224 0.48841,-0.286224 0.0495,0 0.1142,-0.0762 0.14376,-0.169333 0.0296,-0.09313 0.0854,-0.169333 0.124,-0.169333 0.0386,0 0.17895,-0.09218 0.3118,-0.204834 0.13285,-0.112658 0.42453,-0.360046 0.64818,-0.549749 0.22365,-0.189703 0.48735,-0.388112 0.586,-0.440907 0.0986,-0.0528 0.26976,-0.203423 0.38025,-0.334727 0.26671,-0.316967 0.46896,-0.369458 0.78794,-0.204505 0.14536,0.07517 0.46483,0.148629 0.70993,0.163244 0.2451,0.01461 0.52312,0.06804 0.61781,0.118713 0.0947,0.05068 0.19464,0.06966 0.22211,0.04219 0.0275,-0.02747 0.20787,0.01323 0.40087,0.09045 0.19299,0.07722 0.50889,0.136036 0.70201,0.130698 0.19311,-0.0053 0.82735,-0.0076 1.40944,-0.005 1.37566,0.0061 3.63244,-0.278317 4.61377,-0.58148 0.14001,-0.04325 0.61295,-0.165346 1.05097,-0.271317 0.43802,-0.105972 0.84187,-0.238134 0.89742,-0.293694 0.0556,-0.05556 0.26868,-0.145641 0.4736,-0.200183 0.20491,-0.05454 0.49119,-0.188871 0.63616,-0.29851 0.14499,-0.10964 0.35508,-0.222304 0.46688,-0.250364 0.59251,-0.148706 1.29471,-1.312678 0.79191,-1.312678 -0.069,0 -0.12538,-0.05706 -0.12538,-0.126805 0,-0.159796 -0.57936,-0.973862 -0.69309,-0.973862 -0.0465,0 -0.17857,-0.07397 -0.2935,-0.16437 -0.11492,-0.0904 -0.59718,-0.28834 -1.07168,-0.439862 -0.4745,-0.151521 -0.96672,-0.346291 -1.09382,-0.432823 -0.1271,-0.08653 -0.31205,-0.17292 -0.41098,-0.191973 -0.0989,-0.01905 -0.30088,-0.10603 -0.44876,-0.193282 -0.14788,-0.08725 -0.37567,-0.185445 -0.50622,-0.218209 -0.13055,-0.03276 -0.38879,-0.15517 -0.57388,-0.272012 -0.19388,-0.122393 -0.40116,-0.191926 -0.48901,-0.164043 -0.0855,0.02713 -0.1995,-0.0082 -0.25948,-0.08052 -0.0588,-0.0709 -0.17385,-0.128911 -0.25558,-0.128911 -0.0817,0 -0.19603,-0.05715 -0.254,-0.127 -0.058,-0.06985 -0.16931,-0.127 -0.24743,-0.127 -0.0781,0 -0.17823,-0.03168 -0.22247,-0.07039 -0.0737,-0.06449 -0.68402,-0.267979 -0.957,-0.319076 -0.16508,-0.0309 -1.15435,-0.36318 -1.75291,-0.588776 -0.28204,-0.106302 -0.66304,-0.220526 -0.84666,-0.253831 -0.18363,-0.0333 -0.42911,-0.107995 -0.54553,-0.165979 -0.11642,-0.05798 -0.49742,-0.152051 -0.84667,-0.209038 -0.34925,-0.05699 -0.69215,-0.123229 -0.762,-0.147204 -0.0699,-0.02397 -0.29845,-0.05803 -0.508,-0.07567 -0.20955,-0.01765 -0.6104,-0.06992 -0.89078,-0.11616 -0.96057,-0.158422 -2.11108,-0.181039 -2.29084,-0.04503 -0.0895,0.06771 -0.23087,0.124323 -0.31418,0.125804 -0.0833,0.0015 -0.3054,0.155093 -0.49354,0.34136 -0.40481,0.400786 -0.41229,0.402106 -0.66055,0.11658 -0.36088,-0.415049 -0.0536,-1.029562 0.79717,-1.594281 0.2603,-0.172774 0.51891,-0.387221 0.57469,-0.476549 0.0558,-0.08933 0.14149,-0.162417 0.19045,-0.162417 0.20396,0 0.89221,-0.722177 0.78777,-0.826613 -0.15099,-0.150995 -0.005,-0.241965 0.19126,-0.119301 0.15113,0.09438 0.20992,0.06468 0.53589,-0.270717 0.20137,-0.207199 0.48184,-0.436561 0.62326,-0.50969 0.14141,-0.07313 0.32716,-0.221216 0.41276,-0.329081 0.0856,-0.107866 0.42234,-0.400398 0.74831,-0.650071 0.32597,-0.249674 0.65717,-0.520199 0.73599,-0.601167 0.0788,-0.08097 0.31185,-0.268248 0.51785,-0.416176 0.20598,-0.147929 0.45729,-0.380915 0.55845,-0.517749 0.10117,-0.136832 0.3397,-0.347115 0.53008,-0.467295 0.19038,-0.12018 0.61753,-0.495483 0.94922,-0.834007 0.3317,-0.338524 0.67928,-0.639956 0.77241,-0.669849 0.0931,-0.02989 0.25541,-0.187536 0.36061,-0.350318 0.40402,-0.62514 1.00698,-0.291095 0.96871,0.536671 -0.0217,0.470323 -0.0159,0.483832 0.29792,0.691362 0.39023,0.258048 0.39997,0.265252 0.85727,0.634399 0.20232,0.163315 0.4008,0.296935 0.44107,0.296935 0.0403,0 0.1605,0.09028 0.26716,0.200634 0.10666,0.110349 0.51778,0.404154 0.91359,0.652901 0.39582,0.248747 0.73872,0.472786 0.762,0.497866 0.0792,0.08531 0.4207,0.257265 0.51092,0.257265 0.11696,0 0.49895,0.434512 0.50241,0.571501 0.001,0.05821 0.0598,0.105833 0.12968,0.105833 0.0699,0 0.2032,0.0762 0.29633,0.169333 0.0931,0.09313 0.19791,0.16974 0.23283,0.170237 0.0349,5.08e-4 0.25391,0.176475 0.48663,0.391064 0.23272,0.214589 0.49942,0.425676 0.59267,0.469082 0.55335,0.257579 0.90088,0.501397 1.27683,0.895784 0.23305,0.244475 0.46595,0.4445 0.51755,0.4445 0.21857,0 2.42349,2.179047 2.3634,2.335654 -0.023,0.05988 0.0323,0.203038 0.12282,0.318131 0.0905,0.115091 0.1646,0.237541 0.1646,0.272111 0,0.03457 0.0923,0.257159 0.20514,0.494645 0.45932,0.966808 0.49383,1.083268 0.44449,1.499848 -0.0265,0.223671 -0.14341,0.570161 -0.25983,0.769977 -0.11642,0.199816 -0.36776,0.668101 -0.55853,1.040635 -0.19078,0.372533 -0.47941,0.848783 -0.64141,1.058333 -0.16199,0.20955 -0.31713,0.447675 -0.34474,0.529167 -0.0276,0.08149 -0.0839,0.148166 -0.12499,0.148166 -0.0411,0 -0.0748,0.03736 -0.0748,0.08302 0,0.349809 -0.59775,0.982518 -1.07075,1.133364 -0.27258,0.08693 -0.54147,0.194922 -0.59754,0.239985 -0.173,0.139017 -0.73205,0.406295 -0.84982,0.406295 -0.0614,0 -0.43936,0.17145 -0.83993,0.381 -0.40056,0.20955 -0.79409,0.381 -0.87453,0.381 -0.0804,0 -0.37069,0.113818 -0.64501,0.252927 -0.27432,0.139111 -0.55591,0.25343 -0.62576,0.254044 -0.0699,5.92e-4 -0.33655,0.08152 -0.59267,0.179802 -0.48259,0.185182 -1.93689,0.515005 -2.02653,0.4596 -0.0483,-0.02987 -1.22255,0.170242 -1.40247,0.239017 -0.0466,0.0178 -0.20998,0.06133 -0.36314,0.09673 -0.37257,0.08612 -0.30719,0.213156 0.18331,0.356181 0.22208,0.06475 0.62008,0.235489 0.88446,0.379415 1.05718,0.575504 1.22992,0.660949 1.33622,0.660949 0.0609,0 0.251,0.09525 0.42254,0.211667 0.17155,0.116416 0.39594,0.211667 0.49864,0.211667 0.10271,0 0.25569,0.0762 0.33997,0.16933 0.0843,0.0931 0.21402,0.16951 0.28829,0.16972 0.0743,2.6e-4 0.24935,0.10588 0.38905,0.2348 0.1397,0.12892 0.53975,0.41133 0.889,0.62757 0.34925,0.21624 0.74109,0.4844 0.87077,0.59592 0.12968,0.11152 0.37733,0.25374 0.55033,0.31604 0.17301,0.0623 0.36435,0.18377 0.4252,0.26994 0.0609,0.0862 0.17564,0.15668 0.25509,0.15668 0.0794,0 0.18207,0.0857 0.22803,0.1905 0.046,0.10477 0.2074,0.245 0.35875,0.31161 0.15134,0.0666 0.27516,0.17019 0.27516,0.23017 0,0.24507 0.27524,-0.0243 0.64912,-0.63532 0.21784,-0.35602 0.48476,-0.74463 0.59315,-0.8636 0.10839,-0.11896 0.19707,-0.25968 0.19707,-0.3127 0,-0.053 0.0667,-0.14618 0.14816,-0.20703 0.0815,-0.0609 0.20269,-0.21628 0.26934,-0.3454 0.0666,-0.12913 0.23117,-0.35773 0.36559,-0.508 0.13443,-0.15028 0.30749,-0.40658 0.38459,-0.569564 0.0771,-0.162983 0.27552,-0.505883 0.44093,-0.762 0.38094,-0.589807 0.96051,-1.765557 0.95674,-1.940901 -0.002,-0.07339 0.0493,-0.193658 0.11304,-0.267267 0.0905,-0.104461 0.11547,-0.531848 0.1139,-1.947333 -0.001,-0.997424 0.0172,-2.023049 0.0406,-2.279166 0.0933,-1.018514 0.046,-4.389309 -0.0712,-5.08 -0.11372,-0.670159 -0.20772,-1.562914 -0.17083,-1.622603 0.0217,-0.03511 0.003,-0.132068 -0.0408,-0.215453 -0.0441,-0.08339 -0.12433,-0.380211 -0.17823,-0.659611 -0.0539,-0.2794 -0.11562,-0.57066 -0.13717,-0.647246 -0.0586,-0.208115 0.20136,-0.416738 0.50389,-0.404444 0.31315,0.01273 0.88724,-0.180102 1.66401,-0.558915 0.11642,-0.05677 0.36407,-0.149114 0.55034,-0.205203 0.36953,-0.111275 0.85803,-0.330995 1.05833,-0.476023 0.0699,-0.05057 0.29845,-0.140698 0.508,-0.200271 0.20955,-0.05957 0.52779,-0.178882 0.7072,-0.26513 0.17942,-0.08625 0.54137,-0.218511 0.80434,-0.293918 0.26297,-0.07541 0.57338,-0.199086 0.68979,-0.274844 0.11642,-0.07576 0.4538,-0.222895 0.74973,-0.326971 0.29594,-0.104076 0.60374,-0.24866 0.684,-0.321299 0.0803,-0.07264 0.18696,-0.13207 0.2371,-0.13207 0.0502,0 0.23764,-0.07298 0.41667,-0.162174 0.17903,-0.0892 0.61623,-0.298891 0.97157,-0.46599 0.35534,-0.167099 0.69338,-0.360821 0.7512,-0.430493 0.0578,-0.06967 0.15762,-0.126676 0.22176,-0.126676 0.0641,0 0.11664,-0.0381 0.11664,-0.08467 0,-0.04657 0.1143,-0.08467 0.254,-0.08467 0.43381,0 0.0696,1.006597 -0.36861,1.018676 -0.11424,0.0031 -0.56111,0.381986 -0.56631,0.480096 -0.002,0.03716 -0.11627,0.161024 -0.254,0.275257 -0.13773,0.114232 -0.25041,0.249979 -0.25041,0.301659 0,0.05168 -0.11817,0.205868 -0.26261,0.342639 -0.3293,0.311846 -1.26139,1.451483 -1.26139,1.542269 0,0.0808 -0.24822,0.56952 -0.43953,0.865405 -0.0753,0.116416 -0.16397,0.383116 -0.1971,0.592666 -0.0331,0.20955 -0.13141,0.529733 -0.21841,0.711517 -0.087,0.181784 -0.18382,0.467534 -0.21515,0.635 -0.0313,0.167466 -0.17872,0.647383 -0.32752,1.066484 -0.1488,0.4191 -0.25353,0.810906 -0.23275,0.870679 0.0208,0.05977 0,0.155024 -0.0457,0.211667 -0.046,0.05664 -0.16478,0.407787 -0.26408,0.78032 -0.0993,0.372534 -0.23408,0.791634 -0.29955,0.931334 -0.12565,0.268153 -0.38484,1.275185 -0.38484,1.495234 0,0.07136 -0.0552,0.240455 -0.12273,0.375762 -0.0675,0.135308 -0.13776,0.420939 -0.15613,0.634737 -0.0184,0.213798 -0.0541,0.423271 -0.0793,0.465495 -0.0252,0.04222 -0.0736,0.324422 -0.1075,0.627105 -0.0339,0.302684 -0.0848,0.588434 -0.11309,0.635 -0.0659,0.108323 -0.0878,0.187668 -0.15202,0.550334 -0.0289,0.162983 -0.089,0.342226 -0.13369,0.398317 -0.0896,0.11248 -0.23517,0.719823 -0.48691,2.030996 -0.0911,0.474639 -0.26475,1.160439 -0.3858,1.524001 -0.33706,1.012236 -0.33682,1.102006 0.004,1.479066 0.1617,0.179 0.29401,0.36251 0.29401,0.40781 0,0.0453 0.13976,0.20712 0.31057,0.35959 0.17083,0.15247 0.3899,0.36821 0.48684,0.47943 0.26237,0.301 1.32103,1.44847 1.64012,1.77772 0.15319,0.15807 0.37589,0.45353 0.49488,0.65657 0.26651,0.45476 0.35397,0.45836 0.74051,0.0305 0.16829,-0.18626 0.33465,-0.33885 0.36969,-0.33909 0.57872,-0.004 0.8156,-0.99583 0.65697,-2.75124 -0.0421,-0.46567 -0.0712,-1.244159 -0.0647,-1.729978 0.0126,-0.938251 -0.0503,-1.097243 -0.43644,-1.103666 -0.18273,-0.003 -0.97797,-0.227276 -1.36211,-0.384084 -0.1397,-0.05702 -0.49384,-0.152512 -0.78699,-0.212193 -0.59681,-0.121503 -0.66881,-0.275628 -0.23552,-0.504172 0.13546,-0.07145 0.31616,-0.196585 0.40157,-0.278077 0.0854,-0.08149 0.19584,-0.148167 0.24541,-0.148167 0.0496,0 0.18631,-0.1143 0.30386,-0.254 0.11755,-0.1397 0.25011,-0.254 0.29458,-0.254 0.12052,0 2.27476,-2.22385 2.27476,-2.34827 0,-0.05889 0.0335,-0.107063 0.0744,-0.107063 0.0409,0 0.12234,-0.115757 0.18094,-0.257236 0.1988,-0.479938 0.57769,-0.503814 1.08111,-0.06813 0.15296,0.132383 0.35109,0.240696 0.44029,0.240696 0.0892,0 0.19265,0.05195 0.22989,0.115453 0.0372,0.0635 0.35345,0.261889 0.7027,0.440865 0.34925,0.178976 0.68535,0.374672 0.74688,0.43488 0.0615,0.06021 0.16631,0.109469 0.23284,0.109469 0.0665,0 0.12095,0.03348 0.12095,0.07439 0,0.04092 0.1143,0.121739 0.254,0.179605 0.1397,0.05786 0.254,0.117845 0.254,0.133288 0,0.08819 -0.20582,0.459378 -0.25473,0.459378 -0.0509,0 -0.1371,0.179236 -0.42749,0.889001 -0.14777,0.361169 -0.29976,1.905 -0.18755,1.905 0.0466,0 0.19035,-0.1524 0.31944,-0.338667 0.12908,-0.186267 0.26505,-0.338667 0.30214,-0.338667 0.0371,0 0.0937,-0.0828 0.12584,-0.183991 0.0321,-0.101195 0.12896,-0.259732 0.2152,-0.352304 0.0863,-0.09257 0.28161,-0.409685 0.43415,-0.704696 0.15254,-0.29501 0.32485,-0.536524 0.38292,-0.536696 0.0581,-1.69e-4 0.2532,-0.133663 0.4336,-0.296646 0.1804,-0.162984 0.37101,-0.296334 0.42358,-0.296334 0.0526,0 0.0956,-0.04894 0.0956,-0.108745 0,-0.05981 0.11204,-0.174934 0.24899,-0.255832 0.21378,-0.126278 0.46091,-0.334501 1.10567,-0.931579 0.0699,-0.06468 0.27694,-0.279825 0.4602,-0.47809 0.34359,-0.37172 0.53849,-0.345468 0.5637,0.07593 0.0214,0.35745 0.078,0.757258 0.15054,1.063317 0.0442,0.186267 0.12517,0.567267 0.18004,0.846667 0.0549,0.2794 0.19103,0.8128 0.30258,1.185334 0.11155,0.372533 0.22824,0.829733 0.25931,1.016 0.0311,0.186266 0.10731,0.416779 0.1694,0.51225 0.12732,0.195799 -0.0415,0.546083 -0.26318,0.546083 -0.0633,0 -0.12784,0.02857 -0.14337,0.0635 -0.0155,0.03493 -0.25682,0.215786 -0.53622,0.401914 -0.2794,0.186127 -0.62,0.443302 -0.7569,0.5715 -0.1369,0.128193 -0.28969,0.233083 -0.33954,0.233083 -0.0498,0 -0.19091,0.093 -0.31348,0.20666 -0.12259,0.11366 -0.24512,0.1844 -0.27232,0.15721 -0.0272,-0.0272 -0.0735,0.0132 -0.10283,0.0897 -0.0293,0.0765 -0.10645,0.13912 -0.17132,0.13912 -0.0649,0 -0.11794,0.0386 -0.11794,0.0857 0,0.0471 -0.20002,0.21405 -0.4445,0.3709 -0.24447,0.15685 -0.65405,0.47979 -0.91017,0.71765 -0.25611,0.23786 -0.52281,0.42243 -0.59266,0.41015 -0.13743,-0.0242 -0.13813,-0.0478 -0.0415,-1.41509 0.10741,-1.519154 0.0997,-1.729911 -0.0644,-1.761704 -0.0897,-0.01739 -0.14816,0.02305 -0.14816,0.102547 0,0.07219 -0.0938,0.192693 -0.20837,0.267783 -0.1146,0.07509 -0.23332,0.218842 -0.26383,0.319451 -0.0305,0.10061 -0.1461,0.303963 -0.25688,0.451903 -0.11079,0.14793 -0.21463,0.35547 -0.23076,0.46119 -0.0161,0.10573 -0.0766,0.20799 -0.13445,0.22726 -0.17571,0.0586 -0.43153,0.77134 -0.45239,1.26042 -0.0217,0.50956 -0.0661,0.45168 1.12341,1.46515 0.697,0.59385 1.26993,1.27874 1.26993,1.51809 0,0.0498 0.0374,0.0906 0.0831,0.0906 0.0457,0 0.10722,0.0963 0.13675,0.2139 0.0295,0.11764 0.1251,0.25212 0.2124,0.29884 0.0873,0.0467 0.22157,0.20764 0.29841,0.3576 0.0768,0.14996 0.16295,0.29204 0.19137,0.31573 0.43558,0.36293 0.49022,0.9306 0.0896,0.9306 -0.18189,0 -1.2525,0.90867 -1.86337,1.58152 -0.11925,0.13134 -0.39611,0.40614 -0.61523,0.61066 -0.21914,0.20451 -0.42272,0.47121 -0.45239,0.59266 -0.0297,0.12145 -0.0785,0.23987 -0.10852,0.26316 -0.03,0.0233 -0.14102,0.16615 -0.24673,0.3175 -0.24348,0.34861 -0.77332,0.29008 -0.77332,-0.0854 0,-0.028 -0.1143,-0.29787 -0.254,-0.5997 -0.1397,-0.30182 -0.254,-0.58615 -0.254,-0.63185 0,-0.0457 -0.053,-0.1034 -0.11769,-0.12823 -0.11259,-0.0432 -0.39031,-0.51452 -0.39031,-0.66241 0,-0.0389 -0.15235,-0.29025 -0.33855,-0.55849 -0.18621,-0.26825 -0.33861,-0.51732 -0.33867,-0.55348 0,-0.0695 -0.44842,-0.59189 -0.69861,-0.814 -0.0815,-0.0724 -0.14817,-0.16448 -0.14817,-0.20472 0,-0.0403 -0.11782,-0.23725 -0.26183,-0.43778 -0.21686,-0.30197 -0.24595,-0.39428 -0.16933,-0.53744 0.14385,-0.2688 0.12067,-0.69747 -0.0345,-0.63793 -0.0698,0.0268 -0.127,0.0946 -0.127,0.15061 0,0.056 -0.11358,0.21804 -0.2524,0.36003 -0.13882,0.14199 -0.36759,0.49032 -0.50838,0.77407 -0.14078,0.28375 -0.30695,0.54629 -0.36927,0.58342 -0.0623,0.0371 -0.185,0.17863 -0.27263,0.31447 -0.2351,0.36442 -0.46086,0.63493 -0.85023,1.01875 -0.19134,0.18862 -0.37196,0.41948 -0.40138,0.51303 -0.0294,0.0936 -0.13778,0.20785 -0.2408,0.254 -0.10302,0.0461 -0.33046,0.29346 -0.50543,0.54958 -0.17498,0.25611 -0.47204,0.60005 -0.66015,0.76431 -0.1881,0.16425 -0.34285,0.35475 -0.34388,0.42333 -0.006,0.36699 -0.57268,0.6792 -0.78659,0.433 -0.12902,-0.14849 -0.12945,-0.15001 -0.38769,-1.35377 -0.18633,-0.86861 -0.7688,-2.18624 -1.67653,-3.79257 -0.18794,-0.33258 -0.38137,-0.71847 -0.42985,-0.85753 -0.0485,-0.13905 -0.20349,-0.41207 -0.34448,-0.6067 -0.14099,-0.19464 -0.28103,-0.46629 -0.31121,-0.60368 -0.092,-0.41888 -0.29169,-0.44579 -0.68708,-0.0926 -0.62011,0.55394 -0.83016,0.72919 -1.17436,0.97981 -0.18626,0.13563 -0.35136,0.27851 -0.36688,0.3175 -0.0155,0.039 -0.0647,0.0709 -0.10927,0.0709 -0.13213,0 -0.58218,0.36226 -0.58218,0.46863 0,0.054 -0.0762,0.18598 -0.16933,0.29337 -0.0931,0.10738 -0.16934,0.2244 -0.16934,0.26005 0,0.0356 -0.13335,0.14722 -0.29633,0.24795 -0.16298,0.10073 -0.29633,0.21388 -0.29633,0.25144 0,0.0376 -0.32385,0.40178 -0.71967,0.80934 -0.39582,0.40757 -0.71967,0.76533 -0.71967,0.79501 0,0.0297 -0.2667,0.33757 -0.59266,0.68421 -0.32597,0.34663 -0.59267,0.65481 -0.59267,0.68485 0,0.03 -0.20934,0.31685 -0.46519,0.63738 -0.25587,0.32052 -0.46542,0.62636 -0.46567,0.67964 -10e-4,0.29672 -0.59383,0.70058 -0.8182,0.5578 z m 54.20246,-7.29347 c -0.0282,-0.089 0.0116,-0.76526 0.0885,-1.50283 0.18137,-1.7396 0.21388,-9.299708 0.04,-9.299708 -0.006,0 -0.0111,-0.40005 -0.011,-0.889 0,-1.253991 -0.0178,-3.313984 -0.0357,-4.064001 -0.015,-0.62874 -0.0506,-1.21523 -0.21323,-3.513667 -0.0461,-0.651933 -0.10235,-1.69337 -0.12495,-2.314303 -0.0263,-0.723086 -0.0851,-1.225331 -0.16344,-1.397 -0.0673,-0.147417 -0.14825,-0.57283 -0.1799,-0.945364 -0.0316,-0.372533 -0.11082,-0.807295 -0.17594,-0.966136 -0.0651,-0.158842 -0.0968,-0.356962 -0.0703,-0.440269 0.0264,-0.08331 -0.004,-0.258144 -0.0672,-0.38853 -0.29595,-0.608513 -0.10094,-1.630975 0.31183,-1.63494 0.0501,-5.08e-4 0.25039,-0.08621 0.44509,-0.1905 0.1947,-0.104294 0.5376,-0.284875 0.762,-0.401292 0.2244,-0.116416 0.42069,-0.240241 0.43621,-0.275166 0.0155,-0.03493 0.081,-0.0635 0.14559,-0.0635 0.16455,0 0.74367,-0.333381 0.82523,-0.475051 0.0725,-0.125901 0.27613,-0.158829 0.33469,-0.05412 0.0195,0.03493 0.0234,0.01466 0.009,-0.04504 -0.0148,-0.0597 0.0668,-0.144158 0.18133,-0.187688 0.11449,-0.04353 0.29208,-0.175659 0.39465,-0.293622 0.10257,-0.117964 0.25581,-0.214479 0.34055,-0.214479 0.0847,0 0.15407,-0.03733 0.15407,-0.08295 0,-0.04562 0.1524,-0.160694 0.33866,-0.25572 0.18627,-0.09503 0.33867,-0.2101 0.33867,-0.255721 0,-0.04562 0.0572,-0.08295 0.127,-0.08295 0.0699,0 0.20411,-0.07712 0.29837,-0.171368 0.0943,-0.09425 0.35726,-0.285746 0.58446,-0.425544 0.22719,-0.139796 0.43463,-0.310331 0.46097,-0.378965 0.0263,-0.06863 0.10188,-0.12479 0.16786,-0.12479 0.21027,0 0.57222,-0.22956 0.88966,-0.564261 0.35546,-0.374767 0.63099,-0.414867 0.86499,-0.125885 0.1629,0.201164 0.15132,0.862852 -0.0189,1.080501 -0.0404,0.05171 -0.0838,0.247058 -0.0963,0.434102 -0.0125,0.187043 -0.0738,0.401557 -0.13615,0.476697 -0.11311,0.136283 -0.28381,1.306478 -0.20839,1.428516 0.0219,0.03538 -8.4e-4,0.06433 -0.0499,0.06433 -0.0493,0 -0.0913,0.08573 -0.0934,0.1905 -0.002,0.104775 -0.0548,0.333809 -0.11735,0.508964 -0.0625,0.175156 -0.0825,0.337726 -0.0444,0.361268 0.0381,0.02354 0.0149,0.146932 -0.0514,0.274202 -0.0664,0.127269 -0.12095,0.347604 -0.12123,0.489632 0,0.142029 -0.0346,0.294429 -0.0762,0.338667 -0.0416,0.04424 -0.10009,0.594784 -0.12991,1.223434 -0.091,1.918493 -0.14367,2.337367 -0.36198,2.878666 -0.0282,0.06985 -0.06,0.339691 -0.0706,0.599645 -0.0107,0.259955 -0.047,0.598436 -0.0808,0.752182 -0.10989,0.500314 -0.27969,2.228214 -0.33874,3.446903 -0.0139,0.287683 -0.0572,0.573433 -0.0961,0.635 -0.0389,0.06157 -0.0761,0.378638 -0.0827,0.704604 -0.007,0.325967 -0.0323,0.649817 -0.0571,0.719667 -0.0248,0.06985 -0.0847,0.45085 -0.13305,0.846667 -0.0483,0.395816 -0.10894,0.853016 -0.13467,1.016 -0.1038,0.65748 -0.13442,0.9163 -0.18027,1.524 -0.0264,0.34925 -0.0776,0.88265 -0.11383,1.185333 -0.0362,0.302684 -0.0745,0.967926 -0.0849,1.478316 -0.0104,0.51039 -0.0377,0.958247 -0.0605,0.995239 -0.0465,0.07519 -0.11876,2.151108 -0.1425,4.092001 -0.0171,1.395664 -0.0706,1.578004 -0.53331,1.817184 -0.23324,0.12056 -0.76403,0.48947 -1.21793,0.8465 -0.11642,0.0916 -0.25714,0.167 -0.3127,0.16762 -0.0556,6e-4 -0.15082,0.0678 -0.21167,0.14931 -0.0608,0.0815 -0.22493,0.20525 -0.36463,0.27503 -0.1397,0.0698 -0.27305,0.14781 -0.29634,0.17341 -0.0233,0.0256 -0.17568,0.13682 -0.33866,0.24715 -0.16299,0.11033 -0.42008,0.32757 -0.57132,0.48275 -0.31071,0.31881 -0.494,0.35757 -0.56929,0.12036 z m 6.97285,-30.085373 c 0.0484,-0.151342 0.10916,-0.484717 0.13494,-0.740834 0.0469,-0.465666 0.0469,-0.465666 -0.0796,-0.08467 -0.0696,0.20955 -0.10423,0.452446 -0.077,0.539769 0.0323,0.103498 0.0169,0.138601 -0.0442,0.100837 -0.0516,-0.03186 -0.0942,-0.02711 -0.0949,0.01056 -8.4e-4,0.03767 -0.0241,0.154223 -0.0522,0.258998 -0.0807,0.300958 0.11437,0.223419 0.21294,-0.08467 z M 99.986798,98.729292 c 0,-0.192801 0.241332,-0.638342 0.848252,-1.566057 0.40376,-0.617163 0.59108,-1.017832 0.59108,-1.264286 0,-0.101899 0.0974,-0.430622 0.21632,-0.730494 0.35889,-0.904541 0.40325,-3.574224 0.078,-4.693887 -0.0676,-0.232833 -0.17706,-0.690033 -0.24315,-1.016 -0.10913,-0.538143 -0.24013,-1.083612 -0.488,-2.032 -0.0487,-0.186267 -0.14177,-0.439795 -0.20685,-0.563397 -0.0651,-0.123601 -0.11832,-0.318837 -0.11832,-0.433855 0,-0.115019 -0.0514,-0.35679 -0.11425,-0.53727 -0.0628,-0.18048 -0.13939,-0.663261 -0.17012,-1.072848 -0.10685,-1.424029 -0.23638,-1.590777 -0.887121,-1.141995 -0.949661,0.654935 -1.649124,1.647898 -1.478756,2.099255 0.04792,0.126947 0.05887,0.283456 0.02434,0.347795 -0.317119,0.590895 -0.19184,1.115942 0.395299,1.656713 0.318783,0.293609 0.608181,0.534007 0.643106,0.534218 0.03492,1.7e-4 0.06305,0.04801 0.0625,0.106217 -5.92e-4,0.05821 0.237575,0.337569 0.529167,0.620801 1.572955,1.527853 1.599705,1.634219 0.487835,1.939588 -0.11655,0.03201 -0.898486,0.341967 -1.460501,0.578941 -0.128058,0.054 -0.232833,0.126972 -0.232833,0.162172 0,0.0352 -0.05767,0.064 -0.128149,0.064 -0.07048,0 -0.194307,0.03423 -0.275167,0.07605 -0.08086,0.04183 -0.337518,0.169914 -0.570351,0.284631 -0.232833,0.114718 -0.5432,0.278943 -0.689705,0.364945 -0.288962,0.16963 -0.537962,0.07734 -0.537962,-0.199389 0,-0.334482 -0.579798,-2.050242 -0.692827,-2.050242 -0.131349,0 -1.572281,1.494057 -1.815648,1.882588 -0.396912,0.633662 -0.456799,0.632574 -1.096847,-0.01992 -0.27407,-0.2794 -0.527202,-0.508 -0.562516,-0.508 -0.06297,0 -0.236906,-0.140223 -0.771629,-0.622086 -0.374226,-0.33723 -0.638074,-0.428521 -0.80854,-0.279754 -0.07498,0.06544 -0.32042,0.199106 -0.545422,0.297045 -0.225004,0.09794 -0.515983,0.264559 -0.646622,0.370266 -0.226024,0.182889 -0.794058,0.524238 -1.413844,0.849622 -0.156543,0.08218 -0.360257,0.225059 -0.452697,0.3175 -0.227581,0.22758 -0.637905,0.218462 -0.82507,-0.01833 -0.326729,-0.41337 -2.125238,-2.184259 -2.218326,-2.184259 -0.05491,0 -0.265965,0.1143 -0.469012,0.254 -0.203047,0.1397 -0.396102,0.254 -0.429011,0.254 -0.07497,0 -1.291768,0.609317 -1.856989,0.929893 -0.553637,0.314007 -0.819742,0.320744 -1.025308,0.02596 -0.08801,-0.126214 -0.285488,-0.360262 -0.438831,-0.520105 -0.153343,-0.159843 -0.324793,-0.374906 -0.381,-0.477919 -0.104903,-0.192257 -0.628322,-0.84088 -0.973636,-1.206533 -0.243717,-0.258072 -0.324971,-0.629921 -0.173537,-0.794178 0.167652,-0.181849 0.294208,-0.396661 0.567221,-0.962784 0.647214,-1.34207 0.744427,-1.622952 1.066589,-3.081743 0.07609,-0.344525 0.175988,-0.696758 0.222003,-0.782738 0.103798,-0.193948 -0.231747,-0.4209 -0.936226,-0.633236 -0.257002,-0.07746 -0.554789,-0.19459 -0.661751,-0.260285 -0.205888,-0.126454 -0.905276,0.339122 -1.124353,0.748472 -0.04767,0.08907 -0.120944,0.140755 -0.162838,0.114863 -0.242631,-0.149954 -0.350854,1.048028 -0.206511,2.286 0.02715,0.232834 0.05871,0.809619 0.07013,1.281745 0.01626,0.671901 0.05173,0.889367 0.163244,1.000882 0.07836,0.07836 0.142469,0.182343 0.142469,0.231077 0,0.04874 0.1143,0.21879 0.254,0.377899 0.1397,0.15911 0.254,0.352424 0.254,0.429588 0,0.07716 0.152839,0.282819 0.339641,0.45701 0.548683,0.511638 0.544766,0.777866 -0.01404,0.954004 -0.528156,0.166479 -0.831544,0.305802 -0.987819,0.453629 -0.06153,0.05821 -0.150759,0.105833 -0.198276,0.105833 -0.104996,0 -0.392328,0.215261 -1.216659,0.911485 -1.026675,0.867124 -1.279138,0.855878 -1.35545,-0.06037 -0.04999,-0.600159 -0.243211,-1.489328 -0.356186,-1.639068 -0.04193,-0.05557 -0.125296,-0.272493 -0.18526,-0.482043 -0.05996,-0.20955 -0.199985,-0.560708 -0.311158,-0.780352 -0.232774,-0.459895 -0.248095,-0.683517 -0.08467,-1.235739 0.06461,-0.2183 0.163747,-0.606459 0.220312,-0.862575 0.05657,-0.256117 0.154769,-0.624982 0.218229,-0.8197 0.06346,-0.194719 0.111967,-0.524045 0.107796,-0.731837 -0.0042,-0.207792 0.01868,-0.420293 0.05077,-0.472225 0.110936,-0.179498 -0.04642,-0.421469 -0.336296,-0.517137 -0.160031,-0.05281 -0.363719,-0.188519 -0.45264,-0.301564 -0.08892,-0.113046 -0.216963,-0.205538 -0.284535,-0.205538 -0.06757,0 -0.191819,-0.0762 -0.276104,-0.169333 -0.154525,-0.170747 -0.503113,-0.229568 -0.584083,-0.09856 -0.06714,0.10864 -0.06774,0.517886 -0.0032,2.172889 0.0327,0.8382 0.06391,1.747733 0.06936,2.021184 0.0099,0.497183 0.0099,0.497183 0.546104,0.990665 0.646033,0.59457 0.638859,0.681966 -0.08984,1.094485 -0.287904,0.162983 -0.800811,0.515408 -1.139793,0.783167 -0.338982,0.267758 -0.653044,0.486833 -0.697917,0.486833 -0.09651,0 -0.513644,0.373776 -0.513644,0.460257 0,0.120108 -0.227354,0.282438 -0.470463,0.33591 -0.151649,0.03336 -0.328051,0.169973 -0.450618,0.34899 -0.293316,0.428406 -0.742401,0.383889 -0.971384,-0.09629 -0.189663,-0.397727 -0.190185,-1.360563 -8.46e-4,-1.569776 0.111076,-0.122737 0.118053,-0.178105 0.03504,-0.278124 -0.057,-0.06868 -0.0824,-0.159253 -0.05643,-0.201266 0.02596,-0.04201 0.07091,-0.472306 0.09989,-0.956208 0.02897,-0.483903 0.06798,-1.127473 0.08669,-1.430157 0.01871,-0.302683 0.02734,-0.721783 0.01919,-0.931333 -0.01799,-0.462334 -0.01499,-0.584624 0.04992,-2.032 0.06744,-1.503902 0.09775,-1.808181 0.225683,-2.2651 0.183684,-0.656055 -0.27494,-0.740445 -1.136372,-0.209102 -0.404327,0.249395 -1.077473,0.370079 -1.271768,0.228007 -0.310076,-0.226733 -0.138479,-0.558251 0.79179,-1.529705 0.182707,-0.190795 0.381653,-0.456972 0.442104,-0.591505 0.121892,-0.271269 0.157856,-0.3187 0.699759,-0.922872 0.20815,-0.232068 0.440894,-0.537884 0.517208,-0.679591 0.173876,-0.322868 0.464861,-0.473455 0.68107,-0.352459 0.241983,0.13542 1.80572,0.342138 2.891804,0.382282 0.456767,0.01688 0.612917,0.296462 0.407433,0.729488 -0.184933,0.389719 -0.313254,1.036658 -0.253134,1.276197 0.05155,0.20539 0.233652,0.280964 0.324156,0.134525 0.02532,-0.04097 0.246647,-0.138421 0.49183,-0.216548 0.499571,-0.159186 1.348929,-0.557103 1.430318,-0.67009 0.02926,-0.04062 0.243518,-0.0834 0.47613,-0.09508 0.232612,-0.01167 0.468383,-0.04932 0.523934,-0.08365 0.05555,-0.03433 0.122528,-0.0409 0.148836,-0.01459 0.02631,0.02631 0.111511,0.01375 0.18934,-0.0279 0.250004,-0.133799 1.216412,-0.183014 1.290891,-0.06574 0.104645,0.164776 0.08072,0.455918 -0.04612,0.561187 -0.126779,0.105217 -0.435398,1.052834 -0.506346,1.554743 -0.06734,0.476401 0.124307,0.410596 0.733356,-0.251805 0.680598,-0.740224 0.990578,-1.039361 1.077028,-1.039361 0.0385,0 0.0913,-0.06667 0.117314,-0.148167 0.02602,-0.08149 0.233399,-0.345106 0.460847,-0.585809 0.529289,-0.560133 1.219872,-0.612354 1.713663,-0.129582 0.148987,0.145663 0.296557,0.248976 0.327933,0.229585 0.06256,-0.03867 1.490404,0.178855 1.593898,0.242818 0.03532,0.02183 0.374083,0.05025 0.752813,0.06316 0.688601,0.02347 0.688601,0.02347 1.161442,-0.472583 0.260063,-0.272831 0.472842,-0.527761 0.472842,-0.566511 0,-0.03875 0.188705,-0.278827 0.419345,-0.533508 0.23064,-0.254681 0.475778,-0.572184 0.544751,-0.705563 0.06897,-0.133379 0.190062,-0.296167 0.269087,-0.361752 0.196079,-0.162731 1.052982,-1.300188 1.356029,-1.799996 0.135917,-0.224167 0.349978,-0.567067 0.47569,-0.762 0.125713,-0.194934 0.29219,-0.478694 0.369948,-0.630577 0.148742,-0.290535 0.421028,-0.542917 0.889539,-0.824516 0.154951,-0.09313 0.352292,-0.211964 0.438536,-0.264068 0.08624,-0.0521 0.232451,-0.175928 0.324906,-0.275166 0.09245,-0.09924 0.227408,-0.180433 0.299897,-0.180433 0.165843,0 0.623605,-0.32086 0.623605,-0.437106 0,-0.124671 -0.681935,-0.822944 -0.858382,-0.878946 -0.08387,-0.02662 -0.288507,0.04537 -0.470518,0.165519 -0.177155,0.116943 -0.529762,0.265591 -0.783572,0.33033 -0.25381,0.06474 -0.47606,0.161467 -0.493889,0.214954 -0.01783,0.05349 -0.06906,0.09725 -0.113851,0.09725 -0.101899,0 -1.313024,0.81306 -1.385282,0.929976 -0.09128,0.147696 -0.542972,0.09423 -0.722755,-0.08556 -0.09437,-0.09437 -0.389646,-0.287085 -0.656167,-0.428255 -0.266521,-0.141169 -0.568482,-0.349706 -0.671022,-0.463417 -0.102542,-0.11371 -0.221702,-0.206746 -0.2648,-0.206746 -0.0431,0 -0.128517,-0.06043 -0.189819,-0.134298 -0.136213,-0.164128 -0.511713,-0.107823 -0.73684,0.110486 -0.140905,0.136638 -0.375024,0.334112 -1.174325,0.990518 -0.146422,0.120245 -0.298822,0.219845 -0.338667,0.221333 -0.03984,0.0015 -0.262944,0.194088 -0.495778,0.428001 -0.378334,0.380087 -0.454832,0.421255 -0.719666,0.387281 -0.37825,-0.04852 -1.016708,-0.214682 -1.199675,-0.312217 -0.07774,-0.04144 -0.455955,-0.155674 -0.840484,-0.253853 -0.384529,-0.09818 -0.985281,-0.27456 -1.335006,-0.391959 -0.371291,-0.124639 -0.730795,-0.194466 -0.864021,-0.167821 -0.125486,0.0251 -0.252479,0.02131 -0.282207,-0.0084 -0.07903,-0.07903 -1.15643,-0.350466 -1.413737,-0.356171 -0.242093,-0.0054 -0.655889,0.273943 -1.303871,0.880108 -0.677956,0.634205 -0.782431,0.723678 -0.845028,0.723678 -0.09028,0 -0.376633,0.367026 -0.379821,0.486833 -0.0015,0.05821 -0.03188,0.105833 -0.06741,0.105833 -0.03552,0 -0.102199,0.08572 -0.148167,0.190501 -0.114249,0.260411 -0.570688,0.298333 -0.967474,0.08038 -0.16579,-0.09107 -0.453836,-0.212527 -0.640103,-0.269905 -0.186266,-0.05738 -0.376766,-0.150447 -0.423333,-0.206815 -0.04657,-0.05637 -0.294217,-0.172764 -0.550333,-0.258655 -0.256117,-0.08589 -0.620572,-0.226066 -0.809898,-0.311502 -0.189327,-0.08544 -0.380696,-0.155339 -0.425265,-0.155339 -0.04457,0 -0.283514,-0.13335 -0.530992,-0.296334 -0.247477,-0.162983 -0.50741,-0.296333 -0.577629,-0.296333 -0.119194,0 -0.97828,-0.436482 -1.172513,-0.595728 -0.04801,-0.03936 -0.200413,-0.09186 -0.338667,-0.116652 -0.138254,-0.02479 -0.51807,-0.173976 -0.844037,-0.331515 -0.325966,-0.157539 -0.851669,-0.410017 -1.168228,-0.561062 -0.316559,-0.151045 -0.77265,-0.407258 -1.013536,-0.569362 -0.444303,-0.298994 -0.780905,-0.44625 -1.543569,-0.675276 -0.429339,-0.128929 -0.973667,-0.589245 -0.973667,-0.823391 0,-0.256534 0.562595,-0.61945 1.196178,-0.771626 0.343286,-0.08245 0.684305,-0.201993 0.757822,-0.265649 0.07352,-0.06366 0.18263,-0.11574 0.242473,-0.11574 0.05984,0 0.247343,-0.07245 0.416667,-0.161001 0.169323,-0.08855 0.431685,-0.207473 0.583027,-0.264272 0.151342,-0.0568 0.275167,-0.136748 0.275167,-0.177665 0,-0.04092 0.06231,-0.07439 0.138458,-0.07439 0.07615,0 0.226732,-0.09525 0.334624,-0.211667 0.107891,-0.116416 0.222963,-0.211666 0.255717,-0.211666 0.03275,0 0.194468,-0.102907 0.359368,-0.228682 0.293149,-0.223596 0.613722,-0.26573 1.324833,-0.17413 0.330027,0.04251 0.144735,-2.787693 -0.223067,-3.407189 -0.148574,-0.250245 -0.428479,-0.895822 -0.550638,-1.27 -0.07902,-0.242025 -0.251796,-0.494699 -0.47368,-0.692709 -0.290594,-0.259326 -0.331668,-0.332947 -0.244414,-0.438083 0.112143,-0.135123 0.05163,-0.696233 -0.08413,-0.78014 -0.04129,-0.02552 -0.07507,-0.120346 -0.07507,-0.210731 0,-0.09039 -0.04218,-0.164337 -0.09373,-0.164337 -0.05155,0 -0.07226,-0.05593 -0.04603,-0.124288 0.02623,-0.06836 0.01229,-0.146168 -0.03097,-0.172909 -0.04327,-0.02674 -0.120048,-0.202292 -0.170623,-0.390115 -0.06918,-0.256912 -0.158876,-0.372814 -0.362134,-0.467933 -0.148598,-0.06954 -0.375995,-0.183536 -0.505325,-0.253325 -0.129331,-0.06979 -0.347179,-0.130072 -0.484107,-0.133965 -0.274614,-0.0078 -0.634785,-0.325538 -0.571976,-0.50458 0.02159,-0.06154 0.0108,-0.189092 -0.02397,-0.283456 C 62.942692,57.870907 63.2388,57.67 63.93258,57.628585 c 0.833185,-0.04974 1.764771,-0.241997 2.037056,-0.420404 0.122173,-0.08005 0.348883,-0.147418 0.5038,-0.149703 0.154918,-0.0023 0.357868,-0.05119 0.451001,-0.108685 0.264812,-0.163467 0.815989,-0.328847 1.161256,-0.348433 0.173025,-0.0098 0.480328,-0.09808 0.682899,-0.196142 0.202569,-0.09806 0.431148,-0.178295 0.507951,-0.178295 0.126451,0 0.758831,-0.18546 1.076894,-0.315823 0.06985,-0.02863 0.215038,-0.06243 0.32264,-0.0751 0.197474,-0.02327 1.474253,-0.424341 1.70936,-0.536961 0.06985,-0.03346 0.3556,-0.128181 0.635,-0.210492 0.2794,-0.08231 0.646561,-0.200714 0.815912,-0.263117 0.169351,-0.0624 0.330355,-0.09101 0.357787,-0.06358 0.02743,0.02743 0.107946,0.0017 0.178922,-0.05722 0.07098,-0.0589 0.129046,-0.08028 0.129046,-0.04749 0,0.03278 0.128323,-0.0197 0.28516,-0.116632 0.156838,-0.09693 0.356863,-0.176381 0.4445,-0.176556 0.08764,-1.69e-4 0.290736,-0.08042 0.45133,-0.178319 0.429205,-0.261653 1.029266,-0.260326 1.309678,0.0029 0.328528,0.308386 0.276184,0.50494 -0.289335,1.086467 -0.2794,0.28731 -0.509528,0.571407 -0.511396,0.631328 -0.0019,0.05992 -0.195997,0.260986 -0.4314,0.446813 -0.475827,0.375616 -0.69102,0.761571 -0.551291,0.988759 0.06296,0.102361 0.0535,0.18154 -0.03433,0.287367 -0.06668,0.08034 -0.130648,0.264411 -0.142156,0.409042 -0.04347,0.546334 -0.0333,1.347021 0.02122,1.66968 0.03141,0.185925 0.01955,0.38057 -0.02668,0.437715 -0.04578,0.0566 -0.109108,0.502955 -0.140722,0.991905 -0.03161,0.48895 -0.09886,1.021702 -0.149438,1.183895 -0.05151,0.165187 -0.09605,1.029694 -0.101269,1.965487 -0.01007,1.807294 -0.01574,1.829639 -0.482369,1.900911 -0.157575,0.02407 -0.444452,0.112898 -0.637504,0.1974 -0.193052,0.0845 -0.469277,0.179618 -0.613834,0.211368 -0.144555,0.03175 -0.262829,0.09133 -0.262829,0.132403 0,0.04107 -0.144692,0.113638 -0.321539,0.161258 -0.176847,0.04762 -0.670385,0.258638 -1.096751,0.468929 -0.426366,0.210292 -0.811898,0.382349 -0.856738,0.382349 -0.04484,0 -0.09423,0.02858 -0.10975,0.0635 -0.03741,0.08417 -0.497234,0.399097 -0.684388,0.468728 -0.176455,0.06565 -0.198044,0.229772 -0.03023,0.229772 0.06487,0 0.13702,0.04972 0.160337,0.110479 0.02332,0.06076 0.208368,0.162761 0.411225,0.226661 0.202857,0.0639 0.40693,0.136938 0.453497,0.162306 0.04657,0.02537 0.122767,0.05324 0.169333,0.06194 0.04657,0.0087 0.256117,0.112982 0.465667,0.231748 0.327265,0.185482 0.786525,0.427641 1.848041,0.974432 0.124461,0.06411 0.321542,0.198837 0.437959,0.299392 0.116417,0.100556 0.383117,0.272075 0.592667,0.381152 0.20955,0.109079 0.52164,0.307727 0.693535,0.441442 0.314217,0.244425 0.494114,0.297246 0.611743,0.179617 0.03493,-0.03493 0.0889,-0.06596 0.119944,-0.06897 0.258368,-0.02503 0.844934,-0.260687 0.955725,-0.383973 0.152274,-0.169449 0.155582,-2.384398 0.004,-2.680694 -0.04142,-0.08096 -0.08285,-0.318648 -0.09207,-0.528198 -0.0377,-0.85644 -0.07999,-1.096634 -0.342868,-1.947334 -0.151093,-0.48895 -0.293648,-0.972114 -0.316789,-1.073698 -0.0431,-0.189212 0.862572,-1.196908 1.187949,-1.321767 0.07819,-0.03001 0.142165,-0.115134 0.142165,-0.189176 0,-0.156267 0.324992,-0.575865 0.970664,-1.253228 0.25138,-0.263718 0.481257,-0.555743 0.510838,-0.648946 0.106641,-0.335994 0.722922,-0.290061 0.843808,0.06289 0.05096,0.148786 0.658161,0.613923 0.801432,0.613923 0.04206,0 0.08918,0.03278 0.104703,0.07285 0.01552,0.04007 0.199672,0.165517 0.409222,0.278775 0.20955,0.113258 0.605534,0.3567 0.879966,0.540983 0.801737,0.538371 0.92552,0.616261 1.211639,0.762418 0.149201,0.07621 0.315791,0.192213 0.370201,0.257773 0.05441,0.06556 0.15193,0.119201 0.216709,0.119201 0.06478,0 0.195786,0.04762 0.291123,0.105833 0.302745,0.18484 0.424684,-0.09186 0.292008,-0.662615 -0.111713,-0.480574 0.07383,-0.976508 0.3106,-0.830178 0.04804,0.02969 0.111668,0.02053 0.141386,-0.02036 0.06774,-0.09321 0.659391,-0.369872 0.797741,-0.373037 0.05663,-0.0013 0.249701,-0.113417 0.429051,-0.249159 0.17935,-0.135743 0.44605,-0.273122 0.592666,-0.305289 0.146618,-0.03217 0.476127,-0.199894 0.732243,-0.372727 0.628918,-0.424408 0.910635,-0.490581 1.007235,-0.236588 0.116571,0.306502 0.694801,0.870319 1.109146,1.081495 0.209392,0.10672 0.420821,0.248887 0.469842,0.315927 0.05275,0.07214 0.190489,0.110287 0.337486,0.09346 0.269745,-0.03088 0.318564,-0.797127 0.128576,-2.018097 -0.03985,-0.256116 -0.07454,-0.770466 -0.07709,-1.143 -0.0049,-0.722432 -0.157985,-1.707894 -0.292893,-1.88588 -0.09443,-0.124584 -0.09632,-0.122157 0.238694,-0.30726 0.1397,-0.07719 0.3683,-0.213248 0.508,-0.302355 0.412917,-0.263374 0.738305,-0.425505 0.85397,-0.425505 0.05956,0 0.130491,-0.06996 0.157631,-0.155472 0.02714,-0.08551 0.244585,-0.246918 0.483212,-0.358685 0.259974,-0.121765 0.570905,-0.365732 0.77578,-0.608701 0.188052,-0.223019 0.425491,-0.426465 0.527641,-0.452104 0.10215,-0.02564 0.23371,-0.136269 0.292355,-0.245847 0.143497,-0.268128 0.542258,-0.259327 0.759428,0.01676 0.166499,0.21167 0.171159,1.049722 0.0069,1.248596 -0.08178,0.09904 -0.14909,0.452945 -0.213332,1.121637 -0.02321,0.241551 -0.08532,0.622551 -0.138026,0.846667 -0.05271,0.224115 -0.106962,0.491031 -0.120564,0.593146 -0.0136,0.102113 -0.0458,0.219747 -0.07154,0.261406 -0.02575,0.04166 -0.06782,0.292046 -0.09349,0.556413 -0.05834,0.600773 0.102102,0.54556 0.639841,-0.22018 0.18798,-0.267683 0.415591,-0.526199 0.505803,-0.574479 0.09021,-0.04828 0.16402,-0.126135 0.16402,-0.17301 0,-0.04687 0.07642,-0.16725 0.169812,-0.2675 0.0934,-0.100249 0.215294,-0.30805 0.270884,-0.461779 0.05559,-0.15373 0.169218,-0.301137 0.252509,-0.327573 0.203358,-0.06454 0.661462,0.215455 0.661462,0.404293 0,0.08309 0.0381,0.151078 0.08467,0.151078 0.04657,0 0.08467,0.07348 0.08467,0.163286 0,0.08981 0.05212,0.215409 0.115829,0.279115 0.06371,0.06371 0.145473,0.209303 0.181703,0.323548 0.08892,0.280384 0.461948,0.869015 0.603788,0.952758 0.06307,0.03724 0.11468,0.140841 0.11468,0.230227 0,0.177123 0.309795,0.817229 0.432102,0.892819 0.04174,0.0258 0.0759,0.113674 0.0759,0.19528 0,0.0816 0.06935,0.222814 0.154122,0.313801 0.08477,0.09099 0.205029,0.336296 0.267249,0.545132 0.122924,0.41258 0.26946,0.50651 1.737632,1.113825 1.0409,0.430571 2.3259,1.130781 2.45321,1.336779 0.0299,0.04845 0.1258,0.0881 0.21302,0.0881 0.0872,0 0.23996,0.1143 0.33943,0.254 0.21181,0.297458 0.33993,0.317168 0.55034,0.08467 0.0843,-0.09313 0.18938,-0.169334 0.23355,-0.169334 0.12466,0 1.34338,-1.041596 1.67288,-1.429756 0.52521,-0.618701 0.88461,-0.373716 0.71756,0.489128 -0.1155,0.5966 0.28331,0.465355 0.86855,-0.285833 0.29778,-0.382205 0.29778,-0.382205 1.04294,-0.382205 0.40984,0 0.84102,-0.03645 0.95819,-0.08099 0.11716,-0.04454 0.37681,-0.08684 0.577,-0.09398 0.2002,-0.0071 0.72594,-0.06353 1.16833,-0.125299 3.41417,-0.476734 3.36961,-0.516022 2.02099,1.781935 -0.13664,0.232834 -0.26905,0.480484 -0.29423,0.550334 -0.0252,0.06985 -0.10446,0.26035 -0.17616,0.423333 -0.0717,0.162984 -0.20243,0.524934 -0.29052,0.804334 -0.0881,0.2794 -0.20319,0.60325 -0.25578,0.719666 -0.0526,0.116417 -0.12655,0.287867 -0.16434,0.381 -0.0378,0.09313 -0.14964,0.354017 -0.24854,0.579741 -0.0989,0.225725 -0.15938,0.430852 -0.1344,0.455838 0.025,0.02499 -0.0233,0.132839 -0.10736,0.239672 -0.16542,0.210299 -0.15147,0.714211 0.0198,0.714679 0.0529,1.69e-4 0.29337,0.192538 0.53432,0.427543 0.65061,0.634534 1.96372,1.674451 2.39824,1.899272 0.56717,0.293461 0.88644,0.657727 0.76893,0.877301 -0.13166,0.246014 -0.43092,0.436288 -0.68617,0.436288 -0.12002,0 -0.25611,0.03788 -0.3024,0.08417 -0.0463,0.0463 -0.18635,0.09263 -0.31123,0.102964 -0.12488,0.01034 -0.24445,0.06412 -0.26571,0.119511 -0.0212,0.05539 -0.16505,0.128055 -0.31953,0.161467 -0.15449,0.03341 -0.45234,0.146036 -0.66189,0.250276 -0.20955,0.10424 -0.59055,0.257825 -0.84667,0.341301 -0.25612,0.08347 -0.52322,0.212568 -0.59357,0.286873 -0.17775,0.187749 -0.4228,0.3148 -0.74271,0.385063 -0.14981,0.0329 -0.27239,0.0949 -0.27239,0.137767 0,0.04287 -0.0585,0.07794 -0.12998,0.07794 -0.12711,0 -0.54633,0.233231 -0.63374,0.35258 -0.36188,0.494148 -0.92187,0.09492 -0.67493,-0.481171 0.20848,-0.48635 0.23483,-1.128728 0.0633,-1.542405 -0.18081,-0.436015 -0.48728,-1.437015 -0.48728,-1.591598 0,-0.0695 -0.0378,-0.192529 -0.0841,-0.273389 -0.27958,-0.489067 -0.46492,-1.3503 -0.32649,-1.517098 0.0772,-0.09309 0.33088,-1.518723 0.44913,-2.524587 0.0164,-0.1397 0.0969,-0.473137 0.17894,-0.740973 0.20051,-0.654995 0.26913,-0.621092 -1.08976,-0.538432 -0.87164,0.05302 -1.20283,0.156071 -1.12804,0.350986 0.10204,0.2659 -0.24012,2.296644 -0.58664,3.481759 -0.0532,0.181941 0.0475,0.320656 0.45111,0.621661 1.21654,0.907171 1.62877,1.66828 0.99035,1.828512 -0.11507,0.02888 -0.20922,0.08391 -0.20922,0.122294 0,0.03838 -0.0824,0.09595 -0.18321,0.127931 -0.10076,0.03198 -0.36249,0.186949 -0.58161,0.344372 -0.21912,0.157423 -0.42655,0.286224 -0.46095,0.286224 -0.0344,0 -0.30196,0.1905 -0.59456,0.423333 -0.62589,0.498037 -0.74593,0.514155 -1.10344,0.148167 -1.34773,-1.379704 -1.21789,-1.362711 -2.3743,-0.310765 -0.36901,0.335674 -0.88048,0.763999 -1.1366,0.951835 -0.25611,0.187836 -0.549229,0.429633 -0.651364,0.537326 -0.227666,0.240054 -0.352137,0.198411 -0.699702,-0.234087 -0.148681,-0.185013 -0.410339,-0.426209 -0.581463,-0.535989 -0.171124,-0.109782 -0.388475,-0.270377 -0.483003,-0.356878 -0.09453,-0.0865 -0.304077,-0.229212 -0.465666,-0.317135 -0.333667,-0.181553 -1.106196,-0.794632 -1.208173,-0.958805 -0.03724,-0.05995 -0.114496,-0.109002 -0.171683,-0.109002 -0.05719,0 -0.164112,-0.06668 -0.23761,-0.148167 -0.187236,-0.207596 -0.772797,-0.739311 -0.893371,-0.811217 -0.115539,-0.0689 -0.604683,0.187888 -1.03755,0.544694 -0.163713,0.134946 -0.339267,0.245357 -0.390121,0.245357 -0.05085,0 -0.220483,0.1143 -0.376958,0.254 -0.156474,0.1397 -0.315736,0.254 -0.353916,0.254 -0.107329,0 -0.380136,0.29776 -0.617932,0.674453 -0.118585,0.187851 -0.245214,0.341547 -0.281397,0.341547 -0.03618,0 -0.207763,0.262857 -0.381288,0.584126 -0.173524,0.32127 -0.372042,0.605824 -0.44115,0.632343 -0.06911,0.02652 -0.12565,0.100657 -0.12565,0.164752 0,0.06409 -0.08114,0.189114 -0.180315,0.277823 -0.09917,0.08871 -0.271396,0.304632 -0.382718,0.479827 -0.220266,0.346653 -0.34157,0.504362 -0.791634,1.029218 -0.162983,0.190068 -0.369947,0.478928 -0.459921,0.641911 -0.20614,0.373417 -0.918269,1.164962 -1.561526,1.735667 -0.322994,0.286564 -1.36522,1.422201 -1.36522,1.48758 0,0.09758 -0.182313,0.277527 -0.723133,0.713745 -0.230927,0.186262 -0.577927,0.495719 -0.771111,0.687683 -0.193185,0.191965 -0.435257,0.40787 -0.537938,0.479791 -0.197182,0.138111 -0.757972,1.412049 -0.760394,1.727371 -7.62e-4,0.102027 -0.03952,0.20905 -0.08609,0.23783 -0.04657,0.02878 -0.08467,0.137709 -0.08467,0.242064 0,0.104355 -0.03259,0.225931 -0.07241,0.27017 -0.111986,0.124392 -0.544964,1.547171 -0.655735,2.154767 -0.03062,0.167976 0.02322,0.255356 0.260855,0.423333 0.541882,0.383039 0.836853,0.629528 1.258017,1.051248 0.58463,0.585403 0.624064,0.550143 1.033657,-0.924248 0.747646,-2.691264 0.729978,-2.889766 -0.314579,-3.534333 -0.318159,-0.196327 -0.57847,-0.388797 -0.57847,-0.427712 0,-0.145506 0.179118,-0.398289 0.282222,-0.398289 0.05881,0 0.238445,-0.13214 0.399188,-0.293645 0.160741,-0.161505 0.330357,-0.295724 0.376924,-0.298264 0.07976,-0.0044 1.083136,-0.855632 1.735667,-1.472568 0.739399,-0.699068 0.955211,-0.814512 1.253018,-0.670279 0.14904,0.07218 0.270982,0.158371 0.270982,0.191533 0,0.03316 0.32731,0.152099 0.727356,0.264308 0.80616,0.226118 0.889535,0.402848 0.468799,0.993717 -0.09289,0.130457 -0.193444,0.349169 -0.223446,0.486029 -0.0537,0.244956 -0.126129,0.444559 -0.297675,0.820336 -0.04783,0.104775 -0.120837,0.381 -0.162236,0.613833 -0.07226,0.406382 -0.259129,0.997539 -0.428227,1.354667 -0.0441,0.09313 -0.09831,0.321733 -0.120472,0.508 -0.02216,0.186267 -0.07865,0.567267 -0.125531,0.846667 -0.13664,0.814357 -0.168089,1.190611 -0.107156,1.282025 0.152555,0.228868 1.173249,0.601287 1.296697,0.473124 0.209473,-0.217474 0.302876,-2.390617 0.157315,-3.660149 -0.200067,-1.744919 -0.193684,-1.859471 0.111531,-2.001482 0.397984,-0.185177 0.591015,-0.307199 0.784933,-0.496185 0.09556,-0.09313 0.482414,-0.409687 0.859668,-0.703452 0.377254,-0.293766 1.0271,-0.893841 1.444101,-1.3335 0.81762,-0.862047 0.97344,-0.932705 1.299289,-0.589178 0.109663,0.115612 0.226648,0.210862 0.259968,0.211667 0.03332,8.46e-4 0.17328,0.106238 0.311025,0.234296 0.137743,0.128058 0.431529,0.366183 0.652856,0.529167 0.221326,0.162983 0.45382,0.347659 0.516651,0.41039 0.420914,0.420243 0.49425,-0.345463 0.199909,-2.087265 -0.05749,-0.340199 -0.08551,-0.66809 -0.06227,-0.728647 0.0357,-0.09304 0.921822,-0.766994 1.632924,-1.241952 0.110183,-0.07359 0.325141,-0.245044 0.477683,-0.381 0.152542,-0.135957 0.467241,-0.399105 0.699331,-0.584774 0.23209,-0.185669 0.491421,-0.423795 0.576293,-0.529166 0.163008,-0.202383 0.432386,-0.253572 0.527188,-0.100179 0.08681,0.140455 0.04846,1.339821 -0.04863,1.521248 -0.116552,0.217778 -0.242289,0.908785 -0.296986,1.632115 -0.05507,0.728273 -0.186373,1.277319 -0.394894,1.651248 -0.08639,0.154927 -0.148688,0.326377 -0.138428,0.381 0.01026,0.05462 -0.04171,0.308865 -0.115487,0.564982 -0.349426,1.213022 -0.253723,1.350739 0.451892,0.650279 0.249538,-0.247713 0.520379,-0.475117 0.60187,-0.505343 0.0815,-0.03023 0.14817,-0.113301 0.14817,-0.184613 0,-0.07131 0.0347,-0.129657 0.0771,-0.129657 0.0424,0 0.26987,-0.1524 0.50551,-0.338666 0.23565,-0.186267 0.50352,-0.338667 0.59528,-0.338667 0.0918,0 0.19037,-0.0381 0.21915,-0.08467 0.0288,-0.04657 0.12822,-0.08467 0.22098,-0.08467 0.20073,0 1.66139,-0.609902 2.16785,-0.905189 0.47236,-0.275404 0.71237,-0.236386 0.80714,0.131215 0.0549,0.212767 0.0417,0.319348 -0.0522,0.423333 -0.12225,0.135377 -0.14187,0.412661 -0.21958,3.102308 -0.0475,1.644953 0.11819,4.34061 0.27657,4.498993 0.0324,0.03239 0.0589,0.145548 0.0589,0.251455 0,0.105907 0.0365,0.215097 0.081,0.242645 0.0446,0.02755 0.0779,0.153622 0.0741,0.280164 -0.0119,0.394154 0.0763,1.268074 0.1381,1.368056 0.0324,0.05243 0.0757,0.560779 0.0963,1.129671 0.0206,0.568893 0.0686,1.26295 0.10674,1.54235 0.0746,0.546122 -0.0237,1.870331 -0.1501,2.023418 -0.0423,0.05129 -0.10371,0.236126 -0.13634,0.410754 -0.062,0.331734 -0.52025,0.790084 -1.13105,1.131276 -0.53417,0.298395 -0.60916,0.34794 -0.71185,0.47036 -0.17236,0.205466 -1.30119,1.086525 -1.39207,1.086525 -0.0469,0 -0.34921,0.285145 -0.67177,0.633656 -0.64737,0.69946 -1.129086,0.934709 -1.129086,0.551401 z m -4.876324,-9.987353 c 0.214701,-0.08163 0.214701,-0.08163 -0.0076,-0.51017 -0.177384,-0.341899 -0.204697,-0.466616 -0.135092,-0.61687 0.139255,-0.300611 0.464595,-1.816575 0.576441,-2.685998 0.01498,-0.116417 0.05416,-0.373592 0.08707,-0.5715 0.08572,-0.515496 -0.145238,-0.482825 -0.748163,0.105833 -0.560739,0.54747 -0.654827,0.563802 -0.958024,0.166291 -0.612481,-0.803004 -0.745297,-0.751393 -0.67578,0.262602 0.03491,0.509176 0.06056,0.982924 0.05701,1.052774 -0.09719,1.910248 -0.0478,2.078883 0.716262,2.445379 0.188884,0.0906 0.393574,0.225155 0.454867,0.299009 0.127471,0.153593 0.324459,0.169976 0.633051,0.05265 z M 83.617533,70.4509 c 0.0544,-0.442383 0.111666,-1.508515 0.127255,-2.369181 0.03404,-1.879485 0.01234,-1.910982 -0.763458,-1.108231 -0.27325,0.282744 -0.522131,0.514078 -0.553071,0.514078 -0.03094,0 -0.28915,0.2286 -0.573802,0.508 -0.284653,0.2794 -0.524093,0.508 -0.532091,0.508 -0.008,0 -0.278997,0.246952 -0.602222,0.548782 -0.323224,0.301831 -0.618977,0.549481 -0.657228,0.550333 -0.0909,0.002 -0.25645,0.170814 -0.373506,0.38081 -0.09764,0.175165 0.444287,0.453692 1.247387,0.641103 0.821593,0.191725 1.080524,0.265902 1.325129,0.379613 0.146738,0.06821 0.337238,0.12461 0.423333,0.125323 0.0861,6.77e-4 0.213688,0.03916 0.283538,0.08543 0.394699,0.261485 0.544286,0.08531 0.648736,-0.764062 z m 19.010447,0.479156 c 0.0337,-0.184888 0.034,-0.854581 0.001,-2.746646 -0.0188,-1.087782 -0.0967,-1.290001 -0.39382,-1.021567 -0.30529,0.275833 -0.42934,0.376791 -0.62645,0.509857 -0.11553,0.07799 -0.48019,0.402181 -0.81036,0.720423 -0.33017,0.318243 -0.838432,0.792192 -1.129473,1.053221 -0.565761,0.507419 -0.614413,0.582223 -0.378673,0.582223 0.08277,0 0.244698,0.06667 0.359834,0.148166 0.215764,0.152714 0.657942,0.339357 0.992502,0.418931 0.10478,0.02492 0.1905,0.07484 0.1905,0.110928 0,0.07897 0.3439,0.173439 0.79842,0.219321 0.18302,0.01847 0.41034,0.0851 0.50517,0.148067 0.2264,0.150326 0.44931,0.08543 0.49093,-0.142924 z m -7.391369,-0.457989 c 0.053,-0.128059 0.114269,-0.347134 0.136162,-0.486834 0.03856,-0.246042 0.139489,-0.740809 0.293403,-1.438287 0.102407,-0.464069 0.0708,-0.474021 -1.380759,-0.434782 -1.660163,0.04488 -1.654295,0.03713 -0.77562,1.024065 0.2794,0.313823 0.54306,0.63323 0.58591,0.709795 0.04285,0.07657 0.162014,0.215409 0.264807,0.308543 0.102793,0.09313 0.230999,0.255058 0.284902,0.359833 0.141775,0.275576 0.469336,0.25212 0.591195,-0.04233 z m -5.542964,0.07345 c 0.0254,-0.04109 -0.03049,-0.172175 -0.124184,-0.291293 -0.16599,-0.211022 -0.166742,-0.232452 -0.02934,-0.835452 0.34381,-1.508784 0.34582,-1.505265 -0.813996,-1.425487 -1.170251,0.0805 -1.318292,-0.03865 -0.613834,-0.494044 0.510341,-0.329905 1.406312,-1.251214 1.350694,-1.388892 -0.02321,-0.05745 -0.227071,-0.197113 -0.453028,-0.310368 -0.225958,-0.113255 -0.448932,-0.250209 -0.495499,-0.304343 -0.11685,-0.135838 -0.912481,-0.552814 -0.961428,-0.503867 -0.02188,0.02188 -0.05097,0.582852 -0.06466,1.246616 -0.01369,0.663765 -0.04025,1.625945 -0.05903,2.138178 -0.04443,1.212108 0.04932,1.649795 0.354333,1.654266 0.122531,0.0018 0.546633,0.132653 0.94245,0.290793 0.777617,0.31068 0.89683,0.338267 0.967516,0.223893 z m 8.922194,-1.893785 c 0.907424,-0.737867 1.418509,-1.129654 1.576649,-1.208627 0.22873,-0.11422 0.27299,-0.365406 0.0757,-0.429782 -0.489857,-0.159869 -1.547435,-0.779292 -1.777114,-1.040856 -0.378911,-0.431515 -0.457919,-0.304134 -0.500182,0.806423 -0.01926,0.506188 -0.06938,1.129892 -0.111365,1.386009 -0.130938,0.798713 0.13582,0.975096 0.736282,0.486833 z M 79.975205,67.764574 c 0.179626,-0.15033 0.431367,-0.35312 0.559425,-0.450645 0.313303,-0.238602 0.294004,-0.353609 -0.105833,-0.630696 -0.186267,-0.129083 -0.338667,-0.267614 -0.338667,-0.307848 0,-0.04023 -0.05715,-0.07315 -0.127,-0.07315 -0.06985,0 -0.127,-0.02989 -0.127,-0.06641 0,-0.11515 -0.51957,-0.379244 -0.59556,-0.302719 -0.114299,0.115104 -0.08924,1.495803 0.03321,1.829631 0.02989,0.08149 0.07301,0.207426 0.09582,0.279854 0.0485,0.154005 0.13907,0.112429 0.6056,-0.278013 z m -9.166669,-1.704635 c 0.15569,-0.172035 0.176012,-0.549719 0.269118,-5.001236 0.02574,-1.230824 0.06947,-2.27453 0.09717,-2.319346 0.0277,-0.04482 0.06263,-0.186872 0.07763,-0.315681 0.015,-0.128808 0.03292,-0.266203 0.03984,-0.30532 0.05123,-0.289915 -0.05192,-0.267826 -0.376396,0.08061 -0.23853,0.256141 -0.372036,0.478871 -0.377754,0.630209 -0.0049,0.128733 -0.03106,0.38646 -0.05821,0.572727 -0.02715,0.186267 -0.06749,1.386417 -0.08965,2.667 -0.02216,1.280584 -0.04348,2.385484 -0.04738,2.455334 -0.01872,0.33511 0.03147,1.573809 0.06604,1.629833 0.06887,0.111607 0.25257,0.06834 0.399597,-0.09413 z m 25.363743,-1.597055 c 0.486465,-0.250918 1.016324,-0.483608 1.177465,-0.517088 0.161141,-0.03348 0.318227,-0.117053 0.349079,-0.185718 0.03085,-0.06867 0.155481,-0.319988 0.276952,-0.558494 0.246154,-0.48332 0.19013,-0.692928 -0.137676,-0.515102 -0.260861,0.141509 -0.849875,0.516872 -0.899301,0.573101 -0.02328,0.02649 -0.232834,0.175967 -0.465667,0.332176 -0.232833,0.156209 -0.560323,0.401345 -0.727756,0.544745 -0.167432,0.143401 -0.424607,0.362066 -0.5715,0.485923 -0.642164,0.541459 -0.23429,0.476282 0.998404,-0.159543 z m -1.858975,-0.510151 c 0.689586,-0.435056 0.676708,-0.547054 -0.167903,-1.460227 -0.537746,-0.581398 -0.590208,-0.523886 -0.591974,0.648968 -0.0019,1.279533 0.0053,1.287292 0.759877,0.811259 z M 137.5319,80.94219 c -0.0797,-0.128904 0.0933,-0.279406 0.25145,-0.218737 0.0761,0.02919 0.11025,0.105124 0.0813,0.180576 -0.0578,0.150584 -0.24966,0.17259 -0.33275,0.03816 z m 16.04738,-4.679669 c -0.16214,-0.109841 -0.39006,-0.228648 -0.50648,-0.264014 -0.11642,-0.03537 -0.26882,-0.112705 -0.33867,-0.171865 -0.0699,-0.05916 -0.26035,-0.135721 -0.42333,-0.170137 -0.16298,-0.03442 -0.37148,-0.114856 -0.46334,-0.178756 -0.0919,-0.0639 -0.22906,-0.116182 -0.30489,-0.116182 -0.0758,0 -0.32263,-0.09823 -0.54845,-0.218297 -0.23207,-0.123396 -0.4952,-0.202115 -0.60527,-0.181074 -0.1071,0.02047 -0.19472,0.0044 -0.19472,-0.0357 0,-0.04011 -0.0408,-0.07293 -0.0907,-0.07293 -0.0499,0 -0.14686,-0.05614 -0.21548,-0.124762 -0.0686,-0.06862 -0.28498,-0.164987 -0.48078,-0.214149 -0.19582,-0.04916 -0.64178,-0.179643 -0.99103,-0.289958 -0.34925,-0.110314 -0.79692,-0.226847 -0.99483,-0.25896 -0.19791,-0.03211 -0.35983,-0.08581 -0.35983,-0.119319 0,-0.0742 -0.54035,-0.315107 -0.889,-0.396349 -0.1397,-0.03255 -0.2921,-0.08674 -0.33867,-0.12043 -0.0466,-0.03368 -0.2256,-0.08287 -0.39784,-0.1093 -0.17225,-0.02643 -0.43895,-0.105141 -0.59267,-0.17491 -0.15372,-0.06977 -0.43489,-0.150928 -0.62483,-0.180351 -0.3809,-0.05901 -0.93132,-0.233608 -1.02186,-0.324153 -0.0319,-0.03191 -0.1374,-0.05975 -0.23441,-0.06185 -0.097,-0.0021 -0.34519,-0.09211 -0.5515,-0.200012 -0.37511,-0.196187 -0.37511,-0.196187 -0.56177,0.02565 -0.10267,0.122012 -0.52442,0.386106 -0.93723,0.586875 -1.40282,0.682263 -2.18682,1.131476 -2.47142,1.416078 -0.11397,0.113978 -0.24173,0.207231 -0.28389,0.207231 -0.0422,0 -0.15431,0.07234 -0.24921,0.160755 -0.29568,0.275468 -0.83637,0.246128 -0.83637,-0.04539 0,-0.0427 -0.10823,-0.196131 -0.24052,-0.340965 -0.13229,-0.144833 -0.38779,-0.448599 -0.5678,-0.675035 -0.28844,-0.362836 -1.04663,-1.140468 -1.5393,-1.578779 -0.16481,-0.146626 -0.18254,-0.141012 -0.60194,0.1905 -0.23767,0.187867 -0.46182,0.342172 -0.49812,0.342899 -0.0363,7.62e-4 -0.23744,0.152532 -0.44699,0.337344 -0.20955,0.184813 -0.42122,0.336617 -0.47038,0.337345 -0.0492,7.62e-4 -0.22062,0.09966 -0.381,0.219844 -0.16039,0.120187 -0.54596,0.347839 -0.85682,0.505892 -0.31086,0.158053 -0.5894,0.326519 -0.61896,0.374368 -0.0296,0.04785 -0.23244,0.16793 -0.4508,0.266848 -0.21837,0.09892 -0.59148,0.308367 -0.82913,0.465444 -0.23766,0.157076 -0.47112,0.285593 -0.51881,0.285593 -0.0477,0 -0.13644,0.05994 -0.19724,0.133188 -0.18333,0.220915 -0.69246,0.44035 -1.26078,0.543405 -0.53704,0.09738 -0.53704,0.09738 -1.22951,-0.24727 -0.38086,-0.189561 -0.73443,-0.344656 -0.78571,-0.344656 -0.0513,0 -0.16816,-0.09525 -0.25973,-0.211667 -0.0916,-0.116417 -0.20688,-0.211667 -0.25623,-0.211667 -0.0836,0 -0.92737,-0.427449 -2.48681,-1.259812 -0.35947,-0.19187 -0.70723,-0.348855 -0.7728,-0.348855 -0.0656,0 -0.16462,-0.0547 -0.22011,-0.121557 -0.0555,-0.06686 -0.20974,-0.145469 -0.34281,-0.174694 -0.13305,-0.02922 -0.30085,-0.143083 -0.37288,-0.25302 -0.072,-0.109937 -0.21772,-0.226849 -0.32374,-0.259805 -0.10601,-0.03296 -0.31872,-0.188564 -0.47268,-0.345798 -0.15396,-0.157234 -0.42066,-0.359501 -0.59267,-0.449482 -0.172,-0.08998 -0.44608,-0.280071 -0.60907,-0.422424 -0.16298,-0.142353 -0.34395,-0.258912 -0.40216,-0.259021 -0.0582,-8.4e-5 -0.10584,-0.03949 -0.10584,-0.08752 0,-0.04803 -0.0599,-0.110302 -0.13306,-0.138386 -0.16499,-0.06331 -1.05227,-0.915647 -1.05227,-1.010827 0,-0.110965 -0.69361,-1.495689 -0.85634,-1.709607 -0.0814,-0.106961 -0.17266,-0.306986 -0.20286,-0.4445 -0.0302,-0.137513 -0.0909,-0.250024 -0.13495,-0.250024 -0.044,0 -0.11815,-0.100226 -0.16472,-0.222725 -0.0466,-0.122498 -0.15993,-0.328405 -0.2519,-0.45757 -0.092,-0.129165 -0.16723,-0.289733 -0.16723,-0.356819 0,-0.06709 -0.0762,-0.190934 -0.16933,-0.275219 -0.0931,-0.08429 -0.16934,-0.208256 -0.16934,-0.275494 0,-0.154082 -0.23453,-0.668435 -0.44326,-0.972114 -0.0968,-0.140795 -0.13237,-0.276153 -0.0908,-0.345213 0.10409,-0.172899 1.03264,-0.989513 1.12515,-0.989513 0.0447,0 0.26338,-0.170804 0.48593,-0.379565 0.22256,-0.208761 0.43357,-0.380211 0.46892,-0.381 0.10112,-0.0023 0.53593,-0.451184 0.59591,-0.615268 0.0298,-0.08149 0.11252,-0.148167 0.18383,-0.148167 0.0713,0 0.12966,-0.038 0.12966,-0.08444 0,-0.04644 0.21549,-0.284565 0.47887,-0.529167 0.26339,-0.244601 0.77346,-0.730479 1.1335,-1.079729 0.36004,-0.34925 0.84911,-0.803666 1.08681,-1.009814 0.2377,-0.206149 0.5182,-0.501164 0.62333,-0.655589 0.10514,-0.154425 0.23266,-0.281034 0.28338,-0.281352 0.13172,-8.47e-4 1.13544,-0.957265 1.13544,-1.081942 0,-0.05718 0.0373,-0.10397 0.0829,-0.10397 0.11884,0 1.2718,-1.150741 1.2718,-1.269355 0,-0.05453 0.13335,-0.261883 0.29633,-0.460783 0.16299,-0.198899 0.29634,-0.405337 0.29634,-0.458749 0,-0.05341 0.0381,-0.09711 0.0847,-0.09711 0.0466,0 0.0847,-0.0513 0.0847,-0.113992 0,-0.207734 0.264,-0.647347 0.45093,-0.750902 0.2387,-0.132229 0.30966,-0.114169 1.1152,0.283813 0.37241,0.183997 0.73436,0.344494 0.80433,0.356659 0.07,0.01216 0.31302,0.105736 0.54013,0.207936 0.22711,0.102201 0.45676,0.185819 0.51033,0.185819 0.0536,0 0.17255,0.05172 0.26441,0.114929 0.0918,0.06321 0.37655,0.164241 0.63267,0.22451 0.25612,0.06027 0.63075,0.18 0.83252,0.266071 0.20177,0.08607 0.45132,0.15649 0.55456,0.15649 0.10325,0 0.22391,0.03199 0.26815,0.0711 0.0442,0.0391 0.21379,0.121689 0.37677,0.183524 0.16298,0.06184 0.34844,0.152525 0.41212,0.201534 0.0637,0.04901 0.34944,0.153941 0.635,0.233181 0.28557,0.07924 0.69066,0.202061 0.90021,0.272934 1.14497,0.387243 3.66789,0.598685 4.15261,0.348024 0.13754,-0.07112 0.25006,-0.106622 0.25006,-0.07889 0,0.0899 2.15233,-1.069766 2.37307,-1.278603 0.88623,-0.838423 1.46401,-0.0096 0.68252,0.979027 -0.19044,0.240928 -0.34626,0.490583 -0.34626,0.55479 0,0.06421 -0.0498,0.09763 -0.11067,0.07427 -0.0609,-0.02336 -0.26394,0.101663 -0.45128,0.277824 -0.51642,0.485646 -1.62769,1.478867 -1.92139,1.717294 -0.22531,0.182911 -0.8277,0.784286 -1.52656,1.524001 -0.10999,0.116416 -0.33781,0.306916 -0.50627,0.423333 -0.16845,0.116417 -0.32869,0.278342 -0.35609,0.359833 -0.0274,0.08149 -0.0894,0.148167 -0.13776,0.148167 -0.0484,0 -0.16573,0.09889 -0.2608,0.21975 -0.2134,0.271297 -0.58548,0.23121 -0.8384,-0.09033 -0.35281,-0.448528 -0.74231,-0.439497 -1.46767,0.03402 -0.78413,0.511882 -1.22798,0.865075 -1.68321,1.339387 -0.41839,0.435925 -0.48259,0.440342 -0.92284,0.0635 -0.19042,-0.162983 -0.38697,-0.296509 -0.4368,-0.296725 -0.0498,-2.54e-4 -0.21235,-0.114515 -0.36117,-0.254 -0.14881,-0.139484 -0.34695,-0.253608 -0.44029,-0.253608 -0.0933,0 -0.20019,-0.0506 -0.23742,-0.112454 -0.0726,-0.120518 -0.33716,-0.273669 -0.9767,-0.565318 -0.51376,-0.234288 -0.88689,-0.174235 -0.96526,0.15535 -0.0583,0.245125 -0.26215,0.655044 -0.431,0.866667 -0.0582,0.07292 -0.18268,0.453919 -0.27667,0.846667 -0.094,0.392748 -0.20672,0.847438 -0.25052,1.010422 -0.22841,0.850023 -0.21985,0.875732 0.27105,0.815149 0.77003,-0.09503 0.94273,-0.123452 1.33372,-0.219514 0.38941,-0.09567 0.43338,-0.102953 1.31234,-0.217342 0.30075,-0.03914 0.61162,-0.141543 0.762,-0.251005 0.1397,-0.10169 0.38735,-0.235466 0.55033,-0.297281 0.16298,-0.06181 0.34137,-0.146619 0.39642,-0.188457 0.055,-0.04184 0.62565,-0.342166 1.26802,-0.667394 0.64238,-0.325227 1.22899,-0.646561 1.30359,-0.714074 0.20863,-0.188804 0.54483,-0.153694 0.64876,0.06775 0.16013,0.341196 0.96627,1.962896 1.08375,2.180167 0.063,0.116416 0.17593,0.364066 0.25105,0.550333 0.0751,0.186267 0.17287,0.404824 0.21717,0.485684 0.0443,0.08086 0.0806,0.24931 0.0806,0.374334 0,0.125024 0.0506,0.287465 0.1124,0.360982 0.16295,0.193793 0.41662,1.148792 0.59392,2.235937 0.0526,0.322604 0.39435,0.364854 0.39435,0.04875 0,-0.09202 0.0535,-0.251699 0.11886,-0.354836 0.0654,-0.103137 0.1442,-0.358972 0.17516,-0.568522 0.031,-0.20955 0.10934,-0.55245 0.17417,-0.762 0.10062,-0.325254 0.23512,-1.022303 0.31857,-1.651 0.0124,-0.09313 0.0522,-0.216958 0.0885,-0.275166 0.12027,-0.192692 -0.48775,-0.567507 -1.5526,-0.957122 -0.55146,-0.201772 -0.67676,-0.464737 -0.3175,-0.666325 0.10477,-0.05879 0.35302,-0.303354 0.55167,-0.543473 0.19865,-0.240119 0.45605,-0.550881 0.57201,-0.690581 0.11596,-0.1397 0.23223,-0.320675 0.25836,-0.402166 0.0262,-0.08149 0.0779,-0.148167 0.11498,-0.148167 0.0371,0 0.17678,-0.161925 0.31041,-0.359833 0.23476,-0.347673 0.76162,-0.910167 0.85252,-0.910167 0.0244,0 0.14553,-0.07075 0.26914,-0.15723 0.41049,-0.287185 1.03301,-0.60477 1.18544,-0.60477 0.0827,0 0.22423,-0.06872 0.3145,-0.152709 0.16727,-0.155621 0.42674,-0.304079 1.18013,-0.675195 0.23284,-0.114693 0.54462,-0.299184 0.69286,-0.40998 0.14823,-0.110798 0.29601,-0.20145 0.3284,-0.20145 0.0324,0 0.20279,-0.123825 0.37867,-0.275166 0.89638,-0.771304 1.10321,-0.935298 1.34342,-1.065231 0.14364,-0.0777 0.55671,-0.314973 0.91791,-0.527278 0.36121,-0.212305 0.75199,-0.440905 0.86841,-0.508 0.11642,-0.0671 0.23072,-0.14525 0.254,-0.173678 0.0233,-0.02843 0.16777,-0.115967 0.32109,-0.194533 0.15332,-0.07856 0.54774,-0.322006 0.87649,-0.54098 0.32876,-0.218973 0.67004,-0.435744 0.75841,-0.481711 0.0884,-0.04597 0.16068,-0.112642 0.16068,-0.148167 0,-0.03552 0.0584,-0.06459 0.12985,-0.06459 0.1541,0 0.63215,-0.468182 0.63215,-0.619103 0,-0.403703 0.76258,-0.572703 1.905,-0.422177 0.46566,0.06136 0.96096,0.107335 1.10066,0.102174 0.67829,-0.02506 0.83852,0.05376 0.75838,0.373068 -0.0588,0.23437 -0.67977,0.693931 -1.22404,0.905907 -0.16299,0.06348 -0.41064,0.197367 -0.55034,0.297534 -0.1397,0.100166 -0.41864,0.265232 -0.61986,0.36681 -0.20123,0.101579 -0.56875,0.334568 -0.81672,0.517754 -0.24797,0.183186 -0.55958,0.359509 -0.69247,0.391831 -0.26708,0.06496 -0.89671,0.478265 -1.17966,0.774369 -0.10012,0.104775 -0.20496,0.1905 -0.23297,0.1905 -0.21433,0 -2.59665,1.763352 -2.59665,1.921997 0,0.0605 -0.0589,0.110003 -0.13085,0.110003 -0.072,0 -0.2261,0.09525 -0.34251,0.211666 -0.11642,0.116417 -0.23088,0.211667 -0.25435,0.211667 -0.0235,0 -0.17999,0.13335 -0.34781,0.296334 -0.16782,0.162983 -0.38501,0.302016 -0.48264,0.308961 -0.0976,0.0069 -0.42516,0.02513 -0.72784,0.04042 -0.61615,0.03111 -0.95574,0.06133 -2.11074,0.187842 -0.43912,0.0481 -0.90576,0.06598 -1.03696,0.03974 -0.44019,-0.08804 -0.68656,0.371807 -0.3078,0.574513 0.10184,0.0545 0.22567,0.133435 0.27516,0.175403 0.27375,0.232088 0.90127,0.649039 1.27298,0.84581 0.50268,0.266107 0.54247,0.500591 0.23477,1.383313 -0.41334,1.185742 -0.64511,2.101924 -0.87423,3.455704 -0.0458,0.270804 -0.11703,0.556554 -0.15822,0.635 -0.0627,0.119447 -0.19552,0.554731 -0.397,1.301174 -0.0239,0.08857 0.0795,0.248863 0.27305,0.423334 0.62961,0.567515 1.05099,0.99605 1.05099,1.068841 0,0.17757 0.33394,0.36578 0.60279,0.339735 0.32897,-0.03187 0.46086,-0.586934 0.53957,-2.270788 0.0229,-0.48895 0.0602,-1.1938 0.083,-1.566333 0.0228,-0.372534 0.01,-1.076364 -0.0296,-1.564069 -0.0915,-1.141859 -0.0316,-1.358724 0.43994,-1.594244 0.20137,-0.100568 0.50241,-0.326439 0.66899,-0.501936 0.16658,-0.175497 0.52578,-0.532567 0.79823,-0.793488 0.91205,-0.873449 1.97704,-2.198168 1.97704,-2.459203 0,-0.03336 0.0781,-0.08543 0.17348,-0.11571 0.25789,-0.08185 0.55468,0.155592 0.8512,0.680994 0.14381,0.254827 0.29181,0.463322 0.32888,0.463322 0.0371,0 0.12837,0.1524 0.20289,0.338667 0.0745,0.186266 0.17392,0.338666 0.22086,0.338666 0.047,0 0.0854,0.06463 0.0854,0.143616 0,0.143195 0.28975,0.617528 0.65176,1.066955 0.10495,0.130298 0.25142,0.3646 0.32548,0.520671 0.0741,0.156072 0.25796,0.411415 0.40866,0.56743 0.15071,0.156014 0.34468,0.397962 0.43105,0.537662 0.0864,0.1397 0.20819,0.284468 0.27071,0.321707 0.0625,0.03724 0.11367,0.118579 0.11367,0.180757 0,0.06218 0.14852,0.260308 0.33004,0.440292 0.57726,0.572371 0.48337,0.964542 -0.25857,1.079913 -0.38713,0.0602 -1.29227,0.411039 -1.93414,0.749689 -0.20955,0.11056 -0.60204,0.289705 -0.8722,0.398102 -0.79819,0.32026 -0.53817,0.636317 0.66054,0.802887 0.1397,0.01941 0.40426,0.114086 0.58791,0.210385 0.18366,0.0963 0.46941,0.199305 0.635,0.228903 0.1656,0.0296 0.35824,0.101631 0.42809,0.160075 0.0699,0.05844 0.22225,0.132213 0.33866,0.16393 0.11642,0.03172 0.28787,0.08881 0.381,0.126879 0.16968,0.06935 0.78297,0.307687 1.10067,0.427742 0.0931,0.03519 0.2759,0.106833 0.40615,0.159197 0.13025,0.05237 0.32075,0.09546 0.42334,0.09577 0.10258,3.39e-4 0.30081,0.07626 0.44051,0.168775 0.1397,0.09252 0.33757,0.168469 0.4397,0.168776 0.10213,3.38e-4 0.24273,0.08198 0.31243,0.181489 0.10085,0.143994 0.18068,0.170141 0.39099,0.128079 0.17395,-0.03479 0.42883,0.0086 0.7459,0.127035 1.01322,0.378418 1.58479,0.558761 1.64952,0.520465 0.037,-0.02187 0.1193,0.0035 0.18297,0.05631 0.0798,0.06623 0.13283,0.06842 0.17076,0.0071 0.0366,-0.05925 0.10643,-0.06149 0.20885,-0.0067 0.10315,0.05521 0.37345,0.04408 0.82036,-0.03376 0.36659,-0.06385 0.69676,-0.09752 0.73373,-0.07481 0.037,0.02271 0.11492,0.0017 0.17323,-0.04671 0.0583,-0.0484 0.18047,-0.08684 0.27146,-0.08544 0.352,0.0054 1.30184,-0.200993 1.73249,-0.37653 1.13693,-0.463426 2.29547,-0.02035 1.39766,0.534524 -0.16222,0.100258 -0.37177,0.279953 -0.46566,0.399323 -0.0939,0.119371 -0.17072,0.194422 -0.17072,0.166781 0,-0.05458 -0.862,0.358464 -0.93134,0.446272 -0.0233,0.02949 -0.34713,0.200544 -0.71966,0.380128 -0.73638,0.354982 -1.38949,0.798385 -1.72653,1.172179 -0.0748,0.08295 -0.30747,0.232725 -0.51706,0.332828 -0.2096,0.100102 -0.40013,0.206734 -0.42341,0.236959 -0.0233,0.03022 -0.16774,0.109051 -0.32101,0.175171 -0.15327,0.06612 -0.44711,0.334242 -0.65297,0.595827 -0.26847,0.341152 -0.45,0.490751 -0.64207,0.529167 -0.39571,0.07914 -0.43466,0.07161 -0.75614,-0.146156 z m -25.05852,-1.956138 c 8.5e-4,-0.0483 0.0424,-0.03067 0.0926,0.03918 0.076,0.105622 0.0829,0.100895 0.041,-0.02809 -0.0277,-0.0853 -0.0503,-0.195904 -0.0503,-0.245788 0,-0.04988 -0.0705,-0.0094 -0.15676,0.09005 -0.0862,0.09941 -0.18147,0.156041 -0.21167,0.125844 -0.0302,-0.0302 -0.0549,-0.01282 -0.0549,0.03861 0,0.05143 0.0762,0.08778 0.16933,0.08076 0.0931,-0.007 0.16992,-0.05227 0.17063,-0.100571 z m 3.78437,-2.775983 c 0.37931,-0.588836 0.54585,-1.013706 0.48868,-1.246728 -0.0659,-0.268684 -0.62028,-0.848772 -0.81114,-0.848772 -0.0787,0 -0.16377,-0.0539 -0.18905,-0.119778 -0.0253,-0.06588 -0.1411,-0.170653 -0.25737,-0.232833 -0.11627,-0.06218 -0.47114,-0.266566 -0.7886,-0.45419 -0.54486,-0.322026 -0.72859,-0.393933 -1.76252,-0.689772 -0.23283,-0.06662 -0.48949,-0.157196 -0.57035,-0.201278 -0.0809,-0.04408 -0.19266,-0.08015 -0.24843,-0.08015 -0.0558,0 -0.26721,-0.08026 -0.46984,-0.178351 -0.40335,-0.195255 -0.42692,-0.191346 -1.33604,0.221599 -0.96684,0.439159 -1.46669,0.624009 -1.94734,0.720155 -0.82195,0.164416 -0.88295,0.34423 -0.22116,0.651914 0.1682,0.07821 0.32762,0.173553 0.35426,0.21188 0.0266,0.03833 0.31238,0.196252 0.635,0.350941 0.32261,0.15469 0.63886,0.34439 0.70277,0.421558 0.0639,0.07717 0.16215,0.140304 0.21832,0.140304 0.0562,0 0.27057,0.109133 0.47647,0.242517 0.20588,0.133384 0.55532,0.294102 0.77651,0.357151 0.22119,0.06305 0.40217,0.144416 0.40217,0.180816 0,0.0364 0.13109,0.06618 0.29133,0.06618 0.16023,0 0.31641,0.04057 0.34707,0.09017 0.0307,0.04959 0.16001,0.07923 0.28748,0.06586 0.12746,-0.01337 0.32371,0.03553 0.43611,0.108662 0.30286,0.197078 0.79377,0.340151 0.95493,0.278307 0.0778,-0.02985 0.24748,-0.01036 0.37706,0.04332 0.20047,0.08304 0.96472,0.212395 1.47479,0.249622 0.0871,0.0064 0.2417,-0.136111 0.37889,-0.349098 z m 12.32271,-3.327647 c 0.78514,-0.416913 0.81148,-0.293768 -0.35669,-1.667687 -0.0693,-0.08149 -0.17467,-0.148166 -0.23416,-0.148166 -0.0595,0 -0.11086,0.06668 -0.11412,0.148166 -0.007,0.165792 -0.05,0.697025 -0.10882,1.3335 -0.0654,0.70765 0.0338,0.748379 0.81379,0.334187 z m -22.6884,-2.383488 c -0.0232,-0.06033 9e-5,-0.109699 0.0516,-0.109699 0.0516,0 0.0937,-0.06169 0.0937,-0.137091 0,-0.156573 0.88523,-1.680913 1.10043,-1.894909 0.1007,-0.100145 0.59295,-0.857111 0.59348,-0.912642 0,-0.03356 0.12414,-0.145247 0.27516,-0.248185 0.15103,-0.102937 0.48415,-0.384541 0.74026,-0.625786 0.25612,-0.241245 0.61807,-0.537879 0.80434,-0.659188 0.37514,-0.244321 0.889,-0.734166 0.889,-0.847467 0,-0.0718 -0.17956,-0.149914 -0.762,-0.331492 -0.16299,-0.05081 -0.66953,-0.118347 -1.12567,-0.150082 -1.00597,-0.06999 -0.97549,-0.08198 -2.48124,0.975913 -0.22811,0.160273 -0.42746,0.322198 -0.44298,0.359834 -0.0155,0.03764 -0.0782,0.06843 -0.13929,0.06843 -0.0611,0 -0.20077,0.09459 -0.31043,0.210204 -0.10967,0.115612 -0.23471,0.210862 -0.27786,0.211667 -0.10624,0.002 -0.97987,0.607618 -0.97987,0.679279 0,0.03135 -0.0991,0.102174 -0.22031,0.157384 -0.27625,0.125867 -0.22899,0.410896 0.12493,0.753359 0.13173,0.127476 0.40143,0.555624 0.59934,0.951441 0.5072,1.014381 0.5538,1.092456 0.73313,1.228223 0.088,0.06658 0.12544,0.122269 0.0833,0.123751 -0.0421,0.0015 -0.008,0.07904 0.0769,0.172348 0.17285,0.190986 0.64564,0.211338 0.57402,0.02471 z"
       id="path129"
       inkscape:connector-curvature="0" />
  </g>
</svg>
