<?xml version="1.0" encoding="UTF-8" standalone="no"?>
<!-- Created with Inkscape (http://www.inkscape.org/) -->

<svg
   xmlns:dc="http://purl.org/dc/elements/1.1/"
   xmlns:cc="http://creativecommons.org/ns#"
   xmlns:rdf="http://www.w3.org/1999/02/22-rdf-syntax-ns#"
   xmlns:svg="http://www.w3.org/2000/svg"
   xmlns="http://www.w3.org/2000/svg"
   xmlns:sodipodi="http://sodipodi.sourceforge.net/DTD/sodipodi-0.dtd"
   xmlns:inkscape="http://www.inkscape.org/namespaces/inkscape"
   id="svg1370"
   sodipodi:version="0.32"
   inkscape:version="0.92.4 (unknown)"
   width="540pt"
   height="540pt"
   sodipodi:docname="Circle-A_red.svg"
   version="1.0">
  <metadata
     id="metadata1375">
    <rdf:RDF>
      <cc:Work
         rdf:about="">
        <dc:format>image/svg+xml</dc:format>
        <dc:type
           rdf:resource="http://purl.org/dc/dcmitype/StillImage" />
      </cc:Work>
    </rdf:RDF>
  </metadata>
  <defs
     id="defs1373" />
  <sodipodi:namedview
     inkscape:window-height="540"
     inkscape:window-width="812"
     inkscape:pageshadow="2"
     inkscape:pageopacity="0.0"
     borderopacity="1.0"
     bordercolor="#666666"
     pagecolor="#ffffff"
     id="base"
     inkscape:zoom="2.8659334"
     inkscape:cx="469.78484"
     inkscape:cy="94.177699"
     inkscape:window-x="138"
     inkscape:window-y="157"
     inkscape:current-layer="svg1370"
     showgrid="false"
     inkscape:window-maximized="0" />
  <path
     style="fill:#cc0001;fill-opacity:1;stroke-width:1.06666672"
     d="m 563.28558,713.80682 c -0.35221,-1.10998 -1.62027,-2.27435 -2.81771,-2.58752 -1.19744,-0.31318 -2.43744,-1.56502 -2.75573,-2.78187 -0.31819,-1.21685 -1.14603,-2.21248 -1.83968,-2.21248 -0.69365,0 -2.43765,-1.95339 -3.87563,-4.34101 -1.43797,-2.38752 -3.2144,-4.99318 -3.94773,-5.7904 -0.73333,-0.79723 -1.33333,-1.96384 -1.33333,-2.59243 0,-0.62859 -0.96,-1.14283 -2.13334,-1.14283 -1.24906,0 -2.13333,-0.71114 -2.13333,-1.71562 0,-1.29739 -0.65013,-1.55243 -2.66667,-1.0464 -1.96789,0.49397 -2.66666,0.24469 -2.66666,-0.95094 0,-0.8912 -0.43787,-1.62037 -0.97291,-1.62037 -1.50421,0 -2.72992,-8.89909 -1.29184,-9.37845 1.73589,-0.57856 1.47317,-3.42155 -0.31627,-3.42155 -1.98293,0 -5.28949,-9.97941 -4.43477,-13.38464 0.47765,-1.90304 0.22176,-2.61536 -0.93931,-2.61536 -0.87765,0 -2.38197,-1.2 -3.34304,-2.66667 -1.45941,-2.2273 -2.58517,-2.66666 -6.83349,-2.66666 -5.54699,0 -6.35584,-1.02439 -6.3872,-8.08889 -0.008,-1.81514 -0.61205,-3.36919 -1.34784,-3.46808 -0.73333,-0.0986 -3.13333,-0.47108 -5.33333,-0.82782 -3.23403,-0.5244 -4,-0.31985 -4,1.06808 0,0.94419 -0.70134,1.71671 -1.55851,1.71671 -0.85707,0 -2.41707,0.87423 -3.46667,1.94274 -1.04949,1.06851 -4.18325,2.78631 -6.96384,3.81734 -2.78058,1.03103 -5.32896,2.3168 -5.66293,2.85726 -0.33397,0.54046 -1.53899,0.98266 -2.67765,0.98266 -1.13878,0 -2.0704,0.38922 -2.0704,0.86506 0,0.47574 -2.42816,1.48726 -5.39584,2.2479 -2.97632,0.76277 -5.96128,2.2881 -6.65664,3.4016 -0.69344,1.1104 -1.86528,2.01877 -2.60416,2.01877 -0.73888,0 -1.34336,0.43787 -1.34336,0.97291 0,0.53514 -2.04,1.30122 -4.53334,1.7025 -2.49333,0.40128 -5.50485,1.34347 -6.69237,2.09376 -1.18741,0.7503 -4.78741,2.47328 -8,3.8288 -3.21248,1.35563 -6.98571,3.33558 -8.38485,4.4 -1.39915,1.06443 -3.43915,1.93536 -4.53334,1.93536 -1.09418,0 -1.98944,0.42635 -1.98944,0.94752 0,0.52118 -2.04,0.94614 -4.53333,0.94432 -14.83701,-0.0103 -34.85536,1.25131 -37.6,2.36982 -3.52235,1.43541 -38.9152,0.61888 -39.96747,-0.92203 -0.81162,-1.18848 -4.2992,-2.35253 -4.2992,-1.43509 0,0.66165 -4.78773,0.72149 -24.2667,0.30325 -2.82324,-0.0606 -3.48963,-0.51989 -3.5904,-2.47445 -0.0931,-1.80608 -0.24446,-1.93803 -0.61155,-0.53334 -0.26829,1.02667 -1.17261,1.86667 -2.00959,1.86667 -0.83699,0 -1.55969,-0.84 -1.606,-1.86667 -0.0503,-1.11509 -0.30081,-1.32981 -0.62222,-0.53333 -0.86777,2.15051 -4.20683,1.53717 -6.90763,-1.26901 -2.27862,-2.36747 -3.09337,-2.54731 -9.02898,-1.99307 -4.31637,0.40309 -6.77678,0.20085 -7.27027,-0.59765 -0.41026,-0.66379 -1.69449,-1.20694 -2.85384,-1.20694 -1.15935,0 -3.35188,-0.81504 -4.87228,-1.8113 -1.93332,-1.26678 -5.69,-1.93334 -12.49581,-2.2175 -11.36263,-0.47424 -21.99809,-3.8097 -21.99809,-6.89909 0,-1.16096 -0.81034,-1.87211 -2.13334,-1.87211 -1.17333,0 -2.07649,-0.36 -2.00702,-0.8 0.0695,-0.44 0.0621,-1.52 -0.0163,-2.4 -0.1268,-1.42222 -0.25597,-1.42222 -1.16262,0 -0.72256,1.13344 -1.44882,1.28896 -2.49076,0.53334 -0.80894,-0.58667 -3.58261,-2.45966 -6.1637,-4.1622 -2.58109,-1.70254 -5.81113,-4.28852 -7.17785,-5.74663 -2.30648,-2.46068 -2.33136,-2.61092 -0.34647,-2.09186 1.51682,0.39665 1.97414,0.13098 1.57318,-0.91392 -0.31091,-0.81023 -1.04867,-1.17441 -1.63946,-0.80928 -0.59078,0.36512 -1.49313,0.002 -2.00522,-0.80612 -0.73639,-1.1626 -0.9345,-1.07966 -0.94742,0.39667 -0.0101,1.15011 -0.83525,1.86667 -2.14966,1.86667 -1.17333,0 -2.13333,-0.48 -2.13333,-1.06667 0,-0.58666 -0.64665,-1.06666 -1.43701,-1.06666 -0.79034,0 -1.95785,-1.08 -2.59447,-2.4 -0.92154,-1.9108 -1.17219,-2.01951 -1.22966,-0.53334 -0.0493,1.27432 -0.94122,1.86667 -2.81075,1.86667 -2.22973,0 -2.61588,0.38645 -2.07836,2.08002 0.72047,2.27002 -1.69454,7.80041 -4.97562,11.3942 -1.1558,1.26594 -2.10228,3.8669 -2.13486,5.86669 -0.0322,1.97578 -1.44168,6.54101 -3.13223,10.14496 -1.69054,3.60384 -3.07371,6.8897 -3.07371,7.30197 0,0.41227 -0.91958,2.04096 -2.04352,3.61941 -2.47514,3.47595 -6.51918,15.05942 -5.25759,15.05942 1.41985,0 1.07054,1.88576 -1.23222,6.65184 -1.17334,2.42858 -2.13334,5.17845 -2.13334,6.11093 0,0.93259 -1.48935,3.00235 -3.30968,4.59968 -3.10013,2.72032 -3.94433,2.90421 -13.33334,2.90421 -8.04616,0 -10.02364,-0.30517 -10.02364,-1.54698 0,-0.85088 -0.83533,-2.01451 -1.85629,-2.58582 -1.62927,-0.91178 -1.85297,-2.87936 -1.82916,-16.08885 0.0267,-14.79477 0.0733,-15.09003 2.75152,-17.41408 2.24719,-1.95019 2.64043,-3.06603 2.24502,-6.37088 -0.66802,-5.58336 0.46801,-10.67755 2.9832,-13.37728 1.93457,-2.07659 2.1615,-3.99147 2.42385,-20.45358 0.1592,-9.98939 -0.075,-18.16253 -0.5205,-18.16253 -1.27215,0 -13.66431,-12.44464 -13.66431,-13.72217 0,-0.62932 -0.75697,-0.85373 -1.68215,-0.4987 -1.79557,0.68902 -12.18452,-8.64031 -12.18452,-10.94175 0,-0.68355 -0.70465,-1.82764 -1.5659,-2.54241 -0.86124,-0.71476 -1.46124,-1.85354 -1.33333,-2.5306 0.12792,-0.67707 -0.72743,-1.10146 -1.90077,-0.94308 -1.45906,0.19695 -4.74613,-2.35808 -10.4,-8.08388 -4.54666,-4.60452 -8.26666,-8.98127 -8.26666,-9.7261 0,-0.74484 -1.75444,-2.91545 -3.89874,-4.82357 -3.50157,-3.11591 -3.83439,-3.86585 -3.26706,-7.36186 0.51727,-3.18758 0.30575,-3.89493 -1.16793,-3.90575 -2.403726,-0.0176 -6.401198,-6.37036 -7.216366,-11.46811 l -0.656427,-4.10507 -5.264714,0.11939 c -3.55936,0.0807 -5.112704,-0.27674 -4.795424,-1.10353 0.258101,-0.67261 0.04103,-1.8994 -0.482368,-2.7262 -0.652811,-1.03122 -0.956768,-0.19333 -0.967979,2.66825 -0.01308,3.34145 -0.699957,4.78186 -3.451915,7.2388 -3.606944,3.22029 -4.211424,3.44386 -13.631082,5.04157 -3.226667,0.54728 -7.987104,1.52999 -10.578731,2.18379 -2.591637,0.6538 -5.311915,0.95853 -6.045056,0.6772 -0.733152,-0.28133 -1.60944,0.20891 -1.947328,1.08942 -0.337877,0.88051 -1.4576,1.46218 -2.488277,1.2926 -1.030667,-0.16958 -2.473942,0.068 -3.207275,0.52801 -0.733333,0.45998 -1.333333,0.568 -1.333333,0.24004 0,-0.32796 -0.970048,0.37376 -2.15567,1.55938 -1.81041,1.81041 -3.424266,2.13112 -10.076309,2.00233 -7.166944,-0.13875 -7.962997,-0.36925 -8.365739,-2.42234 -0.350592,-1.78727 -0.475925,-1.64623 -0.590346,0.66434 -0.09071,1.83174 -0.746134,2.93334 -1.74527,2.93334 -0.879999,0 -1.599369,-0.36 -1.598612,-0.8 7.57e-4,-0.44 -2.039243,-0.8 -4.533333,-0.8 H 6.4490652 l 0.1216746,-4 c 0.066912,-2.2 -0.293088,-4 -0.8,-4 -1.059648,0 -1.2214933,-9.97131 -0.2224106,-13.70307 0.5612053,-2.09622 1.1665706,-2.40377 3.7245544,-1.89217 3.8249714,0.765 7.6184214,-0.90218 8.9532264,-3.93483 0.562624,-1.27828 1.980544,-2.50478 3.150923,-2.72557 1.170378,-0.22079 4.242282,-1.85612 6.826442,-3.63407 2.58416,-1.77795 6.186582,-3.28011 8.005366,-3.33813 4.14816,-0.13233 6.02001,-1.8308 5.252458,-4.76595 -0.370656,-1.41736 -0.09631,-2.27288 0.728864,-2.27288 0.727776,0 4.198464,-1.92 7.712619,-4.26667 3.514165,-2.34666 6.998699,-4.26666 7.743424,-4.26666 0.744725,0 1.621675,-1.02341 1.948768,-2.27422 0.433227,-1.65666 1.181237,-2.12085 2.754603,-1.7094 1.187946,0.31066 2.056298,0.25405 1.929685,-0.12578 -0.126603,-0.37983 0.09677,-0.6906 0.496395,-0.6906 0.399626,0 1.839626,-1.6489 3.2,-3.66421 1.360373,-2.01531 4.491008,-4.65531 6.95696,-5.86666 2.657429,-1.30542 4.503829,-2.96274 4.533333,-4.06913 0.02738,-1.02667 0.709781,-1.86667 1.516448,-1.86667 1.642133,0 2.8,-4.51752 2.8,-10.92441 0,-3.73258 0.263125,-4.18892 2.133333,-3.69986 1.173334,0.30684 2.133334,0.12282 2.133334,-0.40893 0,-0.53174 -0.69744,-0.9668 -1.549867,-0.9668 -1.813643,0 -3.768907,-6.21126 -3.777515,-12 -0.0042,-2.8418 -0.469226,-4 -1.605952,-4 -1.610261,0 -1.672768,-0.36834 -2.219306,-13.07917 -0.120107,-2.79355 -0.98991,-6.25665 -1.932875,-7.69581 -3.471243,-5.29778 -1.466219,-24.42566 3.03184,-28.92373 1.143979,-1.14398 1.604299,-1.18014 2.017088,-0.15843 0.294155,0.72809 0.572725,0.24381 0.61904,-1.07619 0.04632,-1.32 0.660213,-2.4 1.364213,-2.4 0.995552,0 0.995552,-0.28445 0,-1.28 -0.704,-0.704 -1.28,-2.37711 -1.28,-3.71803 0,-4.33064 2.535531,-12.06864 3.95456,-12.06864 0.758326,0 1.378774,-0.72 1.378774,-1.6 0,-0.88 -0.48,-1.6 -1.066667,-1.6 -0.586667,0 -1.066667,-0.5742 -1.066667,-1.276 0,-1.54392 5.111915,-9.24652 7.740054,-11.66268 1.102058,-1.01316 1.612352,-2.4654 1.222912,-3.48024 -0.367563,-0.95787 -0.202624,-2.33547 0.366528,-3.06133 1.72992,-2.20621 4.537173,-11.6215 4.537173,-15.21727 0,-4.63479 2.038132,-10.10248 3.765802,-10.10248 0.78307,0 1.72846,-0.96 2.10086,-2.13333 0.37241,-1.17334 1.30753,-2.13334 2.07804,-2.13334 0.77052,0 2.73667,-2.64 4.36921,-5.86666 1.63254,-3.22667 3.36978,-5.86667 3.86051,-5.86667 0.49073,0 0.89225,-0.87288 0.89225,-1.93973 0,-3.17591 3.14229,-12.78352 4.68586,-14.32709 0.78798,-0.78798 1.78229,-2.53417 2.20957,-3.88044 0.50072,-1.5776 1.40393,-2.28422 2.54073,-1.98768 1.31534,0.3431 1.82348,-0.34533 1.99841,-2.7074 0.31673,-4.27695 2.73278,-7.70646 6.65089,-9.44079 2.43962,-1.07988 3.24787,-2.14047 3.24787,-4.26189 0,-1.85602 1.737,-4.78365 5.06667,-8.53962 2.78666,-3.14345 5.3997,-5.86637 5.80674,-6.05094 0.40705,-0.18457 0.50963,-0.93613 0.22797,-1.67014 -0.81736,-2.12997 2.0927,-6.74446 7.69985,-12.20968 2.85932,-2.78696 6.04983,-6.3686 7.09002,-7.95922 1.43784,-2.19869 2.75307,-2.89205 5.48588,-2.89205 2.16443,0 3.83196,-0.61847 4.19113,-1.55445 0.51669,-1.34648 2.31825,-2.73082 11.16437,-8.57888 4.12202,-2.72501 5.86332,-5.39644 6.35376,-9.74767 0.5036,-4.4679 0.66689,-4.65233 4.119,-4.65233 1.97703,0 3.59461,-0.48 3.59461,-1.06667 0,-0.58666 0.44307,-1.06666 0.98462,-1.06666 0.99792,0 7.54871,-6.13742 7.54871,-7.07238 0,-1.56186 6.14635,-7.8609 7.67038,-7.86093 0.99204,-2e-5 2.10038,-0.48003 2.46296,-1.06669 0.36258,-0.58667 2.29584,-1.06667 4.29614,-1.06667 2.95392,0 3.50899,-0.33333 2.95578,-1.77498 -0.4757,-1.23966 -0.28221,-1.52844 0.64156,-0.95752 0.72748,0.44961 1.73862,1.84835 2.24699,3.10832 0.90869,2.25214 0.92545,2.24819 0.99191,-0.23356 0.0532,-1.98638 0.52229,-2.4055 2.20095,-1.96653 1.17333,0.30684 2.13333,0.18602 2.13333,-0.26848 0,-0.45449 1.8,-1.10454 4,-1.44454 2.2,-0.34001 5.08,-0.93919 6.4,-1.33152 1.88261,-0.55955 2.40524,-0.2841 2.42429,1.27774 0.0168,1.37483 0.53879,0.94791 1.68666,-1.37943 1.46249,-2.96526 2.54637,-3.57013 9.0147,-5.03087 4.04378,-0.9132 9.26567,-2.63648 11.60419,-3.8295 2.33852,-1.19302 5.92263,-2.16913 7.96471,-2.16913 2.04209,0 4.00954,-0.48 4.37212,-1.06667 0.36258,-0.58666 1.60597,-1.06666 2.76309,-1.06666 1.15712,0 2.38102,-0.72227 2.71977,-1.60503 0.55959,-1.45827 4.32469,-3.58218 9.18381,-5.18063 1.04576,-0.34401 1.87306,-1.68422 1.88122,-3.04754 0.0239,-3.98611 1.21048,-7.23347 2.64318,-7.23347 0.73824,0 1.64451,-1.51124 2.01393,-3.35833 0.70218,-3.51092 6.62759,-10.47738 8.92833,-10.49698 0.73334,-0.006 1.33334,-0.41792 1.33334,-0.91481 0,-0.4969 0.96,-2.01035 2.13333,-3.36321 1.17333,-1.35287 2.13333,-3.30949 2.13333,-4.34804 0,-1.03856 1.18055,-3.29128 2.62344,-5.00607 2.43793,-2.89731 2.64926,-4.09107 2.98844,-16.88184 0.36528,-13.77477 1.86944,-19.813383 5.21294,-20.92789 0.72911,-0.24304 1.20361,-2.18145 1.11446,-4.552842 -0.0854,-2.271286 0.5474,-7.499542 1.4062,-11.618347 1.11722,-5.358229 1.22822,-7.694677 0.39016,-8.212619 -0.74027,-0.457514 -0.9375,-2.636512 -0.53601,-5.921461 0.3494,-2.858656 0.94261,-9.157568 1.31825,-13.997568 0.50338,-6.485941 1.07394,-8.8 2.16952,-8.8 1.0465,0 1.29162,-0.776608 0.82816,-2.623349 -0.57344,-2.284939 0.71669,-7.306731 3.84768,-14.976651 0.47893,-1.173333 1.13824,-3.333333 1.46496,-4.8 0.32682,-1.466667 1.55712,-4.226667 2.73397,-6.133333 2.57451,-4.170923 6.55264,-4.653003 9.04405,-1.09599 1.87158,2.672064 2.2079,6.162656 0.59382,6.162656 -0.58667,0 -1.06667,0.72 -1.06667,1.6 0,0.88 0.72,1.6 1.6,1.6 0.88,0 1.6,0.445718 1.6,0.990475 0,0.544768 0.84,1.827019 1.86667,2.849451 2.6081,2.597365 8.26208,27.273642 7.47616,32.628789 -0.28075,1.912565 0.0394,2.997952 0.88416,2.997952 0.87146,0 1.58336,2.764416 2.08192,8.084608 0.4833,5.157813 1.27072,8.281547 2.17514,8.628597 2.0879,0.801184 5.78262,7.540566 5.78262,10.547766 0,1.568992 0.61728,2.605696 1.55168,2.605696 1.97845,0 3.03488,5.486709 2.55168,13.25339 -0.25259,4.06105 0.0284,5.94905 0.88512,5.94806 2.28213,-0.003 6.67936,11.30865 6.00693,15.45224 -0.42773,2.63619 -0.20661,3.74632 0.74645,3.74632 1.00875,0 1.2063,1.63336 0.77408,6.4 -0.43658,4.81501 -0.23957,6.4 0.79584,6.4 2.82155,0 5.08928,5.3709 4.5663,10.81457 -0.27403,2.85199 -0.0888,5.18543 0.41184,5.18543 0.50048,0 0.91008,0.66 0.91008,1.46666 0,2.75219 13.28277,4.39254 20.12672,2.48552 2.01397,-0.5612 3.88928,-0.59493 4.26666,-0.0767 0.99382,1.36469 3.33995,1.62761 3.33995,0.37428 0,-1.26188 5.23221,-1.17457 10.86197,0.18127 2.82603,0.68061 4.02358,1.59016 4.26667,3.2407 0.34869,2.3669 2.42155,3.34339 9.67136,4.55595 3.33024,0.55702 4,1.09929 4,3.23902 0,2.12219 0.69227,2.69989 3.97323,3.31538 2.18528,0.40997 4.61952,1.39172 5.40949,2.18167 0.78997,0.78996 2.51829,1.43629 3.84085,1.43629 1.32246,0 3.53184,1.2 4.90976,2.66666 1.37782,1.46667 3.09888,2.66667 3.82443,2.66667 0.72555,0 2.47211,1.37006 3.88107,3.04456 2.08309,2.47558 3.19722,2.95132 5.96149,2.5456 1.92565,-0.28262 3.39968,-0.0273 3.39968,0.58891 0,0.59833 1.03499,0.8172 2.30005,0.48638 1.56438,-0.40908 2.05846,-0.21041 1.54464,0.62097 -0.49258,0.79699 -0.16949,0.99758 0.92832,0.57632 1.03947,-0.39888 2.67403,0.4222 4.27115,2.14555 1.83168,1.97642 3.66688,2.79171 6.28395,2.79171 2.03306,0 6.17962,1.24718 9.2145,2.77151 4.3264,2.17301 5.40342,3.20989 4.9872,4.80147 -0.30304,1.15881 -0.085,1.75439 0.50806,1.38783 0.57152,-0.35316 1.30272,0.36618 1.62496,1.59853 0.32224,1.23236 1.08864,2.24066 1.70314,2.24066 0.6144,0 2.9584,0.81237 5.20896,1.80528 3.28043,1.44732 4.09174,2.37318 4.09174,4.66939 0,1.57526 0.72,3.46166 1.6,4.192 0.88,0.73033 1.6,2.22911 1.6,3.3306 0,1.1015 0.68768,2.00273 1.5281,2.00273 0.84043,0 1.83275,0.96 2.20523,2.13333 0.42432,1.33712 1.61387,2.13334 3.18709,2.13334 1.9232,0 2.67478,0.75025 3.21483,3.20887 0.83851,3.81785 3.22005,5.33029 7.19616,4.5702 2.18773,-0.41822 3.08405,-0.0632 3.61611,1.43245 0.79029,2.22131 6.41056,7.85514 7.83626,7.85514 1.41206,0 7.48288,6.39375 7.48288,7.88092 0,0.72426 0.96,2.34725 2.13334,3.60669 1.17333,1.25942 2.13333,2.98993 2.13333,3.84557 0,0.85564 0.36,1.71571 0.8,1.91127 1.89525,0.84235 5.61024,7.44898 5.72373,10.17903 0.075,1.8037 0.31595,2.24101 0.61152,1.10986 0.57184,-2.18804 1.54464,-2.36006 3.31808,-0.58667 0.99552,0.99555 1.28,0.99555 1.28,0 0,-0.704 0.6896,-1.28 1.53238,-1.28 0.94922,0 1.65962,1.31935 1.86666,3.46667 l 0.3343,3.46666 9.03264,0.31357 c 5.22762,0.18147 9.34624,0.82084 9.77696,1.51777 0.95328,1.54239 21.19317,-0.82261 26.2688,-3.06947 1.91317,-0.84691 3.95317,-1.24646 4.53333,-0.8879 0.58027,0.35857 1.05493,0.11344 1.05493,-0.54473 0,-0.65817 0.84,-1.0902 1.86667,-0.96007 3.02677,0.38363 7.73333,-1.29093 7.73333,-2.75147 0,-0.92491 1.83254,-1.35103 5.80992,-1.35103 5.07318,0 5.86635,0.28742 6.25472,2.26667 0.42923,2.18743 0.44992,2.18277 0.59008,-0.13334 0.0799,-1.32 0.8319,-2.4 1.67104,-2.4 0.83926,0 1.73387,1.08 1.98806,2.4 0.33877,1.7584 0.50112,1.4847 0.60757,-1.02385 0.1312,-3.09156 0.58517,-3.53907 4.67861,-4.61105 2.49334,-0.65297 6.45334,-2.11357 8.8,-3.24578 2.34667,-1.13221 5.80278,-2.05725 7.68032,-2.05562 2.02134,0.002 3.80288,-0.69252 4.3679,-1.70215 1.3328,-2.38155 22.15658,-1.82079 23.70901,0.63845 0.55552,0.88 1.01739,5.56 1.02645,10.4 0.0126,6.78303 -0.32138,8.8 -1.45717,8.8 -0.81035,0 -2.86027,1.41848 -4.5552,3.15217 -3.60832,3.69064 -9.65621,6.44783 -14.14325,6.44783 -2.01899,0 -3.74699,0.81831 -4.74902,2.24897 -0.86634,1.23693 -2.09365,1.92861 -2.72714,1.53705 -0.6751,-0.4172 -1.1519,0.15315 -1.1519,1.37769 0,1.70024 -0.73877,2.08963 -3.96448,2.08963 -2.18048,0 -4.14048,0.528 -4.35552,1.17333 -0.21514,0.64533 -0.85205,1.17333 -1.41546,1.17333 -0.56342,0 -2.32342,1.215 -3.91115,2.7 -1.58773,1.48501 -3.94955,2.97272 -5.24853,3.30604 -1.29899,0.33332 -2.65131,1.51833 -3.00523,2.63333 -0.35392,1.11502 -1.34613,2.0273 -2.20501,2.0273 -0.85888,0 -1.83787,0.72 -2.17558,1.6 -0.3377,0.88 -1.52266,1.6 -2.63317,1.6 -1.21045,0 -2.0208,0.74768 -2.02325,1.86667 -0.006,2.8615 -4.11638,8.96147 -6.4495,9.5716 -1.14389,0.29914 -2.07978,0.96789 -2.07978,1.48613 0,0.51824 -1.2,0.94227 -2.66667,0.94227 -1.92459,0 -2.66667,0.57368 -2.66667,2.06145 0,1.1338 -0.95722,2.36524 -2.12704,2.73654 -1.16981,0.3713 -2.92384,1.47188 -3.8977,2.44573 -0.97376,0.97385 -5.17664,3.46241 -9.33963,5.53012 -4.16288,2.06772 -7.65845,4.47949 -7.76789,5.35949 -1.28086,10.30517 -1.65419,11.73333 -3.06646,11.73333 -0.84405,0 -1.53461,0.96 -1.53461,2.13334 0,1.18518 0.71104,2.13333 1.6,2.13333 1.55083,0 1.80192,1.58071 2.06667,13.00946 0.0367,1.58187 0.66666,3.47787 1.4,4.21333 1.53184,1.53629 1.83477,12.64388 0.34485,12.64388 -1.66485,0 -1.86283,3.5489 -0.39989,7.16573 1.85738,4.59212 1.76778,9.52709 -0.18678,10.2771 -1.36394,0.52343 -1.33482,1.02297 0.21739,3.72764 2.34891,4.09275 0.90923,10.85765 -2.64224,12.4158 -2.60747,1.14394 -3.28213,3.74706 -0.9712,3.74706 3.11381,0 5.44949,11.89506 2.84661,14.49786 -0.6993,0.69937 -0.64021,2.16426 0.17451,4.3227 1.28203,3.39639 1.12683,4.06204 -2.23531,9.58965 -2.78805,4.58363 -3.09184,10.8753 -0.70101,14.51538 1.38016,2.10129 1.74656,4.05479 1.30027,6.93333 -0.34176,2.20426 -0.84363,5.44775 -1.1152,7.20775 -1.0111,6.55147 -3.21451,14.4 -4.04267,14.4 -0.47083,0 -0.856,1.2 -0.856,2.66666 0,2.25185 -0.49781,2.66667 -3.2,2.66667 h -3.2 v 7.48235 c 0,7.00512 -0.18731,7.6004 -2.93643,9.33333 -2.05557,1.29572 -2.83328,2.57094 -2.59253,4.25099 0.23157,1.61558 -0.2032,2.4 -1.33024,2.4 -0.92075,0 -1.67413,0.48 -1.67413,1.06666 0,0.58667 0.72,1.06667 1.6,1.06667 2.17578,0 2.2657,10.91959 0.10464,12.71314 -0.8224,0.68257 -1.8192,2.53134 -2.21504,4.10838 -0.39584,1.57705 -2.0224,4.07736 -3.61462,5.55625 -1.59221,1.47889 -3.70368,3.97396 -4.69205,5.5446 -0.98837,1.57063 -2.88885,3.01063 -4.22336,3.2 -1.51019,0.2143 -3.0304,1.64772 -4.02624,3.79659 -0.88,1.89877 -2.3632,3.70672 -3.29589,4.01768 -1.89067,0.6303 -3.67563,3.81614 -4.65099,8.30109 -0.3728,1.71465 -1.65365,3.35415 -3.0288,3.87698 -1.64651,0.62598 -2.79083,2.43183 -3.70357,5.84424 -1.7871,6.68185 -1.6768,7.85095 0.81504,8.64184 1.9745,0.62668 2.10272,1.40832 1.69792,10.34843 -0.24086,5.31879 -0.93664,9.97876 -1.54624,10.35548 -0.64118,0.39626 -0.7327,1.29261 -0.21707,2.12678 0.49003,0.79301 1.40427,1.12465 2.03157,0.73697 0.62934,-0.38895 1.87798,0.72125 2.78592,2.47703 2.18304,4.22154 2.0751,5.42119 -0.48789,5.42119 -1.79979,0 -2.13227,0.70876 -2.12629,4.53333 0.004,2.72833 0.85077,5.80744 2.12629,7.73333 1.16555,1.76 2.12245,4.68991 2.12629,6.51091 0.004,2.04589 1.02582,4.41027 2.67371,6.18829 2.78624,3.0064 2.84267,3.21536 3.19573,11.83414 0.12022,2.93333 1.1967,7.25333 2.39232,9.6 1.19552,2.34666 2.42123,6.11669 2.72384,8.3777 0.30262,2.26112 1.07627,4.63712 1.71915,5.28 1.43008,1.43008 1.56608,10.3423 0.15776,10.3423 -0.60821,0 -0.55509,1.30826 0.13333,3.2832 0.82219,2.3584 0.81302,4.01066 -0.0326,5.86666 -1.1104,2.43702 -1.68842,2.58347 -10.19477,2.58347 -7.90933,0 -9.09643,-0.248 -9.65824,-2.01813 z M 367.51577,624.9805 c 0,-0.48888 0.96,-0.88888 2.13333,-0.88888 1.17333,0 2.13333,0.48 2.13333,1.06666 0,0.58667 0.48,1.06667 1.06667,1.06667 0.58667,0 1.06667,-0.75234 1.06667,-1.67188 0,-1.18647 0.61941,-1.47529 2.13333,-0.99479 1.17333,0.37241 2.13707,0.28475 2.14165,-0.19478 0.0108,-1.12955 5.0384,-3.46962 5.80576,-2.70226 0.32224,0.32226 0.63371,1.82593 0.69227,3.34149 l 0.10624,2.75555 0.73611,-2.6427 c 0.58186,-2.08893 1.50954,-2.69321 4.42709,-2.8838 2.02997,-0.13261 5.69557,-0.48938 8.14571,-0.7928 2.95861,-0.3664 4.632,-0.11435 4.9824,0.75047 0.29024,0.71619 0.56554,0.28094 0.61184,-0.96723 0.12864,-3.46736 2.82922,-5.28202 5.15093,-3.46121 1.02667,0.80517 2.11936,1.79861 2.42816,2.20763 0.73547,0.97413 2.35499,-0.23019 3.77931,-2.81036 0.81877,-1.48318 3.98101,-2.73881 11.2,-4.4473 15.29984,-3.62091 17.52352,-4.26255 21.29792,-6.14548 1.91893,-0.9573 4.13525,-1.74055 4.92512,-1.74055 0.78986,0 1.43616,-0.62351 1.43616,-1.38557 0,-0.76207 2.00373,-2.56207 4.45269,-4 2.44896,-1.43794 5.68896,-3.85249 7.2,-5.36567 1.51104,-1.51318 4.29227,-3.05818 6.18059,-3.43334 4.08714,-0.81198 7.76672,-4.18856 7.76672,-7.12716 0,-3.4277 -3.31126,-10.68826 -4.87456,-10.68826 -0.7936,0 -2.13707,-2.27978 -2.98582,-5.06667 -0.84864,-2.78666 -2.30378,-6.84304 -3.2337,-9.01415 -0.93195,-2.17608 -1.7984,-7.561 -1.93078,-12 -0.13216,-4.42889 -0.61994,-8.05251 -1.08405,-8.05251 -2.42197,0 -7.19392,-6.36648 -7.85067,-10.474 -0.39221,-2.45263 -1.13173,-4.45934 -1.64341,-4.45934 -0.51168,0 -0.93035,-1.44 -0.93035,-3.2 0,-1.76 -0.36672,-3.2 -0.81482,-3.2 -1.45238,0 -5.86656,-10.54234 -5.30816,-12.67738 0.37493,-1.43383 -0.0995,-2.23964 -1.54038,-2.61645 -1.82837,-0.47811 -2.048,-1.36733 -1.80106,-7.29201 0.2641,-6.33964 -1.17995,-11.54749 -3.20192,-11.54749 -1.4591,0 -3.29216,-5.13906 -4.00928,-11.24008 -0.37664,-3.20462 -1.16491,-5.82659 -1.75168,-5.82659 -0.67808,0 -0.81088,-2.8261 -0.36438,-7.75377 0.59275,-6.54135 0.36566,-8.45136 -1.4528,-12.21513 -1.1856,-2.45376 -2.15552,-4.96457 -2.15552,-5.57957 0,-0.615 -0.47093,-1.11819 -1.0464,-1.11819 -0.57546,0 -1.34389,-1.18544 -1.70752,-2.63432 -0.39509,-1.57412 -2.87157,-4.11185 -6.1536,-6.30567 -3.0209,-2.01925 -6.5472,-4.66893 -7.83626,-5.88817 -1.28907,-1.21925 -2.59318,-1.81318 -2.89814,-1.31984 -0.30485,0.49333 -6.21013,2.19873 -13.12288,3.78978 -6.91274,1.59104 -14.72853,3.55151 -17.36853,4.35658 -8.49344,2.59013 -11.73173,2.9814 -11.74965,1.41973 -0.013,-1.12792 -0.20928,-1.11345 -0.95904,0.0707 -0.51851,0.81882 -1.71115,1.19388 -2.65035,0.83348 -1.088,-0.41753 -1.70763,-0.0869 -1.70763,0.91123 0,2.58826 -3.18858,1.78869 -3.32373,-0.83347 -0.0931,-1.80605 -0.24448,-1.93804 -0.61163,-0.53334 -0.26826,1.02667 -1.13738,1.86667 -1.9313,1.86667 -0.79403,0 -1.66315,-0.84 -1.93142,-1.86667 -0.26826,-1.02666 -0.54346,-0.30666 -0.61152,1.6 -0.11648,3.26305 -1.87381,4.5611 -3.70101,2.73383 -1.29621,-1.29621 -4.85056,-1.08078 -5.39061,0.32672 -0.32896,0.8573 0.0583,1.14086 1.04256,0.76319 1.26517,-0.48549 1.21024,0.019 -0.28587,2.62576 -1.66645,2.90373 -2.63381,3.343 -9.66389,4.3886 -4.29664,0.63904 -10.31247,1.17672 -13.36852,1.19484 -9.40357,0.0557 -21.40572,1.98266 -22.29974,3.58017 -0.77788,1.39 -5.7537,3.34892 -7.52335,2.96187 -0.44,-0.0962 -0.8,0.23158 -0.8,0.72848 0,1.71986 -3.9912,5.49654 -5.80875,5.49654 -1.00384,0 -3.72046,1.97261 -6.0369,4.38358 -2.98238,3.10405 -4.82605,4.22292 -6.31638,3.83319 -1.84866,-0.48343 -2.10464,-0.005 -2.10464,3.93488 0,3.78164 -0.66933,5.18185 -4.26666,8.9256 -2.97878,3.10001 -4.26667,5.37526 -4.26667,7.53769 0,1.70355 -0.84,4.24761 -1.86667,5.65346 -3.03164,4.15135 -4.55554,6.67994 -5.22203,8.66494 -0.34473,1.02666 -1.0508,1.86666 -1.56904,1.86666 -0.51824,0 -0.94226,1.2 -0.94226,2.66667 0,1.46667 -0.42658,2.66667 -0.94796,2.66667 -0.52137,0 -1.26312,1.68 -1.64833,3.73333 -0.3852,2.05333 -1.15863,3.73333 -1.71871,3.73333 -0.56008,0 -1.01833,1.17167 -1.01833,2.60371 0,1.43205 -0.48728,2.90488 -1.08283,3.27294 -1.79724,1.11077 -3.78306,7.00225 -5.20991,15.45669 -2.12004,12.56172 -2.19191,12.8 -3.86092,12.8 -1.09424,0 -1.57968,1.14727 -1.57968,3.73333 0,2.05333 0.48,3.73333 1.06667,3.73333 1.59957,0 1.29462,2.31758 -0.92102,6.99965 -1.09323,2.3102 -2.2847,7.18911 -2.64771,10.84204 -0.65989,6.6405 -0.65924,6.6425 3.64599,11.16823 3.61185,3.79685 4.87734,4.47733 7.85019,4.2212 2.58555,-0.22277 5.15254,0.7235 9.49046,3.49843 3.27045,2.09208 7.14675,3.80379 8.61399,3.80379 4.13976,0 8.10143,2.231 8.10143,4.56229 0,1.5878 0.53006,1.9479 2.21759,1.5066 1.57335,-0.41143 2.05659,-0.16034 1.66341,0.86428 -0.3048,0.7943 0.13728,2.01805 0.98241,2.71944 1.25559,1.04206 1.53659,0.86126 1.53659,-0.98868 0,-1.33937 0.67914,-2.26393 1.66296,-2.26393 0.91462,0 1.36673,0.47928 1.0047,1.06506 -0.80212,1.29786 3.97709,0.93054 4.93243,-0.37908 1.16289,-1.59414 7.30153,0.46012 8.56847,2.86738 1.72404,3.2758 2.96664,3.87845 8.03516,3.89697 2.4587,0.009 4.76704,0.49633 5.12962,1.083 0.36258,0.58667 1.60597,1.06667 2.76309,1.06667 1.15712,0 2.38015,0.72 2.71783,1.6 0.3377,0.88 1.56757,1.6 2.73306,1.6 1.25065,0 2.35737,0.91122 2.70053,2.22349 0.4296,1.64281 0.80593,1.8603 1.44096,0.8328 0.96902,-1.56788 14.78696,-1.61854 15.83528,-0.0581 0.33504,0.49879 6.12928,1.49315 12.87595,2.20967 6.74666,0.71652 12.4,1.67787 12.56298,2.13632 0.39776,1.11915 3.43702,1.07022 3.43702,-0.0553 z m -189.8667,-77.02222 c 0,-7.8236 1.04087,-12.4 2.82032,-12.4 1.02961,0 1.29282,-0.77364 0.85572,-2.51517 -0.7869,-3.13526 1.95575,-9.90167 5.12901,-12.65382 2.31911,-2.01135 2.3304,-2.11684 0.37955,-3.54334 -1.52439,-1.11466 -1.86896,-2.31889 -1.42461,-4.97896 1.15501,-6.9146 2.656,-9.3671 5.81361,-9.49911 1.80409,-0.0754 2.23089,-0.31421 1.09306,-0.61155 -1.02666,-0.26829 -1.86666,-0.93261 -1.86666,-1.47626 0,-1.5085 -2.09546,-1.1787 -3.88572,0.61155 -0.88,0.88 -2.49739,1.6 -3.59419,1.6 -1.09681,0 -2.29085,0.48 -2.65343,1.06666 -0.36258,0.58667 -1.83742,1.06667 -3.27743,1.06667 -1.44,0 -3.58631,0.6 -4.76959,1.33333 -1.77328,1.09899 -2.33029,1.05212 -3.16919,-0.26666 -0.78422,-1.23283 -1.02154,-1.26783 -1.03412,-0.15255 -0.01,0.84583 -0.68137,1.19226 -1.61633,0.83347 -0.88,-0.33768 -1.6,-0.12636 -1.6,0.46959 0,0.59596 -2.04,3.14424 -4.53334,5.66283 -4.22764,4.2705 -4.4589,4.80304 -3.42949,7.89791 0.6071,1.82526 1.4471,3.66192 1.86667,4.08147 1.24552,1.24553 0.86723,8.40954 -0.51718,9.79394 -0.99555,0.99555 -0.75851,1.28 1.06667,1.28 1.29067,0 2.34667,0.48 2.34667,1.06667 0,0.58667 0.72,1.06667 1.6,1.06667 0.88,0 1.6,0.68765 1.6,1.52811 0,0.84047 0.96051,1.83298 2.13446,2.20558 1.17396,0.3726 2.66671,1.72494 3.31723,3.00521 2.08682,4.10706 5.72353,9.24629 6.54831,9.25381 0.44,0.004 0.8,-2.57271 0.8,-5.72605 z m 357.33294,-23.82164 c 1.46005,-1.76285 1.35178,-7.77836 -0.14006,-7.77836 -1.56085,0 -0.46698,-8.86417 1.16075,-9.40676 1.50037,-0.50014 3.59488,-4.60314 6.34731,-12.43451 1.21504,-3.45679 2.58229,-6.55665 3.0384,-6.88856 0.9888,-0.71954 3.46069,-9.89351 3.46069,-12.84393 0,-1.14206 1.072,-3.07521 2.38229,-4.2959 2.03819,-1.89885 2.33675,-3.13745 2.06731,-8.57489 -0.23264,-4.69416 0.0508,-6.3548 1.08437,-6.35296 1.07211,0.002 1.31862,-2.118 1.0543,-9.06667 -0.18976,-4.98803 0.0502,-9.06913 0.53333,-9.0691 0.48309,2e-5 0.8784,-6.88513 0.8784,-15.30035 0,-11.99072 0.344,-15.71548 1.59051,-17.21921 1.21184,-1.46199 1.5217,-4.29493 1.30154,-11.89965 -0.21258,-7.34275 0.0577,-9.98084 1.02283,-9.98084 1.02027,0 1.02731,-0.28445 0.0318,-1.28 -0.704,-0.704 -1.28,-2.28831 -1.28,-3.52068 0,-3.36737 -2.29163,-7.55419 -4.75019,-8.6788 -1.20075,-0.54922 -2.06315,-1.58103 -1.91648,-2.29289 0.14667,-0.71187 -0.41813,-1.2943 -1.25515,-1.2943 -0.83701,0 -1.74133,-0.84 -2.0096,-1.86666 -0.26826,-1.02667 -0.54346,-0.0667 -0.61152,2.13333 -0.12608,4.07642 -2.27029,5.48101 -4.07072,2.66667 -1.13962,-1.78131 -4.32746,-1.94669 -4.97536,-0.25813 -0.34976,0.91143 0.18272,1.16673 1.63915,0.78588 1.89685,-0.49604 2.00256,-0.31664 0.87648,1.48656 -1.63179,2.61295 -13.62016,8.98881 -16.82677,8.94913 -1.33846,-0.0166 -2.69131,0.64189 -3.00651,1.46322 -0.83851,2.18498 -7.65291,1.9646 -8.24533,-0.26666 -0.25696,-0.968 -0.52288,-0.2 -0.59094,1.70666 -0.0969,2.71432 -0.58677,3.46667 -2.25706,3.46667 -1.17334,0 -2.13334,-0.37714 -2.13334,-0.83809 0,-0.46096 -0.96,-0.8381 -2.13333,-0.8381 -1.17333,0 -2.13333,0.3037 -2.13333,0.67489 0,2.09406 -4.42454,5.06248 -9.06667,6.0829 -9.33483,2.05192 -18.66667,5.69102 -18.66667,7.27932 0,0.82816 0.68768,1.50575 1.52811,1.50575 0.84043,0 1.83275,0.96 2.20523,2.13333 0.37237,1.17333 1.13173,2.13333 1.68757,2.13333 1.64832,0 5.23744,6.70373 5.24171,9.79048 0.002,1.57143 0.72405,3.57714 1.60405,4.45714 1.81195,1.81195 2.26741,12.41905 0.53333,12.41905 -0.58666,0 -1.06666,0.48 -1.06666,1.06667 0,0.58666 0.96,1.06666 2.13333,1.06666 1.43317,0 2.13333,0.71112 2.13333,2.16681 0,1.19175 0.69643,2.43407 1.54763,2.76072 2.19264,0.84136 5.21696,9.30999 4.32661,12.11509 -0.5473,1.7245 0.027,3.08086 2.24256,5.29648 4.75712,4.75703 7.5168,21.94116 4.70955,29.3248 -0.67584,1.77778 -0.67584,2.7361 0,2.7361 0.57216,0 1.04032,1.17167 1.04032,2.60371 0,1.43205 0.45525,2.88511 1.01173,3.22904 0.55648,0.34394 1.86294,3.49226 2.90315,6.99629 1.04021,3.50403 2.50485,6.37096 3.25483,6.37096 0.90496,0 1.36362,1.61431 1.36362,4.8 0,2.64 -0.48,4.8 -1.06666,4.8 -0.58667,0 -1.06667,0.74833 -1.06667,1.66296 0,0.91462 0.44715,1.38659 0.99371,1.04882 0.54645,-0.33777 1.66954,0.35085 2.49557,1.53026 0.82613,1.17941 1.80181,1.84461 2.16821,1.47821 1.21974,-1.21971 7.77579,2.67699 9.30208,5.5288 l 1.50432,2.81084 1.90102,-2.49661 c 1.04554,-1.37313 2.38112,-3.07635 2.968,-3.78492 z m -383.9154,-73.68255 c 0.0552,0.89807 0.29156,0.81904 0.68542,-0.22914 1.4215,-3.78301 5.04432,-7.6685 9.06045,-9.71738 5.78397,-2.95076 13.38762,-5.19028 17.67006,-5.20441 1.99253,-0.007 3.74482,-0.64915 4.06819,-1.49185 0.31243,-0.81417 1.98237,-1.76317 3.71099,-2.10889 1.72862,-0.34573 4.57572,-2.26044 6.3269,-4.25492 1.75118,-1.99449 4.74617,-4.26312 6.65554,-5.0414 1.90937,-0.77828 3.96005,-2.05783 4.55709,-2.84345 1.13317,-1.49111 14.93197,-3.91575 16.55968,-2.90978 0.51408,0.31773 1.79422,0.13742 2.84474,-0.40067 1.05054,-0.53809 3.16926,-1.56293 4.70829,-2.27741 1.79407,-0.83288 3.21211,-2.69574 3.95157,-5.19111 1.51656,-5.11781 3.66692,-20.10306 3.46673,-24.15873 -0.0869,-1.76 0.2814,-4.16 0.8184,-5.33333 0.53699,-1.17334 1.81404,-4.29334 2.83791,-6.93334 2.98775,-7.70391 9.39042,-20.73142 10.60776,-21.58367 0.66097,-0.46273 0.35494,-0.79035 -0.74726,-0.8 -2.84789,-0.0249 -2.64226,-9.9074 0.26666,-12.81633 1.17334,-1.17333 2.13334,-3.10839 2.13334,-4.30014 0,-1.19175 0.72,-2.4431 1.6,-2.78079 1.12056,-0.43 1.6,-2.17788 1.6,-5.83319 0,-3.92819 0.39577,-5.21921 1.6,-5.21921 0.88,0 1.6,-0.75428 1.6,-1.67619 0,-0.9219 0.72441,-2.4006 1.6098,-3.286 0.8854,-0.88538 1.30545,-2.10226 0.93346,-2.70416 -1.04311,-1.68778 1.87531,-9.40032 3.55709,-9.40032 0.82071,0 1.19556,-0.48 0.83298,-1.06666 -0.36258,-0.58667 0.0891,-1.06667 1.00371,-1.06667 1.20487,0 1.66296,-1.08116 1.66296,-3.9248 0,-4.16486 4.10034,-17.69789 5.5439,-18.29742 0.47085,-0.19556 0.8561,-1.36148 0.8561,-2.59094 0,-1.22945 0.58659,-3.85757 1.30353,-5.84024 0.95653,-2.64522 1.80839,-3.47284 3.2,-3.10893 1.49625,0.39128 1.89647,-0.15828 1.89647,-2.6042 0,-1.70508 -0.53252,-3.10014 -1.18337,-3.10014 -1.17528,0 -0.93384,-3.27496 0.74567,-10.1146 0.74256,-3.02396 0.68932,-3.08941 -1.07655,-1.32353 -1.02176,1.02176 -2.29904,1.585 -2.83841,1.25165 -0.53938,-0.33335 -0.98068,0.2701 -0.98068,1.34099 0,2.22897 -8.65054,7.66982 -15.73333,9.89565 -2.49333,0.78355 -4.53333,1.82781 -4.53333,2.32057 0,2.11496 -2.1424,0.66967 -2.22954,-1.50406 -0.0722,-1.80174 -0.35318,-1.50702 -1.12714,1.18235 -0.6029,2.09495 -1.89158,3.8074 -3.10379,4.1244 -1.14008,0.29813 -2.07287,1.20307 -2.07287,2.01097 0,1.87116 -8.22794,7.88228 -10.78917,7.88228 -1.06467,0 -2.44955,0.96 -3.07749,2.13333 -0.62795,1.17334 -1.96938,2.13334 -2.98095,2.13334 -1.01158,0 -2.43875,0.96 -3.17151,2.13333 -0.73276,1.17333 -1.95682,2.13333 -2.72014,2.13333 -0.76333,0 -3.03925,1.90913 -5.05763,4.24252 -2.01837,2.33339 -4.45379,4.25339 -5.41203,4.26667 -0.95824,0.0133 -2.00989,1.04755 -2.33699,2.29836 -0.43706,1.67134 -1.17696,2.12197 -2.79107,1.69987 -1.20799,-0.3159 -2.19635,-0.0879 -2.19635,0.50657 0,0.5945 -0.68028,0.81988 -1.51172,0.50082 -0.83145,-0.31905 -1.78595,0.13452 -2.12112,1.00794 -0.34389,0.89615 -0.14998,1.30412 0.44505,0.93637 0.57995,-0.35842 1.05446,0.12887 1.05446,1.0829 0,1.69033 -6.96821,9.05798 -8.5669,9.05798 -0.44101,0 -1.08862,1.14265 -1.43913,2.53921 -0.35052,1.39657 -1.60256,2.79163 -2.7823,3.10014 -1.17976,0.30851 -2.14501,1.32587 -2.14501,2.26079 0,0.93492 -0.44929,1.69986 -0.99842,1.69986 -0.54912,0 -2.07751,1.92 -3.39641,4.26667 -1.31891,2.34667 -2.78961,4.26667 -3.26825,4.26667 -0.47863,0 -0.87025,0.72 -0.87025,1.6 0,0.88 -0.96,2.56 -2.13333,3.73333 -1.17334,1.17333 -2.13334,3.33222 -2.13334,4.79752 0,2.51449 -7.3729,11.85867 -7.54164,9.55804 -0.0412,-0.56223 -0.45571,-0.0622 -0.92107,1.11111 -0.47541,1.19867 -0.39903,2.42148 0.17434,2.79103 1.18978,0.76684 -2.12284,12.63902 -3.98324,14.27563 -0.66689,0.58667 -1.84419,4.06667 -2.61622,7.73334 -0.82967,3.9405 -1.95751,6.66666 -2.75805,6.66666 -0.83474,0 -1.13771,0.82861 -0.78965,2.1596 0.75839,2.90007 -1.80181,11.76277 -3.59695,12.45163 -0.7888,0.30269 -1.43418,1.45899 -1.43418,2.56956 0,1.11056 -0.49689,2.01921 -1.1042,2.01921 -0.72149,0 -0.67697,0.79829 0.12845,2.30323 1.6352,3.05539 0.49514,12.34787 -1.83013,14.91727 -1.94034,2.14406 -2.05545,3.08867 -2.45073,20.11284 -0.32378,13.94386 -0.47386,13.08759 2.05661,11.73333 1.61567,-0.86468 2.15377,-0.80908 2.21754,0.22914 z m 144.9445,-53.26333 c 1.4345,0.37513 1.77266,0.007 1.37833,-1.50103 -0.46922,-1.79428 0.15173,-1.99811 6.08726,-1.99811 4.61836,0 9.34131,-0.96411 15.67607,-3.2 4.98645,-1.76 10.10803,-3.19875 11.38129,-3.19722 3.09989,0.004 16.77531,-3.11013 19.10053,-4.34915 1.01867,-0.54283 2.5199,-0.98697 3.33611,-0.98697 0.81611,0 2.08139,-0.72 2.81173,-1.6 0.73035,-0.88 1.98912,-1.6 2.79723,-1.6 0.80821,0 1.46944,0.72 1.46944,1.6 0,0.88 0.41344,1.6 0.91872,1.6 0.50528,0 0.69045,-1.19402 0.41152,-2.65339 -0.36693,-1.91968 0.0427,-2.84443 1.48128,-3.34422 1.09365,-0.37994 5.58848,-2.10109 9.98848,-3.82476 6.25013,-2.44843 9.31989,-3.0585 14.03445,-2.78912 3.31904,0.18966 5.81067,-0.0152 5.53707,-0.45517 -0.2736,-0.44 0.0451,-0.8 0.70837,-0.8 1.91744,0 4.25344,-2.85262 4.25344,-5.19419 0,-1.18062 0.43392,-2.41476 0.96427,-2.74255 0.53077,-0.32801 0.0512,-2.99923 -1.06667,-5.94107 -1.11701,-2.93978 -2.03093,-6.34586 -2.03093,-7.56905 0,-2.75135 -2.93952,-8.10165 -6.13333,-11.16358 -1.32,-1.26547 -2.4,-3.28582 -2.4,-4.48966 0,-1.20384 -0.52064,-2.36235 -1.15702,-2.57446 -0.63637,-0.21211 -2.0464,-4.11891 -3.13354,-8.68175 -1.08704,-4.56285 -3.16491,-10.32393 -4.61739,-12.8024 -1.45248,-2.47847 -2.97579,-6.29168 -3.38517,-8.47381 -0.40939,-2.18211 -1.29771,-3.96748 -1.97398,-3.96748 -1.55328,0 -4.9329,-7.6785 -4.9329,-11.20732 0,-1.46265 0.6,-2.67661 1.33333,-2.69771 0.73333,-0.0211 0.079,-1.1011 -1.45397,-2.4 -3.92896,-3.32904 -5.98699,-7.01546 -6.67755,-11.96164 -0.32768,-2.34667 -1.09216,-5.9435 -1.69888,-7.99296 -1.48907,-5.03072 -1.39008,-9.3134 0.2304,-9.96728 0.79648,-0.3214 0.58176,-0.57191 -0.53333,-0.62221 -1.13547,-0.0512 -1.86667,-0.93025 -1.86667,-2.24395 0,-1.311 -1.02795,-2.55054 -2.61557,-3.15418 -3.45611,-1.314 -6.30134,-6.87927 -5.38454,-10.53211 0.3887,-1.54895 0.3647,-2.47415 -0.0534,-2.05598 -0.41813,0.41815 -1.53717,0.34829 -2.48672,-0.15526 -1.72341,-0.91393 -4.90901,1.18576 -3.67349,2.42126 0.32523,0.32523 -0.41397,2.6679 -1.64267,5.20592 -1.22858,2.53803 -2.55104,6.28309 -2.93877,8.32234 -0.38773,2.03926 -1.06325,4.18774 -1.50101,4.77441 -0.43776,0.58667 -1.12608,3.06907 -1.5295,5.51644 -0.40725,2.47009 -1.4592,4.72822 -2.36458,5.07566 -0.94304,0.36187 -1.36459,1.32036 -0.99926,2.27229 0.34742,0.90553 0.21184,1.38687 -0.30144,1.06968 -0.51324,-0.31721 -1.18297,0.37852 -1.4883,1.54607 -0.30532,1.16754 -0.11989,1.85381 0.41207,1.52504 2.37245,-1.46623 -0.83115,8.46566 -3.28838,10.19482 -1.32877,0.93507 -1.88212,3.68015 -1.07508,5.33333 0.42959,0.88 0.42913,6.49121 -10e-4,12.46936 -0.5875,8.16475 -1.34855,11.82939 -3.05855,14.72763 -1.25204,2.12206 -2.27645,4.79085 -2.27645,5.93065 0,1.1398 -0.6,2.11026 -1.33333,2.15658 -1.06667,0.0674 -1.06667,0.1918 0,0.62221 1.52322,0.61464 1.8925,11.02691 0.39107,11.02691 -0.51824,0 -1.29028,1.08 -1.71565,2.4 -0.73147,2.26988 -0.81294,2.22652 -1.50282,-0.8 l -0.72941,-3.2 -0.70393,3.34499 c -0.38716,1.83975 -2.16688,4.94672 -3.95493,6.90438 -2.00647,2.19681 -3.29545,4.79549 -3.36712,6.78834 -0.0639,1.77593 -0.18386,6.20811 -0.26666,9.8493 -0.11978,5.26723 -0.58419,6.93752 -2.27212,8.17209 -1.16687,0.85344 -2.48687,1.32596 -2.93333,1.05003 -1.28086,-0.79161 -0.9455,3.70568 0.44199,5.9274 1.86619,2.98824 -1.03351,10.11022 -4.30833,10.58167 -1.64193,0.23639 -2.24444,0.86603 -1.8392,1.92207 0.33858,0.88233 0.14061,1.28496 -0.45178,0.91884 -1.03844,-0.64179 -1.48431,1.40376 -1.10839,5.08507 0.10544,1.03263 -0.83373,3.18115 -2.08704,4.77448 -1.32743,1.68754 -1.80149,3.05607 -1.13556,3.27804 0.62876,0.20959 1.19889,1.18108 1.26694,2.15885 0.10205,1.46616 0.21259,1.43324 0.6306,-0.18785 0.32552,-1.26234 1.187,-1.78779 2.40771,-1.46856 z m 159.39202,-55.58353 c 0.30058,-0.4864 3.32885,-1.52368 6.7296,-2.30505 3.40064,-0.78138 6.63904,-1.82341 7.19637,-2.31563 0.55733,-0.49221 2.07733,-0.89493 3.37771,-0.89493 1.30048,0 2.52448,-0.40538 2.72,-0.90085 0.19562,-0.49546 2.12714,-1.18067 4.29226,-1.52266 3.12128,-0.49303 4.03467,-0.2512 4.4096,1.16751 0.31414,1.18844 0.51446,0.94159 0.5967,-0.73508 0.0954,-1.94675 0.59616,-2.40087 2.18816,-1.98454 1.1936,0.31213 2.30432,-0.0854 2.63317,-0.94226 0.31285,-0.81517 1.21333,-1.48212 2.00107,-1.48212 0.78784,0 2.36288,-0.85486 3.50016,-1.89968 2.22421,-2.04339 13.38474,-6.61083 16.2961,-6.66915 3.44203,-0.0689 8.88758,-6.36451 5.50507,-6.36451 -0.58667,0 -1.07712,-0.6 -1.08981,-1.33333 -0.0127,-0.73333 -1.55531,-2.05333 -3.42806,-2.93333 -2.34346,-1.10122 -3.66997,-2.65805 -4.25525,-4.99401 -0.59445,-2.37288 -1.56885,-3.49611 -3.23861,-3.73333 -1.68907,-0.23998 -2.48512,-1.17747 -2.71904,-3.20198 -0.25227,-2.18413 -1.07403,-3.02592 -3.4672,-3.55154 -3.76491,-0.82691 -11.88054,-8.90241 -11.31008,-11.25421 0.2705,-1.11533 -0.31862,-1.64571 -1.77696,-1.6 -1.30742,0.041 -2.42208,-0.78647 -2.78166,-2.06493 -0.38762,-1.37833 -1.70474,-2.26346 -3.7216,-2.50101 -2.77909,-0.32734 -11.24469,-5.8232 -12.16736,-7.89899 -0.19552,-0.44 -1.0032,-0.8 -1.79477,-0.8 -0.79157,0 -1.71147,-0.85785 -2.04427,-1.90633 -0.3328,-1.04848 -1.68512,-1.98271 -3.00522,-2.07605 -5.05216,-0.35726 -9.33344,-1.4884 -9.33344,-2.46595 0,-0.56009 -0.56224,-1.01834 -1.24939,-1.01834 -0.68715,0 -2.00715,-0.63718 -2.93333,-1.41598 -0.92619,-0.77878 -3.6511,-1.97622 -6.05536,-2.66098 -2.40438,-0.68475 -5.66912,-2.44756 -7.25504,-3.91736 -1.58592,-1.46979 -3.35424,-2.67235 -3.9296,-2.67235 -0.57536,0 -1.43883,-1.0619 -1.91904,-2.35977 -0.66688,-1.80277 -1.79179,-2.39169 -4.76555,-2.49497 -3.76971,-0.1309 -5.01643,0.83436 -2.82603,2.18808 0.58667,0.36258 1.06667,4.47091 1.06667,9.12962 0,6.72769 0.32139,8.47038 1.56245,8.47038 3.34688,0 5.28491,9.79265 2.49088,12.58666 -0.99562,0.99555 -0.93632,1.28611 0.26667,1.30752 0.85067,0.0151 2.47051,2.05514 3.59968,4.53334 1.12917,2.47819 3.10976,5.94581 4.40128,7.70581 1.29163,1.76 2.89941,4.92256 3.57291,7.02791 0.6736,2.10535 2.43402,5.46535 3.9121,7.46667 1.78475,2.41657 2.48576,4.44486 2.08704,6.03875 -0.42496,1.6991 -0.12714,2.4 1.01995,2.4 0.8912,0 1.62037,0.40656 1.62037,0.90346 0,0.49689 0.94976,1.99861 2.11072,3.33715 2.86112,3.29893 3.77579,8.91531 2.10774,12.94235 -0.81302,1.96278 -0.96043,3.56255 -0.36694,3.98223 0.5455,0.38581 1.57184,2.02148 2.28064,3.63481 1.28118,2.9161 2.84374,3.73945 3.88854,2.04895 z"
     id="path1379"
     inkscape:connector-curvature="0" />
</svg>
