<?xml version="1.0" encoding="UTF-8" standalone="no"?>
<!-- Created with Inkscape (http://www.inkscape.org/) -->

<svg
   xmlns:dc="http://purl.org/dc/elements/1.1/"
   xmlns:cc="http://creativecommons.org/ns#"
   xmlns:rdf="http://www.w3.org/1999/02/22-rdf-syntax-ns#"
   xmlns:svg="http://www.w3.org/2000/svg"
   xmlns="http://www.w3.org/2000/svg"
   xmlns:sodipodi="http://sodipodi.sourceforge.net/DTD/sodipodi-0.dtd"
   xmlns:inkscape="http://www.inkscape.org/namespaces/inkscape"
   id="svg1370"
   sodipodi:version="0.32"
   inkscape:version="0.92.4 (unknown)"
   width="540pt"
   height="540pt"
   sodipodi:docname="simple_A.svg"
   version="1.0">
  <metadata
     id="metadata1375">
    <rdf:RDF>
      <cc:Work
         rdf:about="">
        <dc:format>image/svg+xml</dc:format>
        <dc:type
           rdf:resource="http://purl.org/dc/dcmitype/StillImage" />
        <dc:title></dc:title>
      </cc:Work>
    </rdf:RDF>
  </metadata>
  <defs
     id="defs1373" />
  <sodipodi:namedview
     inkscape:window-height="540"
     inkscape:window-width="812"
     inkscape:pageshadow="2"
     inkscape:pageopacity="0.0"
     borderopacity="1.0"
     bordercolor="#666666"
     pagecolor="#ffffff"
     id="base"
     inkscape:zoom="0.50663024"
     inkscape:cx="540.11157"
     inkscape:cy="160.2458"
     inkscape:window-x="138"
     inkscape:window-y="157"
     inkscape:current-layer="svg1370"
     showgrid="false"
     inkscape:window-maximized="0" />
  <path
     style="fill:#cc0001;fill-opacity:1;stroke-width:1.06666672"
     d="m 563.28558,713.80682 c -7.29885,-16.45913 -31.63625,-20.89358 -27.2707,-38.08805 -4.81513,-19.38158 -20.79835,-26.63673 -33.31187,-35.39502 -21.36944,15.81371 -47.71923,23.56628 -71.33114,36.03453 -33.17724,5.23885 -67.63876,5.10022 -100.64678,2.4299 -19.27597,-2.22763 -28.27041,-4.78797 -51.38212,-10.6412 -25.33938,-1.44684 -38.293,-11.73436 -55.64549,-23.56419 2.805,-3.28541 -13.18853,-9.839 -17.79863,-3.47782 -17.96638,22.71406 -10.08863,78.42189 -48.65524,73.3455 -17.3263,-21.72956 5.54167,-48.27092 4.6235,-72.00954 7.26997,-31.04853 -26.51628,-43.42118 -43.15135,-62.94524 -18.45341,-9.15177 -13.43972,-41.4655 -33.589349,-41.48253 -4.113932,6.56464 -38.424291,17.26403 -57.309295,20.90312 -12.51339,0.14566 -30.4546063,2.14085 -21.1553015,-24.05175 C 29.500919,529.64979 43.466609,512.93796 62.349577,501.708 79.649476,491.23131 91.847504,474.18409 82.721683,457.42495 75.091689,440.6009 71.531081,411.3304 83.995731,398.81162 c 2.607792,-22.55654 12.700331,-46.42835 23.731369,-68.05334 12.90075,-24.75891 24.52536,-45.22627 41.55668,-66.53905 10.69302,-22.18561 37.74891,-32.01638 50.68324,-49.72761 18.82462,-22.0083 24.41095,-15.68856 45.45969,-22.09213 12.78196,-8.97412 51.59007,-8.73126 56.36069,-33.53287 24.26291,-21.4003 20.35864,-55.46279 28.80212,-84.031446 0.10588,-17.19502 0.38697,-60.18613 20.33243,-60.639554 5.83391,18.531073 12.93233,43.366039 17.2112,65.542528 11.27826,19.041051 15.86388,41.033702 18.14448,62.959102 0.19781,32.2743 34.33038,14.56866 50.33886,26.60599 17.30343,6.22461 36.04653,22.7601 53.00562,26.38449 17.73389,7.22445 34.74495,15.59555 42.62176,33.73726 16.74123,13.44835 38.80001,25.73148 45.75201,50.41231 8.32335,-2.67657 20.84643,12.22789 39.11801,6.23859 17.0598,-4.48185 51.28285,-6.86063 46.78993,-8.34142 13.55613,-19.79995 74.56217,-15.74241 41.14877,13.94048 -18.93754,6.49669 -34.94166,16.20076 -50.60754,29.21671 -9.44899,18.9139 -38.00202,21.79777 -41.59595,44 10.02569,16.84157 2.26277,39.41064 6.11976,56.61795 -5.77694,17.14547 -2.41116,38.09643 -3.27111,58.81617 0.52621,24.9392 -15.00083,32.13775 -18.13325,53.57172 4.69651,19.15786 -22.52305,37.8188 -33.01803,55.71941 -4.67602,16.59991 6.2199,36.33299 1.37634,48.60808 6.73458,24.57082 19.58146,49.0961 17.21582,75.01653 -2.42589,4.77283 -16.57614,3.33853 -19.85305,0.5653 z M 367.51577,624.9805 c 16.23803,-2.49513 14.72122,0.35655 34.05744,-4.62799 11.8521,-6.82691 40.64523,-8.17979 56.79525,-21.91313 36.71015,-9.0763 7.16546,-43.40319 2.45111,-64.44444 -11.54732,-24.06267 -16.23119,-46.34777 -24.86835,-70.86567 6.78208,-39.27294 -35.46723,-46.7459 -62.55527,-30.3725 -9.96549,0.933 -12.95529,-1.03463 -20.12413,3.93537 -10.06206,11.40938 -47.67677,4.5974 -64.09817,22.06617 -22.02878,12.42562 -27.47235,40.66333 -39.00741,63.47665 -4.01032,22.12097 -24.57051,54.04445 -1.65639,68.95447 16.97977,2.23587 28.76155,17.79898 37.08071,15.55554 20.04597,-0.21248 35.57466,18.50127 57.08287,14.96806 8.10392,0.27749 17.5052,3.50514 24.84234,3.26747 z m -189.8667,-77.02222 c 1.4644,-17.68275 14.56541,-38.31397 11.52849,-48.60947 -19.9938,4.91096 -37.04652,10.82463 -31.46627,35.9428 9.13911,-1.86287 19.9457,28.57482 19.93778,12.66667 z m 357.33294,-23.82164 c -2.17425,-23.9515 18.71664,-46.15365 20.42937,-70.5027 -4.40367,-28.15803 13.82276,-60.10856 -0.64579,-84.08847 -13.45522,-8.5066 -12.23501,6.78586 -33.71525,12.9667 -8.30712,1.67924 -43.04248,8.51686 -39.93456,19.71278 12.50611,20.87752 9.84607,38.04418 23.52101,58.82298 1.37099,21.00677 5.30196,46.08335 14.66981,61.0306 9.51835,-0.90662 9.26159,15.81578 15.67541,2.05811 z m -383.9154,-73.68255 c 17.56586,-13.68893 43.67888,-24.88254 66.17953,-33.98065 28.48321,-3.81231 13.11963,-51.43914 31.60293,-66.49883 -1.21725,-16.7053 9.03233,-36.43066 18.02035,-51.04569 -0.678,-13.71593 24.7788,-54.91286 6.38399,-45.2426 -22.70826,8.96292 -32.4625,19.65141 -55.13457,36.51448 -17.66286,9.93137 -23.40706,22.86876 -37.46619,39.49082 -14.91874,20.02745 -18.80686,43.8394 -27.1694,66.87789 -1.71885,13.48391 -14.33706,47.80586 -2.41664,53.88458 z m 144.9445,-53.26333 c 15.69609,-5.32686 48.70545,-15.23605 64.95671,-15.23248 7.38099,-18.04199 55.60628,-6.07659 32.41229,-40.77884 -15.9718,-29.09563 -26.69847,-58.8803 -35.41229,-89.57241 -0.0815,-10.87439 -18.58217,-36.65604 -19.91388,-6.15649 -6.21429,19.37031 -13.91134,33.4582 -12.62176,55.11523 -8.54669,25.12809 -3.31894,26.7263 -16.80783,41.24587 -2.06405,18.88135 -7.46213,31.81272 -13.69583,46.82416 -3.58355,3.43446 -4.82975,15.04007 1.08259,8.55496 z m 159.39202,-55.58353 c 23.91198,-5.71242 33.70723,-10.06917 55.9409,-20.48444 15.41931,-11.67134 -21.13344,-25.24955 -24.24314,-38.60163 -17.36441,-13.50881 -38.36986,-20.31486 -57.80784,-31.76288 -20.07185,-14.9615 -3.16936,32.99232 3.87701,41.06667 11.54955,15.64624 13.19179,38.10002 22.23307,49.78228 z"
     id="path1379"
     inkscape:connector-curvature="0" />
</svg>
