solid OpenSCAD_Model
  facet normal 0.866025 0.5 0
    outer loop
      vertex 4.6188 0 4
      vertex 2.3094 4 0
      vertex 2.3094 4 4
    endloop
  endfacet
  facet normal 0.866025 0.5 0
    outer loop
      vertex 2.3094 4 0
      vertex 4.6188 0 4
      vertex 4.6188 0 0
    endloop
  endfacet
  facet normal 0 1 -0
    outer loop
      vertex 2.3094 4 0
      vertex -2.3094 4 4
      vertex 2.3094 4 4
    endloop
  endfacet
  facet normal 0 1 0
    outer loop
      vertex -2.3094 4 4
      vertex 2.3094 4 0
      vertex -2.3094 4 0
    endloop
  endfacet
  facet normal -0.866025 0.5 0
    outer loop
      vertex -4.6188 5.6564e-16 0
      vertex -2.3094 4 4
      vertex -2.3094 4 0
    endloop
  endfacet
  facet normal -0.866025 0.5 0
    outer loop
      vertex -2.3094 4 4
      vertex -4.6188 5.6564e-16 0
      vertex -4.6188 5.6564e-16 4
    endloop
  endfacet
  facet normal -0.866025 -0.5 0
    outer loop
      vertex -2.3094 -4 0
      vertex -4.6188 5.6564e-16 4
      vertex -4.6188 5.6564e-16 0
    endloop
  endfacet
  facet normal -0.866025 -0.5 0
    outer loop
      vertex -4.6188 5.6564e-16 4
      vertex -2.3094 -4 0
      vertex -2.3094 -4 4
    endloop
  endfacet
  facet normal 0 -1 0
    outer loop
      vertex -2.3094 -4 0
      vertex 2.3094 -4 4
      vertex -2.3094 -4 4
    endloop
  endfacet
  facet normal 0 -1 -0
    outer loop
      vertex 2.3094 -4 4
      vertex -2.3094 -4 0
      vertex 2.3094 -4 0
    endloop
  endfacet
  facet normal 0.866025 -0.5 0
    outer loop
      vertex 2.3094 -4 4
      vertex 4.6188 0 0
      vertex 4.6188 0 4
    endloop
  endfacet
  facet normal 0.866025 -0.5 0
    outer loop
      vertex 4.6188 0 0
      vertex 2.3094 -4 4
      vertex 2.3094 -4 0
    endloop
  endfacet
  facet normal 0 0 -1
    outer loop
      vertex 2.3094 -4 0
      vertex 2.3094 4 0
      vertex 4.6188 0 0
    endloop
  endfacet
  facet normal 0 0 -1
    outer loop
      vertex -2.3094 -4 0
      vertex 2.3094 4 0
      vertex 2.3094 -4 0
    endloop
  endfacet
  facet normal 0 0 -1
    outer loop
      vertex -2.3094 -4 0
      vertex -2.3094 4 0
      vertex 2.3094 4 0
    endloop
  endfacet
  facet normal 0 -0 -1
    outer loop
      vertex -2.3094 4 0
      vertex -2.3094 -4 0
      vertex -4.6188 5.6564e-16 0
    endloop
  endfacet
  facet normal 0 0 1
    outer loop
      vertex 2.3094 4 4
      vertex 2.3094 -4 4
      vertex 4.6188 0 4
    endloop
  endfacet
  facet normal -0 0 1
    outer loop
      vertex -2.3094 4 4
      vertex 2.3094 -4 4
      vertex 2.3094 4 4
    endloop
  endfacet
  facet normal 0 0 1
    outer loop
      vertex -2.3094 4 4
      vertex -2.3094 -4 4
      vertex 2.3094 -4 4
    endloop
  endfacet
  facet normal 0 -0 1
    outer loop
      vertex -2.3094 -4 4
      vertex -2.3094 4 4
      vertex -4.6188 5.6564e-16 4
    endloop
  endfacet
endsolid OpenSCAD_Model
