solid OpenSCAD_Model
  facet normal 0.900969 0.433884 0
    outer loop
      vertex 8 0 3
      vertex 4.98792 6.25465 0
      vertex 4.98792 6.25465 3
    endloop
  endfacet
  facet normal 0.900969 0.433884 0
    outer loop
      vertex 4.98792 6.25465 0
      vertex 8 0 3
      vertex 8 0 0
    endloop
  endfacet
  facet normal -1 0 0
    outer loop
      vertex -7.20775 -3.47107 0
      vertex -7.20775 3.47107 3
      vertex -7.20775 3.47107 0
    endloop
  endfacet
  facet normal -1 -0 0
    outer loop
      vertex -7.20775 3.47107 3
      vertex -7.20775 -3.47107 0
      vertex -7.20775 -3.47107 3
    endloop
  endfacet
  facet normal 0.222521 0.974928 -0
    outer loop
      vertex 4.98792 6.25465 0
      vertex -1.78017 7.79942 3
      vertex 4.98792 6.25465 3
    endloop
  endfacet
  facet normal 0.222521 0.974928 0
    outer loop
      vertex -1.78017 7.79942 3
      vertex 4.98792 6.25465 0
      vertex -1.78017 7.79942 0
    endloop
  endfacet
  facet normal -0 0 1
    outer loop
      vertex 4.29366 1.91166 3
      vertex 8 0 3
      vertex 4.98792 6.25465 3
    endloop
  endfacet
  facet normal 0 0 1
    outer loop
      vertex 4.68855 -0.327855 3
      vertex 8 0 3
      vertex 4.7 0 3
    endloop
  endfacet
  facet normal 0 0 1
    outer loop
      vertex 8 0 3
      vertex 4.68855 0.327855 3
      vertex 4.7 0 3
    endloop
  endfacet
  facet normal 0 0 1
    outer loop
      vertex 8 0 3
      vertex 4.65426 0.654113 3
      vertex 4.68855 0.327855 3
    endloop
  endfacet
  facet normal 0 0 1
    outer loop
      vertex 8 0 3
      vertex 4.59729 0.977184 3
      vertex 4.65426 0.654113 3
    endloop
  endfacet
  facet normal 0 0 1
    outer loop
      vertex 8 0 3
      vertex 4.51793 1.2955 3
      vertex 4.59729 0.977184 3
    endloop
  endfacet
  facet normal 0 0 1
    outer loop
      vertex 8 0 3
      vertex 4.41655 1.60749 3
      vertex 4.51793 1.2955 3
    endloop
  endfacet
  facet normal 0 0 1
    outer loop
      vertex 8 0 3
      vertex 4.29366 1.91166 3
      vertex 4.41655 1.60749 3
    endloop
  endfacet
  facet normal 0 0 1
    outer loop
      vertex 4.98792 6.25465 3
      vertex 4.14985 2.20652 3
      vertex 4.29366 1.91166 3
    endloop
  endfacet
  facet normal 0 0 1
    outer loop
      vertex 4.98792 6.25465 3
      vertex 3.98583 2.49062 3
      vertex 4.14985 2.20652 3
    endloop
  endfacet
  facet normal 0 0 1
    outer loop
      vertex 4.98792 6.25465 3
      vertex 3.80238 2.76259 3
      vertex 3.98583 2.49062 3
    endloop
  endfacet
  facet normal 0 0 1
    outer loop
      vertex 4.98792 6.25465 3
      vertex 3.60041 3.0211 3
      vertex 3.80238 2.76259 3
    endloop
  endfacet
  facet normal 0 0 1
    outer loop
      vertex 4.98792 6.25465 3
      vertex 3.3809 3.26489 3
      vertex 3.60041 3.0211 3
    endloop
  endfacet
  facet normal 0 0 1
    outer loop
      vertex 4.98792 6.25465 3
      vertex 3.14491 3.49278 3
      vertex 3.3809 3.26489 3
    endloop
  endfacet
  facet normal 0 0 1
    outer loop
      vertex 4.98792 6.25465 3
      vertex 2.89361 3.70365 3
      vertex 3.14491 3.49278 3
    endloop
  endfacet
  facet normal 0 0 1
    outer loop
      vertex 4.98792 6.25465 3
      vertex 2.62821 3.89648 3
      vertex 2.89361 3.70365 3
    endloop
  endfacet
  facet normal 0 0 1
    outer loop
      vertex 4.98792 6.25465 3
      vertex 2.35 4.07032 3
      vertex 2.62821 3.89648 3
    endloop
  endfacet
  facet normal 0 0 1
    outer loop
      vertex 4.98792 6.25465 3
      vertex 2.06034 4.22433 3
      vertex 2.35 4.07032 3
    endloop
  endfacet
  facet normal 0 0 1
    outer loop
      vertex 4.98792 6.25465 3
      vertex 1.76065 4.35776 3
      vertex 2.06034 4.22433 3
    endloop
  endfacet
  facet normal 0 0 1
    outer loop
      vertex 4.98792 6.25465 3
      vertex 1.45238 4.46996 3
      vertex 1.76065 4.35776 3
    endloop
  endfacet
  facet normal 0 0 1
    outer loop
      vertex 4.98792 6.25465 3
      vertex 1.13703 4.56039 3
      vertex 1.45238 4.46996 3
    endloop
  endfacet
  facet normal 0 0 1
    outer loop
      vertex -1.78017 7.79942 3
      vertex 1.13703 4.56039 3
      vertex 4.98792 6.25465 3
    endloop
  endfacet
  facet normal 0 0 1
    outer loop
      vertex 1.13703 4.56039 3
      vertex -1.78017 7.79942 3
      vertex 0.816146 4.6286 3
    endloop
  endfacet
  facet normal 0 0 1
    outer loop
      vertex 0.816146 4.6286 3
      vertex -1.78017 7.79942 3
      vertex 0.491283 4.67425 3
    endloop
  endfacet
  facet normal 0 0 1
    outer loop
      vertex 0.491283 4.67425 3
      vertex -1.78017 7.79942 3
      vertex 0.164027 4.69714 3
    endloop
  endfacet
  facet normal 0 0 1
    outer loop
      vertex 0.164027 4.69714 3
      vertex -1.78017 7.79942 3
      vertex -0.164027 4.69714 3
    endloop
  endfacet
  facet normal 0 0 1
    outer loop
      vertex -0.164027 4.69714 3
      vertex -1.78017 7.79942 3
      vertex -0.491283 4.67425 3
    endloop
  endfacet
  facet normal 0 0 1
    outer loop
      vertex -0.491283 4.67425 3
      vertex -1.78017 7.79942 3
      vertex -0.816146 4.6286 3
    endloop
  endfacet
  facet normal 0 0 1
    outer loop
      vertex -0.816146 4.6286 3
      vertex -1.78017 7.79942 3
      vertex -1.13703 4.56039 3
    endloop
  endfacet
  facet normal 0 0 1
    outer loop
      vertex -1.78017 7.79942 3
      vertex -1.45238 4.46996 3
      vertex -1.13703 4.56039 3
    endloop
  endfacet
  facet normal 0 0 1
    outer loop
      vertex -1.78017 7.79942 3
      vertex -1.76065 4.35776 3
      vertex -1.45238 4.46996 3
    endloop
  endfacet
  facet normal 0 0 1
    outer loop
      vertex -1.78017 7.79942 3
      vertex -2.06034 4.22433 3
      vertex -1.76065 4.35776 3
    endloop
  endfacet
  facet normal 0 0 1
    outer loop
      vertex -1.78017 7.79942 3
      vertex -2.35 4.07032 3
      vertex -2.06034 4.22433 3
    endloop
  endfacet
  facet normal 0 0 1
    outer loop
      vertex -1.78017 7.79942 3
      vertex -2.62821 3.89648 3
      vertex -2.35 4.07032 3
    endloop
  endfacet
  facet normal 0 0 1
    outer loop
      vertex -1.78017 7.79942 3
      vertex -2.89361 3.70365 3
      vertex -2.62821 3.89648 3
    endloop
  endfacet
  facet normal 0 0 1
    outer loop
      vertex -7.20775 3.47107 3
      vertex -2.89361 3.70365 3
      vertex -1.78017 7.79942 3
    endloop
  endfacet
  facet normal 0 0 1
    outer loop
      vertex -2.89361 3.70365 3
      vertex -7.20775 3.47107 3
      vertex -3.14491 3.49278 3
    endloop
  endfacet
  facet normal 0 0 1
    outer loop
      vertex -3.14491 3.49278 3
      vertex -7.20775 3.47107 3
      vertex -3.3809 3.26489 3
    endloop
  endfacet
  facet normal 0 0 1
    outer loop
      vertex -3.3809 3.26489 3
      vertex -7.20775 3.47107 3
      vertex -3.60041 3.0211 3
    endloop
  endfacet
  facet normal 0 0 1
    outer loop
      vertex -3.60041 3.0211 3
      vertex -7.20775 3.47107 3
      vertex -3.80238 2.76259 3
    endloop
  endfacet
  facet normal 0 0 1
    outer loop
      vertex -3.80238 2.76259 3
      vertex -7.20775 3.47107 3
      vertex -3.98583 2.49062 3
    endloop
  endfacet
  facet normal 0 0 1
    outer loop
      vertex -3.98583 2.49062 3
      vertex -7.20775 3.47107 3
      vertex -4.14985 2.20652 3
    endloop
  endfacet
  facet normal 0 0 1
    outer loop
      vertex -4.68855 0.327855 3
      vertex -7.20775 3.47107 3
      vertex -4.7 0 3
    endloop
  endfacet
  facet normal 0 0 1
    outer loop
      vertex -4.65426 0.654113 3
      vertex -7.20775 3.47107 3
      vertex -4.68855 0.327855 3
    endloop
  endfacet
  facet normal 0 0 1
    outer loop
      vertex -4.59729 0.977184 3
      vertex -7.20775 3.47107 3
      vertex -4.65426 0.654113 3
    endloop
  endfacet
  facet normal 0 0 1
    outer loop
      vertex -4.51793 1.2955 3
      vertex -7.20775 3.47107 3
      vertex -4.59729 0.977184 3
    endloop
  endfacet
  facet normal 0 0 1
    outer loop
      vertex -4.41655 1.60749 3
      vertex -7.20775 3.47107 3
      vertex -4.51793 1.2955 3
    endloop
  endfacet
  facet normal 0 0 1
    outer loop
      vertex -4.29366 1.91166 3
      vertex -7.20775 3.47107 3
      vertex -4.41655 1.60749 3
    endloop
  endfacet
  facet normal 0 0 1
    outer loop
      vertex -4.14985 2.20652 3
      vertex -7.20775 3.47107 3
      vertex -4.29366 1.91166 3
    endloop
  endfacet
  facet normal 0 0 1
    outer loop
      vertex 4.65426 -0.654113 3
      vertex 8 0 3
      vertex 4.68855 -0.327855 3
    endloop
  endfacet
  facet normal 0 0 1
    outer loop
      vertex 4.59729 -0.977184 3
      vertex 8 0 3
      vertex 4.65426 -0.654113 3
    endloop
  endfacet
  facet normal 0 0 1
    outer loop
      vertex 4.51793 -1.2955 3
      vertex 8 0 3
      vertex 4.59729 -0.977184 3
    endloop
  endfacet
  facet normal 0 0 1
    outer loop
      vertex 4.41655 -1.60749 3
      vertex 8 0 3
      vertex 4.51793 -1.2955 3
    endloop
  endfacet
  facet normal 0 0 1
    outer loop
      vertex 4.29366 -1.91166 3
      vertex 8 0 3
      vertex 4.41655 -1.60749 3
    endloop
  endfacet
  facet normal 0 0 1
    outer loop
      vertex 8 0 3
      vertex 4.29366 -1.91166 3
      vertex 4.98792 -6.25465 3
    endloop
  endfacet
  facet normal -0 0 1
    outer loop
      vertex 4.14985 -2.20652 3
      vertex 4.98792 -6.25465 3
      vertex 4.29366 -1.91166 3
    endloop
  endfacet
  facet normal -0 0 1
    outer loop
      vertex 3.98583 -2.49062 3
      vertex 4.98792 -6.25465 3
      vertex 4.14985 -2.20652 3
    endloop
  endfacet
  facet normal -0 0 1
    outer loop
      vertex 3.80238 -2.76259 3
      vertex 4.98792 -6.25465 3
      vertex 3.98583 -2.49062 3
    endloop
  endfacet
  facet normal -0 0 1
    outer loop
      vertex 3.60041 -3.0211 3
      vertex 4.98792 -6.25465 3
      vertex 3.80238 -2.76259 3
    endloop
  endfacet
  facet normal -0 0 1
    outer loop
      vertex 3.3809 -3.26489 3
      vertex 4.98792 -6.25465 3
      vertex 3.60041 -3.0211 3
    endloop
  endfacet
  facet normal -0 0 1
    outer loop
      vertex 3.14491 -3.49278 3
      vertex 4.98792 -6.25465 3
      vertex 3.3809 -3.26489 3
    endloop
  endfacet
  facet normal -0 0 1
    outer loop
      vertex 2.89361 -3.70365 3
      vertex 4.98792 -6.25465 3
      vertex 3.14491 -3.49278 3
    endloop
  endfacet
  facet normal -0 0 1
    outer loop
      vertex 2.62821 -3.89648 3
      vertex 4.98792 -6.25465 3
      vertex 2.89361 -3.70365 3
    endloop
  endfacet
  facet normal -0 0 1
    outer loop
      vertex 2.35 -4.07032 3
      vertex 4.98792 -6.25465 3
      vertex 2.62821 -3.89648 3
    endloop
  endfacet
  facet normal -0 0 1
    outer loop
      vertex 2.06034 -4.22433 3
      vertex 4.98792 -6.25465 3
      vertex 2.35 -4.07032 3
    endloop
  endfacet
  facet normal -0 0 1
    outer loop
      vertex 1.76065 -4.35776 3
      vertex 4.98792 -6.25465 3
      vertex 2.06034 -4.22433 3
    endloop
  endfacet
  facet normal -0 0 1
    outer loop
      vertex 1.45238 -4.46996 3
      vertex 4.98792 -6.25465 3
      vertex 1.76065 -4.35776 3
    endloop
  endfacet
  facet normal -0 0 1
    outer loop
      vertex 1.13703 -4.56039 3
      vertex 4.98792 -6.25465 3
      vertex 1.45238 -4.46996 3
    endloop
  endfacet
  facet normal 0 0 1
    outer loop
      vertex -1.78017 -7.79942 3
      vertex 1.13703 -4.56039 3
      vertex 0.816146 -4.6286 3
    endloop
  endfacet
  facet normal 0 0 1
    outer loop
      vertex -1.78017 -7.79942 3
      vertex 0.816146 -4.6286 3
      vertex 0.491283 -4.67425 3
    endloop
  endfacet
  facet normal 0 0 1
    outer loop
      vertex -1.78017 -7.79942 3
      vertex 0.491283 -4.67425 3
      vertex 0.164027 -4.69714 3
    endloop
  endfacet
  facet normal 0 0 1
    outer loop
      vertex -1.78017 -7.79942 3
      vertex 0.164027 -4.69714 3
      vertex -0.164027 -4.69714 3
    endloop
  endfacet
  facet normal 0 0 1
    outer loop
      vertex -1.78017 -7.79942 3
      vertex -0.164027 -4.69714 3
      vertex -0.491283 -4.67425 3
    endloop
  endfacet
  facet normal 0 0 1
    outer loop
      vertex -1.78017 -7.79942 3
      vertex -0.491283 -4.67425 3
      vertex -0.816146 -4.6286 3
    endloop
  endfacet
  facet normal 0 0 1
    outer loop
      vertex -1.78017 -7.79942 3
      vertex -0.816146 -4.6286 3
      vertex -1.13703 -4.56039 3
    endloop
  endfacet
  facet normal 0 0 1
    outer loop
      vertex 1.13703 -4.56039 3
      vertex -1.78017 -7.79942 3
      vertex 4.98792 -6.25465 3
    endloop
  endfacet
  facet normal 0 0 1
    outer loop
      vertex -1.45238 -4.46996 3
      vertex -1.78017 -7.79942 3
      vertex -1.13703 -4.56039 3
    endloop
  endfacet
  facet normal 0 0 1
    outer loop
      vertex -1.76065 -4.35776 3
      vertex -1.78017 -7.79942 3
      vertex -1.45238 -4.46996 3
    endloop
  endfacet
  facet normal 0 0 1
    outer loop
      vertex -2.06034 -4.22433 3
      vertex -1.78017 -7.79942 3
      vertex -1.76065 -4.35776 3
    endloop
  endfacet
  facet normal 0 0 1
    outer loop
      vertex -2.35 -4.07032 3
      vertex -1.78017 -7.79942 3
      vertex -2.06034 -4.22433 3
    endloop
  endfacet
  facet normal 0 0 1
    outer loop
      vertex -2.62821 -3.89648 3
      vertex -1.78017 -7.79942 3
      vertex -2.35 -4.07032 3
    endloop
  endfacet
  facet normal 0 0 1
    outer loop
      vertex -2.89361 -3.70365 3
      vertex -1.78017 -7.79942 3
      vertex -2.62821 -3.89648 3
    endloop
  endfacet
  facet normal 0 0 1
    outer loop
      vertex -7.20775 -3.47107 3
      vertex -2.89361 -3.70365 3
      vertex -3.14491 -3.49278 3
    endloop
  endfacet
  facet normal -0 0 1
    outer loop
      vertex -7.20775 -3.47107 3
      vertex -3.14491 -3.49278 3
      vertex -3.3809 -3.26489 3
    endloop
  endfacet
  facet normal 0 0 1
    outer loop
      vertex -7.20775 -3.47107 3
      vertex -3.3809 -3.26489 3
      vertex -3.60041 -3.0211 3
    endloop
  endfacet
  facet normal 0 0 1
    outer loop
      vertex -7.20775 -3.47107 3
      vertex -3.60041 -3.0211 3
      vertex -3.80238 -2.76259 3
    endloop
  endfacet
  facet normal 0 0 1
    outer loop
      vertex -7.20775 -3.47107 3
      vertex -3.80238 -2.76259 3
      vertex -3.98583 -2.49062 3
    endloop
  endfacet
  facet normal 0 0 1
    outer loop
      vertex -7.20775 -3.47107 3
      vertex -3.98583 -2.49062 3
      vertex -4.14985 -2.20652 3
    endloop
  endfacet
  facet normal 0 0 1
    outer loop
      vertex -7.20775 -3.47107 3
      vertex -4.14985 -2.20652 3
      vertex -4.29366 -1.91166 3
    endloop
  endfacet
  facet normal 0 0 1
    outer loop
      vertex -7.20775 -3.47107 3
      vertex -4.7 0 3
      vertex -7.20775 3.47107 3
    endloop
  endfacet
  facet normal 0 0 1
    outer loop
      vertex -4.7 0 3
      vertex -7.20775 -3.47107 3
      vertex -4.68855 -0.327855 3
    endloop
  endfacet
  facet normal 0 0 1
    outer loop
      vertex -4.68855 -0.327855 3
      vertex -7.20775 -3.47107 3
      vertex -4.65426 -0.654113 3
    endloop
  endfacet
  facet normal 0 0 1
    outer loop
      vertex -4.65426 -0.654113 3
      vertex -7.20775 -3.47107 3
      vertex -4.59729 -0.977184 3
    endloop
  endfacet
  facet normal 0 0 1
    outer loop
      vertex -4.59729 -0.977184 3
      vertex -7.20775 -3.47107 3
      vertex -4.51793 -1.2955 3
    endloop
  endfacet
  facet normal 0 0 1
    outer loop
      vertex -4.51793 -1.2955 3
      vertex -7.20775 -3.47107 3
      vertex -4.41655 -1.60749 3
    endloop
  endfacet
  facet normal 0 0 1
    outer loop
      vertex -4.41655 -1.60749 3
      vertex -7.20775 -3.47107 3
      vertex -4.29366 -1.91166 3
    endloop
  endfacet
  facet normal 0 0 1
    outer loop
      vertex -2.89361 -3.70365 3
      vertex -7.20775 -3.47107 3
      vertex -1.78017 -7.79942 3
    endloop
  endfacet
  facet normal -0.62349 0.781831 0
    outer loop
      vertex -1.78017 7.79942 0
      vertex -7.20775 3.47107 3
      vertex -1.78017 7.79942 3
    endloop
  endfacet
  facet normal -0.62349 0.781831 0
    outer loop
      vertex -7.20775 3.47107 3
      vertex -1.78017 7.79942 0
      vertex -7.20775 3.47107 0
    endloop
  endfacet
  facet normal 0.900969 -0.433884 0
    outer loop
      vertex 4.98792 -6.25465 3
      vertex 8 0 0
      vertex 8 0 3
    endloop
  endfacet
  facet normal 0.900969 -0.433884 0
    outer loop
      vertex 8 0 0
      vertex 4.98792 -6.25465 3
      vertex 4.98792 -6.25465 0
    endloop
  endfacet
  facet normal 0 0 -1
    outer loop
      vertex 4.98792 -6.25465 0
      vertex 4.98792 6.25465 0
      vertex 8 0 0
    endloop
  endfacet
  facet normal 0 0 -1
    outer loop
      vertex -1.78017 -7.79942 0
      vertex 4.98792 6.25465 0
      vertex 4.98792 -6.25465 0
    endloop
  endfacet
  facet normal 0 0 -1
    outer loop
      vertex -1.78017 -7.79942 0
      vertex -1.78017 7.79942 0
      vertex 4.98792 6.25465 0
    endloop
  endfacet
  facet normal 0 0 -1
    outer loop
      vertex -7.20775 -3.47107 0
      vertex -1.78017 7.79942 0
      vertex -1.78017 -7.79942 0
    endloop
  endfacet
  facet normal 0 0 -1
    outer loop
      vertex -1.78017 7.79942 0
      vertex -7.20775 -3.47107 0
      vertex -7.20775 3.47107 0
    endloop
  endfacet
  facet normal 0.222521 -0.974928 0
    outer loop
      vertex -1.78017 -7.79942 0
      vertex 4.98792 -6.25465 3
      vertex -1.78017 -7.79942 3
    endloop
  endfacet
  facet normal 0.222521 -0.974928 0
    outer loop
      vertex 4.98792 -6.25465 3
      vertex -1.78017 -7.79942 0
      vertex 4.98792 -6.25465 0
    endloop
  endfacet
  facet normal -0.62349 -0.781831 0
    outer loop
      vertex -7.20775 -3.47107 0
      vertex -1.78017 -7.79942 3
      vertex -7.20775 -3.47107 3
    endloop
  endfacet
  facet normal -0.62349 -0.781831 -0
    outer loop
      vertex -1.78017 -7.79942 3
      vertex -7.20775 -3.47107 0
      vertex -1.78017 -7.79942 0
    endloop
  endfacet
  facet normal 0.999391 0.0348992 0
    outer loop
      vertex 4.7 0 10.5
      vertex 4.68855 0.327855 3
      vertex 4.68855 0.327855 10.5
    endloop
  endfacet
  facet normal 0.999391 0.0348992 0
    outer loop
      vertex 4.68855 0.327855 3
      vertex 4.7 0 10.5
      vertex 4.7 0 3
    endloop
  endfacet
  facet normal -0.999391 0.0348992 0
    outer loop
      vertex -4.7 0 3
      vertex -4.68855 0.327855 10.5
      vertex -4.68855 0.327855 3
    endloop
  endfacet
  facet normal -0.999391 0.0348992 0
    outer loop
      vertex -4.68855 0.327855 10.5
      vertex -4.7 0 3
      vertex -4.7 0 10.5
    endloop
  endfacet
  facet normal 0 1 -0
    outer loop
      vertex 0.164027 4.69714 3
      vertex -0.164027 4.69714 10.5
      vertex 0.164027 4.69714 10.5
    endloop
  endfacet
  facet normal 0 1 0
    outer loop
      vertex -0.164027 4.69714 10.5
      vertex 0.164027 4.69714 3
      vertex -0.164027 4.69714 3
    endloop
  endfacet
  facet normal 0 -1 0
    outer loop
      vertex -0.164027 -4.69714 3
      vertex 0.164027 -4.69714 10.5
      vertex -0.164027 -4.69714 10.5
    endloop
  endfacet
  facet normal 0 -1 -0
    outer loop
      vertex 0.164027 -4.69714 10.5
      vertex -0.164027 -4.69714 3
      vertex 0.164027 -4.69714 3
    endloop
  endfacet
  facet normal 0.694659 0.71934 -0
    outer loop
      vertex 3.3809 3.26489 3
      vertex 3.14491 3.49278 10.5
      vertex 3.3809 3.26489 10.5
    endloop
  endfacet
  facet normal 0.694659 0.71934 0
    outer loop
      vertex 3.14491 3.49278 10.5
      vertex 3.3809 3.26489 3
      vertex 3.14491 3.49278 3
    endloop
  endfacet
  facet normal -0.694659 0.71934 0
    outer loop
      vertex -3.14491 3.49278 3
      vertex -3.3809 3.26489 10.5
      vertex -3.14491 3.49278 10.5
    endloop
  endfacet
  facet normal -0.694659 0.71934 0
    outer loop
      vertex -3.3809 3.26489 10.5
      vertex -3.14491 3.49278 3
      vertex -3.3809 3.26489 3
    endloop
  endfacet
  facet normal -0.406735 0.913546 0
    outer loop
      vertex -1.76065 4.35776 3
      vertex -2.06034 4.22433 10.5
      vertex -1.76065 4.35776 10.5
    endloop
  endfacet
  facet normal -0.406735 0.913546 0
    outer loop
      vertex -2.06034 4.22433 10.5
      vertex -1.76065 4.35776 3
      vertex -2.06034 4.22433 3
    endloop
  endfacet
  facet normal 0.927184 0.374606 0
    outer loop
      vertex 4.41655 1.60749 10.5
      vertex 4.29366 1.91166 3
      vertex 4.29366 1.91166 10.5
    endloop
  endfacet
  facet normal 0.927184 0.374606 0
    outer loop
      vertex 4.29366 1.91166 3
      vertex 4.41655 1.60749 10.5
      vertex 4.41655 1.60749 3
    endloop
  endfacet
  facet normal 0.406735 0.913546 -0
    outer loop
      vertex 2.06034 4.22433 3
      vertex 1.76065 4.35776 10.5
      vertex 2.06034 4.22433 10.5
    endloop
  endfacet
  facet normal 0.406735 0.913546 0
    outer loop
      vertex 1.76065 4.35776 10.5
      vertex 2.06034 4.22433 3
      vertex 1.76065 4.35776 3
    endloop
  endfacet
  facet normal 0.52992 0.848047 -0
    outer loop
      vertex 2.62821 3.89648 3
      vertex 2.35 4.07032 10.5
      vertex 2.62821 3.89648 10.5
    endloop
  endfacet
  facet normal 0.52992 0.848047 0
    outer loop
      vertex 2.35 4.07032 10.5
      vertex 2.62821 3.89648 3
      vertex 2.35 4.07032 3
    endloop
  endfacet
  facet normal -0.898794 0.438372 0
    outer loop
      vertex -4.29366 1.91166 3
      vertex -4.14985 2.20652 10.5
      vertex -4.14985 2.20652 3
    endloop
  endfacet
  facet normal -0.898794 0.438372 0
    outer loop
      vertex -4.14985 2.20652 10.5
      vertex -4.29366 1.91166 3
      vertex -4.29366 1.91166 10.5
    endloop
  endfacet
  facet normal -0.207912 0.978147 0
    outer loop
      vertex -0.816146 4.6286 3
      vertex -1.13703 4.56039 10.5
      vertex -0.816146 4.6286 10.5
    endloop
  endfacet
  facet normal -0.207912 0.978147 0
    outer loop
      vertex -1.13703 4.56039 10.5
      vertex -0.816146 4.6286 3
      vertex -1.13703 4.56039 3
    endloop
  endfacet
  facet normal 0.275638 -0.961261 0
    outer loop
      vertex 1.13703 -4.56039 3
      vertex 1.45238 -4.46996 10.5
      vertex 1.13703 -4.56039 10.5
    endloop
  endfacet
  facet normal 0.275638 -0.961261 0
    outer loop
      vertex 1.45238 -4.46996 10.5
      vertex 1.13703 -4.56039 3
      vertex 1.45238 -4.46996 3
    endloop
  endfacet
  facet normal 0.207912 -0.978147 0
    outer loop
      vertex 0.816146 -4.6286 3
      vertex 1.13703 -4.56039 10.5
      vertex 0.816146 -4.6286 10.5
    endloop
  endfacet
  facet normal 0.207912 -0.978147 0
    outer loop
      vertex 1.13703 -4.56039 10.5
      vertex 0.816146 -4.6286 3
      vertex 1.13703 -4.56039 3
    endloop
  endfacet
  facet normal 0.970296 0.241922 0
    outer loop
      vertex 4.59729 0.977184 10.5
      vertex 4.51793 1.2955 3
      vertex 4.51793 1.2955 10.5
    endloop
  endfacet
  facet normal 0.970296 0.241922 0
    outer loop
      vertex 4.51793 1.2955 3
      vertex 4.59729 0.977184 10.5
      vertex 4.59729 0.977184 3
    endloop
  endfacet
  facet normal 0.994522 0.104529 0
    outer loop
      vertex 4.68855 0.327855 10.5
      vertex 4.65426 0.654113 3
      vertex 4.65426 0.654113 10.5
    endloop
  endfacet
  facet normal 0.994522 0.104529 0
    outer loop
      vertex 4.65426 0.654113 3
      vertex 4.68855 0.327855 10.5
      vertex 4.68855 0.327855 3
    endloop
  endfacet
  facet normal 0.951057 0.309017 0
    outer loop
      vertex 4.51793 1.2955 10.5
      vertex 4.41655 1.60749 3
      vertex 4.41655 1.60749 10.5
    endloop
  endfacet
  facet normal 0.951057 0.309017 0
    outer loop
      vertex 4.41655 1.60749 3
      vertex 4.51793 1.2955 10.5
      vertex 4.51793 1.2955 3
    endloop
  endfacet
  facet normal 0.829038 0.559192 0
    outer loop
      vertex 3.98583 2.49062 10.5
      vertex 3.80238 2.76259 3
      vertex 3.80238 2.76259 10.5
    endloop
  endfacet
  facet normal 0.829038 0.559192 0
    outer loop
      vertex 3.80238 2.76259 3
      vertex 3.98583 2.49062 10.5
      vertex 3.98583 2.49062 3
    endloop
  endfacet
  facet normal 0.78801 0.615662 0
    outer loop
      vertex 3.80238 2.76259 10.5
      vertex 3.60041 3.0211 3
      vertex 3.60041 3.0211 10.5
    endloop
  endfacet
  facet normal 0.78801 0.615662 0
    outer loop
      vertex 3.60041 3.0211 3
      vertex 3.80238 2.76259 10.5
      vertex 3.80238 2.76259 3
    endloop
  endfacet
  facet normal 0.898794 0.438372 0
    outer loop
      vertex 4.29366 1.91166 10.5
      vertex 4.14985 2.20652 3
      vertex 4.14985 2.20652 10.5
    endloop
  endfacet
  facet normal 0.898794 0.438372 0
    outer loop
      vertex 4.14985 2.20652 3
      vertex 4.29366 1.91166 10.5
      vertex 4.29366 1.91166 3
    endloop
  endfacet
  facet normal 0.207912 0.978147 -0
    outer loop
      vertex 1.13703 4.56039 3
      vertex 0.816146 4.6286 10.5
      vertex 1.13703 4.56039 10.5
    endloop
  endfacet
  facet normal 0.207912 0.978147 0
    outer loop
      vertex 0.816146 4.6286 10.5
      vertex 1.13703 4.56039 3
      vertex 0.816146 4.6286 3
    endloop
  endfacet
  facet normal 0.469472 0.882948 -0
    outer loop
      vertex 2.35 4.07032 3
      vertex 2.06034 4.22433 10.5
      vertex 2.35 4.07032 10.5
    endloop
  endfacet
  facet normal 0.469472 0.882948 0
    outer loop
      vertex 2.06034 4.22433 10.5
      vertex 2.35 4.07032 3
      vertex 2.06034 4.22433 3
    endloop
  endfacet
  facet normal 0.642788 0.766044 -0
    outer loop
      vertex 3.14491 3.49278 3
      vertex 2.89361 3.70365 10.5
      vertex 3.14491 3.49278 10.5
    endloop
  endfacet
  facet normal 0.642788 0.766044 0
    outer loop
      vertex 2.89361 3.70365 10.5
      vertex 3.14491 3.49278 3
      vertex 2.89361 3.70365 3
    endloop
  endfacet
  facet normal -0.970296 0.241922 0
    outer loop
      vertex -4.59729 0.977184 3
      vertex -4.51793 1.2955 10.5
      vertex -4.51793 1.2955 3
    endloop
  endfacet
  facet normal -0.970296 0.241922 0
    outer loop
      vertex -4.51793 1.2955 10.5
      vertex -4.59729 0.977184 3
      vertex -4.59729 0.977184 10.5
    endloop
  endfacet
  facet normal -0.78801 0.615662 0
    outer loop
      vertex -3.80238 2.76259 3
      vertex -3.60041 3.0211 10.5
      vertex -3.60041 3.0211 3
    endloop
  endfacet
  facet normal -0.78801 0.615662 0
    outer loop
      vertex -3.60041 3.0211 10.5
      vertex -3.80238 2.76259 3
      vertex -3.80238 2.76259 10.5
    endloop
  endfacet
  facet normal -0.743145 0.669131 0
    outer loop
      vertex -3.60041 3.0211 3
      vertex -3.3809 3.26489 10.5
      vertex -3.3809 3.26489 3
    endloop
  endfacet
  facet normal -0.743145 0.669131 0
    outer loop
      vertex -3.3809 3.26489 10.5
      vertex -3.60041 3.0211 3
      vertex -3.60041 3.0211 10.5
    endloop
  endfacet
  facet normal -0.984807 0.17365 0
    outer loop
      vertex -4.65426 0.654113 3
      vertex -4.59729 0.977184 10.5
      vertex -4.59729 0.977184 3
    endloop
  endfacet
  facet normal -0.984807 0.17365 0
    outer loop
      vertex -4.59729 0.977184 10.5
      vertex -4.65426 0.654113 3
      vertex -4.65426 0.654113 10.5
    endloop
  endfacet
  facet normal -0.587784 0.809018 0
    outer loop
      vertex -2.62821 3.89648 3
      vertex -2.89361 3.70365 10.5
      vertex -2.62821 3.89648 10.5
    endloop
  endfacet
  facet normal -0.587784 0.809018 0
    outer loop
      vertex -2.89361 3.70365 10.5
      vertex -2.62821 3.89648 3
      vertex -2.89361 3.70365 3
    endloop
  endfacet
  facet normal -0.469472 0.882948 0
    outer loop
      vertex -2.06034 4.22433 3
      vertex -2.35 4.07032 10.5
      vertex -2.06034 4.22433 10.5
    endloop
  endfacet
  facet normal -0.469472 0.882948 0
    outer loop
      vertex -2.35 4.07032 10.5
      vertex -2.06034 4.22433 3
      vertex -2.35 4.07032 3
    endloop
  endfacet
  facet normal -0.642788 0.766044 0
    outer loop
      vertex -2.89361 3.70365 3
      vertex -3.14491 3.49278 10.5
      vertex -2.89361 3.70365 10.5
    endloop
  endfacet
  facet normal -0.642788 0.766044 0
    outer loop
      vertex -3.14491 3.49278 10.5
      vertex -2.89361 3.70365 3
      vertex -3.14491 3.49278 3
    endloop
  endfacet
  facet normal -0.275638 0.961261 0
    outer loop
      vertex -1.13703 4.56039 3
      vertex -1.45238 4.46996 10.5
      vertex -1.13703 4.56039 10.5
    endloop
  endfacet
  facet normal -0.275638 0.961261 0
    outer loop
      vertex -1.45238 4.46996 10.5
      vertex -1.13703 4.56039 3
      vertex -1.45238 4.46996 3
    endloop
  endfacet
  facet normal -0.139172 0.990268 0
    outer loop
      vertex -0.491283 4.67425 3
      vertex -0.816146 4.6286 10.5
      vertex -0.491283 4.67425 10.5
    endloop
  endfacet
  facet normal -0.139172 0.990268 0
    outer loop
      vertex -0.816146 4.6286 10.5
      vertex -0.491283 4.67425 3
      vertex -0.816146 4.6286 3
    endloop
  endfacet
  facet normal 0.469472 -0.882948 0
    outer loop
      vertex 2.06034 -4.22433 3
      vertex 2.35 -4.07032 10.5
      vertex 2.06034 -4.22433 10.5
    endloop
  endfacet
  facet normal 0.469472 -0.882948 0
    outer loop
      vertex 2.35 -4.07032 10.5
      vertex 2.06034 -4.22433 3
      vertex 2.35 -4.07032 3
    endloop
  endfacet
  facet normal 0.951057 -0.309017 0
    outer loop
      vertex 4.41655 -1.60749 10.5
      vertex 4.51793 -1.2955 3
      vertex 4.51793 -1.2955 10.5
    endloop
  endfacet
  facet normal 0.951057 -0.309017 0
    outer loop
      vertex 4.51793 -1.2955 3
      vertex 4.41655 -1.60749 10.5
      vertex 4.41655 -1.60749 3
    endloop
  endfacet
  facet normal 0.994522 -0.104529 0
    outer loop
      vertex 4.65426 -0.654113 10.5
      vertex 4.68855 -0.327855 3
      vertex 4.68855 -0.327855 10.5
    endloop
  endfacet
  facet normal 0.994522 -0.104529 0
    outer loop
      vertex 4.68855 -0.327855 3
      vertex 4.65426 -0.654113 10.5
      vertex 4.65426 -0.654113 3
    endloop
  endfacet
  facet normal -0.898794 -0.438372 0
    outer loop
      vertex -4.14985 -2.20652 3
      vertex -4.29366 -1.91166 10.5
      vertex -4.29366 -1.91166 3
    endloop
  endfacet
  facet normal -0.898794 -0.438372 0
    outer loop
      vertex -4.29366 -1.91166 10.5
      vertex -4.14985 -2.20652 3
      vertex -4.14985 -2.20652 10.5
    endloop
  endfacet
  facet normal 0.984807 0.17365 0
    outer loop
      vertex 4.65426 0.654113 10.5
      vertex 4.59729 0.977184 3
      vertex 4.59729 0.977184 10.5
    endloop
  endfacet
  facet normal 0.984807 0.17365 0
    outer loop
      vertex 4.59729 0.977184 3
      vertex 4.65426 0.654113 10.5
      vertex 4.65426 0.654113 3
    endloop
  endfacet
  facet normal 0.743145 0.669131 0
    outer loop
      vertex 3.60041 3.0211 10.5
      vertex 3.3809 3.26489 3
      vertex 3.3809 3.26489 10.5
    endloop
  endfacet
  facet normal 0.743145 0.669131 0
    outer loop
      vertex 3.3809 3.26489 3
      vertex 3.60041 3.0211 10.5
      vertex 3.60041 3.0211 3
    endloop
  endfacet
  facet normal 0.866025 0.5 0
    outer loop
      vertex 4.14985 2.20652 10.5
      vertex 3.98583 2.49062 3
      vertex 3.98583 2.49062 10.5
    endloop
  endfacet
  facet normal 0.866025 0.5 0
    outer loop
      vertex 3.98583 2.49062 3
      vertex 4.14985 2.20652 10.5
      vertex 4.14985 2.20652 3
    endloop
  endfacet
  facet normal 0.275638 0.961261 -0
    outer loop
      vertex 1.45238 4.46996 3
      vertex 1.13703 4.56039 10.5
      vertex 1.45238 4.46996 10.5
    endloop
  endfacet
  facet normal 0.275638 0.961261 0
    outer loop
      vertex 1.13703 4.56039 10.5
      vertex 1.45238 4.46996 3
      vertex 1.13703 4.56039 3
    endloop
  endfacet
  facet normal 0.34202 0.939693 -0
    outer loop
      vertex 1.76065 4.35776 3
      vertex 1.45238 4.46996 10.5
      vertex 1.76065 4.35776 10.5
    endloop
  endfacet
  facet normal 0.34202 0.939693 0
    outer loop
      vertex 1.45238 4.46996 10.5
      vertex 1.76065 4.35776 3
      vertex 1.45238 4.46996 3
    endloop
  endfacet
  facet normal 0.139172 0.990268 -0
    outer loop
      vertex 0.816146 4.6286 3
      vertex 0.491283 4.67425 10.5
      vertex 0.816146 4.6286 10.5
    endloop
  endfacet
  facet normal 0.139172 0.990268 0
    outer loop
      vertex 0.491283 4.67425 10.5
      vertex 0.816146 4.6286 3
      vertex 0.491283 4.67425 3
    endloop
  endfacet
  facet normal 0.0697576 0.997564 -0
    outer loop
      vertex 0.491283 4.67425 3
      vertex 0.164027 4.69714 10.5
      vertex 0.491283 4.67425 10.5
    endloop
  endfacet
  facet normal 0.0697576 0.997564 0
    outer loop
      vertex 0.164027 4.69714 10.5
      vertex 0.491283 4.67425 3
      vertex 0.164027 4.69714 3
    endloop
  endfacet
  facet normal 0.587784 0.809018 -0
    outer loop
      vertex 2.89361 3.70365 3
      vertex 2.62821 3.89648 10.5
      vertex 2.89361 3.70365 10.5
    endloop
  endfacet
  facet normal 0.587784 0.809018 0
    outer loop
      vertex 2.62821 3.89648 10.5
      vertex 2.89361 3.70365 3
      vertex 2.62821 3.89648 3
    endloop
  endfacet
  facet normal -0.866025 0.5 0
    outer loop
      vertex -4.14985 2.20652 3
      vertex -3.98583 2.49062 10.5
      vertex -3.98583 2.49062 3
    endloop
  endfacet
  facet normal -0.866025 0.5 0
    outer loop
      vertex -3.98583 2.49062 10.5
      vertex -4.14985 2.20652 3
      vertex -4.14985 2.20652 10.5
    endloop
  endfacet
  facet normal -0.829038 0.559192 0
    outer loop
      vertex -3.98583 2.49062 3
      vertex -3.80238 2.76259 10.5
      vertex -3.80238 2.76259 3
    endloop
  endfacet
  facet normal -0.829038 0.559192 0
    outer loop
      vertex -3.80238 2.76259 10.5
      vertex -3.98583 2.49062 3
      vertex -3.98583 2.49062 10.5
    endloop
  endfacet
  facet normal -0.951057 0.309017 0
    outer loop
      vertex -4.51793 1.2955 3
      vertex -4.41655 1.60749 10.5
      vertex -4.41655 1.60749 3
    endloop
  endfacet
  facet normal -0.951057 0.309017 0
    outer loop
      vertex -4.41655 1.60749 10.5
      vertex -4.51793 1.2955 3
      vertex -4.51793 1.2955 10.5
    endloop
  endfacet
  facet normal -0.927184 0.374606 0
    outer loop
      vertex -4.41655 1.60749 3
      vertex -4.29366 1.91166 10.5
      vertex -4.29366 1.91166 3
    endloop
  endfacet
  facet normal -0.927184 0.374606 0
    outer loop
      vertex -4.29366 1.91166 10.5
      vertex -4.41655 1.60749 3
      vertex -4.41655 1.60749 10.5
    endloop
  endfacet
  facet normal -0.994522 0.104529 0
    outer loop
      vertex -4.68855 0.327855 3
      vertex -4.65426 0.654113 10.5
      vertex -4.65426 0.654113 3
    endloop
  endfacet
  facet normal -0.994522 0.104529 0
    outer loop
      vertex -4.65426 0.654113 10.5
      vertex -4.68855 0.327855 3
      vertex -4.68855 0.327855 10.5
    endloop
  endfacet
  facet normal 0 0 1
    outer loop
      vertex 4.68855 0.327855 10.5
      vertex 4.68855 -0.327855 10.5
      vertex 4.7 0 10.5
    endloop
  endfacet
  facet normal 0 0 1
    outer loop
      vertex 4.65426 0.654113 10.5
      vertex 4.68855 -0.327855 10.5
      vertex 4.68855 0.327855 10.5
    endloop
  endfacet
  facet normal 0 0 1
    outer loop
      vertex 4.65426 0.654113 10.5
      vertex 4.65426 -0.654113 10.5
      vertex 4.68855 -0.327855 10.5
    endloop
  endfacet
  facet normal 0 0 1
    outer loop
      vertex 4.59729 0.977184 10.5
      vertex 4.65426 -0.654113 10.5
      vertex 4.65426 0.654113 10.5
    endloop
  endfacet
  facet normal 0 0 1
    outer loop
      vertex 4.59729 0.977184 10.5
      vertex 4.59729 -0.977184 10.5
      vertex 4.65426 -0.654113 10.5
    endloop
  endfacet
  facet normal 0 0 1
    outer loop
      vertex 4.51793 1.2955 10.5
      vertex 4.59729 -0.977184 10.5
      vertex 4.59729 0.977184 10.5
    endloop
  endfacet
  facet normal 0 0 1
    outer loop
      vertex 4.51793 1.2955 10.5
      vertex 4.51793 -1.2955 10.5
      vertex 4.59729 -0.977184 10.5
    endloop
  endfacet
  facet normal 0 0 1
    outer loop
      vertex 4.41655 1.60749 10.5
      vertex 4.51793 -1.2955 10.5
      vertex 4.51793 1.2955 10.5
    endloop
  endfacet
  facet normal 0 0 1
    outer loop
      vertex 4.41655 1.60749 10.5
      vertex 4.41655 -1.60749 10.5
      vertex 4.51793 -1.2955 10.5
    endloop
  endfacet
  facet normal 0 0 1
    outer loop
      vertex 4.29366 1.91166 10.5
      vertex 4.41655 -1.60749 10.5
      vertex 4.41655 1.60749 10.5
    endloop
  endfacet
  facet normal 0 0 1
    outer loop
      vertex 4.29366 1.91166 10.5
      vertex 4.29366 -1.91166 10.5
      vertex 4.41655 -1.60749 10.5
    endloop
  endfacet
  facet normal 0 0 1
    outer loop
      vertex 4.14985 2.20652 10.5
      vertex 4.29366 -1.91166 10.5
      vertex 4.29366 1.91166 10.5
    endloop
  endfacet
  facet normal 0 0 1
    outer loop
      vertex 4.14985 2.20652 10.5
      vertex 4.14985 -2.20652 10.5
      vertex 4.29366 -1.91166 10.5
    endloop
  endfacet
  facet normal 0 0 1
    outer loop
      vertex 3.98583 2.49062 10.5
      vertex 4.14985 -2.20652 10.5
      vertex 4.14985 2.20652 10.5
    endloop
  endfacet
  facet normal 0 0 1
    outer loop
      vertex 3.98583 2.49062 10.5
      vertex 3.98583 -2.49062 10.5
      vertex 4.14985 -2.20652 10.5
    endloop
  endfacet
  facet normal 0 0 1
    outer loop
      vertex 3.80238 2.76259 10.5
      vertex 3.98583 -2.49062 10.5
      vertex 3.98583 2.49062 10.5
    endloop
  endfacet
  facet normal 0 0 1
    outer loop
      vertex 3.80238 2.76259 10.5
      vertex 3.80238 -2.76259 10.5
      vertex 3.98583 -2.49062 10.5
    endloop
  endfacet
  facet normal 0 0 1
    outer loop
      vertex 3.60041 3.0211 10.5
      vertex 3.80238 -2.76259 10.5
      vertex 3.80238 2.76259 10.5
    endloop
  endfacet
  facet normal 0 0 1
    outer loop
      vertex 3.60041 3.0211 10.5
      vertex 3.60041 -3.0211 10.5
      vertex 3.80238 -2.76259 10.5
    endloop
  endfacet
  facet normal 0 0 1
    outer loop
      vertex 3.3809 3.26489 10.5
      vertex 3.60041 -3.0211 10.5
      vertex 3.60041 3.0211 10.5
    endloop
  endfacet
  facet normal 0 0 1
    outer loop
      vertex 3.3809 3.26489 10.5
      vertex 3.3809 -3.26489 10.5
      vertex 3.60041 -3.0211 10.5
    endloop
  endfacet
  facet normal 0 0 1
    outer loop
      vertex 3.14491 3.49278 10.5
      vertex 3.3809 -3.26489 10.5
      vertex 3.3809 3.26489 10.5
    endloop
  endfacet
  facet normal 0 0 1
    outer loop
      vertex 3.14491 3.49278 10.5
      vertex 3.14491 -3.49278 10.5
      vertex 3.3809 -3.26489 10.5
    endloop
  endfacet
  facet normal 0 0 1
    outer loop
      vertex 2.89361 3.70365 10.5
      vertex 3.14491 -3.49278 10.5
      vertex 3.14491 3.49278 10.5
    endloop
  endfacet
  facet normal 0 0 1
    outer loop
      vertex 2.89361 3.70365 10.5
      vertex 2.89361 -3.70365 10.5
      vertex 3.14491 -3.49278 10.5
    endloop
  endfacet
  facet normal 0 0 1
    outer loop
      vertex 2.62821 3.89648 10.5
      vertex 2.89361 -3.70365 10.5
      vertex 2.89361 3.70365 10.5
    endloop
  endfacet
  facet normal 0 0 1
    outer loop
      vertex 2.62821 3.89648 10.5
      vertex 2.62821 -3.89648 10.5
      vertex 2.89361 -3.70365 10.5
    endloop
  endfacet
  facet normal 0 0 1
    outer loop
      vertex 2.35 4.07032 10.5
      vertex 2.62821 -3.89648 10.5
      vertex 2.62821 3.89648 10.5
    endloop
  endfacet
  facet normal 0 0 1
    outer loop
      vertex 2.35 4.07032 10.5
      vertex 2.35 -4.07032 10.5
      vertex 2.62821 -3.89648 10.5
    endloop
  endfacet
  facet normal 0 0 1
    outer loop
      vertex 2.06034 4.22433 10.5
      vertex 2.35 -4.07032 10.5
      vertex 2.35 4.07032 10.5
    endloop
  endfacet
  facet normal 0 0 1
    outer loop
      vertex 2.06034 4.22433 10.5
      vertex 2.06034 -4.22433 10.5
      vertex 2.35 -4.07032 10.5
    endloop
  endfacet
  facet normal 0 0 1
    outer loop
      vertex 1.76065 4.35776 10.5
      vertex 2.06034 -4.22433 10.5
      vertex 2.06034 4.22433 10.5
    endloop
  endfacet
  facet normal 0 0 1
    outer loop
      vertex 1.76065 4.35776 10.5
      vertex 1.76065 -4.35776 10.5
      vertex 2.06034 -4.22433 10.5
    endloop
  endfacet
  facet normal 0 0 1
    outer loop
      vertex 1.45238 4.46996 10.5
      vertex 1.76065 -4.35776 10.5
      vertex 1.76065 4.35776 10.5
    endloop
  endfacet
  facet normal 0 0 1
    outer loop
      vertex 1.45238 4.46996 10.5
      vertex 1.45238 -4.46996 10.5
      vertex 1.76065 -4.35776 10.5
    endloop
  endfacet
  facet normal 0 0 1
    outer loop
      vertex 1.13703 4.56039 10.5
      vertex 1.45238 -4.46996 10.5
      vertex 1.45238 4.46996 10.5
    endloop
  endfacet
  facet normal 0 0 1
    outer loop
      vertex 1.13703 4.56039 10.5
      vertex 1.13703 -4.56039 10.5
      vertex 1.45238 -4.46996 10.5
    endloop
  endfacet
  facet normal 0 0 1
    outer loop
      vertex 0.816146 4.6286 10.5
      vertex 1.13703 -4.56039 10.5
      vertex 1.13703 4.56039 10.5
    endloop
  endfacet
  facet normal 0 0 1
    outer loop
      vertex 0.816146 4.6286 10.5
      vertex 0.816146 -4.6286 10.5
      vertex 1.13703 -4.56039 10.5
    endloop
  endfacet
  facet normal 0 0 1
    outer loop
      vertex 0.491283 4.67425 10.5
      vertex 0.816146 -4.6286 10.5
      vertex 0.816146 4.6286 10.5
    endloop
  endfacet
  facet normal 0 0 1
    outer loop
      vertex 0.491283 4.67425 10.5
      vertex 0.491283 -4.67425 10.5
      vertex 0.816146 -4.6286 10.5
    endloop
  endfacet
  facet normal 0 0 1
    outer loop
      vertex 0.164027 4.69714 10.5
      vertex 0.491283 -4.67425 10.5
      vertex 0.491283 4.67425 10.5
    endloop
  endfacet
  facet normal 0 0 1
    outer loop
      vertex 0.164027 4.69714 10.5
      vertex 0.164027 -4.69714 10.5
      vertex 0.491283 -4.67425 10.5
    endloop
  endfacet
  facet normal -0 0 1
    outer loop
      vertex -0.164027 4.69714 10.5
      vertex 0.164027 -4.69714 10.5
      vertex 0.164027 4.69714 10.5
    endloop
  endfacet
  facet normal 0 0 1
    outer loop
      vertex -0.164027 4.69714 10.5
      vertex -0.164027 -4.69714 10.5
      vertex 0.164027 -4.69714 10.5
    endloop
  endfacet
  facet normal -0 0 1
    outer loop
      vertex -0.491283 4.67425 10.5
      vertex -0.164027 -4.69714 10.5
      vertex -0.164027 4.69714 10.5
    endloop
  endfacet
  facet normal 0 0 1
    outer loop
      vertex -0.491283 4.67425 10.5
      vertex -0.491283 -4.67425 10.5
      vertex -0.164027 -4.69714 10.5
    endloop
  endfacet
  facet normal -0 0 1
    outer loop
      vertex -0.816146 4.6286 10.5
      vertex -0.491283 -4.67425 10.5
      vertex -0.491283 4.67425 10.5
    endloop
  endfacet
  facet normal 0 0 1
    outer loop
      vertex -0.816146 4.6286 10.5
      vertex -0.816146 -4.6286 10.5
      vertex -0.491283 -4.67425 10.5
    endloop
  endfacet
  facet normal -0 0 1
    outer loop
      vertex -1.13703 4.56039 10.5
      vertex -0.816146 -4.6286 10.5
      vertex -0.816146 4.6286 10.5
    endloop
  endfacet
  facet normal 0 0 1
    outer loop
      vertex -1.13703 4.56039 10.5
      vertex -1.13703 -4.56039 10.5
      vertex -0.816146 -4.6286 10.5
    endloop
  endfacet
  facet normal -0 0 1
    outer loop
      vertex -1.45238 4.46996 10.5
      vertex -1.13703 -4.56039 10.5
      vertex -1.13703 4.56039 10.5
    endloop
  endfacet
  facet normal 0 0 1
    outer loop
      vertex -1.45238 4.46996 10.5
      vertex -1.45238 -4.46996 10.5
      vertex -1.13703 -4.56039 10.5
    endloop
  endfacet
  facet normal -0 0 1
    outer loop
      vertex -1.76065 4.35776 10.5
      vertex -1.45238 -4.46996 10.5
      vertex -1.45238 4.46996 10.5
    endloop
  endfacet
  facet normal 0 0 1
    outer loop
      vertex -1.76065 4.35776 10.5
      vertex -1.76065 -4.35776 10.5
      vertex -1.45238 -4.46996 10.5
    endloop
  endfacet
  facet normal -0 0 1
    outer loop
      vertex -2.06034 4.22433 10.5
      vertex -1.76065 -4.35776 10.5
      vertex -1.76065 4.35776 10.5
    endloop
  endfacet
  facet normal 0 0 1
    outer loop
      vertex -2.06034 4.22433 10.5
      vertex -2.06034 -4.22433 10.5
      vertex -1.76065 -4.35776 10.5
    endloop
  endfacet
  facet normal -0 0 1
    outer loop
      vertex -2.35 4.07032 10.5
      vertex -2.06034 -4.22433 10.5
      vertex -2.06034 4.22433 10.5
    endloop
  endfacet
  facet normal 0 0 1
    outer loop
      vertex -2.35 4.07032 10.5
      vertex -2.35 -4.07032 10.5
      vertex -2.06034 -4.22433 10.5
    endloop
  endfacet
  facet normal -0 0 1
    outer loop
      vertex -2.62821 3.89648 10.5
      vertex -2.35 -4.07032 10.5
      vertex -2.35 4.07032 10.5
    endloop
  endfacet
  facet normal 0 0 1
    outer loop
      vertex -2.62821 3.89648 10.5
      vertex -2.62821 -3.89648 10.5
      vertex -2.35 -4.07032 10.5
    endloop
  endfacet
  facet normal -0 0 1
    outer loop
      vertex -2.89361 3.70365 10.5
      vertex -2.62821 -3.89648 10.5
      vertex -2.62821 3.89648 10.5
    endloop
  endfacet
  facet normal 0 0 1
    outer loop
      vertex -2.89361 3.70365 10.5
      vertex -2.89361 -3.70365 10.5
      vertex -2.62821 -3.89648 10.5
    endloop
  endfacet
  facet normal -0 0 1
    outer loop
      vertex -3.14491 3.49278 10.5
      vertex -2.89361 -3.70365 10.5
      vertex -2.89361 3.70365 10.5
    endloop
  endfacet
  facet normal 0 0 1
    outer loop
      vertex -3.14491 3.49278 10.5
      vertex -3.14491 -3.49278 10.5
      vertex -2.89361 -3.70365 10.5
    endloop
  endfacet
  facet normal -0 0 1
    outer loop
      vertex -3.3809 3.26489 10.5
      vertex -3.14491 -3.49278 10.5
      vertex -3.14491 3.49278 10.5
    endloop
  endfacet
  facet normal 0 0 1
    outer loop
      vertex -3.3809 3.26489 10.5
      vertex -3.3809 -3.26489 10.5
      vertex -3.14491 -3.49278 10.5
    endloop
  endfacet
  facet normal -0 0 1
    outer loop
      vertex -3.60041 3.0211 10.5
      vertex -3.3809 -3.26489 10.5
      vertex -3.3809 3.26489 10.5
    endloop
  endfacet
  facet normal 0 0 1
    outer loop
      vertex -3.60041 3.0211 10.5
      vertex -3.60041 -3.0211 10.5
      vertex -3.3809 -3.26489 10.5
    endloop
  endfacet
  facet normal -0 0 1
    outer loop
      vertex -3.80238 2.76259 10.5
      vertex -3.60041 -3.0211 10.5
      vertex -3.60041 3.0211 10.5
    endloop
  endfacet
  facet normal 0 0 1
    outer loop
      vertex -3.80238 2.76259 10.5
      vertex -3.80238 -2.76259 10.5
      vertex -3.60041 -3.0211 10.5
    endloop
  endfacet
  facet normal -0 0 1
    outer loop
      vertex -3.98583 2.49062 10.5
      vertex -3.80238 -2.76259 10.5
      vertex -3.80238 2.76259 10.5
    endloop
  endfacet
  facet normal 0 0 1
    outer loop
      vertex -3.98583 2.49062 10.5
      vertex -3.98583 -2.49062 10.5
      vertex -3.80238 -2.76259 10.5
    endloop
  endfacet
  facet normal -0 0 1
    outer loop
      vertex -4.14985 2.20652 10.5
      vertex -3.98583 -2.49062 10.5
      vertex -3.98583 2.49062 10.5
    endloop
  endfacet
  facet normal 0 0 1
    outer loop
      vertex -4.14985 2.20652 10.5
      vertex -4.14985 -2.20652 10.5
      vertex -3.98583 -2.49062 10.5
    endloop
  endfacet
  facet normal -0 0 1
    outer loop
      vertex -4.29366 1.91166 10.5
      vertex -4.14985 -2.20652 10.5
      vertex -4.14985 2.20652 10.5
    endloop
  endfacet
  facet normal 0 0 1
    outer loop
      vertex -4.29366 1.91166 10.5
      vertex -4.29366 -1.91166 10.5
      vertex -4.14985 -2.20652 10.5
    endloop
  endfacet
  facet normal -0 0 1
    outer loop
      vertex -4.41655 1.60749 10.5
      vertex -4.29366 -1.91166 10.5
      vertex -4.29366 1.91166 10.5
    endloop
  endfacet
  facet normal 0 0 1
    outer loop
      vertex -4.41655 1.60749 10.5
      vertex -4.41655 -1.60749 10.5
      vertex -4.29366 -1.91166 10.5
    endloop
  endfacet
  facet normal -0 0 1
    outer loop
      vertex -4.51793 1.2955 10.5
      vertex -4.41655 -1.60749 10.5
      vertex -4.41655 1.60749 10.5
    endloop
  endfacet
  facet normal 0 0 1
    outer loop
      vertex -4.51793 1.2955 10.5
      vertex -4.51793 -1.2955 10.5
      vertex -4.41655 -1.60749 10.5
    endloop
  endfacet
  facet normal -0 0 1
    outer loop
      vertex -4.59729 0.977184 10.5
      vertex -4.51793 -1.2955 10.5
      vertex -4.51793 1.2955 10.5
    endloop
  endfacet
  facet normal 0 0 1
    outer loop
      vertex -4.59729 0.977184 10.5
      vertex -4.59729 -0.977184 10.5
      vertex -4.51793 -1.2955 10.5
    endloop
  endfacet
  facet normal -0 0 1
    outer loop
      vertex -4.65426 0.654113 10.5
      vertex -4.59729 -0.977184 10.5
      vertex -4.59729 0.977184 10.5
    endloop
  endfacet
  facet normal 0 0 1
    outer loop
      vertex -4.65426 0.654113 10.5
      vertex -4.65426 -0.654113 10.5
      vertex -4.59729 -0.977184 10.5
    endloop
  endfacet
  facet normal -0 0 1
    outer loop
      vertex -4.68855 0.327855 10.5
      vertex -4.65426 -0.654113 10.5
      vertex -4.65426 0.654113 10.5
    endloop
  endfacet
  facet normal 0 0 1
    outer loop
      vertex -4.68855 0.327855 10.5
      vertex -4.68855 -0.327855 10.5
      vertex -4.65426 -0.654113 10.5
    endloop
  endfacet
  facet normal 0 -0 1
    outer loop
      vertex -4.68855 -0.327855 10.5
      vertex -4.68855 0.327855 10.5
      vertex -4.7 0 10.5
    endloop
  endfacet
  facet normal -0.52992 0.848047 0
    outer loop
      vertex -2.35 4.07032 3
      vertex -2.62821 3.89648 10.5
      vertex -2.35 4.07032 10.5
    endloop
  endfacet
  facet normal -0.52992 0.848047 0
    outer loop
      vertex -2.62821 3.89648 10.5
      vertex -2.35 4.07032 3
      vertex -2.62821 3.89648 3
    endloop
  endfacet
  facet normal -0.34202 0.939693 0
    outer loop
      vertex -1.45238 4.46996 3
      vertex -1.76065 4.35776 10.5
      vertex -1.45238 4.46996 10.5
    endloop
  endfacet
  facet normal -0.34202 0.939693 0
    outer loop
      vertex -1.76065 4.35776 10.5
      vertex -1.45238 4.46996 3
      vertex -1.76065 4.35776 3
    endloop
  endfacet
  facet normal -0.0697576 0.997564 0
    outer loop
      vertex -0.164027 4.69714 3
      vertex -0.491283 4.67425 10.5
      vertex -0.164027 4.69714 10.5
    endloop
  endfacet
  facet normal -0.0697576 0.997564 0
    outer loop
      vertex -0.491283 4.67425 10.5
      vertex -0.164027 4.69714 3
      vertex -0.491283 4.67425 3
    endloop
  endfacet
  facet normal 0.999391 -0.0348992 0
    outer loop
      vertex 4.68855 -0.327855 10.5
      vertex 4.7 0 3
      vertex 4.7 0 10.5
    endloop
  endfacet
  facet normal 0.999391 -0.0348992 0
    outer loop
      vertex 4.7 0 3
      vertex 4.68855 -0.327855 10.5
      vertex 4.68855 -0.327855 3
    endloop
  endfacet
  facet normal 0.78801 -0.615662 0
    outer loop
      vertex 3.60041 -3.0211 10.5
      vertex 3.80238 -2.76259 3
      vertex 3.80238 -2.76259 10.5
    endloop
  endfacet
  facet normal 0.78801 -0.615662 0
    outer loop
      vertex 3.80238 -2.76259 3
      vertex 3.60041 -3.0211 10.5
      vertex 3.60041 -3.0211 3
    endloop
  endfacet
  facet normal 0.898794 -0.438372 0
    outer loop
      vertex 4.14985 -2.20652 10.5
      vertex 4.29366 -1.91166 3
      vertex 4.29366 -1.91166 10.5
    endloop
  endfacet
  facet normal 0.898794 -0.438372 0
    outer loop
      vertex 4.29366 -1.91166 3
      vertex 4.14985 -2.20652 10.5
      vertex 4.14985 -2.20652 3
    endloop
  endfacet
  facet normal -0.970296 -0.241922 0
    outer loop
      vertex -4.51793 -1.2955 3
      vertex -4.59729 -0.977184 10.5
      vertex -4.59729 -0.977184 3
    endloop
  endfacet
  facet normal -0.970296 -0.241922 0
    outer loop
      vertex -4.59729 -0.977184 10.5
      vertex -4.51793 -1.2955 3
      vertex -4.51793 -1.2955 10.5
    endloop
  endfacet
  facet normal -0.951057 -0.309017 0
    outer loop
      vertex -4.41655 -1.60749 3
      vertex -4.51793 -1.2955 10.5
      vertex -4.51793 -1.2955 3
    endloop
  endfacet
  facet normal -0.951057 -0.309017 0
    outer loop
      vertex -4.51793 -1.2955 10.5
      vertex -4.41655 -1.60749 3
      vertex -4.41655 -1.60749 10.5
    endloop
  endfacet
  facet normal 0.406735 -0.913546 0
    outer loop
      vertex 1.76065 -4.35776 3
      vertex 2.06034 -4.22433 10.5
      vertex 1.76065 -4.35776 10.5
    endloop
  endfacet
  facet normal 0.406735 -0.913546 0
    outer loop
      vertex 2.06034 -4.22433 10.5
      vertex 1.76065 -4.35776 3
      vertex 2.06034 -4.22433 3
    endloop
  endfacet
  facet normal 0.34202 -0.939693 0
    outer loop
      vertex 1.45238 -4.46996 3
      vertex 1.76065 -4.35776 10.5
      vertex 1.45238 -4.46996 10.5
    endloop
  endfacet
  facet normal 0.34202 -0.939693 0
    outer loop
      vertex 1.76065 -4.35776 10.5
      vertex 1.45238 -4.46996 3
      vertex 1.76065 -4.35776 3
    endloop
  endfacet
  facet normal 0.829038 -0.559192 0
    outer loop
      vertex 3.80238 -2.76259 10.5
      vertex 3.98583 -2.49062 3
      vertex 3.98583 -2.49062 10.5
    endloop
  endfacet
  facet normal 0.829038 -0.559192 0
    outer loop
      vertex 3.98583 -2.49062 3
      vertex 3.80238 -2.76259 10.5
      vertex 3.80238 -2.76259 3
    endloop
  endfacet
  facet normal 0.866025 -0.5 0
    outer loop
      vertex 3.98583 -2.49062 10.5
      vertex 4.14985 -2.20652 3
      vertex 4.14985 -2.20652 10.5
    endloop
  endfacet
  facet normal 0.866025 -0.5 0
    outer loop
      vertex 4.14985 -2.20652 3
      vertex 3.98583 -2.49062 10.5
      vertex 3.98583 -2.49062 3
    endloop
  endfacet
  facet normal 0.587784 -0.809018 0
    outer loop
      vertex 2.62821 -3.89648 3
      vertex 2.89361 -3.70365 10.5
      vertex 2.62821 -3.89648 10.5
    endloop
  endfacet
  facet normal 0.587784 -0.809018 0
    outer loop
      vertex 2.89361 -3.70365 10.5
      vertex 2.62821 -3.89648 3
      vertex 2.89361 -3.70365 3
    endloop
  endfacet
  facet normal 0.694659 -0.71934 0
    outer loop
      vertex 3.14491 -3.49278 3
      vertex 3.3809 -3.26489 10.5
      vertex 3.14491 -3.49278 10.5
    endloop
  endfacet
  facet normal 0.694659 -0.71934 0
    outer loop
      vertex 3.3809 -3.26489 10.5
      vertex 3.14491 -3.49278 3
      vertex 3.3809 -3.26489 3
    endloop
  endfacet
  facet normal 0.642788 -0.766044 0
    outer loop
      vertex 2.89361 -3.70365 3
      vertex 3.14491 -3.49278 10.5
      vertex 2.89361 -3.70365 10.5
    endloop
  endfacet
  facet normal 0.642788 -0.766044 0
    outer loop
      vertex 3.14491 -3.49278 10.5
      vertex 2.89361 -3.70365 3
      vertex 3.14491 -3.49278 3
    endloop
  endfacet
  facet normal 0.927184 -0.374606 0
    outer loop
      vertex 4.29366 -1.91166 10.5
      vertex 4.41655 -1.60749 3
      vertex 4.41655 -1.60749 10.5
    endloop
  endfacet
  facet normal 0.927184 -0.374606 0
    outer loop
      vertex 4.41655 -1.60749 3
      vertex 4.29366 -1.91166 10.5
      vertex 4.29366 -1.91166 3
    endloop
  endfacet
  facet normal 0.970296 -0.241922 0
    outer loop
      vertex 4.51793 -1.2955 10.5
      vertex 4.59729 -0.977184 3
      vertex 4.59729 -0.977184 10.5
    endloop
  endfacet
  facet normal 0.970296 -0.241922 0
    outer loop
      vertex 4.59729 -0.977184 3
      vertex 4.51793 -1.2955 10.5
      vertex 4.51793 -1.2955 3
    endloop
  endfacet
  facet normal -0.406735 -0.913546 0
    outer loop
      vertex -2.06034 -4.22433 3
      vertex -1.76065 -4.35776 10.5
      vertex -2.06034 -4.22433 10.5
    endloop
  endfacet
  facet normal -0.406735 -0.913546 -0
    outer loop
      vertex -1.76065 -4.35776 10.5
      vertex -2.06034 -4.22433 3
      vertex -1.76065 -4.35776 3
    endloop
  endfacet
  facet normal -0.78801 -0.615662 0
    outer loop
      vertex -3.60041 -3.0211 3
      vertex -3.80238 -2.76259 10.5
      vertex -3.80238 -2.76259 3
    endloop
  endfacet
  facet normal -0.78801 -0.615662 0
    outer loop
      vertex -3.80238 -2.76259 10.5
      vertex -3.60041 -3.0211 3
      vertex -3.60041 -3.0211 10.5
    endloop
  endfacet
  facet normal -0.829038 -0.559192 0
    outer loop
      vertex -3.80238 -2.76259 3
      vertex -3.98583 -2.49062 10.5
      vertex -3.98583 -2.49062 3
    endloop
  endfacet
  facet normal -0.829038 -0.559192 0
    outer loop
      vertex -3.98583 -2.49062 10.5
      vertex -3.80238 -2.76259 3
      vertex -3.80238 -2.76259 10.5
    endloop
  endfacet
  facet normal -0.927184 -0.374606 0
    outer loop
      vertex -4.29366 -1.91166 3
      vertex -4.41655 -1.60749 10.5
      vertex -4.41655 -1.60749 3
    endloop
  endfacet
  facet normal -0.927184 -0.374606 0
    outer loop
      vertex -4.41655 -1.60749 10.5
      vertex -4.29366 -1.91166 3
      vertex -4.29366 -1.91166 10.5
    endloop
  endfacet
  facet normal -0.984807 -0.17365 0
    outer loop
      vertex -4.59729 -0.977184 3
      vertex -4.65426 -0.654113 10.5
      vertex -4.65426 -0.654113 3
    endloop
  endfacet
  facet normal -0.984807 -0.17365 0
    outer loop
      vertex -4.65426 -0.654113 10.5
      vertex -4.59729 -0.977184 3
      vertex -4.59729 -0.977184 10.5
    endloop
  endfacet
  facet normal 0.139172 -0.990268 0
    outer loop
      vertex 0.491283 -4.67425 3
      vertex 0.816146 -4.6286 10.5
      vertex 0.491283 -4.67425 10.5
    endloop
  endfacet
  facet normal 0.139172 -0.990268 0
    outer loop
      vertex 0.816146 -4.6286 10.5
      vertex 0.491283 -4.67425 3
      vertex 0.816146 -4.6286 3
    endloop
  endfacet
  facet normal 0.0697576 -0.997564 0
    outer loop
      vertex 0.164027 -4.69714 3
      vertex 0.491283 -4.67425 10.5
      vertex 0.164027 -4.69714 10.5
    endloop
  endfacet
  facet normal 0.0697576 -0.997564 0
    outer loop
      vertex 0.491283 -4.67425 10.5
      vertex 0.164027 -4.69714 3
      vertex 0.491283 -4.67425 3
    endloop
  endfacet
  facet normal 0.743145 -0.669131 0
    outer loop
      vertex 3.3809 -3.26489 10.5
      vertex 3.60041 -3.0211 3
      vertex 3.60041 -3.0211 10.5
    endloop
  endfacet
  facet normal 0.743145 -0.669131 0
    outer loop
      vertex 3.60041 -3.0211 3
      vertex 3.3809 -3.26489 10.5
      vertex 3.3809 -3.26489 3
    endloop
  endfacet
  facet normal 0.52992 -0.848047 0
    outer loop
      vertex 2.35 -4.07032 3
      vertex 2.62821 -3.89648 10.5
      vertex 2.35 -4.07032 10.5
    endloop
  endfacet
  facet normal 0.52992 -0.848047 0
    outer loop
      vertex 2.62821 -3.89648 10.5
      vertex 2.35 -4.07032 3
      vertex 2.62821 -3.89648 3
    endloop
  endfacet
  facet normal 0.984807 -0.17365 0
    outer loop
      vertex 4.59729 -0.977184 10.5
      vertex 4.65426 -0.654113 3
      vertex 4.65426 -0.654113 10.5
    endloop
  endfacet
  facet normal 0.984807 -0.17365 0
    outer loop
      vertex 4.65426 -0.654113 3
      vertex 4.59729 -0.977184 10.5
      vertex 4.59729 -0.977184 3
    endloop
  endfacet
  facet normal -0.0697576 -0.997564 0
    outer loop
      vertex -0.491283 -4.67425 3
      vertex -0.164027 -4.69714 10.5
      vertex -0.491283 -4.67425 10.5
    endloop
  endfacet
  facet normal -0.0697576 -0.997564 -0
    outer loop
      vertex -0.164027 -4.69714 10.5
      vertex -0.491283 -4.67425 3
      vertex -0.164027 -4.69714 3
    endloop
  endfacet
  facet normal -0.642788 -0.766044 0
    outer loop
      vertex -3.14491 -3.49278 3
      vertex -2.89361 -3.70365 10.5
      vertex -3.14491 -3.49278 10.5
    endloop
  endfacet
  facet normal -0.642788 -0.766044 -0
    outer loop
      vertex -2.89361 -3.70365 10.5
      vertex -3.14491 -3.49278 3
      vertex -2.89361 -3.70365 3
    endloop
  endfacet
  facet normal -0.207912 -0.978147 0
    outer loop
      vertex -1.13703 -4.56039 3
      vertex -0.816146 -4.6286 10.5
      vertex -1.13703 -4.56039 10.5
    endloop
  endfacet
  facet normal -0.207912 -0.978147 -0
    outer loop
      vertex -0.816146 -4.6286 10.5
      vertex -1.13703 -4.56039 3
      vertex -0.816146 -4.6286 3
    endloop
  endfacet
  facet normal -0.139172 -0.990268 0
    outer loop
      vertex -0.816146 -4.6286 3
      vertex -0.491283 -4.67425 10.5
      vertex -0.816146 -4.6286 10.5
    endloop
  endfacet
  facet normal -0.139172 -0.990268 -0
    outer loop
      vertex -0.491283 -4.67425 10.5
      vertex -0.816146 -4.6286 3
      vertex -0.491283 -4.67425 3
    endloop
  endfacet
  facet normal -0.866025 -0.5 0
    outer loop
      vertex -3.98583 -2.49062 3
      vertex -4.14985 -2.20652 10.5
      vertex -4.14985 -2.20652 3
    endloop
  endfacet
  facet normal -0.866025 -0.5 0
    outer loop
      vertex -4.14985 -2.20652 10.5
      vertex -3.98583 -2.49062 3
      vertex -3.98583 -2.49062 10.5
    endloop
  endfacet
  facet normal -0.743145 -0.669131 0
    outer loop
      vertex -3.3809 -3.26489 3
      vertex -3.60041 -3.0211 10.5
      vertex -3.60041 -3.0211 3
    endloop
  endfacet
  facet normal -0.743145 -0.669131 0
    outer loop
      vertex -3.60041 -3.0211 10.5
      vertex -3.3809 -3.26489 3
      vertex -3.3809 -3.26489 10.5
    endloop
  endfacet
  facet normal -0.694659 -0.71934 0
    outer loop
      vertex -3.3809 -3.26489 3
      vertex -3.14491 -3.49278 10.5
      vertex -3.3809 -3.26489 10.5
    endloop
  endfacet
  facet normal -0.694659 -0.71934 -0
    outer loop
      vertex -3.14491 -3.49278 10.5
      vertex -3.3809 -3.26489 3
      vertex -3.14491 -3.49278 3
    endloop
  endfacet
  facet normal -0.994522 -0.104529 0
    outer loop
      vertex -4.65426 -0.654113 3
      vertex -4.68855 -0.327855 10.5
      vertex -4.68855 -0.327855 3
    endloop
  endfacet
  facet normal -0.994522 -0.104529 0
    outer loop
      vertex -4.68855 -0.327855 10.5
      vertex -4.65426 -0.654113 3
      vertex -4.65426 -0.654113 10.5
    endloop
  endfacet
  facet normal -0.999391 -0.0348992 0
    outer loop
      vertex -4.68855 -0.327855 3
      vertex -4.7 0 10.5
      vertex -4.7 0 3
    endloop
  endfacet
  facet normal -0.999391 -0.0348992 0
    outer loop
      vertex -4.7 0 10.5
      vertex -4.68855 -0.327855 3
      vertex -4.68855 -0.327855 10.5
    endloop
  endfacet
  facet normal -0.587784 -0.809018 0
    outer loop
      vertex -2.89361 -3.70365 3
      vertex -2.62821 -3.89648 10.5
      vertex -2.89361 -3.70365 10.5
    endloop
  endfacet
  facet normal -0.587784 -0.809018 -0
    outer loop
      vertex -2.62821 -3.89648 10.5
      vertex -2.89361 -3.70365 3
      vertex -2.62821 -3.89648 3
    endloop
  endfacet
  facet normal -0.469472 -0.882948 0
    outer loop
      vertex -2.35 -4.07032 3
      vertex -2.06034 -4.22433 10.5
      vertex -2.35 -4.07032 10.5
    endloop
  endfacet
  facet normal -0.469472 -0.882948 -0
    outer loop
      vertex -2.06034 -4.22433 10.5
      vertex -2.35 -4.07032 3
      vertex -2.06034 -4.22433 3
    endloop
  endfacet
  facet normal -0.34202 -0.939693 0
    outer loop
      vertex -1.76065 -4.35776 3
      vertex -1.45238 -4.46996 10.5
      vertex -1.76065 -4.35776 10.5
    endloop
  endfacet
  facet normal -0.34202 -0.939693 -0
    outer loop
      vertex -1.45238 -4.46996 10.5
      vertex -1.76065 -4.35776 3
      vertex -1.45238 -4.46996 3
    endloop
  endfacet
  facet normal -0.275638 -0.961261 0
    outer loop
      vertex -1.45238 -4.46996 3
      vertex -1.13703 -4.56039 10.5
      vertex -1.45238 -4.46996 10.5
    endloop
  endfacet
  facet normal -0.275638 -0.961261 -0
    outer loop
      vertex -1.13703 -4.56039 10.5
      vertex -1.45238 -4.46996 3
      vertex -1.13703 -4.56039 3
    endloop
  endfacet
  facet normal -0.52992 -0.848047 0
    outer loop
      vertex -2.62821 -3.89648 3
      vertex -2.35 -4.07032 10.5
      vertex -2.62821 -3.89648 10.5
    endloop
  endfacet
  facet normal -0.52992 -0.848047 -0
    outer loop
      vertex -2.35 -4.07032 10.5
      vertex -2.62821 -3.89648 3
      vertex -2.35 -4.07032 3
    endloop
  endfacet
endsolid OpenSCAD_Model
