solid OpenSCAD_Model
  facet normal 0.809017 0.587785 0
    outer loop
      vertex 8 0 3
      vertex 2.47214 7.60845 0
      vertex 2.47214 7.60845 3
    endloop
  endfacet
  facet normal 0.809017 0.587785 0
    outer loop
      vertex 2.47214 7.60845 0
      vertex 8 0 3
      vertex 8 0 0
    endloop
  endfacet
  facet normal -1 0 0
    outer loop
      vertex -6.47214 -4.70228 0
      vertex -6.47214 4.70228 3
      vertex -6.47214 4.70228 0
    endloop
  endfacet
  facet normal -1 -0 0
    outer loop
      vertex -6.47214 4.70228 3
      vertex -6.47214 -4.70228 0
      vertex -6.47214 -4.70228 3
    endloop
  endfacet
  facet normal -0.309017 0.951057 0
    outer loop
      vertex 2.47214 7.60845 0
      vertex -6.47214 4.70228 3
      vertex 2.47214 7.60845 3
    endloop
  endfacet
  facet normal -0.309017 0.951057 0
    outer loop
      vertex -6.47214 4.70228 3
      vertex 2.47214 7.60845 0
      vertex -6.47214 4.70228 0
    endloop
  endfacet
  facet normal 0 0 1
    outer loop
      vertex 8 0 3
      vertex 4.48904 0.313904 3
      vertex 4.5 0 3
    endloop
  endfacet
  facet normal 0 0 1
    outer loop
      vertex 8 0 3
      vertex 4.45621 0.626279 3
      vertex 4.48904 0.313904 3
    endloop
  endfacet
  facet normal 0 0 1
    outer loop
      vertex 8 0 3
      vertex 4.40166 0.935602 3
      vertex 4.45621 0.626279 3
    endloop
  endfacet
  facet normal 0 0 1
    outer loop
      vertex 8 0 3
      vertex 4.32568 1.24037 3
      vertex 4.40166 0.935602 3
    endloop
  endfacet
  facet normal 0 0 1
    outer loop
      vertex 8 0 3
      vertex 4.22862 1.53909 3
      vertex 4.32568 1.24037 3
    endloop
  endfacet
  facet normal 0 0 1
    outer loop
      vertex 8 0 3
      vertex 4.11095 1.83031 3
      vertex 4.22862 1.53909 3
    endloop
  endfacet
  facet normal 0 0 1
    outer loop
      vertex 8 0 3
      vertex 3.97326 2.11262 3
      vertex 4.11095 1.83031 3
    endloop
  endfacet
  facet normal 0 0 1
    outer loop
      vertex 8 0 3
      vertex 3.81622 2.38464 3
      vertex 3.97326 2.11262 3
    endloop
  endfacet
  facet normal 0 0 1
    outer loop
      vertex 8 0 3
      vertex 3.64058 2.64503 3
      vertex 3.81622 2.38464 3
    endloop
  endfacet
  facet normal 0 0 1
    outer loop
      vertex 2.47214 7.60845 3
      vertex 3.64058 2.64503 3
      vertex 8 0 3
    endloop
  endfacet
  facet normal 0 0 1
    outer loop
      vertex 3.64058 2.64503 3
      vertex 2.47214 7.60845 3
      vertex 3.4472 2.89254 3
    endloop
  endfacet
  facet normal 0 0 1
    outer loop
      vertex 3.4472 2.89254 3
      vertex 2.47214 7.60845 3
      vertex 3.23703 3.12596 3
    endloop
  endfacet
  facet normal 0 0 1
    outer loop
      vertex 3.23703 3.12596 3
      vertex 2.47214 7.60845 3
      vertex 3.01109 3.34415 3
    endloop
  endfacet
  facet normal 0 0 1
    outer loop
      vertex 3.01109 3.34415 3
      vertex 2.47214 7.60845 3
      vertex 2.77048 3.54605 3
    endloop
  endfacet
  facet normal 0 0 1
    outer loop
      vertex 2.77048 3.54605 3
      vertex 2.47214 7.60845 3
      vertex 2.51637 3.73067 3
    endloop
  endfacet
  facet normal 0 0 1
    outer loop
      vertex 2.47214 7.60845 3
      vertex 2.25 3.89711 3
      vertex 2.51637 3.73067 3
    endloop
  endfacet
  facet normal 0 0 1
    outer loop
      vertex 2.47214 7.60845 3
      vertex 1.97267 4.04457 3
      vertex 2.25 3.89711 3
    endloop
  endfacet
  facet normal 0 0 1
    outer loop
      vertex 2.47214 7.60845 3
      vertex 1.68573 4.17233 3
      vertex 1.97267 4.04457 3
    endloop
  endfacet
  facet normal 0 0 1
    outer loop
      vertex 2.47214 7.60845 3
      vertex 1.39058 4.27975 3
      vertex 1.68573 4.17233 3
    endloop
  endfacet
  facet normal 0 0 1
    outer loop
      vertex 2.47214 7.60845 3
      vertex 1.08865 4.36633 3
      vertex 1.39058 4.27975 3
    endloop
  endfacet
  facet normal 0 0 1
    outer loop
      vertex 2.47214 7.60845 3
      vertex 0.781416 4.43163 3
      vertex 1.08865 4.36633 3
    endloop
  endfacet
  facet normal 0 0 1
    outer loop
      vertex 2.47214 7.60845 3
      vertex 0.470378 4.47535 3
      vertex 0.781416 4.43163 3
    endloop
  endfacet
  facet normal 0 0 1
    outer loop
      vertex 2.47214 7.60845 3
      vertex 0.157047 4.49726 3
      vertex 0.470378 4.47535 3
    endloop
  endfacet
  facet normal 0 0 1
    outer loop
      vertex 2.47214 7.60845 3
      vertex -0.157047 4.49726 3
      vertex 0.157047 4.49726 3
    endloop
  endfacet
  facet normal 0 0 1
    outer loop
      vertex 2.47214 7.60845 3
      vertex -0.470378 4.47535 3
      vertex -0.157047 4.49726 3
    endloop
  endfacet
  facet normal 0 0 1
    outer loop
      vertex 2.47214 7.60845 3
      vertex -0.781416 4.43163 3
      vertex -0.470378 4.47535 3
    endloop
  endfacet
  facet normal 0 0 1
    outer loop
      vertex 2.47214 7.60845 3
      vertex -1.08865 4.36633 3
      vertex -0.781416 4.43163 3
    endloop
  endfacet
  facet normal 0 0 1
    outer loop
      vertex 2.47214 7.60845 3
      vertex -1.39058 4.27975 3
      vertex -1.08865 4.36633 3
    endloop
  endfacet
  facet normal -0 0 1
    outer loop
      vertex -6.47214 4.70228 3
      vertex -1.39058 4.27975 3
      vertex 2.47214 7.60845 3
    endloop
  endfacet
  facet normal 0 0 1
    outer loop
      vertex -1.39058 4.27975 3
      vertex -6.47214 4.70228 3
      vertex -1.68573 4.17233 3
    endloop
  endfacet
  facet normal 0 0 1
    outer loop
      vertex -1.68573 4.17233 3
      vertex -6.47214 4.70228 3
      vertex -1.97267 4.04457 3
    endloop
  endfacet
  facet normal 0 0 1
    outer loop
      vertex -1.97267 4.04457 3
      vertex -6.47214 4.70228 3
      vertex -2.25 3.89711 3
    endloop
  endfacet
  facet normal 0 0 1
    outer loop
      vertex -2.25 3.89711 3
      vertex -6.47214 4.70228 3
      vertex -2.51637 3.73067 3
    endloop
  endfacet
  facet normal 0 0 1
    outer loop
      vertex -4.48904 0.313904 3
      vertex -6.47214 4.70228 3
      vertex -4.5 0 3
    endloop
  endfacet
  facet normal 0 0 1
    outer loop
      vertex -4.45621 0.626279 3
      vertex -6.47214 4.70228 3
      vertex -4.48904 0.313904 3
    endloop
  endfacet
  facet normal 0 0 1
    outer loop
      vertex -4.40166 0.935602 3
      vertex -6.47214 4.70228 3
      vertex -4.45621 0.626279 3
    endloop
  endfacet
  facet normal 0 0 1
    outer loop
      vertex -4.32568 1.24037 3
      vertex -6.47214 4.70228 3
      vertex -4.40166 0.935602 3
    endloop
  endfacet
  facet normal 0 0 1
    outer loop
      vertex -4.22862 1.53909 3
      vertex -6.47214 4.70228 3
      vertex -4.32568 1.24037 3
    endloop
  endfacet
  facet normal 0 0 1
    outer loop
      vertex -4.11095 1.83031 3
      vertex -6.47214 4.70228 3
      vertex -4.22862 1.53909 3
    endloop
  endfacet
  facet normal 0 0 1
    outer loop
      vertex -3.97326 2.11262 3
      vertex -6.47214 4.70228 3
      vertex -4.11095 1.83031 3
    endloop
  endfacet
  facet normal 0 0 1
    outer loop
      vertex -3.81622 2.38464 3
      vertex -6.47214 4.70228 3
      vertex -3.97326 2.11262 3
    endloop
  endfacet
  facet normal 0 0 1
    outer loop
      vertex -3.64058 2.64503 3
      vertex -6.47214 4.70228 3
      vertex -3.81622 2.38464 3
    endloop
  endfacet
  facet normal 0 0 1
    outer loop
      vertex -3.4472 2.89254 3
      vertex -6.47214 4.70228 3
      vertex -3.64058 2.64503 3
    endloop
  endfacet
  facet normal 0 0 1
    outer loop
      vertex -3.23703 3.12596 3
      vertex -6.47214 4.70228 3
      vertex -3.4472 2.89254 3
    endloop
  endfacet
  facet normal 0 0 1
    outer loop
      vertex -3.01109 3.34415 3
      vertex -6.47214 4.70228 3
      vertex -3.23703 3.12596 3
    endloop
  endfacet
  facet normal 0 0 1
    outer loop
      vertex -2.77048 3.54605 3
      vertex -6.47214 4.70228 3
      vertex -3.01109 3.34415 3
    endloop
  endfacet
  facet normal 0 0 1
    outer loop
      vertex -2.51637 3.73067 3
      vertex -6.47214 4.70228 3
      vertex -2.77048 3.54605 3
    endloop
  endfacet
  facet normal 0 0 1
    outer loop
      vertex 4.48904 -0.313904 3
      vertex 8 0 3
      vertex 4.5 0 3
    endloop
  endfacet
  facet normal 0 0 1
    outer loop
      vertex 4.45621 -0.626279 3
      vertex 8 0 3
      vertex 4.48904 -0.313904 3
    endloop
  endfacet
  facet normal 0 0 1
    outer loop
      vertex 4.40166 -0.935602 3
      vertex 8 0 3
      vertex 4.45621 -0.626279 3
    endloop
  endfacet
  facet normal 0 0 1
    outer loop
      vertex 4.32568 -1.24037 3
      vertex 8 0 3
      vertex 4.40166 -0.935602 3
    endloop
  endfacet
  facet normal 0 0 1
    outer loop
      vertex 4.22862 -1.53909 3
      vertex 8 0 3
      vertex 4.32568 -1.24037 3
    endloop
  endfacet
  facet normal 0 0 1
    outer loop
      vertex 4.11095 -1.83031 3
      vertex 8 0 3
      vertex 4.22862 -1.53909 3
    endloop
  endfacet
  facet normal 0 0 1
    outer loop
      vertex 3.97326 -2.11262 3
      vertex 8 0 3
      vertex 4.11095 -1.83031 3
    endloop
  endfacet
  facet normal 0 0 1
    outer loop
      vertex 3.81622 -2.38464 3
      vertex 8 0 3
      vertex 3.97326 -2.11262 3
    endloop
  endfacet
  facet normal 0 0 1
    outer loop
      vertex 3.64058 -2.64503 3
      vertex 8 0 3
      vertex 3.81622 -2.38464 3
    endloop
  endfacet
  facet normal 0 0 1
    outer loop
      vertex 2.47214 -7.60845 3
      vertex 3.64058 -2.64503 3
      vertex 3.4472 -2.89254 3
    endloop
  endfacet
  facet normal 0 0 1
    outer loop
      vertex 2.47214 -7.60845 3
      vertex 3.4472 -2.89254 3
      vertex 3.23703 -3.12596 3
    endloop
  endfacet
  facet normal 0 0 1
    outer loop
      vertex 2.47214 -7.60845 3
      vertex 3.23703 -3.12596 3
      vertex 3.01109 -3.34415 3
    endloop
  endfacet
  facet normal 0 0 1
    outer loop
      vertex 2.47214 -7.60845 3
      vertex 3.01109 -3.34415 3
      vertex 2.77048 -3.54605 3
    endloop
  endfacet
  facet normal 0 0 1
    outer loop
      vertex 2.47214 -7.60845 3
      vertex 2.77048 -3.54605 3
      vertex 2.51637 -3.73067 3
    endloop
  endfacet
  facet normal -0 0 1
    outer loop
      vertex 3.64058 -2.64503 3
      vertex 2.47214 -7.60845 3
      vertex 8 0 3
    endloop
  endfacet
  facet normal -0 0 1
    outer loop
      vertex 2.25 -3.89711 3
      vertex 2.47214 -7.60845 3
      vertex 2.51637 -3.73067 3
    endloop
  endfacet
  facet normal -0 0 1
    outer loop
      vertex 1.97267 -4.04457 3
      vertex 2.47214 -7.60845 3
      vertex 2.25 -3.89711 3
    endloop
  endfacet
  facet normal -0 0 1
    outer loop
      vertex 1.68573 -4.17233 3
      vertex 2.47214 -7.60845 3
      vertex 1.97267 -4.04457 3
    endloop
  endfacet
  facet normal -0 0 1
    outer loop
      vertex 1.39058 -4.27975 3
      vertex 2.47214 -7.60845 3
      vertex 1.68573 -4.17233 3
    endloop
  endfacet
  facet normal -0 0 1
    outer loop
      vertex 1.08865 -4.36633 3
      vertex 2.47214 -7.60845 3
      vertex 1.39058 -4.27975 3
    endloop
  endfacet
  facet normal -0 0 1
    outer loop
      vertex 0.781416 -4.43163 3
      vertex 2.47214 -7.60845 3
      vertex 1.08865 -4.36633 3
    endloop
  endfacet
  facet normal -0 0 1
    outer loop
      vertex 0.470378 -4.47535 3
      vertex 2.47214 -7.60845 3
      vertex 0.781416 -4.43163 3
    endloop
  endfacet
  facet normal -0 0 1
    outer loop
      vertex 0.157047 -4.49726 3
      vertex 2.47214 -7.60845 3
      vertex 0.470378 -4.47535 3
    endloop
  endfacet
  facet normal -0 0 1
    outer loop
      vertex -0.157047 -4.49726 3
      vertex 2.47214 -7.60845 3
      vertex 0.157047 -4.49726 3
    endloop
  endfacet
  facet normal 0 0 1
    outer loop
      vertex -0.470378 -4.47535 3
      vertex 2.47214 -7.60845 3
      vertex -0.157047 -4.49726 3
    endloop
  endfacet
  facet normal 0 0 1
    outer loop
      vertex -0.781416 -4.43163 3
      vertex 2.47214 -7.60845 3
      vertex -0.470378 -4.47535 3
    endloop
  endfacet
  facet normal 0 0 1
    outer loop
      vertex -1.08865 -4.36633 3
      vertex 2.47214 -7.60845 3
      vertex -0.781416 -4.43163 3
    endloop
  endfacet
  facet normal 0 0 1
    outer loop
      vertex -1.39058 -4.27975 3
      vertex 2.47214 -7.60845 3
      vertex -1.08865 -4.36633 3
    endloop
  endfacet
  facet normal 0 0 1
    outer loop
      vertex -6.47214 -4.70228 3
      vertex -1.39058 -4.27975 3
      vertex -1.68573 -4.17233 3
    endloop
  endfacet
  facet normal 0 0 1
    outer loop
      vertex -6.47214 -4.70228 3
      vertex -1.68573 -4.17233 3
      vertex -1.97267 -4.04457 3
    endloop
  endfacet
  facet normal 0 0 1
    outer loop
      vertex -6.47214 -4.70228 3
      vertex -1.97267 -4.04457 3
      vertex -2.25 -3.89711 3
    endloop
  endfacet
  facet normal 0 0 1
    outer loop
      vertex -6.47214 -4.70228 3
      vertex -2.25 -3.89711 3
      vertex -2.51637 -3.73067 3
    endloop
  endfacet
  facet normal 0 0 1
    outer loop
      vertex -6.47214 -4.70228 3
      vertex -2.51637 -3.73067 3
      vertex -2.77048 -3.54605 3
    endloop
  endfacet
  facet normal 0 0 1
    outer loop
      vertex -6.47214 -4.70228 3
      vertex -4.5 0 3
      vertex -6.47214 4.70228 3
    endloop
  endfacet
  facet normal 0 0 1
    outer loop
      vertex -4.5 0 3
      vertex -6.47214 -4.70228 3
      vertex -4.48904 -0.313904 3
    endloop
  endfacet
  facet normal 0 0 1
    outer loop
      vertex -4.48904 -0.313904 3
      vertex -6.47214 -4.70228 3
      vertex -4.45621 -0.626279 3
    endloop
  endfacet
  facet normal 0 0 1
    outer loop
      vertex -4.45621 -0.626279 3
      vertex -6.47214 -4.70228 3
      vertex -4.40166 -0.935602 3
    endloop
  endfacet
  facet normal 0 0 1
    outer loop
      vertex -4.40166 -0.935602 3
      vertex -6.47214 -4.70228 3
      vertex -4.32568 -1.24037 3
    endloop
  endfacet
  facet normal 0 0 1
    outer loop
      vertex -1.39058 -4.27975 3
      vertex -6.47214 -4.70228 3
      vertex 2.47214 -7.60845 3
    endloop
  endfacet
  facet normal 0 0 1
    outer loop
      vertex -3.01109 -3.34415 3
      vertex -6.47214 -4.70228 3
      vertex -2.77048 -3.54605 3
    endloop
  endfacet
  facet normal 0 0 1
    outer loop
      vertex -3.23703 -3.12596 3
      vertex -6.47214 -4.70228 3
      vertex -3.01109 -3.34415 3
    endloop
  endfacet
  facet normal 0 0 1
    outer loop
      vertex -3.4472 -2.89254 3
      vertex -6.47214 -4.70228 3
      vertex -3.23703 -3.12596 3
    endloop
  endfacet
  facet normal 0 0 1
    outer loop
      vertex -3.64058 -2.64503 3
      vertex -6.47214 -4.70228 3
      vertex -3.4472 -2.89254 3
    endloop
  endfacet
  facet normal 0 0 1
    outer loop
      vertex -3.81622 -2.38464 3
      vertex -6.47214 -4.70228 3
      vertex -3.64058 -2.64503 3
    endloop
  endfacet
  facet normal 0 0 1
    outer loop
      vertex -3.97326 -2.11262 3
      vertex -6.47214 -4.70228 3
      vertex -3.81622 -2.38464 3
    endloop
  endfacet
  facet normal 0 0 1
    outer loop
      vertex -4.11095 -1.83031 3
      vertex -6.47214 -4.70228 3
      vertex -3.97326 -2.11262 3
    endloop
  endfacet
  facet normal 0 0 1
    outer loop
      vertex -4.22862 -1.53909 3
      vertex -6.47214 -4.70228 3
      vertex -4.11095 -1.83031 3
    endloop
  endfacet
  facet normal 0 0 1
    outer loop
      vertex -4.32568 -1.24037 3
      vertex -6.47214 -4.70228 3
      vertex -4.22862 -1.53909 3
    endloop
  endfacet
  facet normal 0 0 -1
    outer loop
      vertex 2.47214 -7.60845 0
      vertex 2.47214 7.60845 0
      vertex 8 0 0
    endloop
  endfacet
  facet normal 0 0 -1
    outer loop
      vertex -6.47214 -4.70228 0
      vertex 2.47214 7.60845 0
      vertex 2.47214 -7.60845 0
    endloop
  endfacet
  facet normal 0 0 -1
    outer loop
      vertex 2.47214 7.60845 0
      vertex -6.47214 -4.70228 0
      vertex -6.47214 4.70228 0
    endloop
  endfacet
  facet normal 0.809017 -0.587785 0
    outer loop
      vertex 2.47214 -7.60845 3
      vertex 8 0 0
      vertex 8 0 3
    endloop
  endfacet
  facet normal 0.809017 -0.587785 0
    outer loop
      vertex 8 0 0
      vertex 2.47214 -7.60845 3
      vertex 2.47214 -7.60845 0
    endloop
  endfacet
  facet normal -0.309017 -0.951057 0
    outer loop
      vertex -6.47214 -4.70228 0
      vertex 2.47214 -7.60845 3
      vertex -6.47214 -4.70228 3
    endloop
  endfacet
  facet normal -0.309017 -0.951057 -0
    outer loop
      vertex 2.47214 -7.60845 3
      vertex -6.47214 -4.70228 0
      vertex 2.47214 -7.60845 0
    endloop
  endfacet
  facet normal 0.999391 0.0349018 0
    outer loop
      vertex 4.5 0 10.5
      vertex 4.48904 0.313904 3
      vertex 4.48904 0.313904 10.5
    endloop
  endfacet
  facet normal 0.999391 0.0349018 0
    outer loop
      vertex 4.48904 0.313904 3
      vertex 4.5 0 10.5
      vertex 4.5 0 3
    endloop
  endfacet
  facet normal -0.999391 0.0349018 0
    outer loop
      vertex -4.5 0 3
      vertex -4.48904 0.313904 10.5
      vertex -4.48904 0.313904 3
    endloop
  endfacet
  facet normal -0.999391 0.0349018 0
    outer loop
      vertex -4.48904 0.313904 10.5
      vertex -4.5 0 3
      vertex -4.5 0 10.5
    endloop
  endfacet
  facet normal 0 1 -0
    outer loop
      vertex 0.157047 4.49726 3
      vertex -0.157047 4.49726 10.5
      vertex 0.157047 4.49726 10.5
    endloop
  endfacet
  facet normal 0 1 0
    outer loop
      vertex -0.157047 4.49726 10.5
      vertex 0.157047 4.49726 3
      vertex -0.157047 4.49726 3
    endloop
  endfacet
  facet normal 0.694658 0.71934 -0
    outer loop
      vertex 3.23703 3.12596 3
      vertex 3.01109 3.34415 10.5
      vertex 3.23703 3.12596 10.5
    endloop
  endfacet
  facet normal 0.694658 0.71934 0
    outer loop
      vertex 3.01109 3.34415 10.5
      vertex 3.23703 3.12596 3
      vertex 3.01109 3.34415 3
    endloop
  endfacet
  facet normal -0.694658 0.71934 0
    outer loop
      vertex -3.01109 3.34415 3
      vertex -3.23703 3.12596 10.5
      vertex -3.01109 3.34415 10.5
    endloop
  endfacet
  facet normal -0.694658 0.71934 0
    outer loop
      vertex -3.23703 3.12596 10.5
      vertex -3.01109 3.34415 3
      vertex -3.23703 3.12596 3
    endloop
  endfacet
  facet normal -0.34202 0.939693 0
    outer loop
      vertex -1.39058 4.27975 3
      vertex -1.68573 4.17233 10.5
      vertex -1.39058 4.27975 10.5
    endloop
  endfacet
  facet normal -0.34202 0.939693 0
    outer loop
      vertex -1.68573 4.17233 10.5
      vertex -1.39058 4.27975 3
      vertex -1.68573 4.17233 3
    endloop
  endfacet
  facet normal 0.927184 0.374607 0
    outer loop
      vertex 4.22862 1.53909 10.5
      vertex 4.11095 1.83031 3
      vertex 4.11095 1.83031 10.5
    endloop
  endfacet
  facet normal 0.927184 0.374607 0
    outer loop
      vertex 4.11095 1.83031 3
      vertex 4.22862 1.53909 10.5
      vertex 4.22862 1.53909 3
    endloop
  endfacet
  facet normal 0.406737 0.913545 -0
    outer loop
      vertex 1.97267 4.04457 3
      vertex 1.68573 4.17233 10.5
      vertex 1.97267 4.04457 10.5
    endloop
  endfacet
  facet normal 0.406737 0.913545 0
    outer loop
      vertex 1.68573 4.17233 10.5
      vertex 1.97267 4.04457 3
      vertex 1.68573 4.17233 3
    endloop
  endfacet
  facet normal 0.587786 0.809017 -0
    outer loop
      vertex 2.77048 3.54605 3
      vertex 2.51637 3.73067 10.5
      vertex 2.77048 3.54605 10.5
    endloop
  endfacet
  facet normal 0.587786 0.809017 0
    outer loop
      vertex 2.51637 3.73067 10.5
      vertex 2.77048 3.54605 3
      vertex 2.51637 3.73067 3
    endloop
  endfacet
  facet normal -0.866025 0.500001 0
    outer loop
      vertex -3.97326 2.11262 3
      vertex -3.81622 2.38464 10.5
      vertex -3.81622 2.38464 3
    endloop
  endfacet
  facet normal -0.866025 0.500001 0
    outer loop
      vertex -3.81622 2.38464 10.5
      vertex -3.97326 2.11262 3
      vertex -3.97326 2.11262 10.5
    endloop
  endfacet
  facet normal -0.829039 0.559191 0
    outer loop
      vertex -3.81622 2.38464 3
      vertex -3.64058 2.64503 10.5
      vertex -3.64058 2.64503 3
    endloop
  endfacet
  facet normal -0.829039 0.559191 0
    outer loop
      vertex -3.64058 2.64503 10.5
      vertex -3.81622 2.38464 3
      vertex -3.81622 2.38464 10.5
    endloop
  endfacet
  facet normal -0.139176 -0.990268 0
    outer loop
      vertex -0.781416 -4.43163 3
      vertex -0.470378 -4.47535 10.5
      vertex -0.781416 -4.43163 10.5
    endloop
  endfacet
  facet normal -0.139176 -0.990268 -0
    outer loop
      vertex -0.470378 -4.47535 10.5
      vertex -0.781416 -4.43163 3
      vertex -0.470378 -4.47535 3
    endloop
  endfacet
  facet normal 0.34202 -0.939693 0
    outer loop
      vertex 1.39058 -4.27975 3
      vertex 1.68573 -4.17233 10.5
      vertex 1.39058 -4.27975 10.5
    endloop
  endfacet
  facet normal 0.34202 -0.939693 0
    outer loop
      vertex 1.68573 -4.17233 10.5
      vertex 1.39058 -4.27975 3
      vertex 1.68573 -4.17233 3
    endloop
  endfacet
  facet normal 0.984808 0.173647 0
    outer loop
      vertex 4.45621 0.626279 10.5
      vertex 4.40166 0.935602 3
      vertex 4.40166 0.935602 10.5
    endloop
  endfacet
  facet normal 0.984808 0.173647 0
    outer loop
      vertex 4.40166 0.935602 3
      vertex 4.45621 0.626279 10.5
      vertex 4.45621 0.626279 3
    endloop
  endfacet
  facet normal 0.994522 0.104529 0
    outer loop
      vertex 4.48904 0.313904 10.5
      vertex 4.45621 0.626279 3
      vertex 4.45621 0.626279 10.5
    endloop
  endfacet
  facet normal 0.994522 0.104529 0
    outer loop
      vertex 4.45621 0.626279 3
      vertex 4.48904 0.313904 10.5
      vertex 4.48904 0.313904 3
    endloop
  endfacet
  facet normal 0.898794 0.438372 0
    outer loop
      vertex 4.11095 1.83031 10.5
      vertex 3.97326 2.11262 3
      vertex 3.97326 2.11262 10.5
    endloop
  endfacet
  facet normal 0.898794 0.438372 0
    outer loop
      vertex 3.97326 2.11262 3
      vertex 4.11095 1.83031 10.5
      vertex 4.11095 1.83031 3
    endloop
  endfacet
  facet normal 0.207911 0.978148 -0
    outer loop
      vertex 1.08865 4.36633 3
      vertex 0.781416 4.43163 10.5
      vertex 1.08865 4.36633 10.5
    endloop
  endfacet
  facet normal 0.207911 0.978148 0
    outer loop
      vertex 0.781416 4.43163 10.5
      vertex 1.08865 4.36633 3
      vertex 0.781416 4.43163 3
    endloop
  endfacet
  facet normal 0.139176 0.990268 -0
    outer loop
      vertex 0.781416 4.43163 3
      vertex 0.470378 4.47535 10.5
      vertex 0.781416 4.43163 10.5
    endloop
  endfacet
  facet normal 0.139176 0.990268 0
    outer loop
      vertex 0.470378 4.47535 10.5
      vertex 0.781416 4.43163 3
      vertex 0.470378 4.47535 3
    endloop
  endfacet
  facet normal 0.642788 0.766044 -0
    outer loop
      vertex 3.01109 3.34415 3
      vertex 2.77048 3.54605 10.5
      vertex 3.01109 3.34415 10.5
    endloop
  endfacet
  facet normal 0.642788 0.766044 0
    outer loop
      vertex 2.77048 3.54605 10.5
      vertex 3.01109 3.34415 3
      vertex 2.77048 3.54605 3
    endloop
  endfacet
  facet normal -0.970296 0.241923 0
    outer loop
      vertex -4.40166 0.935602 3
      vertex -4.32568 1.24037 10.5
      vertex -4.32568 1.24037 3
    endloop
  endfacet
  facet normal -0.970296 0.241923 0
    outer loop
      vertex -4.32568 1.24037 10.5
      vertex -4.40166 0.935602 3
      vertex -4.40166 0.935602 10.5
    endloop
  endfacet
  facet normal -0.927184 0.374607 0
    outer loop
      vertex -4.22862 1.53909 3
      vertex -4.11095 1.83031 10.5
      vertex -4.11095 1.83031 3
    endloop
  endfacet
  facet normal -0.927184 0.374607 0
    outer loop
      vertex -4.11095 1.83031 10.5
      vertex -4.22862 1.53909 3
      vertex -4.22862 1.53909 10.5
    endloop
  endfacet
  facet normal -0.994522 0.104529 0
    outer loop
      vertex -4.48904 0.313904 3
      vertex -4.45621 0.626279 10.5
      vertex -4.45621 0.626279 3
    endloop
  endfacet
  facet normal -0.994522 0.104529 0
    outer loop
      vertex -4.45621 0.626279 10.5
      vertex -4.48904 0.313904 3
      vertex -4.48904 0.313904 10.5
    endloop
  endfacet
  facet normal -0.469472 0.882947 0
    outer loop
      vertex -1.97267 4.04457 3
      vertex -2.25 3.89711 10.5
      vertex -1.97267 4.04457 10.5
    endloop
  endfacet
  facet normal -0.469472 0.882947 0
    outer loop
      vertex -2.25 3.89711 10.5
      vertex -1.97267 4.04457 3
      vertex -2.25 3.89711 3
    endloop
  endfacet
  facet normal -0.0697549 0.997564 0
    outer loop
      vertex -0.157047 4.49726 3
      vertex -0.470378 4.47535 10.5
      vertex -0.157047 4.49726 10.5
    endloop
  endfacet
  facet normal -0.0697549 0.997564 0
    outer loop
      vertex -0.470378 4.47535 10.5
      vertex -0.157047 4.49726 3
      vertex -0.470378 4.47535 3
    endloop
  endfacet
  facet normal 0.999391 -0.0349018 0
    outer loop
      vertex 4.48904 -0.313904 10.5
      vertex 4.5 0 3
      vertex 4.5 0 10.5
    endloop
  endfacet
  facet normal 0.999391 -0.0349018 0
    outer loop
      vertex 4.5 0 3
      vertex 4.48904 -0.313904 10.5
      vertex 4.48904 -0.313904 3
    endloop
  endfacet
  facet normal 0.0697549 -0.997564 0
    outer loop
      vertex 0.157047 -4.49726 3
      vertex 0.470378 -4.47535 10.5
      vertex 0.157047 -4.49726 10.5
    endloop
  endfacet
  facet normal 0.0697549 -0.997564 0
    outer loop
      vertex 0.470378 -4.47535 10.5
      vertex 0.157047 -4.49726 3
      vertex 0.470378 -4.47535 3
    endloop
  endfacet
  facet normal 0.970296 0.241923 0
    outer loop
      vertex 4.40166 0.935602 10.5
      vertex 4.32568 1.24037 3
      vertex 4.32568 1.24037 10.5
    endloop
  endfacet
  facet normal 0.970296 0.241923 0
    outer loop
      vertex 4.32568 1.24037 3
      vertex 4.40166 0.935602 10.5
      vertex 4.40166 0.935602 3
    endloop
  endfacet
  facet normal 0.951057 0.309015 0
    outer loop
      vertex 4.32568 1.24037 10.5
      vertex 4.22862 1.53909 3
      vertex 4.22862 1.53909 10.5
    endloop
  endfacet
  facet normal 0.951057 0.309015 0
    outer loop
      vertex 4.22862 1.53909 3
      vertex 4.32568 1.24037 10.5
      vertex 4.32568 1.24037 3
    endloop
  endfacet
  facet normal 0.743145 0.66913 0
    outer loop
      vertex 3.4472 2.89254 10.5
      vertex 3.23703 3.12596 3
      vertex 3.23703 3.12596 10.5
    endloop
  endfacet
  facet normal 0.743145 0.66913 0
    outer loop
      vertex 3.23703 3.12596 3
      vertex 3.4472 2.89254 10.5
      vertex 3.4472 2.89254 3
    endloop
  endfacet
  facet normal 0.829039 0.559191 0
    outer loop
      vertex 3.81622 2.38464 10.5
      vertex 3.64058 2.64503 3
      vertex 3.64058 2.64503 10.5
    endloop
  endfacet
  facet normal 0.829039 0.559191 0
    outer loop
      vertex 3.64058 2.64503 3
      vertex 3.81622 2.38464 10.5
      vertex 3.81622 2.38464 3
    endloop
  endfacet
  facet normal 0.275637 0.961262 -0
    outer loop
      vertex 1.39058 4.27975 3
      vertex 1.08865 4.36633 10.5
      vertex 1.39058 4.27975 10.5
    endloop
  endfacet
  facet normal 0.275637 0.961262 0
    outer loop
      vertex 1.08865 4.36633 10.5
      vertex 1.39058 4.27975 3
      vertex 1.08865 4.36633 3
    endloop
  endfacet
  facet normal 0.0697549 0.997564 -0
    outer loop
      vertex 0.470378 4.47535 3
      vertex 0.157047 4.49726 10.5
      vertex 0.470378 4.47535 10.5
    endloop
  endfacet
  facet normal 0.0697549 0.997564 0
    outer loop
      vertex 0.157047 4.49726 10.5
      vertex 0.470378 4.47535 3
      vertex 0.157047 4.49726 3
    endloop
  endfacet
  facet normal 0.529918 0.848049 -0
    outer loop
      vertex 2.51637 3.73067 3
      vertex 2.25 3.89711 10.5
      vertex 2.51637 3.73067 10.5
    endloop
  endfacet
  facet normal 0.529918 0.848049 0
    outer loop
      vertex 2.25 3.89711 10.5
      vertex 2.51637 3.73067 3
      vertex 2.25 3.89711 3
    endloop
  endfacet
  facet normal 0.469471 0.882948 -0
    outer loop
      vertex 2.25 3.89711 3
      vertex 1.97267 4.04457 10.5
      vertex 2.25 3.89711 10.5
    endloop
  endfacet
  facet normal 0.469471 0.882948 0
    outer loop
      vertex 1.97267 4.04457 10.5
      vertex 2.25 3.89711 3
      vertex 1.97267 4.04457 3
    endloop
  endfacet
  facet normal -0.743145 0.66913 0
    outer loop
      vertex -3.4472 2.89254 3
      vertex -3.23703 3.12596 10.5
      vertex -3.23703 3.12596 3
    endloop
  endfacet
  facet normal -0.743145 0.66913 0
    outer loop
      vertex -3.23703 3.12596 10.5
      vertex -3.4472 2.89254 3
      vertex -3.4472 2.89254 10.5
    endloop
  endfacet
  facet normal -0.788011 0.615661 0
    outer loop
      vertex -3.64058 2.64503 3
      vertex -3.4472 2.89254 10.5
      vertex -3.4472 2.89254 3
    endloop
  endfacet
  facet normal -0.788011 0.615661 0
    outer loop
      vertex -3.4472 2.89254 10.5
      vertex -3.64058 2.64503 3
      vertex -3.64058 2.64503 10.5
    endloop
  endfacet
  facet normal -0.898794 0.438372 0
    outer loop
      vertex -4.11095 1.83031 3
      vertex -3.97326 2.11262 10.5
      vertex -3.97326 2.11262 3
    endloop
  endfacet
  facet normal -0.898794 0.438372 0
    outer loop
      vertex -3.97326 2.11262 10.5
      vertex -4.11095 1.83031 3
      vertex -4.11095 1.83031 10.5
    endloop
  endfacet
  facet normal -0.951057 0.309015 0
    outer loop
      vertex -4.32568 1.24037 3
      vertex -4.22862 1.53909 10.5
      vertex -4.22862 1.53909 3
    endloop
  endfacet
  facet normal -0.951057 0.309015 0
    outer loop
      vertex -4.22862 1.53909 10.5
      vertex -4.32568 1.24037 3
      vertex -4.32568 1.24037 10.5
    endloop
  endfacet
  facet normal -0.984808 0.173647 0
    outer loop
      vertex -4.45621 0.626279 3
      vertex -4.40166 0.935602 10.5
      vertex -4.40166 0.935602 3
    endloop
  endfacet
  facet normal -0.984808 0.173647 0
    outer loop
      vertex -4.40166 0.935602 10.5
      vertex -4.45621 0.626279 3
      vertex -4.45621 0.626279 10.5
    endloop
  endfacet
  facet normal 0 0 1
    outer loop
      vertex 4.48904 0.313904 10.5
      vertex 4.48904 -0.313904 10.5
      vertex 4.5 0 10.5
    endloop
  endfacet
  facet normal 0 0 1
    outer loop
      vertex 4.45621 0.626279 10.5
      vertex 4.48904 -0.313904 10.5
      vertex 4.48904 0.313904 10.5
    endloop
  endfacet
  facet normal 0 0 1
    outer loop
      vertex 4.45621 0.626279 10.5
      vertex 4.45621 -0.626279 10.5
      vertex 4.48904 -0.313904 10.5
    endloop
  endfacet
  facet normal 0 0 1
    outer loop
      vertex 4.40166 0.935602 10.5
      vertex 4.45621 -0.626279 10.5
      vertex 4.45621 0.626279 10.5
    endloop
  endfacet
  facet normal 0 0 1
    outer loop
      vertex 4.40166 0.935602 10.5
      vertex 4.40166 -0.935602 10.5
      vertex 4.45621 -0.626279 10.5
    endloop
  endfacet
  facet normal 0 0 1
    outer loop
      vertex 4.32568 1.24037 10.5
      vertex 4.40166 -0.935602 10.5
      vertex 4.40166 0.935602 10.5
    endloop
  endfacet
  facet normal 0 0 1
    outer loop
      vertex 4.32568 1.24037 10.5
      vertex 4.32568 -1.24037 10.5
      vertex 4.40166 -0.935602 10.5
    endloop
  endfacet
  facet normal 0 0 1
    outer loop
      vertex 4.22862 1.53909 10.5
      vertex 4.32568 -1.24037 10.5
      vertex 4.32568 1.24037 10.5
    endloop
  endfacet
  facet normal 0 0 1
    outer loop
      vertex 4.22862 1.53909 10.5
      vertex 4.22862 -1.53909 10.5
      vertex 4.32568 -1.24037 10.5
    endloop
  endfacet
  facet normal 0 0 1
    outer loop
      vertex 4.11095 1.83031 10.5
      vertex 4.22862 -1.53909 10.5
      vertex 4.22862 1.53909 10.5
    endloop
  endfacet
  facet normal 0 0 1
    outer loop
      vertex 4.11095 1.83031 10.5
      vertex 4.11095 -1.83031 10.5
      vertex 4.22862 -1.53909 10.5
    endloop
  endfacet
  facet normal 0 0 1
    outer loop
      vertex 3.97326 2.11262 10.5
      vertex 4.11095 -1.83031 10.5
      vertex 4.11095 1.83031 10.5
    endloop
  endfacet
  facet normal 0 0 1
    outer loop
      vertex 3.97326 2.11262 10.5
      vertex 3.97326 -2.11262 10.5
      vertex 4.11095 -1.83031 10.5
    endloop
  endfacet
  facet normal 0 0 1
    outer loop
      vertex 3.81622 2.38464 10.5
      vertex 3.97326 -2.11262 10.5
      vertex 3.97326 2.11262 10.5
    endloop
  endfacet
  facet normal 0 0 1
    outer loop
      vertex 3.81622 2.38464 10.5
      vertex 3.81622 -2.38464 10.5
      vertex 3.97326 -2.11262 10.5
    endloop
  endfacet
  facet normal 0 0 1
    outer loop
      vertex 3.64058 2.64503 10.5
      vertex 3.81622 -2.38464 10.5
      vertex 3.81622 2.38464 10.5
    endloop
  endfacet
  facet normal 0 0 1
    outer loop
      vertex 3.64058 2.64503 10.5
      vertex 3.64058 -2.64503 10.5
      vertex 3.81622 -2.38464 10.5
    endloop
  endfacet
  facet normal 0 0 1
    outer loop
      vertex 3.4472 2.89254 10.5
      vertex 3.64058 -2.64503 10.5
      vertex 3.64058 2.64503 10.5
    endloop
  endfacet
  facet normal 0 0 1
    outer loop
      vertex 3.4472 2.89254 10.5
      vertex 3.4472 -2.89254 10.5
      vertex 3.64058 -2.64503 10.5
    endloop
  endfacet
  facet normal 0 0 1
    outer loop
      vertex 3.23703 3.12596 10.5
      vertex 3.4472 -2.89254 10.5
      vertex 3.4472 2.89254 10.5
    endloop
  endfacet
  facet normal 0 0 1
    outer loop
      vertex 3.23703 3.12596 10.5
      vertex 3.23703 -3.12596 10.5
      vertex 3.4472 -2.89254 10.5
    endloop
  endfacet
  facet normal 0 0 1
    outer loop
      vertex 3.01109 3.34415 10.5
      vertex 3.23703 -3.12596 10.5
      vertex 3.23703 3.12596 10.5
    endloop
  endfacet
  facet normal 0 0 1
    outer loop
      vertex 3.01109 3.34415 10.5
      vertex 3.01109 -3.34415 10.5
      vertex 3.23703 -3.12596 10.5
    endloop
  endfacet
  facet normal 0 0 1
    outer loop
      vertex 2.77048 3.54605 10.5
      vertex 3.01109 -3.34415 10.5
      vertex 3.01109 3.34415 10.5
    endloop
  endfacet
  facet normal 0 0 1
    outer loop
      vertex 2.77048 3.54605 10.5
      vertex 2.77048 -3.54605 10.5
      vertex 3.01109 -3.34415 10.5
    endloop
  endfacet
  facet normal 0 0 1
    outer loop
      vertex 2.51637 3.73067 10.5
      vertex 2.77048 -3.54605 10.5
      vertex 2.77048 3.54605 10.5
    endloop
  endfacet
  facet normal 0 0 1
    outer loop
      vertex 2.51637 3.73067 10.5
      vertex 2.51637 -3.73067 10.5
      vertex 2.77048 -3.54605 10.5
    endloop
  endfacet
  facet normal 0 0 1
    outer loop
      vertex 2.25 3.89711 10.5
      vertex 2.51637 -3.73067 10.5
      vertex 2.51637 3.73067 10.5
    endloop
  endfacet
  facet normal 0 0 1
    outer loop
      vertex 2.25 3.89711 10.5
      vertex 2.25 -3.89711 10.5
      vertex 2.51637 -3.73067 10.5
    endloop
  endfacet
  facet normal 0 0 1
    outer loop
      vertex 1.97267 4.04457 10.5
      vertex 2.25 -3.89711 10.5
      vertex 2.25 3.89711 10.5
    endloop
  endfacet
  facet normal 0 0 1
    outer loop
      vertex 1.97267 4.04457 10.5
      vertex 1.97267 -4.04457 10.5
      vertex 2.25 -3.89711 10.5
    endloop
  endfacet
  facet normal 0 0 1
    outer loop
      vertex 1.68573 4.17233 10.5
      vertex 1.97267 -4.04457 10.5
      vertex 1.97267 4.04457 10.5
    endloop
  endfacet
  facet normal 0 0 1
    outer loop
      vertex 1.68573 4.17233 10.5
      vertex 1.68573 -4.17233 10.5
      vertex 1.97267 -4.04457 10.5
    endloop
  endfacet
  facet normal 0 0 1
    outer loop
      vertex 1.39058 4.27975 10.5
      vertex 1.68573 -4.17233 10.5
      vertex 1.68573 4.17233 10.5
    endloop
  endfacet
  facet normal 0 0 1
    outer loop
      vertex 1.39058 4.27975 10.5
      vertex 1.39058 -4.27975 10.5
      vertex 1.68573 -4.17233 10.5
    endloop
  endfacet
  facet normal 0 0 1
    outer loop
      vertex 1.08865 4.36633 10.5
      vertex 1.39058 -4.27975 10.5
      vertex 1.39058 4.27975 10.5
    endloop
  endfacet
  facet normal 0 0 1
    outer loop
      vertex 1.08865 4.36633 10.5
      vertex 1.08865 -4.36633 10.5
      vertex 1.39058 -4.27975 10.5
    endloop
  endfacet
  facet normal 0 0 1
    outer loop
      vertex 0.781416 4.43163 10.5
      vertex 1.08865 -4.36633 10.5
      vertex 1.08865 4.36633 10.5
    endloop
  endfacet
  facet normal 0 0 1
    outer loop
      vertex 0.781416 4.43163 10.5
      vertex 0.781416 -4.43163 10.5
      vertex 1.08865 -4.36633 10.5
    endloop
  endfacet
  facet normal 0 0 1
    outer loop
      vertex 0.470378 4.47535 10.5
      vertex 0.781416 -4.43163 10.5
      vertex 0.781416 4.43163 10.5
    endloop
  endfacet
  facet normal 0 0 1
    outer loop
      vertex 0.470378 4.47535 10.5
      vertex 0.470378 -4.47535 10.5
      vertex 0.781416 -4.43163 10.5
    endloop
  endfacet
  facet normal 0 0 1
    outer loop
      vertex 0.157047 4.49726 10.5
      vertex 0.470378 -4.47535 10.5
      vertex 0.470378 4.47535 10.5
    endloop
  endfacet
  facet normal 0 0 1
    outer loop
      vertex 0.157047 4.49726 10.5
      vertex 0.157047 -4.49726 10.5
      vertex 0.470378 -4.47535 10.5
    endloop
  endfacet
  facet normal -0 0 1
    outer loop
      vertex -0.157047 4.49726 10.5
      vertex 0.157047 -4.49726 10.5
      vertex 0.157047 4.49726 10.5
    endloop
  endfacet
  facet normal 0 0 1
    outer loop
      vertex -0.157047 4.49726 10.5
      vertex -0.157047 -4.49726 10.5
      vertex 0.157047 -4.49726 10.5
    endloop
  endfacet
  facet normal -0 0 1
    outer loop
      vertex -0.470378 4.47535 10.5
      vertex -0.157047 -4.49726 10.5
      vertex -0.157047 4.49726 10.5
    endloop
  endfacet
  facet normal 0 0 1
    outer loop
      vertex -0.470378 4.47535 10.5
      vertex -0.470378 -4.47535 10.5
      vertex -0.157047 -4.49726 10.5
    endloop
  endfacet
  facet normal -0 0 1
    outer loop
      vertex -0.781416 4.43163 10.5
      vertex -0.470378 -4.47535 10.5
      vertex -0.470378 4.47535 10.5
    endloop
  endfacet
  facet normal 0 0 1
    outer loop
      vertex -0.781416 4.43163 10.5
      vertex -0.781416 -4.43163 10.5
      vertex -0.470378 -4.47535 10.5
    endloop
  endfacet
  facet normal -0 0 1
    outer loop
      vertex -1.08865 4.36633 10.5
      vertex -0.781416 -4.43163 10.5
      vertex -0.781416 4.43163 10.5
    endloop
  endfacet
  facet normal 0 0 1
    outer loop
      vertex -1.08865 4.36633 10.5
      vertex -1.08865 -4.36633 10.5
      vertex -0.781416 -4.43163 10.5
    endloop
  endfacet
  facet normal -0 0 1
    outer loop
      vertex -1.39058 4.27975 10.5
      vertex -1.08865 -4.36633 10.5
      vertex -1.08865 4.36633 10.5
    endloop
  endfacet
  facet normal 0 0 1
    outer loop
      vertex -1.39058 4.27975 10.5
      vertex -1.39058 -4.27975 10.5
      vertex -1.08865 -4.36633 10.5
    endloop
  endfacet
  facet normal -0 0 1
    outer loop
      vertex -1.68573 4.17233 10.5
      vertex -1.39058 -4.27975 10.5
      vertex -1.39058 4.27975 10.5
    endloop
  endfacet
  facet normal 0 0 1
    outer loop
      vertex -1.68573 4.17233 10.5
      vertex -1.68573 -4.17233 10.5
      vertex -1.39058 -4.27975 10.5
    endloop
  endfacet
  facet normal -0 0 1
    outer loop
      vertex -1.97267 4.04457 10.5
      vertex -1.68573 -4.17233 10.5
      vertex -1.68573 4.17233 10.5
    endloop
  endfacet
  facet normal 0 0 1
    outer loop
      vertex -1.97267 4.04457 10.5
      vertex -1.97267 -4.04457 10.5
      vertex -1.68573 -4.17233 10.5
    endloop
  endfacet
  facet normal -0 0 1
    outer loop
      vertex -2.25 3.89711 10.5
      vertex -1.97267 -4.04457 10.5
      vertex -1.97267 4.04457 10.5
    endloop
  endfacet
  facet normal 0 0 1
    outer loop
      vertex -2.25 3.89711 10.5
      vertex -2.25 -3.89711 10.5
      vertex -1.97267 -4.04457 10.5
    endloop
  endfacet
  facet normal -0 0 1
    outer loop
      vertex -2.51637 3.73067 10.5
      vertex -2.25 -3.89711 10.5
      vertex -2.25 3.89711 10.5
    endloop
  endfacet
  facet normal 0 0 1
    outer loop
      vertex -2.51637 3.73067 10.5
      vertex -2.51637 -3.73067 10.5
      vertex -2.25 -3.89711 10.5
    endloop
  endfacet
  facet normal -0 0 1
    outer loop
      vertex -2.77048 3.54605 10.5
      vertex -2.51637 -3.73067 10.5
      vertex -2.51637 3.73067 10.5
    endloop
  endfacet
  facet normal 0 0 1
    outer loop
      vertex -2.77048 3.54605 10.5
      vertex -2.77048 -3.54605 10.5
      vertex -2.51637 -3.73067 10.5
    endloop
  endfacet
  facet normal -0 0 1
    outer loop
      vertex -3.01109 3.34415 10.5
      vertex -2.77048 -3.54605 10.5
      vertex -2.77048 3.54605 10.5
    endloop
  endfacet
  facet normal 0 0 1
    outer loop
      vertex -3.01109 3.34415 10.5
      vertex -3.01109 -3.34415 10.5
      vertex -2.77048 -3.54605 10.5
    endloop
  endfacet
  facet normal -0 0 1
    outer loop
      vertex -3.23703 3.12596 10.5
      vertex -3.01109 -3.34415 10.5
      vertex -3.01109 3.34415 10.5
    endloop
  endfacet
  facet normal 0 0 1
    outer loop
      vertex -3.23703 3.12596 10.5
      vertex -3.23703 -3.12596 10.5
      vertex -3.01109 -3.34415 10.5
    endloop
  endfacet
  facet normal -0 0 1
    outer loop
      vertex -3.4472 2.89254 10.5
      vertex -3.23703 -3.12596 10.5
      vertex -3.23703 3.12596 10.5
    endloop
  endfacet
  facet normal 0 0 1
    outer loop
      vertex -3.4472 2.89254 10.5
      vertex -3.4472 -2.89254 10.5
      vertex -3.23703 -3.12596 10.5
    endloop
  endfacet
  facet normal -0 0 1
    outer loop
      vertex -3.64058 2.64503 10.5
      vertex -3.4472 -2.89254 10.5
      vertex -3.4472 2.89254 10.5
    endloop
  endfacet
  facet normal 0 0 1
    outer loop
      vertex -3.64058 2.64503 10.5
      vertex -3.64058 -2.64503 10.5
      vertex -3.4472 -2.89254 10.5
    endloop
  endfacet
  facet normal -0 0 1
    outer loop
      vertex -3.81622 2.38464 10.5
      vertex -3.64058 -2.64503 10.5
      vertex -3.64058 2.64503 10.5
    endloop
  endfacet
  facet normal 0 0 1
    outer loop
      vertex -3.81622 2.38464 10.5
      vertex -3.81622 -2.38464 10.5
      vertex -3.64058 -2.64503 10.5
    endloop
  endfacet
  facet normal -0 0 1
    outer loop
      vertex -3.97326 2.11262 10.5
      vertex -3.81622 -2.38464 10.5
      vertex -3.81622 2.38464 10.5
    endloop
  endfacet
  facet normal 0 0 1
    outer loop
      vertex -3.97326 2.11262 10.5
      vertex -3.97326 -2.11262 10.5
      vertex -3.81622 -2.38464 10.5
    endloop
  endfacet
  facet normal -0 0 1
    outer loop
      vertex -4.11095 1.83031 10.5
      vertex -3.97326 -2.11262 10.5
      vertex -3.97326 2.11262 10.5
    endloop
  endfacet
  facet normal 0 0 1
    outer loop
      vertex -4.11095 1.83031 10.5
      vertex -4.11095 -1.83031 10.5
      vertex -3.97326 -2.11262 10.5
    endloop
  endfacet
  facet normal -0 0 1
    outer loop
      vertex -4.22862 1.53909 10.5
      vertex -4.11095 -1.83031 10.5
      vertex -4.11095 1.83031 10.5
    endloop
  endfacet
  facet normal 0 0 1
    outer loop
      vertex -4.22862 1.53909 10.5
      vertex -4.22862 -1.53909 10.5
      vertex -4.11095 -1.83031 10.5
    endloop
  endfacet
  facet normal -0 0 1
    outer loop
      vertex -4.32568 1.24037 10.5
      vertex -4.22862 -1.53909 10.5
      vertex -4.22862 1.53909 10.5
    endloop
  endfacet
  facet normal 0 0 1
    outer loop
      vertex -4.32568 1.24037 10.5
      vertex -4.32568 -1.24037 10.5
      vertex -4.22862 -1.53909 10.5
    endloop
  endfacet
  facet normal -0 0 1
    outer loop
      vertex -4.40166 0.935602 10.5
      vertex -4.32568 -1.24037 10.5
      vertex -4.32568 1.24037 10.5
    endloop
  endfacet
  facet normal 0 0 1
    outer loop
      vertex -4.40166 0.935602 10.5
      vertex -4.40166 -0.935602 10.5
      vertex -4.32568 -1.24037 10.5
    endloop
  endfacet
  facet normal -0 0 1
    outer loop
      vertex -4.45621 0.626279 10.5
      vertex -4.40166 -0.935602 10.5
      vertex -4.40166 0.935602 10.5
    endloop
  endfacet
  facet normal 0 0 1
    outer loop
      vertex -4.45621 0.626279 10.5
      vertex -4.45621 -0.626279 10.5
      vertex -4.40166 -0.935602 10.5
    endloop
  endfacet
  facet normal -0 0 1
    outer loop
      vertex -4.48904 0.313904 10.5
      vertex -4.45621 -0.626279 10.5
      vertex -4.45621 0.626279 10.5
    endloop
  endfacet
  facet normal 0 0 1
    outer loop
      vertex -4.48904 0.313904 10.5
      vertex -4.48904 -0.313904 10.5
      vertex -4.45621 -0.626279 10.5
    endloop
  endfacet
  facet normal 0 -0 1
    outer loop
      vertex -4.48904 -0.313904 10.5
      vertex -4.48904 0.313904 10.5
      vertex -4.5 0 10.5
    endloop
  endfacet
  facet normal -0.587786 0.809017 0
    outer loop
      vertex -2.51637 3.73067 3
      vertex -2.77048 3.54605 10.5
      vertex -2.51637 3.73067 10.5
    endloop
  endfacet
  facet normal -0.587786 0.809017 0
    outer loop
      vertex -2.77048 3.54605 10.5
      vertex -2.51637 3.73067 3
      vertex -2.77048 3.54605 3
    endloop
  endfacet
  facet normal -0.406737 0.913545 0
    outer loop
      vertex -1.68573 4.17233 3
      vertex -1.97267 4.04457 10.5
      vertex -1.68573 4.17233 10.5
    endloop
  endfacet
  facet normal -0.406737 0.913545 0
    outer loop
      vertex -1.97267 4.04457 10.5
      vertex -1.68573 4.17233 3
      vertex -1.97267 4.04457 3
    endloop
  endfacet
  facet normal -0.529917 0.848049 0
    outer loop
      vertex -2.25 3.89711 3
      vertex -2.51637 3.73067 10.5
      vertex -2.25 3.89711 10.5
    endloop
  endfacet
  facet normal -0.529917 0.848049 0
    outer loop
      vertex -2.51637 3.73067 10.5
      vertex -2.25 3.89711 3
      vertex -2.51637 3.73067 3
    endloop
  endfacet
  facet normal -0.642788 0.766044 0
    outer loop
      vertex -2.77048 3.54605 3
      vertex -3.01109 3.34415 10.5
      vertex -2.77048 3.54605 10.5
    endloop
  endfacet
  facet normal -0.642788 0.766044 0
    outer loop
      vertex -3.01109 3.34415 10.5
      vertex -2.77048 3.54605 3
      vertex -3.01109 3.34415 3
    endloop
  endfacet
  facet normal -0.275637 0.961262 0
    outer loop
      vertex -1.08865 4.36633 3
      vertex -1.39058 4.27975 10.5
      vertex -1.08865 4.36633 10.5
    endloop
  endfacet
  facet normal -0.275637 0.961262 0
    outer loop
      vertex -1.39058 4.27975 10.5
      vertex -1.08865 4.36633 3
      vertex -1.39058 4.27975 3
    endloop
  endfacet
  facet normal -0.207911 0.978148 0
    outer loop
      vertex -0.781416 4.43163 3
      vertex -1.08865 4.36633 10.5
      vertex -0.781416 4.43163 10.5
    endloop
  endfacet
  facet normal -0.207911 0.978148 0
    outer loop
      vertex -1.08865 4.36633 10.5
      vertex -0.781416 4.43163 3
      vertex -1.08865 4.36633 3
    endloop
  endfacet
  facet normal 0.984808 -0.173647 0
    outer loop
      vertex 4.40166 -0.935602 10.5
      vertex 4.45621 -0.626279 3
      vertex 4.45621 -0.626279 10.5
    endloop
  endfacet
  facet normal 0.984808 -0.173647 0
    outer loop
      vertex 4.45621 -0.626279 3
      vertex 4.40166 -0.935602 10.5
      vertex 4.40166 -0.935602 3
    endloop
  endfacet
  facet normal -0.0697549 -0.997564 0
    outer loop
      vertex -0.470378 -4.47535 3
      vertex -0.157047 -4.49726 10.5
      vertex -0.470378 -4.47535 10.5
    endloop
  endfacet
  facet normal -0.0697549 -0.997564 -0
    outer loop
      vertex -0.157047 -4.49726 10.5
      vertex -0.470378 -4.47535 3
      vertex -0.157047 -4.49726 3
    endloop
  endfacet
  facet normal -0.788011 -0.615661 0
    outer loop
      vertex -3.4472 -2.89254 3
      vertex -3.64058 -2.64503 10.5
      vertex -3.64058 -2.64503 3
    endloop
  endfacet
  facet normal -0.788011 -0.615661 0
    outer loop
      vertex -3.64058 -2.64503 10.5
      vertex -3.4472 -2.89254 3
      vertex -3.4472 -2.89254 10.5
    endloop
  endfacet
  facet normal -0.829039 -0.559191 0
    outer loop
      vertex -3.64058 -2.64503 3
      vertex -3.81622 -2.38464 10.5
      vertex -3.81622 -2.38464 3
    endloop
  endfacet
  facet normal -0.829039 -0.559191 0
    outer loop
      vertex -3.81622 -2.38464 10.5
      vertex -3.64058 -2.64503 3
      vertex -3.64058 -2.64503 10.5
    endloop
  endfacet
  facet normal -0.927184 -0.374607 0
    outer loop
      vertex -4.11095 -1.83031 3
      vertex -4.22862 -1.53909 10.5
      vertex -4.22862 -1.53909 3
    endloop
  endfacet
  facet normal -0.927184 -0.374607 0
    outer loop
      vertex -4.22862 -1.53909 10.5
      vertex -4.11095 -1.83031 3
      vertex -4.11095 -1.83031 10.5
    endloop
  endfacet
  facet normal -0.866025 -0.500001 0
    outer loop
      vertex -3.81622 -2.38464 3
      vertex -3.97326 -2.11262 10.5
      vertex -3.97326 -2.11262 3
    endloop
  endfacet
  facet normal -0.866025 -0.500001 0
    outer loop
      vertex -3.97326 -2.11262 10.5
      vertex -3.81622 -2.38464 3
      vertex -3.81622 -2.38464 10.5
    endloop
  endfacet
  facet normal -0.970296 -0.241923 0
    outer loop
      vertex -4.32568 -1.24037 3
      vertex -4.40166 -0.935602 10.5
      vertex -4.40166 -0.935602 3
    endloop
  endfacet
  facet normal -0.970296 -0.241923 0
    outer loop
      vertex -4.40166 -0.935602 10.5
      vertex -4.32568 -1.24037 3
      vertex -4.32568 -1.24037 10.5
    endloop
  endfacet
  facet normal -0.999391 -0.0349018 0
    outer loop
      vertex -4.48904 -0.313904 3
      vertex -4.5 0 10.5
      vertex -4.5 0 3
    endloop
  endfacet
  facet normal -0.999391 -0.0349018 0
    outer loop
      vertex -4.5 0 10.5
      vertex -4.48904 -0.313904 3
      vertex -4.48904 -0.313904 10.5
    endloop
  endfacet
  facet normal -0.984808 -0.173647 0
    outer loop
      vertex -4.40166 -0.935602 3
      vertex -4.45621 -0.626279 10.5
      vertex -4.45621 -0.626279 3
    endloop
  endfacet
  facet normal -0.984808 -0.173647 0
    outer loop
      vertex -4.45621 -0.626279 10.5
      vertex -4.40166 -0.935602 3
      vertex -4.40166 -0.935602 10.5
    endloop
  endfacet
  facet normal 0.275637 -0.961262 0
    outer loop
      vertex 1.08865 -4.36633 3
      vertex 1.39058 -4.27975 10.5
      vertex 1.08865 -4.36633 10.5
    endloop
  endfacet
  facet normal 0.275637 -0.961262 0
    outer loop
      vertex 1.39058 -4.27975 10.5
      vertex 1.08865 -4.36633 3
      vertex 1.39058 -4.27975 3
    endloop
  endfacet
  facet normal 0.139176 -0.990268 0
    outer loop
      vertex 0.470378 -4.47535 3
      vertex 0.781416 -4.43163 10.5
      vertex 0.470378 -4.47535 10.5
    endloop
  endfacet
  facet normal 0.139176 -0.990268 0
    outer loop
      vertex 0.781416 -4.43163 10.5
      vertex 0.470378 -4.47535 3
      vertex 0.781416 -4.43163 3
    endloop
  endfacet
  facet normal 0.788011 0.615661 0
    outer loop
      vertex 3.64058 2.64503 10.5
      vertex 3.4472 2.89254 3
      vertex 3.4472 2.89254 10.5
    endloop
  endfacet
  facet normal 0.788011 0.615661 0
    outer loop
      vertex 3.4472 2.89254 3
      vertex 3.64058 2.64503 10.5
      vertex 3.64058 2.64503 3
    endloop
  endfacet
  facet normal 0.866025 0.500001 0
    outer loop
      vertex 3.97326 2.11262 10.5
      vertex 3.81622 2.38464 3
      vertex 3.81622 2.38464 10.5
    endloop
  endfacet
  facet normal 0.866025 0.500001 0
    outer loop
      vertex 3.81622 2.38464 3
      vertex 3.97326 2.11262 10.5
      vertex 3.97326 2.11262 3
    endloop
  endfacet
  facet normal 0.34202 0.939693 -0
    outer loop
      vertex 1.68573 4.17233 3
      vertex 1.39058 4.27975 10.5
      vertex 1.68573 4.17233 10.5
    endloop
  endfacet
  facet normal 0.34202 0.939693 0
    outer loop
      vertex 1.39058 4.27975 10.5
      vertex 1.68573 4.17233 3
      vertex 1.39058 4.27975 3
    endloop
  endfacet
  facet normal -0.139176 0.990268 0
    outer loop
      vertex -0.470378 4.47535 3
      vertex -0.781416 4.43163 10.5
      vertex -0.470378 4.47535 10.5
    endloop
  endfacet
  facet normal -0.139176 0.990268 0
    outer loop
      vertex -0.781416 4.43163 10.5
      vertex -0.470378 4.47535 3
      vertex -0.781416 4.43163 3
    endloop
  endfacet
  facet normal 0.994522 -0.104529 0
    outer loop
      vertex 4.45621 -0.626279 10.5
      vertex 4.48904 -0.313904 3
      vertex 4.48904 -0.313904 10.5
    endloop
  endfacet
  facet normal 0.994522 -0.104529 0
    outer loop
      vertex 4.48904 -0.313904 3
      vertex 4.45621 -0.626279 10.5
      vertex 4.45621 -0.626279 3
    endloop
  endfacet
  facet normal 0.866025 -0.500001 0
    outer loop
      vertex 3.81622 -2.38464 10.5
      vertex 3.97326 -2.11262 3
      vertex 3.97326 -2.11262 10.5
    endloop
  endfacet
  facet normal 0.866025 -0.500001 0
    outer loop
      vertex 3.97326 -2.11262 3
      vertex 3.81622 -2.38464 10.5
      vertex 3.81622 -2.38464 3
    endloop
  endfacet
  facet normal 0.927184 -0.374607 0
    outer loop
      vertex 4.11095 -1.83031 10.5
      vertex 4.22862 -1.53909 3
      vertex 4.22862 -1.53909 10.5
    endloop
  endfacet
  facet normal 0.927184 -0.374607 0
    outer loop
      vertex 4.22862 -1.53909 3
      vertex 4.11095 -1.83031 10.5
      vertex 4.11095 -1.83031 3
    endloop
  endfacet
  facet normal 0.951057 -0.309015 0
    outer loop
      vertex 4.22862 -1.53909 10.5
      vertex 4.32568 -1.24037 3
      vertex 4.32568 -1.24037 10.5
    endloop
  endfacet
  facet normal 0.951057 -0.309015 0
    outer loop
      vertex 4.32568 -1.24037 3
      vertex 4.22862 -1.53909 10.5
      vertex 4.22862 -1.53909 3
    endloop
  endfacet
  facet normal 0.743145 -0.66913 0
    outer loop
      vertex 3.23703 -3.12596 10.5
      vertex 3.4472 -2.89254 3
      vertex 3.4472 -2.89254 10.5
    endloop
  endfacet
  facet normal 0.743145 -0.66913 0
    outer loop
      vertex 3.4472 -2.89254 3
      vertex 3.23703 -3.12596 10.5
      vertex 3.23703 -3.12596 3
    endloop
  endfacet
  facet normal 0.406737 -0.913545 0
    outer loop
      vertex 1.68573 -4.17233 3
      vertex 1.97267 -4.04457 10.5
      vertex 1.68573 -4.17233 10.5
    endloop
  endfacet
  facet normal 0.406737 -0.913545 0
    outer loop
      vertex 1.97267 -4.04457 10.5
      vertex 1.68573 -4.17233 3
      vertex 1.97267 -4.04457 3
    endloop
  endfacet
  facet normal -0.34202 -0.939693 0
    outer loop
      vertex -1.68573 -4.17233 3
      vertex -1.39058 -4.27975 10.5
      vertex -1.68573 -4.17233 10.5
    endloop
  endfacet
  facet normal -0.34202 -0.939693 -0
    outer loop
      vertex -1.39058 -4.27975 10.5
      vertex -1.68573 -4.17233 3
      vertex -1.39058 -4.27975 3
    endloop
  endfacet
  facet normal -0.207911 -0.978148 0
    outer loop
      vertex -1.08865 -4.36633 3
      vertex -0.781416 -4.43163 10.5
      vertex -1.08865 -4.36633 10.5
    endloop
  endfacet
  facet normal -0.207911 -0.978148 -0
    outer loop
      vertex -0.781416 -4.43163 10.5
      vertex -1.08865 -4.36633 3
      vertex -0.781416 -4.43163 3
    endloop
  endfacet
  facet normal -0.694658 -0.71934 0
    outer loop
      vertex -3.23703 -3.12596 3
      vertex -3.01109 -3.34415 10.5
      vertex -3.23703 -3.12596 10.5
    endloop
  endfacet
  facet normal -0.694658 -0.71934 -0
    outer loop
      vertex -3.01109 -3.34415 10.5
      vertex -3.23703 -3.12596 3
      vertex -3.01109 -3.34415 3
    endloop
  endfacet
  facet normal -0.406737 -0.913545 0
    outer loop
      vertex -1.97267 -4.04457 3
      vertex -1.68573 -4.17233 10.5
      vertex -1.97267 -4.04457 10.5
    endloop
  endfacet
  facet normal -0.406737 -0.913545 -0
    outer loop
      vertex -1.68573 -4.17233 10.5
      vertex -1.97267 -4.04457 3
      vertex -1.68573 -4.17233 3
    endloop
  endfacet
  facet normal -0.898794 -0.438372 0
    outer loop
      vertex -3.97326 -2.11262 3
      vertex -4.11095 -1.83031 10.5
      vertex -4.11095 -1.83031 3
    endloop
  endfacet
  facet normal -0.898794 -0.438372 0
    outer loop
      vertex -4.11095 -1.83031 10.5
      vertex -3.97326 -2.11262 3
      vertex -3.97326 -2.11262 10.5
    endloop
  endfacet
  facet normal -0.951057 -0.309015 0
    outer loop
      vertex -4.22862 -1.53909 3
      vertex -4.32568 -1.24037 10.5
      vertex -4.32568 -1.24037 3
    endloop
  endfacet
  facet normal -0.951057 -0.309015 0
    outer loop
      vertex -4.32568 -1.24037 10.5
      vertex -4.22862 -1.53909 3
      vertex -4.22862 -1.53909 10.5
    endloop
  endfacet
  facet normal -0.994522 -0.104529 0
    outer loop
      vertex -4.45621 -0.626279 3
      vertex -4.48904 -0.313904 10.5
      vertex -4.48904 -0.313904 3
    endloop
  endfacet
  facet normal -0.994522 -0.104529 0
    outer loop
      vertex -4.48904 -0.313904 10.5
      vertex -4.45621 -0.626279 3
      vertex -4.45621 -0.626279 10.5
    endloop
  endfacet
  facet normal 0.207911 -0.978148 0
    outer loop
      vertex 0.781416 -4.43163 3
      vertex 1.08865 -4.36633 10.5
      vertex 0.781416 -4.43163 10.5
    endloop
  endfacet
  facet normal 0.207911 -0.978148 0
    outer loop
      vertex 1.08865 -4.36633 10.5
      vertex 0.781416 -4.43163 3
      vertex 1.08865 -4.36633 3
    endloop
  endfacet
  facet normal 0.898794 -0.438372 0
    outer loop
      vertex 3.97326 -2.11262 10.5
      vertex 4.11095 -1.83031 3
      vertex 4.11095 -1.83031 10.5
    endloop
  endfacet
  facet normal 0.898794 -0.438372 0
    outer loop
      vertex 4.11095 -1.83031 3
      vertex 3.97326 -2.11262 10.5
      vertex 3.97326 -2.11262 3
    endloop
  endfacet
  facet normal 0.970296 -0.241923 0
    outer loop
      vertex 4.32568 -1.24037 10.5
      vertex 4.40166 -0.935602 3
      vertex 4.40166 -0.935602 10.5
    endloop
  endfacet
  facet normal 0.970296 -0.241923 0
    outer loop
      vertex 4.40166 -0.935602 3
      vertex 4.32568 -1.24037 10.5
      vertex 4.32568 -1.24037 3
    endloop
  endfacet
  facet normal 0.788011 -0.615661 0
    outer loop
      vertex 3.4472 -2.89254 10.5
      vertex 3.64058 -2.64503 3
      vertex 3.64058 -2.64503 10.5
    endloop
  endfacet
  facet normal 0.788011 -0.615661 0
    outer loop
      vertex 3.64058 -2.64503 3
      vertex 3.4472 -2.89254 10.5
      vertex 3.4472 -2.89254 3
    endloop
  endfacet
  facet normal 0.829039 -0.559191 0
    outer loop
      vertex 3.64058 -2.64503 10.5
      vertex 3.81622 -2.38464 3
      vertex 3.81622 -2.38464 10.5
    endloop
  endfacet
  facet normal 0.829039 -0.559191 0
    outer loop
      vertex 3.81622 -2.38464 3
      vertex 3.64058 -2.64503 10.5
      vertex 3.64058 -2.64503 3
    endloop
  endfacet
  facet normal 0.587786 -0.809017 0
    outer loop
      vertex 2.51637 -3.73067 3
      vertex 2.77048 -3.54605 10.5
      vertex 2.51637 -3.73067 10.5
    endloop
  endfacet
  facet normal 0.587786 -0.809017 0
    outer loop
      vertex 2.77048 -3.54605 10.5
      vertex 2.51637 -3.73067 3
      vertex 2.77048 -3.54605 3
    endloop
  endfacet
  facet normal 0.694658 -0.71934 0
    outer loop
      vertex 3.01109 -3.34415 3
      vertex 3.23703 -3.12596 10.5
      vertex 3.01109 -3.34415 10.5
    endloop
  endfacet
  facet normal 0.694658 -0.71934 0
    outer loop
      vertex 3.23703 -3.12596 10.5
      vertex 3.01109 -3.34415 3
      vertex 3.23703 -3.12596 3
    endloop
  endfacet
  facet normal 0.642788 -0.766044 0
    outer loop
      vertex 2.77048 -3.54605 3
      vertex 3.01109 -3.34415 10.5
      vertex 2.77048 -3.54605 10.5
    endloop
  endfacet
  facet normal 0.642788 -0.766044 0
    outer loop
      vertex 3.01109 -3.34415 10.5
      vertex 2.77048 -3.54605 3
      vertex 3.01109 -3.34415 3
    endloop
  endfacet
  facet normal 0 -1 0
    outer loop
      vertex -0.157047 -4.49726 3
      vertex 0.157047 -4.49726 10.5
      vertex -0.157047 -4.49726 10.5
    endloop
  endfacet
  facet normal 0 -1 -0
    outer loop
      vertex 0.157047 -4.49726 10.5
      vertex -0.157047 -4.49726 3
      vertex 0.157047 -4.49726 3
    endloop
  endfacet
  facet normal -0.642788 -0.766044 0
    outer loop
      vertex -3.01109 -3.34415 3
      vertex -2.77048 -3.54605 10.5
      vertex -3.01109 -3.34415 10.5
    endloop
  endfacet
  facet normal -0.642788 -0.766044 -0
    outer loop
      vertex -2.77048 -3.54605 10.5
      vertex -3.01109 -3.34415 3
      vertex -2.77048 -3.54605 3
    endloop
  endfacet
  facet normal -0.529918 -0.848049 0
    outer loop
      vertex -2.51637 -3.73067 3
      vertex -2.25 -3.89711 10.5
      vertex -2.51637 -3.73067 10.5
    endloop
  endfacet
  facet normal -0.529918 -0.848049 -0
    outer loop
      vertex -2.25 -3.89711 10.5
      vertex -2.51637 -3.73067 3
      vertex -2.25 -3.89711 3
    endloop
  endfacet
  facet normal -0.743145 -0.66913 0
    outer loop
      vertex -3.23703 -3.12596 3
      vertex -3.4472 -2.89254 10.5
      vertex -3.4472 -2.89254 3
    endloop
  endfacet
  facet normal -0.743145 -0.66913 0
    outer loop
      vertex -3.4472 -2.89254 10.5
      vertex -3.23703 -3.12596 3
      vertex -3.23703 -3.12596 10.5
    endloop
  endfacet
  facet normal 0.529918 -0.848049 0
    outer loop
      vertex 2.25 -3.89711 3
      vertex 2.51637 -3.73067 10.5
      vertex 2.25 -3.89711 10.5
    endloop
  endfacet
  facet normal 0.529918 -0.848049 0
    outer loop
      vertex 2.51637 -3.73067 10.5
      vertex 2.25 -3.89711 3
      vertex 2.51637 -3.73067 3
    endloop
  endfacet
  facet normal 0.469471 -0.882948 0
    outer loop
      vertex 1.97267 -4.04457 3
      vertex 2.25 -3.89711 10.5
      vertex 1.97267 -4.04457 10.5
    endloop
  endfacet
  facet normal 0.469471 -0.882948 0
    outer loop
      vertex 2.25 -3.89711 10.5
      vertex 1.97267 -4.04457 3
      vertex 2.25 -3.89711 3
    endloop
  endfacet
  facet normal -0.275637 -0.961262 0
    outer loop
      vertex -1.39058 -4.27975 3
      vertex -1.08865 -4.36633 10.5
      vertex -1.39058 -4.27975 10.5
    endloop
  endfacet
  facet normal -0.275637 -0.961262 -0
    outer loop
      vertex -1.08865 -4.36633 10.5
      vertex -1.39058 -4.27975 3
      vertex -1.08865 -4.36633 3
    endloop
  endfacet
  facet normal -0.587786 -0.809017 0
    outer loop
      vertex -2.77048 -3.54605 3
      vertex -2.51637 -3.73067 10.5
      vertex -2.77048 -3.54605 10.5
    endloop
  endfacet
  facet normal -0.587786 -0.809017 -0
    outer loop
      vertex -2.51637 -3.73067 10.5
      vertex -2.77048 -3.54605 3
      vertex -2.51637 -3.73067 3
    endloop
  endfacet
  facet normal -0.469471 -0.882948 0
    outer loop
      vertex -2.25 -3.89711 3
      vertex -1.97267 -4.04457 10.5
      vertex -2.25 -3.89711 10.5
    endloop
  endfacet
  facet normal -0.469471 -0.882948 -0
    outer loop
      vertex -1.97267 -4.04457 10.5
      vertex -2.25 -3.89711 3
      vertex -1.97267 -4.04457 3
    endloop
  endfacet
endsolid OpenSCAD_Model
