solid OpenSCAD_Model
  facet normal 0.866025 0.5 0
    outer loop
      vertex 8 0 3
      vertex 4 6.9282 0
      vertex 4 6.9282 3
    endloop
  endfacet
  facet normal 0.866025 0.5 0
    outer loop
      vertex 4 6.9282 0
      vertex 8 0 3
      vertex 8 0 0
    endloop
  endfacet
  facet normal -0.866025 0.5 0
    outer loop
      vertex -8 0 0
      vertex -4 6.9282 3
      vertex -4 6.9282 0
    endloop
  endfacet
  facet normal -0.866025 0.5 0
    outer loop
      vertex -4 6.9282 3
      vertex -8 0 0
      vertex -8 0 3
    endloop
  endfacet
  facet normal 0 1 -0
    outer loop
      vertex 4 6.9282 0
      vertex -4 6.9282 3
      vertex 4 6.9282 3
    endloop
  endfacet
  facet normal 0 1 0
    outer loop
      vertex -4 6.9282 3
      vertex 4 6.9282 0
      vertex -4 6.9282 0
    endloop
  endfacet
  facet normal 0 0 1
    outer loop
      vertex 8 0 3
      vertex 4.58879 0.320879 3
      vertex 4.6 0 3
    endloop
  endfacet
  facet normal 0 0 1
    outer loop
      vertex 8 0 3
      vertex 4.55523 0.640196 3
      vertex 4.58879 0.320879 3
    endloop
  endfacet
  facet normal 0 0 1
    outer loop
      vertex 8 0 3
      vertex 4.49948 0.956393 3
      vertex 4.55523 0.640196 3
    endloop
  endfacet
  facet normal 0 0 1
    outer loop
      vertex 8 0 3
      vertex 4.4218 1.26793 3
      vertex 4.49948 0.956393 3
    endloop
  endfacet
  facet normal 0 0 1
    outer loop
      vertex 8 0 3
      vertex 4.32259 1.57329 3
      vertex 4.4218 1.26793 3
    endloop
  endfacet
  facet normal 0 0 1
    outer loop
      vertex 8 0 3
      vertex 4.20231 1.87099 3
      vertex 4.32259 1.57329 3
    endloop
  endfacet
  facet normal 0 0 1
    outer loop
      vertex 8 0 3
      vertex 4.06156 2.15957 3
      vertex 4.20231 1.87099 3
    endloop
  endfacet
  facet normal 0 0 1
    outer loop
      vertex 4 6.9282 3
      vertex 4.06156 2.15957 3
      vertex 8 0 3
    endloop
  endfacet
  facet normal 0 0 1
    outer loop
      vertex 4 6.9282 3
      vertex 3.90102 2.43763 3
      vertex 4.06156 2.15957 3
    endloop
  endfacet
  facet normal 0 0 1
    outer loop
      vertex 4 6.9282 3
      vertex 3.72148 2.70381 3
      vertex 3.90102 2.43763 3
    endloop
  endfacet
  facet normal 0 0 1
    outer loop
      vertex 4 6.9282 3
      vertex 3.5238 2.95682 3
      vertex 3.72148 2.70381 3
    endloop
  endfacet
  facet normal 0 0 1
    outer loop
      vertex 4 6.9282 3
      vertex 3.30896 3.19543 3
      vertex 3.5238 2.95682 3
    endloop
  endfacet
  facet normal 0 0 1
    outer loop
      vertex 4 6.9282 3
      vertex 3.078 3.41847 3
      vertex 3.30896 3.19543 3
    endloop
  endfacet
  facet normal 0 0 1
    outer loop
      vertex 4 6.9282 3
      vertex 2.83204 3.62485 3
      vertex 3.078 3.41847 3
    endloop
  endfacet
  facet normal 0 0 1
    outer loop
      vertex 4 6.9282 3
      vertex 2.57229 3.81357 3
      vertex 2.83204 3.62485 3
    endloop
  endfacet
  facet normal 0 0 1
    outer loop
      vertex 4 6.9282 3
      vertex 2.3 3.98372 3
      vertex 2.57229 3.81357 3
    endloop
  endfacet
  facet normal 0 0 1
    outer loop
      vertex 4 6.9282 3
      vertex 2.01651 4.13445 3
      vertex 2.3 3.98372 3
    endloop
  endfacet
  facet normal 0 0 1
    outer loop
      vertex 4 6.9282 3
      vertex 1.72319 4.26505 3
      vertex 2.01651 4.13445 3
    endloop
  endfacet
  facet normal 0 0 1
    outer loop
      vertex 4 6.9282 3
      vertex 1.42148 4.37486 3
      vertex 1.72319 4.26505 3
    endloop
  endfacet
  facet normal 0 0 1
    outer loop
      vertex 4 6.9282 3
      vertex 1.11284 4.46336 3
      vertex 1.42148 4.37486 3
    endloop
  endfacet
  facet normal 0 0 1
    outer loop
      vertex 4 6.9282 3
      vertex 0.798781 4.53012 3
      vertex 1.11284 4.46336 3
    endloop
  endfacet
  facet normal 0 0 1
    outer loop
      vertex 4 6.9282 3
      vertex 0.48083 4.5748 3
      vertex 0.798781 4.53012 3
    endloop
  endfacet
  facet normal 0 0 1
    outer loop
      vertex 4 6.9282 3
      vertex 0.160537 4.5972 3
      vertex 0.48083 4.5748 3
    endloop
  endfacet
  facet normal 0 0 1
    outer loop
      vertex 4 6.9282 3
      vertex -0.160537 4.5972 3
      vertex 0.160537 4.5972 3
    endloop
  endfacet
  facet normal -0 0 1
    outer loop
      vertex -4 6.9282 3
      vertex -0.160537 4.5972 3
      vertex 4 6.9282 3
    endloop
  endfacet
  facet normal 0 0 1
    outer loop
      vertex -0.160537 4.5972 3
      vertex -4 6.9282 3
      vertex -0.48083 4.5748 3
    endloop
  endfacet
  facet normal 0 0 1
    outer loop
      vertex -0.48083 4.5748 3
      vertex -4 6.9282 3
      vertex -0.798781 4.53012 3
    endloop
  endfacet
  facet normal 0 0 1
    outer loop
      vertex -0.798781 4.53012 3
      vertex -4 6.9282 3
      vertex -1.11284 4.46336 3
    endloop
  endfacet
  facet normal 0 0 1
    outer loop
      vertex -1.11284 4.46336 3
      vertex -4 6.9282 3
      vertex -1.42148 4.37486 3
    endloop
  endfacet
  facet normal 0 0 1
    outer loop
      vertex -1.42148 4.37486 3
      vertex -4 6.9282 3
      vertex -1.72319 4.26505 3
    endloop
  endfacet
  facet normal 0 0 1
    outer loop
      vertex -1.72319 4.26505 3
      vertex -4 6.9282 3
      vertex -2.01651 4.13445 3
    endloop
  endfacet
  facet normal 0 0 1
    outer loop
      vertex -4 6.9282 3
      vertex -2.3 3.98372 3
      vertex -2.01651 4.13445 3
    endloop
  endfacet
  facet normal 0 0 1
    outer loop
      vertex -4 6.9282 3
      vertex -2.57229 3.81357 3
      vertex -2.3 3.98372 3
    endloop
  endfacet
  facet normal 0 0 1
    outer loop
      vertex -4 6.9282 3
      vertex -2.83204 3.62485 3
      vertex -2.57229 3.81357 3
    endloop
  endfacet
  facet normal 0 0 1
    outer loop
      vertex -4 6.9282 3
      vertex -3.078 3.41847 3
      vertex -2.83204 3.62485 3
    endloop
  endfacet
  facet normal 0 0 1
    outer loop
      vertex -4 6.9282 3
      vertex -3.30896 3.19543 3
      vertex -3.078 3.41847 3
    endloop
  endfacet
  facet normal 0 0 1
    outer loop
      vertex -4 6.9282 3
      vertex -3.5238 2.95682 3
      vertex -3.30896 3.19543 3
    endloop
  endfacet
  facet normal 0 0 1
    outer loop
      vertex -4 6.9282 3
      vertex -3.72148 2.70381 3
      vertex -3.5238 2.95682 3
    endloop
  endfacet
  facet normal 0 0 1
    outer loop
      vertex -4 6.9282 3
      vertex -3.90102 2.43763 3
      vertex -3.72148 2.70381 3
    endloop
  endfacet
  facet normal 0 0 1
    outer loop
      vertex -4 6.9282 3
      vertex -4.06156 2.15957 3
      vertex -3.90102 2.43763 3
    endloop
  endfacet
  facet normal 0 0 1
    outer loop
      vertex -8 0 3
      vertex -4.06156 2.15957 3
      vertex -4 6.9282 3
    endloop
  endfacet
  facet normal 0 0 1
    outer loop
      vertex -4.06156 2.15957 3
      vertex -8 0 3
      vertex -4.20231 1.87099 3
    endloop
  endfacet
  facet normal 0 0 1
    outer loop
      vertex -4.20231 1.87099 3
      vertex -8 0 3
      vertex -4.32259 1.57329 3
    endloop
  endfacet
  facet normal 0 0 1
    outer loop
      vertex -4.32259 1.57329 3
      vertex -8 0 3
      vertex -4.4218 1.26793 3
    endloop
  endfacet
  facet normal 0 0 1
    outer loop
      vertex -4.4218 1.26793 3
      vertex -8 0 3
      vertex -4.49948 0.956393 3
    endloop
  endfacet
  facet normal 0 0 1
    outer loop
      vertex -4.49948 0.956393 3
      vertex -8 0 3
      vertex -4.55523 0.640196 3
    endloop
  endfacet
  facet normal 0 0 1
    outer loop
      vertex -4.58879 0.320879 3
      vertex -8 0 3
      vertex -4.6 0 3
    endloop
  endfacet
  facet normal 0 0 1
    outer loop
      vertex -4.55523 0.640196 3
      vertex -8 0 3
      vertex -4.58879 0.320879 3
    endloop
  endfacet
  facet normal 0 0 1
    outer loop
      vertex 4.58879 -0.320879 3
      vertex 8 0 3
      vertex 4.6 0 3
    endloop
  endfacet
  facet normal 0 0 1
    outer loop
      vertex 4.55523 -0.640196 3
      vertex 8 0 3
      vertex 4.58879 -0.320879 3
    endloop
  endfacet
  facet normal 0 0 1
    outer loop
      vertex 4.49948 -0.956393 3
      vertex 8 0 3
      vertex 4.55523 -0.640196 3
    endloop
  endfacet
  facet normal 0 0 1
    outer loop
      vertex 4.4218 -1.26793 3
      vertex 8 0 3
      vertex 4.49948 -0.956393 3
    endloop
  endfacet
  facet normal 0 0 1
    outer loop
      vertex 4.32259 -1.57329 3
      vertex 8 0 3
      vertex 4.4218 -1.26793 3
    endloop
  endfacet
  facet normal 0 0 1
    outer loop
      vertex 4.20231 -1.87099 3
      vertex 8 0 3
      vertex 4.32259 -1.57329 3
    endloop
  endfacet
  facet normal 0 0 1
    outer loop
      vertex 4.06156 -2.15957 3
      vertex 8 0 3
      vertex 4.20231 -1.87099 3
    endloop
  endfacet
  facet normal -0 0 1
    outer loop
      vertex 4.06156 -2.15957 3
      vertex 4 -6.9282 3
      vertex 8 0 3
    endloop
  endfacet
  facet normal -0 0 1
    outer loop
      vertex 3.90102 -2.43763 3
      vertex 4 -6.9282 3
      vertex 4.06156 -2.15957 3
    endloop
  endfacet
  facet normal -0 0 1
    outer loop
      vertex 3.72148 -2.70381 3
      vertex 4 -6.9282 3
      vertex 3.90102 -2.43763 3
    endloop
  endfacet
  facet normal -0 0 1
    outer loop
      vertex 3.5238 -2.95682 3
      vertex 4 -6.9282 3
      vertex 3.72148 -2.70381 3
    endloop
  endfacet
  facet normal -0 0 1
    outer loop
      vertex 3.30896 -3.19543 3
      vertex 4 -6.9282 3
      vertex 3.5238 -2.95682 3
    endloop
  endfacet
  facet normal -0 0 1
    outer loop
      vertex 3.078 -3.41847 3
      vertex 4 -6.9282 3
      vertex 3.30896 -3.19543 3
    endloop
  endfacet
  facet normal -0 0 1
    outer loop
      vertex 2.83204 -3.62485 3
      vertex 4 -6.9282 3
      vertex 3.078 -3.41847 3
    endloop
  endfacet
  facet normal -0 0 1
    outer loop
      vertex 2.57229 -3.81357 3
      vertex 4 -6.9282 3
      vertex 2.83204 -3.62485 3
    endloop
  endfacet
  facet normal -0 0 1
    outer loop
      vertex 2.3 -3.98372 3
      vertex 4 -6.9282 3
      vertex 2.57229 -3.81357 3
    endloop
  endfacet
  facet normal -0 0 1
    outer loop
      vertex 2.01651 -4.13445 3
      vertex 4 -6.9282 3
      vertex 2.3 -3.98372 3
    endloop
  endfacet
  facet normal -0 0 1
    outer loop
      vertex 1.72319 -4.26505 3
      vertex 4 -6.9282 3
      vertex 2.01651 -4.13445 3
    endloop
  endfacet
  facet normal -0 0 1
    outer loop
      vertex 1.42148 -4.37486 3
      vertex 4 -6.9282 3
      vertex 1.72319 -4.26505 3
    endloop
  endfacet
  facet normal -0 0 1
    outer loop
      vertex 1.11284 -4.46336 3
      vertex 4 -6.9282 3
      vertex 1.42148 -4.37486 3
    endloop
  endfacet
  facet normal -0 0 1
    outer loop
      vertex 0.798781 -4.53012 3
      vertex 4 -6.9282 3
      vertex 1.11284 -4.46336 3
    endloop
  endfacet
  facet normal -0 0 1
    outer loop
      vertex 0.48083 -4.5748 3
      vertex 4 -6.9282 3
      vertex 0.798781 -4.53012 3
    endloop
  endfacet
  facet normal -0 0 1
    outer loop
      vertex 0.160537 -4.5972 3
      vertex 4 -6.9282 3
      vertex 0.48083 -4.5748 3
    endloop
  endfacet
  facet normal -0 0 1
    outer loop
      vertex -0.160537 -4.5972 3
      vertex 4 -6.9282 3
      vertex 0.160537 -4.5972 3
    endloop
  endfacet
  facet normal 0 0 1
    outer loop
      vertex -4 -6.9282 3
      vertex -0.160537 -4.5972 3
      vertex -0.48083 -4.5748 3
    endloop
  endfacet
  facet normal 0 0 1
    outer loop
      vertex -4 -6.9282 3
      vertex -0.48083 -4.5748 3
      vertex -0.798781 -4.53012 3
    endloop
  endfacet
  facet normal 0 0 1
    outer loop
      vertex -4 -6.9282 3
      vertex -0.798781 -4.53012 3
      vertex -1.11284 -4.46336 3
    endloop
  endfacet
  facet normal 0 0 1
    outer loop
      vertex -4 -6.9282 3
      vertex -1.11284 -4.46336 3
      vertex -1.42148 -4.37486 3
    endloop
  endfacet
  facet normal 0 0 1
    outer loop
      vertex -4 -6.9282 3
      vertex -1.42148 -4.37486 3
      vertex -1.72319 -4.26505 3
    endloop
  endfacet
  facet normal 0 0 1
    outer loop
      vertex -4 -6.9282 3
      vertex -1.72319 -4.26505 3
      vertex -2.01651 -4.13445 3
    endloop
  endfacet
  facet normal 0 0 1
    outer loop
      vertex -0.160537 -4.5972 3
      vertex -4 -6.9282 3
      vertex 4 -6.9282 3
    endloop
  endfacet
  facet normal 0 0 1
    outer loop
      vertex -2.3 -3.98372 3
      vertex -4 -6.9282 3
      vertex -2.01651 -4.13445 3
    endloop
  endfacet
  facet normal 0 0 1
    outer loop
      vertex -2.57229 -3.81357 3
      vertex -4 -6.9282 3
      vertex -2.3 -3.98372 3
    endloop
  endfacet
  facet normal 0 0 1
    outer loop
      vertex -2.83204 -3.62485 3
      vertex -4 -6.9282 3
      vertex -2.57229 -3.81357 3
    endloop
  endfacet
  facet normal 0 0 1
    outer loop
      vertex -3.078 -3.41847 3
      vertex -4 -6.9282 3
      vertex -2.83204 -3.62485 3
    endloop
  endfacet
  facet normal 0 0 1
    outer loop
      vertex -3.30896 -3.19543 3
      vertex -4 -6.9282 3
      vertex -3.078 -3.41847 3
    endloop
  endfacet
  facet normal 0 0 1
    outer loop
      vertex -3.5238 -2.95682 3
      vertex -4 -6.9282 3
      vertex -3.30896 -3.19543 3
    endloop
  endfacet
  facet normal 0 0 1
    outer loop
      vertex -3.72148 -2.70381 3
      vertex -4 -6.9282 3
      vertex -3.5238 -2.95682 3
    endloop
  endfacet
  facet normal 0 0 1
    outer loop
      vertex -3.90102 -2.43763 3
      vertex -4 -6.9282 3
      vertex -3.72148 -2.70381 3
    endloop
  endfacet
  facet normal 0 0 1
    outer loop
      vertex -4.06156 -2.15957 3
      vertex -4 -6.9282 3
      vertex -3.90102 -2.43763 3
    endloop
  endfacet
  facet normal 0 0 1
    outer loop
      vertex -8 0 3
      vertex -4.06156 -2.15957 3
      vertex -4.20231 -1.87099 3
    endloop
  endfacet
  facet normal 0 0 1
    outer loop
      vertex -8 0 3
      vertex -4.20231 -1.87099 3
      vertex -4.32259 -1.57329 3
    endloop
  endfacet
  facet normal 0 0 1
    outer loop
      vertex -8 0 3
      vertex -4.32259 -1.57329 3
      vertex -4.4218 -1.26793 3
    endloop
  endfacet
  facet normal 0 0 1
    outer loop
      vertex -8 0 3
      vertex -4.4218 -1.26793 3
      vertex -4.49948 -0.956393 3
    endloop
  endfacet
  facet normal 0 0 1
    outer loop
      vertex -8 0 3
      vertex -4.49948 -0.956393 3
      vertex -4.55523 -0.640196 3
    endloop
  endfacet
  facet normal 0 0 1
    outer loop
      vertex -8 0 3
      vertex -4.55523 -0.640196 3
      vertex -4.58879 -0.320879 3
    endloop
  endfacet
  facet normal 0 0 1
    outer loop
      vertex -4.06156 -2.15957 3
      vertex -8 0 3
      vertex -4 -6.9282 3
    endloop
  endfacet
  facet normal -0 0 1
    outer loop
      vertex -8 0 3
      vertex -4.58879 -0.320879 3
      vertex -4.6 0 3
    endloop
  endfacet
  facet normal 0.866025 -0.5 0
    outer loop
      vertex 4 -6.9282 3
      vertex 8 0 0
      vertex 8 0 3
    endloop
  endfacet
  facet normal 0.866025 -0.5 0
    outer loop
      vertex 8 0 0
      vertex 4 -6.9282 3
      vertex 4 -6.9282 0
    endloop
  endfacet
  facet normal 0 0 -1
    outer loop
      vertex 4 -6.9282 0
      vertex 4 6.9282 0
      vertex 8 0 0
    endloop
  endfacet
  facet normal 0 0 -1
    outer loop
      vertex 4 -6.9282 0
      vertex -4 6.9282 0
      vertex 4 6.9282 0
    endloop
  endfacet
  facet normal 0 0 -1
    outer loop
      vertex -4 -6.9282 0
      vertex -4 6.9282 0
      vertex 4 -6.9282 0
    endloop
  endfacet
  facet normal 0 0 -1
    outer loop
      vertex -4 6.9282 0
      vertex -4 -6.9282 0
      vertex -8 0 0
    endloop
  endfacet
  facet normal 0 -1 0
    outer loop
      vertex -4 -6.9282 0
      vertex 4 -6.9282 3
      vertex -4 -6.9282 3
    endloop
  endfacet
  facet normal 0 -1 -0
    outer loop
      vertex 4 -6.9282 3
      vertex -4 -6.9282 0
      vertex 4 -6.9282 0
    endloop
  endfacet
  facet normal -0.866025 -0.5 0
    outer loop
      vertex -4 -6.9282 0
      vertex -8 0 3
      vertex -8 0 0
    endloop
  endfacet
  facet normal -0.866025 -0.5 0
    outer loop
      vertex -8 0 3
      vertex -4 -6.9282 0
      vertex -4 -6.9282 3
    endloop
  endfacet
  facet normal 0.999391 0.0349005 0
    outer loop
      vertex 4.6 0 10.5
      vertex 4.58879 0.320879 3
      vertex 4.58879 0.320879 10.5
    endloop
  endfacet
  facet normal 0.999391 0.0349005 0
    outer loop
      vertex 4.58879 0.320879 3
      vertex 4.6 0 10.5
      vertex 4.6 0 3
    endloop
  endfacet
  facet normal -0.999391 0.0349005 0
    outer loop
      vertex -4.6 0 3
      vertex -4.58879 0.320879 10.5
      vertex -4.58879 0.320879 3
    endloop
  endfacet
  facet normal -0.999391 0.0349005 0
    outer loop
      vertex -4.58879 0.320879 10.5
      vertex -4.6 0 3
      vertex -4.6 0 10.5
    endloop
  endfacet
  facet normal 0 1 -0
    outer loop
      vertex 0.160537 4.5972 3
      vertex -0.160537 4.5972 10.5
      vertex 0.160537 4.5972 10.5
    endloop
  endfacet
  facet normal 0 1 0
    outer loop
      vertex -0.160537 4.5972 10.5
      vertex 0.160537 4.5972 3
      vertex -0.160537 4.5972 3
    endloop
  endfacet
  facet normal 0 -1 0
    outer loop
      vertex -0.160537 -4.5972 3
      vertex 0.160537 -4.5972 10.5
      vertex -0.160537 -4.5972 10.5
    endloop
  endfacet
  facet normal 0 -1 -0
    outer loop
      vertex 0.160537 -4.5972 10.5
      vertex -0.160537 -4.5972 3
      vertex 0.160537 -4.5972 3
    endloop
  endfacet
  facet normal 0.694658 0.71934 -0
    outer loop
      vertex 3.30896 3.19543 3
      vertex 3.078 3.41847 10.5
      vertex 3.30896 3.19543 10.5
    endloop
  endfacet
  facet normal 0.694658 0.71934 0
    outer loop
      vertex 3.078 3.41847 10.5
      vertex 3.30896 3.19543 3
      vertex 3.078 3.41847 3
    endloop
  endfacet
  facet normal -0.694658 0.71934 0
    outer loop
      vertex -3.078 3.41847 3
      vertex -3.30896 3.19543 10.5
      vertex -3.078 3.41847 10.5
    endloop
  endfacet
  facet normal -0.694658 0.71934 0
    outer loop
      vertex -3.30896 3.19543 10.5
      vertex -3.078 3.41847 3
      vertex -3.30896 3.19543 3
    endloop
  endfacet
  facet normal -0.34202 0.939693 0
    outer loop
      vertex -1.42148 4.37486 3
      vertex -1.72319 4.26505 10.5
      vertex -1.42148 4.37486 10.5
    endloop
  endfacet
  facet normal -0.34202 0.939693 0
    outer loop
      vertex -1.72319 4.26505 10.5
      vertex -1.42148 4.37486 3
      vertex -1.72319 4.26505 3
    endloop
  endfacet
  facet normal 0.829037 -0.559193 0
    outer loop
      vertex 3.72148 -2.70381 10.5
      vertex 3.90102 -2.43763 3
      vertex 3.90102 -2.43763 10.5
    endloop
  endfacet
  facet normal 0.829037 -0.559193 0
    outer loop
      vertex 3.90102 -2.43763 3
      vertex 3.72148 -2.70381 10.5
      vertex 3.72148 -2.70381 3
    endloop
  endfacet
  facet normal 0.898795 0.43837 0
    outer loop
      vertex 4.20231 1.87099 10.5
      vertex 4.06156 2.15957 3
      vertex 4.06156 2.15957 10.5
    endloop
  endfacet
  facet normal 0.898795 0.43837 0
    outer loop
      vertex 4.06156 2.15957 3
      vertex 4.20231 1.87099 10.5
      vertex 4.20231 1.87099 3
    endloop
  endfacet
  facet normal 0.34202 0.939693 -0
    outer loop
      vertex 1.72319 4.26505 3
      vertex 1.42148 4.37486 10.5
      vertex 1.72319 4.26505 10.5
    endloop
  endfacet
  facet normal 0.34202 0.939693 0
    outer loop
      vertex 1.42148 4.37486 10.5
      vertex 1.72319 4.26505 3
      vertex 1.42148 4.37486 3
    endloop
  endfacet
  facet normal 0.529919 0.848048 -0
    outer loop
      vertex 2.57229 3.81357 3
      vertex 2.3 3.98372 10.5
      vertex 2.57229 3.81357 10.5
    endloop
  endfacet
  facet normal 0.529919 0.848048 0
    outer loop
      vertex 2.3 3.98372 10.5
      vertex 2.57229 3.81357 3
      vertex 2.3 3.98372 3
    endloop
  endfacet
  facet normal -0.898795 0.43837 0
    outer loop
      vertex -4.20231 1.87099 3
      vertex -4.06156 2.15957 10.5
      vertex -4.06156 2.15957 3
    endloop
  endfacet
  facet normal -0.898795 0.43837 0
    outer loop
      vertex -4.06156 2.15957 10.5
      vertex -4.20231 1.87099 3
      vertex -4.20231 1.87099 10.5
    endloop
  endfacet
  facet normal -0.207912 0.978148 0
    outer loop
      vertex -0.798781 4.53012 3
      vertex -1.11284 4.46336 10.5
      vertex -0.798781 4.53012 10.5
    endloop
  endfacet
  facet normal -0.207912 0.978148 0
    outer loop
      vertex -1.11284 4.46336 10.5
      vertex -0.798781 4.53012 3
      vertex -1.11284 4.46336 3
    endloop
  endfacet
  facet normal 0.951056 -0.309019 0
    outer loop
      vertex 4.32259 -1.57329 10.5
      vertex 4.4218 -1.26793 3
      vertex 4.4218 -1.26793 10.5
    endloop
  endfacet
  facet normal 0.951056 -0.309019 0
    outer loop
      vertex 4.4218 -1.26793 3
      vertex 4.32259 -1.57329 10.5
      vertex 4.32259 -1.57329 3
    endloop
  endfacet
  facet normal 0.275637 -0.961262 0
    outer loop
      vertex 1.11284 -4.46336 3
      vertex 1.42148 -4.37486 10.5
      vertex 1.11284 -4.46336 10.5
    endloop
  endfacet
  facet normal 0.275637 -0.961262 0
    outer loop
      vertex 1.42148 -4.37486 10.5
      vertex 1.11284 -4.46336 3
      vertex 1.42148 -4.37486 3
    endloop
  endfacet
  facet normal 0.970296 0.241921 0
    outer loop
      vertex 4.49948 0.956393 10.5
      vertex 4.4218 1.26793 3
      vertex 4.4218 1.26793 10.5
    endloop
  endfacet
  facet normal 0.970296 0.241921 0
    outer loop
      vertex 4.4218 1.26793 3
      vertex 4.49948 0.956393 10.5
      vertex 4.49948 0.956393 3
    endloop
  endfacet
  facet normal 0.994522 0.104526 0
    outer loop
      vertex 4.58879 0.320879 10.5
      vertex 4.55523 0.640196 3
      vertex 4.55523 0.640196 10.5
    endloop
  endfacet
  facet normal 0.994522 0.104526 0
    outer loop
      vertex 4.55523 0.640196 3
      vertex 4.58879 0.320879 10.5
      vertex 4.58879 0.320879 3
    endloop
  endfacet
  facet normal 0.829037 0.559193 0
    outer loop
      vertex 3.90102 2.43763 10.5
      vertex 3.72148 2.70381 3
      vertex 3.72148 2.70381 10.5
    endloop
  endfacet
  facet normal 0.829037 0.559193 0
    outer loop
      vertex 3.72148 2.70381 3
      vertex 3.90102 2.43763 10.5
      vertex 3.90102 2.43763 3
    endloop
  endfacet
  facet normal 0.866025 0.500001 0
    outer loop
      vertex 4.06156 2.15957 10.5
      vertex 3.90102 2.43763 3
      vertex 3.90102 2.43763 10.5
    endloop
  endfacet
  facet normal 0.866025 0.500001 0
    outer loop
      vertex 3.90102 2.43763 3
      vertex 4.06156 2.15957 10.5
      vertex 4.06156 2.15957 3
    endloop
  endfacet
  facet normal 0.139174 0.990268 -0
    outer loop
      vertex 0.798781 4.53012 3
      vertex 0.48083 4.5748 10.5
      vertex 0.798781 4.53012 10.5
    endloop
  endfacet
  facet normal 0.139174 0.990268 0
    outer loop
      vertex 0.48083 4.5748 10.5
      vertex 0.798781 4.53012 3
      vertex 0.48083 4.5748 3
    endloop
  endfacet
  facet normal 0.275637 0.961262 -0
    outer loop
      vertex 1.42148 4.37486 3
      vertex 1.11284 4.46336 10.5
      vertex 1.42148 4.37486 10.5
    endloop
  endfacet
  facet normal 0.275637 0.961262 0
    outer loop
      vertex 1.11284 4.46336 10.5
      vertex 1.42148 4.37486 3
      vertex 1.11284 4.46336 3
    endloop
  endfacet
  facet normal 0.0697563 0.997564 -0
    outer loop
      vertex 0.48083 4.5748 3
      vertex 0.160537 4.5972 10.5
      vertex 0.48083 4.5748 10.5
    endloop
  endfacet
  facet normal 0.0697563 0.997564 0
    outer loop
      vertex 0.160537 4.5972 10.5
      vertex 0.48083 4.5748 3
      vertex 0.160537 4.5972 3
    endloop
  endfacet
  facet normal 0.642789 0.766043 -0
    outer loop
      vertex 3.078 3.41847 3
      vertex 2.83204 3.62485 10.5
      vertex 3.078 3.41847 10.5
    endloop
  endfacet
  facet normal 0.642789 0.766043 0
    outer loop
      vertex 2.83204 3.62485 10.5
      vertex 3.078 3.41847 3
      vertex 2.83204 3.62485 3
    endloop
  endfacet
  facet normal -0.970296 0.241921 0
    outer loop
      vertex -4.49948 0.956393 3
      vertex -4.4218 1.26793 10.5
      vertex -4.4218 1.26793 3
    endloop
  endfacet
  facet normal -0.970296 0.241921 0
    outer loop
      vertex -4.4218 1.26793 10.5
      vertex -4.49948 0.956393 3
      vertex -4.49948 0.956393 10.5
    endloop
  endfacet
  facet normal -0.829037 0.559193 0
    outer loop
      vertex -3.90102 2.43763 3
      vertex -3.72148 2.70381 10.5
      vertex -3.72148 2.70381 3
    endloop
  endfacet
  facet normal -0.829037 0.559193 0
    outer loop
      vertex -3.72148 2.70381 10.5
      vertex -3.90102 2.43763 3
      vertex -3.90102 2.43763 10.5
    endloop
  endfacet
  facet normal -0.866025 0.500001 0
    outer loop
      vertex -4.06156 2.15957 3
      vertex -3.90102 2.43763 10.5
      vertex -3.90102 2.43763 3
    endloop
  endfacet
  facet normal -0.866025 0.500001 0
    outer loop
      vertex -3.90102 2.43763 10.5
      vertex -4.06156 2.15957 3
      vertex -4.06156 2.15957 10.5
    endloop
  endfacet
  facet normal -0.984807 0.17365 0
    outer loop
      vertex -4.55523 0.640196 3
      vertex -4.49948 0.956393 10.5
      vertex -4.49948 0.956393 3
    endloop
  endfacet
  facet normal -0.984807 0.17365 0
    outer loop
      vertex -4.49948 0.956393 10.5
      vertex -4.55523 0.640196 3
      vertex -4.55523 0.640196 10.5
    endloop
  endfacet
  facet normal -0.529919 0.848048 0
    outer loop
      vertex -2.3 3.98372 3
      vertex -2.57229 3.81357 10.5
      vertex -2.3 3.98372 10.5
    endloop
  endfacet
  facet normal -0.529919 0.848048 0
    outer loop
      vertex -2.57229 3.81357 10.5
      vertex -2.3 3.98372 3
      vertex -2.57229 3.81357 3
    endloop
  endfacet
  facet normal -0.406737 0.913545 0
    outer loop
      vertex -1.72319 4.26505 3
      vertex -2.01651 4.13445 10.5
      vertex -1.72319 4.26505 10.5
    endloop
  endfacet
  facet normal -0.406737 0.913545 0
    outer loop
      vertex -2.01651 4.13445 10.5
      vertex -1.72319 4.26505 3
      vertex -2.01651 4.13445 3
    endloop
  endfacet
  facet normal -0.587783 0.809019 0
    outer loop
      vertex -2.57229 3.81357 3
      vertex -2.83204 3.62485 10.5
      vertex -2.57229 3.81357 10.5
    endloop
  endfacet
  facet normal -0.587783 0.809019 0
    outer loop
      vertex -2.83204 3.62485 10.5
      vertex -2.57229 3.81357 3
      vertex -2.83204 3.62485 3
    endloop
  endfacet
  facet normal -0.275637 0.961262 0
    outer loop
      vertex -1.11284 4.46336 3
      vertex -1.42148 4.37486 10.5
      vertex -1.11284 4.46336 10.5
    endloop
  endfacet
  facet normal -0.275637 0.961262 0
    outer loop
      vertex -1.42148 4.37486 10.5
      vertex -1.11284 4.46336 3
      vertex -1.42148 4.37486 3
    endloop
  endfacet
  facet normal -0.0697563 0.997564 0
    outer loop
      vertex -0.160537 4.5972 3
      vertex -0.48083 4.5748 10.5
      vertex -0.160537 4.5972 10.5
    endloop
  endfacet
  facet normal -0.0697563 0.997564 0
    outer loop
      vertex -0.48083 4.5748 10.5
      vertex -0.160537 4.5972 3
      vertex -0.48083 4.5748 3
    endloop
  endfacet
  facet normal -0.694658 -0.71934 0
    outer loop
      vertex -3.30896 -3.19543 3
      vertex -3.078 -3.41847 10.5
      vertex -3.30896 -3.19543 10.5
    endloop
  endfacet
  facet normal -0.694658 -0.71934 -0
    outer loop
      vertex -3.078 -3.41847 10.5
      vertex -3.30896 -3.19543 3
      vertex -3.078 -3.41847 3
    endloop
  endfacet
  facet normal -0.898795 -0.43837 0
    outer loop
      vertex -4.06156 -2.15957 3
      vertex -4.20231 -1.87099 10.5
      vertex -4.20231 -1.87099 3
    endloop
  endfacet
  facet normal -0.898795 -0.43837 0
    outer loop
      vertex -4.20231 -1.87099 10.5
      vertex -4.06156 -2.15957 3
      vertex -4.06156 -2.15957 10.5
    endloop
  endfacet
  facet normal -0.829037 -0.559193 0
    outer loop
      vertex -3.72148 -2.70381 3
      vertex -3.90102 -2.43763 10.5
      vertex -3.90102 -2.43763 3
    endloop
  endfacet
  facet normal -0.829037 -0.559193 0
    outer loop
      vertex -3.90102 -2.43763 10.5
      vertex -3.72148 -2.70381 3
      vertex -3.72148 -2.70381 10.5
    endloop
  endfacet
  facet normal 0.0697563 -0.997564 0
    outer loop
      vertex 0.160537 -4.5972 3
      vertex 0.48083 -4.5748 10.5
      vertex 0.160537 -4.5972 10.5
    endloop
  endfacet
  facet normal 0.0697563 -0.997564 0
    outer loop
      vertex 0.48083 -4.5748 10.5
      vertex 0.160537 -4.5972 3
      vertex 0.48083 -4.5748 3
    endloop
  endfacet
  facet normal 0.984807 0.17365 0
    outer loop
      vertex 4.55523 0.640196 10.5
      vertex 4.49948 0.956393 3
      vertex 4.49948 0.956393 10.5
    endloop
  endfacet
  facet normal 0.984807 0.17365 0
    outer loop
      vertex 4.49948 0.956393 3
      vertex 4.55523 0.640196 10.5
      vertex 4.55523 0.640196 3
    endloop
  endfacet
  facet normal 0.927184 0.374605 0
    outer loop
      vertex 4.32259 1.57329 10.5
      vertex 4.20231 1.87099 3
      vertex 4.20231 1.87099 10.5
    endloop
  endfacet
  facet normal 0.927184 0.374605 0
    outer loop
      vertex 4.20231 1.87099 3
      vertex 4.32259 1.57329 10.5
      vertex 4.32259 1.57329 3
    endloop
  endfacet
  facet normal 0.951056 0.309019 0
    outer loop
      vertex 4.4218 1.26793 10.5
      vertex 4.32259 1.57329 3
      vertex 4.32259 1.57329 10.5
    endloop
  endfacet
  facet normal 0.951056 0.309019 0
    outer loop
      vertex 4.32259 1.57329 3
      vertex 4.4218 1.26793 10.5
      vertex 4.4218 1.26793 3
    endloop
  endfacet
  facet normal 0.788011 0.615662 0
    outer loop
      vertex 3.72148 2.70381 10.5
      vertex 3.5238 2.95682 3
      vertex 3.5238 2.95682 10.5
    endloop
  endfacet
  facet normal 0.788011 0.615662 0
    outer loop
      vertex 3.5238 2.95682 3
      vertex 3.72148 2.70381 10.5
      vertex 3.72148 2.70381 3
    endloop
  endfacet
  facet normal 0.743146 0.66913 0
    outer loop
      vertex 3.5238 2.95682 10.5
      vertex 3.30896 3.19543 3
      vertex 3.30896 3.19543 10.5
    endloop
  endfacet
  facet normal 0.743146 0.66913 0
    outer loop
      vertex 3.30896 3.19543 3
      vertex 3.5238 2.95682 10.5
      vertex 3.5238 2.95682 3
    endloop
  endfacet
  facet normal 0.207912 0.978148 -0
    outer loop
      vertex 1.11284 4.46336 3
      vertex 0.798781 4.53012 10.5
      vertex 1.11284 4.46336 10.5
    endloop
  endfacet
  facet normal 0.207912 0.978148 0
    outer loop
      vertex 0.798781 4.53012 10.5
      vertex 1.11284 4.46336 3
      vertex 0.798781 4.53012 3
    endloop
  endfacet
  facet normal 0.469473 0.882947 -0
    outer loop
      vertex 2.3 3.98372 3
      vertex 2.01651 4.13445 10.5
      vertex 2.3 3.98372 10.5
    endloop
  endfacet
  facet normal 0.469473 0.882947 0
    outer loop
      vertex 2.01651 4.13445 10.5
      vertex 2.3 3.98372 3
      vertex 2.01651 4.13445 3
    endloop
  endfacet
  facet normal 0.406737 0.913545 -0
    outer loop
      vertex 2.01651 4.13445 3
      vertex 1.72319 4.26505 10.5
      vertex 2.01651 4.13445 10.5
    endloop
  endfacet
  facet normal 0.406737 0.913545 0
    outer loop
      vertex 1.72319 4.26505 10.5
      vertex 2.01651 4.13445 3
      vertex 1.72319 4.26505 3
    endloop
  endfacet
  facet normal 0.587783 0.809019 -0
    outer loop
      vertex 2.83204 3.62485 3
      vertex 2.57229 3.81357 10.5
      vertex 2.83204 3.62485 10.5
    endloop
  endfacet
  facet normal 0.587783 0.809019 0
    outer loop
      vertex 2.57229 3.81357 10.5
      vertex 2.83204 3.62485 3
      vertex 2.57229 3.81357 3
    endloop
  endfacet
  facet normal -0.788011 0.615662 0
    outer loop
      vertex -3.72148 2.70381 3
      vertex -3.5238 2.95682 10.5
      vertex -3.5238 2.95682 3
    endloop
  endfacet
  facet normal -0.788011 0.615662 0
    outer loop
      vertex -3.5238 2.95682 10.5
      vertex -3.72148 2.70381 3
      vertex -3.72148 2.70381 10.5
    endloop
  endfacet
  facet normal -0.743146 0.66913 0
    outer loop
      vertex -3.5238 2.95682 3
      vertex -3.30896 3.19543 10.5
      vertex -3.30896 3.19543 3
    endloop
  endfacet
  facet normal -0.743146 0.66913 0
    outer loop
      vertex -3.30896 3.19543 10.5
      vertex -3.5238 2.95682 3
      vertex -3.5238 2.95682 10.5
    endloop
  endfacet
  facet normal -0.951056 0.309019 0
    outer loop
      vertex -4.4218 1.26793 3
      vertex -4.32259 1.57329 10.5
      vertex -4.32259 1.57329 3
    endloop
  endfacet
  facet normal -0.951056 0.309019 0
    outer loop
      vertex -4.32259 1.57329 10.5
      vertex -4.4218 1.26793 3
      vertex -4.4218 1.26793 10.5
    endloop
  endfacet
  facet normal -0.927184 0.374605 0
    outer loop
      vertex -4.32259 1.57329 3
      vertex -4.20231 1.87099 10.5
      vertex -4.20231 1.87099 3
    endloop
  endfacet
  facet normal -0.927184 0.374605 0
    outer loop
      vertex -4.20231 1.87099 10.5
      vertex -4.32259 1.57329 3
      vertex -4.32259 1.57329 10.5
    endloop
  endfacet
  facet normal -0.994522 0.104526 0
    outer loop
      vertex -4.58879 0.320879 3
      vertex -4.55523 0.640196 10.5
      vertex -4.55523 0.640196 3
    endloop
  endfacet
  facet normal -0.994522 0.104526 0
    outer loop
      vertex -4.55523 0.640196 10.5
      vertex -4.58879 0.320879 3
      vertex -4.58879 0.320879 10.5
    endloop
  endfacet
  facet normal 0 0 1
    outer loop
      vertex 4.58879 0.320879 10.5
      vertex 4.58879 -0.320879 10.5
      vertex 4.6 0 10.5
    endloop
  endfacet
  facet normal 0 0 1
    outer loop
      vertex 4.55523 0.640196 10.5
      vertex 4.58879 -0.320879 10.5
      vertex 4.58879 0.320879 10.5
    endloop
  endfacet
  facet normal 0 0 1
    outer loop
      vertex 4.55523 0.640196 10.5
      vertex 4.55523 -0.640196 10.5
      vertex 4.58879 -0.320879 10.5
    endloop
  endfacet
  facet normal 0 0 1
    outer loop
      vertex 4.49948 0.956393 10.5
      vertex 4.55523 -0.640196 10.5
      vertex 4.55523 0.640196 10.5
    endloop
  endfacet
  facet normal 0 0 1
    outer loop
      vertex 4.49948 0.956393 10.5
      vertex 4.49948 -0.956393 10.5
      vertex 4.55523 -0.640196 10.5
    endloop
  endfacet
  facet normal 0 0 1
    outer loop
      vertex 4.4218 1.26793 10.5
      vertex 4.49948 -0.956393 10.5
      vertex 4.49948 0.956393 10.5
    endloop
  endfacet
  facet normal 0 0 1
    outer loop
      vertex 4.4218 1.26793 10.5
      vertex 4.4218 -1.26793 10.5
      vertex 4.49948 -0.956393 10.5
    endloop
  endfacet
  facet normal 0 0 1
    outer loop
      vertex 4.32259 1.57329 10.5
      vertex 4.4218 -1.26793 10.5
      vertex 4.4218 1.26793 10.5
    endloop
  endfacet
  facet normal 0 0 1
    outer loop
      vertex 4.32259 1.57329 10.5
      vertex 4.32259 -1.57329 10.5
      vertex 4.4218 -1.26793 10.5
    endloop
  endfacet
  facet normal 0 0 1
    outer loop
      vertex 4.20231 1.87099 10.5
      vertex 4.32259 -1.57329 10.5
      vertex 4.32259 1.57329 10.5
    endloop
  endfacet
  facet normal 0 0 1
    outer loop
      vertex 4.20231 1.87099 10.5
      vertex 4.20231 -1.87099 10.5
      vertex 4.32259 -1.57329 10.5
    endloop
  endfacet
  facet normal 0 0 1
    outer loop
      vertex 4.06156 2.15957 10.5
      vertex 4.20231 -1.87099 10.5
      vertex 4.20231 1.87099 10.5
    endloop
  endfacet
  facet normal 0 0 1
    outer loop
      vertex 4.06156 2.15957 10.5
      vertex 4.06156 -2.15957 10.5
      vertex 4.20231 -1.87099 10.5
    endloop
  endfacet
  facet normal 0 0 1
    outer loop
      vertex 3.90102 2.43763 10.5
      vertex 4.06156 -2.15957 10.5
      vertex 4.06156 2.15957 10.5
    endloop
  endfacet
  facet normal 0 0 1
    outer loop
      vertex 3.90102 2.43763 10.5
      vertex 3.90102 -2.43763 10.5
      vertex 4.06156 -2.15957 10.5
    endloop
  endfacet
  facet normal 0 0 1
    outer loop
      vertex 3.72148 2.70381 10.5
      vertex 3.90102 -2.43763 10.5
      vertex 3.90102 2.43763 10.5
    endloop
  endfacet
  facet normal 0 0 1
    outer loop
      vertex 3.72148 2.70381 10.5
      vertex 3.72148 -2.70381 10.5
      vertex 3.90102 -2.43763 10.5
    endloop
  endfacet
  facet normal 0 0 1
    outer loop
      vertex 3.5238 2.95682 10.5
      vertex 3.72148 -2.70381 10.5
      vertex 3.72148 2.70381 10.5
    endloop
  endfacet
  facet normal 0 0 1
    outer loop
      vertex 3.5238 2.95682 10.5
      vertex 3.5238 -2.95682 10.5
      vertex 3.72148 -2.70381 10.5
    endloop
  endfacet
  facet normal 0 0 1
    outer loop
      vertex 3.30896 3.19543 10.5
      vertex 3.5238 -2.95682 10.5
      vertex 3.5238 2.95682 10.5
    endloop
  endfacet
  facet normal 0 0 1
    outer loop
      vertex 3.30896 3.19543 10.5
      vertex 3.30896 -3.19543 10.5
      vertex 3.5238 -2.95682 10.5
    endloop
  endfacet
  facet normal 0 0 1
    outer loop
      vertex 3.078 3.41847 10.5
      vertex 3.30896 -3.19543 10.5
      vertex 3.30896 3.19543 10.5
    endloop
  endfacet
  facet normal 0 0 1
    outer loop
      vertex 3.078 3.41847 10.5
      vertex 3.078 -3.41847 10.5
      vertex 3.30896 -3.19543 10.5
    endloop
  endfacet
  facet normal 0 0 1
    outer loop
      vertex 2.83204 3.62485 10.5
      vertex 3.078 -3.41847 10.5
      vertex 3.078 3.41847 10.5
    endloop
  endfacet
  facet normal 0 0 1
    outer loop
      vertex 2.83204 3.62485 10.5
      vertex 2.83204 -3.62485 10.5
      vertex 3.078 -3.41847 10.5
    endloop
  endfacet
  facet normal 0 0 1
    outer loop
      vertex 2.57229 3.81357 10.5
      vertex 2.83204 -3.62485 10.5
      vertex 2.83204 3.62485 10.5
    endloop
  endfacet
  facet normal 0 0 1
    outer loop
      vertex 2.57229 3.81357 10.5
      vertex 2.57229 -3.81357 10.5
      vertex 2.83204 -3.62485 10.5
    endloop
  endfacet
  facet normal 0 0 1
    outer loop
      vertex 2.3 3.98372 10.5
      vertex 2.57229 -3.81357 10.5
      vertex 2.57229 3.81357 10.5
    endloop
  endfacet
  facet normal 0 0 1
    outer loop
      vertex 2.3 3.98372 10.5
      vertex 2.3 -3.98372 10.5
      vertex 2.57229 -3.81357 10.5
    endloop
  endfacet
  facet normal 0 0 1
    outer loop
      vertex 2.01651 4.13445 10.5
      vertex 2.3 -3.98372 10.5
      vertex 2.3 3.98372 10.5
    endloop
  endfacet
  facet normal 0 0 1
    outer loop
      vertex 2.01651 4.13445 10.5
      vertex 2.01651 -4.13445 10.5
      vertex 2.3 -3.98372 10.5
    endloop
  endfacet
  facet normal 0 0 1
    outer loop
      vertex 1.72319 4.26505 10.5
      vertex 2.01651 -4.13445 10.5
      vertex 2.01651 4.13445 10.5
    endloop
  endfacet
  facet normal 0 0 1
    outer loop
      vertex 1.72319 4.26505 10.5
      vertex 1.72319 -4.26505 10.5
      vertex 2.01651 -4.13445 10.5
    endloop
  endfacet
  facet normal 0 0 1
    outer loop
      vertex 1.42148 4.37486 10.5
      vertex 1.72319 -4.26505 10.5
      vertex 1.72319 4.26505 10.5
    endloop
  endfacet
  facet normal 0 0 1
    outer loop
      vertex 1.42148 4.37486 10.5
      vertex 1.42148 -4.37486 10.5
      vertex 1.72319 -4.26505 10.5
    endloop
  endfacet
  facet normal 0 0 1
    outer loop
      vertex 1.11284 4.46336 10.5
      vertex 1.42148 -4.37486 10.5
      vertex 1.42148 4.37486 10.5
    endloop
  endfacet
  facet normal 0 0 1
    outer loop
      vertex 1.11284 4.46336 10.5
      vertex 1.11284 -4.46336 10.5
      vertex 1.42148 -4.37486 10.5
    endloop
  endfacet
  facet normal 0 0 1
    outer loop
      vertex 0.798781 4.53012 10.5
      vertex 1.11284 -4.46336 10.5
      vertex 1.11284 4.46336 10.5
    endloop
  endfacet
  facet normal 0 0 1
    outer loop
      vertex 0.798781 4.53012 10.5
      vertex 0.798781 -4.53012 10.5
      vertex 1.11284 -4.46336 10.5
    endloop
  endfacet
  facet normal 0 0 1
    outer loop
      vertex 0.48083 4.5748 10.5
      vertex 0.798781 -4.53012 10.5
      vertex 0.798781 4.53012 10.5
    endloop
  endfacet
  facet normal 0 0 1
    outer loop
      vertex 0.48083 4.5748 10.5
      vertex 0.48083 -4.5748 10.5
      vertex 0.798781 -4.53012 10.5
    endloop
  endfacet
  facet normal 0 0 1
    outer loop
      vertex 0.160537 4.5972 10.5
      vertex 0.48083 -4.5748 10.5
      vertex 0.48083 4.5748 10.5
    endloop
  endfacet
  facet normal 0 0 1
    outer loop
      vertex 0.160537 4.5972 10.5
      vertex 0.160537 -4.5972 10.5
      vertex 0.48083 -4.5748 10.5
    endloop
  endfacet
  facet normal -0 0 1
    outer loop
      vertex -0.160537 4.5972 10.5
      vertex 0.160537 -4.5972 10.5
      vertex 0.160537 4.5972 10.5
    endloop
  endfacet
  facet normal 0 0 1
    outer loop
      vertex -0.160537 4.5972 10.5
      vertex -0.160537 -4.5972 10.5
      vertex 0.160537 -4.5972 10.5
    endloop
  endfacet
  facet normal -0 0 1
    outer loop
      vertex -0.48083 4.5748 10.5
      vertex -0.160537 -4.5972 10.5
      vertex -0.160537 4.5972 10.5
    endloop
  endfacet
  facet normal 0 0 1
    outer loop
      vertex -0.48083 4.5748 10.5
      vertex -0.48083 -4.5748 10.5
      vertex -0.160537 -4.5972 10.5
    endloop
  endfacet
  facet normal -0 0 1
    outer loop
      vertex -0.798781 4.53012 10.5
      vertex -0.48083 -4.5748 10.5
      vertex -0.48083 4.5748 10.5
    endloop
  endfacet
  facet normal 0 0 1
    outer loop
      vertex -0.798781 4.53012 10.5
      vertex -0.798781 -4.53012 10.5
      vertex -0.48083 -4.5748 10.5
    endloop
  endfacet
  facet normal -0 0 1
    outer loop
      vertex -1.11284 4.46336 10.5
      vertex -0.798781 -4.53012 10.5
      vertex -0.798781 4.53012 10.5
    endloop
  endfacet
  facet normal 0 0 1
    outer loop
      vertex -1.11284 4.46336 10.5
      vertex -1.11284 -4.46336 10.5
      vertex -0.798781 -4.53012 10.5
    endloop
  endfacet
  facet normal -0 0 1
    outer loop
      vertex -1.42148 4.37486 10.5
      vertex -1.11284 -4.46336 10.5
      vertex -1.11284 4.46336 10.5
    endloop
  endfacet
  facet normal 0 0 1
    outer loop
      vertex -1.42148 4.37486 10.5
      vertex -1.42148 -4.37486 10.5
      vertex -1.11284 -4.46336 10.5
    endloop
  endfacet
  facet normal -0 0 1
    outer loop
      vertex -1.72319 4.26505 10.5
      vertex -1.42148 -4.37486 10.5
      vertex -1.42148 4.37486 10.5
    endloop
  endfacet
  facet normal 0 0 1
    outer loop
      vertex -1.72319 4.26505 10.5
      vertex -1.72319 -4.26505 10.5
      vertex -1.42148 -4.37486 10.5
    endloop
  endfacet
  facet normal -0 0 1
    outer loop
      vertex -2.01651 4.13445 10.5
      vertex -1.72319 -4.26505 10.5
      vertex -1.72319 4.26505 10.5
    endloop
  endfacet
  facet normal 0 0 1
    outer loop
      vertex -2.01651 4.13445 10.5
      vertex -2.01651 -4.13445 10.5
      vertex -1.72319 -4.26505 10.5
    endloop
  endfacet
  facet normal -0 0 1
    outer loop
      vertex -2.3 3.98372 10.5
      vertex -2.01651 -4.13445 10.5
      vertex -2.01651 4.13445 10.5
    endloop
  endfacet
  facet normal 0 0 1
    outer loop
      vertex -2.3 3.98372 10.5
      vertex -2.3 -3.98372 10.5
      vertex -2.01651 -4.13445 10.5
    endloop
  endfacet
  facet normal -0 0 1
    outer loop
      vertex -2.57229 3.81357 10.5
      vertex -2.3 -3.98372 10.5
      vertex -2.3 3.98372 10.5
    endloop
  endfacet
  facet normal 0 0 1
    outer loop
      vertex -2.57229 3.81357 10.5
      vertex -2.57229 -3.81357 10.5
      vertex -2.3 -3.98372 10.5
    endloop
  endfacet
  facet normal -0 0 1
    outer loop
      vertex -2.83204 3.62485 10.5
      vertex -2.57229 -3.81357 10.5
      vertex -2.57229 3.81357 10.5
    endloop
  endfacet
  facet normal 0 0 1
    outer loop
      vertex -2.83204 3.62485 10.5
      vertex -2.83204 -3.62485 10.5
      vertex -2.57229 -3.81357 10.5
    endloop
  endfacet
  facet normal -0 0 1
    outer loop
      vertex -3.078 3.41847 10.5
      vertex -2.83204 -3.62485 10.5
      vertex -2.83204 3.62485 10.5
    endloop
  endfacet
  facet normal 0 0 1
    outer loop
      vertex -3.078 3.41847 10.5
      vertex -3.078 -3.41847 10.5
      vertex -2.83204 -3.62485 10.5
    endloop
  endfacet
  facet normal -0 0 1
    outer loop
      vertex -3.30896 3.19543 10.5
      vertex -3.078 -3.41847 10.5
      vertex -3.078 3.41847 10.5
    endloop
  endfacet
  facet normal 0 0 1
    outer loop
      vertex -3.30896 3.19543 10.5
      vertex -3.30896 -3.19543 10.5
      vertex -3.078 -3.41847 10.5
    endloop
  endfacet
  facet normal -0 0 1
    outer loop
      vertex -3.5238 2.95682 10.5
      vertex -3.30896 -3.19543 10.5
      vertex -3.30896 3.19543 10.5
    endloop
  endfacet
  facet normal 0 0 1
    outer loop
      vertex -3.5238 2.95682 10.5
      vertex -3.5238 -2.95682 10.5
      vertex -3.30896 -3.19543 10.5
    endloop
  endfacet
  facet normal -0 0 1
    outer loop
      vertex -3.72148 2.70381 10.5
      vertex -3.5238 -2.95682 10.5
      vertex -3.5238 2.95682 10.5
    endloop
  endfacet
  facet normal 0 0 1
    outer loop
      vertex -3.72148 2.70381 10.5
      vertex -3.72148 -2.70381 10.5
      vertex -3.5238 -2.95682 10.5
    endloop
  endfacet
  facet normal -0 0 1
    outer loop
      vertex -3.90102 2.43763 10.5
      vertex -3.72148 -2.70381 10.5
      vertex -3.72148 2.70381 10.5
    endloop
  endfacet
  facet normal 0 0 1
    outer loop
      vertex -3.90102 2.43763 10.5
      vertex -3.90102 -2.43763 10.5
      vertex -3.72148 -2.70381 10.5
    endloop
  endfacet
  facet normal -0 0 1
    outer loop
      vertex -4.06156 2.15957 10.5
      vertex -3.90102 -2.43763 10.5
      vertex -3.90102 2.43763 10.5
    endloop
  endfacet
  facet normal 0 0 1
    outer loop
      vertex -4.06156 2.15957 10.5
      vertex -4.06156 -2.15957 10.5
      vertex -3.90102 -2.43763 10.5
    endloop
  endfacet
  facet normal -0 0 1
    outer loop
      vertex -4.20231 1.87099 10.5
      vertex -4.06156 -2.15957 10.5
      vertex -4.06156 2.15957 10.5
    endloop
  endfacet
  facet normal 0 0 1
    outer loop
      vertex -4.20231 1.87099 10.5
      vertex -4.20231 -1.87099 10.5
      vertex -4.06156 -2.15957 10.5
    endloop
  endfacet
  facet normal -0 0 1
    outer loop
      vertex -4.32259 1.57329 10.5
      vertex -4.20231 -1.87099 10.5
      vertex -4.20231 1.87099 10.5
    endloop
  endfacet
  facet normal 0 0 1
    outer loop
      vertex -4.32259 1.57329 10.5
      vertex -4.32259 -1.57329 10.5
      vertex -4.20231 -1.87099 10.5
    endloop
  endfacet
  facet normal -0 0 1
    outer loop
      vertex -4.4218 1.26793 10.5
      vertex -4.32259 -1.57329 10.5
      vertex -4.32259 1.57329 10.5
    endloop
  endfacet
  facet normal 0 0 1
    outer loop
      vertex -4.4218 1.26793 10.5
      vertex -4.4218 -1.26793 10.5
      vertex -4.32259 -1.57329 10.5
    endloop
  endfacet
  facet normal -0 0 1
    outer loop
      vertex -4.49948 0.956393 10.5
      vertex -4.4218 -1.26793 10.5
      vertex -4.4218 1.26793 10.5
    endloop
  endfacet
  facet normal 0 0 1
    outer loop
      vertex -4.49948 0.956393 10.5
      vertex -4.49948 -0.956393 10.5
      vertex -4.4218 -1.26793 10.5
    endloop
  endfacet
  facet normal -0 0 1
    outer loop
      vertex -4.55523 0.640196 10.5
      vertex -4.49948 -0.956393 10.5
      vertex -4.49948 0.956393 10.5
    endloop
  endfacet
  facet normal 0 0 1
    outer loop
      vertex -4.55523 0.640196 10.5
      vertex -4.55523 -0.640196 10.5
      vertex -4.49948 -0.956393 10.5
    endloop
  endfacet
  facet normal -0 0 1
    outer loop
      vertex -4.58879 0.320879 10.5
      vertex -4.55523 -0.640196 10.5
      vertex -4.55523 0.640196 10.5
    endloop
  endfacet
  facet normal 0 0 1
    outer loop
      vertex -4.58879 0.320879 10.5
      vertex -4.58879 -0.320879 10.5
      vertex -4.55523 -0.640196 10.5
    endloop
  endfacet
  facet normal 0 -0 1
    outer loop
      vertex -4.58879 -0.320879 10.5
      vertex -4.58879 0.320879 10.5
      vertex -4.6 0 10.5
    endloop
  endfacet
  facet normal -0.469473 0.882947 0
    outer loop
      vertex -2.01651 4.13445 3
      vertex -2.3 3.98372 10.5
      vertex -2.01651 4.13445 10.5
    endloop
  endfacet
  facet normal -0.469473 0.882947 0
    outer loop
      vertex -2.3 3.98372 10.5
      vertex -2.01651 4.13445 3
      vertex -2.3 3.98372 3
    endloop
  endfacet
  facet normal -0.642789 0.766043 0
    outer loop
      vertex -2.83204 3.62485 3
      vertex -3.078 3.41847 10.5
      vertex -2.83204 3.62485 10.5
    endloop
  endfacet
  facet normal -0.642789 0.766043 0
    outer loop
      vertex -3.078 3.41847 10.5
      vertex -2.83204 3.62485 3
      vertex -3.078 3.41847 3
    endloop
  endfacet
  facet normal -0.139174 0.990268 0
    outer loop
      vertex -0.48083 4.5748 3
      vertex -0.798781 4.53012 10.5
      vertex -0.48083 4.5748 10.5
    endloop
  endfacet
  facet normal -0.139174 0.990268 0
    outer loop
      vertex -0.798781 4.53012 10.5
      vertex -0.48083 4.5748 3
      vertex -0.798781 4.53012 3
    endloop
  endfacet
  facet normal 0.999391 -0.0349005 0
    outer loop
      vertex 4.58879 -0.320879 10.5
      vertex 4.6 0 3
      vertex 4.6 0 10.5
    endloop
  endfacet
  facet normal 0.999391 -0.0349005 0
    outer loop
      vertex 4.6 0 3
      vertex 4.58879 -0.320879 10.5
      vertex 4.58879 -0.320879 3
    endloop
  endfacet
  facet normal 0.927184 -0.374605 0
    outer loop
      vertex 4.20231 -1.87099 10.5
      vertex 4.32259 -1.57329 3
      vertex 4.32259 -1.57329 10.5
    endloop
  endfacet
  facet normal 0.927184 -0.374605 0
    outer loop
      vertex 4.32259 -1.57329 3
      vertex 4.20231 -1.87099 10.5
      vertex 4.20231 -1.87099 3
    endloop
  endfacet
  facet normal 0.994522 -0.104526 0
    outer loop
      vertex 4.55523 -0.640196 10.5
      vertex 4.58879 -0.320879 3
      vertex 4.58879 -0.320879 10.5
    endloop
  endfacet
  facet normal 0.994522 -0.104526 0
    outer loop
      vertex 4.58879 -0.320879 3
      vertex 4.55523 -0.640196 10.5
      vertex 4.55523 -0.640196 3
    endloop
  endfacet
  facet normal -0.406737 -0.913545 0
    outer loop
      vertex -2.01651 -4.13445 3
      vertex -1.72319 -4.26505 10.5
      vertex -2.01651 -4.13445 10.5
    endloop
  endfacet
  facet normal -0.406737 -0.913545 -0
    outer loop
      vertex -1.72319 -4.26505 10.5
      vertex -2.01651 -4.13445 3
      vertex -1.72319 -4.26505 3
    endloop
  endfacet
  facet normal -0.788011 -0.615662 0
    outer loop
      vertex -3.5238 -2.95682 3
      vertex -3.72148 -2.70381 10.5
      vertex -3.72148 -2.70381 3
    endloop
  endfacet
  facet normal -0.788011 -0.615662 0
    outer loop
      vertex -3.72148 -2.70381 10.5
      vertex -3.5238 -2.95682 3
      vertex -3.5238 -2.95682 10.5
    endloop
  endfacet
  facet normal -0.970296 -0.241921 0
    outer loop
      vertex -4.4218 -1.26793 3
      vertex -4.49948 -0.956393 10.5
      vertex -4.49948 -0.956393 3
    endloop
  endfacet
  facet normal -0.970296 -0.241921 0
    outer loop
      vertex -4.49948 -0.956393 10.5
      vertex -4.4218 -1.26793 3
      vertex -4.4218 -1.26793 10.5
    endloop
  endfacet
  facet normal -0.951056 -0.309019 0
    outer loop
      vertex -4.32259 -1.57329 3
      vertex -4.4218 -1.26793 10.5
      vertex -4.4218 -1.26793 3
    endloop
  endfacet
  facet normal -0.951056 -0.309019 0
    outer loop
      vertex -4.4218 -1.26793 10.5
      vertex -4.32259 -1.57329 3
      vertex -4.32259 -1.57329 10.5
    endloop
  endfacet
  facet normal 0.207912 -0.978148 0
    outer loop
      vertex 0.798781 -4.53012 3
      vertex 1.11284 -4.46336 10.5
      vertex 0.798781 -4.53012 10.5
    endloop
  endfacet
  facet normal 0.207912 -0.978148 0
    outer loop
      vertex 1.11284 -4.46336 10.5
      vertex 0.798781 -4.53012 3
      vertex 1.11284 -4.46336 3
    endloop
  endfacet
  facet normal 0.34202 -0.939693 0
    outer loop
      vertex 1.42148 -4.37486 3
      vertex 1.72319 -4.26505 10.5
      vertex 1.42148 -4.37486 10.5
    endloop
  endfacet
  facet normal 0.34202 -0.939693 0
    outer loop
      vertex 1.72319 -4.26505 10.5
      vertex 1.42148 -4.37486 3
      vertex 1.72319 -4.26505 3
    endloop
  endfacet
  facet normal 0.866025 -0.500001 0
    outer loop
      vertex 3.90102 -2.43763 10.5
      vertex 4.06156 -2.15957 3
      vertex 4.06156 -2.15957 10.5
    endloop
  endfacet
  facet normal 0.866025 -0.500001 0
    outer loop
      vertex 4.06156 -2.15957 3
      vertex 3.90102 -2.43763 10.5
      vertex 3.90102 -2.43763 3
    endloop
  endfacet
  facet normal 0.898795 -0.43837 0
    outer loop
      vertex 4.06156 -2.15957 10.5
      vertex 4.20231 -1.87099 3
      vertex 4.20231 -1.87099 10.5
    endloop
  endfacet
  facet normal 0.898795 -0.43837 0
    outer loop
      vertex 4.20231 -1.87099 3
      vertex 4.06156 -2.15957 10.5
      vertex 4.06156 -2.15957 3
    endloop
  endfacet
  facet normal 0.970296 -0.241921 0
    outer loop
      vertex 4.4218 -1.26793 10.5
      vertex 4.49948 -0.956393 3
      vertex 4.49948 -0.956393 10.5
    endloop
  endfacet
  facet normal 0.970296 -0.241921 0
    outer loop
      vertex 4.49948 -0.956393 3
      vertex 4.4218 -1.26793 10.5
      vertex 4.4218 -1.26793 3
    endloop
  endfacet
  facet normal 0.642789 -0.766043 0
    outer loop
      vertex 2.83204 -3.62485 3
      vertex 3.078 -3.41847 10.5
      vertex 2.83204 -3.62485 10.5
    endloop
  endfacet
  facet normal 0.642789 -0.766043 0
    outer loop
      vertex 3.078 -3.41847 10.5
      vertex 2.83204 -3.62485 3
      vertex 3.078 -3.41847 3
    endloop
  endfacet
  facet normal 0.694658 -0.71934 0
    outer loop
      vertex 3.078 -3.41847 3
      vertex 3.30896 -3.19543 10.5
      vertex 3.078 -3.41847 10.5
    endloop
  endfacet
  facet normal 0.694658 -0.71934 0
    outer loop
      vertex 3.30896 -3.19543 10.5
      vertex 3.078 -3.41847 3
      vertex 3.30896 -3.19543 3
    endloop
  endfacet
  facet normal 0.529919 -0.848048 0
    outer loop
      vertex 2.3 -3.98372 3
      vertex 2.57229 -3.81357 10.5
      vertex 2.3 -3.98372 10.5
    endloop
  endfacet
  facet normal 0.529919 -0.848048 0
    outer loop
      vertex 2.57229 -3.81357 10.5
      vertex 2.3 -3.98372 3
      vertex 2.57229 -3.81357 3
    endloop
  endfacet
  facet normal 0.587783 -0.809019 0
    outer loop
      vertex 2.57229 -3.81357 3
      vertex 2.83204 -3.62485 10.5
      vertex 2.57229 -3.81357 10.5
    endloop
  endfacet
  facet normal 0.587783 -0.809019 0
    outer loop
      vertex 2.83204 -3.62485 10.5
      vertex 2.57229 -3.81357 3
      vertex 2.83204 -3.62485 3
    endloop
  endfacet
  facet normal 0.743146 -0.66913 0
    outer loop
      vertex 3.30896 -3.19543 10.5
      vertex 3.5238 -2.95682 3
      vertex 3.5238 -2.95682 10.5
    endloop
  endfacet
  facet normal 0.743146 -0.66913 0
    outer loop
      vertex 3.5238 -2.95682 3
      vertex 3.30896 -3.19543 10.5
      vertex 3.30896 -3.19543 3
    endloop
  endfacet
  facet normal -0.34202 -0.939693 0
    outer loop
      vertex -1.72319 -4.26505 3
      vertex -1.42148 -4.37486 10.5
      vertex -1.72319 -4.26505 10.5
    endloop
  endfacet
  facet normal -0.34202 -0.939693 -0
    outer loop
      vertex -1.42148 -4.37486 10.5
      vertex -1.72319 -4.26505 3
      vertex -1.42148 -4.37486 3
    endloop
  endfacet
  facet normal -0.139174 -0.990268 0
    outer loop
      vertex -0.798781 -4.53012 3
      vertex -0.48083 -4.5748 10.5
      vertex -0.798781 -4.53012 10.5
    endloop
  endfacet
  facet normal -0.139174 -0.990268 -0
    outer loop
      vertex -0.48083 -4.5748 10.5
      vertex -0.798781 -4.53012 3
      vertex -0.48083 -4.5748 3
    endloop
  endfacet
  facet normal -0.866025 -0.500001 0
    outer loop
      vertex -3.90102 -2.43763 3
      vertex -4.06156 -2.15957 10.5
      vertex -4.06156 -2.15957 3
    endloop
  endfacet
  facet normal -0.866025 -0.500001 0
    outer loop
      vertex -4.06156 -2.15957 10.5
      vertex -3.90102 -2.43763 3
      vertex -3.90102 -2.43763 10.5
    endloop
  endfacet
  facet normal -0.743146 -0.66913 0
    outer loop
      vertex -3.30896 -3.19543 3
      vertex -3.5238 -2.95682 10.5
      vertex -3.5238 -2.95682 3
    endloop
  endfacet
  facet normal -0.743146 -0.66913 0
    outer loop
      vertex -3.5238 -2.95682 10.5
      vertex -3.30896 -3.19543 3
      vertex -3.30896 -3.19543 10.5
    endloop
  endfacet
  facet normal -0.927184 -0.374605 0
    outer loop
      vertex -4.20231 -1.87099 3
      vertex -4.32259 -1.57329 10.5
      vertex -4.32259 -1.57329 3
    endloop
  endfacet
  facet normal -0.927184 -0.374605 0
    outer loop
      vertex -4.32259 -1.57329 10.5
      vertex -4.20231 -1.87099 3
      vertex -4.20231 -1.87099 10.5
    endloop
  endfacet
  facet normal -0.984807 -0.17365 0
    outer loop
      vertex -4.49948 -0.956393 3
      vertex -4.55523 -0.640196 10.5
      vertex -4.55523 -0.640196 3
    endloop
  endfacet
  facet normal -0.984807 -0.17365 0
    outer loop
      vertex -4.55523 -0.640196 10.5
      vertex -4.49948 -0.956393 3
      vertex -4.49948 -0.956393 10.5
    endloop
  endfacet
  facet normal 0.139174 -0.990268 0
    outer loop
      vertex 0.48083 -4.5748 3
      vertex 0.798781 -4.53012 10.5
      vertex 0.48083 -4.5748 10.5
    endloop
  endfacet
  facet normal 0.139174 -0.990268 0
    outer loop
      vertex 0.798781 -4.53012 10.5
      vertex 0.48083 -4.5748 3
      vertex 0.798781 -4.53012 3
    endloop
  endfacet
  facet normal 0.984807 -0.17365 0
    outer loop
      vertex 4.49948 -0.956393 10.5
      vertex 4.55523 -0.640196 3
      vertex 4.55523 -0.640196 10.5
    endloop
  endfacet
  facet normal 0.984807 -0.17365 0
    outer loop
      vertex 4.55523 -0.640196 3
      vertex 4.49948 -0.956393 10.5
      vertex 4.49948 -0.956393 3
    endloop
  endfacet
  facet normal 0.469473 -0.882947 0
    outer loop
      vertex 2.01651 -4.13445 3
      vertex 2.3 -3.98372 10.5
      vertex 2.01651 -4.13445 10.5
    endloop
  endfacet
  facet normal 0.469473 -0.882947 0
    outer loop
      vertex 2.3 -3.98372 10.5
      vertex 2.01651 -4.13445 3
      vertex 2.3 -3.98372 3
    endloop
  endfacet
  facet normal 0.406737 -0.913545 0
    outer loop
      vertex 1.72319 -4.26505 3
      vertex 2.01651 -4.13445 10.5
      vertex 1.72319 -4.26505 10.5
    endloop
  endfacet
  facet normal 0.406737 -0.913545 0
    outer loop
      vertex 2.01651 -4.13445 10.5
      vertex 1.72319 -4.26505 3
      vertex 2.01651 -4.13445 3
    endloop
  endfacet
  facet normal 0.788011 -0.615662 0
    outer loop
      vertex 3.5238 -2.95682 10.5
      vertex 3.72148 -2.70381 3
      vertex 3.72148 -2.70381 10.5
    endloop
  endfacet
  facet normal 0.788011 -0.615662 0
    outer loop
      vertex 3.72148 -2.70381 3
      vertex 3.5238 -2.95682 10.5
      vertex 3.5238 -2.95682 3
    endloop
  endfacet
  facet normal -0.0697563 -0.997564 0
    outer loop
      vertex -0.48083 -4.5748 3
      vertex -0.160537 -4.5972 10.5
      vertex -0.48083 -4.5748 10.5
    endloop
  endfacet
  facet normal -0.0697563 -0.997564 -0
    outer loop
      vertex -0.160537 -4.5972 10.5
      vertex -0.48083 -4.5748 3
      vertex -0.160537 -4.5972 3
    endloop
  endfacet
  facet normal -0.275637 -0.961262 0
    outer loop
      vertex -1.42148 -4.37486 3
      vertex -1.11284 -4.46336 10.5
      vertex -1.42148 -4.37486 10.5
    endloop
  endfacet
  facet normal -0.275637 -0.961262 -0
    outer loop
      vertex -1.11284 -4.46336 10.5
      vertex -1.42148 -4.37486 3
      vertex -1.11284 -4.46336 3
    endloop
  endfacet
  facet normal -0.587783 -0.809019 0
    outer loop
      vertex -2.83204 -3.62485 3
      vertex -2.57229 -3.81357 10.5
      vertex -2.83204 -3.62485 10.5
    endloop
  endfacet
  facet normal -0.587783 -0.809019 -0
    outer loop
      vertex -2.57229 -3.81357 10.5
      vertex -2.83204 -3.62485 3
      vertex -2.57229 -3.81357 3
    endloop
  endfacet
  facet normal -0.529919 -0.848048 0
    outer loop
      vertex -2.57229 -3.81357 3
      vertex -2.3 -3.98372 10.5
      vertex -2.57229 -3.81357 10.5
    endloop
  endfacet
  facet normal -0.529919 -0.848048 -0
    outer loop
      vertex -2.3 -3.98372 10.5
      vertex -2.57229 -3.81357 3
      vertex -2.3 -3.98372 3
    endloop
  endfacet
  facet normal -0.994522 -0.104526 0
    outer loop
      vertex -4.55523 -0.640196 3
      vertex -4.58879 -0.320879 10.5
      vertex -4.58879 -0.320879 3
    endloop
  endfacet
  facet normal -0.994522 -0.104526 0
    outer loop
      vertex -4.58879 -0.320879 10.5
      vertex -4.55523 -0.640196 3
      vertex -4.55523 -0.640196 10.5
    endloop
  endfacet
  facet normal -0.999391 -0.0349005 0
    outer loop
      vertex -4.58879 -0.320879 3
      vertex -4.6 0 10.5
      vertex -4.6 0 3
    endloop
  endfacet
  facet normal -0.999391 -0.0349005 0
    outer loop
      vertex -4.6 0 10.5
      vertex -4.58879 -0.320879 3
      vertex -4.58879 -0.320879 10.5
    endloop
  endfacet
  facet normal -0.207912 -0.978148 0
    outer loop
      vertex -1.11284 -4.46336 3
      vertex -0.798781 -4.53012 10.5
      vertex -1.11284 -4.46336 10.5
    endloop
  endfacet
  facet normal -0.207912 -0.978148 -0
    outer loop
      vertex -0.798781 -4.53012 10.5
      vertex -1.11284 -4.46336 3
      vertex -0.798781 -4.53012 3
    endloop
  endfacet
  facet normal -0.642789 -0.766043 0
    outer loop
      vertex -3.078 -3.41847 3
      vertex -2.83204 -3.62485 10.5
      vertex -3.078 -3.41847 10.5
    endloop
  endfacet
  facet normal -0.642789 -0.766043 -0
    outer loop
      vertex -2.83204 -3.62485 10.5
      vertex -3.078 -3.41847 3
      vertex -2.83204 -3.62485 3
    endloop
  endfacet
  facet normal -0.469473 -0.882947 0
    outer loop
      vertex -2.3 -3.98372 3
      vertex -2.01651 -4.13445 10.5
      vertex -2.3 -3.98372 10.5
    endloop
  endfacet
  facet normal -0.469473 -0.882947 -0
    outer loop
      vertex -2.01651 -4.13445 10.5
      vertex -2.3 -3.98372 3
      vertex -2.01651 -4.13445 3
    endloop
  endfacet
endsolid OpenSCAD_Model
