solid OpenSCAD_Model
  facet normal -1 0 0
    outer loop
      vertex 10 46.5 -50
      vertex 10 61.5 50
      vertex 10 61.5 -50
    endloop
  endfacet
  facet normal -1 -0 0
    outer loop
      vertex 10 61.5 50
      vertex 10 46.5 -50
      vertex 10 46.5 50
    endloop
  endfacet
  facet normal -0 0 1
    outer loop
      vertex 10 61.5 50
      vertex 50 46.5 50
      vertex 50 61.5 50
    endloop
  endfacet
  facet normal 0 0 1
    outer loop
      vertex 50 46.5 50
      vertex 10 61.5 50
      vertex 10 46.5 50
    endloop
  endfacet
  facet normal 1 -0 0
    outer loop
      vertex 50 46.5 50
      vertex 50 61.5 -50
      vertex 50 61.5 50
    endloop
  endfacet
  facet normal 1 0 0
    outer loop
      vertex 50 61.5 -50
      vertex 50 46.5 50
      vertex 50 46.5 -50
    endloop
  endfacet
  facet normal 0 0 -1
    outer loop
      vertex 10 46.5 -50
      vertex 50 61.5 -50
      vertex 50 46.5 -50
    endloop
  endfacet
  facet normal -0 0 -1
    outer loop
      vertex 50 61.5 -50
      vertex 10 46.5 -50
      vertex 10 61.5 -50
    endloop
  endfacet
  facet normal 0 -1 0
    outer loop
      vertex 10 46.5 -50
      vertex 50 46.5 50
      vertex 10 46.5 50
    endloop
  endfacet
  facet normal 0 -1 -0
    outer loop
      vertex 50 46.5 50
      vertex 10 46.5 -50
      vertex 50 46.5 -50
    endloop
  endfacet
  facet normal 0 1 -0
    outer loop
      vertex 50 61.5 -50
      vertex 10 61.5 50
      vertex 50 61.5 50
    endloop
  endfacet
  facet normal 0 1 0
    outer loop
      vertex 10 61.5 50
      vertex 50 61.5 -50
      vertex 10 61.5 -50
    endloop
  endfacet
  facet normal 0 0 1
    outer loop
      vertex 5.71058 39.0705 50
      vertex 12.7202 -3.07051 50
      vertex 25.7106 4.42949 50
    endloop
  endfacet
  facet normal 0 0 1
    outer loop
      vertex 12.7202 -3.07051 50
      vertex 5.71058 39.0705 50
      vertex -7.2798 31.5705 50
    endloop
  endfacet
  facet normal -0.5 0.866025 0
    outer loop
      vertex 5.71058 39.0705 -50
      vertex -7.2798 31.5705 50
      vertex 5.71058 39.0705 50
    endloop
  endfacet
  facet normal -0.5 0.866025 0
    outer loop
      vertex -7.2798 31.5705 50
      vertex 5.71058 39.0705 -50
      vertex -7.2798 31.5705 -50
    endloop
  endfacet
  facet normal 0.866025 0.5 0
    outer loop
      vertex 25.7106 4.42949 50
      vertex 5.71058 39.0705 -50
      vertex 5.71058 39.0705 50
    endloop
  endfacet
  facet normal 0.866025 0.5 0
    outer loop
      vertex 5.71058 39.0705 -50
      vertex 25.7106 4.42949 50
      vertex 25.7106 4.42949 -50
    endloop
  endfacet
  facet normal 0.5 -0.866025 0
    outer loop
      vertex 12.7202 -3.07051 -50
      vertex 25.7106 4.42949 50
      vertex 12.7202 -3.07051 50
    endloop
  endfacet
  facet normal 0.5 -0.866025 0
    outer loop
      vertex 25.7106 4.42949 50
      vertex 12.7202 -3.07051 -50
      vertex 25.7106 4.42949 -50
    endloop
  endfacet
  facet normal 0 0 -1
    outer loop
      vertex 12.7202 -3.07051 -50
      vertex 5.71058 39.0705 -50
      vertex 25.7106 4.42949 -50
    endloop
  endfacet
  facet normal 0 -0 -1
    outer loop
      vertex 5.71058 39.0705 -50
      vertex 12.7202 -3.07051 -50
      vertex -7.2798 31.5705 -50
    endloop
  endfacet
  facet normal -0.866025 -0.5 0
    outer loop
      vertex 12.7202 -3.07051 -50
      vertex -7.2798 31.5705 50
      vertex -7.2798 31.5705 -50
    endloop
  endfacet
  facet normal -0.866025 -0.5 0
    outer loop
      vertex -7.2798 31.5705 50
      vertex 12.7202 -3.07051 -50
      vertex 12.7202 -3.07051 50
    endloop
  endfacet
  facet normal 0 0 1
    outer loop
      vertex 54.2894 39.0705 50
      vertex 47.2798 -3.07051 50
      vertex 67.2798 31.5705 50
    endloop
  endfacet
  facet normal 0 -0 1
    outer loop
      vertex 47.2798 -3.07051 50
      vertex 54.2894 39.0705 50
      vertex 34.2894 4.42949 50
    endloop
  endfacet
  facet normal 0.5 0.866025 -0
    outer loop
      vertex 67.2798 31.5705 -50
      vertex 54.2894 39.0705 50
      vertex 67.2798 31.5705 50
    endloop
  endfacet
  facet normal 0.5 0.866025 0
    outer loop
      vertex 54.2894 39.0705 50
      vertex 67.2798 31.5705 -50
      vertex 54.2894 39.0705 -50
    endloop
  endfacet
  facet normal -0.5 -0.866025 0
    outer loop
      vertex 34.2894 4.42949 -50
      vertex 47.2798 -3.07051 50
      vertex 34.2894 4.42949 50
    endloop
  endfacet
  facet normal -0.5 -0.866025 -0
    outer loop
      vertex 47.2798 -3.07051 50
      vertex 34.2894 4.42949 -50
      vertex 47.2798 -3.07051 -50
    endloop
  endfacet
  facet normal -0.866025 0.5 0
    outer loop
      vertex 34.2894 4.42949 -50
      vertex 54.2894 39.0705 50
      vertex 54.2894 39.0705 -50
    endloop
  endfacet
  facet normal -0.866025 0.5 0
    outer loop
      vertex 54.2894 39.0705 50
      vertex 34.2894 4.42949 -50
      vertex 34.2894 4.42949 50
    endloop
  endfacet
  facet normal 0 0 -1
    outer loop
      vertex 47.2798 -3.07051 -50
      vertex 54.2894 39.0705 -50
      vertex 67.2798 31.5705 -50
    endloop
  endfacet
  facet normal 0 0 -1
    outer loop
      vertex 54.2894 39.0705 -50
      vertex 47.2798 -3.07051 -50
      vertex 34.2894 4.42949 -50
    endloop
  endfacet
  facet normal 0.866025 -0.5 0
    outer loop
      vertex 47.2798 -3.07051 50
      vertex 67.2798 31.5705 -50
      vertex 67.2798 31.5705 50
    endloop
  endfacet
  facet normal 0.866025 -0.5 0
    outer loop
      vertex 67.2798 31.5705 -50
      vertex 47.2798 -3.07051 50
      vertex 47.2798 -3.07051 -50
    endloop
  endfacet
endsolid OpenSCAD_Model
