<?xml version="1.0" standalone="no"?>
<!DOCTYPE svg PUBLIC "-//W3C//DTD SVG 1.1//EN" "http://www.w3.org/Graphics/SVG/1.1/DTD/svg11.dtd">
<svg width="111mm" height="111mm" viewBox="-54 -52 111 111" xmlns="http://www.w3.org/2000/svg" version="1.1">
<title>OpenSCAD Model</title>
<path d="
M 41.5625,58.2145 L 55.7047,44.0724 L 56.3394,43.3559 L 56.5685,42.4264 L 56.3394,41.4969 L 55.7047,40.7804
 L 42.2088,27.2846 L 43.0722,25.9294 L 45.0863,22.0603 L 46.7555,18.0304 L 48.0672,13.8704 L 48.2963,12.9409
 L 49.2404,8.6824 L 49.8097,4.35777 L 50,-0 L 49.8097,-4.35777 L 49.2404,-8.6824 L 48.2963,-12.9409
 L 48.0672,-13.8704 L 46.7555,-18.0304 L 45.0863,-22.0603 L 43.0722,-25.9294 L 40.7285,-29.6083 L 38.0731,-33.0688
 L 37.4384,-33.7853 L 34.4915,-37.0013 L 31.2755,-39.9482 L 27.8149,-42.6036 L 24.1361,-44.9472 L 20.267,-46.9613
 L 16.2371,-48.6306 L 15.3421,-48.97 L 11.182,-50.2817 L 6.92348,-51.2258 L 2.59886,-51.7952 L -1.75893,-51.9854
 L -6.11671,-51.7952 L -7.06699,-51.6798 L -11.3916,-51.1104 L -15.6502,-50.1663 L -19.8102,-48.8547 L -23.8401,-47.1854
 L -27.7092,-45.1713 L -31.388,-42.8276 L -32.1758,-42.2838 L -35.6364,-39.6285 L -38.8524,-36.6816 L -41.7992,-33.4656
 L -44.4546,-30.0051 L -46.7983,-26.3262 L -47.2431,-25.4786 L -49.2573,-21.6095 L -50.9265,-17.5796 L -52.2382,-13.4196
 L -53.1823,-9.16103 L -53.7516,-4.83641 L -53.9419,-0.478622 L -53.9419,0.478622 L -53.7516,4.83641 L -53.1823,9.16103
 L -52.2382,13.4196 L -50.9265,17.5796 L -49.2573,21.6095 L -47.2431,25.4786 L -46.7983,26.3262 L -44.4546,30.0051
 L -41.7992,33.4656 L -38.8524,36.6816 L -35.6364,39.6285 L -32.1758,42.2838 L -31.388,42.8276 L -27.7092,45.1713
 L -23.8401,47.1854 L -19.8102,48.8547 L -15.6502,50.1663 L -11.3916,51.1104 L -7.06699,51.6798 L -6.11671,51.7952
 L -1.75893,51.9854 L 2.59886,51.7952 L 6.92348,51.2258 L 11.182,50.2817 L 15.3421,48.97 L 16.2371,48.6306
 L 20.267,46.9613 L 24.1361,44.9472 L 25.2636,44.229 L 38.9294,57.8948 L 39.7172,58.4386 L 40.6675,58.554
 z
M 15.7629,5.68462 L 15.7133,5.64813 L 15.6672,5.61403 L 15.6242,5.58206 L 15.584,5.55205 L 15.5462,5.52376
 L 15.4443,5.44714 L 15.4129,5.42366 L 15.3824,5.40085 L 15.3522,5.37851 L 15.3222,5.35641 L 15.2919,5.33435
 L 15.261,5.31213 L 15.2293,5.28954 L 15.1962,5.26633 L 15.1616,5.24234 L 15.125,5.21732 L 15.0862,5.19109
 L 15.0448,5.16342 L 15.0005,5.13409 L 14.9529,5.10292 L 14.9017,5.06967 L 14.8465,5.03415 L 14.787,4.99614
 L 14.723,4.95541 L 14.654,4.91179 L 14.5797,4.86504 L 14.4998,4.81494 L 14.4139,4.76131 L 13.871,4.4234
 L 13.3356,4.09207 L 12.8069,3.76823 L 12.2842,3.45273 L 11.7668,3.14647 L 11.2539,2.85033 L 10.7447,2.56517
 L 10.2386,2.2919 L 9.73476,2.03139 L 9.23244,1.78452 L 8.73091,1.55215 L 8.22942,1.33522 L 7.72723,1.13455
 L 7.2236,0.95105 L 6.71779,0.785599 L 6.20905,0.639069 L 5.69662,0.51236 L 5.17979,0.406342 L 4.65779,0.321884
 L 4.12988,0.259872 L 3.59532,0.221207 L 3.05338,0.206757 L 2.50328,0.217392 L 1.94431,0.254013 L 1.37572,0.31749
 L 0.796753,0.408707 L 0.206665,0.528534 L -0.395248,0.677872 L -1.0098,0.85759 L -1.63768,1.06857 L -3.19228,1.57668
 L -4.71606,1.98262 L -6.20792,2.29205 L -7.66664,2.51064 L -9.09108,2.64401 L -10.4801,2.69786 L -11.8324,2.67783
 L -13.147,2.58957 L -14.4227,2.43875 L -15.6582,2.23102 L -16.8524,1.97205 L -18.0042,1.66748 L -19.1124,1.32297
 L -20.1758,0.944183 L -21.1933,0.536774 L -22.1636,0.1064 L -23.0857,-0.341263 L -23.9583,-0.800583 L -24.7803,-1.2659
 L -25.5506,-1.73155 L -26.2679,-2.19188 L -26.9311,-2.64124 L -27.539,-3.07394 L -28.0905,-3.48436 L -28.5844,-3.86684
 L -29.0195,-4.21568 L -29.3946,-4.52528 L -29.7087,-4.78995 L -29.9605,-5.00403 L -30.1489,-5.16188 L -30.1526,-5.18359
 L -30.1563,-5.20471 L -30.1602,-5.22528 L -30.1641,-5.24536 L -30.1681,-5.26497 L -30.1721,-5.28415 L -30.1761,-5.30296
 L -30.1879,-5.35754 L -30.1916,-5.37527 L -30.1953,-5.39284 L -30.1989,-5.41028 L -30.2023,-5.42764 L -30.2055,-5.44498
 L -30.2086,-5.46231 L -30.2114,-5.47969 L -30.214,-5.49718 L -30.2164,-5.51479 L -30.2185,-5.53258 L -30.2203,-5.55058
 L -30.2218,-5.56885 L -30.2229,-5.58743 L -30.2237,-5.60635 L -30.2241,-5.62567 L -30.2242,-5.64543 L -30.2238,-5.66565
 L -30.2229,-5.6864 L -30.2216,-5.7077 L -30.2199,-5.72961 L -30.1415,-6.48718 L -30.0444,-7.23781 L -29.9289,-7.98138
 L -29.7954,-8.7178 L -29.6444,-9.44699 L -29.4762,-10.1688 L -29.2912,-10.8833 L -29.0899,-11.5901 L -28.8727,-12.2894
 L -28.6399,-12.9809 L -28.392,-13.6646 L -28.1294,-14.3403 L -27.8525,-15.008 L -27.5617,-15.6676 L -27.2574,-16.319
 L -26.94,-16.962 L -26.6098,-17.5967 L -26.2675,-18.2228 L -25.9132,-18.8403 L -25.5475,-19.4491 L -25.1707,-20.0491
 L -24.7832,-20.6401 L -24.3855,-21.2222 L -23.978,-21.7952 L -23.561,-22.3589 L -23.135,-22.9134 L -22.7003,-23.4585
 L -22.2575,-23.994 L -21.8068,-24.52 L -21.3487,-25.0363 L -21.2949,-24.9729 L -21.2429,-24.9107 L -21.1927,-24.8496
 L -21.144,-24.7896 L -21.0966,-24.7307 L -21.0505,-24.6727 L -21.0053,-24.6158 L -20.9175,-24.5046 L -20.8744,-24.4503
 L -20.8316,-24.3967 L -20.7891,-24.3439 L -20.7465,-24.2919 L -20.7037,-24.2405 L -20.6607,-24.1897 L -20.6171,-24.1395
 L -20.5728,-24.0898 L -20.5276,-24.0406 L -20.4815,-23.9919 L -20.4341,-23.9436 L -20.3854,-23.8957 L -20.3351,-23.8481
 L -20.2832,-23.8007 L -20.2293,-23.7536 L -20.1734,-23.7068 L -20.1153,-23.66 L -20.0548,-23.6134 L -19.9917,-23.5668
 L -19.9259,-23.5203 L -19.8572,-23.4738 L -19.2018,-23.0531 L -18.5424,-22.6575 L -17.879,-22.2866 L -17.2116,-21.9402
 L -16.5402,-21.618 L -15.8648,-21.3198 L -15.1854,-21.0453 L -14.502,-20.7942 L -13.8145,-20.5663 L -13.123,-20.3614
 L -12.4276,-20.179 L -11.728,-20.0191 L -11.0244,-19.8813 L -10.3168,-19.7654 L -9.60516,-19.6711 L -8.88947,-19.5982
 L -8.16971,-19.5464 L -7.44591,-19.5153 L -6.71805,-19.5049 L -5.98611,-19.5147 L -5.25012,-19.5446 L -4.51006,-19.5943
 L -3.76591,-19.6635 L -3.0177,-19.752 L -2.2654,-19.8595 L -1.50902,-19.9857 L -0.74855,-20.1304 L 0.0160065,-20.2933
 L 0.784668,-20.4742 L 1.55743,-20.6728 L 2.06126,-20.8179 L 2.56436,-20.9817 L 3.067,-21.1621 L 3.56943,-21.3569
 L 4.07188,-21.5638 L 4.57466,-21.7806 L 5.07797,-22.0052 L 5.58211,-22.2353 L 6.08731,-22.4687 L 6.59383,-22.7032
 L 7.10193,-22.9365 L 7.61186,-23.1666 L 8.12387,-23.3912 L 8.63824,-23.608 L 9.1552,-23.8148 L 9.67502,-24.0096
 L 10.198,-24.19 L 10.7243,-24.3538 L 11.2542,-24.4988 L 11.788,-24.6229 L 12.3259,-24.7238 L 12.8682,-24.7993
 L 13.4152,-24.8471 L 13.9671,-24.8652 L 14.5241,-24.8513 L 15.0865,-24.8031 L 15.6546,-24.7185 L 16.2287,-24.5952
 L 16.8089,-24.4311 L 17.3955,-24.2239 L 17.7716,-24.0729 L 18.1335,-23.9179 L 18.4822,-23.7588 L 18.8186,-23.5955
 L 19.1438,-23.4279 L 19.4586,-23.2557 L 19.764,-23.079 L 20.061,-22.8974 L 20.3505,-22.7109 L 20.6336,-22.5194
 L 20.9112,-22.3226 L 21.1841,-22.1205 L 21.4535,-21.9129 L 21.7203,-21.6996 L 21.9854,-21.4806 L 22.2497,-21.2557
 L 22.5143,-21.0247 L 22.7802,-20.7875 L 23.0482,-20.544 L 23.3193,-20.294 L 23.5946,-20.0373 L 23.8749,-19.7739
 L 24.1613,-19.5036 L 24.4546,-19.2262 L 24.7559,-18.9416 L 25.0661,-18.6497 L 25.3862,-18.3503 L 25.7171,-18.0432
 L 26.0599,-17.7284 L 26.4154,-17.4057 L 27.6228,-16.6955 L 12.7093,24.5767 L 10.7917,25.642 L 9.01572,26.1392
 z
M -1.70407,30.4034 L -1.73851,30.4031 L -1.77295,30.4026 L -1.80746,30.4019 L -1.84213,30.401 L -1.87706,30.3998
 L -1.91231,30.3985 L -1.94797,30.3969 L -1.98413,30.3951 L -2.02087,30.3931 L -2.05829,30.3908 L -2.09644,30.3883
 L -2.13542,30.3855 L -2.17534,30.3825 L -2.21625,30.3792 L -2.25824,30.3756 L -2.30139,30.3717 L -2.37837,30.3644
 L -2.45323,30.357 L -2.52614,30.3493 L -2.59721,30.3414 L -2.66661,30.3331 L -2.73447,30.3246 L -2.80092,30.3157
 L -2.86612,30.3064 L -2.93019,30.2967 L -2.9933,30.2866 L -3.05556,30.276 L -3.11713,30.2649 L -3.17813,30.2533
 L -3.23872,30.2411 L -3.29904,30.2283 L -3.35922,30.2149 L -3.41942,30.2009 L -3.47975,30.1861 L -3.54037,30.1707
 L -3.60143,30.1545 L -3.66306,30.1376 L -3.72539,30.1199 L -3.78857,30.1013 L -3.85275,30.0818 L -3.91806,30.0615
 L -3.98463,30.0403 L -4.05263,30.0181 L -4.12218,29.9949 L -4.19342,29.9708 L -4.26651,29.9456 L 0.26738,16.5343
 L -0.443268,16.0367 L -0.70137,15.9378 L -0.950699,15.8402 L -1.19209,15.7442 L -1.42639,15.65 L -1.6544,15.558
 L -1.877,15.4685 L -2.09497,15.3818 L -2.30919,15.2981 L -2.52048,15.2178 L -2.72966,15.1411 L -2.93758,15.0683
 L -3.14508,14.9999 L -3.35298,14.9359 L -3.56212,14.8768 L -3.77335,14.8228 L -3.98747,14.7742 L -4.20534,14.7314
 L -4.4278,14.6945 L -4.65565,14.664 L -4.88977,14.6401 L -5.13097,14.6231 L -5.38008,14.6133 L -5.63794,14.611
 L -5.9054,14.6165 L -6.18327,14.6301 L -6.4724,14.6521 L -6.77362,14.6827 L -7.08777,14.7224 L -7.41566,14.7712
 L -7.75816,14.8297 L -8.51123,14.9485 L -9.27773,15.0353 L -10.0558,15.0902 L -10.8435,15.1133 L -11.6391,15.1047
 L -12.4406,15.0647 L -13.2462,14.9934 L -14.0541,14.891 L -14.8623,14.7575 L -15.669,14.5932 L -16.4723,14.3983
 L -17.2704,14.1728 L -18.0614,13.9169 L -18.8434,13.6308 L -19.6146,13.3146 L -20.373,12.9685 L -21.1169,12.5926
 L -21.8444,12.1871 L -22.5536,11.7522 L -23.2426,11.288 L -23.9096,10.7947 L -24.5527,10.2723 L -25.17,9.72115
 L -25.7597,9.1413 L -26.3199,8.53291 L -26.8487,7.89615 L -27.3443,7.23119 L -27.8048,6.53815 L -28.2284,5.81721
 L -28.6131,5.06851 L -28.6901,4.90804 L -28.7648,4.75304 L -28.8372,4.60315 L -28.9075,4.45795 L -28.9756,4.31705
 L -29.0416,4.18004 L -29.1055,4.04654 L -29.1674,3.91614 L -29.2272,3.78845 L -29.2852,3.66307 L -29.3411,3.53961
 L -29.3952,3.41765 L -29.4475,3.29681 L -29.4979,3.17668 L -29.5466,3.05687 L -29.5936,2.93698 L -29.6388,2.81662
 L -29.6824,2.69537 L -29.7244,2.57286 L -29.7648,2.44868 L -29.8037,2.32242 L -29.8411,2.1937 L -29.877,2.06212
 L -29.9115,1.92726 L -29.9446,1.78874 L -29.9764,1.64618 L -30.0069,1.49915 L -30.0361,1.34726 L -30.064,1.19011
 L -30.0908,1.02733 L -30.1014,0.960022 L -30.1114,0.894516 L -30.121,0.830688 L -30.1302,0.768387 L -30.1388,0.707504
 L -30.1471,0.647888 L -30.1549,0.589432 L -30.1622,0.531998 L -30.1692,0.475433 L -30.1757,0.419632 L -30.1818,0.364456
 L -30.1876,0.309784 L -30.1929,0.255463 L -30.1979,0.201385 L -30.2025,0.1474 L -30.2067,0.0933838 L -30.2106,0.0392151
 L -30.2142,-0.015213 L -30.2174,-0.0700989 L -30.2202,-0.125534 L -30.2228,-0.181641 L -30.2251,-0.238571 L -30.227,-0.296432
 L -30.2287,-0.355377 L -30.23,-0.415527 L -30.2311,-0.477005 L -30.2319,-0.539963 L -30.2325,-0.604507 L -30.2328,-0.670776
 L -30.2329,-0.738892 L -29.5153,-0.154968 L -28.7966,0.408997 L -28.0763,0.952652 L -27.3537,1.47559 L -26.6283,1.97742
 L -25.8996,2.45773 L -25.1668,2.91618 L -24.4296,3.35233 L -23.6872,3.76581 L -22.9391,4.15623 L -22.1849,4.52321
 L -21.4238,4.86633 L -20.6554,5.18521 L -19.879,5.47948 L -19.0941,5.74873 L -18.3001,5.99258 L -17.4965,6.21063
 L -16.6826,6.40248 L -15.858,6.56776 L -15.022,6.70609 L -14.174,6.81703 L -13.3136,6.90024 L -12.44,6.95531
 L -11.5529,6.98184 L -10.6515,6.97946 L -9.73537,6.94777 L -8.80388,6.88637 L -7.85645,6.79488 L -6.89255,6.6729
 L -5.91158,6.52005 L -5.45204,6.43567 L -5.00307,6.34164 L -4.56395,6.23926 L -4.13399,6.12981 L -3.71251,6.01457
 L -3.29883,5.89484 L -2.89223,5.77193 L -2.49203,5.64708 L -2.09755,5.52164 L -1.7081,5.39685 L -1.32297,5.27403
 L -0.941483,5.15446 L -0.562943,5.03944 L -0.186646,4.93024 L 0.188049,4.82816 L 0.56189,4.7345 L 0.935547,4.65053
 L 1.30971,4.57755 L 1.68507,4.51685 L 2.06233,4.46973 L 2.44217,4.43745 L 2.82527,4.42134 L 3.21234,4.42265
 L 3.60406,4.4427 L 4.00113,4.48277 L 4.40422,4.54416 L 4.81406,4.62814 L 5.23129,4.73601 L 5.65666,4.86905
 L 6.09081,5.02856 L 6.15555,5.05423 L 6.21846,5.07935 L 6.27966,5.10397 L 6.33928,5.1282 L 6.39743,5.15205
 L 6.45422,5.17563 L 6.5098,5.19896 L 6.56425,5.22211 L 6.61774,5.24515 L 6.67033,5.26813 L 6.7222,5.29111
 L 6.77342,5.31416 L 6.82414,5.33734 L 6.87448,5.36072 L 6.92455,5.38432 L 6.97446,5.40825 L 7.02434,5.43254
 L 7.07431,5.45726 L 7.1245,5.48248 L 7.17502,5.50824 L 7.22598,5.53461 L 7.27753,5.56165 L 7.32976,5.58942
 L 7.3828,5.61798 L 7.43677,5.6474 L 7.49179,5.67773 L 7.54797,5.70903 L 7.60545,5.74136 L 7.66435,5.7748
 L 7.72478,5.80939 L -1.17436,30.3908 L -1.21768,30.3925 L -1.25983,30.3942 L -1.30087,30.3957 L -1.34091,30.3972
 L -1.38002,30.3984 L -1.41829,30.3996 L -1.4558,30.4006 L -1.49261,30.4015 L -1.52885,30.4022 L -1.56459,30.4028
 L -1.59988,30.4032 L -1.63484,30.4034 L -1.66954,30.4035 z
" stroke="black" fill="lightgray" stroke-width="0.5"/>
</svg>
