<?xml version="1.0" encoding="UTF-8" standalone="no"?>
<!-- Created with Inkscape (http://www.inkscape.org/) -->

<svg
   xmlns:dc="http://purl.org/dc/elements/1.1/"
   xmlns:cc="http://creativecommons.org/ns#"
   xmlns:rdf="http://www.w3.org/1999/02/22-rdf-syntax-ns#"
   xmlns:svg="http://www.w3.org/2000/svg"
   xmlns="http://www.w3.org/2000/svg"
   xmlns:sodipodi="http://sodipodi.sourceforge.net/DTD/sodipodi-0.dtd"
   xmlns:inkscape="http://www.inkscape.org/namespaces/inkscape"
   version="1.1"
   width="367.35001"
   height="367.35001"
   id="svg2"
   xml:space="preserve"
   sodipodi:docname="antifa_stencil.svg"
   inkscape:version="0.92.4 (unknown)"><metadata
     id="metadata34"><rdf:RDF><cc:Work
         rdf:about=""><dc:format>image/svg+xml</dc:format><dc:type
           rdf:resource="http://purl.org/dc/dcmitype/StillImage" /><dc:title></dc:title></cc:Work></rdf:RDF></metadata><sodipodi:namedview
     pagecolor="#ffffff"
     bordercolor="#666666"
     borderopacity="1"
     objecttolerance="10"
     gridtolerance="10"
     guidetolerance="10"
     inkscape:pageopacity="0"
     inkscape:pageshadow="2"
     inkscape:window-width="1109"
     inkscape:window-height="966"
     id="namedview32"
     showgrid="false"
     inkscape:zoom="2.7058663"
     inkscape:cx="183.675"
     inkscape:cy="176.61939"
     inkscape:window-x="0"
     inkscape:window-y="0"
     inkscape:window-maximized="0"
     inkscape:current-layer="svg2" /><defs
     id="defs6" /><path
     style="color:#000000;font-style:normal;font-variant:normal;font-weight:normal;font-stretch:normal;font-size:medium;line-height:normal;font-family:'Bitstream Vera Sans';-inkscape-font-specification:'Bitstream Vera Sans';text-indent:0;text-align:start;text-decoration:none;text-decoration-line:none;letter-spacing:normal;word-spacing:normal;text-transform:none;writing-mode:lr-tb;direction:ltr;text-anchor:start;display:inline;overflow:visible;visibility:visible;fill:#231f20;fill-opacity:1;stroke:none;stroke-width:40.74795151;marker:none;enable-background:accumulate"
     d="M 184.04492,3.9042969 C 85.291766,3.9042969 4.8007812,84.399679 4.8007812,183.1543 c 10e-8,98.75423 80.4910538,179.24609 179.2441388,179.24609 98.75451,0 179.25,-80.49188 179.25,-179.24609 0,-98.754591 -80.49542,-179.2500031 -179.25,-179.2500031 z M 89.740661,73.515459 c 2.4123,2.8155 3.4734,4.826 6.5625,6.875 28.750049,19.061997 60.132609,21.447221 94.224609,12.324217 22.188,-5.9385 43.73,-25.719998 69.6875,-15.624998 16.875,6.5625 23.75,15.625498 39.6875,30.000002 l 5.3125,3.125 -65.61914,181.59766 -8.4375,4.6875 -7.81445,2.1875 29.6875,-90 c -2.262,-1.6599 -2.02055,-1.62155 -5.93555,-4.0625 -24.063,-15.0003 -42.69545,-26.23205 -70.62695,-16.24805 -69.0621,24.6873 -118.573822,-21.78906 -125.449222,-27.41406 -0.15945,-0.969 -0.401,-1.52005 -0.3125,-2.49805 3.02865,-33.4845 18.720503,-62.447724 39.033203,-84.949221 z M 50.650391,180.42383 c 31.55625,26.1255 63.467319,39.34975 107.013669,31.93945 20.4615,-3.4815 33.50405,-14.1825 52.81055,-6.5625 2.8905,1.1415 4.49545,1.88755 7.18945,3.43555 l -39.15625,108.1582 c -1.9335,0.0796 -3.03298,0.0924 -4.95898,-0.084 -3.435,-0.31515 -5.38849,-0.74235 -8.64649,-1.875 l 19.94922,-59.00977 -3.12695,-2.18945 c -11.562,-4.3746 -16.78235,-8.09785 -32.18555,-5.31055 -32.8125,5.9373 -75.715316,-9.39842 -91.761716,-42.94922 -3.4371,-7.188 -5.348903,-10.48825 -6.501953,-17.78125 -0.4746,-3.003 -0.6274,-4.73098 -0.625,-7.77148 z"
     id="path20"
     inkscape:connector-curvature="0"
     sodipodi:nodetypes="ssssscccccccccccccccccccccccccccc" /></svg>