solid OpenSCAD_Model
  facet normal 0 0 -1
    outer loop
      vertex -48.6057 -5.85604 2
      vertex -48.6028 -5.88066 2
      vertex -48.6046 -5.86844 2
    endloop
  endfacet
  facet normal 0 0 -1
    outer loop
      vertex -48.5972 -5.90455 2
      vertex -48.6028 -5.88066 2
      vertex -48.6057 -5.85604 2
    endloop
  endfacet
  facet normal 0 0 -1
    outer loop
      vertex -48.6003 -5.89271 2
      vertex -48.6028 -5.88066 2
      vertex -48.5972 -5.90455 2
    endloop
  endfacet
  facet normal 0 0 -1
    outer loop
      vertex -48.6061 -5.84351 2
      vertex -48.5972 -5.90455 2
      vertex -48.6057 -5.85604 2
    endloop
  endfacet
  facet normal 0 0 -1
    outer loop
      vertex -48.6061 -5.84351 2
      vertex -48.5934 -5.91617 2
      vertex -48.5972 -5.90455 2
    endloop
  endfacet
  facet normal 0 0 -1
    outer loop
      vertex -48.6061 -5.84351 2
      vertex -48.589 -5.92753 2
      vertex -48.5934 -5.91617 2
    endloop
  endfacet
  facet normal 0 0 -1
    outer loop
      vertex -48.6061 -5.84351 2
      vertex -48.584 -5.93861 2
      vertex -48.589 -5.92753 2
    endloop
  endfacet
  facet normal 0 0 -1
    outer loop
      vertex -48.6061 -5.84351 2
      vertex -48.5784 -5.94941 2
      vertex -48.584 -5.93861 2
    endloop
  endfacet
  facet normal 0 0 -1
    outer loop
      vertex -48.6061 -5.84351 2
      vertex -48.5722 -5.95989 2
      vertex -48.5784 -5.94941 2
    endloop
  endfacet
  facet normal 0 0 -1
    outer loop
      vertex -48.6061 -5.84351 2
      vertex -48.5655 -5.97003 2
      vertex -48.5722 -5.95989 2
    endloop
  endfacet
  facet normal 0 0 -1
    outer loop
      vertex -48.6061 -5.84351 2
      vertex -48.5583 -5.97982 2
      vertex -48.5655 -5.97003 2
    endloop
  endfacet
  facet normal 0 0 -1
    outer loop
      vertex -48.6061 -5.84351 2
      vertex -48.5506 -5.98923 2
      vertex -48.5583 -5.97982 2
    endloop
  endfacet
  facet normal 0 0 -1
    outer loop
      vertex -48.6061 -5.84351 2
      vertex -48.5425 -5.99823 2
      vertex -48.5506 -5.98923 2
    endloop
  endfacet
  facet normal 0 0 -1
    outer loop
      vertex -48.6061 -5.84351 2
      vertex -48.5339 -6.00682 2
      vertex -48.5425 -5.99823 2
    endloop
  endfacet
  facet normal 0 0 -1
    outer loop
      vertex -48.3909 -6.06993 2
      vertex -48.5248 -6.01496 2
      vertex -48.5339 -6.00682 2
    endloop
  endfacet
  facet normal 0 0 -1
    outer loop
      vertex -48.5056 -6.02979 2
      vertex -48.5154 -6.02262 2
      vertex -48.3909 -6.06993 2
    endloop
  endfacet
  facet normal 0 0 -1
    outer loop
      vertex -48.4628 -6.05319 2
      vertex -48.474 -6.04819 2
      vertex -48.3909 -6.06993 2
    endloop
  endfacet
  facet normal 0 0 -1
    outer loop
      vertex -48.4157 -6.06703 2
      vertex -48.3909 -6.06993 2
      vertex -48.4034 -6.06884 2
    endloop
  endfacet
  facet normal 0 0 -1
    outer loop
      vertex -48.4157 -6.06703 2
      vertex -48.4397 -6.06139 2
      vertex -48.3909 -6.06993 2
    endloop
  endfacet
  facet normal 0 0 -1
    outer loop
      vertex -48.4157 -6.06703 2
      vertex -48.4278 -6.06454 2
      vertex -48.4397 -6.06139 2
    endloop
  endfacet
  facet normal 0 0 -1
    outer loop
      vertex -48.4514 -6.05761 2
      vertex -48.4628 -6.05319 2
      vertex -48.4397 -6.06139 2
    endloop
  endfacet
  facet normal 0 0 -1
    outer loop
      vertex -48.4397 -6.06139 2
      vertex -48.4628 -6.05319 2
      vertex -48.3909 -6.06993 2
    endloop
  endfacet
  facet normal 0 0 -1
    outer loop
      vertex -48.3909 -6.06993 2
      vertex -48.474 -6.04819 2
      vertex -48.4849 -6.04259 2
    endloop
  endfacet
  facet normal 0 0 -1
    outer loop
      vertex -48.4954 -6.03646 2
      vertex -48.3909 -6.06993 2
      vertex -48.4849 -6.04259 2
    endloop
  endfacet
  facet normal 0 0 -1
    outer loop
      vertex -48.4954 -6.03646 2
      vertex -48.5056 -6.02979 2
      vertex -48.3909 -6.06993 2
    endloop
  endfacet
  facet normal 0 0 -1
    outer loop
      vertex -48.3909 -6.06993 2
      vertex -48.5154 -6.02262 2
      vertex -48.5248 -6.01496 2
    endloop
  endfacet
  facet normal 0 0 -1
    outer loop
      vertex -48.6061 -5.84351 2
      vertex -48.3909 -6.06993 2
      vertex -48.5339 -6.00682 2
    endloop
  endfacet
  facet normal 0 0 -1
    outer loop
      vertex -48.6061 -5.84351 2
      vertex -48.6061 6.06663 2
      vertex -48.3909 -6.06993 2
    endloop
  endfacet
  facet normal 0 0 -1
    outer loop
      vertex -0.391763 8.39085 2
      vertex -0.130625 -8.39897 2
      vertex -0.391763 -8.39085 2
    endloop
  endfacet
  facet normal -0 0 -1
    outer loop
      vertex 0.391763 -8.39085 2
      vertex 0.130625 -8.39897 2
      vertex 0.130625 8.39897 2
    endloop
  endfacet
  facet normal -0 -0 -1
    outer loop
      vertex 0.391763 8.39085 2
      vertex 0.391763 -8.39085 2
      vertex 0.130625 8.39897 2
    endloop
  endfacet
  facet normal -0 -0 -1
    outer loop
      vertex 48.4942 6.36236 2
      vertex 49.2818 5.83039 2
      vertex 48.3941 6.38322 2
    endloop
  endfacet
  facet normal -0 0 -1
    outer loop
      vertex 47.3994 -6.04819 2
      vertex 47.3882 -6.05319 2
      vertex 47.4102 -6.04259 2
    endloop
  endfacet
  facet normal 0 0 -1
    outer loop
      vertex 47.3162 -6.06993 2
      vertex 47.3411 -6.06703 2
      vertex 47.3287 -6.06884 2
    endloop
  endfacet
  facet normal 0 0 -1
    outer loop
      vertex 47.3651 -6.06139 2
      vertex 47.3532 -6.06454 2
      vertex 47.3411 -6.06703 2
    endloop
  endfacet
  facet normal 0 0 -1
    outer loop
      vertex 47.3162 -6.06993 2
      vertex 47.3651 -6.06139 2
      vertex 47.3411 -6.06703 2
    endloop
  endfacet
  facet normal 0 0 -1
    outer loop
      vertex 47.3882 -6.05319 2
      vertex 47.3768 -6.05761 2
      vertex 47.3651 -6.06139 2
    endloop
  endfacet
  facet normal 0 0 -1
    outer loop
      vertex 47.3162 -6.06993 2
      vertex 47.3882 -6.05319 2
      vertex 47.3651 -6.06139 2
    endloop
  endfacet
  facet normal 0 0 -1
    outer loop
      vertex 47.4102 -6.04259 2
      vertex 47.3882 -6.05319 2
      vertex 47.3162 -6.06993 2
    endloop
  endfacet
  facet normal 0 0 -1
    outer loop
      vertex 47.4207 -6.03646 2
      vertex 47.4102 -6.04259 2
      vertex 47.3162 -6.06993 2
    endloop
  endfacet
  facet normal 0 0 -1
    outer loop
      vertex 47.4309 -6.02979 2
      vertex 47.4207 -6.03646 2
      vertex 47.3162 -6.06993 2
    endloop
  endfacet
  facet normal 0 0 -1
    outer loop
      vertex 47.4408 -6.02262 2
      vertex 47.4309 -6.02979 2
      vertex 47.3162 -6.06993 2
    endloop
  endfacet
  facet normal 0 0 -1
    outer loop
      vertex 47.4502 -6.01496 2
      vertex 47.4408 -6.02262 2
      vertex 47.3162 -6.06993 2
    endloop
  endfacet
  facet normal 0 0 -1
    outer loop
      vertex 47.4592 -6.00682 2
      vertex 47.4502 -6.01496 2
      vertex 47.3162 -6.06993 2
    endloop
  endfacet
  facet normal 0 0 -1
    outer loop
      vertex 47.4678 -5.99823 2
      vertex 47.4592 -6.00682 2
      vertex 47.3162 -6.06993 2
    endloop
  endfacet
  facet normal -0 0 -1
    outer loop
      vertex 47.476 -5.98923 2
      vertex 47.4678 -5.99823 2
      vertex 47.5257 -5.89271 2
    endloop
  endfacet
  facet normal -0 0 -1
    outer loop
      vertex 47.5037 -5.94941 2
      vertex 47.4976 -5.95989 2
      vertex 47.5257 -5.89271 2
    endloop
  endfacet
  facet normal -0 0 -1
    outer loop
      vertex 47.5093 -5.93861 2
      vertex 47.5037 -5.94941 2
      vertex 47.5257 -5.89271 2
    endloop
  endfacet
  facet normal -0 0 -1
    outer loop
      vertex 47.5187 -5.91617 2
      vertex 47.5143 -5.92753 2
      vertex 47.5225 -5.90455 2
    endloop
  endfacet
  facet normal 0 0 -1
    outer loop
      vertex 47.5257 -5.89271 2
      vertex 47.5143 -5.92753 2
      vertex 47.5093 -5.93861 2
    endloop
  endfacet
  facet normal -0 0 -1
    outer loop
      vertex 47.5225 -5.90455 2
      vertex 47.5143 -5.92753 2
      vertex 47.5257 -5.89271 2
    endloop
  endfacet
  facet normal 0 0 -1
    outer loop
      vertex 47.5257 -5.89271 2
      vertex 47.4976 -5.95989 2
      vertex 47.4909 -5.97003 2
    endloop
  endfacet
  facet normal 0 0 -1
    outer loop
      vertex 47.4837 -5.97982 2
      vertex 47.5257 -5.89271 2
      vertex 47.4909 -5.97003 2
    endloop
  endfacet
  facet normal -0 0 -1
    outer loop
      vertex 47.4837 -5.97982 2
      vertex 47.476 -5.98923 2
      vertex 47.5257 -5.89271 2
    endloop
  endfacet
  facet normal 0 0 -1
    outer loop
      vertex 47.5257 -5.89271 2
      vertex 47.4678 -5.99823 2
      vertex 47.3162 -6.06993 2
    endloop
  endfacet
  facet normal 0 0 -1
    outer loop
      vertex 49.276 0.947637 2
      vertex 47.5257 -5.89271 2
      vertex 47.3162 -6.06993 2
    endloop
  endfacet
  facet normal 0 0 -1
    outer loop
      vertex 49.228 6.00299 2
      vertex 49.2574 5.94922 2
      vertex 49.2818 5.83039 2
    endloop
  endfacet
  facet normal -0 0 -1
    outer loop
      vertex 49.2803 0.972102 2
      vertex 49.2785 0.959766 2
      vertex 49.2814 0.984583 2
    endloop
  endfacet
  facet normal 0 0 -1
    outer loop
      vertex 49.2814 0.984583 2
      vertex 49.2785 0.959766 2
      vertex 49.276 0.947637 2
    endloop
  endfacet
  facet normal 0 0 -1
    outer loop
      vertex 49.2818 0.997224 2
      vertex 49.2814 0.984583 2
      vertex 49.276 0.947637 2
    endloop
  endfacet
  facet normal 0 0 -1
    outer loop
      vertex 49.1883 6.05312 2
      vertex 49.228 6.00299 2
      vertex 49.2818 5.83039 2
    endloop
  endfacet
  facet normal -0 -0 -1
    outer loop
      vertex 49.2756 5.89173 2
      vertex 49.2818 5.83039 2
      vertex 49.2574 5.94922 2
    endloop
  endfacet
  facet normal 0 0 -1
    outer loop
      vertex 49.139 6.09978 2
      vertex 49.1883 6.05312 2
      vertex 49.2818 5.83039 2
    endloop
  endfacet
  facet normal 0 0 -1
    outer loop
      vertex 49.0809 6.14307 2
      vertex 49.139 6.09978 2
      vertex 49.2818 5.83039 2
    endloop
  endfacet
  facet normal 0 0 -1
    outer loop
      vertex 49.0148 6.18312 2
      vertex 49.0809 6.14307 2
      vertex 49.2818 5.83039 2
    endloop
  endfacet
  facet normal 0 0 -1
    outer loop
      vertex 48.9415 6.22007 2
      vertex 49.0148 6.18312 2
      vertex 49.2818 5.83039 2
    endloop
  endfacet
  facet normal 0 0 -1
    outer loop
      vertex 48.8618 6.254 2
      vertex 48.9415 6.22007 2
      vertex 49.2818 5.83039 2
    endloop
  endfacet
  facet normal 0 0 -1
    outer loop
      vertex 48.7764 6.28508 2
      vertex 48.8618 6.254 2
      vertex 49.2818 5.83039 2
    endloop
  endfacet
  facet normal 0 0 -1
    outer loop
      vertex 48.6861 6.31343 2
      vertex 48.7764 6.28508 2
      vertex 49.2818 5.83039 2
    endloop
  endfacet
  facet normal 0 0 -1
    outer loop
      vertex 48.5918 6.33914 2
      vertex 48.6861 6.31343 2
      vertex 49.2818 5.83039 2
    endloop
  endfacet
  facet normal 0 0 -1
    outer loop
      vertex 48.4942 6.36236 2
      vertex 48.5918 6.33914 2
      vertex 49.2818 5.83039 2
    endloop
  endfacet
  facet normal -0 -0 -1
    outer loop
      vertex 48.3941 6.38322 2
      vertex 49.2818 5.83039 2
      vertex 48.2923 6.40182 2
    endloop
  endfacet
  facet normal -0 -0 -1
    outer loop
      vertex 48.2923 6.40182 2
      vertex 49.2818 5.83039 2
      vertex 48.1896 6.4183 2
    endloop
  endfacet
  facet normal -0 -0 -1
    outer loop
      vertex 48.1896 6.4183 2
      vertex 49.2818 5.83039 2
      vertex 48.0867 6.43279 2
    endloop
  endfacet
  facet normal -0 -0 -1
    outer loop
      vertex 48.0867 6.43279 2
      vertex 49.2818 5.83039 2
      vertex 47.9845 6.4454 2
    endloop
  endfacet
  facet normal -0 -0 -1
    outer loop
      vertex 47.9845 6.4454 2
      vertex 49.2818 5.83039 2
      vertex 47.8838 6.45628 2
    endloop
  endfacet
  facet normal -0 -0 -1
    outer loop
      vertex 47.8838 6.45628 2
      vertex 49.2818 5.83039 2
      vertex 47.7853 6.4655 2
    endloop
  endfacet
  facet normal -0 -0 -1
    outer loop
      vertex 47.7853 6.4655 2
      vertex 49.2818 5.83039 2
      vertex 47.6898 6.47326 2
    endloop
  endfacet
  facet normal -0 -0 -1
    outer loop
      vertex 47.6898 6.47326 2
      vertex 49.2818 5.83039 2
      vertex 47.5982 6.47962 2
    endloop
  endfacet
  facet normal 0 0 -1
    outer loop
      vertex 47.5982 6.47962 2
      vertex 49.2818 5.83039 2
      vertex 49.2818 0.997224 2
    endloop
  endfacet
  facet normal 0 0 -1
    outer loop
      vertex 47.5111 6.48473 2
      vertex 47.5982 6.47962 2
      vertex 49.2818 0.997224 2
    endloop
  endfacet
  facet normal 0 0 -1
    outer loop
      vertex 47.4294 6.48872 2
      vertex 47.5111 6.48473 2
      vertex 49.2818 0.997224 2
    endloop
  endfacet
  facet normal 0 0 -1
    outer loop
      vertex 49.276 0.947637 2
      vertex 47.4294 6.48872 2
      vertex 49.2818 0.997224 2
    endloop
  endfacet
  facet normal -0 0 -1
    outer loop
      vertex 49.276 0.947637 2
      vertex 47.3162 -6.06993 2
      vertex 47.4294 6.48872 2
    endloop
  endfacet
  facet normal -0 0 -1
    outer loop
      vertex 47.4294 6.48872 2
      vertex 47.3162 -6.06993 2
      vertex 0.391763 8.39085 2
    endloop
  endfacet
  facet normal 0 0 -1
    outer loop
      vertex 0.391763 8.39085 2
      vertex 47.3162 -6.06993 2
      vertex 0.391763 -8.39085 2
    endloop
  endfacet
  facet normal -0 -0 -1
    outer loop
      vertex 0.130625 8.39897 2
      vertex 0.130625 -8.39897 2
      vertex -0.130625 8.39897 2
    endloop
  endfacet
  facet normal 0 0 -1
    outer loop
      vertex -0.130625 8.39897 2
      vertex 0.130625 -8.39897 2
      vertex -0.130625 -8.39897 2
    endloop
  endfacet
  facet normal 0 0 -1
    outer loop
      vertex -0.391763 8.39085 2
      vertex -0.130625 8.39897 2
      vertex -0.130625 -8.39897 2
    endloop
  endfacet
  facet normal 0 0 -1
    outer loop
      vertex -48.3909 -6.06993 2
      vertex -0.391763 8.39085 2
      vertex -0.391763 -8.39085 2
    endloop
  endfacet
  facet normal 0 0 -1
    outer loop
      vertex -48.3909 -6.06993 2
      vertex -48.3909 6.2941 2
      vertex -0.391763 8.39085 2
    endloop
  endfacet
  facet normal 0 0 -1
    outer loop
      vertex -48.3909 -6.06993 2
      vertex -48.6061 6.06663 2
      vertex -48.3909 6.2941 2
    endloop
  endfacet
  facet normal 0 0 -1
    outer loop
      vertex -48.3909 6.2941 2
      vertex -48.4157 6.2912 2
      vertex -48.4034 6.29301 2
    endloop
  endfacet
  facet normal 0 0 -1
    outer loop
      vertex -48.4397 6.28556 2
      vertex -48.4278 6.28872 2
      vertex -48.4157 6.2912 2
    endloop
  endfacet
  facet normal 0 0 -1
    outer loop
      vertex -48.3909 6.2941 2
      vertex -48.4397 6.28556 2
      vertex -48.4157 6.2912 2
    endloop
  endfacet
  facet normal 0 0 -1
    outer loop
      vertex -48.3909 6.2941 2
      vertex -48.4514 6.28177 2
      vertex -48.4397 6.28556 2
    endloop
  endfacet
  facet normal 0 0 -1
    outer loop
      vertex -48.3909 6.2941 2
      vertex -48.4628 6.27735 2
      vertex -48.4514 6.28177 2
    endloop
  endfacet
  facet normal 0 0 -1
    outer loop
      vertex -48.3909 6.2941 2
      vertex -48.474 6.27233 2
      vertex -48.4628 6.27735 2
    endloop
  endfacet
  facet normal 0 0 -1
    outer loop
      vertex -48.3909 6.2941 2
      vertex -48.4849 6.26674 2
      vertex -48.474 6.27233 2
    endloop
  endfacet
  facet normal 0 0 -1
    outer loop
      vertex -48.3909 6.2941 2
      vertex -48.4954 6.2606 2
      vertex -48.4849 6.26674 2
    endloop
  endfacet
  facet normal 0 0 -1
    outer loop
      vertex -48.3909 6.2941 2
      vertex -48.5056 6.25392 2
      vertex -48.4954 6.2606 2
    endloop
  endfacet
  facet normal 0 0 -1
    outer loop
      vertex -48.3909 6.2941 2
      vertex -48.5154 6.24671 2
      vertex -48.5056 6.25392 2
    endloop
  endfacet
  facet normal 0 0 -1
    outer loop
      vertex -48.3909 6.2941 2
      vertex -48.5248 6.23904 2
      vertex -48.5154 6.24671 2
    endloop
  endfacet
  facet normal 0 0 -1
    outer loop
      vertex -48.3909 6.2941 2
      vertex -48.5339 6.23087 2
      vertex -48.5248 6.23904 2
    endloop
  endfacet
  facet normal 0 0 -1
    outer loop
      vertex -48.3909 6.2941 2
      vertex -48.6061 6.06663 2
      vertex -48.5339 6.23087 2
    endloop
  endfacet
  facet normal 0 0 -1
    outer loop
      vertex -48.5339 6.23087 2
      vertex -48.6061 6.06663 2
      vertex -48.5425 6.22226 2
    endloop
  endfacet
  facet normal 0 0 -1
    outer loop
      vertex -48.5425 6.22226 2
      vertex -48.6061 6.06663 2
      vertex -48.5506 6.21323 2
    endloop
  endfacet
  facet normal 0 0 -1
    outer loop
      vertex -48.5506 6.21323 2
      vertex -48.6061 6.06663 2
      vertex -48.5583 6.20379 2
    endloop
  endfacet
  facet normal 0 0 -1
    outer loop
      vertex -48.5583 6.20379 2
      vertex -48.6061 6.06663 2
      vertex -48.5655 6.19397 2
    endloop
  endfacet
  facet normal 0 0 -1
    outer loop
      vertex -48.5655 6.19397 2
      vertex -48.6061 6.06663 2
      vertex -48.5722 6.18378 2
    endloop
  endfacet
  facet normal 0 0 -1
    outer loop
      vertex -48.5722 6.18378 2
      vertex -48.6061 6.06663 2
      vertex -48.5784 6.17325 2
    endloop
  endfacet
  facet normal 0 0 -1
    outer loop
      vertex -48.5784 6.17325 2
      vertex -48.6061 6.06663 2
      vertex -48.584 6.16239 2
    endloop
  endfacet
  facet normal 0 0 -1
    outer loop
      vertex -48.584 6.16239 2
      vertex -48.6061 6.06663 2
      vertex -48.589 6.15124 2
    endloop
  endfacet
  facet normal 0 0 -1
    outer loop
      vertex -48.589 6.15124 2
      vertex -48.6061 6.06663 2
      vertex -48.5934 6.13981 2
    endloop
  endfacet
  facet normal 0 0 -1
    outer loop
      vertex -48.5934 6.13981 2
      vertex -48.6061 6.06663 2
      vertex -48.5972 6.12813 2
    endloop
  endfacet
  facet normal 0 0 -1
    outer loop
      vertex -48.5972 6.12813 2
      vertex -48.6028 6.10409 2
      vertex -48.6003 6.11621 2
    endloop
  endfacet
  facet normal 0 0 -1
    outer loop
      vertex -48.5972 6.12813 2
      vertex -48.6057 6.07927 2
      vertex -48.6028 6.10409 2
    endloop
  endfacet
  facet normal 0 0 -1
    outer loop
      vertex -48.6028 6.10409 2
      vertex -48.6057 6.07927 2
      vertex -48.6046 6.09177 2
    endloop
  endfacet
  facet normal 0 0 -1
    outer loop
      vertex -48.5972 6.12813 2
      vertex -48.6061 6.06663 2
      vertex -48.6057 6.07927 2
    endloop
  endfacet
  facet normal -0 -0 1
    outer loop
      vertex -48.6046 -5.86844 43.6
      vertex -48.6028 -5.88066 43.6
      vertex -48.6057 -5.85604 43.6
    endloop
  endfacet
  facet normal 0 0 1
    outer loop
      vertex -48.6057 -5.85604 43.6
      vertex -48.6028 -5.88066 43.6
      vertex -48.5972 -5.90455 43.6
    endloop
  endfacet
  facet normal 0 0 1
    outer loop
      vertex -48.5972 -5.90455 43.6
      vertex -48.6028 -5.88066 43.6
      vertex -48.6003 -5.89271 43.6
    endloop
  endfacet
  facet normal -0 -0 1
    outer loop
      vertex -48.6057 -5.85604 43.6
      vertex -48.5972 -5.90455 43.6
      vertex -48.6061 -5.84351 43.6
    endloop
  endfacet
  facet normal -0 -0 1
    outer loop
      vertex -48.5972 -5.90455 43.6
      vertex -48.5934 -5.91617 43.6
      vertex -48.6061 -5.84351 43.6
    endloop
  endfacet
  facet normal -0 -0 1
    outer loop
      vertex -48.5934 -5.91617 43.6
      vertex -48.589 -5.92753 43.6
      vertex -48.6061 -5.84351 43.6
    endloop
  endfacet
  facet normal -0 -0 1
    outer loop
      vertex -48.589 -5.92753 43.6
      vertex -48.584 -5.93861 43.6
      vertex -48.6061 -5.84351 43.6
    endloop
  endfacet
  facet normal -0 -0 1
    outer loop
      vertex -48.584 -5.93861 43.6
      vertex -48.5784 -5.94941 43.6
      vertex -48.6061 -5.84351 43.6
    endloop
  endfacet
  facet normal -0 -0 1
    outer loop
      vertex -48.5784 -5.94941 43.6
      vertex -48.5722 -5.95989 43.6
      vertex -48.6061 -5.84351 43.6
    endloop
  endfacet
  facet normal -0 -0 1
    outer loop
      vertex -48.5722 -5.95989 43.6
      vertex -48.5655 -5.97003 43.6
      vertex -48.6061 -5.84351 43.6
    endloop
  endfacet
  facet normal -0 -0 1
    outer loop
      vertex -48.5655 -5.97003 43.6
      vertex -48.5583 -5.97982 43.6
      vertex -48.6061 -5.84351 43.6
    endloop
  endfacet
  facet normal -0 -0 1
    outer loop
      vertex -48.5583 -5.97982 43.6
      vertex -48.5506 -5.98923 43.6
      vertex -48.6061 -5.84351 43.6
    endloop
  endfacet
  facet normal -0 -0 1
    outer loop
      vertex -48.5506 -5.98923 43.6
      vertex -48.5425 -5.99823 43.6
      vertex -48.6061 -5.84351 43.6
    endloop
  endfacet
  facet normal -0 -0 1
    outer loop
      vertex -48.5425 -5.99823 43.6
      vertex -48.5339 -6.00682 43.6
      vertex -48.6061 -5.84351 43.6
    endloop
  endfacet
  facet normal 0 0 1
    outer loop
      vertex -48.5339 -6.00682 43.6
      vertex -48.5248 -6.01496 43.6
      vertex -48.3909 -6.06993 43.6
    endloop
  endfacet
  facet normal 0 0 1
    outer loop
      vertex -48.3909 -6.06993 43.6
      vertex -48.5154 -6.02262 43.6
      vertex -48.5056 -6.02979 43.6
    endloop
  endfacet
  facet normal 0 0 1
    outer loop
      vertex -48.3909 -6.06993 43.6
      vertex -48.474 -6.04819 43.6
      vertex -48.4628 -6.05319 43.6
    endloop
  endfacet
  facet normal -0 -0 1
    outer loop
      vertex -48.4034 -6.06884 43.6
      vertex -48.3909 -6.06993 43.6
      vertex -48.4157 -6.06703 43.6
    endloop
  endfacet
  facet normal 0 0 1
    outer loop
      vertex -48.3909 -6.06993 43.6
      vertex -48.4397 -6.06139 43.6
      vertex -48.4157 -6.06703 43.6
    endloop
  endfacet
  facet normal 0 0 1
    outer loop
      vertex -48.4397 -6.06139 43.6
      vertex -48.4278 -6.06454 43.6
      vertex -48.4157 -6.06703 43.6
    endloop
  endfacet
  facet normal 0 0 1
    outer loop
      vertex -48.4397 -6.06139 43.6
      vertex -48.4628 -6.05319 43.6
      vertex -48.4514 -6.05761 43.6
    endloop
  endfacet
  facet normal 0 0 1
    outer loop
      vertex -48.3909 -6.06993 43.6
      vertex -48.4628 -6.05319 43.6
      vertex -48.4397 -6.06139 43.6
    endloop
  endfacet
  facet normal 0 0 1
    outer loop
      vertex -48.4849 -6.04259 43.6
      vertex -48.474 -6.04819 43.6
      vertex -48.3909 -6.06993 43.6
    endloop
  endfacet
  facet normal -0 -0 1
    outer loop
      vertex -48.4849 -6.04259 43.6
      vertex -48.3909 -6.06993 43.6
      vertex -48.4954 -6.03646 43.6
    endloop
  endfacet
  facet normal 0 0 1
    outer loop
      vertex -48.3909 -6.06993 43.6
      vertex -48.5056 -6.02979 43.6
      vertex -48.4954 -6.03646 43.6
    endloop
  endfacet
  facet normal 0 0 1
    outer loop
      vertex -48.5248 -6.01496 43.6
      vertex -48.5154 -6.02262 43.6
      vertex -48.3909 -6.06993 43.6
    endloop
  endfacet
  facet normal -0 -0 1
    outer loop
      vertex -48.5339 -6.00682 43.6
      vertex -48.3909 -6.06993 43.6
      vertex -48.6061 -5.84351 43.6
    endloop
  endfacet
  facet normal 0 0 1
    outer loop
      vertex -48.3909 -6.06993 43.6
      vertex -48.6061 6.06663 43.6
      vertex -48.6061 -5.84351 43.6
    endloop
  endfacet
  facet normal -0 0 1
    outer loop
      vertex -0.391763 -8.39085 43.6
      vertex -0.130625 -8.39897 43.6
      vertex -0.391763 8.39085 43.6
    endloop
  endfacet
  facet normal 0 0 1
    outer loop
      vertex 0.130625 8.39897 43.6
      vertex 0.130625 -8.39897 43.6
      vertex 0.391763 -8.39085 43.6
    endloop
  endfacet
  facet normal 0 0 1
    outer loop
      vertex 0.130625 8.39897 43.6
      vertex 0.391763 -8.39085 43.6
      vertex 0.391763 8.39085 43.6
    endloop
  endfacet
  facet normal 0 0 1
    outer loop
      vertex 48.3941 6.38322 43.6
      vertex 49.2818 5.83039 43.6
      vertex 48.4942 6.36236 43.6
    endloop
  endfacet
  facet normal 0 0 1
    outer loop
      vertex 47.4102 -6.04259 43.6
      vertex 47.3882 -6.05319 43.6
      vertex 47.3994 -6.04819 43.6
    endloop
  endfacet
  facet normal 0 -0 1
    outer loop
      vertex 47.3287 -6.06884 43.6
      vertex 47.3411 -6.06703 43.6
      vertex 47.3162 -6.06993 43.6
    endloop
  endfacet
  facet normal 0 0 1
    outer loop
      vertex 47.3411 -6.06703 43.6
      vertex 47.3532 -6.06454 43.6
      vertex 47.3651 -6.06139 43.6
    endloop
  endfacet
  facet normal 0 -0 1
    outer loop
      vertex 47.3411 -6.06703 43.6
      vertex 47.3651 -6.06139 43.6
      vertex 47.3162 -6.06993 43.6
    endloop
  endfacet
  facet normal 0 0 1
    outer loop
      vertex 47.3651 -6.06139 43.6
      vertex 47.3768 -6.05761 43.6
      vertex 47.3882 -6.05319 43.6
    endloop
  endfacet
  facet normal 0 -0 1
    outer loop
      vertex 47.3651 -6.06139 43.6
      vertex 47.3882 -6.05319 43.6
      vertex 47.3162 -6.06993 43.6
    endloop
  endfacet
  facet normal 0 0 1
    outer loop
      vertex 47.3162 -6.06993 43.6
      vertex 47.3882 -6.05319 43.6
      vertex 47.4102 -6.04259 43.6
    endloop
  endfacet
  facet normal 0 0 1
    outer loop
      vertex 47.3162 -6.06993 43.6
      vertex 47.4102 -6.04259 43.6
      vertex 47.4207 -6.03646 43.6
    endloop
  endfacet
  facet normal 0 0 1
    outer loop
      vertex 47.3162 -6.06993 43.6
      vertex 47.4207 -6.03646 43.6
      vertex 47.4309 -6.02979 43.6
    endloop
  endfacet
  facet normal 0 0 1
    outer loop
      vertex 47.3162 -6.06993 43.6
      vertex 47.4309 -6.02979 43.6
      vertex 47.4408 -6.02262 43.6
    endloop
  endfacet
  facet normal 0 0 1
    outer loop
      vertex 47.3162 -6.06993 43.6
      vertex 47.4408 -6.02262 43.6
      vertex 47.4502 -6.01496 43.6
    endloop
  endfacet
  facet normal 0 0 1
    outer loop
      vertex 47.3162 -6.06993 43.6
      vertex 47.4502 -6.01496 43.6
      vertex 47.4592 -6.00682 43.6
    endloop
  endfacet
  facet normal 0 0 1
    outer loop
      vertex 47.3162 -6.06993 43.6
      vertex 47.4592 -6.00682 43.6
      vertex 47.4678 -5.99823 43.6
    endloop
  endfacet
  facet normal 0 0 1
    outer loop
      vertex 47.5257 -5.89271 43.6
      vertex 47.4678 -5.99823 43.6
      vertex 47.476 -5.98923 43.6
    endloop
  endfacet
  facet normal 0 0 1
    outer loop
      vertex 47.5257 -5.89271 43.6
      vertex 47.4976 -5.95989 43.6
      vertex 47.5037 -5.94941 43.6
    endloop
  endfacet
  facet normal 0 0 1
    outer loop
      vertex 47.5257 -5.89271 43.6
      vertex 47.5037 -5.94941 43.6
      vertex 47.5093 -5.93861 43.6
    endloop
  endfacet
  facet normal 0 0 1
    outer loop
      vertex 47.5225 -5.90455 43.6
      vertex 47.5143 -5.92753 43.6
      vertex 47.5187 -5.91617 43.6
    endloop
  endfacet
  facet normal 0 0 1
    outer loop
      vertex 47.5093 -5.93861 43.6
      vertex 47.5143 -5.92753 43.6
      vertex 47.5257 -5.89271 43.6
    endloop
  endfacet
  facet normal 0 0 1
    outer loop
      vertex 47.5257 -5.89271 43.6
      vertex 47.5143 -5.92753 43.6
      vertex 47.5225 -5.90455 43.6
    endloop
  endfacet
  facet normal 0 0 1
    outer loop
      vertex 47.4909 -5.97003 43.6
      vertex 47.4976 -5.95989 43.6
      vertex 47.5257 -5.89271 43.6
    endloop
  endfacet
  facet normal 0 -0 1
    outer loop
      vertex 47.4909 -5.97003 43.6
      vertex 47.5257 -5.89271 43.6
      vertex 47.4837 -5.97982 43.6
    endloop
  endfacet
  facet normal 0 0 1
    outer loop
      vertex 47.5257 -5.89271 43.6
      vertex 47.476 -5.98923 43.6
      vertex 47.4837 -5.97982 43.6
    endloop
  endfacet
  facet normal 0 0 1
    outer loop
      vertex 47.3162 -6.06993 43.6
      vertex 47.4678 -5.99823 43.6
      vertex 47.5257 -5.89271 43.6
    endloop
  endfacet
  facet normal 0 0 1
    outer loop
      vertex 47.3162 -6.06993 43.6
      vertex 47.5257 -5.89271 43.6
      vertex 49.276 0.947637 43.6
    endloop
  endfacet
  facet normal 0 0 1
    outer loop
      vertex 49.2818 5.83039 43.6
      vertex 49.2574 5.94922 43.6
      vertex 49.228 6.00299 43.6
    endloop
  endfacet
  facet normal 0 0 1
    outer loop
      vertex 49.2814 0.984583 43.6
      vertex 49.2785 0.959766 43.6
      vertex 49.2803 0.972102 43.6
    endloop
  endfacet
  facet normal 0 0 1
    outer loop
      vertex 49.276 0.947637 43.6
      vertex 49.2785 0.959766 43.6
      vertex 49.2814 0.984583 43.6
    endloop
  endfacet
  facet normal 0 0 1
    outer loop
      vertex 49.276 0.947637 43.6
      vertex 49.2814 0.984583 43.6
      vertex 49.2818 0.997224 43.6
    endloop
  endfacet
  facet normal 0 0 1
    outer loop
      vertex 49.2818 5.83039 43.6
      vertex 49.228 6.00299 43.6
      vertex 49.1883 6.05312 43.6
    endloop
  endfacet
  facet normal 0 0 1
    outer loop
      vertex 49.2574 5.94922 43.6
      vertex 49.2818 5.83039 43.6
      vertex 49.2756 5.89173 43.6
    endloop
  endfacet
  facet normal 0 0 1
    outer loop
      vertex 49.2818 5.83039 43.6
      vertex 49.1883 6.05312 43.6
      vertex 49.139 6.09978 43.6
    endloop
  endfacet
  facet normal 0 0 1
    outer loop
      vertex 49.2818 5.83039 43.6
      vertex 49.139 6.09978 43.6
      vertex 49.0809 6.14307 43.6
    endloop
  endfacet
  facet normal 0 0 1
    outer loop
      vertex 49.2818 5.83039 43.6
      vertex 49.0809 6.14307 43.6
      vertex 49.0148 6.18312 43.6
    endloop
  endfacet
  facet normal 0 0 1
    outer loop
      vertex 49.2818 5.83039 43.6
      vertex 49.0148 6.18312 43.6
      vertex 48.9415 6.22007 43.6
    endloop
  endfacet
  facet normal 0 0 1
    outer loop
      vertex 49.2818 5.83039 43.6
      vertex 48.9415 6.22007 43.6
      vertex 48.8618 6.254 43.6
    endloop
  endfacet
  facet normal 0 0 1
    outer loop
      vertex 49.2818 5.83039 43.6
      vertex 48.8618 6.254 43.6
      vertex 48.7764 6.28508 43.6
    endloop
  endfacet
  facet normal 0 0 1
    outer loop
      vertex 49.2818 5.83039 43.6
      vertex 48.7764 6.28508 43.6
      vertex 48.6861 6.31343 43.6
    endloop
  endfacet
  facet normal 0 0 1
    outer loop
      vertex 49.2818 5.83039 43.6
      vertex 48.6861 6.31343 43.6
      vertex 48.5918 6.33914 43.6
    endloop
  endfacet
  facet normal 0 0 1
    outer loop
      vertex 49.2818 5.83039 43.6
      vertex 48.5918 6.33914 43.6
      vertex 48.4942 6.36236 43.6
    endloop
  endfacet
  facet normal 0 0 1
    outer loop
      vertex 48.2923 6.40182 43.6
      vertex 49.2818 5.83039 43.6
      vertex 48.3941 6.38322 43.6
    endloop
  endfacet
  facet normal 0 0 1
    outer loop
      vertex 48.1896 6.4183 43.6
      vertex 49.2818 5.83039 43.6
      vertex 48.2923 6.40182 43.6
    endloop
  endfacet
  facet normal 0 0 1
    outer loop
      vertex 48.0867 6.43279 43.6
      vertex 49.2818 5.83039 43.6
      vertex 48.1896 6.4183 43.6
    endloop
  endfacet
  facet normal 0 0 1
    outer loop
      vertex 47.9845 6.4454 43.6
      vertex 49.2818 5.83039 43.6
      vertex 48.0867 6.43279 43.6
    endloop
  endfacet
  facet normal 0 0 1
    outer loop
      vertex 47.8838 6.45628 43.6
      vertex 49.2818 5.83039 43.6
      vertex 47.9845 6.4454 43.6
    endloop
  endfacet
  facet normal 0 0 1
    outer loop
      vertex 47.7853 6.4655 43.6
      vertex 49.2818 5.83039 43.6
      vertex 47.8838 6.45628 43.6
    endloop
  endfacet
  facet normal 0 0 1
    outer loop
      vertex 47.6898 6.47326 43.6
      vertex 49.2818 5.83039 43.6
      vertex 47.7853 6.4655 43.6
    endloop
  endfacet
  facet normal 0 0 1
    outer loop
      vertex 47.5982 6.47962 43.6
      vertex 49.2818 5.83039 43.6
      vertex 47.6898 6.47326 43.6
    endloop
  endfacet
  facet normal 0 -0 1
    outer loop
      vertex 49.2818 0.997224 43.6
      vertex 49.2818 5.83039 43.6
      vertex 47.5982 6.47962 43.6
    endloop
  endfacet
  facet normal 0 0 1
    outer loop
      vertex 49.2818 0.997224 43.6
      vertex 47.5982 6.47962 43.6
      vertex 47.5111 6.48473 43.6
    endloop
  endfacet
  facet normal 0 0 1
    outer loop
      vertex 49.2818 0.997224 43.6
      vertex 47.5111 6.48473 43.6
      vertex 47.4294 6.48872 43.6
    endloop
  endfacet
  facet normal 0 0 1
    outer loop
      vertex 49.2818 0.997224 43.6
      vertex 47.4294 6.48872 43.6
      vertex 49.276 0.947637 43.6
    endloop
  endfacet
  facet normal 0 0 1
    outer loop
      vertex 47.4294 6.48872 43.6
      vertex 47.3162 -6.06993 43.6
      vertex 49.276 0.947637 43.6
    endloop
  endfacet
  facet normal 0 0 1
    outer loop
      vertex 0.391763 8.39085 43.6
      vertex 47.3162 -6.06993 43.6
      vertex 47.4294 6.48872 43.6
    endloop
  endfacet
  facet normal 0 0 1
    outer loop
      vertex 0.391763 -8.39085 43.6
      vertex 47.3162 -6.06993 43.6
      vertex 0.391763 8.39085 43.6
    endloop
  endfacet
  facet normal -0 0 1
    outer loop
      vertex -0.130625 8.39897 43.6
      vertex 0.130625 -8.39897 43.6
      vertex 0.130625 8.39897 43.6
    endloop
  endfacet
  facet normal 0 0 1
    outer loop
      vertex -0.130625 -8.39897 43.6
      vertex 0.130625 -8.39897 43.6
      vertex -0.130625 8.39897 43.6
    endloop
  endfacet
  facet normal 0 -0 1
    outer loop
      vertex -0.130625 -8.39897 43.6
      vertex -0.130625 8.39897 43.6
      vertex -0.391763 8.39085 43.6
    endloop
  endfacet
  facet normal 0 -0 1
    outer loop
      vertex -0.391763 -8.39085 43.6
      vertex -0.391763 8.39085 43.6
      vertex -48.3909 -6.06993 43.6
    endloop
  endfacet
  facet normal 0 0 1
    outer loop
      vertex -0.391763 8.39085 43.6
      vertex -48.3909 6.2941 43.6
      vertex -48.3909 -6.06993 43.6
    endloop
  endfacet
  facet normal 0 0 1
    outer loop
      vertex -48.3909 6.2941 43.6
      vertex -48.6061 6.06663 43.6
      vertex -48.3909 -6.06993 43.6
    endloop
  endfacet
  facet normal -0 0 1
    outer loop
      vertex -48.4034 6.29301 43.6
      vertex -48.4157 6.2912 43.6
      vertex -48.3909 6.2941 43.6
    endloop
  endfacet
  facet normal 0 0 1
    outer loop
      vertex -48.4157 6.2912 43.6
      vertex -48.4278 6.28872 43.6
      vertex -48.4397 6.28556 43.6
    endloop
  endfacet
  facet normal -0 0 1
    outer loop
      vertex -48.4157 6.2912 43.6
      vertex -48.4397 6.28556 43.6
      vertex -48.3909 6.2941 43.6
    endloop
  endfacet
  facet normal -0 0 1
    outer loop
      vertex -48.4397 6.28556 43.6
      vertex -48.4514 6.28177 43.6
      vertex -48.3909 6.2941 43.6
    endloop
  endfacet
  facet normal -0 0 1
    outer loop
      vertex -48.4514 6.28177 43.6
      vertex -48.4628 6.27735 43.6
      vertex -48.3909 6.2941 43.6
    endloop
  endfacet
  facet normal -0 0 1
    outer loop
      vertex -48.4628 6.27735 43.6
      vertex -48.474 6.27233 43.6
      vertex -48.3909 6.2941 43.6
    endloop
  endfacet
  facet normal -0 0 1
    outer loop
      vertex -48.474 6.27233 43.6
      vertex -48.4849 6.26674 43.6
      vertex -48.3909 6.2941 43.6
    endloop
  endfacet
  facet normal -0 0 1
    outer loop
      vertex -48.4849 6.26674 43.6
      vertex -48.4954 6.2606 43.6
      vertex -48.3909 6.2941 43.6
    endloop
  endfacet
  facet normal -0 0 1
    outer loop
      vertex -48.4954 6.2606 43.6
      vertex -48.5056 6.25392 43.6
      vertex -48.3909 6.2941 43.6
    endloop
  endfacet
  facet normal -0 0 1
    outer loop
      vertex -48.5056 6.25392 43.6
      vertex -48.5154 6.24671 43.6
      vertex -48.3909 6.2941 43.6
    endloop
  endfacet
  facet normal -0 0 1
    outer loop
      vertex -48.5154 6.24671 43.6
      vertex -48.5248 6.23904 43.6
      vertex -48.3909 6.2941 43.6
    endloop
  endfacet
  facet normal -0 0 1
    outer loop
      vertex -48.5248 6.23904 43.6
      vertex -48.5339 6.23087 43.6
      vertex -48.3909 6.2941 43.6
    endloop
  endfacet
  facet normal -0 0 1
    outer loop
      vertex -48.5339 6.23087 43.6
      vertex -48.6061 6.06663 43.6
      vertex -48.3909 6.2941 43.6
    endloop
  endfacet
  facet normal -0 0 1
    outer loop
      vertex -48.5425 6.22226 43.6
      vertex -48.6061 6.06663 43.6
      vertex -48.5339 6.23087 43.6
    endloop
  endfacet
  facet normal -0 0 1
    outer loop
      vertex -48.5506 6.21323 43.6
      vertex -48.6061 6.06663 43.6
      vertex -48.5425 6.22226 43.6
    endloop
  endfacet
  facet normal -0 0 1
    outer loop
      vertex -48.5583 6.20379 43.6
      vertex -48.6061 6.06663 43.6
      vertex -48.5506 6.21323 43.6
    endloop
  endfacet
  facet normal -0 0 1
    outer loop
      vertex -48.5655 6.19397 43.6
      vertex -48.6061 6.06663 43.6
      vertex -48.5583 6.20379 43.6
    endloop
  endfacet
  facet normal -0 0 1
    outer loop
      vertex -48.5722 6.18378 43.6
      vertex -48.6061 6.06663 43.6
      vertex -48.5655 6.19397 43.6
    endloop
  endfacet
  facet normal -0 0 1
    outer loop
      vertex -48.5784 6.17325 43.6
      vertex -48.6061 6.06663 43.6
      vertex -48.5722 6.18378 43.6
    endloop
  endfacet
  facet normal -0 0 1
    outer loop
      vertex -48.584 6.16239 43.6
      vertex -48.6061 6.06663 43.6
      vertex -48.5784 6.17325 43.6
    endloop
  endfacet
  facet normal -0 0 1
    outer loop
      vertex -48.589 6.15124 43.6
      vertex -48.6061 6.06663 43.6
      vertex -48.584 6.16239 43.6
    endloop
  endfacet
  facet normal -0 0 1
    outer loop
      vertex -48.5934 6.13981 43.6
      vertex -48.6061 6.06663 43.6
      vertex -48.589 6.15124 43.6
    endloop
  endfacet
  facet normal -0 0 1
    outer loop
      vertex -48.5972 6.12813 43.6
      vertex -48.6061 6.06663 43.6
      vertex -48.5934 6.13981 43.6
    endloop
  endfacet
  facet normal -0 0 1
    outer loop
      vertex -48.6003 6.11621 43.6
      vertex -48.6028 6.10409 43.6
      vertex -48.5972 6.12813 43.6
    endloop
  endfacet
  facet normal -0 0 1
    outer loop
      vertex -48.6028 6.10409 43.6
      vertex -48.6057 6.07927 43.6
      vertex -48.5972 6.12813 43.6
    endloop
  endfacet
  facet normal -0 0 1
    outer loop
      vertex -48.6046 6.09177 43.6
      vertex -48.6057 6.07927 43.6
      vertex -48.6028 6.10409 43.6
    endloop
  endfacet
  facet normal -0 0 1
    outer loop
      vertex -48.6057 6.07927 43.6
      vertex -48.6061 6.06663 43.6
      vertex -48.5972 6.12813 43.6
    endloop
  endfacet
  facet normal -0.999491 -0.0319071 0
    outer loop
      vertex -48.6057 -5.85604 2
      vertex -48.6061 -5.84351 43.6
      vertex -48.6061 -5.84351 2
    endloop
  endfacet
  facet normal -0.999491 -0.0319071 0
    outer loop
      vertex -48.6057 -5.85604 2
      vertex -48.6057 -5.85604 43.6
      vertex -48.6061 -5.84351 43.6
    endloop
  endfacet
  facet normal -0.996088 -0.0883627 0
    outer loop
      vertex -48.6046 -5.86844 2
      vertex -48.6057 -5.85604 43.6
      vertex -48.6057 -5.85604 2
    endloop
  endfacet
  facet normal -0.996088 -0.0883627 0
    outer loop
      vertex -48.6046 -5.86844 2
      vertex -48.6046 -5.86844 43.6
      vertex -48.6057 -5.85604 43.6
    endloop
  endfacet
  facet normal -0.989325 -0.145727 0
    outer loop
      vertex -48.6028 -5.88066 2
      vertex -48.6046 -5.86844 43.6
      vertex -48.6046 -5.86844 2
    endloop
  endfacet
  facet normal -0.989325 -0.145727 0
    outer loop
      vertex -48.6028 -5.88066 2
      vertex -48.6028 -5.88066 43.6
      vertex -48.6046 -5.86844 43.6
    endloop
  endfacet
  facet normal -0.979149 -0.203143 0
    outer loop
      vertex -48.6003 -5.89271 2
      vertex -48.6028 -5.88066 43.6
      vertex -48.6028 -5.88066 2
    endloop
  endfacet
  facet normal -0.979149 -0.203143 0
    outer loop
      vertex -48.6003 -5.89271 2
      vertex -48.6003 -5.89271 43.6
      vertex -48.6028 -5.88066 43.6
    endloop
  endfacet
  facet normal -0.967391 -0.253287 0
    outer loop
      vertex -48.5972 -5.90455 2
      vertex -48.6003 -5.89271 43.6
      vertex -48.6003 -5.89271 2
    endloop
  endfacet
  facet normal -0.967391 -0.253287 0
    outer loop
      vertex -48.5972 -5.90455 2
      vertex -48.5972 -5.90455 43.6
      vertex -48.6003 -5.89271 43.6
    endloop
  endfacet
  facet normal -0.950467 -0.310824 0
    outer loop
      vertex -48.5934 -5.91617 2
      vertex -48.5972 -5.90455 43.6
      vertex -48.5972 -5.90455 2
    endloop
  endfacet
  facet normal -0.950467 -0.310824 0
    outer loop
      vertex -48.5934 -5.91617 2
      vertex -48.5934 -5.91617 43.6
      vertex -48.5972 -5.90455 43.6
    endloop
  endfacet
  facet normal -0.932497 -0.361178 0
    outer loop
      vertex -48.589 -5.92753 2
      vertex -48.5934 -5.91617 43.6
      vertex -48.5934 -5.91617 2
    endloop
  endfacet
  facet normal -0.932497 -0.361178 0
    outer loop
      vertex -48.589 -5.92753 2
      vertex -48.589 -5.92753 43.6
      vertex -48.5934 -5.91617 43.6
    endloop
  endfacet
  facet normal -0.91149 -0.411322 0
    outer loop
      vertex -48.584 -5.93861 2
      vertex -48.589 -5.92753 43.6
      vertex -48.589 -5.92753 2
    endloop
  endfacet
  facet normal -0.91149 -0.411322 0
    outer loop
      vertex -48.584 -5.93861 2
      vertex -48.584 -5.93861 43.6
      vertex -48.589 -5.92753 43.6
    endloop
  endfacet
  facet normal -0.887755 -0.460317 0
    outer loop
      vertex -48.5784 -5.94941 2
      vertex -48.584 -5.93861 43.6
      vertex -48.584 -5.93861 2
    endloop
  endfacet
  facet normal -0.887755 -0.460317 0
    outer loop
      vertex -48.5784 -5.94941 2
      vertex -48.5784 -5.94941 43.6
      vertex -48.584 -5.93861 43.6
    endloop
  endfacet
  facet normal -0.860665 -0.509172 0
    outer loop
      vertex -48.5722 -5.95989 2
      vertex -48.5784 -5.94941 43.6
      vertex -48.5784 -5.94941 2
    endloop
  endfacet
  facet normal -0.860665 -0.509172 0
    outer loop
      vertex -48.5722 -5.95989 2
      vertex -48.5722 -5.95989 43.6
      vertex -48.5784 -5.94941 43.6
    endloop
  endfacet
  facet normal -0.834322 -0.551278 0
    outer loop
      vertex -48.5655 -5.97003 2
      vertex -48.5722 -5.95989 43.6
      vertex -48.5722 -5.95989 2
    endloop
  endfacet
  facet normal -0.834322 -0.551278 0
    outer loop
      vertex -48.5655 -5.97003 2
      vertex -48.5655 -5.97003 43.6
      vertex -48.5722 -5.95989 43.6
    endloop
  endfacet
  facet normal -0.805593 -0.592469 0
    outer loop
      vertex -48.5583 -5.97982 2
      vertex -48.5655 -5.97003 43.6
      vertex -48.5655 -5.97003 2
    endloop
  endfacet
  facet normal -0.805593 -0.592469 0
    outer loop
      vertex -48.5583 -5.97982 2
      vertex -48.5583 -5.97982 43.6
      vertex -48.5655 -5.97003 43.6
    endloop
  endfacet
  facet normal -0.773921 -0.633283 0
    outer loop
      vertex -48.5506 -5.98923 2
      vertex -48.5583 -5.97982 43.6
      vertex -48.5583 -5.97982 2
    endloop
  endfacet
  facet normal -0.773921 -0.633283 0
    outer loop
      vertex -48.5506 -5.98923 2
      vertex -48.5506 -5.98923 43.6
      vertex -48.5583 -5.97982 43.6
    endloop
  endfacet
  facet normal -0.743294 -0.668965 0
    outer loop
      vertex -48.5425 -5.99823 2
      vertex -48.5506 -5.98923 43.6
      vertex -48.5506 -5.98923 2
    endloop
  endfacet
  facet normal -0.743294 -0.668965 0
    outer loop
      vertex -48.5425 -5.99823 2
      vertex -48.5425 -5.99823 43.6
      vertex -48.5506 -5.98923 43.6
    endloop
  endfacet
  facet normal -0.706695 -0.707518 0
    outer loop
      vertex -48.5339 -6.00682 2
      vertex -48.5425 -5.99823 43.6
      vertex -48.5425 -5.99823 2
    endloop
  endfacet
  facet normal -0.706695 -0.707518 0
    outer loop
      vertex -48.5339 -6.00682 2
      vertex -48.5339 -6.00682 43.6
      vertex -48.5425 -5.99823 43.6
    endloop
  endfacet
  facet normal -0.666699 -0.745327 0
    outer loop
      vertex -48.5248 -6.01496 2
      vertex -48.5339 -6.00682 43.6
      vertex -48.5339 -6.00682 2
    endloop
  endfacet
  facet normal -0.666699 -0.745327 0
    outer loop
      vertex -48.5248 -6.01496 2
      vertex -48.5248 -6.01496 43.6
      vertex -48.5339 -6.00682 43.6
    endloop
  endfacet
  facet normal -0.63171 -0.775205 0
    outer loop
      vertex -48.5154 -6.02262 2
      vertex -48.5248 -6.01496 43.6
      vertex -48.5248 -6.01496 2
    endloop
  endfacet
  facet normal -0.63171 -0.775205 0
    outer loop
      vertex -48.5154 -6.02262 2
      vertex -48.5154 -6.02262 43.6
      vertex -48.5248 -6.01496 43.6
    endloop
  endfacet
  facet normal -0.590471 -0.807059 0
    outer loop
      vertex -48.5056 -6.02979 2
      vertex -48.5154 -6.02262 43.6
      vertex -48.5154 -6.02262 2
    endloop
  endfacet
  facet normal -0.590471 -0.807059 0
    outer loop
      vertex -48.5056 -6.02979 2
      vertex -48.5056 -6.02979 43.6
      vertex -48.5154 -6.02262 43.6
    endloop
  endfacet
  facet normal -0.547294 -0.836941 0
    outer loop
      vertex -48.4954 -6.03646 2
      vertex -48.5056 -6.02979 43.6
      vertex -48.5056 -6.02979 2
    endloop
  endfacet
  facet normal -0.547294 -0.836941 0
    outer loop
      vertex -48.4954 -6.03646 2
      vertex -48.4954 -6.03646 43.6
      vertex -48.5056 -6.02979 43.6
    endloop
  endfacet
  facet normal -0.504178 -0.8636 0
    outer loop
      vertex -48.4849 -6.04259 2
      vertex -48.4954 -6.03646 43.6
      vertex -48.4954 -6.03646 2
    endloop
  endfacet
  facet normal -0.504178 -0.8636 0
    outer loop
      vertex -48.4849 -6.04259 2
      vertex -48.4849 -6.04259 43.6
      vertex -48.4954 -6.03646 43.6
    endloop
  endfacet
  facet normal -0.456979 -0.889477 0
    outer loop
      vertex -48.474 -6.04819 2
      vertex -48.4849 -6.04259 43.6
      vertex -48.4849 -6.04259 2
    endloop
  endfacet
  facet normal -0.456979 -0.889477 0
    outer loop
      vertex -48.474 -6.04819 2
      vertex -48.474 -6.04819 43.6
      vertex -48.4849 -6.04259 43.6
    endloop
  endfacet
  facet normal -0.407651 -0.913138 0
    outer loop
      vertex -48.4628 -6.05319 2
      vertex -48.474 -6.04819 43.6
      vertex -48.474 -6.04819 2
    endloop
  endfacet
  facet normal -0.407651 -0.913138 0
    outer loop
      vertex -48.4628 -6.05319 2
      vertex -48.4628 -6.05319 43.6
      vertex -48.474 -6.04819 43.6
    endloop
  endfacet
  facet normal -0.361499 -0.932373 0
    outer loop
      vertex -48.4514 -6.05761 2
      vertex -48.4628 -6.05319 43.6
      vertex -48.4628 -6.05319 2
    endloop
  endfacet
  facet normal -0.361499 -0.932373 0
    outer loop
      vertex -48.4514 -6.05761 2
      vertex -48.4514 -6.05761 43.6
      vertex -48.4628 -6.05319 43.6
    endloop
  endfacet
  facet normal -0.30743 -0.951571 0
    outer loop
      vertex -48.4397 -6.06139 2
      vertex -48.4514 -6.05761 43.6
      vertex -48.4514 -6.05761 2
    endloop
  endfacet
  facet normal -0.30743 -0.951571 0
    outer loop
      vertex -48.4397 -6.06139 2
      vertex -48.4397 -6.06139 43.6
      vertex -48.4514 -6.05761 43.6
    endloop
  endfacet
  facet normal -0.255893 -0.966705 0
    outer loop
      vertex -48.4278 -6.06454 2
      vertex -48.4397 -6.06139 43.6
      vertex -48.4397 -6.06139 2
    endloop
  endfacet
  facet normal -0.255893 -0.966705 0
    outer loop
      vertex -48.4278 -6.06454 2
      vertex -48.4278 -6.06454 43.6
      vertex -48.4397 -6.06139 43.6
    endloop
  endfacet
  facet normal -0.201562 -0.979476 0
    outer loop
      vertex -48.4157 -6.06703 2
      vertex -48.4278 -6.06454 43.6
      vertex -48.4278 -6.06454 2
    endloop
  endfacet
  facet normal -0.201562 -0.979476 0
    outer loop
      vertex -48.4157 -6.06703 2
      vertex -48.4157 -6.06703 43.6
      vertex -48.4278 -6.06454 43.6
    endloop
  endfacet
  facet normal -0.145587 -0.989346 0
    outer loop
      vertex -48.4034 -6.06884 2
      vertex -48.4157 -6.06703 43.6
      vertex -48.4157 -6.06703 2
    endloop
  endfacet
  facet normal -0.145587 -0.989346 0
    outer loop
      vertex -48.4034 -6.06884 2
      vertex -48.4034 -6.06884 43.6
      vertex -48.4157 -6.06703 43.6
    endloop
  endfacet
  facet normal -0.0868704 -0.99622 0
    outer loop
      vertex -48.3909 -6.06993 2
      vertex -48.4034 -6.06884 43.6
      vertex -48.4034 -6.06884 2
    endloop
  endfacet
  facet normal -0.0868704 -0.99622 0
    outer loop
      vertex -48.3909 -6.06993 2
      vertex -48.3909 -6.06993 43.6
      vertex -48.4034 -6.06884 43.6
    endloop
  endfacet
  facet normal -0.0482969 -0.998833 0
    outer loop
      vertex -0.391763 -8.39085 2
      vertex -48.3909 -6.06993 43.6
      vertex -48.3909 -6.06993 2
    endloop
  endfacet
  facet normal -0.0482969 -0.998833 0
    outer loop
      vertex -0.391763 -8.39085 2
      vertex -0.391763 -8.39085 43.6
      vertex -48.3909 -6.06993 43.6
    endloop
  endfacet
  facet normal -0.0310796 -0.999517 0
    outer loop
      vertex -0.130625 -8.39897 2
      vertex -0.391763 -8.39085 43.6
      vertex -0.391763 -8.39085 2
    endloop
  endfacet
  facet normal -0.0310796 -0.999517 0
    outer loop
      vertex -0.130625 -8.39897 2
      vertex -0.130625 -8.39897 43.6
      vertex -0.391763 -8.39085 43.6
    endloop
  endfacet
  facet normal 0 -1 0
    outer loop
      vertex 0.130625 -8.39897 2
      vertex -0.130625 -8.39897 43.6
      vertex -0.130625 -8.39897 2
    endloop
  endfacet
  facet normal 0 -1 0
    outer loop
      vertex 0.130625 -8.39897 2
      vertex 0.130625 -8.39897 43.6
      vertex -0.130625 -8.39897 43.6
    endloop
  endfacet
  facet normal 0.0310796 -0.999517 0
    outer loop
      vertex 0.391763 -8.39085 2
      vertex 0.130625 -8.39897 43.6
      vertex 0.130625 -8.39897 2
    endloop
  endfacet
  facet normal 0.0310796 -0.999517 0
    outer loop
      vertex 0.391763 -8.39085 2
      vertex 0.391763 -8.39085 43.6
      vertex 0.130625 -8.39897 43.6
    endloop
  endfacet
  facet normal 0.0494004 -0.998779 0
    outer loop
      vertex 47.3162 -6.06993 2
      vertex 0.391763 -8.39085 43.6
      vertex 0.391763 -8.39085 2
    endloop
  endfacet
  facet normal 0.0494004 -0.998779 0
    outer loop
      vertex 47.3162 -6.06993 2
      vertex 47.3162 -6.06993 43.6
      vertex 0.391763 -8.39085 43.6
    endloop
  endfacet
  facet normal 0.0868704 -0.99622 0
    outer loop
      vertex 47.3287 -6.06884 2
      vertex 47.3162 -6.06993 43.6
      vertex 47.3162 -6.06993 2
    endloop
  endfacet
  facet normal 0.0868704 -0.99622 0
    outer loop
      vertex 47.3287 -6.06884 2
      vertex 47.3287 -6.06884 43.6
      vertex 47.3162 -6.06993 43.6
    endloop
  endfacet
  facet normal 0.144437 -0.989514 0
    outer loop
      vertex 47.3411 -6.06703 2
      vertex 47.3287 -6.06884 43.6
      vertex 47.3287 -6.06884 2
    endloop
  endfacet
  facet normal 0.144437 -0.989514 0
    outer loop
      vertex 47.3411 -6.06703 2
      vertex 47.3411 -6.06703 43.6
      vertex 47.3287 -6.06884 43.6
    endloop
  endfacet
  facet normal 0.201562 -0.979476 0
    outer loop
      vertex 47.3532 -6.06454 2
      vertex 47.3411 -6.06703 43.6
      vertex 47.3411 -6.06703 2
    endloop
  endfacet
  facet normal 0.201562 -0.979476 0
    outer loop
      vertex 47.3532 -6.06454 2
      vertex 47.3532 -6.06454 43.6
      vertex 47.3411 -6.06703 43.6
    endloop
  endfacet
  facet normal 0.255893 -0.966705 0
    outer loop
      vertex 47.3651 -6.06139 2
      vertex 47.3532 -6.06454 43.6
      vertex 47.3532 -6.06454 2
    endloop
  endfacet
  facet normal 0.255893 -0.966705 0
    outer loop
      vertex 47.3651 -6.06139 2
      vertex 47.3651 -6.06139 43.6
      vertex 47.3532 -6.06454 43.6
    endloop
  endfacet
  facet normal 0.30743 -0.951571 0
    outer loop
      vertex 47.3768 -6.05761 2
      vertex 47.3651 -6.06139 43.6
      vertex 47.3651 -6.06139 2
    endloop
  endfacet
  facet normal 0.30743 -0.951571 0
    outer loop
      vertex 47.3768 -6.05761 2
      vertex 47.3768 -6.05761 43.6
      vertex 47.3651 -6.06139 43.6
    endloop
  endfacet
  facet normal 0.361499 -0.932373 0
    outer loop
      vertex 47.3882 -6.05319 2
      vertex 47.3768 -6.05761 43.6
      vertex 47.3768 -6.05761 2
    endloop
  endfacet
  facet normal 0.361499 -0.932373 0
    outer loop
      vertex 47.3882 -6.05319 2
      vertex 47.3882 -6.05319 43.6
      vertex 47.3768 -6.05761 43.6
    endloop
  endfacet
  facet normal 0.407651 -0.913138 0
    outer loop
      vertex 47.3994 -6.04819 2
      vertex 47.3882 -6.05319 43.6
      vertex 47.3882 -6.05319 2
    endloop
  endfacet
  facet normal 0.407651 -0.913138 0
    outer loop
      vertex 47.3994 -6.04819 2
      vertex 47.3994 -6.04819 43.6
      vertex 47.3882 -6.05319 43.6
    endloop
  endfacet
  facet normal 0.460317 -0.887755 0
    outer loop
      vertex 47.4102 -6.04259 2
      vertex 47.3994 -6.04819 43.6
      vertex 47.3994 -6.04819 2
    endloop
  endfacet
  facet normal 0.460317 -0.887755 0
    outer loop
      vertex 47.4102 -6.04259 2
      vertex 47.4102 -6.04259 43.6
      vertex 47.3994 -6.04819 43.6
    endloop
  endfacet
  facet normal 0.504178 -0.8636 0
    outer loop
      vertex 47.4207 -6.03646 2
      vertex 47.4102 -6.04259 43.6
      vertex 47.4102 -6.04259 2
    endloop
  endfacet
  facet normal 0.504178 -0.8636 0
    outer loop
      vertex 47.4207 -6.03646 2
      vertex 47.4207 -6.03646 43.6
      vertex 47.4102 -6.04259 43.6
    endloop
  endfacet
  facet normal 0.547294 -0.836941 0
    outer loop
      vertex 47.4309 -6.02979 2
      vertex 47.4207 -6.03646 43.6
      vertex 47.4207 -6.03646 2
    endloop
  endfacet
  facet normal 0.547294 -0.836941 0
    outer loop
      vertex 47.4309 -6.02979 2
      vertex 47.4309 -6.02979 43.6
      vertex 47.4207 -6.03646 43.6
    endloop
  endfacet
  facet normal 0.586565 -0.809902 0
    outer loop
      vertex 47.4408 -6.02262 2
      vertex 47.4309 -6.02979 43.6
      vertex 47.4309 -6.02979 2
    endloop
  endfacet
  facet normal 0.586565 -0.809902 0
    outer loop
      vertex 47.4408 -6.02262 2
      vertex 47.4408 -6.02262 43.6
      vertex 47.4309 -6.02979 43.6
    endloop
  endfacet
  facet normal 0.63171 -0.775205 0
    outer loop
      vertex 47.4502 -6.01496 2
      vertex 47.4408 -6.02262 43.6
      vertex 47.4408 -6.02262 2
    endloop
  endfacet
  facet normal 0.63171 -0.775205 0
    outer loop
      vertex 47.4502 -6.01496 2
      vertex 47.4502 -6.01496 43.6
      vertex 47.4408 -6.02262 43.6
    endloop
  endfacet
  facet normal 0.670784 -0.741653 0
    outer loop
      vertex 47.4592 -6.00682 2
      vertex 47.4502 -6.01496 43.6
      vertex 47.4502 -6.01496 2
    endloop
  endfacet
  facet normal 0.670784 -0.741653 0
    outer loop
      vertex 47.4592 -6.00682 2
      vertex 47.4592 -6.00682 43.6
      vertex 47.4502 -6.01496 43.6
    endloop
  endfacet
  facet normal 0.706695 -0.707518 0
    outer loop
      vertex 47.4678 -5.99823 2
      vertex 47.4592 -6.00682 43.6
      vertex 47.4592 -6.00682 2
    endloop
  endfacet
  facet normal 0.706695 -0.707518 0
    outer loop
      vertex 47.4678 -5.99823 2
      vertex 47.4678 -5.99823 43.6
      vertex 47.4592 -6.00682 43.6
    endloop
  endfacet
  facet normal 0.739196 -0.67349 0
    outer loop
      vertex 47.476 -5.98923 2
      vertex 47.4678 -5.99823 43.6
      vertex 47.4678 -5.99823 2
    endloop
  endfacet
  facet normal 0.739196 -0.67349 0
    outer loop
      vertex 47.476 -5.98923 2
      vertex 47.476 -5.98923 43.6
      vertex 47.4678 -5.99823 43.6
    endloop
  endfacet
  facet normal 0.773921 -0.633283 0
    outer loop
      vertex 47.4837 -5.97982 2
      vertex 47.476 -5.98923 43.6
      vertex 47.476 -5.98923 2
    endloop
  endfacet
  facet normal 0.773921 -0.633283 0
    outer loop
      vertex 47.4837 -5.97982 2
      vertex 47.4837 -5.97982 43.6
      vertex 47.476 -5.98923 43.6
    endloop
  endfacet
  facet normal 0.805593 -0.592469 0
    outer loop
      vertex 47.4909 -5.97003 2
      vertex 47.4837 -5.97982 43.6
      vertex 47.4837 -5.97982 2
    endloop
  endfacet
  facet normal 0.805593 -0.592469 0
    outer loop
      vertex 47.4909 -5.97003 2
      vertex 47.4909 -5.97003 43.6
      vertex 47.4837 -5.97982 43.6
    endloop
  endfacet
  facet normal 0.834322 -0.551278 0
    outer loop
      vertex 47.4976 -5.95989 2
      vertex 47.4909 -5.97003 43.6
      vertex 47.4909 -5.97003 2
    endloop
  endfacet
  facet normal 0.834322 -0.551278 0
    outer loop
      vertex 47.4976 -5.95989 2
      vertex 47.4976 -5.95989 43.6
      vertex 47.4909 -5.97003 43.6
    endloop
  endfacet
  facet normal 0.864257 -0.50305 0
    outer loop
      vertex 47.5037 -5.94941 2
      vertex 47.4976 -5.95989 43.6
      vertex 47.4976 -5.95989 2
    endloop
  endfacet
  facet normal 0.864257 -0.50305 0
    outer loop
      vertex 47.5037 -5.94941 2
      vertex 47.5037 -5.94941 43.6
      vertex 47.4976 -5.95989 43.6
    endloop
  endfacet
  facet normal 0.887755 -0.460317 0
    outer loop
      vertex 47.5093 -5.93861 2
      vertex 47.5037 -5.94941 43.6
      vertex 47.5037 -5.94941 2
    endloop
  endfacet
  facet normal 0.887755 -0.460317 0
    outer loop
      vertex 47.5093 -5.93861 2
      vertex 47.5093 -5.93861 43.6
      vertex 47.5037 -5.94941 43.6
    endloop
  endfacet
  facet normal 0.91149 -0.411322 0
    outer loop
      vertex 47.5143 -5.92753 2
      vertex 47.5093 -5.93861 43.6
      vertex 47.5093 -5.93861 2
    endloop
  endfacet
  facet normal 0.91149 -0.411322 0
    outer loop
      vertex 47.5143 -5.92753 2
      vertex 47.5143 -5.92753 43.6
      vertex 47.5093 -5.93861 43.6
    endloop
  endfacet
  facet normal 0.932497 -0.361178 0
    outer loop
      vertex 47.5187 -5.91617 2
      vertex 47.5143 -5.92753 43.6
      vertex 47.5143 -5.92753 2
    endloop
  endfacet
  facet normal 0.932497 -0.361178 0
    outer loop
      vertex 47.5187 -5.91617 2
      vertex 47.5187 -5.91617 43.6
      vertex 47.5143 -5.92753 43.6
    endloop
  endfacet
  facet normal 0.950467 -0.310824 0
    outer loop
      vertex 47.5225 -5.90455 2
      vertex 47.5187 -5.91617 43.6
      vertex 47.5187 -5.91617 2
    endloop
  endfacet
  facet normal 0.950467 -0.310824 0
    outer loop
      vertex 47.5225 -5.90455 2
      vertex 47.5225 -5.90455 43.6
      vertex 47.5187 -5.91617 43.6
    endloop
  endfacet
  facet normal 0.965363 -0.260909 0
    outer loop
      vertex 47.5257 -5.89271 2
      vertex 47.5225 -5.90455 43.6
      vertex 47.5225 -5.90455 2
    endloop
  endfacet
  facet normal 0.965363 -0.260909 0
    outer loop
      vertex 47.5257 -5.89271 2
      vertex 47.5257 -5.89271 43.6
      vertex 47.5225 -5.90455 43.6
    endloop
  endfacet
  facet normal 0.968788 -0.247892 0
    outer loop
      vertex 49.276 0.947637 2
      vertex 47.5257 -5.89271 43.6
      vertex 47.5257 -5.89271 2
    endloop
  endfacet
  facet normal 0.968788 -0.247892 0
    outer loop
      vertex 49.276 0.947637 2
      vertex 49.276 0.947637 43.6
      vertex 47.5257 -5.89271 43.6
    endloop
  endfacet
  facet normal 0.979412 -0.201874 0
    outer loop
      vertex 49.2785 0.959766 2
      vertex 49.276 0.947637 43.6
      vertex 49.276 0.947637 2
    endloop
  endfacet
  facet normal 0.979412 -0.201874 0
    outer loop
      vertex 49.2785 0.959766 2
      vertex 49.2785 0.959766 43.6
      vertex 49.276 0.947637 43.6
    endloop
  endfacet
  facet normal 0.989522 -0.144385 0
    outer loop
      vertex 49.2803 0.972102 2
      vertex 49.2785 0.959766 43.6
      vertex 49.2785 0.959766 2
    endloop
  endfacet
  facet normal 0.989522 -0.144385 0
    outer loop
      vertex 49.2803 0.972102 2
      vertex 49.2803 0.972102 43.6
      vertex 49.2785 0.959766 43.6
    endloop
  endfacet
  facet normal 0.996139 -0.0877937 0
    outer loop
      vertex 49.2814 0.984583 2
      vertex 49.2803 0.972102 43.6
      vertex 49.2803 0.972102 2
    endloop
  endfacet
  facet normal 0.996139 -0.0877937 0
    outer loop
      vertex 49.2814 0.984583 2
      vertex 49.2814 0.984583 43.6
      vertex 49.2803 0.972102 43.6
    endloop
  endfacet
  facet normal 0.9995 -0.0316272 0
    outer loop
      vertex 49.2818 0.997224 2
      vertex 49.2814 0.984583 43.6
      vertex 49.2814 0.984583 2
    endloop
  endfacet
  facet normal 0.9995 -0.0316272 0
    outer loop
      vertex 49.2818 0.997224 2
      vertex 49.2818 0.997224 43.6
      vertex 49.2814 0.984583 43.6
    endloop
  endfacet
  facet normal 1 0 0
    outer loop
      vertex 49.2818 5.83039 2
      vertex 49.2818 0.997224 43.6
      vertex 49.2818 0.997224 2
    endloop
  endfacet
  facet normal 1 0 -0
    outer loop
      vertex 49.2818 5.83039 2
      vertex 49.2818 5.83039 43.6
      vertex 49.2818 0.997224 43.6
    endloop
  endfacet
  facet normal 0.994931 0.100564 0
    outer loop
      vertex 49.2756 5.89173 2
      vertex 49.2818 5.83039 43.6
      vertex 49.2818 5.83039 2
    endloop
  endfacet
  facet normal 0.994931 0.100564 -0
    outer loop
      vertex 49.2756 5.89173 2
      vertex 49.2756 5.89173 43.6
      vertex 49.2818 5.83039 43.6
    endloop
  endfacet
  facet normal 0.953367 0.301814 0
    outer loop
      vertex 49.2574 5.94922 2
      vertex 49.2756 5.89173 43.6
      vertex 49.2756 5.89173 2
    endloop
  endfacet
  facet normal 0.953367 0.301814 -0
    outer loop
      vertex 49.2574 5.94922 2
      vertex 49.2574 5.94922 43.6
      vertex 49.2756 5.89173 43.6
    endloop
  endfacet
  facet normal 0.877409 0.479744 0
    outer loop
      vertex 49.228 6.00299 2
      vertex 49.2574 5.94922 43.6
      vertex 49.2574 5.94922 2
    endloop
  endfacet
  facet normal 0.877409 0.479744 -0
    outer loop
      vertex 49.228 6.00299 2
      vertex 49.228 6.00299 43.6
      vertex 49.2574 5.94922 43.6
    endloop
  endfacet
  facet normal 0.783941 0.620835 0
    outer loop
      vertex 49.1883 6.05312 2
      vertex 49.228 6.00299 43.6
      vertex 49.228 6.00299 2
    endloop
  endfacet
  facet normal 0.783941 0.620835 -0
    outer loop
      vertex 49.1883 6.05312 2
      vertex 49.1883 6.05312 43.6
      vertex 49.228 6.00299 43.6
    endloop
  endfacet
  facet normal 0.687393 0.726286 0
    outer loop
      vertex 49.139 6.09978 2
      vertex 49.1883 6.05312 43.6
      vertex 49.1883 6.05312 2
    endloop
  endfacet
  facet normal 0.687393 0.726286 -0
    outer loop
      vertex 49.139 6.09978 2
      vertex 49.139 6.09978 43.6
      vertex 49.1883 6.05312 43.6
    endloop
  endfacet
  facet normal 0.59748 0.801884 0
    outer loop
      vertex 49.0809 6.14307 2
      vertex 49.139 6.09978 43.6
      vertex 49.139 6.09978 2
    endloop
  endfacet
  facet normal 0.59748 0.801884 -0
    outer loop
      vertex 49.0809 6.14307 2
      vertex 49.0809 6.14307 43.6
      vertex 49.139 6.09978 43.6
    endloop
  endfacet
  facet normal 0.518201 0.855259 0
    outer loop
      vertex 49.0148 6.18312 2
      vertex 49.0809 6.14307 43.6
      vertex 49.0809 6.14307 2
    endloop
  endfacet
  facet normal 0.518201 0.855259 -0
    outer loop
      vertex 49.0148 6.18312 2
      vertex 49.0148 6.18312 43.6
      vertex 49.0809 6.14307 43.6
    endloop
  endfacet
  facet normal 0.450135 0.892961 0
    outer loop
      vertex 48.9415 6.22007 2
      vertex 49.0148 6.18312 43.6
      vertex 49.0148 6.18312 2
    endloop
  endfacet
  facet normal 0.450135 0.892961 -0
    outer loop
      vertex 48.9415 6.22007 2
      vertex 48.9415 6.22007 43.6
      vertex 49.0148 6.18312 43.6
    endloop
  endfacet
  facet normal 0.391703 0.920092 0
    outer loop
      vertex 48.8618 6.254 2
      vertex 48.9415 6.22007 43.6
      vertex 48.9415 6.22007 2
    endloop
  endfacet
  facet normal 0.391703 0.920092 -0
    outer loop
      vertex 48.8618 6.254 2
      vertex 48.8618 6.254 43.6
      vertex 48.9415 6.22007 43.6
    endloop
  endfacet
  facet normal 0.34199 0.939703 0
    outer loop
      vertex 48.7764 6.28508 2
      vertex 48.8618 6.254 43.6
      vertex 48.8618 6.254 2
    endloop
  endfacet
  facet normal 0.34199 0.939703 -0
    outer loop
      vertex 48.7764 6.28508 2
      vertex 48.7764 6.28508 43.6
      vertex 48.8618 6.254 43.6
    endloop
  endfacet
  facet normal 0.299538 0.954084 0
    outer loop
      vertex 48.6861 6.31343 2
      vertex 48.7764 6.28508 43.6
      vertex 48.7764 6.28508 2
    endloop
  endfacet
  facet normal 0.299538 0.954084 -0
    outer loop
      vertex 48.6861 6.31343 2
      vertex 48.6861 6.31343 43.6
      vertex 48.7764 6.28508 43.6
    endloop
  endfacet
  facet normal 0.263039 0.964785 0
    outer loop
      vertex 48.5918 6.33914 2
      vertex 48.6861 6.31343 43.6
      vertex 48.6861 6.31343 2
    endloop
  endfacet
  facet normal 0.263039 0.964785 -0
    outer loop
      vertex 48.5918 6.33914 2
      vertex 48.5918 6.33914 43.6
      vertex 48.6861 6.31343 43.6
    endloop
  endfacet
  facet normal 0.23145 0.972847 0
    outer loop
      vertex 48.4942 6.36236 2
      vertex 48.5918 6.33914 43.6
      vertex 48.5918 6.33914 2
    endloop
  endfacet
  facet normal 0.23145 0.972847 -0
    outer loop
      vertex 48.4942 6.36236 2
      vertex 48.4942 6.36236 43.6
      vertex 48.5918 6.33914 43.6
    endloop
  endfacet
  facet normal 0.204009 0.978969 0
    outer loop
      vertex 48.3941 6.38322 2
      vertex 48.4942 6.36236 43.6
      vertex 48.4942 6.36236 2
    endloop
  endfacet
  facet normal 0.204009 0.978969 -0
    outer loop
      vertex 48.3941 6.38322 2
      vertex 48.3941 6.38322 43.6
      vertex 48.4942 6.36236 43.6
    endloop
  endfacet
  facet normal 0.179736 0.983715 0
    outer loop
      vertex 48.2923 6.40182 2
      vertex 48.3941 6.38322 43.6
      vertex 48.3941 6.38322 2
    endloop
  endfacet
  facet normal 0.179736 0.983715 -0
    outer loop
      vertex 48.2923 6.40182 2
      vertex 48.2923 6.40182 43.6
      vertex 48.3941 6.38322 43.6
    endloop
  endfacet
  facet normal 0.15844 0.987369 0
    outer loop
      vertex 48.1896 6.4183 2
      vertex 48.2923 6.40182 43.6
      vertex 48.2923 6.40182 2
    endloop
  endfacet
  facet normal 0.15844 0.987369 -0
    outer loop
      vertex 48.1896 6.4183 2
      vertex 48.1896 6.4183 43.6
      vertex 48.2923 6.40182 43.6
    endloop
  endfacet
  facet normal 0.139441 0.99023 0
    outer loop
      vertex 48.0867 6.43279 2
      vertex 48.1896 6.4183 43.6
      vertex 48.1896 6.4183 2
    endloop
  endfacet
  facet normal 0.139441 0.99023 -0
    outer loop
      vertex 48.0867 6.43279 2
      vertex 48.0867 6.43279 43.6
      vertex 48.1896 6.4183 43.6
    endloop
  endfacet
  facet normal 0.122457 0.992474 0
    outer loop
      vertex 47.9845 6.4454 2
      vertex 48.0867 6.43279 43.6
      vertex 48.0867 6.43279 2
    endloop
  endfacet
  facet normal 0.122457 0.992474 -0
    outer loop
      vertex 47.9845 6.4454 2
      vertex 47.9845 6.4454 43.6
      vertex 48.0867 6.43279 43.6
    endloop
  endfacet
  facet normal 0.107419 0.994214 0
    outer loop
      vertex 47.8838 6.45628 2
      vertex 47.9845 6.4454 43.6
      vertex 47.9845 6.4454 2
    endloop
  endfacet
  facet normal 0.107419 0.994214 -0
    outer loop
      vertex 47.8838 6.45628 2
      vertex 47.8838 6.45628 43.6
      vertex 47.9845 6.4454 43.6
    endloop
  endfacet
  facet normal 0.0931967 0.995648 0
    outer loop
      vertex 47.7853 6.4655 2
      vertex 47.8838 6.45628 43.6
      vertex 47.8838 6.45628 2
    endloop
  endfacet
  facet normal 0.0931967 0.995648 -0
    outer loop
      vertex 47.7853 6.4655 2
      vertex 47.7853 6.4655 43.6
      vertex 47.8838 6.45628 43.6
    endloop
  endfacet
  facet normal 0.0809896 0.996715 0
    outer loop
      vertex 47.6898 6.47326 2
      vertex 47.7853 6.4655 43.6
      vertex 47.7853 6.4655 2
    endloop
  endfacet
  facet normal 0.0809896 0.996715 -0
    outer loop
      vertex 47.6898 6.47326 2
      vertex 47.6898 6.47326 43.6
      vertex 47.7853 6.4655 43.6
    endloop
  endfacet
  facet normal 0.0692656 0.997598 0
    outer loop
      vertex 47.5982 6.47962 2
      vertex 47.6898 6.47326 43.6
      vertex 47.6898 6.47326 2
    endloop
  endfacet
  facet normal 0.0692656 0.997598 -0
    outer loop
      vertex 47.5982 6.47962 2
      vertex 47.5982 6.47962 43.6
      vertex 47.6898 6.47326 43.6
    endloop
  endfacet
  facet normal 0.0585675 0.998283 0
    outer loop
      vertex 47.5111 6.48473 2
      vertex 47.5982 6.47962 43.6
      vertex 47.5982 6.47962 2
    endloop
  endfacet
  facet normal 0.0585675 0.998283 -0
    outer loop
      vertex 47.5111 6.48473 2
      vertex 47.5111 6.48473 43.6
      vertex 47.5982 6.47962 43.6
    endloop
  endfacet
  facet normal 0.0487791 0.99881 0
    outer loop
      vertex 47.4294 6.48872 2
      vertex 47.5111 6.48473 43.6
      vertex 47.5111 6.48473 2
    endloop
  endfacet
  facet normal 0.0487791 0.99881 -0
    outer loop
      vertex 47.4294 6.48872 2
      vertex 47.4294 6.48872 43.6
      vertex 47.5111 6.48473 43.6
    endloop
  endfacet
  facet normal 0.0404054 0.999183 0
    outer loop
      vertex 0.391763 8.39085 2
      vertex 47.4294 6.48872 43.6
      vertex 47.4294 6.48872 2
    endloop
  endfacet
  facet normal 0.0404054 0.999183 -0
    outer loop
      vertex 0.391763 8.39085 2
      vertex 0.391763 8.39085 43.6
      vertex 47.4294 6.48872 43.6
    endloop
  endfacet
  facet normal 0.0310796 0.999517 0
    outer loop
      vertex 0.130625 8.39897 2
      vertex 0.391763 8.39085 43.6
      vertex 0.391763 8.39085 2
    endloop
  endfacet
  facet normal 0.0310796 0.999517 -0
    outer loop
      vertex 0.130625 8.39897 2
      vertex 0.130625 8.39897 43.6
      vertex 0.391763 8.39085 43.6
    endloop
  endfacet
  facet normal 0 1 0
    outer loop
      vertex -0.130625 8.39897 2
      vertex 0.130625 8.39897 43.6
      vertex 0.130625 8.39897 2
    endloop
  endfacet
  facet normal 0 1 0
    outer loop
      vertex -0.130625 8.39897 2
      vertex -0.130625 8.39897 43.6
      vertex 0.130625 8.39897 43.6
    endloop
  endfacet
  facet normal -0.0310796 0.999517 0
    outer loop
      vertex -0.391763 8.39085 2
      vertex -0.130625 8.39897 43.6
      vertex -0.130625 8.39897 2
    endloop
  endfacet
  facet normal -0.0310796 0.999517 0
    outer loop
      vertex -0.391763 8.39085 2
      vertex -0.391763 8.39085 43.6
      vertex -0.130625 8.39897 43.6
    endloop
  endfacet
  facet normal -0.0436415 0.999047 0
    outer loop
      vertex -48.3909 6.2941 2
      vertex -0.391763 8.39085 43.6
      vertex -0.391763 8.39085 2
    endloop
  endfacet
  facet normal -0.0436415 0.999047 0
    outer loop
      vertex -48.3909 6.2941 2
      vertex -48.3909 6.2941 43.6
      vertex -0.391763 8.39085 43.6
    endloop
  endfacet
  facet normal -0.0868704 0.99622 0
    outer loop
      vertex -48.4034 6.29301 2
      vertex -48.3909 6.2941 43.6
      vertex -48.3909 6.2941 2
    endloop
  endfacet
  facet normal -0.0868704 0.99622 0
    outer loop
      vertex -48.4034 6.29301 2
      vertex -48.4034 6.29301 43.6
      vertex -48.3909 6.2941 43.6
    endloop
  endfacet
  facet normal -0.145587 0.989346 0
    outer loop
      vertex -48.4157 6.2912 2
      vertex -48.4034 6.29301 43.6
      vertex -48.4034 6.29301 2
    endloop
  endfacet
  facet normal -0.145587 0.989346 0
    outer loop
      vertex -48.4157 6.2912 2
      vertex -48.4157 6.2912 43.6
      vertex -48.4034 6.29301 43.6
    endloop
  endfacet
  facet normal -0.200785 0.979635 0
    outer loop
      vertex -48.4278 6.28872 2
      vertex -48.4157 6.2912 43.6
      vertex -48.4157 6.2912 2
    endloop
  endfacet
  facet normal -0.200785 0.979635 0
    outer loop
      vertex -48.4278 6.28872 2
      vertex -48.4278 6.28872 43.6
      vertex -48.4157 6.2912 43.6
    endloop
  endfacet
  facet normal -0.256651 0.966504 0
    outer loop
      vertex -48.4397 6.28556 2
      vertex -48.4278 6.28872 43.6
      vertex -48.4278 6.28872 2
    endloop
  endfacet
  facet normal -0.256651 0.966504 0
    outer loop
      vertex -48.4397 6.28556 2
      vertex -48.4397 6.28556 43.6
      vertex -48.4278 6.28872 43.6
    endloop
  endfacet
  facet normal -0.308167 0.951332 0
    outer loop
      vertex -48.4514 6.28177 2
      vertex -48.4397 6.28556 43.6
      vertex -48.4397 6.28556 2
    endloop
  endfacet
  facet normal -0.308167 0.951332 0
    outer loop
      vertex -48.4514 6.28177 2
      vertex -48.4514 6.28177 43.6
      vertex -48.4397 6.28556 43.6
    endloop
  endfacet
  facet normal -0.361499 0.932373 0
    outer loop
      vertex -48.4628 6.27735 2
      vertex -48.4514 6.28177 43.6
      vertex -48.4514 6.28177 2
    endloop
  endfacet
  facet normal -0.361499 0.932373 0
    outer loop
      vertex -48.4628 6.27735 2
      vertex -48.4628 6.27735 43.6
      vertex -48.4514 6.28177 43.6
    endloop
  endfacet
  facet normal -0.409009 0.91253 0
    outer loop
      vertex -48.474 6.27233 2
      vertex -48.4628 6.27735 43.6
      vertex -48.4628 6.27735 2
    endloop
  endfacet
  facet normal -0.409009 0.91253 0
    outer loop
      vertex -48.474 6.27233 2
      vertex -48.474 6.27233 43.6
      vertex -48.4628 6.27735 43.6
    endloop
  endfacet
  facet normal -0.456333 0.889809 0
    outer loop
      vertex -48.4849 6.26674 2
      vertex -48.474 6.27233 43.6
      vertex -48.474 6.27233 2
    endloop
  endfacet
  facet normal -0.456333 0.889809 0
    outer loop
      vertex -48.4849 6.26674 2
      vertex -48.4849 6.26674 43.6
      vertex -48.474 6.27233 43.6
    endloop
  endfacet
  facet normal -0.504791 0.863242 0
    outer loop
      vertex -48.4954 6.2606 2
      vertex -48.4849 6.26674 43.6
      vertex -48.4849 6.26674 2
    endloop
  endfacet
  facet normal -0.504791 0.863242 0
    outer loop
      vertex -48.4954 6.2606 2
      vertex -48.4954 6.2606 43.6
      vertex -48.4849 6.26674 43.6
    endloop
  endfacet
  facet normal -0.547868 0.836565 0
    outer loop
      vertex -48.5056 6.25392 2
      vertex -48.4954 6.2606 43.6
      vertex -48.4954 6.2606 2
    endloop
  endfacet
  facet normal -0.547868 0.836565 0
    outer loop
      vertex -48.5056 6.25392 2
      vertex -48.5056 6.25392 43.6
      vertex -48.4954 6.2606 43.6
    endloop
  endfacet
  facet normal -0.59261 0.805489 0
    outer loop
      vertex -48.5154 6.24671 2
      vertex -48.5056 6.25392 43.6
      vertex -48.5056 6.25392 2
    endloop
  endfacet
  facet normal -0.59261 0.805489 0
    outer loop
      vertex -48.5154 6.24671 2
      vertex -48.5154 6.24671 43.6
      vertex -48.5056 6.25392 43.6
    endloop
  endfacet
  facet normal -0.632205 0.774801 0
    outer loop
      vertex -48.5248 6.23904 2
      vertex -48.5154 6.24671 43.6
      vertex -48.5154 6.24671 2
    endloop
  endfacet
  facet normal -0.632205 0.774801 0
    outer loop
      vertex -48.5248 6.23904 2
      vertex -48.5248 6.23904 43.6
      vertex -48.5154 6.24671 43.6
    endloop
  endfacet
  facet normal -0.668061 0.744107 0
    outer loop
      vertex -48.5339 6.23087 2
      vertex -48.5248 6.23904 43.6
      vertex -48.5248 6.23904 2
    endloop
  endfacet
  facet normal -0.668061 0.744107 0
    outer loop
      vertex -48.5339 6.23087 2
      vertex -48.5339 6.23087 43.6
      vertex -48.5248 6.23904 43.6
    endloop
  endfacet
  facet normal -0.707518 0.706696 0
    outer loop
      vertex -48.5425 6.22226 2
      vertex -48.5339 6.23087 43.6
      vertex -48.5339 6.23087 2
    endloop
  endfacet
  facet normal -0.707518 0.706696 0
    outer loop
      vertex -48.5425 6.22226 2
      vertex -48.5425 6.22226 43.6
      vertex -48.5339 6.23087 43.6
    endloop
  endfacet
  facet normal -0.7444 0.667734 0
    outer loop
      vertex -48.5506 6.21323 2
      vertex -48.5425 6.22226 43.6
      vertex -48.5425 6.22226 2
    endloop
  endfacet
  facet normal -0.7444 0.667734 0
    outer loop
      vertex -48.5506 6.21323 2
      vertex -48.5506 6.21323 43.6
      vertex -48.5425 6.22226 43.6
    endloop
  endfacet
  facet normal -0.774907 0.632075 0
    outer loop
      vertex -48.5583 6.20379 2
      vertex -48.5506 6.21323 43.6
      vertex -48.5506 6.21323 2
    endloop
  endfacet
  facet normal -0.774907 0.632075 0
    outer loop
      vertex -48.5583 6.20379 2
      vertex -48.5583 6.20379 43.6
      vertex -48.5506 6.21323 43.6
    endloop
  endfacet
  facet normal -0.806457 0.591292 0
    outer loop
      vertex -48.5655 6.19397 2
      vertex -48.5583 6.20379 43.6
      vertex -48.5583 6.20379 2
    endloop
  endfacet
  facet normal -0.806457 0.591292 0
    outer loop
      vertex -48.5655 6.19397 2
      vertex -48.5655 6.19397 43.6
      vertex -48.5583 6.20379 43.6
    endloop
  endfacet
  facet normal -0.835566 0.549391 0
    outer loop
      vertex -48.5722 6.18378 2
      vertex -48.5655 6.19397 43.6
      vertex -48.5655 6.19397 2
    endloop
  endfacet
  facet normal -0.835566 0.549391 0
    outer loop
      vertex -48.5722 6.18378 2
      vertex -48.5722 6.18378 43.6
      vertex -48.5655 6.19397 43.6
    endloop
  endfacet
  facet normal -0.861724 0.507378 0
    outer loop
      vertex -48.5784 6.17325 2
      vertex -48.5722 6.18378 43.6
      vertex -48.5722 6.18378 2
    endloop
  endfacet
  facet normal -0.861724 0.507378 0
    outer loop
      vertex -48.5784 6.17325 2
      vertex -48.5784 6.17325 43.6
      vertex -48.5722 6.18378 43.6
    endloop
  endfacet
  facet normal -0.888793 0.458309 0
    outer loop
      vertex -48.584 6.16239 2
      vertex -48.5784 6.17325 43.6
      vertex -48.5784 6.17325 2
    endloop
  endfacet
  facet normal -0.888793 0.458309 0
    outer loop
      vertex -48.584 6.16239 2
      vertex -48.584 6.16239 43.6
      vertex -48.5784 6.17325 43.6
    endloop
  endfacet
  facet normal -0.912457 0.409173 0
    outer loop
      vertex -48.589 6.15124 2
      vertex -48.584 6.16239 43.6
      vertex -48.584 6.16239 2
    endloop
  endfacet
  facet normal -0.912457 0.409173 0
    outer loop
      vertex -48.589 6.15124 2
      vertex -48.589 6.15124 43.6
      vertex -48.584 6.16239 43.6
    endloop
  endfacet
  facet normal -0.93324 0.359253 0
    outer loop
      vertex -48.5934 6.13981 2
      vertex -48.589 6.15124 43.6
      vertex -48.589 6.15124 2
    endloop
  endfacet
  facet normal -0.93324 0.359253 0
    outer loop
      vertex -48.5934 6.13981 2
      vertex -48.5934 6.13981 43.6
      vertex -48.589 6.15124 43.6
    endloop
  endfacet
  facet normal -0.950938 0.309381 0
    outer loop
      vertex -48.5972 6.12813 2
      vertex -48.5934 6.13981 43.6
      vertex -48.5934 6.13981 2
    endloop
  endfacet
  facet normal -0.950938 0.309381 0
    outer loop
      vertex -48.5972 6.12813 2
      vertex -48.5972 6.12813 43.6
      vertex -48.5934 6.13981 43.6
    endloop
  endfacet
  facet normal -0.967807 0.251695 0
    outer loop
      vertex -48.6003 6.11621 2
      vertex -48.5972 6.12813 43.6
      vertex -48.5972 6.12813 2
    endloop
  endfacet
  facet normal -0.967807 0.251695 0
    outer loop
      vertex -48.6003 6.11621 2
      vertex -48.6003 6.11621 43.6
      vertex -48.5972 6.12813 43.6
    endloop
  endfacet
  facet normal -0.979382 0.202018 0
    outer loop
      vertex -48.6028 6.10409 2
      vertex -48.6003 6.11621 43.6
      vertex -48.6003 6.11621 2
    endloop
  endfacet
  facet normal -0.979382 0.202018 0
    outer loop
      vertex -48.6028 6.10409 2
      vertex -48.6028 6.10409 43.6
      vertex -48.6003 6.11621 43.6
    endloop
  endfacet
  facet normal -0.989495 0.144569 0
    outer loop
      vertex -48.6046 6.09177 2
      vertex -48.6028 6.10409 43.6
      vertex -48.6028 6.10409 2
    endloop
  endfacet
  facet normal -0.989495 0.144569 0
    outer loop
      vertex -48.6046 6.09177 2
      vertex -48.6046 6.09177 43.6
      vertex -48.6028 6.10409 43.6
    endloop
  endfacet
  facet normal -0.99615 0.0876612 0
    outer loop
      vertex -48.6057 6.07927 2
      vertex -48.6046 6.09177 43.6
      vertex -48.6046 6.09177 2
    endloop
  endfacet
  facet normal -0.99615 0.0876612 0
    outer loop
      vertex -48.6057 6.07927 2
      vertex -48.6057 6.07927 43.6
      vertex -48.6046 6.09177 43.6
    endloop
  endfacet
  facet normal -0.9995 0.0316297 0
    outer loop
      vertex -48.6061 6.06663 2
      vertex -48.6057 6.07927 43.6
      vertex -48.6057 6.07927 2
    endloop
  endfacet
  facet normal -0.9995 0.0316297 0
    outer loop
      vertex -48.6061 6.06663 2
      vertex -48.6061 6.06663 43.6
      vertex -48.6057 6.07927 43.6
    endloop
  endfacet
  facet normal -1 0 0
    outer loop
      vertex -48.6061 -5.84351 2
      vertex -48.6061 6.06663 43.6
      vertex -48.6061 6.06663 2
    endloop
  endfacet
  facet normal -1 0 0
    outer loop
      vertex -48.6061 -5.84351 2
      vertex -48.6061 -5.84351 43.6
      vertex -48.6061 6.06663 43.6
    endloop
  endfacet
endsolid OpenSCAD_Model
