solid OpenSCAD_Model
  facet normal -0.894427 0 0.447214
    outer loop
      vertex 75.133 33.9869 0
      vertex 77.173 -28.0979 4.08
      vertex 77.173 32.8091 4.08
    endloop
  endfacet
  facet normal -0.894427 0 0.447214
    outer loop
      vertex 77.173 -28.0979 4.08
      vertex 75.133 33.9869 0
      vertex 75.133 -29.2757 0
    endloop
  endfacet
  facet normal 0.894427 -0 0.447213
    outer loop
      vertex 81.253 -28.0979 4.08
      vertex 82.893 29.5067 0.799999
      vertex 81.253 30.4535 4.08
    endloop
  endfacet
  facet normal 0.894427 0 0.447213
    outer loop
      vertex 82.893 29.5067 0.799999
      vertex 81.253 -28.0979 4.08
      vertex 82.893 -29.0448 0.799999
    endloop
  endfacet
  facet normal -0.447214 0.774598 0.44721
    outer loop
      vertex 129.92 63.4259 3.79722
      vertex 77.173 32.8091 4.08
      vertex 129.92 63.2626 4.08
    endloop
  endfacet
  facet normal -0.447214 0.774597 0.447213
    outer loop
      vertex 77.173 32.8091 4.08
      vertex 129.92 63.4259 3.79722
      vertex 75.133 33.9869 0
    endloop
  endfacet
  facet normal -0.447214 0.774596 0.447214
    outer loop
      vertex 129.92 63.4259 3.79722
      vertex 129.92 65.6182 0
      vertex 75.133 33.9869 0
    endloop
  endfacet
  facet normal 0.447214 -0.774597 0.447213
    outer loop
      vertex 82.893 29.5067 0.799999
      vertex 123.657 53.042 0.799999
      vertex 81.253 30.4535 4.08
    endloop
  endfacet
  facet normal 0.447214 -0.774597 0.447213
    outer loop
      vertex 123.657 53.042 0.799999
      vertex 131.96 59.7292 4.08
      vertex 81.253 30.4535 4.08
    endloop
  endfacet
  facet normal 0.447214 -0.774597 0.447213
    outer loop
      vertex 131.96 59.7292 4.08
      vertex 123.657 53.042 0.799999
      vertex 133.6 58.7824 0.799999
    endloop
  endfacet
  facet normal 0.447214 0.774597 0.447213
    outer loop
      vertex 138.08 63.2626 4.08
      vertex 190.827 32.8091 4.08
      vertex 138.08 65.4491 0.292931
    endloop
  endfacet
  facet normal 0.44721 0.774593 0.447224
    outer loop
      vertex 190.827 32.8091 4.08
      vertex 138.08 65.6182 3.0441e-07
      vertex 138.08 65.4491 0.292931
    endloop
  endfacet
  facet normal 0.447214 0.774597 0.447214
    outer loop
      vertex 192.867 33.9869 0
      vertex 138.08 65.6182 3.0441e-07
      vertex 190.827 32.8091 4.08
    endloop
  endfacet
  facet normal 0.274628 0.475669 0.835655
    outer loop
      vertex 134 67.9738 0
      vertex 138.08 65.6182 3.0441e-07
      vertex 192.867 33.9869 0
    endloop
  endfacet
  facet normal 0.0132575 0.0229628 0.999648
    outer loop
      vertex 138.08 65.6182 3.0441e-07
      vertex 134 67.9738 0
      vertex 134 67.9738 1.75254e-07
    endloop
  endfacet
  facet normal -0.447213 -0.774596 0.447214
    outer loop
      vertex 174.764 35.4779 0.799999
      vertex 135.961 59.6837 3.92221
      vertex 134.4 58.7824 0.799999
    endloop
  endfacet
  facet normal -0.447221 -0.774605 0.447192
    outer loop
      vertex 174.764 35.4779 0.799999
      vertex 136.04 59.7292 4.08
      vertex 135.961 59.6837 3.92221
    endloop
  endfacet
  facet normal -0.447214 -0.774597 0.447213
    outer loop
      vertex 136.04 59.7292 4.08
      vertex 174.764 35.4779 0.799999
      vertex 186.747 30.4535 4.08
    endloop
  endfacet
  facet normal -0.447214 -0.774597 0.447213
    outer loop
      vertex 186.747 30.4535 4.08
      vertex 174.764 35.4779 0.799999
      vertex 185.107 29.5067 0.799999
    endloop
  endfacet
  facet normal 0.894426 -0 0.447215
    outer loop
      vertex 190.827 -28.0979 4.08
      vertex 192.867 33.9869 0
      vertex 190.827 32.8091 4.08
    endloop
  endfacet
  facet normal 0.894426 0 0.447215
    outer loop
      vertex 192.867 33.9869 0
      vertex 190.827 -28.0979 4.08
      vertex 192.867 -29.2757 0
    endloop
  endfacet
  facet normal -0.894427 0 0.447213
    outer loop
      vertex 185.107 29.5067 0.799999
      vertex 186.747 -28.0979 4.08
      vertex 186.747 30.4535 4.08
    endloop
  endfacet
  facet normal -0.894427 0 0.447213
    outer loop
      vertex 186.747 -28.0979 4.08
      vertex 185.107 29.5067 0.799999
      vertex 185.107 -29.0448 0.799999
    endloop
  endfacet
  facet normal 0.447213 -0.774596 0.447214
    outer loop
      vertex 188.641 -36.2579 0.292931
      vertex 186.747 -35.1647 4.08
      vertex 134 -65.6182 4.08
    endloop
  endfacet
  facet normal 0.447214 -0.774597 0.447214
    outer loop
      vertex 134 -67.9738 0
      vertex 188.641 -36.2579 0.292931
      vertex 134 -65.6182 4.08
    endloop
  endfacet
  facet normal 0.447213 -0.774596 0.447215
    outer loop
      vertex 188.641 -36.2579 0.292931
      vertex 134 -67.9738 0
      vertex 188.787 -36.3425 0
    endloop
  endfacet
  facet normal -0.447214 0.774597 0.447214
    outer loop
      vertex 184.707 -31.5402 3.92221
      vertex 184.707 -29.7376 0.799999
      vertex 144.343 -53.042 0.799999
    endloop
  endfacet
  facet normal -0.447214 0.774597 0.447213
    outer loop
      vertex 144.343 -53.042 0.799999
      vertex 184.707 -31.6313 4.08
      vertex 184.707 -31.5402 3.92221
    endloop
  endfacet
  facet normal -0.447214 0.774597 0.447213
    outer loop
      vertex 184.707 -31.6313 4.08
      vertex 144.343 -53.042 0.799999
      vertex 134 -60.907 4.08
    endloop
  endfacet
  facet normal -0.447214 0.774597 0.447213
    outer loop
      vertex 134 -60.907 4.08
      vertex 144.343 -53.042 0.799999
      vertex 134 -59.0133 0.799999
    endloop
  endfacet
  facet normal -0.447215 -0.774598 0.44721
    outer loop
      vertex 134 -67.9738 0
      vertex 81.253 -35.1647 4.08
      vertex 81.1116 -35.2463 3.79722
    endloop
  endfacet
  facet normal -0.447214 -0.774597 0.447214
    outer loop
      vertex 81.253 -35.1647 4.08
      vertex 134 -67.9738 0
      vertex 134 -65.6182 4.08
    endloop
  endfacet
  facet normal -0.447214 -0.774597 0.447213
    outer loop
      vertex 134 -67.9738 0
      vertex 81.1116 -35.2463 3.79722
      vertex 79.213 -36.3425 0
    endloop
  endfacet
  facet normal 0 0 1
    outer loop
      vertex 129.92 63.2626 4.08
      vertex 129.52 61.5998 4.08
      vertex 129.92 60.907 4.08
    endloop
  endfacet
  facet normal 0 0 1
    outer loop
      vertex 129.92 63.2626 4.08
      vertex 115.983 53.7843 4.08
      vertex 129.52 61.5998 4.08
    endloop
  endfacet
  facet normal 0 0 1
    outer loop
      vertex 77.173 32.8091 4.08
      vertex 115.983 53.7843 4.08
      vertex 129.92 63.2626 4.08
    endloop
  endfacet
  facet normal 0 0 1
    outer loop
      vertex 81.253 30.4535 4.08
      vertex 80.013 -11.289 4.08
      vertex 81.253 -28.0979 4.08
    endloop
  endfacet
  facet normal 0 0 1
    outer loop
      vertex 81.253 30.4535 4.08
      vertex 79.9335 -11.289 4.08
      vertex 80.013 -11.289 4.08
    endloop
  endfacet
  facet normal 0 0 1
    outer loop
      vertex 81.253 30.4535 4.08
      vertex 79.213 -11.289 4.08
      vertex 79.9335 -11.289 4.08
    endloop
  endfacet
  facet normal 0 0 1
    outer loop
      vertex 81.253 30.4535 4.08
      vertex 77.173 32.8091 4.08
      vertex 79.213 -11.289 4.08
    endloop
  endfacet
  facet normal 0 0 1
    outer loop
      vertex 115.983 53.7843 4.08
      vertex 77.173 32.8091 4.08
      vertex 81.253 30.4535 4.08
    endloop
  endfacet
  facet normal 0 0 1
    outer loop
      vertex 116.383 53.0914 4.08
      vertex 131.96 59.7292 4.08
      vertex 129.92 60.907 4.08
    endloop
  endfacet
  facet normal -0 0 1
    outer loop
      vertex 116.383 53.0914 4.08
      vertex 81.253 30.4535 4.08
      vertex 131.96 59.7292 4.08
    endloop
  endfacet
  facet normal 0 0 1
    outer loop
      vertex 81.253 30.4535 4.08
      vertex 116.383 53.0914 4.08
      vertex 115.983 53.7843 4.08
    endloop
  endfacet
  facet normal -0 0 1
    outer loop
      vertex 80.013 -26.9201 4.08
      vertex 81.253 -28.0979 4.08
      vertex 80.013 -11.289 4.08
    endloop
  endfacet
  facet normal 0 0 1
    outer loop
      vertex 81.253 -28.0979 4.08
      vertex 80.013 -26.9201 4.08
      vertex 79.213 -26.9201 4.08
    endloop
  endfacet
  facet normal 0 0 1
    outer loop
      vertex 77.173 -28.0979 4.08
      vertex 79.213 -11.289 4.08
      vertex 77.173 32.8091 4.08
    endloop
  endfacet
  facet normal 0 0 1
    outer loop
      vertex 79.213 -11.289 4.08
      vertex 77.173 -28.0979 4.08
      vertex 79.213 -26.9201 4.08
    endloop
  endfacet
  facet normal 0 0 1
    outer loop
      vertex 190.827 32.8091 4.08
      vertex 189.587 -11.289 4.08
      vertex 190.827 -28.0979 4.08
    endloop
  endfacet
  facet normal -0 0 1
    outer loop
      vertex 186.747 30.4535 4.08
      vertex 189.587 -11.289 4.08
      vertex 190.827 32.8091 4.08
    endloop
  endfacet
  facet normal 0 0 1
    outer loop
      vertex 186.747 -28.0979 4.08
      vertex 188.787 -11.289 4.08
      vertex 186.747 30.4535 4.08
    endloop
  endfacet
  facet normal 0 0 1
    outer loop
      vertex 189.587 -11.289 4.08
      vertex 186.747 30.4535 4.08
      vertex 188.787 -11.289 4.08
    endloop
  endfacet
  facet normal 0 0 1
    outer loop
      vertex 190.827 32.8091 4.08
      vertex 151.617 53.0914 4.08
      vertex 186.747 30.4535 4.08
    endloop
  endfacet
  facet normal 0 0 1
    outer loop
      vertex 138.08 63.2626 4.08
      vertex 151.617 53.0914 4.08
      vertex 190.827 32.8091 4.08
    endloop
  endfacet
  facet normal 0 0 1
    outer loop
      vertex 151.617 53.0914 4.08
      vertex 138.08 63.2626 4.08
      vertex 138.08 60.907 4.08
    endloop
  endfacet
  facet normal -0 0 1
    outer loop
      vertex 189.587 -26.9201 4.08
      vertex 190.827 -28.0979 4.08
      vertex 189.587 -11.289 4.08
    endloop
  endfacet
  facet normal 0 0 1
    outer loop
      vertex 190.827 -28.0979 4.08
      vertex 189.587 -26.9201 4.08
      vertex 188.787 -26.9201 4.08
    endloop
  endfacet
  facet normal 0 0 1
    outer loop
      vertex 188.787 -11.289 4.08
      vertex 186.747 -28.0979 4.08
      vertex 188.787 -26.9201 4.08
    endloop
  endfacet
  facet normal -0 0 1
    outer loop
      vertex 151.257 52.4675 4.08
      vertex 186.747 30.4535 4.08
      vertex 151.617 53.0914 4.08
    endloop
  endfacet
  facet normal -0 0 1
    outer loop
      vertex 151.217 52.3986 4.08
      vertex 186.747 30.4535 4.08
      vertex 151.257 52.4675 4.08
    endloop
  endfacet
  facet normal -0 0 1
    outer loop
      vertex 136.04 59.7292 4.08
      vertex 151.217 52.3986 4.08
      vertex 137.68 60.2142 4.08
    endloop
  endfacet
  facet normal 0 0 1
    outer loop
      vertex 151.217 52.3986 4.08
      vertex 136.04 59.7292 4.08
      vertex 186.747 30.4535 4.08
    endloop
  endfacet
  facet normal 0 0 1
    outer loop
      vertex 138.08 60.907 4.08
      vertex 136.04 59.7292 4.08
      vertex 137.68 60.2142 4.08
    endloop
  endfacet
  facet normal 0 0 1
    outer loop
      vertex 184.707 -31.6313 4.08
      vertex 184.307 -33.2941 4.08
      vertex 184.707 -33.9869 4.08
    endloop
  endfacet
  facet normal 0 0 1
    outer loop
      vertex 184.707 -31.6313 4.08
      vertex 170.77 -41.1097 4.08
      vertex 184.307 -33.2941 4.08
    endloop
  endfacet
  facet normal 0 -0 1
    outer loop
      vertex 170.77 -41.1097 4.08
      vertex 184.707 -31.6313 4.08
      vertex 134 -60.907 4.08
    endloop
  endfacet
  facet normal 0 0 1
    outer loop
      vertex 171.17 -41.8025 4.08
      vertex 186.747 -35.1647 4.08
      vertex 184.707 -33.9869 4.08
    endloop
  endfacet
  facet normal 0 0 1
    outer loop
      vertex 134 -60.907 4.08
      vertex 170.81 -41.1785 4.08
      vertex 170.77 -41.1097 4.08
    endloop
  endfacet
  facet normal 0 0 1
    outer loop
      vertex 134 -60.907 4.08
      vertex 171.17 -41.8025 4.08
      vertex 170.81 -41.1785 4.08
    endloop
  endfacet
  facet normal 0 0 1
    outer loop
      vertex 134 -65.6182 4.08
      vertex 171.17 -41.8025 4.08
      vertex 134 -60.907 4.08
    endloop
  endfacet
  facet normal -0 0 1
    outer loop
      vertex 171.17 -41.8025 4.08
      vertex 134 -65.6182 4.08
      vertex 186.747 -35.1647 4.08
    endloop
  endfacet
  facet normal -0 0 1
    outer loop
      vertex 96.43 -42.4953 4.08
      vertex 134 -60.907 4.08
      vertex 96.83 -41.8025 4.08
    endloop
  endfacet
  facet normal 0 0 1
    outer loop
      vertex 83.293 -31.6313 4.08
      vertex 96.83 -41.8025 4.08
      vertex 134 -60.907 4.08
    endloop
  endfacet
  facet normal 0 0 1
    outer loop
      vertex 96.83 -41.8025 4.08
      vertex 83.293 -31.6313 4.08
      vertex 83.293 -33.9869 4.08
    endloop
  endfacet
  facet normal 0 0 1
    outer loop
      vertex 134 -60.907 4.08
      vertex 96.43 -42.4953 4.08
      vertex 134 -65.6182 4.08
    endloop
  endfacet
  facet normal -0 0 1
    outer loop
      vertex 81.253 -35.1647 4.08
      vertex 96.43 -42.4953 4.08
      vertex 82.893 -34.6797 4.08
    endloop
  endfacet
  facet normal 0 0 1
    outer loop
      vertex 96.43 -42.4953 4.08
      vertex 81.253 -35.1647 4.08
      vertex 134 -65.6182 4.08
    endloop
  endfacet
  facet normal 0 0 1
    outer loop
      vertex 83.293 -33.9869 4.08
      vertex 81.253 -35.1647 4.08
      vertex 82.893 -34.6797 4.08
    endloop
  endfacet
  facet normal 0.447214 0.774597 0.447213
    outer loop
      vertex 134 -60.907 4.08
      vertex 134 -59.0133 0.799999
      vertex 93.2355 -35.4779 0.799999
    endloop
  endfacet
  facet normal 0.447213 0.774597 0.447214
    outer loop
      vertex 93.2355 -35.4779 0.799999
      vertex 83.293 -31.6313 4.08
      vertex 134 -60.907 4.08
    endloop
  endfacet
  facet normal 0.447213 0.774597 0.447214
    outer loop
      vertex 83.293 -31.6313 4.08
      vertex 93.2355 -35.4779 0.799999
      vertex 83.293 -29.7376 0.799999
    endloop
  endfacet
  facet normal 0 0 -1
    outer loop
      vertex 188.787 -36.3425 0
      vertex 192.867 -29.2757 0
      vertex 192.867 -33.9869 0
    endloop
  endfacet
  facet normal 0 0 -1
    outer loop
      vertex 188.787 -36.3425 0
      vertex 188.787 -26.9201 0
      vertex 192.867 -29.2757 0
    endloop
  endfacet
  facet normal 0 0 -1
    outer loop
      vertex 184.707 -33.9869 0
      vertex 188.787 -26.9201 0
      vertex 188.787 -36.3425 0
    endloop
  endfacet
  facet normal 0 0 -1
    outer loop
      vertex 138.08 60.907 0
      vertex 188.787 -26.9201 0
      vertex 184.707 -33.9869 0
    endloop
  endfacet
  facet normal 0 0 -1
    outer loop
      vertex 188.787 -26.9201 0
      vertex 138.08 60.907 0
      vertex 188.787 31.6313 0
    endloop
  endfacet
  facet normal 0 0 -1
    outer loop
      vertex 83.293 -33.9869 0
      vertex 184.707 -33.9869 0
      vertex 134 -63.2626 0
    endloop
  endfacet
  facet normal 0 0 -1
    outer loop
      vertex 184.707 -33.9869 0
      vertex 83.293 -33.9869 0
      vertex 138.08 60.907 0
    endloop
  endfacet
  facet normal 0 0 -1
    outer loop
      vertex 138.08 60.907 0
      vertex 129.92 60.907 0
      vertex 138.08 65.6182 0
    endloop
  endfacet
  facet normal -0 0 -1
    outer loop
      vertex 138.08 65.6182 0
      vertex 129.92 60.907 0
      vertex 134 67.9738 0
    endloop
  endfacet
  facet normal -0 0 -1
    outer loop
      vertex 138.08 60.907 0
      vertex 83.293 -33.9869 0
      vertex 129.92 60.907 0
    endloop
  endfacet
  facet normal 0 0 -1
    outer loop
      vertex 79.213 -26.9201 0
      vertex 83.293 -33.9869 0
      vertex 79.213 -36.3425 0
    endloop
  endfacet
  facet normal 0 0 -1
    outer loop
      vertex 83.293 -33.9869 0
      vertex 79.213 -26.9201 0
      vertex 129.92 60.907 0
    endloop
  endfacet
  facet normal 0 0 -1
    outer loop
      vertex 129.92 60.907 0
      vertex 79.213 -26.9201 0
      vertex 79.213 31.6313 0
    endloop
  endfacet
  facet normal 0 0 -1
    outer loop
      vertex 134 67.9738 0
      vertex 129.92 60.907 0
      vertex 129.92 65.6182 0
    endloop
  endfacet
  facet normal 0 0 -1
    outer loop
      vertex 75.133 -33.9869 0
      vertex 79.213 -26.9201 0
      vertex 79.213 -36.3425 0
    endloop
  endfacet
  facet normal 0 0 -1
    outer loop
      vertex 79.213 -26.9201 0
      vertex 75.133 -33.9869 0
      vertex 75.133 -29.2757 0
    endloop
  endfacet
  facet normal 0 0 -1
    outer loop
      vertex 188.787 -26.9201 0
      vertex 192.867 33.9869 0
      vertex 192.867 -29.2757 0
    endloop
  endfacet
  facet normal 0 0 -1
    outer loop
      vertex 188.787 31.6313 0
      vertex 192.867 33.9869 0
      vertex 188.787 -26.9201 0
    endloop
  endfacet
  facet normal 0 0 -1
    outer loop
      vertex 138.08 60.907 0
      vertex 192.867 33.9869 0
      vertex 188.787 31.6313 0
    endloop
  endfacet
  facet normal 0 0 -1
    outer loop
      vertex 138.08 65.6182 0
      vertex 192.867 33.9869 0
      vertex 138.08 60.907 0
    endloop
  endfacet
  facet normal 0 0 -1
    outer loop
      vertex 192.867 33.9869 0
      vertex 138.08 65.6182 0
      vertex 134 67.9738 0
    endloop
  endfacet
  facet normal 0 0 -1
    outer loop
      vertex 134 -67.9738 0
      vertex 184.707 -33.9869 0
      vertex 188.787 -36.3425 0
    endloop
  endfacet
  facet normal 0 0 -1
    outer loop
      vertex 134 -63.2626 0
      vertex 184.707 -33.9869 0
      vertex 134 -67.9738 0
    endloop
  endfacet
  facet normal 0 0 -1
    outer loop
      vertex 134 -67.9738 0
      vertex 83.293 -33.9869 0
      vertex 134 -63.2626 0
    endloop
  endfacet
  facet normal 0 -0 -1
    outer loop
      vertex 83.293 -33.9869 0
      vertex 134 -67.9738 0
      vertex 79.213 -36.3425 0
    endloop
  endfacet
  facet normal -0 0 -1
    outer loop
      vertex 79.213 -26.9201 0
      vertex 75.133 -29.2757 0
      vertex 79.213 31.6313 0
    endloop
  endfacet
  facet normal 0 0 -1
    outer loop
      vertex 79.213 31.6313 0
      vertex 129.92 65.6182 0
      vertex 129.92 60.907 0
    endloop
  endfacet
  facet normal 0 0 -1
    outer loop
      vertex 79.213 31.6313 0
      vertex 75.133 33.9869 0
      vertex 129.92 65.6182 0
    endloop
  endfacet
  facet normal 0 0 -1
    outer loop
      vertex 75.133 33.9869 0
      vertex 79.213 31.6313 0
      vertex 75.133 -29.2757 0
    endloop
  endfacet
  facet normal 0.5 0.866025 -0
    outer loop
      vertex 138.08 65.6182 3.0441e-07
      vertex 134 67.9738 25
      vertex 138.08 65.6182 25
    endloop
  endfacet
  facet normal 0.499999 0.866026 -2.6429e-07
    outer loop
      vertex 134 67.9738 25
      vertex 138.08 65.6182 3.0441e-07
      vertex 134 67.9738 1.75254e-07
    endloop
  endfacet
  facet normal 0 0 0
    outer loop
      vertex 134 67.9738 1.75254e-07
      vertex 134 67.9738 0
      vertex 134 67.9738 25
    endloop
  endfacet
  facet normal -1 0 0
    outer loop
      vertex 129.92 63.4259 3.79722
      vertex 129.92 65.6182 25
      vertex 129.92 65.6182 0
    endloop
  endfacet
  facet normal -1 0 0
    outer loop
      vertex 129.92 63.2626 4.08
      vertex 129.92 65.6182 25
      vertex 129.92 63.4259 3.79722
    endloop
  endfacet
  facet normal -1 0 0
    outer loop
      vertex 129.92 60.907 19.7112
      vertex 129.92 63.2626 4.08
      vertex 129.92 60.907 4.08
    endloop
  endfacet
  facet normal -1 0 0
    outer loop
      vertex 129.92 63.2626 4.08
      vertex 129.92 60.907 19.7112
      vertex 129.92 65.6182 25
    endloop
  endfacet
  facet normal -1 -0 0
    outer loop
      vertex 129.92 65.6182 25
      vertex 129.92 60.907 19.7112
      vertex 129.92 60.907 25
    endloop
  endfacet
  facet normal -0.5 0.866025 0
    outer loop
      vertex 134 67.9738 0
      vertex 129.92 65.6182 25
      vertex 134 67.9738 25
    endloop
  endfacet
  facet normal -0.5 0.866025 0
    outer loop
      vertex 129.92 65.6182 25
      vertex 134 67.9738 0
      vertex 129.92 65.6182 0
    endloop
  endfacet
  facet normal 1 0 0
    outer loop
      vertex 138.08 65.6182 25
      vertex 138.08 65.4491 0.292931
      vertex 138.08 65.6182 3.0441e-07
    endloop
  endfacet
  facet normal 1 0 0
    outer loop
      vertex 138.08 65.6182 25
      vertex 138.08 63.2626 4.08
      vertex 138.08 65.4491 0.292931
    endloop
  endfacet
  facet normal 1 0 0
    outer loop
      vertex 138.08 60.907 19.7112
      vertex 138.08 65.6182 25
      vertex 138.08 60.907 25
    endloop
  endfacet
  facet normal 1 0 0
    outer loop
      vertex 138.08 65.6182 25
      vertex 138.08 60.907 19.7112
      vertex 138.08 63.2626 4.08
    endloop
  endfacet
  facet normal 1 0 0
    outer loop
      vertex 138.08 63.2626 4.08
      vertex 138.08 60.907 19.7112
      vertex 138.08 60.907 4.08
    endloop
  endfacet
  facet normal 0.5 -0.866025 0
    outer loop
      vertex 134 58.5514 25
      vertex 138.08 60.907 19.7112
      vertex 138.08 60.907 25
    endloop
  endfacet
  facet normal 0.5 -0.866025 -2.08732e-07
    outer loop
      vertex 134 58.5514 25
      vertex 136.04 59.7292 4.08
      vertex 138.08 60.907 19.7112
    endloop
  endfacet
  facet normal 0.500037 -0.866004 4.60757e-06
    outer loop
      vertex 134 58.5514 25
      vertex 135.961 59.6837 3.92221
      vertex 136.04 59.7292 4.08
    endloop
  endfacet
  facet normal 0.5 -0.866026 0
    outer loop
      vertex 134 58.5514 0.799999
      vertex 135.961 59.6837 3.92221
      vertex 134 58.5514 25
    endloop
  endfacet
  facet normal 0.500008 -0.866021 -7.21973e-06
    outer loop
      vertex 135.961 59.6837 3.92221
      vertex 134 58.5514 0.799999
      vertex 134.4 58.7824 0.799999
    endloop
  endfacet
  facet normal 0.499999 -0.866026 0
    outer loop
      vertex 138.08 60.907 19.7112
      vertex 136.04 59.7292 4.08
      vertex 138.08 60.907 4.08
    endloop
  endfacet
  facet normal -0.5 -0.866025 0
    outer loop
      vertex 129.92 60.907 19.7112
      vertex 134 58.5514 25
      vertex 129.92 60.907 25
    endloop
  endfacet
  facet normal -0.499999 -0.866026 0
    outer loop
      vertex 131.96 59.7292 4.08
      vertex 129.92 60.907 19.7112
      vertex 129.92 60.907 4.08
    endloop
  endfacet
  facet normal -0.5 -0.866025 -2.08732e-07
    outer loop
      vertex 129.92 60.907 19.7112
      vertex 131.96 59.7292 4.08
      vertex 134 58.5514 25
    endloop
  endfacet
  facet normal -0.500008 -0.866021 -5.73611e-06
    outer loop
      vertex 134 58.5514 0.799999
      vertex 131.96 59.7292 4.08
      vertex 133.6 58.7824 0.799999
    endloop
  endfacet
  facet normal -0.500002 -0.866025 0
    outer loop
      vertex 131.96 59.7292 4.08
      vertex 134 58.5514 0.799999
      vertex 134 58.5514 25
    endloop
  endfacet
  facet normal 0.499265 0.864752 -0.0542046
    outer loop
      vertex 138.08 65.6182 25
      vertex 134 67.9738 25
      vertex 139.77 66.5939 56.1321
    endloop
  endfacet
  facet normal 0.499265 0.864752 -0.0542047
    outer loop
      vertex 134 67.9738 25
      vertex 134 69.9252 56.1321
      vertex 139.77 66.5939 56.1321
    endloop
  endfacet
  facet normal 0.99853 0 -0.0542046
    outer loop
      vertex 139.77 59.9313 56.1321
      vertex 138.08 60.907 25
      vertex 139.77 66.5939 56.1321
    endloop
  endfacet
  facet normal 0.499265 -0.864752 -0.0542047
    outer loop
      vertex 138.08 60.907 25
      vertex 134 56.6 56.1321
      vertex 134 58.5514 25
    endloop
  endfacet
  facet normal 0.499265 -0.864752 -0.0542047
    outer loop
      vertex 134 56.6 56.1321
      vertex 138.08 60.907 25
      vertex 139.77 59.9313 56.1321
    endloop
  endfacet
  facet normal -0.99853 0 -0.0542046
    outer loop
      vertex 129.92 60.907 25
      vertex 128.23 59.9313 56.1321
      vertex 129.92 65.6182 25
    endloop
  endfacet
  facet normal -0.499265 -0.864752 -0.0542047
    outer loop
      vertex 134 56.6 56.1321
      vertex 128.23 59.9313 56.1321
      vertex 134 58.5514 25
    endloop
  endfacet
  facet normal -0.499265 -0.864752 -0.0542047
    outer loop
      vertex 134 58.5514 25
      vertex 128.23 59.9313 56.1321
      vertex 129.92 60.907 25
    endloop
  endfacet
  facet normal -0.99853 0 -0.0542046
    outer loop
      vertex 129.92 65.6182 25
      vertex 128.23 59.9313 56.1321
      vertex 128.23 66.5939 56.1321
    endloop
  endfacet
  facet normal -0.499265 0.864752 -0.0542047
    outer loop
      vertex 129.92 65.6182 25
      vertex 134 69.9252 56.1321
      vertex 134 67.9738 25
    endloop
  endfacet
  facet normal -0.499265 0.864752 -0.0542046
    outer loop
      vertex 134 69.9252 56.1321
      vertex 129.92 65.6182 25
      vertex 128.23 66.5939 56.1321
    endloop
  endfacet
  facet normal 0.99853 0 -0.0542046
    outer loop
      vertex 138.08 60.907 25
      vertex 138.08 65.6182 25
      vertex 139.77 66.5939 56.1321
    endloop
  endfacet
  facet normal 0.5 0.866025 -0
    outer loop
      vertex 139.77 66.5939 56.1321
      vertex 134 69.9252 88.7721
      vertex 139.77 66.5939 88.7721
    endloop
  endfacet
  facet normal 0.5 0.866025 0
    outer loop
      vertex 134 69.9252 88.7721
      vertex 139.77 66.5939 56.1321
      vertex 134 69.9252 56.1321
    endloop
  endfacet
  facet normal -1 0 0
    outer loop
      vertex 128.23 59.9313 56.1321
      vertex 128.23 66.5939 88.7721
      vertex 128.23 66.5939 56.1321
    endloop
  endfacet
  facet normal -1 -0 0
    outer loop
      vertex 128.23 66.5939 88.7721
      vertex 128.23 59.9313 56.1321
      vertex 128.23 59.9313 88.7721
    endloop
  endfacet
  facet normal -0.5 0.866025 0
    outer loop
      vertex 134 69.9252 56.1321
      vertex 128.23 66.5939 88.7721
      vertex 134 69.9252 88.7721
    endloop
  endfacet
  facet normal -0.5 0.866025 0
    outer loop
      vertex 128.23 66.5939 88.7721
      vertex 134 69.9252 56.1321
      vertex 128.23 66.5939 56.1321
    endloop
  endfacet
  facet normal 0 0 1
    outer loop
      vertex 139.77 66.5939 88.7721
      vertex 138.08 65.6182 88.7721
      vertex 139.77 59.9313 88.7721
    endloop
  endfacet
  facet normal 0 0 1
    outer loop
      vertex 134 69.9252 88.7721
      vertex 138.08 65.6182 88.7721
      vertex 139.77 66.5939 88.7721
    endloop
  endfacet
  facet normal 0 0 1
    outer loop
      vertex 134 69.9252 88.7721
      vertex 134 67.9738 88.7721
      vertex 138.08 65.6182 88.7721
    endloop
  endfacet
  facet normal 0 0 1
    outer loop
      vertex 134 69.9252 88.7721
      vertex 129.92 65.6182 88.7721
      vertex 134 67.9738 88.7721
    endloop
  endfacet
  facet normal 0 0 1
    outer loop
      vertex 129.92 65.6182 88.7721
      vertex 128.23 66.5939 88.7721
      vertex 129.92 60.907 88.7721
    endloop
  endfacet
  facet normal -0 0 1
    outer loop
      vertex 128.23 66.5939 88.7721
      vertex 129.92 65.6182 88.7721
      vertex 134 69.9252 88.7721
    endloop
  endfacet
  facet normal -0 0 1
    outer loop
      vertex 138.08 60.907 88.7721
      vertex 139.77 59.9313 88.7721
      vertex 138.08 65.6182 88.7721
    endloop
  endfacet
  facet normal 0 0 1
    outer loop
      vertex 134 58.5514 88.7721
      vertex 139.77 59.9313 88.7721
      vertex 138.08 60.907 88.7721
    endloop
  endfacet
  facet normal -0 0 1
    outer loop
      vertex 134 58.5514 88.7721
      vertex 134 56.6 88.7721
      vertex 139.77 59.9313 88.7721
    endloop
  endfacet
  facet normal 0 0 1
    outer loop
      vertex 129.92 60.907 88.7721
      vertex 134 56.6 88.7721
      vertex 134 58.5514 88.7721
    endloop
  endfacet
  facet normal 0 0 1
    outer loop
      vertex 129.92 60.907 88.7721
      vertex 128.23 59.9313 88.7721
      vertex 134 56.6 88.7721
    endloop
  endfacet
  facet normal 0 0 1
    outer loop
      vertex 128.23 59.9313 88.7721
      vertex 129.92 60.907 88.7721
      vertex 128.23 66.5939 88.7721
    endloop
  endfacet
  facet normal 0.5 -0.866026 0
    outer loop
      vertex 134 56.6 56.1321
      vertex 139.77 59.9313 88.7721
      vertex 134 56.6 88.7721
    endloop
  endfacet
  facet normal 0.5 -0.866026 0
    outer loop
      vertex 139.77 59.9313 88.7721
      vertex 134 56.6 56.1321
      vertex 139.77 59.9313 56.1321
    endloop
  endfacet
  facet normal -0.5 -0.866026 0
    outer loop
      vertex 128.23 59.9313 56.1321
      vertex 134 56.6 88.7721
      vertex 128.23 59.9313 88.7721
    endloop
  endfacet
  facet normal -0.5 -0.866026 -0
    outer loop
      vertex 134 56.6 88.7721
      vertex 128.23 59.9313 56.1321
      vertex 134 56.6 56.1321
    endloop
  endfacet
  facet normal 1 -0 0
    outer loop
      vertex 139.77 59.9313 88.7721
      vertex 139.77 66.5939 56.1321
      vertex 139.77 66.5939 88.7721
    endloop
  endfacet
  facet normal 1 0 0
    outer loop
      vertex 139.77 66.5939 56.1321
      vertex 139.77 59.9313 88.7721
      vertex 139.77 59.9313 56.1321
    endloop
  endfacet
  facet normal 0.5 0.866025 0
    outer loop
      vertex 151.617 53.0914 4.08
      vertex 138.08 60.907 4.08
      vertex 138.08 60.907 19.7112
    endloop
  endfacet
  facet normal 0.612372 -0.353555 0.707107
    outer loop
      vertex 151.617 53.0914 4.08
      vertex 138.08 60.907 19.7112
      vertex 151.257 52.4675 4.08
    endloop
  endfacet
  facet normal 0.612369 -0.353559 0.707107
    outer loop
      vertex 137.68 60.2142 19.7112
      vertex 151.257 52.4675 4.08
      vertex 138.08 60.907 19.7112
    endloop
  endfacet
  facet normal 0.612347 -0.353597 0.707107
    outer loop
      vertex 151.257 52.4675 4.08
      vertex 137.68 60.2142 19.7112
      vertex 151.217 52.3986 4.08
    endloop
  endfacet
  facet normal -0.5 -0.866025 -0
    outer loop
      vertex 137.68 60.2142 19.7112
      vertex 137.68 60.2142 4.08
      vertex 151.217 52.3986 4.08
    endloop
  endfacet
  facet normal -0.866021 0.500008 0
    outer loop
      vertex 137.68 60.2142 4.08
      vertex 138.08 60.907 19.7112
      vertex 138.08 60.907 4.08
    endloop
  endfacet
  facet normal -0.866021 0.500008 0
    outer loop
      vertex 138.08 60.907 19.7112
      vertex 137.68 60.2142 4.08
      vertex 137.68 60.2142 19.7112
    endloop
  endfacet
  facet normal 0.5 -0.866025 0
    outer loop
      vertex 129.92 60.907 19.7112
      vertex 116.383 53.0914 4.08
      vertex 129.92 60.907 4.08
    endloop
  endfacet
  facet normal -0.612374 -0.35355 0.707107
    outer loop
      vertex 129.52 61.5998 19.7112
      vertex 116.383 53.0914 4.08
      vertex 129.92 60.907 19.7112
    endloop
  endfacet
  facet normal -0.612371 -0.353555 0.707107
    outer loop
      vertex 116.383 53.0914 4.08
      vertex 129.52 61.5998 19.7112
      vertex 115.983 53.7843 4.08
    endloop
  endfacet
  facet normal 0.866028 0.499996 0
    outer loop
      vertex 129.92 60.907 19.7112
      vertex 129.52 61.5998 4.08
      vertex 129.52 61.5998 19.7112
    endloop
  endfacet
  facet normal 0.866028 0.499996 0
    outer loop
      vertex 129.52 61.5998 4.08
      vertex 129.92 60.907 19.7112
      vertex 129.92 60.907 4.08
    endloop
  endfacet
  facet normal -0.5 0.866025 0
    outer loop
      vertex 129.52 61.5998 4.08
      vertex 115.983 53.7843 4.08
      vertex 129.52 61.5998 19.7112
    endloop
  endfacet
  facet normal -0.495761 -0.858683 0.129943
    outer loop
      vertex 134 63.2626 25
      vertex 138.08 65.6182 56.1321
      vertex 134 67.9738 56.1321
    endloop
  endfacet
  facet normal 0.991521 -0 0.129943
    outer loop
      vertex 129.92 60.907 56.1321
      vertex 134 63.2626 25
      vertex 129.92 65.6182 56.1321
    endloop
  endfacet
  facet normal -0.991521 0 0.129943
    outer loop
      vertex 138.08 60.907 56.1321
      vertex 138.08 65.6182 56.1321
      vertex 134 63.2626 25
    endloop
  endfacet
  facet normal 0.495761 -0.858683 0.129943
    outer loop
      vertex 134 63.2626 25
      vertex 134 67.9738 56.1321
      vertex 129.92 65.6182 56.1321
    endloop
  endfacet
  facet normal 0.495761 0.858683 0.129943
    outer loop
      vertex 134 58.5514 56.1321
      vertex 134 63.2626 25
      vertex 129.92 60.907 56.1321
    endloop
  endfacet
  facet normal -0.495761 0.858683 0.129943
    outer loop
      vertex 134 58.5514 56.1321
      vertex 138.08 60.907 56.1321
      vertex 134 63.2626 25
    endloop
  endfacet
  facet normal -0.5 -0.866025 0
    outer loop
      vertex 134 67.9738 56.1321
      vertex 138.08 65.6182 88.7721
      vertex 134 67.9738 88.7721
    endloop
  endfacet
  facet normal -0.5 -0.866025 -0
    outer loop
      vertex 138.08 65.6182 88.7721
      vertex 134 67.9738 56.1321
      vertex 138.08 65.6182 56.1321
    endloop
  endfacet
  facet normal 1 -0 0
    outer loop
      vertex 129.92 60.907 88.7721
      vertex 129.92 65.6182 56.1321
      vertex 129.92 65.6182 88.7721
    endloop
  endfacet
  facet normal 1 0 0
    outer loop
      vertex 129.92 65.6182 56.1321
      vertex 129.92 60.907 88.7721
      vertex 129.92 60.907 56.1321
    endloop
  endfacet
  facet normal 0.5 -0.866025 0
    outer loop
      vertex 129.92 65.6182 56.1321
      vertex 134 67.9738 88.7721
      vertex 129.92 65.6182 88.7721
    endloop
  endfacet
  facet normal 0.5 -0.866025 0
    outer loop
      vertex 134 67.9738 88.7721
      vertex 129.92 65.6182 56.1321
      vertex 134 67.9738 56.1321
    endloop
  endfacet
  facet normal 0.5 0.866025 -0
    outer loop
      vertex 134 58.5514 56.1321
      vertex 129.92 60.907 88.7721
      vertex 134 58.5514 88.7721
    endloop
  endfacet
  facet normal 0.5 0.866025 0
    outer loop
      vertex 129.92 60.907 88.7721
      vertex 134 58.5514 56.1321
      vertex 129.92 60.907 56.1321
    endloop
  endfacet
  facet normal -0.5 0.866025 0
    outer loop
      vertex 138.08 60.907 56.1321
      vertex 134 58.5514 88.7721
      vertex 138.08 60.907 88.7721
    endloop
  endfacet
  facet normal -0.5 0.866025 0
    outer loop
      vertex 134 58.5514 88.7721
      vertex 138.08 60.907 56.1321
      vertex 134 58.5514 56.1321
    endloop
  endfacet
  facet normal -1 0 0
    outer loop
      vertex 138.08 60.907 56.1321
      vertex 138.08 65.6182 88.7721
      vertex 138.08 65.6182 56.1321
    endloop
  endfacet
  facet normal -1 -0 0
    outer loop
      vertex 138.08 65.6182 88.7721
      vertex 138.08 60.907 56.1321
      vertex 138.08 60.907 88.7721
    endloop
  endfacet
  facet normal -1 0 0
    outer loop
      vertex 75.133 -33.9869 0
      vertex 75.133 -29.2757 25
      vertex 75.133 -29.2757 0
    endloop
  endfacet
  facet normal -1 -0 0
    outer loop
      vertex 75.133 -29.2757 25
      vertex 75.133 -33.9869 0
      vertex 75.133 -33.9869 25
    endloop
  endfacet
  facet normal 0.499999 -0.866026 0
    outer loop
      vertex 79.213 -36.3425 25
      vertex 83.293 -33.9869 19.7112
      vertex 83.293 -33.9869 25
    endloop
  endfacet
  facet normal 0.499999 -0.866026 -9.03836e-08
    outer loop
      vertex 79.213 -36.3425 25
      vertex 81.253 -35.1647 4.08
      vertex 83.293 -33.9869 19.7112
    endloop
  endfacet
  facet normal 0.500001 -0.866025 1.59362e-07
    outer loop
      vertex 79.213 -36.3425 25
      vertex 81.1116 -35.2463 3.79722
      vertex 81.253 -35.1647 4.08
    endloop
  endfacet
  facet normal 0.5 -0.866025 0
    outer loop
      vertex 79.213 -36.3425 0
      vertex 81.1116 -35.2463 3.79722
      vertex 79.213 -36.3425 25
    endloop
  endfacet
  facet normal 0.499999 -0.866026 0
    outer loop
      vertex 83.293 -33.9869 19.7112
      vertex 81.253 -35.1647 4.08
      vertex 83.293 -33.9869 4.08
    endloop
  endfacet
  facet normal -0.5 -0.866025 0
    outer loop
      vertex 75.133 -33.9869 0
      vertex 79.213 -36.3425 25
      vertex 75.133 -33.9869 25
    endloop
  endfacet
  facet normal -0.5 -0.866025 -0
    outer loop
      vertex 79.213 -36.3425 25
      vertex 75.133 -33.9869 0
      vertex 79.213 -36.3425 0
    endloop
  endfacet
  facet normal -0.5 0.866026 0
    outer loop
      vertex 79.213 -26.9201 19.7112
      vertex 75.133 -29.2757 25
      vertex 79.213 -26.9201 25
    endloop
  endfacet
  facet normal -0.499999 0.866026 0
    outer loop
      vertex 77.173 -28.0979 4.08
      vertex 79.213 -26.9201 19.7112
      vertex 79.213 -26.9201 4.08
    endloop
  endfacet
  facet normal -0.5 0.866026 4.51918e-08
    outer loop
      vertex 79.213 -26.9201 19.7112
      vertex 77.173 -28.0979 4.08
      vertex 75.133 -29.2757 25
    endloop
  endfacet
  facet normal -0.5 0.866025 0
    outer loop
      vertex 75.133 -29.2757 25
      vertex 77.173 -28.0979 4.08
      vertex 75.133 -29.2757 0
    endloop
  endfacet
  facet normal 0.500001 0.866025 0
    outer loop
      vertex 83.293 -29.2757 25
      vertex 79.213 -26.9201 19.7112
      vertex 79.213 -26.9201 25
    endloop
  endfacet
  facet normal 0.5 0.866025 5.91743e-08
    outer loop
      vertex 83.293 -29.2757 25
      vertex 81.253 -28.0979 4.08
      vertex 79.213 -26.9201 19.7112
    endloop
  endfacet
  facet normal 0.500001 0.866025 -0
    outer loop
      vertex 83.293 -29.2757 0.799999
      vertex 81.253 -28.0979 4.08
      vertex 83.293 -29.2757 25
    endloop
  endfacet
  facet normal 0.500005 0.866022 3.67133e-06
    outer loop
      vertex 81.253 -28.0979 4.08
      vertex 83.293 -29.2757 0.799999
      vertex 82.893 -29.0448 0.799999
    endloop
  endfacet
  facet normal 0.5 0.866025 0
    outer loop
      vertex 79.213 -26.9201 19.7112
      vertex 81.253 -28.0979 4.08
      vertex 79.213 -26.9201 4.08
    endloop
  endfacet
  facet normal 1 -0 0
    outer loop
      vertex 83.293 -31.6313 4.08
      vertex 83.293 -29.2757 0.799999
      vertex 83.293 -29.2757 25
    endloop
  endfacet
  facet normal 1 0 0
    outer loop
      vertex 83.293 -29.2757 0.799999
      vertex 83.293 -31.6313 4.08
      vertex 83.293 -29.7376 0.799999
    endloop
  endfacet
  facet normal 1 0 0
    outer loop
      vertex 83.293 -33.9869 19.7112
      vertex 83.293 -29.2757 25
      vertex 83.293 -33.9869 25
    endloop
  endfacet
  facet normal 1 0 0
    outer loop
      vertex 83.293 -29.2757 25
      vertex 83.293 -33.9869 19.7112
      vertex 83.293 -31.6313 4.08
    endloop
  endfacet
  facet normal 1 0 0
    outer loop
      vertex 83.293 -31.6313 4.08
      vertex 83.293 -33.9869 19.7112
      vertex 83.293 -33.9869 4.08
    endloop
  endfacet
  facet normal -0.99853 0 -0.0542049
    outer loop
      vertex 75.133 -33.9869 25
      vertex 73.443 -28.3 56.1321
      vertex 75.133 -29.2757 25
    endloop
  endfacet
  facet normal -0.99853 0 -0.0542049
    outer loop
      vertex 73.443 -34.9626 56.1321
      vertex 73.443 -28.3 56.1321
      vertex 75.133 -33.9869 25
    endloop
  endfacet
  facet normal -0.499264 0.864753 -0.0542047
    outer loop
      vertex 79.213 -26.9201 25
      vertex 73.443 -28.3 56.1321
      vertex 79.213 -24.9687 56.1321
    endloop
  endfacet
  facet normal 0.499265 0.864752 -0.0542048
    outer loop
      vertex 83.293 -29.2757 25
      vertex 79.213 -24.9687 56.1321
      vertex 84.983 -28.3 56.1321
    endloop
  endfacet
  facet normal 0.499265 0.864752 -0.0542047
    outer loop
      vertex 79.213 -24.9687 56.1321
      vertex 83.293 -29.2757 25
      vertex 79.213 -26.9201 25
    endloop
  endfacet
  facet normal 0.499264 -0.864752 -0.0542047
    outer loop
      vertex 84.983 -34.9626 56.1321
      vertex 79.213 -36.3425 25
      vertex 83.293 -33.9869 25
    endloop
  endfacet
  facet normal 0.99853 0 -0.0542049
    outer loop
      vertex 84.983 -34.9626 56.1321
      vertex 83.293 -29.2757 25
      vertex 84.983 -28.3 56.1321
    endloop
  endfacet
  facet normal 0.99853 0 -0.0542049
    outer loop
      vertex 84.983 -34.9626 56.1321
      vertex 83.293 -33.9869 25
      vertex 83.293 -29.2757 25
    endloop
  endfacet
  facet normal 0.499265 -0.864752 -0.0542048
    outer loop
      vertex 84.983 -34.9626 56.1321
      vertex 79.213 -38.2939 56.1321
      vertex 79.213 -36.3425 25
    endloop
  endfacet
  facet normal -0.499265 -0.864752 -0.0542048
    outer loop
      vertex 75.133 -33.9869 25
      vertex 79.213 -38.2939 56.1321
      vertex 73.443 -34.9626 56.1321
    endloop
  endfacet
  facet normal -0.499265 -0.864752 -0.0542048
    outer loop
      vertex 79.213 -38.2939 56.1321
      vertex 75.133 -33.9869 25
      vertex 79.213 -36.3425 25
    endloop
  endfacet
  facet normal -0.499265 0.864752 -0.0542048
    outer loop
      vertex 75.133 -29.2757 25
      vertex 73.443 -28.3 56.1321
      vertex 79.213 -26.9201 25
    endloop
  endfacet
  facet normal -1 0 0
    outer loop
      vertex 73.443 -34.9626 56.1321
      vertex 73.443 -28.3 88.7721
      vertex 73.443 -28.3 56.1321
    endloop
  endfacet
  facet normal -1 -0 0
    outer loop
      vertex 73.443 -28.3 88.7721
      vertex 73.443 -34.9626 56.1321
      vertex 73.443 -34.9626 88.7721
    endloop
  endfacet
  facet normal 0.5 -0.866026 0
    outer loop
      vertex 79.213 -38.2939 56.1321
      vertex 84.983 -34.9626 88.7721
      vertex 79.213 -38.2939 88.7721
    endloop
  endfacet
  facet normal 0.5 -0.866026 0
    outer loop
      vertex 84.983 -34.9626 88.7721
      vertex 79.213 -38.2939 56.1321
      vertex 84.983 -34.9626 56.1321
    endloop
  endfacet
  facet normal -0.5 -0.866025 0
    outer loop
      vertex 73.443 -34.9626 56.1321
      vertex 79.213 -38.2939 88.7721
      vertex 73.443 -34.9626 88.7721
    endloop
  endfacet
  facet normal -0.5 -0.866025 -0
    outer loop
      vertex 79.213 -38.2939 88.7721
      vertex 73.443 -34.9626 56.1321
      vertex 79.213 -38.2939 56.1321
    endloop
  endfacet
  facet normal 0 0 1
    outer loop
      vertex 84.983 -28.3 88.7721
      vertex 83.293 -29.2757 88.7721
      vertex 84.983 -34.9626 88.7721
    endloop
  endfacet
  facet normal 0 0 1
    outer loop
      vertex 79.213 -24.9687 88.7721
      vertex 83.293 -29.2757 88.7721
      vertex 84.983 -28.3 88.7721
    endloop
  endfacet
  facet normal 0 0 1
    outer loop
      vertex 79.213 -24.9687 88.7721
      vertex 79.213 -26.9201 88.7721
      vertex 83.293 -29.2757 88.7721
    endloop
  endfacet
  facet normal 0 0 1
    outer loop
      vertex 79.213 -24.9687 88.7721
      vertex 75.133 -29.2757 88.7721
      vertex 79.213 -26.9201 88.7721
    endloop
  endfacet
  facet normal 0 0 1
    outer loop
      vertex 75.133 -29.2757 88.7721
      vertex 73.443 -28.3 88.7721
      vertex 75.133 -33.9869 88.7721
    endloop
  endfacet
  facet normal -0 0 1
    outer loop
      vertex 73.443 -28.3 88.7721
      vertex 75.133 -29.2757 88.7721
      vertex 79.213 -24.9687 88.7721
    endloop
  endfacet
  facet normal -0 0 1
    outer loop
      vertex 83.293 -33.9869 88.7721
      vertex 84.983 -34.9626 88.7721
      vertex 83.293 -29.2757 88.7721
    endloop
  endfacet
  facet normal 0 0 1
    outer loop
      vertex 79.213 -36.3425 88.7721
      vertex 84.983 -34.9626 88.7721
      vertex 83.293 -33.9869 88.7721
    endloop
  endfacet
  facet normal -0 0 1
    outer loop
      vertex 79.213 -36.3425 88.7721
      vertex 79.213 -38.2939 88.7721
      vertex 84.983 -34.9626 88.7721
    endloop
  endfacet
  facet normal 0 0 1
    outer loop
      vertex 75.133 -33.9869 88.7721
      vertex 79.213 -38.2939 88.7721
      vertex 79.213 -36.3425 88.7721
    endloop
  endfacet
  facet normal 0 0 1
    outer loop
      vertex 75.133 -33.9869 88.7721
      vertex 73.443 -34.9626 88.7721
      vertex 79.213 -38.2939 88.7721
    endloop
  endfacet
  facet normal 0 0 1
    outer loop
      vertex 73.443 -34.9626 88.7721
      vertex 75.133 -33.9869 88.7721
      vertex 73.443 -28.3 88.7721
    endloop
  endfacet
  facet normal 0.5 0.866025 -0
    outer loop
      vertex 84.983 -28.3 56.1321
      vertex 79.213 -24.9687 88.7721
      vertex 84.983 -28.3 88.7721
    endloop
  endfacet
  facet normal 0.5 0.866025 0
    outer loop
      vertex 79.213 -24.9687 88.7721
      vertex 84.983 -28.3 56.1321
      vertex 79.213 -24.9687 56.1321
    endloop
  endfacet
  facet normal 1 -0 0
    outer loop
      vertex 84.983 -34.9626 88.7721
      vertex 84.983 -28.3 56.1321
      vertex 84.983 -28.3 88.7721
    endloop
  endfacet
  facet normal 1 0 0
    outer loop
      vertex 84.983 -28.3 56.1321
      vertex 84.983 -34.9626 88.7721
      vertex 84.983 -34.9626 56.1321
    endloop
  endfacet
  facet normal -0.499999 0.866026 0
    outer loop
      vertex 79.213 -24.9687 56.1321
      vertex 73.443 -28.3 88.7721
      vertex 79.213 -24.9687 88.7721
    endloop
  endfacet
  facet normal -0.499999 0.866026 0
    outer loop
      vertex 73.443 -28.3 88.7721
      vertex 79.213 -24.9687 56.1321
      vertex 73.443 -28.3 56.1321
    endloop
  endfacet
  facet normal -1 -4.88089e-07 -0
    outer loop
      vertex 79.213 -26.9201 19.7112
      vertex 79.213 -11.289 4.08
      vertex 79.213 -26.9201 4.08
    endloop
  endfacet
  facet normal -9.35921e-07 0.707107 0.707107
    outer loop
      vertex 79.9335 -11.289 4.08
      vertex 79.213 -11.289 4.08
      vertex 79.213 -26.9201 19.7112
    endloop
  endfacet
  facet normal -0 0.707107 0.707107
    outer loop
      vertex 79.9335 -11.289 4.08
      vertex 80.013 -26.9201 19.7112
      vertex 80.013 -11.289 4.08
    endloop
  endfacet
  facet normal 0 0.707107 0.707107
    outer loop
      vertex 80.013 -26.9201 19.7112
      vertex 79.9335 -11.289 4.08
      vertex 79.213 -26.9201 19.7112
    endloop
  endfacet
  facet normal 1 0 0
    outer loop
      vertex 80.013 -26.9201 19.7112
      vertex 80.013 -26.9201 4.08
      vertex 80.013 -11.289 4.08
    endloop
  endfacet
  facet normal 0 -1 0
    outer loop
      vertex 79.213 -26.9201 4.08
      vertex 80.013 -26.9201 19.7112
      vertex 79.213 -26.9201 19.7112
    endloop
  endfacet
  facet normal 0 -1 -0
    outer loop
      vertex 80.013 -26.9201 19.7112
      vertex 79.213 -26.9201 4.08
      vertex 80.013 -26.9201 4.08
    endloop
  endfacet
  facet normal 0.5 0.866025 0
    outer loop
      vertex 96.83 -41.8025 4.08
      vertex 83.293 -33.9869 4.08
      vertex 83.293 -33.9869 19.7112
    endloop
  endfacet
  facet normal 0.612371 -0.353555 0.707107
    outer loop
      vertex 83.293 -33.9869 19.7112
      vertex 96.43 -42.4953 4.08
      vertex 96.83 -41.8025 4.08
    endloop
  endfacet
  facet normal 0.612371 -0.353555 0.707107
    outer loop
      vertex 96.43 -42.4953 4.08
      vertex 83.293 -33.9869 19.7112
      vertex 82.893 -34.6797 19.7112
    endloop
  endfacet
  facet normal -0.866024 0.500003 0
    outer loop
      vertex 82.893 -34.6797 4.08
      vertex 83.293 -33.9869 19.7112
      vertex 83.293 -33.9869 4.08
    endloop
  endfacet
  facet normal -0.866024 0.500003 0
    outer loop
      vertex 83.293 -33.9869 19.7112
      vertex 82.893 -34.6797 4.08
      vertex 82.893 -34.6797 19.7112
    endloop
  endfacet
  facet normal -0.5 -0.866025 -0
    outer loop
      vertex 82.893 -34.6797 19.7112
      vertex 82.893 -34.6797 4.08
      vertex 96.43 -42.4953 4.08
    endloop
  endfacet
  facet normal 0.991521 0 0.129943
    outer loop
      vertex 79.213 -31.6313 25
      vertex 75.133 -29.2757 56.1321
      vertex 75.133 -33.9869 56.1321
    endloop
  endfacet
  facet normal -0.49576 0.858683 0.129943
    outer loop
      vertex 83.293 -33.9869 56.1321
      vertex 79.213 -31.6313 25
      vertex 79.213 -36.3425 56.1321
    endloop
  endfacet
  facet normal 0.495761 -0.858683 0.129943
    outer loop
      vertex 79.213 -31.6313 25
      vertex 79.213 -26.9201 56.1321
      vertex 75.133 -29.2757 56.1321
    endloop
  endfacet
  facet normal 0.495761 0.858683 0.129943
    outer loop
      vertex 79.213 -36.3425 56.1321
      vertex 79.213 -31.6313 25
      vertex 75.133 -33.9869 56.1321
    endloop
  endfacet
  facet normal -0.991521 0 0.129943
    outer loop
      vertex 83.293 -33.9869 56.1321
      vertex 83.293 -29.2757 56.1321
      vertex 79.213 -31.6313 25
    endloop
  endfacet
  facet normal -0.495761 -0.858682 0.129943
    outer loop
      vertex 83.293 -29.2757 56.1321
      vertex 79.213 -26.9201 56.1321
      vertex 79.213 -31.6313 25
    endloop
  endfacet
  facet normal 1 -0 0
    outer loop
      vertex 75.133 -33.9869 88.7721
      vertex 75.133 -29.2757 56.1321
      vertex 75.133 -29.2757 88.7721
    endloop
  endfacet
  facet normal 1 0 0
    outer loop
      vertex 75.133 -29.2757 56.1321
      vertex 75.133 -33.9869 88.7721
      vertex 75.133 -33.9869 56.1321
    endloop
  endfacet
  facet normal -0.499999 0.866026 0
    outer loop
      vertex 83.293 -33.9869 56.1321
      vertex 79.213 -36.3425 88.7721
      vertex 83.293 -33.9869 88.7721
    endloop
  endfacet
  facet normal -0.499999 0.866026 0
    outer loop
      vertex 79.213 -36.3425 88.7721
      vertex 83.293 -33.9869 56.1321
      vertex 79.213 -36.3425 56.1321
    endloop
  endfacet
  facet normal 0.5 0.866025 -0
    outer loop
      vertex 79.213 -36.3425 56.1321
      vertex 75.133 -33.9869 88.7721
      vertex 79.213 -36.3425 88.7721
    endloop
  endfacet
  facet normal 0.5 0.866025 0
    outer loop
      vertex 75.133 -33.9869 88.7721
      vertex 79.213 -36.3425 56.1321
      vertex 75.133 -33.9869 56.1321
    endloop
  endfacet
  facet normal -1 0 0
    outer loop
      vertex 83.293 -33.9869 56.1321
      vertex 83.293 -29.2757 88.7721
      vertex 83.293 -29.2757 56.1321
    endloop
  endfacet
  facet normal -1 -0 0
    outer loop
      vertex 83.293 -29.2757 88.7721
      vertex 83.293 -33.9869 56.1321
      vertex 83.293 -33.9869 88.7721
    endloop
  endfacet
  facet normal -0.500001 -0.866025 0
    outer loop
      vertex 79.213 -26.9201 56.1321
      vertex 83.293 -29.2757 88.7721
      vertex 79.213 -26.9201 88.7721
    endloop
  endfacet
  facet normal -0.500001 -0.866025 -0
    outer loop
      vertex 83.293 -29.2757 88.7721
      vertex 79.213 -26.9201 56.1321
      vertex 83.293 -29.2757 56.1321
    endloop
  endfacet
  facet normal 0.5 -0.866026 0
    outer loop
      vertex 75.133 -29.2757 56.1321
      vertex 79.213 -26.9201 88.7721
      vertex 75.133 -29.2757 88.7721
    endloop
  endfacet
  facet normal 0.5 -0.866026 0
    outer loop
      vertex 79.213 -26.9201 88.7721
      vertex 75.133 -29.2757 56.1321
      vertex 79.213 -26.9201 56.1321
    endloop
  endfacet
  facet normal 0.499999 -0.866026 0
    outer loop
      vertex 188.787 -36.3425 0
      vertex 192.867 -33.9869 25
      vertex 188.787 -36.3425 25
    endloop
  endfacet
  facet normal 0.499999 -0.866026 0
    outer loop
      vertex 192.867 -33.9869 25
      vertex 188.787 -36.3425 0
      vertex 192.867 -33.9869 0
    endloop
  endfacet
  facet normal 0.5 0.866026 0
    outer loop
      vertex 192.867 -29.2757 25
      vertex 188.787 -26.9201 19.7112
      vertex 188.787 -26.9201 25
    endloop
  endfacet
  facet normal 0.5 0.866025 -1.6354e-07
    outer loop
      vertex 192.867 -29.2757 25
      vertex 190.827 -28.0979 4.08
      vertex 188.787 -26.9201 19.7112
    endloop
  endfacet
  facet normal 0.499999 0.866026 0
    outer loop
      vertex 190.827 -28.0979 4.08
      vertex 192.867 -29.2757 25
      vertex 192.867 -29.2757 0
    endloop
  endfacet
  facet normal 0.500001 0.866025 0
    outer loop
      vertex 188.787 -26.9201 19.7112
      vertex 190.827 -28.0979 4.08
      vertex 188.787 -26.9201 4.08
    endloop
  endfacet
  facet normal 1 -0 0
    outer loop
      vertex 192.867 -33.9869 25
      vertex 192.867 -29.2757 0
      vertex 192.867 -29.2757 25
    endloop
  endfacet
  facet normal 1 0 0
    outer loop
      vertex 192.867 -29.2757 0
      vertex 192.867 -33.9869 25
      vertex 192.867 -33.9869 0
    endloop
  endfacet
  facet normal -0.499999 -0.866026 0
    outer loop
      vertex 184.707 -33.9869 19.7112
      vertex 188.787 -36.3425 25
      vertex 184.707 -33.9869 25
    endloop
  endfacet
  facet normal -0.5 -0.866025 0
    outer loop
      vertex 186.747 -35.1647 4.08
      vertex 184.707 -33.9869 19.7112
      vertex 184.707 -33.9869 4.08
    endloop
  endfacet
  facet normal -0.5 -0.866026 1.18348e-07
    outer loop
      vertex 184.707 -33.9869 19.7112
      vertex 186.747 -35.1647 4.08
      vertex 188.787 -36.3425 25
    endloop
  endfacet
  facet normal -0.5 -0.866026 1.23046e-07
    outer loop
      vertex 188.641 -36.2579 0.292931
      vertex 188.787 -36.3425 25
      vertex 186.747 -35.1647 4.08
    endloop
  endfacet
  facet normal -0.499984 -0.866035 -0
    outer loop
      vertex 188.787 -36.3425 25
      vertex 188.641 -36.2579 0.292931
      vertex 188.787 -36.3425 0
    endloop
  endfacet
  facet normal -1 0 0
    outer loop
      vertex 184.707 -31.5402 3.92221
      vertex 184.707 -29.2757 0.799999
      vertex 184.707 -29.7376 0.799999
    endloop
  endfacet
  facet normal -1 0 0
    outer loop
      vertex 184.707 -29.2757 0.799999
      vertex 184.707 -31.5402 3.92221
      vertex 184.707 -29.2757 25
    endloop
  endfacet
  facet normal -1 0 0
    outer loop
      vertex 184.707 -31.6313 4.08
      vertex 184.707 -29.2757 25
      vertex 184.707 -31.5402 3.92221
    endloop
  endfacet
  facet normal -1 0 0
    outer loop
      vertex 184.707 -33.9869 19.7112
      vertex 184.707 -31.6313 4.08
      vertex 184.707 -33.9869 4.08
    endloop
  endfacet
  facet normal -1 0 0
    outer loop
      vertex 184.707 -31.6313 4.08
      vertex 184.707 -33.9869 19.7112
      vertex 184.707 -29.2757 25
    endloop
  endfacet
  facet normal -1 -0 0
    outer loop
      vertex 184.707 -29.2757 25
      vertex 184.707 -33.9869 19.7112
      vertex 184.707 -33.9869 25
    endloop
  endfacet
  facet normal -0.5 0.866026 0
    outer loop
      vertex 188.787 -26.9201 19.7112
      vertex 184.707 -29.2757 25
      vertex 188.787 -26.9201 25
    endloop
  endfacet
  facet normal -0.499999 0.866026 0
    outer loop
      vertex 186.747 -28.0979 4.08
      vertex 188.787 -26.9201 19.7112
      vertex 188.787 -26.9201 4.08
    endloop
  endfacet
  facet normal -0.5 0.866026 1.6354e-07
    outer loop
      vertex 188.787 -26.9201 19.7112
      vertex 186.747 -28.0979 4.08
      vertex 184.707 -29.2757 25
    endloop
  endfacet
  facet normal -0.500005 0.866022 3.67133e-06
    outer loop
      vertex 184.707 -29.2757 0.799999
      vertex 186.747 -28.0979 4.08
      vertex 185.107 -29.0448 0.799999
    endloop
  endfacet
  facet normal -0.500001 0.866025 0
    outer loop
      vertex 186.747 -28.0979 4.08
      vertex 184.707 -29.2757 0.799999
      vertex 184.707 -29.2757 25
    endloop
  endfacet
  facet normal 0.499264 -0.864752 -0.0542048
    outer loop
      vertex 192.867 -33.9869 25
      vertex 188.787 -38.2939 56.1321
      vertex 188.787 -36.3425 25
    endloop
  endfacet
  facet normal 0.499265 -0.864752 -0.0542046
    outer loop
      vertex 194.557 -34.9626 56.1321
      vertex 188.787 -38.2939 56.1321
      vertex 192.867 -33.9869 25
    endloop
  endfacet
  facet normal -0.499265 -0.864752 -0.0542046
    outer loop
      vertex 188.787 -38.2939 56.1321
      vertex 183.017 -34.9626 56.1321
      vertex 184.707 -33.9869 25
    endloop
  endfacet
  facet normal -0.99853 0 -0.0542046
    outer loop
      vertex 184.707 -33.9869 25
      vertex 183.017 -28.3 56.1321
      vertex 184.707 -29.2757 25
    endloop
  endfacet
  facet normal -0.99853 -0 -0.0542046
    outer loop
      vertex 183.017 -28.3 56.1321
      vertex 184.707 -33.9869 25
      vertex 183.017 -34.9626 56.1321
    endloop
  endfacet
  facet normal 0.499265 0.864752 -0.0542047
    outer loop
      vertex 192.867 -29.2757 25
      vertex 188.787 -26.9201 25
      vertex 188.787 -24.9687 56.1321
    endloop
  endfacet
  facet normal -0.499265 0.864752 -0.0542046
    outer loop
      vertex 184.707 -29.2757 25
      vertex 183.017 -28.3 56.1321
      vertex 188.787 -24.9687 56.1321
    endloop
  endfacet
  facet normal -0.499265 0.864752 -0.0542047
    outer loop
      vertex 188.787 -26.9201 25
      vertex 184.707 -29.2757 25
      vertex 188.787 -24.9687 56.1321
    endloop
  endfacet
  facet normal 0.499265 0.864752 -0.0542046
    outer loop
      vertex 192.867 -29.2757 25
      vertex 188.787 -24.9687 56.1321
      vertex 194.557 -28.3 56.1321
    endloop
  endfacet
  facet normal 0.99853 0 -0.0542046
    outer loop
      vertex 194.557 -28.3 56.1321
      vertex 192.867 -33.9869 25
      vertex 192.867 -29.2757 25
    endloop
  endfacet
  facet normal 0.99853 0 -0.0542046
    outer loop
      vertex 192.867 -33.9869 25
      vertex 194.557 -28.3 56.1321
      vertex 194.557 -34.9626 56.1321
    endloop
  endfacet
  facet normal -0.499264 -0.864752 -0.0542048
    outer loop
      vertex 188.787 -38.2939 56.1321
      vertex 184.707 -33.9869 25
      vertex 188.787 -36.3425 25
    endloop
  endfacet
  facet normal 0.5 -0.866025 0
    outer loop
      vertex 188.787 -38.2939 56.1321
      vertex 194.557 -34.9626 88.7721
      vertex 188.787 -38.2939 88.7721
    endloop
  endfacet
  facet normal 0.5 -0.866025 0
    outer loop
      vertex 194.557 -34.9626 88.7721
      vertex 188.787 -38.2939 56.1321
      vertex 194.557 -34.9626 56.1321
    endloop
  endfacet
  facet normal 0.5 0.866025 -0
    outer loop
      vertex 194.557 -28.3 56.1321
      vertex 188.787 -24.9687 88.7721
      vertex 194.557 -28.3 88.7721
    endloop
  endfacet
  facet normal 0.5 0.866025 0
    outer loop
      vertex 188.787 -24.9687 88.7721
      vertex 194.557 -28.3 56.1321
      vertex 188.787 -24.9687 56.1321
    endloop
  endfacet
  facet normal 1 -0 0
    outer loop
      vertex 194.557 -34.9626 88.7721
      vertex 194.557 -28.3 56.1321
      vertex 194.557 -28.3 88.7721
    endloop
  endfacet
  facet normal 1 0 0
    outer loop
      vertex 194.557 -28.3 56.1321
      vertex 194.557 -34.9626 88.7721
      vertex 194.557 -34.9626 56.1321
    endloop
  endfacet
  facet normal 0 0 1
    outer loop
      vertex 194.557 -28.3 88.7721
      vertex 192.867 -29.2757 88.7721
      vertex 194.557 -34.9626 88.7721
    endloop
  endfacet
  facet normal 0 0 1
    outer loop
      vertex 188.787 -24.9687 88.7721
      vertex 192.867 -29.2757 88.7721
      vertex 194.557 -28.3 88.7721
    endloop
  endfacet
  facet normal 0 0 1
    outer loop
      vertex 188.787 -24.9687 88.7721
      vertex 188.787 -26.9201 88.7721
      vertex 192.867 -29.2757 88.7721
    endloop
  endfacet
  facet normal 0 0 1
    outer loop
      vertex 188.787 -24.9687 88.7721
      vertex 184.707 -29.2757 88.7721
      vertex 188.787 -26.9201 88.7721
    endloop
  endfacet
  facet normal 0 0 1
    outer loop
      vertex 184.707 -29.2757 88.7721
      vertex 183.017 -28.3 88.7721
      vertex 184.707 -33.9869 88.7721
    endloop
  endfacet
  facet normal -0 0 1
    outer loop
      vertex 183.017 -28.3 88.7721
      vertex 184.707 -29.2757 88.7721
      vertex 188.787 -24.9687 88.7721
    endloop
  endfacet
  facet normal -0 0 1
    outer loop
      vertex 192.867 -33.9869 88.7721
      vertex 194.557 -34.9626 88.7721
      vertex 192.867 -29.2757 88.7721
    endloop
  endfacet
  facet normal 0 0 1
    outer loop
      vertex 188.787 -36.3425 88.7721
      vertex 194.557 -34.9626 88.7721
      vertex 192.867 -33.9869 88.7721
    endloop
  endfacet
  facet normal -0 0 1
    outer loop
      vertex 188.787 -36.3425 88.7721
      vertex 188.787 -38.2939 88.7721
      vertex 194.557 -34.9626 88.7721
    endloop
  endfacet
  facet normal 0 0 1
    outer loop
      vertex 184.707 -33.9869 88.7721
      vertex 188.787 -38.2939 88.7721
      vertex 188.787 -36.3425 88.7721
    endloop
  endfacet
  facet normal 0 0 1
    outer loop
      vertex 184.707 -33.9869 88.7721
      vertex 183.017 -34.9626 88.7721
      vertex 188.787 -38.2939 88.7721
    endloop
  endfacet
  facet normal 0 0 1
    outer loop
      vertex 183.017 -34.9626 88.7721
      vertex 184.707 -33.9869 88.7721
      vertex 183.017 -28.3 88.7721
    endloop
  endfacet
  facet normal -1 0 0
    outer loop
      vertex 183.017 -34.9626 56.1321
      vertex 183.017 -28.3 88.7721
      vertex 183.017 -28.3 56.1321
    endloop
  endfacet
  facet normal -1 -0 0
    outer loop
      vertex 183.017 -28.3 88.7721
      vertex 183.017 -34.9626 56.1321
      vertex 183.017 -34.9626 88.7721
    endloop
  endfacet
  facet normal -0.5 0.866025 0
    outer loop
      vertex 188.787 -24.9687 56.1321
      vertex 183.017 -28.3 88.7721
      vertex 188.787 -24.9687 88.7721
    endloop
  endfacet
  facet normal -0.5 0.866025 0
    outer loop
      vertex 183.017 -28.3 88.7721
      vertex 188.787 -24.9687 56.1321
      vertex 183.017 -28.3 56.1321
    endloop
  endfacet
  facet normal -0.5 -0.866025 0
    outer loop
      vertex 183.017 -34.9626 56.1321
      vertex 188.787 -38.2939 88.7721
      vertex 183.017 -34.9626 88.7721
    endloop
  endfacet
  facet normal -0.5 -0.866025 -0
    outer loop
      vertex 188.787 -38.2939 88.7721
      vertex 183.017 -34.9626 56.1321
      vertex 188.787 -38.2939 56.1321
    endloop
  endfacet
  facet normal 0.5 -0.866025 0
    outer loop
      vertex 184.707 -33.9869 19.7112
      vertex 171.17 -41.8025 4.08
      vertex 184.707 -33.9869 4.08
    endloop
  endfacet
  facet normal -0.612372 -0.353555 0.707107
    outer loop
      vertex 184.707 -33.9869 19.7112
      vertex 170.81 -41.1785 4.08
      vertex 171.17 -41.8025 4.08
    endloop
  endfacet
  facet normal -0.612369 -0.353559 0.707107
    outer loop
      vertex 184.307 -33.2941 19.7112
      vertex 170.81 -41.1785 4.08
      vertex 184.707 -33.9869 19.7112
    endloop
  endfacet
  facet normal -0.612406 -0.353495 0.707107
    outer loop
      vertex 170.81 -41.1785 4.08
      vertex 184.307 -33.2941 19.7112
      vertex 170.77 -41.1097 4.08
    endloop
  endfacet
  facet normal -0.5 0.866025 0
    outer loop
      vertex 184.307 -33.2941 4.08
      vertex 170.77 -41.1097 4.08
      vertex 184.307 -33.2941 19.7112
    endloop
  endfacet
  facet normal 0.866021 0.500008 0
    outer loop
      vertex 184.707 -33.9869 19.7112
      vertex 184.307 -33.2941 4.08
      vertex 184.307 -33.2941 19.7112
    endloop
  endfacet
  facet normal 0.866021 0.500008 0
    outer loop
      vertex 184.307 -33.2941 4.08
      vertex 184.707 -33.9869 19.7112
      vertex 184.707 -33.9869 4.08
    endloop
  endfacet
  facet normal -1 0 0
    outer loop
      vertex 188.787 -11.289 4.08
      vertex 188.787 -26.9201 4.08
      vertex 188.787 -26.9201 19.7112
    endloop
  endfacet
  facet normal 0 0.707107 0.707107
    outer loop
      vertex 189.587 -11.289 4.08
      vertex 188.787 -26.9201 19.7112
      vertex 189.587 -26.9201 19.7112
    endloop
  endfacet
  facet normal 0 0.707107 0.707107
    outer loop
      vertex 188.787 -26.9201 19.7112
      vertex 189.587 -11.289 4.08
      vertex 188.787 -11.289 4.08
    endloop
  endfacet
  facet normal 0 -1 0
    outer loop
      vertex 188.787 -26.9201 4.08
      vertex 189.587 -26.9201 19.7112
      vertex 188.787 -26.9201 19.7112
    endloop
  endfacet
  facet normal 0 -1 -0
    outer loop
      vertex 189.587 -26.9201 19.7112
      vertex 188.787 -26.9201 4.08
      vertex 189.587 -26.9201 4.08
    endloop
  endfacet
  facet normal 1 0 0
    outer loop
      vertex 189.587 -26.9201 19.7112
      vertex 189.587 -26.9201 4.08
      vertex 189.587 -11.289 4.08
    endloop
  endfacet
  facet normal -0.49576 0.858683 0.129943
    outer loop
      vertex 192.867 -33.9869 56.1321
      vertex 188.787 -31.6313 25
      vertex 188.787 -36.3425 56.1321
    endloop
  endfacet
  facet normal -0.495761 -0.858683 0.129943
    outer loop
      vertex 192.867 -29.2757 56.1321
      vertex 188.787 -26.9201 56.1321
      vertex 188.787 -31.6313 25
    endloop
  endfacet
  facet normal 0.49576 0.858683 0.129943
    outer loop
      vertex 188.787 -36.3425 56.1321
      vertex 188.787 -31.6313 25
      vertex 184.707 -33.9869 56.1321
    endloop
  endfacet
  facet normal -0.991521 0 0.129943
    outer loop
      vertex 192.867 -33.9869 56.1321
      vertex 192.867 -29.2757 56.1321
      vertex 188.787 -31.6313 25
    endloop
  endfacet
  facet normal 0.495761 -0.858683 0.129943
    outer loop
      vertex 188.787 -31.6313 25
      vertex 188.787 -26.9201 56.1321
      vertex 184.707 -29.2757 56.1321
    endloop
  endfacet
  facet normal 0.991521 0 0.129943
    outer loop
      vertex 188.787 -31.6313 25
      vertex 184.707 -29.2757 56.1321
      vertex 184.707 -33.9869 56.1321
    endloop
  endfacet
  facet normal -0.499999 0.866026 0
    outer loop
      vertex 192.867 -33.9869 56.1321
      vertex 188.787 -36.3425 88.7721
      vertex 192.867 -33.9869 88.7721
    endloop
  endfacet
  facet normal -0.499999 0.866026 0
    outer loop
      vertex 188.787 -36.3425 88.7721
      vertex 192.867 -33.9869 56.1321
      vertex 188.787 -36.3425 56.1321
    endloop
  endfacet
  facet normal -0.5 -0.866026 0
    outer loop
      vertex 188.787 -26.9201 56.1321
      vertex 192.867 -29.2757 88.7721
      vertex 188.787 -26.9201 88.7721
    endloop
  endfacet
  facet normal -0.5 -0.866026 -0
    outer loop
      vertex 192.867 -29.2757 88.7721
      vertex 188.787 -26.9201 56.1321
      vertex 192.867 -29.2757 56.1321
    endloop
  endfacet
  facet normal -1 0 0
    outer loop
      vertex 192.867 -33.9869 56.1321
      vertex 192.867 -29.2757 88.7721
      vertex 192.867 -29.2757 56.1321
    endloop
  endfacet
  facet normal -1 -0 0
    outer loop
      vertex 192.867 -29.2757 88.7721
      vertex 192.867 -33.9869 56.1321
      vertex 192.867 -33.9869 88.7721
    endloop
  endfacet
  facet normal 0.5 -0.866026 0
    outer loop
      vertex 184.707 -29.2757 56.1321
      vertex 188.787 -26.9201 88.7721
      vertex 184.707 -29.2757 88.7721
    endloop
  endfacet
  facet normal 0.5 -0.866026 0
    outer loop
      vertex 188.787 -26.9201 88.7721
      vertex 184.707 -29.2757 56.1321
      vertex 188.787 -26.9201 56.1321
    endloop
  endfacet
  facet normal 1 -0 0
    outer loop
      vertex 184.707 -33.9869 88.7721
      vertex 184.707 -29.2757 56.1321
      vertex 184.707 -29.2757 88.7721
    endloop
  endfacet
  facet normal 1 0 0
    outer loop
      vertex 184.707 -29.2757 56.1321
      vertex 184.707 -33.9869 88.7721
      vertex 184.707 -33.9869 56.1321
    endloop
  endfacet
  facet normal 0.499999 0.866026 -0
    outer loop
      vertex 188.787 -36.3425 56.1321
      vertex 184.707 -33.9869 88.7721
      vertex 188.787 -36.3425 88.7721
    endloop
  endfacet
  facet normal 0.499999 0.866026 0
    outer loop
      vertex 184.707 -33.9869 88.7721
      vertex 188.787 -36.3425 56.1321
      vertex 184.707 -33.9869 56.1321
    endloop
  endfacet
  facet normal 0 0 1
    outer loop
      vertex 185.107 29.5067 0.799999
      vertex 184.707 -29.2757 0.799999
      vertex 185.107 -29.0448 0.799999
    endloop
  endfacet
  facet normal 0 0 1
    outer loop
      vertex 174.764 35.4779 0.799999
      vertex 184.707 -29.2757 0.799999
      vertex 185.107 29.5067 0.799999
    endloop
  endfacet
  facet normal 0 0 1
    outer loop
      vertex 144.343 -53.042 0.799999
      vertex 184.707 -29.2757 0.799999
      vertex 174.764 35.4779 0.799999
    endloop
  endfacet
  facet normal 0 0 1
    outer loop
      vertex 184.707 -29.2757 0.799999
      vertex 144.343 -53.042 0.799999
      vertex 184.707 -29.7376 0.799999
    endloop
  endfacet
  facet normal -0 0 1
    outer loop
      vertex 134 58.5514 0.799999
      vertex 174.764 35.4779 0.799999
      vertex 134.4 58.7824 0.799999
    endloop
  endfacet
  facet normal -0 0 1
    outer loop
      vertex 123.657 53.042 0.799999
      vertex 174.764 35.4779 0.799999
      vertex 134 58.5514 0.799999
    endloop
  endfacet
  facet normal 0 0 1
    outer loop
      vertex 174.764 35.4779 0.799999
      vertex 123.657 53.042 0.799999
      vertex 144.343 -53.042 0.799999
    endloop
  endfacet
  facet normal 0 0 1
    outer loop
      vertex 123.657 53.042 0.799999
      vertex 134 58.5514 0.799999
      vertex 133.6 58.7824 0.799999
    endloop
  endfacet
  facet normal -0 0 1
    outer loop
      vertex 93.2355 -35.4779 0.799999
      vertex 144.343 -53.042 0.799999
      vertex 123.657 53.042 0.799999
    endloop
  endfacet
  facet normal 0 0 1
    outer loop
      vertex 144.343 -53.042 0.799999
      vertex 93.2355 -35.4779 0.799999
      vertex 134 -59.0133 0.799999
    endloop
  endfacet
  facet normal -0 0 1
    outer loop
      vertex 82.893 29.5067 0.799999
      vertex 93.2355 -35.4779 0.799999
      vertex 123.657 53.042 0.799999
    endloop
  endfacet
  facet normal 0 0 1
    outer loop
      vertex 93.2355 -35.4779 0.799999
      vertex 82.893 29.5067 0.799999
      vertex 83.293 -29.2757 0.799999
    endloop
  endfacet
  facet normal 0 0 1
    outer loop
      vertex 83.293 -29.2757 0.799999
      vertex 82.893 29.5067 0.799999
      vertex 82.893 -29.0448 0.799999
    endloop
  endfacet
  facet normal 0 0 1
    outer loop
      vertex 93.2355 -35.4779 0.799999
      vertex 83.293 -29.2757 0.799999
      vertex 83.293 -29.7376 0.799999
    endloop
  endfacet
endsolid OpenSCAD_Model
