solid OpenSCAD_Model
  facet normal -0.894427 0 0.447214
    outer loop
      vertex -41.6247 24.0321 0
      vertex -40.1247 -23.166 3
      vertex -40.1247 23.166 3
    endloop
  endfacet
  facet normal -0.894427 0 0.447214
    outer loop
      vertex -40.1247 -23.166 3
      vertex -41.6247 24.0321 0
      vertex -41.6247 -24.0321 0
    endloop
  endfacet
  facet normal -3.17891e-07 0 1
    outer loop
      vertex -40.1247 23.166 3
      vertex -37.1247 -21.434 3
      vertex -37.1247 21.434 3
    endloop
  endfacet
  facet normal -3.17891e-07 0 1
    outer loop
      vertex -37.1247 -21.434 3
      vertex -40.1247 23.166 3
      vertex -40.1247 -23.166 3
    endloop
  endfacet
  facet normal 0.894428 0 0.447213
    outer loop
      vertex -37.1247 21.434 3
      vertex -36.0247 -20.7989 0.799999
      vertex -36.0247 20.7989 0.799999
    endloop
  endfacet
  facet normal 0.894428 0 0.447213
    outer loop
      vertex -36.0247 -20.7989 0.799999
      vertex -37.1247 21.434 3
      vertex -37.1247 -21.434 3
    endloop
  endfacet
  facet normal -0.447212 0.774593 0.447221
    outer loop
      vertex -3 44.7248 2.78378
      vertex -40.1247 23.166 3
      vertex -3 44.6 3
    endloop
  endfacet
  facet normal -0.447214 0.774597 0.447214
    outer loop
      vertex -40.1247 23.166 3
      vertex -3 44.7248 2.78378
      vertex -41.6247 24.0321 0
    endloop
  endfacet
  facet normal -0.447214 0.774597 0.447213
    outer loop
      vertex -3 46.3321 1.06879e-06
      vertex -41.6247 24.0321 0
      vertex -3 44.7248 2.78378
    endloop
  endfacet
  facet normal -0.308907 0.535043 0.786324
    outer loop
      vertex -41.6247 24.0321 0
      vertex -3 46.3321 1.06879e-06
      vertex 0 48.0641 0
    endloop
  endfacet
  facet normal -1.66439e-08 -2.88272e-08 1
    outer loop
      vertex -9.36245 38.2708 3
      vertex -1.5 42.0019 3
      vertex -1.62121 42.0719 3
    endloop
  endfacet
  facet normal -1.70298e-07 2.94965e-07 1
    outer loop
      vertex -11.4923 37.0412 3
      vertex -1.5 42.0019 3
      vertex -9.36245 38.2708 3
    endloop
  endfacet
  facet normal -1.70299e-07 2.94966e-07 1
    outer loop
      vertex -11.4923 37.0412 3
      vertex -37.1247 21.434 3
      vertex -1.5 42.0019 3
    endloop
  endfacet
  facet normal 6.88208e-09 3.97344e-09 1
    outer loop
      vertex -11.575 37.1844 3
      vertex -37.1247 21.434 3
      vertex -11.4923 37.0412 3
    endloop
  endfacet
  facet normal -1.5964e-07 2.74099e-07 1
    outer loop
      vertex -37.1247 21.434 3
      vertex -11.575 37.1844 3
      vertex -40.1247 23.166 3
    endloop
  endfacet
  facet normal -1.58946e-07 2.75303e-07 1
    outer loop
      vertex -3 44.6 3
      vertex -11.8923 37.734 3
      vertex -3 42.868 3
    endloop
  endfacet
  facet normal -1.58946e-07 2.75302e-07 1
    outer loop
      vertex -11.8923 37.734 3
      vertex -3 44.6 3
      vertex -40.1247 23.166 3
    endloop
  endfacet
  facet normal -1.30129e-08 -7.51311e-09 1
    outer loop
      vertex -40.1247 23.166 3
      vertex -11.8206 37.6098 3
      vertex -11.8923 37.734 3
    endloop
  endfacet
  facet normal -2.33961e-07 4.25461e-07 1
    outer loop
      vertex -11.8206 37.6098 3
      vertex -40.1247 23.166 3
      vertex -11.575 37.1844 3
    endloop
  endfacet
  facet normal -2.05964e-07 3.56739e-07 1
    outer loop
      vertex -1.62121 42.0719 3
      vertex -2.2 42.4061 3
      vertex -9.36245 38.2708 3
    endloop
  endfacet
  facet normal 0.447214 -0.774597 0.447213
    outer loop
      vertex -36.0247 20.7989 0.799999
      vertex -9.89992 35.8821 0.799999
      vertex -37.1247 21.434 3
    endloop
  endfacet
  facet normal 0.447214 -0.774597 0.447213
    outer loop
      vertex -9.89992 35.8821 0.799999
      vertex -1.5 42.0019 3
      vertex -37.1247 21.434 3
    endloop
  endfacet
  facet normal 0.447213 -0.774597 0.447214
    outer loop
      vertex -1.5 42.0019 3
      vertex -9.89992 35.8821 0.799999
      vertex -0.4 41.3668 0.799999
    endloop
  endfacet
  facet normal 0.447214 0.774597 0.447214
    outer loop
      vertex 40.1247 23.166 3
      vertex 3 46.2025 0.2243
      vertex 3 44.6 3
    endloop
  endfacet
  facet normal 0.447212 0.774595 0.447218
    outer loop
      vertex 40.1247 23.166 3
      vertex 3 46.3321 1.15112e-07
      vertex 3 46.2025 0.2243
    endloop
  endfacet
  facet normal 0.447214 0.774597 0.447214
    outer loop
      vertex 41.6247 24.0321 0
      vertex 3 46.3321 1.15112e-07
      vertex 40.1247 23.166 3
    endloop
  endfacet
  facet normal 0.064602 0.111894 0.991618
    outer loop
      vertex 3 46.3321 1.15112e-07
      vertex 41.6247 24.0321 0
      vertex 0 48.0641 0
    endloop
  endfacet
  facet normal 2.18091e-07 3.66859e-07 1
    outer loop
      vertex 3 44.3201 3
      vertex 11.8923 37.734 3
      vertex 37.1247 21.434 3
    endloop
  endfacet
  facet normal 1.89587e-07 3.28374e-07 1
    outer loop
      vertex 11.8923 37.734 3
      vertex 3 44.3201 3
      vertex 3 42.868 3
    endloop
  endfacet
  facet normal -1.37642e-08 7.94685e-09 1
    outer loop
      vertex 11.8206 37.6098 3
      vertex 37.1247 21.434 3
      vertex 11.8923 37.734 3
    endloop
  endfacet
  facet normal 1.82021e-07 3.14218e-07 1
    outer loop
      vertex 11.4923 37.0412 3
      vertex 37.1247 21.434 3
      vertex 11.8206 37.6098 3
    endloop
  endfacet
  facet normal 1.70298e-07 2.94965e-07 1
    outer loop
      vertex 1.5 42.0019 3
      vertex 11.4923 37.0412 3
      vertex 2.2 42.4061 3
    endloop
  endfacet
  facet normal 1.70299e-07 2.94966e-07 1
    outer loop
      vertex 11.4923 37.0412 3
      vertex 1.5 42.0019 3
      vertex 37.1247 21.434 3
    endloop
  endfacet
  facet normal -0 0 1
    outer loop
      vertex 3 44.3201 3
      vertex 40.1247 23.166 3
      vertex 3 44.6 3
    endloop
  endfacet
  facet normal 1.57901e-07 2.77112e-07 1
    outer loop
      vertex 40.1247 23.166 3
      vertex 3 44.3201 3
      vertex 37.1247 21.434 3
    endloop
  endfacet
  facet normal -0.447214 -0.774597 0.447213
    outer loop
      vertex 26.1248 26.5146 0.799999
      vertex 1.43939 41.9669 2.87879
      vertex 0.4 41.3668 0.799999
    endloop
  endfacet
  facet normal -0.447212 -0.774595 0.447219
    outer loop
      vertex 26.1248 26.5146 0.799999
      vertex 1.5 42.0019 3
      vertex 1.43939 41.9669 2.87879
    endloop
  endfacet
  facet normal -0.447214 -0.774597 0.447214
    outer loop
      vertex 1.5 42.0019 3
      vertex 26.1248 26.5146 0.799999
      vertex 37.1247 21.434 3
    endloop
  endfacet
  facet normal -0.447214 -0.774597 0.447213
    outer loop
      vertex 37.1247 21.434 3
      vertex 26.1248 26.5146 0.799999
      vertex 36.0247 20.7989 0.799999
    endloop
  endfacet
  facet normal 0.894427 -0 0.447214
    outer loop
      vertex 40.1247 -23.166 3
      vertex 41.6247 24.0321 0
      vertex 40.1247 23.166 3
    endloop
  endfacet
  facet normal 0.894427 0 0.447214
    outer loop
      vertex 41.6247 24.0321 0
      vertex 40.1247 -23.166 3
      vertex 41.6247 -24.0321 0
    endloop
  endfacet
  facet normal 3.17891e-07 0 1
    outer loop
      vertex 37.1247 21.434 3
      vertex 40.1247 -23.166 3
      vertex 40.1247 23.166 3
    endloop
  endfacet
  facet normal 3.17891e-07 0 1
    outer loop
      vertex 40.1247 -23.166 3
      vertex 37.1247 21.434 3
      vertex 37.1247 -21.434 3
    endloop
  endfacet
  facet normal -0.894428 0 0.447213
    outer loop
      vertex 36.0247 -20.7989 0.799999
      vertex 37.1247 21.434 3
      vertex 36.0247 20.7989 0.799999
    endloop
  endfacet
  facet normal -0.894428 0 0.447213
    outer loop
      vertex 37.1247 21.434 3
      vertex 36.0247 -20.7989 0.799999
      vertex 37.1247 -21.434 3
    endloop
  endfacet
  facet normal 0.447214 -0.774597 0.447214
    outer loop
      vertex 41.6247 -24.0321 0
      vertex 40.1247 -23.166 3
      vertex 0 -46.3321 3
    endloop
  endfacet
  facet normal 0.447214 -0.774597 0.447214
    outer loop
      vertex 41.6247 -24.0321 0
      vertex 0 -46.3321 3
      vertex 0 -48.0641 0
    endloop
  endfacet
  facet normal 1.58946e-07 -2.75302e-07 1
    outer loop
      vertex 40.1247 -23.166 3
      vertex 37.1247 -21.434 3
      vertex 0 -42.868 3
    endloop
  endfacet
  facet normal 1.58946e-07 -2.75302e-07 1
    outer loop
      vertex 40.1247 -23.166 3
      vertex 0 -42.868 3
      vertex 0 -46.3321 3
    endloop
  endfacet
  facet normal -0.447214 0.774597 0.447213
    outer loop
      vertex 37.1247 -21.434 3
      vertex 36.0247 -20.7989 0.799999
      vertex 9.89992 -35.8821 0.799999
    endloop
  endfacet
  facet normal -0.447214 0.774597 0.447214
    outer loop
      vertex 9.89992 -35.8821 0.799999
      vertex 0 -42.868 3
      vertex 37.1247 -21.434 3
    endloop
  endfacet
  facet normal -0.447214 0.774597 0.447214
    outer loop
      vertex 0 -42.868 3
      vertex 9.89992 -35.8821 0.799999
      vertex 0 -41.5978 0.799999
    endloop
  endfacet
  facet normal -0.447214 -0.774597 0.447214
    outer loop
      vertex 0 -48.0641 0
      vertex 0 -46.3321 3
      vertex -40.1247 -23.166 3
    endloop
  endfacet
  facet normal -0.447214 -0.774597 0.447214
    outer loop
      vertex 0 -48.0641 0
      vertex -40.1247 -23.166 3
      vertex -41.6247 -24.0321 0
    endloop
  endfacet
  facet normal -1.58946e-07 -2.75302e-07 1
    outer loop
      vertex 0 -46.3321 3
      vertex 0 -42.868 3
      vertex -37.1247 -21.434 3
    endloop
  endfacet
  facet normal -1.58946e-07 -2.75302e-07 1
    outer loop
      vertex 0 -46.3321 3
      vertex -37.1247 -21.434 3
      vertex -40.1247 -23.166 3
    endloop
  endfacet
  facet normal 0.447214 0.774597 0.447214
    outer loop
      vertex 0 -42.868 3
      vertex 0 -41.5978 0.799999
      vertex -26.1248 -26.5146 0.799999
    endloop
  endfacet
  facet normal 0.447214 0.774597 0.447214
    outer loop
      vertex -26.1248 -26.5146 0.799999
      vertex -37.1247 -21.434 3
      vertex 0 -42.868 3
    endloop
  endfacet
  facet normal 0.447214 0.774597 0.447213
    outer loop
      vertex -37.1247 -21.434 3
      vertex -26.1248 -26.5146 0.799999
      vertex -36.0247 -20.7989 0.799999
    endloop
  endfacet
  facet normal 0 0 -1
    outer loop
      vertex 38.6247 -22.3 0
      vertex 14.4904 36.234 0
      vertex 38.6247 22.3 0
    endloop
  endfacet
  facet normal 0 0 -1
    outer loop
      vertex 0 -44.6 0
      vertex 14.4904 36.234 0
      vertex 38.6247 -22.3 0
    endloop
  endfacet
  facet normal -0 0 -1
    outer loop
      vertex 14.4904 36.234 0
      vertex 0 -44.6 0
      vertex -14.4904 36.234 0
    endloop
  endfacet
  facet normal 0 0 -1
    outer loop
      vertex 14.4904 36.234 0
      vertex -14.4904 36.234 0
      vertex 3 42.868 0
    endloop
  endfacet
  facet normal 0 0 -1
    outer loop
      vertex 3 42.868 0
      vertex -3 42.868 0
      vertex 3 46.3321 0
    endloop
  endfacet
  facet normal -0 0 -1
    outer loop
      vertex 3 46.3321 0
      vertex -3 42.868 0
      vertex 0 48.0641 0
    endloop
  endfacet
  facet normal 0 0 -1
    outer loop
      vertex 0 48.0641 0
      vertex -3 42.868 0
      vertex -3 46.3321 0
    endloop
  endfacet
  facet normal -0 0 -1
    outer loop
      vertex 3 42.868 0
      vertex -14.4904 36.234 0
      vertex -3 42.868 0
    endloop
  endfacet
  facet normal 0 0 -1
    outer loop
      vertex -38.6247 -22.3 0
      vertex -14.4904 36.234 0
      vertex 0 -44.6 0
    endloop
  endfacet
  facet normal 0 0 -1
    outer loop
      vertex -14.4904 36.234 0
      vertex -38.6247 -22.3 0
      vertex -38.6247 22.3 0
    endloop
  endfacet
  facet normal 0 0 -1
    outer loop
      vertex 41.6247 -24.0321 0
      vertex 38.6247 -22.3 0
      vertex 41.6247 24.0321 0
    endloop
  endfacet
  facet normal 0 0 -1
    outer loop
      vertex 0 -48.0641 0
      vertex 38.6247 -22.3 0
      vertex 41.6247 -24.0321 0
    endloop
  endfacet
  facet normal 0 0 -1
    outer loop
      vertex 0 -48.0641 0
      vertex 0 -44.6 0
      vertex 38.6247 -22.3 0
    endloop
  endfacet
  facet normal 0 0 -1
    outer loop
      vertex 0 -48.0641 0
      vertex -38.6247 -22.3 0
      vertex 0 -44.6 0
    endloop
  endfacet
  facet normal -0 0 -1
    outer loop
      vertex -38.6247 -22.3 0
      vertex -41.6247 -24.0321 0
      vertex -38.6247 22.3 0
    endloop
  endfacet
  facet normal 0 0 -1
    outer loop
      vertex -41.6247 -24.0321 0
      vertex -38.6247 -22.3 0
      vertex 0 -48.0641 0
    endloop
  endfacet
  facet normal 0 0 -1
    outer loop
      vertex 38.6247 22.3 0
      vertex 41.6247 24.0321 0
      vertex 38.6247 -22.3 0
    endloop
  endfacet
  facet normal 0 0 -1
    outer loop
      vertex 14.4904 36.234 0
      vertex 41.6247 24.0321 0
      vertex 38.6247 22.3 0
    endloop
  endfacet
  facet normal 0 0 -1
    outer loop
      vertex 3 46.3321 0
      vertex 14.4904 36.234 0
      vertex 3 42.868 0
    endloop
  endfacet
  facet normal 0 0 -1
    outer loop
      vertex 14.4904 36.234 0
      vertex 3 46.3321 0
      vertex 41.6247 24.0321 0
    endloop
  endfacet
  facet normal 0 0 -1
    outer loop
      vertex 41.6247 24.0321 0
      vertex 3 46.3321 0
      vertex 0 48.0641 0
    endloop
  endfacet
  facet normal 0 0 -1
    outer loop
      vertex -14.4904 36.234 0
      vertex -3 46.3321 0
      vertex -3 42.868 0
    endloop
  endfacet
  facet normal 0 0 -1
    outer loop
      vertex -41.6247 24.0321 0
      vertex -14.4904 36.234 0
      vertex -38.6247 22.3 0
    endloop
  endfacet
  facet normal -0 0 -1
    outer loop
      vertex -3 46.3321 0
      vertex -41.6247 24.0321 0
      vertex 0 48.0641 0
    endloop
  endfacet
  facet normal -0 0 -1
    outer loop
      vertex -14.4904 36.234 0
      vertex -41.6247 24.0321 0
      vertex -3 46.3321 0
    endloop
  endfacet
  facet normal 0 0 -1
    outer loop
      vertex -41.6247 24.0321 0
      vertex -38.6247 22.3 0
      vertex -41.6247 -24.0321 0
    endloop
  endfacet
  facet normal 0.5 0.866025 0
    outer loop
      vertex 11.8923 37.734 3
      vertex 3 42.868 3
      vertex 3 42.868 13.2679
    endloop
  endfacet
  facet normal 0.612372 -0.353554 0.707107
    outer loop
      vertex 2.34762 42.4913 13.6446
      vertex 11.4923 37.0412 3
      vertex 11.8206 37.6098 3
    endloop
  endfacet
  facet normal 0.612367 -0.353563 0.707107
    outer loop
      vertex 11.4923 37.0412 3
      vertex 2.34762 42.4913 13.6446
      vertex 2.2 42.4061 13.7298
    endloop
  endfacet
  facet normal 0.61237 -0.353557 0.707107
    outer loop
      vertex 3 42.868 13.2679
      vertex 11.8206 37.6098 3
      vertex 11.8923 37.734 3
    endloop
  endfacet
  facet normal 0.612373 -0.353552 0.707107
    outer loop
      vertex 11.8206 37.6098 3
      vertex 3 42.868 13.2679
      vertex 2.34762 42.4913 13.6446
    endloop
  endfacet
  facet normal -0.5 -0.866025 -0
    outer loop
      vertex 2.2 42.4061 13.7298
      vertex 2.2 42.4061 3
      vertex 11.4923 37.0412 3
    endloop
  endfacet
  facet normal -0.5 0.866025 0
    outer loop
      vertex -3 42.868 3
      vertex -11.8923 37.734 3
      vertex -3 42.868 13.2679
    endloop
  endfacet
  facet normal -0.612367 -0.353563 0.707107
    outer loop
      vertex -2.34762 42.4913 13.6446
      vertex -11.4923 37.0412 3
      vertex -2.2 42.4061 13.7298
    endloop
  endfacet
  facet normal -0.61237 -0.353558 0.707107
    outer loop
      vertex -2.34762 42.4913 13.6446
      vertex -11.575 37.1844 3
      vertex -11.4923 37.0412 3
    endloop
  endfacet
  facet normal -0.612373 -0.353553 0.707107
    outer loop
      vertex -11.575 37.1844 3
      vertex -2.34762 42.4913 13.6446
      vertex -11.8206 37.6098 3
    endloop
  endfacet
  facet normal -0.612373 -0.353552 0.707107
    outer loop
      vertex -3 42.868 13.2679
      vertex -11.8206 37.6098 3
      vertex -2.34762 42.4913 13.6446
    endloop
  endfacet
  facet normal -0.61237 -0.353557 0.707107
    outer loop
      vertex -11.8206 37.6098 3
      vertex -3 42.868 13.2679
      vertex -11.8923 37.734 3
    endloop
  endfacet
  facet normal 0.5 -0.866025 -1.19553e-07
    outer loop
      vertex -9.36245 38.2708 3
      vertex -2.2 42.4061 13.7298
      vertex -11.4923 37.0412 3
    endloop
  endfacet
  facet normal 0.5 -0.866025 0
    outer loop
      vertex -2.2 42.4061 13.7298
      vertex -9.36245 38.2708 3
      vertex -2.2 42.4061 3
    endloop
  endfacet
  facet normal 0 0 1
    outer loop
      vertex 26.1248 26.5146 0.799999
      vertex 36.0247 -20.7989 0.799999
      vertex 36.0247 20.7989 0.799999
    endloop
  endfacet
  facet normal 0 0 1
    outer loop
      vertex 26.1248 26.5146 0.799999
      vertex 9.89992 -35.8821 0.799999
      vertex 36.0247 -20.7989 0.799999
    endloop
  endfacet
  facet normal -0 0 1
    outer loop
      vertex 0 41.1359 0.799999
      vertex 26.1248 26.5146 0.799999
      vertex 0.4 41.3668 0.799999
    endloop
  endfacet
  facet normal -0 0 1
    outer loop
      vertex -9.89992 35.8821 0.799999
      vertex 26.1248 26.5146 0.799999
      vertex 0 41.1359 0.799999
    endloop
  endfacet
  facet normal 0 0 1
    outer loop
      vertex 26.1248 26.5146 0.799999
      vertex -9.89992 35.8821 0.799999
      vertex 9.89992 -35.8821 0.799999
    endloop
  endfacet
  facet normal 0 0 1
    outer loop
      vertex -9.89992 35.8821 0.799999
      vertex 0 41.1359 0.799999
      vertex -0.4 41.3668 0.799999
    endloop
  endfacet
  facet normal -0 0 1
    outer loop
      vertex -26.1248 -26.5146 0.799999
      vertex 9.89992 -35.8821 0.799999
      vertex -9.89992 35.8821 0.799999
    endloop
  endfacet
  facet normal 0 0 1
    outer loop
      vertex 9.89992 -35.8821 0.799999
      vertex -26.1248 -26.5146 0.799999
      vertex 0 -41.5978 0.799999
    endloop
  endfacet
  facet normal -0 0 1
    outer loop
      vertex -36.0247 20.7989 0.799999
      vertex -26.1248 -26.5146 0.799999
      vertex -9.89992 35.8821 0.799999
    endloop
  endfacet
  facet normal 0 0 1
    outer loop
      vertex -26.1248 -26.5146 0.799999
      vertex -36.0247 20.7989 0.799999
      vertex -36.0247 -20.7989 0.799999
    endloop
  endfacet
  facet normal 1 -0 0
    outer loop
      vertex 3 42.868 13.2679
      vertex 3 46.3321 1.15112e-07
      vertex 3 46.3321 130
    endloop
  endfacet
  facet normal 1 0 0
    outer loop
      vertex 3 46.3321 1.15112e-07
      vertex 3 42.868 13.2679
      vertex 3 46.2025 0.2243
    endloop
  endfacet
  facet normal 1 0 0
    outer loop
      vertex 3 46.2025 0.2243
      vertex 3 42.868 13.2679
      vertex 3 44.6 3
    endloop
  endfacet
  facet normal 1 0 0
    outer loop
      vertex 3 42.868 13.2679
      vertex 3 46.3321 130
      vertex 3 42.868 130
    endloop
  endfacet
  facet normal 1 0 0
    outer loop
      vertex 3 44.6 3
      vertex 3 42.868 13.2679
      vertex 3 44.3201 3
    endloop
  endfacet
  facet normal 1 0 0
    outer loop
      vertex 3 44.3201 3
      vertex 3 42.868 13.2679
      vertex 3 42.868 3
    endloop
  endfacet
  facet normal -0.5 0.866025 0
    outer loop
      vertex 0 48.0641 130
      vertex -3 46.3321 1.06879e-06
      vertex -3 46.3321 130
    endloop
  endfacet
  facet normal -0.5 0.866025 0
    outer loop
      vertex -3 46.3321 1.06879e-06
      vertex 0 48.0641 130
      vertex 0 48.0641 0
    endloop
  endfacet
  facet normal 0.5 0.866025 -0
    outer loop
      vertex 3 46.3321 1.15112e-07
      vertex 0 48.0641 130
      vertex 3 46.3321 130
    endloop
  endfacet
  facet normal 0.5 0.866025 0
    outer loop
      vertex 0 48.0641 130
      vertex 3 46.3321 1.15112e-07
      vertex 0 48.0641 0
    endloop
  endfacet
  facet normal 0.5 -0.866025 -3.51219e-10
    outer loop
      vertex 0 41.1359 130
      vertex 2.2 42.4061 13.7298
      vertex 3 42.868 130
    endloop
  endfacet
  facet normal 0.5 -0.866025 0
    outer loop
      vertex 0 41.1359 0.799999
      vertex 2.2 42.4061 13.7298
      vertex 0 41.1359 130
    endloop
  endfacet
  facet normal 0.499999 -0.866026 2.53886e-07
    outer loop
      vertex 2.2 42.4061 13.7298
      vertex 0 41.1359 0.799999
      vertex 1.5 42.0019 3
    endloop
  endfacet
  facet normal 0.499967 -0.866045 2.96519e-05
    outer loop
      vertex 1.5 42.0019 3
      vertex 0 41.1359 0.799999
      vertex 1.43939 41.9669 2.87879
    endloop
  endfacet
  facet normal 0.499997 -0.866027 1.87753e-06
    outer loop
      vertex 1.43939 41.9669 2.87879
      vertex 0 41.1359 0.799999
      vertex 0.4 41.3668 0.799999
    endloop
  endfacet
  facet normal 0.499985 -0.866034 1.40329e-07
    outer loop
      vertex 2.34762 42.4913 13.6446
      vertex 3 42.868 130
      vertex 2.2 42.4061 13.7298
    endloop
  endfacet
  facet normal 0.500004 -0.866023 0
    outer loop
      vertex 3 42.868 130
      vertex 2.34762 42.4913 13.6446
      vertex 3 42.868 13.2679
    endloop
  endfacet
  facet normal 0.500002 -0.866024 0
    outer loop
      vertex 2.2 42.4061 13.7298
      vertex 1.5 42.0019 3
      vertex 2.2 42.4061 3
    endloop
  endfacet
  facet normal -1 3.14338e-07 1.01917e-08
    outer loop
      vertex -3 42.868 13.2679
      vertex -3 46.3321 1.06879e-06
      vertex -3 44.7248 2.78378
    endloop
  endfacet
  facet normal -1 -1.13633e-07 -6.56077e-08
    outer loop
      vertex -3 42.868 13.2679
      vertex -3 44.7248 2.78378
      vertex -3 44.6 3
    endloop
  endfacet
  facet normal -1 2.75303e-07 0
    outer loop
      vertex -3 42.868 13.2679
      vertex -3 44.6 3
      vertex -3 42.868 3
    endloop
  endfacet
  facet normal -1 2.75302e-07 0
    outer loop
      vertex -3 46.3321 1.06879e-06
      vertex -3 42.868 13.2679
      vertex -3 46.3321 130
    endloop
  endfacet
  facet normal -1 2.75302e-07 0
    outer loop
      vertex -3 46.3321 130
      vertex -3 42.868 13.2679
      vertex -3 42.868 130
    endloop
  endfacet
  facet normal -0.5 -0.866025 -0
    outer loop
      vertex -2.2 42.4061 13.7298
      vertex -2.2 42.4061 3
      vertex -1.62121 42.0719 3
    endloop
  endfacet
  facet normal -0.5 -0.866025 -3.51219e-10
    outer loop
      vertex -3 42.868 130
      vertex -2.2 42.4061 13.7298
      vertex 0 41.1359 130
    endloop
  endfacet
  facet normal -0.499985 -0.866034 1.40329e-07
    outer loop
      vertex -3 42.868 130
      vertex -2.34762 42.4913 13.6446
      vertex -2.2 42.4061 13.7298
    endloop
  endfacet
  facet normal -0.500004 -0.866023 0
    outer loop
      vertex -2.34762 42.4913 13.6446
      vertex -3 42.868 130
      vertex -3 42.868 13.2679
    endloop
  endfacet
  facet normal -0.500011 -0.866019 -7.70006e-07
    outer loop
      vertex -1.5 42.0019 3
      vertex -2.2 42.4061 13.7298
      vertex -1.62121 42.0719 3
    endloop
  endfacet
  facet normal -0.499999 -0.866026 2.53886e-07
    outer loop
      vertex 0 41.1359 0.799999
      vertex -2.2 42.4061 13.7298
      vertex -1.5 42.0019 3
    endloop
  endfacet
  facet normal -0.499997 -0.866027 2.30277e-06
    outer loop
      vertex 0 41.1359 0.799999
      vertex -1.5 42.0019 3
      vertex -0.4 41.3668 0.799999
    endloop
  endfacet
  facet normal -0.5 -0.866025 0
    outer loop
      vertex -2.2 42.4061 13.7298
      vertex 0 41.1359 0.799999
      vertex 0 41.1359 130
    endloop
  endfacet
  facet normal 0 0 1
    outer loop
      vertex 0 48.0641 130
      vertex 3 42.868 130
      vertex 3 46.3321 130
    endloop
  endfacet
  facet normal 0 0 1
    outer loop
      vertex 0 48.0641 130
      vertex 0 41.1359 130
      vertex 3 42.868 130
    endloop
  endfacet
  facet normal -0 0 1
    outer loop
      vertex -3 46.3321 130
      vertex 0 41.1359 130
      vertex 0 48.0641 130
    endloop
  endfacet
  facet normal 0 0 1
    outer loop
      vertex 0 41.1359 130
      vertex -3 46.3321 130
      vertex -3 42.868 130
    endloop
  endfacet
endsolid OpenSCAD_Model
