solid OpenSCAD_Model
  facet normal -1 0 0
    outer loop
      vertex 0.9 29.1 0.4
      vertex 0.9 26.7 2.1
      vertex 0.9 29.1 2.5
    endloop
  endfacet
  facet normal -1 0 0
    outer loop
      vertex 0.9 29.1 0.4
      vertex 0.9 26.3 2.1
      vertex 0.9 26.7 2.1
    endloop
  endfacet
  facet normal -1 0 0
    outer loop
      vertex 0.9 26.3 2.1
      vertex 0.9 24.7 2.1
      vertex 0.9 26.3 2.3
    endloop
  endfacet
  facet normal -1 0 0
    outer loop
      vertex 0.9 29.1 0.4
      vertex 0.9 24.7 2.1
      vertex 0.9 26.3 2.1
    endloop
  endfacet
  facet normal -1 0 0
    outer loop
      vertex 0.9 29.1 0.4
      vertex 0.9 24.3 2.1
      vertex 0.9 24.7 2.1
    endloop
  endfacet
  facet normal -1 0 0
    outer loop
      vertex 0.9 24.3 2.1
      vertex 0.9 22.7 2.1
      vertex 0.9 24.3 2.3
    endloop
  endfacet
  facet normal -1 0 0
    outer loop
      vertex 0.9 29.1 0.4
      vertex 0.9 22.7 2.1
      vertex 0.9 24.3 2.1
    endloop
  endfacet
  facet normal -1 0 0
    outer loop
      vertex 0.9 29.1 0.4
      vertex 0.9 22.3 2.1
      vertex 0.9 22.7 2.1
    endloop
  endfacet
  facet normal -1 0 0
    outer loop
      vertex 0.9 22.3 2.1
      vertex 0.9 20.7 2.1
      vertex 0.9 22.3 2.3
    endloop
  endfacet
  facet normal -1 0 0
    outer loop
      vertex 0.9 15 0.4
      vertex 0.9 22.3 2.1
      vertex 0.9 29.1 0.4
    endloop
  endfacet
  facet normal -1 -0 0
    outer loop
      vertex 0.9 22.3 2.1
      vertex 0.9 15 0.4
      vertex 0.9 20.7 2.1
    endloop
  endfacet
  facet normal -1 0 0
    outer loop
      vertex 0.9 20.3 2.1
      vertex 0.9 18.7 2.1
      vertex 0.9 20.3 2.3
    endloop
  endfacet
  facet normal -1 -0 0
    outer loop
      vertex 0.9 20.7 2.1
      vertex 0.9 15 0.4
      vertex 0.9 20.3 2.1
    endloop
  endfacet
  facet normal -1 -0 0
    outer loop
      vertex 0.9 20.3 2.1
      vertex 0.9 15 0.4
      vertex 0.9 18.7 2.1
    endloop
  endfacet
  facet normal -1 0 0
    outer loop
      vertex 0.9 18.3 2.1
      vertex 0.9 16.7 2.1
      vertex 0.9 18.3 2.3
    endloop
  endfacet
  facet normal -1 -0 0
    outer loop
      vertex 0.9 18.7 2.1
      vertex 0.9 15 0.4
      vertex 0.9 18.3 2.1
    endloop
  endfacet
  facet normal -1 -0 0
    outer loop
      vertex 0.9 18.3 2.1
      vertex 0.9 15 0.4
      vertex 0.9 16.7 2.1
    endloop
  endfacet
  facet normal -1 0 0
    outer loop
      vertex 0.9 15 2.5
      vertex 0.9 16.3 2.1
      vertex 0.9 15 0.4
    endloop
  endfacet
  facet normal -1 -0 0
    outer loop
      vertex 0.9 16.7 2.1
      vertex 0.9 15 0.4
      vertex 0.9 16.3 2.1
    endloop
  endfacet
  facet normal -1 0 0
    outer loop
      vertex 0.9 26.7 2.3
      vertex 0.9 29.1 2.5
      vertex 0.9 26.7 2.1
    endloop
  endfacet
  facet normal -1 0 0
    outer loop
      vertex 0.9 26.3 2.3
      vertex 0.9 29.1 2.5
      vertex 0.9 26.7 2.3
    endloop
  endfacet
  facet normal -1 0 0
    outer loop
      vertex 0.9 24.7 2.3
      vertex 0.9 26.3 2.3
      vertex 0.9 24.7 2.1
    endloop
  endfacet
  facet normal -1 0 0
    outer loop
      vertex 0.9 24.7 2.3
      vertex 0.9 29.1 2.5
      vertex 0.9 26.3 2.3
    endloop
  endfacet
  facet normal -1 0 0
    outer loop
      vertex 0.9 24.3 2.3
      vertex 0.9 29.1 2.5
      vertex 0.9 24.7 2.3
    endloop
  endfacet
  facet normal -1 0 0
    outer loop
      vertex 0.9 22.7 2.3
      vertex 0.9 24.3 2.3
      vertex 0.9 22.7 2.1
    endloop
  endfacet
  facet normal -1 0 0
    outer loop
      vertex 0.9 22.7 2.3
      vertex 0.9 29.1 2.5
      vertex 0.9 24.3 2.3
    endloop
  endfacet
  facet normal -1 0 0
    outer loop
      vertex 0.9 22.3 2.3
      vertex 0.9 29.1 2.5
      vertex 0.9 22.7 2.3
    endloop
  endfacet
  facet normal -1 0 0
    outer loop
      vertex 0.9 20.7 2.3
      vertex 0.9 22.3 2.3
      vertex 0.9 20.7 2.1
    endloop
  endfacet
  facet normal -1 0 0
    outer loop
      vertex 0.9 20.7 2.3
      vertex 0.9 29.1 2.5
      vertex 0.9 22.3 2.3
    endloop
  endfacet
  facet normal -1 0 0
    outer loop
      vertex 0.9 15 2.5
      vertex 0.9 20.7 2.3
      vertex 0.9 20.3 2.3
    endloop
  endfacet
  facet normal -1 0 0
    outer loop
      vertex 0.9 18.7 2.3
      vertex 0.9 20.3 2.3
      vertex 0.9 18.7 2.1
    endloop
  endfacet
  facet normal -1 0 0
    outer loop
      vertex 0.9 15 2.5
      vertex 0.9 20.3 2.3
      vertex 0.9 18.7 2.3
    endloop
  endfacet
  facet normal -1 0 0
    outer loop
      vertex 0.9 15 2.5
      vertex 0.9 18.7 2.3
      vertex 0.9 18.3 2.3
    endloop
  endfacet
  facet normal -1 0 0
    outer loop
      vertex 0.9 16.7 2.3
      vertex 0.9 18.3 2.3
      vertex 0.9 16.7 2.1
    endloop
  endfacet
  facet normal -1 0 0
    outer loop
      vertex 0.9 15 2.5
      vertex 0.9 18.3 2.3
      vertex 0.9 16.7 2.3
    endloop
  endfacet
  facet normal -1 0 0
    outer loop
      vertex 0.9 15 2.5
      vertex 0.9 16.7 2.3
      vertex 0.9 16.3 2.3
    endloop
  endfacet
  facet normal -1 0 0
    outer loop
      vertex 0.9 20.7 2.3
      vertex 0.9 15 2.5
      vertex 0.9 29.1 2.5
    endloop
  endfacet
  facet normal -1 0 0
    outer loop
      vertex 0.9 16.3 2.1
      vertex 0.9 15 2.5
      vertex 0.9 16.3 2.3
    endloop
  endfacet
  facet normal 0 0 -1
    outer loop
      vertex -5.9 7.5 2.5
      vertex -4.3 -0.519681 2.5
      vertex -4.76777 -0.832232 2.5
    endloop
  endfacet
  facet normal 0 0 -1
    outer loop
      vertex -2.3 -0.239238 2.5
      vertex -3 -0.0999994 2.5
      vertex -2.3 27.7 2.5
    endloop
  endfacet
  facet normal 0 0 -1
    outer loop
      vertex -0.3 -7.5 2.5
      vertex -0.5 -2.6 2.5
      vertex -0.3 27.7 2.5
    endloop
  endfacet
  facet normal 0 0 -1
    outer loop
      vertex -0.3 -7.5 2.5
      vertex -0.690301 -3.55671 2.5
      vertex -0.5 -2.6 2.5
    endloop
  endfacet
  facet normal 0 0 -1
    outer loop
      vertex -0.3 -7.5 2.5
      vertex -1.23223 -4.36777 2.5
      vertex -0.690301 -3.55671 2.5
    endloop
  endfacet
  facet normal 0 0 -1
    outer loop
      vertex -1.9 -4.81395 2.5
      vertex -0.3 -7.5 2.5
      vertex -1.9 -7.5 2.5
    endloop
  endfacet
  facet normal 0 0 -1
    outer loop
      vertex -0.3 -7.5 2.5
      vertex -1.9 -4.81395 2.5
      vertex -1.23223 -4.36777 2.5
    endloop
  endfacet
  facet normal 0 0 -1
    outer loop
      vertex 1.7 -7.5 2.5
      vertex 0.9 15 2.5
      vertex 1.7 15 2.5
    endloop
  endfacet
  facet normal 0 0 -1
    outer loop
      vertex 0.0999996 -7.5 2.5
      vertex 0.9 15 2.5
      vertex 1.7 -7.5 2.5
    endloop
  endfacet
  facet normal 0 0 -1
    outer loop
      vertex 0.0999996 27.7 2.5
      vertex 0.9 15 2.5
      vertex 0.0999996 -7.5 2.5
    endloop
  endfacet
  facet normal 0 0 -1
    outer loop
      vertex 0.9 15 2.5
      vertex 0.0999996 27.7 2.5
      vertex 0.9 29.1 2.5
    endloop
  endfacet
  facet normal 0 0 -1
    outer loop
      vertex -0.3 27.7 2.5
      vertex 0.9 29.1 2.5
      vertex 0.0999996 27.7 2.5
    endloop
  endfacet
  facet normal 0 0 -1
    outer loop
      vertex -0.690301 -1.64329 2.5
      vertex -0.3 27.7 2.5
      vertex -0.5 -2.6 2.5
    endloop
  endfacet
  facet normal 0 0 -1
    outer loop
      vertex -1.23223 -0.832232 2.5
      vertex -0.3 27.7 2.5
      vertex -0.690301 -1.64329 2.5
    endloop
  endfacet
  facet normal 0 0 -1
    outer loop
      vertex -1.9 -0.386044 2.5
      vertex -0.3 27.7 2.5
      vertex -1.23223 -0.832232 2.5
    endloop
  endfacet
  facet normal 0 0 -1
    outer loop
      vertex -1.9 27.7 2.5
      vertex -0.3 27.7 2.5
      vertex -1.9 -0.386044 2.5
    endloop
  endfacet
  facet normal 0 0 -1
    outer loop
      vertex -1.9 27.7 2.5
      vertex 0.9 29.1 2.5
      vertex -0.3 27.7 2.5
    endloop
  endfacet
  facet normal 0 0 -1
    outer loop
      vertex -2.3 27.7 2.5
      vertex 0.9 29.1 2.5
      vertex -1.9 27.7 2.5
    endloop
  endfacet
  facet normal 0 0 -1
    outer loop
      vertex -3.9 27.7 2.5
      vertex -3 -0.0999994 2.5
      vertex -3.9 -0.279021 2.5
    endloop
  endfacet
  facet normal 0 0 -1
    outer loop
      vertex -3 -0.0999994 2.5
      vertex -3.9 27.7 2.5
      vertex -2.3 27.7 2.5
    endloop
  endfacet
  facet normal 0 0 -1
    outer loop
      vertex -5.9 29.1 2.5
      vertex -2.3 27.7 2.5
      vertex -3.9 27.7 2.5
    endloop
  endfacet
  facet normal 0 0 -1
    outer loop
      vertex -5.9 29.1 2.5
      vertex -3.9 27.7 2.5
      vertex -4.3 27.7 2.5
    endloop
  endfacet
  facet normal 0 0 -1
    outer loop
      vertex -5.9 7.5 2.5
      vertex -4.76777 -0.832232 2.5
      vertex -5.3097 -1.64329 2.5
    endloop
  endfacet
  facet normal 0 0 -1
    outer loop
      vertex -5.9 7.5 2.5
      vertex -5.3097 -1.64329 2.5
      vertex -5.5 -2.6 2.5
    endloop
  endfacet
  facet normal 0 0 -1
    outer loop
      vertex -4.3 -0.519681 2.5
      vertex -5.9 7.5 2.5
      vertex -4.3 27.7 2.5
    endloop
  endfacet
  facet normal 0 0 -1
    outer loop
      vertex -2.3 27.7 2.5
      vertex -5.9 29.1 2.5
      vertex 0.9 29.1 2.5
    endloop
  endfacet
  facet normal 0 0 -1
    outer loop
      vertex -5.9 29.1 2.5
      vertex -4.3 27.7 2.5
      vertex -5.9 7.5 2.5
    endloop
  endfacet
  facet normal 0 0 -1
    outer loop
      vertex -5.9 -7.5 2.5
      vertex -4.3 -4.68032 2.5
      vertex -4.3 -7.5 2.5
    endloop
  endfacet
  facet normal -0 0 -1
    outer loop
      vertex -4.3 -4.68032 2.5
      vertex -5.9 -7.5 2.5
      vertex -4.76777 -4.36777 2.5
    endloop
  endfacet
  facet normal -0 0 -1
    outer loop
      vertex -4.76777 -4.36777 2.5
      vertex -5.9 -7.5 2.5
      vertex -5.3097 -3.55671 2.5
    endloop
  endfacet
  facet normal 0 0 -1
    outer loop
      vertex -5.9 -7.5 2.5
      vertex -5.5 -2.6 2.5
      vertex -5.3097 -3.55671 2.5
    endloop
  endfacet
  facet normal 0 0 -1
    outer loop
      vertex -5.9 7.5 2.5
      vertex -5.5 -2.6 2.5
      vertex -5.9 -7.5 2.5
    endloop
  endfacet
  facet normal 0 0 -1
    outer loop
      vertex -8.9 -7.5 2.5
      vertex -8.3 7.5 2.5
      vertex -8.3 -7.5 2.5
    endloop
  endfacet
  facet normal -0 0 -1
    outer loop
      vertex -8.3 7.5 2.5
      vertex -8.9 -7.5 2.5
      vertex -8.9 7.5 2.5
    endloop
  endfacet
  facet normal 0 0 -1
    outer loop
      vertex 8.1 -7.5 2.5
      vertex 8.9 7.5 2.5
      vertex 8.9 -7.5 2.5
    endloop
  endfacet
  facet normal -0 0 -1
    outer loop
      vertex 8.9 7.5 2.5
      vertex 8.1 -7.5 2.5
      vertex 8.1 7.5 2.5
    endloop
  endfacet
  facet normal 0 0 -1
    outer loop
      vertex -2.3 -7.5 2.5
      vertex -3 -5.1 2.5
      vertex -2.3 -4.96076 2.5
    endloop
  endfacet
  facet normal 0 0 -1
    outer loop
      vertex -3.9 -7.5 2.5
      vertex -3 -5.1 2.5
      vertex -2.3 -7.5 2.5
    endloop
  endfacet
  facet normal -0 0 -1
    outer loop
      vertex -3 -5.1 2.5
      vertex -3.9 -7.5 2.5
      vertex -3.9 -4.92098 2.5
    endloop
  endfacet
  facet normal 0 0 -1
    outer loop
      vertex -7.9 -7.5 2.5
      vertex -6.3 7.5 2.5
      vertex -6.3 -7.5 2.5
    endloop
  endfacet
  facet normal -0 0 -1
    outer loop
      vertex -6.3 7.5 2.5
      vertex -7.9 -7.5 2.5
      vertex -7.9 7.5 2.5
    endloop
  endfacet
  facet normal 0 0 -1
    outer loop
      vertex 2.1 -7.5 2.5
      vertex 3.7 7.5 2.5
      vertex 3.7 -7.5 2.5
    endloop
  endfacet
  facet normal -0 0 -1
    outer loop
      vertex 3.7 7.5 2.5
      vertex 2.1 -7.5 2.5
      vertex 2.1 7.5 2.5
    endloop
  endfacet
  facet normal 0 0 -1
    outer loop
      vertex 4.1 -7.5 2.5
      vertex 5.7 7.5 2.5
      vertex 5.7 -7.5 2.5
    endloop
  endfacet
  facet normal -0 0 -1
    outer loop
      vertex 5.7 7.5 2.5
      vertex 4.1 -7.5 2.5
      vertex 4.1 7.5 2.5
    endloop
  endfacet
  facet normal 0 0 -1
    outer loop
      vertex 6.1 -7.5 2.5
      vertex 7.7 7.5 2.5
      vertex 7.7 -7.5 2.5
    endloop
  endfacet
  facet normal -0 0 -1
    outer loop
      vertex 7.7 7.5 2.5
      vertex 6.1 -7.5 2.5
      vertex 6.1 7.5 2.5
    endloop
  endfacet
  facet normal -0 0 1
    outer loop
      vertex -5.9 29.1 0.4
      vertex 0.9 15 0.4
      vertex 0.9 29.1 0.4
    endloop
  endfacet
  facet normal 0 0 1
    outer loop
      vertex 0.9 15 0.4
      vertex -0.690301 -1.64329 0.4
      vertex -0.5 -2.6 0.4
    endloop
  endfacet
  facet normal 0 0 1
    outer loop
      vertex 0.9 15 0.4
      vertex -1.23223 -0.832232 0.4
      vertex -0.690301 -1.64329 0.4
    endloop
  endfacet
  facet normal 0 -0 1
    outer loop
      vertex -2.04329 -0.2903 0.4
      vertex 0.9 15 0.4
      vertex -5.9 7.5 0.4
    endloop
  endfacet
  facet normal 0 0 1
    outer loop
      vertex 0.9 15 0.4
      vertex -2.04329 -0.2903 0.4
      vertex -1.23223 -0.832232 0.4
    endloop
  endfacet
  facet normal 0 0 1
    outer loop
      vertex -2.04329 -0.2903 0.4
      vertex -5.9 7.5 0.4
      vertex -3 -0.0999994 0.4
    endloop
  endfacet
  facet normal 0 0 1
    outer loop
      vertex -3 -0.0999994 0.4
      vertex -5.9 7.5 0.4
      vertex -3.95671 -0.2903 0.4
    endloop
  endfacet
  facet normal 0 0 1
    outer loop
      vertex -3.95671 -0.2903 0.4
      vertex -5.9 7.5 0.4
      vertex -4.76777 -0.832232 0.4
    endloop
  endfacet
  facet normal -0 0 1
    outer loop
      vertex -8.9 7.5 0.4
      vertex -4.76777 -0.832232 0.4
      vertex -5.9 7.5 0.4
    endloop
  endfacet
  facet normal 0 0 1
    outer loop
      vertex 0.9 15 0.4
      vertex -5.9 29.1 0.4
      vertex -5.9 7.5 0.4
    endloop
  endfacet
  facet normal 0 0 1
    outer loop
      vertex 1.9 15 0.4
      vertex 0.9 15 0.4
      vertex 1.9 7.5 0.4
    endloop
  endfacet
  facet normal 0 0 1
    outer loop
      vertex -0.5 -2.6 0.4
      vertex 8.9 7.5 0.4
      vertex 1.9 7.5 0.4
    endloop
  endfacet
  facet normal 0 0 1
    outer loop
      vertex -0.5 -2.6 0.4
      vertex 1.9 7.5 0.4
      vertex 0.9 15 0.4
    endloop
  endfacet
  facet normal 0 0 1
    outer loop
      vertex 8.9 7.5 0.4
      vertex -0.5 -2.6 0.4
      vertex 8.9 -7.5 0.4
    endloop
  endfacet
  facet normal -0 0 1
    outer loop
      vertex -0.690301 -3.55671 0.4
      vertex 8.9 -7.5 0.4
      vertex -0.5 -2.6 0.4
    endloop
  endfacet
  facet normal -0 0 1
    outer loop
      vertex -1.23223 -4.36777 0.4
      vertex 8.9 -7.5 0.4
      vertex -0.690301 -3.55671 0.4
    endloop
  endfacet
  facet normal -0 0 1
    outer loop
      vertex -2.04329 -4.9097 0.4
      vertex 8.9 -7.5 0.4
      vertex -1.23223 -4.36777 0.4
    endloop
  endfacet
  facet normal -0 0 1
    outer loop
      vertex -3 -5.1 0.4
      vertex 8.9 -7.5 0.4
      vertex -2.04329 -4.9097 0.4
    endloop
  endfacet
  facet normal 0 0 1
    outer loop
      vertex -8.9 -7.5 0.4
      vertex -3 -5.1 0.4
      vertex -3.95671 -4.9097 0.4
    endloop
  endfacet
  facet normal 0 0 1
    outer loop
      vertex -4.76777 -0.832232 0.4
      vertex -8.9 7.5 0.4
      vertex -5.3097 -1.64329 0.4
    endloop
  endfacet
  facet normal 0 0 1
    outer loop
      vertex -8.9 -7.5 0.4
      vertex -5.3097 -1.64329 0.4
      vertex -8.9 7.5 0.4
    endloop
  endfacet
  facet normal 0 0 1
    outer loop
      vertex -5.3097 -1.64329 0.4
      vertex -8.9 -7.5 0.4
      vertex -5.5 -2.6 0.4
    endloop
  endfacet
  facet normal 0 0 1
    outer loop
      vertex -3 -5.1 0.4
      vertex -8.9 -7.5 0.4
      vertex 8.9 -7.5 0.4
    endloop
  endfacet
  facet normal 0 0 1
    outer loop
      vertex -4.76777 -4.36777 0.4
      vertex -8.9 -7.5 0.4
      vertex -3.95671 -4.9097 0.4
    endloop
  endfacet
  facet normal 0 0 1
    outer loop
      vertex -5.3097 -3.55671 0.4
      vertex -8.9 -7.5 0.4
      vertex -4.76777 -4.36777 0.4
    endloop
  endfacet
  facet normal 0 0 1
    outer loop
      vertex -5.5 -2.6 0.4
      vertex -8.9 -7.5 0.4
      vertex -5.3097 -3.55671 0.4
    endloop
  endfacet
  facet normal 1 0 0
    outer loop
      vertex -5.9 26.7 2.1
      vertex -5.9 29.1 2.5
      vertex -5.9 26.7 2.3
    endloop
  endfacet
  facet normal 1 0 0
    outer loop
      vertex -5.9 29.1 2.5
      vertex -5.9 26.3 2.3
      vertex -5.9 26.7 2.3
    endloop
  endfacet
  facet normal 1 0 0
    outer loop
      vertex -5.9 26.3 2.3
      vertex -5.9 24.7 2.3
      vertex -5.9 26.3 2.1
    endloop
  endfacet
  facet normal 1 0 0
    outer loop
      vertex -5.9 29.1 2.5
      vertex -5.9 24.7 2.3
      vertex -5.9 26.3 2.3
    endloop
  endfacet
  facet normal 1 0 0
    outer loop
      vertex -5.9 29.1 2.5
      vertex -5.9 24.3 2.3
      vertex -5.9 24.7 2.3
    endloop
  endfacet
  facet normal 1 0 0
    outer loop
      vertex -5.9 24.3 2.3
      vertex -5.9 22.7 2.3
      vertex -5.9 24.3 2.1
    endloop
  endfacet
  facet normal 1 0 0
    outer loop
      vertex -5.9 29.1 2.5
      vertex -5.9 22.7 2.3
      vertex -5.9 24.3 2.3
    endloop
  endfacet
  facet normal 1 0 0
    outer loop
      vertex -5.9 29.1 2.5
      vertex -5.9 22.3 2.3
      vertex -5.9 22.7 2.3
    endloop
  endfacet
  facet normal 1 0 0
    outer loop
      vertex -5.9 22.3 2.3
      vertex -5.9 20.7 2.3
      vertex -5.9 22.3 2.1
    endloop
  endfacet
  facet normal 1 0 0
    outer loop
      vertex -5.9 29.1 2.5
      vertex -5.9 20.7 2.3
      vertex -5.9 22.3 2.3
    endloop
  endfacet
  facet normal 1 0 0
    outer loop
      vertex -5.9 29.1 2.5
      vertex -5.9 20.3 2.3
      vertex -5.9 20.7 2.3
    endloop
  endfacet
  facet normal 1 0 0
    outer loop
      vertex -5.9 20.3 2.3
      vertex -5.9 18.7 2.3
      vertex -5.9 20.3 2.1
    endloop
  endfacet
  facet normal 1 0 0
    outer loop
      vertex -5.9 29.1 2.5
      vertex -5.9 18.7 2.3
      vertex -5.9 20.3 2.3
    endloop
  endfacet
  facet normal 1 0 0
    outer loop
      vertex -5.9 29.1 2.5
      vertex -5.9 18.3 2.3
      vertex -5.9 18.7 2.3
    endloop
  endfacet
  facet normal 1 0 0
    outer loop
      vertex -5.9 18.3 2.3
      vertex -5.9 16.7 2.3
      vertex -5.9 18.3 2.1
    endloop
  endfacet
  facet normal 1 0 0
    outer loop
      vertex -5.9 29.1 2.5
      vertex -5.9 16.7 2.3
      vertex -5.9 18.3 2.3
    endloop
  endfacet
  facet normal 1 0 0
    outer loop
      vertex -5.9 29.1 2.5
      vertex -5.9 16.3 2.3
      vertex -5.9 16.7 2.3
    endloop
  endfacet
  facet normal 1 0 0
    outer loop
      vertex -5.9 16.3 2.3
      vertex -5.9 14.7 2.3
      vertex -5.9 16.3 2.1
    endloop
  endfacet
  facet normal 1 -0 0
    outer loop
      vertex -5.9 7.5 2.5
      vertex -5.9 16.3 2.3
      vertex -5.9 29.1 2.5
    endloop
  endfacet
  facet normal 1 0 0
    outer loop
      vertex -5.9 16.3 2.3
      vertex -5.9 7.5 2.5
      vertex -5.9 14.7 2.3
    endloop
  endfacet
  facet normal 1 0 0
    outer loop
      vertex -5.9 14.3 2.3
      vertex -5.9 12.7 2.3
      vertex -5.9 14.3 2.1
    endloop
  endfacet
  facet normal 1 0 0
    outer loop
      vertex -5.9 14.7 2.3
      vertex -5.9 7.5 2.5
      vertex -5.9 14.3 2.3
    endloop
  endfacet
  facet normal 1 0 0
    outer loop
      vertex -5.9 14.3 2.3
      vertex -5.9 7.5 2.5
      vertex -5.9 12.7 2.3
    endloop
  endfacet
  facet normal 1 0 0
    outer loop
      vertex -5.9 12.3 2.3
      vertex -5.9 10.7 2.3
      vertex -5.9 12.3 2.1
    endloop
  endfacet
  facet normal 1 0 0
    outer loop
      vertex -5.9 12.7 2.3
      vertex -5.9 7.5 2.5
      vertex -5.9 12.3 2.3
    endloop
  endfacet
  facet normal 1 0 0
    outer loop
      vertex -5.9 12.3 2.3
      vertex -5.9 7.5 2.5
      vertex -5.9 10.7 2.3
    endloop
  endfacet
  facet normal 1 0 0
    outer loop
      vertex -5.9 10.3 2.3
      vertex -5.9 8.7 2.3
      vertex -5.9 10.3 2.1
    endloop
  endfacet
  facet normal 1 0 0
    outer loop
      vertex -5.9 10.7 2.3
      vertex -5.9 7.5 2.5
      vertex -5.9 10.3 2.3
    endloop
  endfacet
  facet normal 1 0 0
    outer loop
      vertex -5.9 10.3 2.3
      vertex -5.9 7.5 2.5
      vertex -5.9 8.7 2.3
    endloop
  endfacet
  facet normal 1 0 0
    outer loop
      vertex -5.9 8.3 2.3
      vertex -5.9 7.5 2.5
      vertex -5.9 8.3 2.1
    endloop
  endfacet
  facet normal 1 0 0
    outer loop
      vertex -5.9 8.7 2.3
      vertex -5.9 7.5 2.5
      vertex -5.9 8.3 2.3
    endloop
  endfacet
  facet normal 1 0 0
    outer loop
      vertex -5.9 29.1 2.5
      vertex -5.9 26.7 2.1
      vertex -5.9 29.1 0.4
    endloop
  endfacet
  facet normal 1 -0 0
    outer loop
      vertex -5.9 26.3 2.1
      vertex -5.9 29.1 0.4
      vertex -5.9 26.7 2.1
    endloop
  endfacet
  facet normal 1 0 0
    outer loop
      vertex -5.9 24.7 2.1
      vertex -5.9 26.3 2.1
      vertex -5.9 24.7 2.3
    endloop
  endfacet
  facet normal 1 0 0
    outer loop
      vertex -5.9 26.3 2.1
      vertex -5.9 24.7 2.1
      vertex -5.9 29.1 0.4
    endloop
  endfacet
  facet normal 1 -0 0
    outer loop
      vertex -5.9 24.3 2.1
      vertex -5.9 29.1 0.4
      vertex -5.9 24.7 2.1
    endloop
  endfacet
  facet normal 1 0 0
    outer loop
      vertex -5.9 22.7 2.1
      vertex -5.9 24.3 2.1
      vertex -5.9 22.7 2.3
    endloop
  endfacet
  facet normal 1 0 0
    outer loop
      vertex -5.9 24.3 2.1
      vertex -5.9 22.7 2.1
      vertex -5.9 29.1 0.4
    endloop
  endfacet
  facet normal 1 -0 0
    outer loop
      vertex -5.9 22.3 2.1
      vertex -5.9 29.1 0.4
      vertex -5.9 22.7 2.1
    endloop
  endfacet
  facet normal 1 0 0
    outer loop
      vertex -5.9 20.7 2.1
      vertex -5.9 22.3 2.1
      vertex -5.9 20.7 2.3
    endloop
  endfacet
  facet normal 1 0 0
    outer loop
      vertex -5.9 22.3 2.1
      vertex -5.9 20.7 2.1
      vertex -5.9 29.1 0.4
    endloop
  endfacet
  facet normal 1 -0 0
    outer loop
      vertex -5.9 20.3 2.1
      vertex -5.9 29.1 0.4
      vertex -5.9 20.7 2.1
    endloop
  endfacet
  facet normal 1 0 0
    outer loop
      vertex -5.9 18.7 2.1
      vertex -5.9 20.3 2.1
      vertex -5.9 18.7 2.3
    endloop
  endfacet
  facet normal 1 0 0
    outer loop
      vertex -5.9 20.3 2.1
      vertex -5.9 18.7 2.1
      vertex -5.9 29.1 0.4
    endloop
  endfacet
  facet normal 1 -0 0
    outer loop
      vertex -5.9 18.3 2.1
      vertex -5.9 29.1 0.4
      vertex -5.9 18.7 2.1
    endloop
  endfacet
  facet normal 1 0 0
    outer loop
      vertex -5.9 16.7 2.1
      vertex -5.9 18.3 2.1
      vertex -5.9 16.7 2.3
    endloop
  endfacet
  facet normal 1 0 0
    outer loop
      vertex -5.9 7.5 0.4
      vertex -5.9 18.3 2.1
      vertex -5.9 16.7 2.1
    endloop
  endfacet
  facet normal 1 0 0
    outer loop
      vertex -5.9 7.5 0.4
      vertex -5.9 16.7 2.1
      vertex -5.9 16.3 2.1
    endloop
  endfacet
  facet normal 1 0 0
    outer loop
      vertex -5.9 14.7 2.1
      vertex -5.9 16.3 2.1
      vertex -5.9 14.7 2.3
    endloop
  endfacet
  facet normal 1 0 0
    outer loop
      vertex -5.9 7.5 0.4
      vertex -5.9 16.3 2.1
      vertex -5.9 14.7 2.1
    endloop
  endfacet
  facet normal 1 0 0
    outer loop
      vertex -5.9 7.5 0.4
      vertex -5.9 14.7 2.1
      vertex -5.9 14.3 2.1
    endloop
  endfacet
  facet normal 1 0 0
    outer loop
      vertex -5.9 12.7 2.1
      vertex -5.9 14.3 2.1
      vertex -5.9 12.7 2.3
    endloop
  endfacet
  facet normal 1 0 0
    outer loop
      vertex -5.9 7.5 0.4
      vertex -5.9 14.3 2.1
      vertex -5.9 12.7 2.1
    endloop
  endfacet
  facet normal 1 0 0
    outer loop
      vertex -5.9 7.5 0.4
      vertex -5.9 12.7 2.1
      vertex -5.9 12.3 2.1
    endloop
  endfacet
  facet normal 1 0 0
    outer loop
      vertex -5.9 10.7 2.1
      vertex -5.9 12.3 2.1
      vertex -5.9 10.7 2.3
    endloop
  endfacet
  facet normal 1 0 0
    outer loop
      vertex -5.9 7.5 0.4
      vertex -5.9 12.3 2.1
      vertex -5.9 10.7 2.1
    endloop
  endfacet
  facet normal 1 0 0
    outer loop
      vertex -5.9 7.5 0.4
      vertex -5.9 10.7 2.1
      vertex -5.9 10.3 2.1
    endloop
  endfacet
  facet normal 1 0 0
    outer loop
      vertex -5.9 8.7 2.1
      vertex -5.9 10.3 2.1
      vertex -5.9 8.7 2.3
    endloop
  endfacet
  facet normal 1 0 0
    outer loop
      vertex -5.9 7.5 0.4
      vertex -5.9 10.3 2.1
      vertex -5.9 8.7 2.1
    endloop
  endfacet
  facet normal 1 0 0
    outer loop
      vertex -5.9 7.5 0.4
      vertex -5.9 8.7 2.1
      vertex -5.9 8.3 2.1
    endloop
  endfacet
  facet normal 1 0 0
    outer loop
      vertex -5.9 18.3 2.1
      vertex -5.9 7.5 0.4
      vertex -5.9 29.1 0.4
    endloop
  endfacet
  facet normal 1 0 0
    outer loop
      vertex -5.9 7.5 0.4
      vertex -5.9 8.3 2.1
      vertex -5.9 7.5 2.5
    endloop
  endfacet
  facet normal -1 0 0
    outer loop
      vertex 1.9 15 0.4
      vertex 1.9 14.7 2.1
      vertex 1.9 15 2.3
    endloop
  endfacet
  facet normal -1 0 0
    outer loop
      vertex 1.9 15 0.4
      vertex 1.9 14.3 2.1
      vertex 1.9 14.7 2.1
    endloop
  endfacet
  facet normal -1 0 0
    outer loop
      vertex 1.9 14.3 2.1
      vertex 1.9 12.7 2.1
      vertex 1.9 14.3 2.3
    endloop
  endfacet
  facet normal -1 0 0
    outer loop
      vertex 1.9 15 0.4
      vertex 1.9 12.7 2.1
      vertex 1.9 14.3 2.1
    endloop
  endfacet
  facet normal -1 0 0
    outer loop
      vertex 1.9 15 0.4
      vertex 1.9 12.3 2.1
      vertex 1.9 12.7 2.1
    endloop
  endfacet
  facet normal -1 0 0
    outer loop
      vertex 1.9 12.3 2.1
      vertex 1.9 10.7 2.1
      vertex 1.9 12.3 2.3
    endloop
  endfacet
  facet normal -1 0 0
    outer loop
      vertex 1.9 15 0.4
      vertex 1.9 10.7 2.1
      vertex 1.9 12.3 2.1
    endloop
  endfacet
  facet normal -1 0 0
    outer loop
      vertex 1.9 7.5 0.4
      vertex 1.9 10.7 2.1
      vertex 1.9 15 0.4
    endloop
  endfacet
  facet normal -1 0 0
    outer loop
      vertex 1.9 10.3 2.1
      vertex 1.9 8.7 2.1
      vertex 1.9 10.3 2.3
    endloop
  endfacet
  facet normal -1 -0 0
    outer loop
      vertex 1.9 10.7 2.1
      vertex 1.9 7.5 0.4
      vertex 1.9 10.3 2.1
    endloop
  endfacet
  facet normal -1 -0 0
    outer loop
      vertex 1.9 10.3 2.1
      vertex 1.9 7.5 0.4
      vertex 1.9 8.7 2.1
    endloop
  endfacet
  facet normal -1 0 0
    outer loop
      vertex 1.9 7.5 2.3
      vertex 1.9 8.3 2.1
      vertex 1.9 7.5 0.4
    endloop
  endfacet
  facet normal -1 -0 0
    outer loop
      vertex 1.9 8.7 2.1
      vertex 1.9 7.5 0.4
      vertex 1.9 8.3 2.1
    endloop
  endfacet
  facet normal -1 0 0
    outer loop
      vertex 1.9 14.7 2.3
      vertex 1.9 15 2.3
      vertex 1.9 14.7 2.1
    endloop
  endfacet
  facet normal 0 0 0
    outer loop
      vertex 1.9 14.3 2.3
      vertex 1.9 15 2.3
      vertex 1.9 14.7 2.3
    endloop
  endfacet
  facet normal -1 0 0
    outer loop
      vertex 1.9 12.7 2.3
      vertex 1.9 14.3 2.3
      vertex 1.9 12.7 2.1
    endloop
  endfacet
  facet normal 0 0 0
    outer loop
      vertex 1.9 12.7 2.3
      vertex 1.9 15 2.3
      vertex 1.9 14.3 2.3
    endloop
  endfacet
  facet normal 0 0 0
    outer loop
      vertex 1.9 12.3 2.3
      vertex 1.9 15 2.3
      vertex 1.9 12.7 2.3
    endloop
  endfacet
  facet normal -1 0 0
    outer loop
      vertex 1.9 10.7 2.3
      vertex 1.9 12.3 2.3
      vertex 1.9 10.7 2.1
    endloop
  endfacet
  facet normal 0 0 0
    outer loop
      vertex 1.9 10.7 2.3
      vertex 1.9 15 2.3
      vertex 1.9 12.3 2.3
    endloop
  endfacet
  facet normal 0 0 0
    outer loop
      vertex 1.9 10.3 2.3
      vertex 1.9 15 2.3
      vertex 1.9 10.7 2.3
    endloop
  endfacet
  facet normal -1 0 0
    outer loop
      vertex 1.9 8.7 2.3
      vertex 1.9 10.3 2.3
      vertex 1.9 8.7 2.1
    endloop
  endfacet
  facet normal 0 0 0
    outer loop
      vertex 1.9 8.7 2.3
      vertex 1.9 15 2.3
      vertex 1.9 10.3 2.3
    endloop
  endfacet
  facet normal 0 0 0
    outer loop
      vertex 1.9 8.3 2.3
      vertex 1.9 15 2.3
      vertex 1.9 8.7 2.3
    endloop
  endfacet
  facet normal -0 0 0
    outer loop
      vertex 1.9 8.3 2.3
      vertex 1.9 7.5 2.3
      vertex 1.9 15 2.3
    endloop
  endfacet
  facet normal -1 0 0
    outer loop
      vertex 1.9 8.3 2.1
      vertex 1.9 7.5 2.3
      vertex 1.9 8.3 2.3
    endloop
  endfacet
  facet normal 0 -1 0
    outer loop
      vertex 0.9 15 2.5
      vertex 1.7 15 2.3
      vertex 1.7 15 2.5
    endloop
  endfacet
  facet normal 0 -1 0
    outer loop
      vertex 0.9 15 0.4
      vertex 1.7 15 2.3
      vertex 0.9 15 2.5
    endloop
  endfacet
  facet normal 0 -1 0
    outer loop
      vertex 1.9 15 0.4
      vertex 1.7 15 2.3
      vertex 0.9 15 0.4
    endloop
  endfacet
  facet normal 0 -1 0
    outer loop
      vertex 1.7 15 2.3
      vertex 1.9 15 0.4
      vertex 1.9 15 2.3
    endloop
  endfacet
  facet normal -1 0 0
    outer loop
      vertex 8.9 -7.5 0.4
      vertex 8.9 7.5 2.5
      vertex 8.9 7.5 0.4
    endloop
  endfacet
  facet normal -1 -0 0
    outer loop
      vertex 8.9 7.5 2.5
      vertex 8.9 -7.5 0.4
      vertex 8.9 -7.5 2.5
    endloop
  endfacet
  facet normal 1 -0 0
    outer loop
      vertex -8.9 -7.5 2.5
      vertex -8.9 7.5 0.4
      vertex -8.9 7.5 2.5
    endloop
  endfacet
  facet normal 1 0 0
    outer loop
      vertex -8.9 7.5 0.4
      vertex -8.9 -7.5 2.5
      vertex -8.9 -7.5 0.4
    endloop
  endfacet
  facet normal 0 -1 0
    outer loop
      vertex -8.9 7.5 2.5
      vertex -8.3 7.5 2.3
      vertex -8.3 7.5 2.5
    endloop
  endfacet
  facet normal 0 -1 0
    outer loop
      vertex -8.9 7.5 0.4
      vertex -7.9 7.5 2.3
      vertex -8.3 7.5 2.3
    endloop
  endfacet
  facet normal 0 -1 0
    outer loop
      vertex -7.9 7.5 2.3
      vertex -5.9 7.5 0.4
      vertex -6.3 7.5 2.3
    endloop
  endfacet
  facet normal 0 -1 -0
    outer loop
      vertex -7.9 7.5 2.3
      vertex -8.9 7.5 0.4
      vertex -5.9 7.5 0.4
    endloop
  endfacet
  facet normal 0 -1 0
    outer loop
      vertex -8.9 7.5 0.4
      vertex -8.3 7.5 2.3
      vertex -8.9 7.5 2.5
    endloop
  endfacet
  facet normal 0 -1 0
    outer loop
      vertex -7.9 7.5 2.3
      vertex -6.3 7.5 2.5
      vertex -7.9 7.5 2.5
    endloop
  endfacet
  facet normal 0 -1 -0
    outer loop
      vertex -6.3 7.5 2.5
      vertex -7.9 7.5 2.3
      vertex -6.3 7.5 2.3
    endloop
  endfacet
  facet normal 0 -0 0
    outer loop
      vertex -5.9 7.5 2.3
      vertex -5.9 7.5 0.4
      vertex -5.9 7.5 2.5
    endloop
  endfacet
  facet normal 0 -1 0
    outer loop
      vertex -6.3 7.5 2.3
      vertex -5.9 7.5 0.4
      vertex -5.9 7.5 2.3
    endloop
  endfacet
  facet normal 0 -1 0
    outer loop
      vertex 1.9 7.5 0.4
      vertex 2.1 7.5 2.3
      vertex 1.9 7.5 2.3
    endloop
  endfacet
  facet normal 0 -1 -0
    outer loop
      vertex 2.1 7.5 2.3
      vertex 1.9 7.5 0.4
      vertex 3.7 7.5 2.3
    endloop
  endfacet
  facet normal 0 -1 -0
    outer loop
      vertex 3.7 7.5 2.3
      vertex 1.9 7.5 0.4
      vertex 4.1 7.5 2.3
    endloop
  endfacet
  facet normal 0 -1 -0
    outer loop
      vertex 4.1 7.5 2.3
      vertex 1.9 7.5 0.4
      vertex 5.7 7.5 2.3
    endloop
  endfacet
  facet normal 0 -1 0
    outer loop
      vertex 8.9 7.5 0.4
      vertex 5.7 7.5 2.3
      vertex 1.9 7.5 0.4
    endloop
  endfacet
  facet normal 0 -1 0
    outer loop
      vertex 5.7 7.5 2.3
      vertex 8.9 7.5 0.4
      vertex 6.1 7.5 2.3
    endloop
  endfacet
  facet normal 0 -1 0
    outer loop
      vertex 6.1 7.5 2.3
      vertex 8.9 7.5 0.4
      vertex 7.7 7.5 2.3
    endloop
  endfacet
  facet normal 0 -1 0
    outer loop
      vertex 2.1 7.5 2.3
      vertex 3.7 7.5 2.5
      vertex 2.1 7.5 2.5
    endloop
  endfacet
  facet normal 0 -1 -0
    outer loop
      vertex 3.7 7.5 2.5
      vertex 2.1 7.5 2.3
      vertex 3.7 7.5 2.3
    endloop
  endfacet
  facet normal 0 -1 0
    outer loop
      vertex 4.1 7.5 2.3
      vertex 5.7 7.5 2.5
      vertex 4.1 7.5 2.5
    endloop
  endfacet
  facet normal 0 -1 -0
    outer loop
      vertex 5.7 7.5 2.5
      vertex 4.1 7.5 2.3
      vertex 5.7 7.5 2.3
    endloop
  endfacet
  facet normal 0 -1 0
    outer loop
      vertex 6.1 7.5 2.3
      vertex 7.7 7.5 2.5
      vertex 6.1 7.5 2.5
    endloop
  endfacet
  facet normal 0 -1 -0
    outer loop
      vertex 7.7 7.5 2.5
      vertex 6.1 7.5 2.3
      vertex 7.7 7.5 2.3
    endloop
  endfacet
  facet normal 0 -1 0
    outer loop
      vertex 8.1 7.5 2.3
      vertex 8.9 7.5 2.5
      vertex 8.1 7.5 2.5
    endloop
  endfacet
  facet normal 0 -1 0
    outer loop
      vertex 7.7 7.5 2.3
      vertex 8.9 7.5 0.4
      vertex 8.1 7.5 2.3
    endloop
  endfacet
  facet normal 0 -1 0
    outer loop
      vertex 8.1 7.5 2.3
      vertex 8.9 7.5 0.4
      vertex 8.9 7.5 2.5
    endloop
  endfacet
  facet normal 0 1 -0
    outer loop
      vertex 8.3 -7.5 2.3
      vertex 8.1 -7.5 2.5
      vertex 8.9 -7.5 2.5
    endloop
  endfacet
  facet normal 0 0 0
    outer loop
      vertex 8.1 -7.5 2.3
      vertex 6.1 -7.5 2.3
      vertex 7.7 -7.5 2.3
    endloop
  endfacet
  facet normal 0 0 0
    outer loop
      vertex 8.1 -7.5 2.3
      vertex 5.7 -7.5 2.3
      vertex 6.1 -7.5 2.3
    endloop
  endfacet
  facet normal 0 0 0
    outer loop
      vertex 8.1 -7.5 2.3
      vertex 4.1 -7.5 2.3
      vertex 5.7 -7.5 2.3
    endloop
  endfacet
  facet normal 0 0 0
    outer loop
      vertex 8.1 -7.5 2.3
      vertex 3.7 -7.5 2.3
      vertex 4.1 -7.5 2.3
    endloop
  endfacet
  facet normal 0 0 0
    outer loop
      vertex 8.1 -7.5 2.3
      vertex 2.1 -7.5 2.3
      vertex 3.7 -7.5 2.3
    endloop
  endfacet
  facet normal 0 0 0
    outer loop
      vertex 8.1 -7.5 2.3
      vertex 1.7 -7.5 2.3
      vertex 2.1 -7.5 2.3
    endloop
  endfacet
  facet normal 0 0 0
    outer loop
      vertex 8.1 -7.5 2.3
      vertex 0.0999996 -7.5 2.3
      vertex 1.7 -7.5 2.3
    endloop
  endfacet
  facet normal 0 0 0
    outer loop
      vertex 8.1 -7.5 2.3
      vertex -0.3 -7.5 2.3
      vertex 0.0999996 -7.5 2.3
    endloop
  endfacet
  facet normal 0 0 0
    outer loop
      vertex 8.1 -7.5 2.3
      vertex -1.9 -7.5 2.3
      vertex -0.3 -7.5 2.3
    endloop
  endfacet
  facet normal 0 0 0
    outer loop
      vertex 8.1 -7.5 2.3
      vertex -2.3 -7.5 2.3
      vertex -1.9 -7.5 2.3
    endloop
  endfacet
  facet normal 0 0 0
    outer loop
      vertex 8.1 -7.5 2.3
      vertex -3.9 -7.5 2.3
      vertex -2.3 -7.5 2.3
    endloop
  endfacet
  facet normal 0 0 0
    outer loop
      vertex 8.1 -7.5 2.3
      vertex -4.3 -7.5 2.3
      vertex -3.9 -7.5 2.3
    endloop
  endfacet
  facet normal 0 0 0
    outer loop
      vertex 8.1 -7.5 2.3
      vertex -5.9 -7.5 2.3
      vertex -4.3 -7.5 2.3
    endloop
  endfacet
  facet normal 0 0 0
    outer loop
      vertex 8.1 -7.5 2.3
      vertex -6.3 -7.5 2.3
      vertex -5.9 -7.5 2.3
    endloop
  endfacet
  facet normal 0 0 0
    outer loop
      vertex 8.1 -7.5 2.3
      vertex -7.9 -7.5 2.3
      vertex -6.3 -7.5 2.3
    endloop
  endfacet
  facet normal 0 0 0
    outer loop
      vertex -8.3 -7.5 2.3
      vertex -7.9 -7.5 2.3
      vertex 8.1 -7.5 2.3
    endloop
  endfacet
  facet normal 0 0 0
    outer loop
      vertex -8.3 -7.5 2.3
      vertex 8.1 -7.5 2.3
      vertex 8.3 -7.5 2.3
    endloop
  endfacet
  facet normal 0 1 0
    outer loop
      vertex 8.1 -7.5 2.5
      vertex 8.3 -7.5 2.3
      vertex 8.1 -7.5 2.3
    endloop
  endfacet
  facet normal 0 1 0
    outer loop
      vertex 8.9 -7.5 2.5
      vertex 8.3 -7.5 2.1
      vertex 8.3 -7.5 2.3
    endloop
  endfacet
  facet normal 0 1 0
    outer loop
      vertex 8.3 -7.5 2.1
      vertex 8.9 -7.5 0.4
      vertex -8.3 -7.5 2.1
    endloop
  endfacet
  facet normal 0 1 -0
    outer loop
      vertex 8.9 -7.5 0.4
      vertex 8.3 -7.5 2.1
      vertex 8.9 -7.5 2.5
    endloop
  endfacet
  facet normal 0 1 -0
    outer loop
      vertex 7.7 -7.5 2.3
      vertex 6.1 -7.5 2.5
      vertex 7.7 -7.5 2.5
    endloop
  endfacet
  facet normal 0 1 0
    outer loop
      vertex 6.1 -7.5 2.5
      vertex 7.7 -7.5 2.3
      vertex 6.1 -7.5 2.3
    endloop
  endfacet
  facet normal 0 1 -0
    outer loop
      vertex 5.7 -7.5 2.3
      vertex 4.1 -7.5 2.5
      vertex 5.7 -7.5 2.5
    endloop
  endfacet
  facet normal 0 1 0
    outer loop
      vertex 4.1 -7.5 2.5
      vertex 5.7 -7.5 2.3
      vertex 4.1 -7.5 2.3
    endloop
  endfacet
  facet normal 0 1 -0
    outer loop
      vertex 3.7 -7.5 2.3
      vertex 2.1 -7.5 2.5
      vertex 3.7 -7.5 2.5
    endloop
  endfacet
  facet normal 0 1 0
    outer loop
      vertex 2.1 -7.5 2.5
      vertex 3.7 -7.5 2.3
      vertex 2.1 -7.5 2.3
    endloop
  endfacet
  facet normal 0 1 -0
    outer loop
      vertex 1.7 -7.5 2.3
      vertex 0.0999996 -7.5 2.5
      vertex 1.7 -7.5 2.5
    endloop
  endfacet
  facet normal 0 1 0
    outer loop
      vertex 0.0999996 -7.5 2.5
      vertex 1.7 -7.5 2.3
      vertex 0.0999996 -7.5 2.3
    endloop
  endfacet
  facet normal 0 1 -0
    outer loop
      vertex -0.3 -7.5 2.3
      vertex -1.9 -7.5 2.5
      vertex -0.3 -7.5 2.5
    endloop
  endfacet
  facet normal 0 1 0
    outer loop
      vertex -1.9 -7.5 2.5
      vertex -0.3 -7.5 2.3
      vertex -1.9 -7.5 2.3
    endloop
  endfacet
  facet normal 0 1 -0
    outer loop
      vertex -2.3 -7.5 2.3
      vertex -3.9 -7.5 2.5
      vertex -2.3 -7.5 2.5
    endloop
  endfacet
  facet normal 0 1 0
    outer loop
      vertex -3.9 -7.5 2.5
      vertex -2.3 -7.5 2.3
      vertex -3.9 -7.5 2.3
    endloop
  endfacet
  facet normal 0 1 -0
    outer loop
      vertex -4.3 -7.5 2.3
      vertex -5.9 -7.5 2.5
      vertex -4.3 -7.5 2.5
    endloop
  endfacet
  facet normal 0 1 0
    outer loop
      vertex -5.9 -7.5 2.5
      vertex -4.3 -7.5 2.3
      vertex -5.9 -7.5 2.3
    endloop
  endfacet
  facet normal 0 1 -0
    outer loop
      vertex -6.3 -7.5 2.3
      vertex -7.9 -7.5 2.5
      vertex -6.3 -7.5 2.5
    endloop
  endfacet
  facet normal 0 1 0
    outer loop
      vertex -7.9 -7.5 2.5
      vertex -6.3 -7.5 2.3
      vertex -7.9 -7.5 2.3
    endloop
  endfacet
  facet normal 0 1 -0
    outer loop
      vertex -8.3 -7.5 2.3
      vertex -8.9 -7.5 2.5
      vertex -8.3 -7.5 2.5
    endloop
  endfacet
  facet normal 0 1 -0
    outer loop
      vertex -8.3 -7.5 2.1
      vertex -8.9 -7.5 2.5
      vertex -8.3 -7.5 2.3
    endloop
  endfacet
  facet normal 0 1 0
    outer loop
      vertex -8.3 -7.5 2.1
      vertex -8.9 -7.5 0.4
      vertex -8.9 -7.5 2.5
    endloop
  endfacet
  facet normal 0 1 0
    outer loop
      vertex -8.9 -7.5 0.4
      vertex -8.3 -7.5 2.1
      vertex 8.9 -7.5 0.4
    endloop
  endfacet
  facet normal 0.980786 -0.195089 0
    outer loop
      vertex -5.5 -2.6 2.9
      vertex -5.3097 -1.64329 2.5
      vertex -5.3097 -1.64329 2.9
    endloop
  endfacet
  facet normal 0.980786 -0.195089 0
    outer loop
      vertex -5.3097 -1.64329 2.5
      vertex -5.5 -2.6 2.9
      vertex -5.5 -2.6 2.5
    endloop
  endfacet
  facet normal 0.980786 -0.195089 0
    outer loop
      vertex -5.5 -2.6 0.4
      vertex -5.3097 -1.64329 0
      vertex -5.3097 -1.64329 0.4
    endloop
  endfacet
  facet normal 0.980786 -0.195089 0
    outer loop
      vertex -5.3097 -1.64329 0
      vertex -5.5 -2.6 0.4
      vertex -5.5 -2.6 0
    endloop
  endfacet
  facet normal -0.831471 -0.555568 0
    outer loop
      vertex -0.690301 -1.64329 2.5
      vertex -1.23223 -0.832232 2.9
      vertex -1.23223 -0.832232 2.5
    endloop
  endfacet
  facet normal -0.831471 -0.555568 0
    outer loop
      vertex -1.23223 -0.832232 2.9
      vertex -0.690301 -1.64329 2.5
      vertex -0.690301 -1.64329 2.9
    endloop
  endfacet
  facet normal -0.831471 -0.555568 0
    outer loop
      vertex -0.690301 -1.64329 0
      vertex -1.23223 -0.832232 0.4
      vertex -1.23223 -0.832232 0
    endloop
  endfacet
  facet normal -0.831471 -0.555568 0
    outer loop
      vertex -1.23223 -0.832232 0.4
      vertex -0.690301 -1.64329 0
      vertex -0.690301 -1.64329 0.4
    endloop
  endfacet
  facet normal -0.980785 -0.19509 0
    outer loop
      vertex -0.5 -2.6 2.5
      vertex -0.690301 -1.64329 2.9
      vertex -0.690301 -1.64329 2.5
    endloop
  endfacet
  facet normal -0.980785 -0.19509 0
    outer loop
      vertex -0.690301 -1.64329 2.9
      vertex -0.5 -2.6 2.5
      vertex -0.5 -2.6 2.9
    endloop
  endfacet
  facet normal -0.980785 -0.19509 0
    outer loop
      vertex -0.5 -2.6 0
      vertex -0.690301 -1.64329 0.4
      vertex -0.690301 -1.64329 0
    endloop
  endfacet
  facet normal -0.980785 -0.19509 0
    outer loop
      vertex -0.690301 -1.64329 0.4
      vertex -0.5 -2.6 0
      vertex -0.5 -2.6 0.4
    endloop
  endfacet
  facet normal -0.555573 -0.831468 0
    outer loop
      vertex -1.9 -0.386044 2.5
      vertex -2.04329 -0.2903 2.9
      vertex -2.04329 -0.2903 2.5
    endloop
  endfacet
  facet normal -0.55557 -0.83147 1.77446e-06
    outer loop
      vertex -2.04329 -0.2903 2.9
      vertex -1.9 -0.386044 2.5
      vertex -1.23223 -0.832232 2.9
    endloop
  endfacet
  facet normal -0.555569 -0.831471 0
    outer loop
      vertex -1.9 -0.386044 2.5
      vertex -1.23223 -0.832232 2.5
      vertex -1.23223 -0.832232 2.9
    endloop
  endfacet
  facet normal -0.55557 -0.83147 0
    outer loop
      vertex -2.04329 -0.2903 0
      vertex -1.23223 -0.832232 0.4
      vertex -2.04329 -0.2903 0.4
    endloop
  endfacet
  facet normal -0.55557 -0.83147 -0
    outer loop
      vertex -1.23223 -0.832232 0.4
      vertex -2.04329 -0.2903 0
      vertex -1.23223 -0.832232 0
    endloop
  endfacet
  facet normal -0.831471 0.555567 0
    outer loop
      vertex -1.23223 -4.36777 2.5
      vertex -0.690301 -3.55671 2.9
      vertex -0.690301 -3.55671 2.5
    endloop
  endfacet
  facet normal -0.831471 0.555567 0
    outer loop
      vertex -0.690301 -3.55671 2.9
      vertex -1.23223 -4.36777 2.5
      vertex -1.23223 -4.36777 2.9
    endloop
  endfacet
  facet normal -0.831471 0.555567 0
    outer loop
      vertex -1.23223 -4.36777 0
      vertex -0.690301 -3.55671 0.4
      vertex -0.690301 -3.55671 0
    endloop
  endfacet
  facet normal -0.831471 0.555567 0
    outer loop
      vertex -0.690301 -3.55671 0.4
      vertex -1.23223 -4.36777 0
      vertex -1.23223 -4.36777 0.4
    endloop
  endfacet
  facet normal -0.555568 0.831471 1.4981e-05
    outer loop
      vertex -1.23223 -4.36777 2.9
      vertex -1.9 -4.81395 2.5
      vertex -2.04329 -4.9097 2.9
    endloop
  endfacet
  facet normal -0.555562 0.831475 0
    outer loop
      vertex -1.23223 -4.36777 2.5
      vertex -1.9 -4.81395 2.5
      vertex -1.23223 -4.36777 2.9
    endloop
  endfacet
  facet normal -0.555597 0.831452 0
    outer loop
      vertex -2.04329 -4.9097 2.9
      vertex -1.9 -4.81395 2.5
      vertex -2.04329 -4.9097 2.5
    endloop
  endfacet
  facet normal -0.555568 0.831471 0
    outer loop
      vertex -1.23223 -4.36777 0
      vertex -2.04329 -4.9097 0.4
      vertex -1.23223 -4.36777 0.4
    endloop
  endfacet
  facet normal -0.555568 0.831471 0
    outer loop
      vertex -2.04329 -4.9097 0.4
      vertex -1.23223 -4.36777 0
      vertex -2.04329 -4.9097 0
    endloop
  endfacet
  facet normal 0.55557 -0.83147 4.91459e-06
    outer loop
      vertex -4.76777 -0.832232 2.9
      vertex -4.3 -0.519681 2.5
      vertex -3.95671 -0.2903 2.9
    endloop
  endfacet
  facet normal 0.555567 -0.831472 0
    outer loop
      vertex -4.76777 -0.832232 2.5
      vertex -4.3 -0.519681 2.5
      vertex -4.76777 -0.832232 2.9
    endloop
  endfacet
  facet normal 0.555574 -0.831467 0
    outer loop
      vertex -3.95671 -0.2903 2.9
      vertex -4.3 -0.519681 2.5
      vertex -3.95671 -0.2903 2.5
    endloop
  endfacet
  facet normal 0.55557 -0.83147 0
    outer loop
      vertex -4.76777 -0.832232 0
      vertex -3.95671 -0.2903 0.4
      vertex -4.76777 -0.832232 0.4
    endloop
  endfacet
  facet normal 0.55557 -0.83147 0
    outer loop
      vertex -3.95671 -0.2903 0.4
      vertex -4.76777 -0.832232 0
      vertex -3.95671 -0.2903 0
    endloop
  endfacet
  facet normal 0.195089 0.980786 5.74605e-07
    outer loop
      vertex -3 -5.1 2.9
      vertex -3.9 -4.92098 2.5
      vertex -3.95671 -4.9097 2.9
    endloop
  endfacet
  facet normal 0.195089 0.980786 -0
    outer loop
      vertex -3 -5.1 2.5
      vertex -3.9 -4.92098 2.5
      vertex -3 -5.1 2.9
    endloop
  endfacet
  facet normal 0.195085 0.980786 0
    outer loop
      vertex -3.95671 -4.9097 2.9
      vertex -3.9 -4.92098 2.5
      vertex -3.95671 -4.9097 2.5
    endloop
  endfacet
  facet normal 0.195089 0.980786 -0
    outer loop
      vertex -3 -5.1 0
      vertex -3.95671 -4.9097 0.4
      vertex -3 -5.1 0.4
    endloop
  endfacet
  facet normal 0.195089 0.980786 0
    outer loop
      vertex -3.95671 -4.9097 0.4
      vertex -3 -5.1 0
      vertex -3.95671 -4.9097 0
    endloop
  endfacet
  facet normal -0.19508 0.980787 0
    outer loop
      vertex -2.3 -4.96076 2.5
      vertex -2.04329 -4.9097 2.9
      vertex -2.04329 -4.9097 2.5
    endloop
  endfacet
  facet normal -0.195089 0.980786 5.89572e-06
    outer loop
      vertex -2.04329 -4.9097 2.9
      vertex -2.3 -4.96076 2.5
      vertex -3 -5.1 2.9
    endloop
  endfacet
  facet normal -0.195092 0.980785 0
    outer loop
      vertex -2.3 -4.96076 2.5
      vertex -3 -5.1 2.5
      vertex -3 -5.1 2.9
    endloop
  endfacet
  facet normal -0.195089 0.980786 0
    outer loop
      vertex -2.04329 -4.9097 0
      vertex -3 -5.1 0.4
      vertex -2.04329 -4.9097 0.4
    endloop
  endfacet
  facet normal -0.195089 0.980786 0
    outer loop
      vertex -3 -5.1 0.4
      vertex -2.04329 -4.9097 0
      vertex -3 -5.1 0
    endloop
  endfacet
  facet normal 0.195068 -0.98079 0
    outer loop
      vertex -3.9 -0.279021 2.5
      vertex -3.95671 -0.2903 2.9
      vertex -3.95671 -0.2903 2.5
    endloop
  endfacet
  facet normal 0.195089 -0.980785 3.11377e-06
    outer loop
      vertex -3.95671 -0.2903 2.9
      vertex -3.9 -0.279021 2.5
      vertex -3 -0.0999994 2.9
    endloop
  endfacet
  facet normal 0.195091 -0.980785 0
    outer loop
      vertex -3.9 -0.279021 2.5
      vertex -3 -0.0999994 2.5
      vertex -3 -0.0999994 2.9
    endloop
  endfacet
  facet normal 0.195089 -0.980785 0
    outer loop
      vertex -3.95671 -0.2903 0
      vertex -3 -0.0999994 0.4
      vertex -3.95671 -0.2903 0.4
    endloop
  endfacet
  facet normal 0.195089 -0.980785 0
    outer loop
      vertex -3 -0.0999994 0.4
      vertex -3.95671 -0.2903 0
      vertex -3 -0.0999994 0
    endloop
  endfacet
  facet normal -0.980785 0.19509 0
    outer loop
      vertex -0.690301 -3.55671 2.5
      vertex -0.5 -2.6 2.9
      vertex -0.5 -2.6 2.5
    endloop
  endfacet
  facet normal -0.980785 0.19509 0
    outer loop
      vertex -0.5 -2.6 2.9
      vertex -0.690301 -3.55671 2.5
      vertex -0.690301 -3.55671 2.9
    endloop
  endfacet
  facet normal -0.980785 0.19509 0
    outer loop
      vertex -0.690301 -3.55671 0
      vertex -0.5 -2.6 0.4
      vertex -0.5 -2.6 0
    endloop
  endfacet
  facet normal -0.980785 0.19509 0
    outer loop
      vertex -0.5 -2.6 0.4
      vertex -0.690301 -3.55671 0
      vertex -0.690301 -3.55671 0.4
    endloop
  endfacet
  facet normal 0.83147 -0.555569 0
    outer loop
      vertex -5.3097 -1.64329 2.9
      vertex -4.76777 -0.832232 2.5
      vertex -4.76777 -0.832232 2.9
    endloop
  endfacet
  facet normal 0.83147 -0.555569 0
    outer loop
      vertex -4.76777 -0.832232 2.5
      vertex -5.3097 -1.64329 2.9
      vertex -5.3097 -1.64329 2.5
    endloop
  endfacet
  facet normal 0.83147 -0.555569 0
    outer loop
      vertex -5.3097 -1.64329 0.4
      vertex -4.76777 -0.832232 0
      vertex -4.76777 -0.832232 0.4
    endloop
  endfacet
  facet normal 0.83147 -0.555569 0
    outer loop
      vertex -4.76777 -0.832232 0
      vertex -5.3097 -1.64329 0.4
      vertex -5.3097 -1.64329 0
    endloop
  endfacet
  facet normal -0.195089 -0.980785 1.38655e-06
    outer loop
      vertex -3 -0.0999994 2.9
      vertex -2.3 -0.239238 2.5
      vertex -2.04329 -0.2903 2.9
    endloop
  endfacet
  facet normal -0.19509 -0.980785 0
    outer loop
      vertex -3 -0.0999994 2.5
      vertex -2.3 -0.239238 2.5
      vertex -3 -0.0999994 2.9
    endloop
  endfacet
  facet normal -0.195087 -0.980786 -0
    outer loop
      vertex -2.04329 -0.2903 2.9
      vertex -2.3 -0.239238 2.5
      vertex -2.04329 -0.2903 2.5
    endloop
  endfacet
  facet normal -0.195089 -0.980785 0
    outer loop
      vertex -3 -0.0999994 0
      vertex -2.04329 -0.2903 0.4
      vertex -3 -0.0999994 0.4
    endloop
  endfacet
  facet normal -0.195089 -0.980785 -0
    outer loop
      vertex -2.04329 -0.2903 0.4
      vertex -3 -0.0999994 0
      vertex -2.04329 -0.2903 0
    endloop
  endfacet
  facet normal 0.831471 0.555568 0
    outer loop
      vertex -4.76777 -4.36777 2.9
      vertex -5.3097 -3.55671 2.5
      vertex -5.3097 -3.55671 2.9
    endloop
  endfacet
  facet normal 0.831471 0.555568 0
    outer loop
      vertex -5.3097 -3.55671 2.5
      vertex -4.76777 -4.36777 2.9
      vertex -4.76777 -4.36777 2.5
    endloop
  endfacet
  facet normal 0.831471 0.555568 0
    outer loop
      vertex -4.76777 -4.36777 0.4
      vertex -5.3097 -3.55671 0
      vertex -5.3097 -3.55671 0.4
    endloop
  endfacet
  facet normal 0.831471 0.555568 0
    outer loop
      vertex -5.3097 -3.55671 0
      vertex -4.76777 -4.36777 0.4
      vertex -4.76777 -4.36777 0
    endloop
  endfacet
  facet normal 0.980786 0.195089 0
    outer loop
      vertex -5.3097 -3.55671 2.9
      vertex -5.5 -2.6 2.5
      vertex -5.5 -2.6 2.9
    endloop
  endfacet
  facet normal 0.980786 0.195089 0
    outer loop
      vertex -5.5 -2.6 2.5
      vertex -5.3097 -3.55671 2.9
      vertex -5.3097 -3.55671 2.5
    endloop
  endfacet
  facet normal 0.980786 0.195089 0
    outer loop
      vertex -5.3097 -3.55671 0.4
      vertex -5.5 -2.6 0
      vertex -5.5 -2.6 0.4
    endloop
  endfacet
  facet normal 0.980786 0.195089 0
    outer loop
      vertex -5.5 -2.6 0
      vertex -5.3097 -3.55671 0.4
      vertex -5.3097 -3.55671 0
    endloop
  endfacet
  facet normal 0.555572 0.831469 0
    outer loop
      vertex -4.3 -4.68032 2.5
      vertex -3.95671 -4.9097 2.9
      vertex -3.95671 -4.9097 2.5
    endloop
  endfacet
  facet normal 0.555568 0.831471 4.59556e-06
    outer loop
      vertex -3.95671 -4.9097 2.9
      vertex -4.3 -4.68032 2.5
      vertex -4.76777 -4.36777 2.9
    endloop
  endfacet
  facet normal 0.555565 0.831473 0
    outer loop
      vertex -4.3 -4.68032 2.5
      vertex -4.76777 -4.36777 2.5
      vertex -4.76777 -4.36777 2.9
    endloop
  endfacet
  facet normal 0.555568 0.831471 -0
    outer loop
      vertex -3.95671 -4.9097 0
      vertex -4.76777 -4.36777 0.4
      vertex -3.95671 -4.9097 0.4
    endloop
  endfacet
  facet normal 0.555568 0.831471 0
    outer loop
      vertex -4.76777 -4.36777 0.4
      vertex -3.95671 -4.9097 0
      vertex -4.76777 -4.36777 0
    endloop
  endfacet
  facet normal 1 -0 0
    outer loop
      vertex 1.7 15.8 2.9
      vertex 1.7 29.1 0
      vertex 1.7 29.1 2.9
    endloop
  endfacet
  facet normal 1 0 0
    outer loop
      vertex 1.7 29.1 0
      vertex 1.7 15.8 2.9
      vertex 1.7 15.8 0
    endloop
  endfacet
  facet normal -0 0 1
    outer loop
      vertex -6.7 29.1 2.9
      vertex 1.7 15.8 2.9
      vertex 1.7 29.1 2.9
    endloop
  endfacet
  facet normal 0 0 1
    outer loop
      vertex 1.7 15.8 2.9
      vertex -0.690301 -1.64329 2.9
      vertex -0.5 -2.6 2.9
    endloop
  endfacet
  facet normal 0 0 1
    outer loop
      vertex 1.7 15.8 2.9
      vertex -1.23223 -0.832232 2.9
      vertex -0.690301 -1.64329 2.9
    endloop
  endfacet
  facet normal 0 -0 1
    outer loop
      vertex -2.04329 -0.2903 2.9
      vertex 1.7 15.8 2.9
      vertex -6.7 8.3 2.9
    endloop
  endfacet
  facet normal 0 0 1
    outer loop
      vertex 1.7 15.8 2.9
      vertex -2.04329 -0.2903 2.9
      vertex -1.23223 -0.832232 2.9
    endloop
  endfacet
  facet normal 0 0 1
    outer loop
      vertex -2.04329 -0.2903 2.9
      vertex -6.7 8.3 2.9
      vertex -3 -0.0999994 2.9
    endloop
  endfacet
  facet normal 0 0 1
    outer loop
      vertex -3 -0.0999994 2.9
      vertex -6.7 8.3 2.9
      vertex -3.95671 -0.2903 2.9
    endloop
  endfacet
  facet normal 0 0 1
    outer loop
      vertex -3.95671 -0.2903 2.9
      vertex -6.7 8.3 2.9
      vertex -4.76777 -0.832232 2.9
    endloop
  endfacet
  facet normal -0 0 1
    outer loop
      vertex -9.7 8.3 2.9
      vertex -4.76777 -0.832232 2.9
      vertex -6.7 8.3 2.9
    endloop
  endfacet
  facet normal 0 0 1
    outer loop
      vertex 1.7 15.8 2.9
      vertex -6.7 29.1 2.9
      vertex -6.7 8.3 2.9
    endloop
  endfacet
  facet normal 0 0 1
    outer loop
      vertex 2.7 15.8 2.9
      vertex 1.7 15.8 2.9
      vertex 2.7 8.3 2.9
    endloop
  endfacet
  facet normal 0 0 1
    outer loop
      vertex -0.5 -2.6 2.9
      vertex 9.7 8.3 2.9
      vertex 2.7 8.3 2.9
    endloop
  endfacet
  facet normal 0 0 1
    outer loop
      vertex -0.5 -2.6 2.9
      vertex 2.7 8.3 2.9
      vertex 1.7 15.8 2.9
    endloop
  endfacet
  facet normal 0 0 1
    outer loop
      vertex 9.7 8.3 2.9
      vertex -0.5 -2.6 2.9
      vertex 9.7 -8.3 2.9
    endloop
  endfacet
  facet normal -0 0 1
    outer loop
      vertex -0.690301 -3.55671 2.9
      vertex 9.7 -8.3 2.9
      vertex -0.5 -2.6 2.9
    endloop
  endfacet
  facet normal -0 0 1
    outer loop
      vertex -1.23223 -4.36777 2.9
      vertex 9.7 -8.3 2.9
      vertex -0.690301 -3.55671 2.9
    endloop
  endfacet
  facet normal -0 0 1
    outer loop
      vertex -2.04329 -4.9097 2.9
      vertex 9.7 -8.3 2.9
      vertex -1.23223 -4.36777 2.9
    endloop
  endfacet
  facet normal -0 0 1
    outer loop
      vertex -3 -5.1 2.9
      vertex 9.7 -8.3 2.9
      vertex -2.04329 -4.9097 2.9
    endloop
  endfacet
  facet normal 0 0 1
    outer loop
      vertex -9.7 -8.3 2.9
      vertex -3 -5.1 2.9
      vertex -3.95671 -4.9097 2.9
    endloop
  endfacet
  facet normal 0 0 1
    outer loop
      vertex -4.76777 -0.832232 2.9
      vertex -9.7 8.3 2.9
      vertex -5.3097 -1.64329 2.9
    endloop
  endfacet
  facet normal 0 0 1
    outer loop
      vertex -9.7 -8.3 2.9
      vertex -5.3097 -1.64329 2.9
      vertex -9.7 8.3 2.9
    endloop
  endfacet
  facet normal 0 0 1
    outer loop
      vertex -5.3097 -1.64329 2.9
      vertex -9.7 -8.3 2.9
      vertex -5.5 -2.6 2.9
    endloop
  endfacet
  facet normal 0 0 1
    outer loop
      vertex -3 -5.1 2.9
      vertex -9.7 -8.3 2.9
      vertex 9.7 -8.3 2.9
    endloop
  endfacet
  facet normal 0 0 1
    outer loop
      vertex -4.76777 -4.36777 2.9
      vertex -9.7 -8.3 2.9
      vertex -3.95671 -4.9097 2.9
    endloop
  endfacet
  facet normal 0 0 1
    outer loop
      vertex -5.3097 -3.55671 2.9
      vertex -9.7 -8.3 2.9
      vertex -4.76777 -4.36777 2.9
    endloop
  endfacet
  facet normal 0 0 1
    outer loop
      vertex -5.5 -2.6 2.9
      vertex -9.7 -8.3 2.9
      vertex -5.3097 -3.55671 2.9
    endloop
  endfacet
  facet normal 0 0 -1
    outer loop
      vertex -0.690301 -1.64329 0
      vertex 9.7 8.3 0
      vertex 9.7 -8.3 0
    endloop
  endfacet
  facet normal 0 0 -1
    outer loop
      vertex 2.7 8.3 0
      vertex 1.7 15.8 0
      vertex 2.7 15.8 0
    endloop
  endfacet
  facet normal 0 0 -1
    outer loop
      vertex -1.23223 -0.832232 0
      vertex 2.7 8.3 0
      vertex -0.690301 -1.64329 0
    endloop
  endfacet
  facet normal -0 0 -1
    outer loop
      vertex 9.7 8.3 0
      vertex -0.690301 -1.64329 0
      vertex 2.7 8.3 0
    endloop
  endfacet
  facet normal 0 0 -1
    outer loop
      vertex -0.690301 -1.64329 0
      vertex 9.7 -8.3 0
      vertex -0.5 -2.6 0
    endloop
  endfacet
  facet normal 0 0 -1
    outer loop
      vertex 9.7 -8.3 0
      vertex -0.690301 -3.55671 0
      vertex -0.5 -2.6 0
    endloop
  endfacet
  facet normal 0 0 -1
    outer loop
      vertex 9.7 -8.3 0
      vertex -1.23223 -4.36777 0
      vertex -0.690301 -3.55671 0
    endloop
  endfacet
  facet normal 0 0 -1
    outer loop
      vertex 9.7 -8.3 0
      vertex -2.04329 -4.9097 0
      vertex -1.23223 -4.36777 0
    endloop
  endfacet
  facet normal 0 0 -1
    outer loop
      vertex 9.7 -8.3 0
      vertex -3 -5.1 0
      vertex -2.04329 -4.9097 0
    endloop
  endfacet
  facet normal 0 0 -1
    outer loop
      vertex -9.7 -8.3 0
      vertex -3 -5.1 0
      vertex 9.7 -8.3 0
    endloop
  endfacet
  facet normal -0 0 -1
    outer loop
      vertex -3 -5.1 0
      vertex -9.7 -8.3 0
      vertex -3.95671 -4.9097 0
    endloop
  endfacet
  facet normal 0 0 -1
    outer loop
      vertex -9.7 -8.3 0
      vertex -4.76777 -4.36777 0
      vertex -3.95671 -4.9097 0
    endloop
  endfacet
  facet normal 0 0 -1
    outer loop
      vertex -9.7 -8.3 0
      vertex -5.3097 -3.55671 0
      vertex -4.76777 -4.36777 0
    endloop
  endfacet
  facet normal 0 0 -1
    outer loop
      vertex -9.7 -8.3 0
      vertex -5.5 -2.6 0
      vertex -5.3097 -3.55671 0
    endloop
  endfacet
  facet normal 0 0 -1
    outer loop
      vertex -9.7 8.3 0
      vertex -5.3097 -1.64329 0
      vertex -9.7 -8.3 0
    endloop
  endfacet
  facet normal 0 0 -1
    outer loop
      vertex -5.3097 -1.64329 0
      vertex -9.7 8.3 0
      vertex -6.7 8.3 0
    endloop
  endfacet
  facet normal 0 0 -1
    outer loop
      vertex -2.04329 -0.2903 0
      vertex 2.7 8.3 0
      vertex -1.23223 -0.832232 0
    endloop
  endfacet
  facet normal 0 0 -1
    outer loop
      vertex -3 -0.0999994 0
      vertex 2.7 8.3 0
      vertex -2.04329 -0.2903 0
    endloop
  endfacet
  facet normal 0 0 -1
    outer loop
      vertex 2.7 8.3 0
      vertex -6.7 8.3 0
      vertex 1.7 15.8 0
    endloop
  endfacet
  facet normal -0 0 -1
    outer loop
      vertex 2.7 8.3 0
      vertex -3 -0.0999994 0
      vertex -6.7 8.3 0
    endloop
  endfacet
  facet normal 0 0 -1
    outer loop
      vertex -6.7 8.3 0
      vertex -3 -0.0999994 0
      vertex -3.95671 -0.2903 0
    endloop
  endfacet
  facet normal 0 0 -1
    outer loop
      vertex -6.7 8.3 0
      vertex -3.95671 -0.2903 0
      vertex -4.76777 -0.832232 0
    endloop
  endfacet
  facet normal 0 0 -1
    outer loop
      vertex -6.7 8.3 0
      vertex -4.76777 -0.832232 0
      vertex -5.3097 -1.64329 0
    endloop
  endfacet
  facet normal 0 0 -1
    outer loop
      vertex -9.7 -8.3 0
      vertex -5.3097 -1.64329 0
      vertex -5.5 -2.6 0
    endloop
  endfacet
  facet normal 0 0 -1
    outer loop
      vertex -6.7 29.1 0
      vertex 1.7 15.8 0
      vertex -6.7 8.3 0
    endloop
  endfacet
  facet normal 0 0 -1
    outer loop
      vertex 1.7 15.8 0
      vertex -6.7 29.1 0
      vertex 1.7 29.1 0
    endloop
  endfacet
  facet normal -1 0 0
    outer loop
      vertex -6.7 8.3 0
      vertex -6.7 29.1 2.9
      vertex -6.7 29.1 0
    endloop
  endfacet
  facet normal -1 -0 0
    outer loop
      vertex -6.7 29.1 2.9
      vertex -6.7 8.3 0
      vertex -6.7 8.3 2.9
    endloop
  endfacet
  facet normal 0 1 0
    outer loop
      vertex 1.7 29.1 2.9
      vertex 0.9 29.1 2.5
      vertex -6.7 29.1 2.9
    endloop
  endfacet
  facet normal 0 1 0
    outer loop
      vertex 1.7 29.1 2.9
      vertex 0.9 29.1 0.4
      vertex 0.9 29.1 2.5
    endloop
  endfacet
  facet normal 0 1 0
    outer loop
      vertex 0.9 29.1 0.4
      vertex 1.7 29.1 0
      vertex -5.9 29.1 0.4
    endloop
  endfacet
  facet normal 0 1 -0
    outer loop
      vertex 1.7 29.1 0
      vertex 0.9 29.1 0.4
      vertex 1.7 29.1 2.9
    endloop
  endfacet
  facet normal 0 1 -0
    outer loop
      vertex -5.9 29.1 2.5
      vertex -6.7 29.1 2.9
      vertex 0.9 29.1 2.5
    endloop
  endfacet
  facet normal 0 1 -0
    outer loop
      vertex -5.9 29.1 0.4
      vertex -6.7 29.1 2.9
      vertex -5.9 29.1 2.5
    endloop
  endfacet
  facet normal 0 1 0
    outer loop
      vertex -5.9 29.1 0.4
      vertex -6.7 29.1 0
      vertex -6.7 29.1 2.9
    endloop
  endfacet
  facet normal 0 1 0
    outer loop
      vertex -6.7 29.1 0
      vertex -5.9 29.1 0.4
      vertex 1.7 29.1 0
    endloop
  endfacet
  facet normal 1 -0 0
    outer loop
      vertex 2.7 8.3 2.9
      vertex 2.7 15.8 0
      vertex 2.7 15.8 2.9
    endloop
  endfacet
  facet normal 1 0 0
    outer loop
      vertex 2.7 15.8 0
      vertex 2.7 8.3 2.9
      vertex 2.7 8.3 0
    endloop
  endfacet
  facet normal 0 1 -0
    outer loop
      vertex 2.7 15.8 0
      vertex 1.7 15.8 2.9
      vertex 2.7 15.8 2.9
    endloop
  endfacet
  facet normal 0 1 0
    outer loop
      vertex 1.7 15.8 2.9
      vertex 2.7 15.8 0
      vertex 1.7 15.8 0
    endloop
  endfacet
  facet normal 1 -0 0
    outer loop
      vertex 9.7 -8.3 2.9
      vertex 9.7 8.3 0
      vertex 9.7 8.3 2.9
    endloop
  endfacet
  facet normal 1 0 0
    outer loop
      vertex 9.7 8.3 0
      vertex 9.7 -8.3 2.9
      vertex 9.7 -8.3 0
    endloop
  endfacet
  facet normal -1 0 0
    outer loop
      vertex -9.7 -8.3 0
      vertex -9.7 8.3 2.9
      vertex -9.7 8.3 0
    endloop
  endfacet
  facet normal -1 -0 0
    outer loop
      vertex -9.7 8.3 2.9
      vertex -9.7 -8.3 0
      vertex -9.7 -8.3 2.9
    endloop
  endfacet
  facet normal 0 1 -0
    outer loop
      vertex -6.7 8.3 0
      vertex -9.7 8.3 2.9
      vertex -6.7 8.3 2.9
    endloop
  endfacet
  facet normal 0 1 0
    outer loop
      vertex -9.7 8.3 2.9
      vertex -6.7 8.3 0
      vertex -9.7 8.3 0
    endloop
  endfacet
  facet normal 0 1 -0
    outer loop
      vertex 9.7 8.3 0
      vertex 2.7 8.3 2.9
      vertex 9.7 8.3 2.9
    endloop
  endfacet
  facet normal 0 1 0
    outer loop
      vertex 2.7 8.3 2.9
      vertex 9.7 8.3 0
      vertex 2.7 8.3 0
    endloop
  endfacet
  facet normal 0 -1 0
    outer loop
      vertex -9.7 -8.3 0
      vertex 9.7 -8.3 2.9
      vertex -9.7 -8.3 2.9
    endloop
  endfacet
  facet normal 0 -1 -0
    outer loop
      vertex 9.7 -8.3 2.9
      vertex -9.7 -8.3 0
      vertex 9.7 -8.3 0
    endloop
  endfacet
  facet normal 1 -0 0
    outer loop
      vertex 8.3 -7.5 2.3
      vertex 8.3 -7.3 2.1
      vertex 8.3 -7.3 2.3
    endloop
  endfacet
  facet normal 1 0 0
    outer loop
      vertex 8.3 -7.3 2.1
      vertex 8.3 -7.5 2.3
      vertex 8.3 -7.5 2.1
    endloop
  endfacet
  facet normal -0 0 1
    outer loop
      vertex -8.3 -7.3 2.3
      vertex 8.3 -7.5 2.3
      vertex 8.3 -7.3 2.3
    endloop
  endfacet
  facet normal 0 0 1
    outer loop
      vertex 8.3 -7.5 2.3
      vertex -8.3 -7.3 2.3
      vertex -8.3 -7.5 2.3
    endloop
  endfacet
  facet normal 0 0 -1
    outer loop
      vertex -8.3 -7.5 2.1
      vertex 8.3 -7.3 2.1
      vertex 8.3 -7.5 2.1
    endloop
  endfacet
  facet normal -0 0 -1
    outer loop
      vertex 8.3 -7.3 2.1
      vertex -8.3 -7.5 2.1
      vertex -8.3 -7.3 2.1
    endloop
  endfacet
  facet normal -1 0 0
    outer loop
      vertex -8.3 -7.5 2.1
      vertex -8.3 -7.3 2.3
      vertex -8.3 -7.3 2.1
    endloop
  endfacet
  facet normal -1 -0 0
    outer loop
      vertex -8.3 -7.3 2.3
      vertex -8.3 -7.5 2.1
      vertex -8.3 -7.5 2.3
    endloop
  endfacet
  facet normal 0 1 -0
    outer loop
      vertex 8.3 -7.3 2.1
      vertex -8.3 -7.3 2.3
      vertex 8.3 -7.3 2.3
    endloop
  endfacet
  facet normal 0 1 0
    outer loop
      vertex -8.3 -7.3 2.3
      vertex 8.3 -7.3 2.1
      vertex -8.3 -7.3 2.1
    endloop
  endfacet
  facet normal 1 -0 0
    outer loop
      vertex 8.3 -5.7 2.3
      vertex 8.3 -5.3 2.1
      vertex 8.3 -5.3 2.3
    endloop
  endfacet
  facet normal 1 0 0
    outer loop
      vertex 8.3 -5.3 2.1
      vertex 8.3 -5.7 2.3
      vertex 8.3 -5.7 2.1
    endloop
  endfacet
  facet normal -0 0 1
    outer loop
      vertex -8.3 -5.3 2.3
      vertex 8.3 -5.7 2.3
      vertex 8.3 -5.3 2.3
    endloop
  endfacet
  facet normal 0 0 1
    outer loop
      vertex 8.3 -5.7 2.3
      vertex -8.3 -5.3 2.3
      vertex -8.3 -5.7 2.3
    endloop
  endfacet
  facet normal 0 0 -1
    outer loop
      vertex -8.3 -5.7 2.1
      vertex 8.3 -5.3 2.1
      vertex 8.3 -5.7 2.1
    endloop
  endfacet
  facet normal -0 0 -1
    outer loop
      vertex 8.3 -5.3 2.1
      vertex -8.3 -5.7 2.1
      vertex -8.3 -5.3 2.1
    endloop
  endfacet
  facet normal -1 0 0
    outer loop
      vertex -8.3 -5.7 2.1
      vertex -8.3 -5.3 2.3
      vertex -8.3 -5.3 2.1
    endloop
  endfacet
  facet normal -1 -0 0
    outer loop
      vertex -8.3 -5.3 2.3
      vertex -8.3 -5.7 2.1
      vertex -8.3 -5.7 2.3
    endloop
  endfacet
  facet normal 0 1 -0
    outer loop
      vertex 8.3 -5.3 2.1
      vertex -8.3 -5.3 2.3
      vertex 8.3 -5.3 2.3
    endloop
  endfacet
  facet normal 0 1 0
    outer loop
      vertex -8.3 -5.3 2.3
      vertex 8.3 -5.3 2.1
      vertex -8.3 -5.3 2.1
    endloop
  endfacet
  facet normal 0 -1 0
    outer loop
      vertex -8.3 -5.7 2.1
      vertex 8.3 -5.7 2.3
      vertex -8.3 -5.7 2.3
    endloop
  endfacet
  facet normal 0 -1 -0
    outer loop
      vertex 8.3 -5.7 2.3
      vertex -8.3 -5.7 2.1
      vertex 8.3 -5.7 2.1
    endloop
  endfacet
  facet normal 1 -0 0
    outer loop
      vertex 8.3 -3.7 2.3
      vertex 8.3 -3.3 2.1
      vertex 8.3 -3.3 2.3
    endloop
  endfacet
  facet normal 1 0 0
    outer loop
      vertex 8.3 -3.3 2.1
      vertex 8.3 -3.7 2.3
      vertex 8.3 -3.7 2.1
    endloop
  endfacet
  facet normal -0 0 1
    outer loop
      vertex -8.3 -3.3 2.3
      vertex 8.3 -3.7 2.3
      vertex 8.3 -3.3 2.3
    endloop
  endfacet
  facet normal 0 0 1
    outer loop
      vertex 8.3 -3.7 2.3
      vertex -8.3 -3.3 2.3
      vertex -8.3 -3.7 2.3
    endloop
  endfacet
  facet normal 0 0 -1
    outer loop
      vertex -8.3 -3.7 2.1
      vertex 8.3 -3.3 2.1
      vertex 8.3 -3.7 2.1
    endloop
  endfacet
  facet normal -0 0 -1
    outer loop
      vertex 8.3 -3.3 2.1
      vertex -8.3 -3.7 2.1
      vertex -8.3 -3.3 2.1
    endloop
  endfacet
  facet normal -1 0 0
    outer loop
      vertex -8.3 -3.7 2.1
      vertex -8.3 -3.3 2.3
      vertex -8.3 -3.3 2.1
    endloop
  endfacet
  facet normal -1 -0 0
    outer loop
      vertex -8.3 -3.3 2.3
      vertex -8.3 -3.7 2.1
      vertex -8.3 -3.7 2.3
    endloop
  endfacet
  facet normal 0 1 -0
    outer loop
      vertex 8.3 -3.3 2.1
      vertex -8.3 -3.3 2.3
      vertex 8.3 -3.3 2.3
    endloop
  endfacet
  facet normal 0 1 0
    outer loop
      vertex -8.3 -3.3 2.3
      vertex 8.3 -3.3 2.1
      vertex -8.3 -3.3 2.1
    endloop
  endfacet
  facet normal 0 -1 0
    outer loop
      vertex -8.3 -3.7 2.1
      vertex 8.3 -3.7 2.3
      vertex -8.3 -3.7 2.3
    endloop
  endfacet
  facet normal 0 -1 -0
    outer loop
      vertex 8.3 -3.7 2.3
      vertex -8.3 -3.7 2.1
      vertex 8.3 -3.7 2.1
    endloop
  endfacet
  facet normal 1 -0 0
    outer loop
      vertex 8.3 -1.7 2.3
      vertex 8.3 -1.3 2.1
      vertex 8.3 -1.3 2.3
    endloop
  endfacet
  facet normal 1 0 0
    outer loop
      vertex 8.3 -1.3 2.1
      vertex 8.3 -1.7 2.3
      vertex 8.3 -1.7 2.1
    endloop
  endfacet
  facet normal -0 0 1
    outer loop
      vertex -8.3 -1.3 2.3
      vertex 8.3 -1.7 2.3
      vertex 8.3 -1.3 2.3
    endloop
  endfacet
  facet normal 0 0 1
    outer loop
      vertex 8.3 -1.7 2.3
      vertex -8.3 -1.3 2.3
      vertex -8.3 -1.7 2.3
    endloop
  endfacet
  facet normal 0 0 -1
    outer loop
      vertex -8.3 -1.7 2.1
      vertex 8.3 -1.3 2.1
      vertex 8.3 -1.7 2.1
    endloop
  endfacet
  facet normal -0 0 -1
    outer loop
      vertex 8.3 -1.3 2.1
      vertex -8.3 -1.7 2.1
      vertex -8.3 -1.3 2.1
    endloop
  endfacet
  facet normal -1 0 0
    outer loop
      vertex -8.3 -1.7 2.1
      vertex -8.3 -1.3 2.3
      vertex -8.3 -1.3 2.1
    endloop
  endfacet
  facet normal -1 -0 0
    outer loop
      vertex -8.3 -1.3 2.3
      vertex -8.3 -1.7 2.1
      vertex -8.3 -1.7 2.3
    endloop
  endfacet
  facet normal 0 1 -0
    outer loop
      vertex 8.3 -1.3 2.1
      vertex -8.3 -1.3 2.3
      vertex 8.3 -1.3 2.3
    endloop
  endfacet
  facet normal 0 1 0
    outer loop
      vertex -8.3 -1.3 2.3
      vertex 8.3 -1.3 2.1
      vertex -8.3 -1.3 2.1
    endloop
  endfacet
  facet normal 0 -1 0
    outer loop
      vertex -8.3 -1.7 2.1
      vertex 8.3 -1.7 2.3
      vertex -8.3 -1.7 2.3
    endloop
  endfacet
  facet normal 0 -1 -0
    outer loop
      vertex 8.3 -1.7 2.3
      vertex -8.3 -1.7 2.1
      vertex 8.3 -1.7 2.1
    endloop
  endfacet
  facet normal 1 -0 0
    outer loop
      vertex 8.3 0.3 2.3
      vertex 8.3 0.7 2.1
      vertex 8.3 0.7 2.3
    endloop
  endfacet
  facet normal 1 0 0
    outer loop
      vertex 8.3 0.7 2.1
      vertex 8.3 0.3 2.3
      vertex 8.3 0.3 2.1
    endloop
  endfacet
  facet normal -0 0 1
    outer loop
      vertex -8.3 0.7 2.3
      vertex 8.3 0.3 2.3
      vertex 8.3 0.7 2.3
    endloop
  endfacet
  facet normal 0 0 1
    outer loop
      vertex 8.3 0.3 2.3
      vertex -8.3 0.7 2.3
      vertex -8.3 0.3 2.3
    endloop
  endfacet
  facet normal 0 0 -1
    outer loop
      vertex -8.3 0.3 2.1
      vertex 8.3 0.7 2.1
      vertex 8.3 0.3 2.1
    endloop
  endfacet
  facet normal -0 0 -1
    outer loop
      vertex 8.3 0.7 2.1
      vertex -8.3 0.3 2.1
      vertex -8.3 0.7 2.1
    endloop
  endfacet
  facet normal -1 0 0
    outer loop
      vertex -8.3 0.3 2.1
      vertex -8.3 0.7 2.3
      vertex -8.3 0.7 2.1
    endloop
  endfacet
  facet normal -1 -0 0
    outer loop
      vertex -8.3 0.7 2.3
      vertex -8.3 0.3 2.1
      vertex -8.3 0.3 2.3
    endloop
  endfacet
  facet normal 0 1 -0
    outer loop
      vertex 8.3 0.7 2.1
      vertex -8.3 0.7 2.3
      vertex 8.3 0.7 2.3
    endloop
  endfacet
  facet normal 0 1 0
    outer loop
      vertex -8.3 0.7 2.3
      vertex 8.3 0.7 2.1
      vertex -8.3 0.7 2.1
    endloop
  endfacet
  facet normal 0 -1 0
    outer loop
      vertex -8.3 0.3 2.1
      vertex 8.3 0.3 2.3
      vertex -8.3 0.3 2.3
    endloop
  endfacet
  facet normal 0 -1 -0
    outer loop
      vertex 8.3 0.3 2.3
      vertex -8.3 0.3 2.1
      vertex 8.3 0.3 2.1
    endloop
  endfacet
  facet normal 1 -0 0
    outer loop
      vertex 8.3 2.3 2.3
      vertex 8.3 2.7 2.1
      vertex 8.3 2.7 2.3
    endloop
  endfacet
  facet normal 1 0 0
    outer loop
      vertex 8.3 2.7 2.1
      vertex 8.3 2.3 2.3
      vertex 8.3 2.3 2.1
    endloop
  endfacet
  facet normal -0 0 1
    outer loop
      vertex -8.3 2.7 2.3
      vertex 8.3 2.3 2.3
      vertex 8.3 2.7 2.3
    endloop
  endfacet
  facet normal 0 0 1
    outer loop
      vertex 8.3 2.3 2.3
      vertex -8.3 2.7 2.3
      vertex -8.3 2.3 2.3
    endloop
  endfacet
  facet normal 0 0 -1
    outer loop
      vertex -8.3 2.3 2.1
      vertex 8.3 2.7 2.1
      vertex 8.3 2.3 2.1
    endloop
  endfacet
  facet normal -0 0 -1
    outer loop
      vertex 8.3 2.7 2.1
      vertex -8.3 2.3 2.1
      vertex -8.3 2.7 2.1
    endloop
  endfacet
  facet normal -1 0 0
    outer loop
      vertex -8.3 2.3 2.1
      vertex -8.3 2.7 2.3
      vertex -8.3 2.7 2.1
    endloop
  endfacet
  facet normal -1 -0 0
    outer loop
      vertex -8.3 2.7 2.3
      vertex -8.3 2.3 2.1
      vertex -8.3 2.3 2.3
    endloop
  endfacet
  facet normal 0 1 -0
    outer loop
      vertex 8.3 2.7 2.1
      vertex -8.3 2.7 2.3
      vertex 8.3 2.7 2.3
    endloop
  endfacet
  facet normal 0 1 0
    outer loop
      vertex -8.3 2.7 2.3
      vertex 8.3 2.7 2.1
      vertex -8.3 2.7 2.1
    endloop
  endfacet
  facet normal 0 -1 0
    outer loop
      vertex -8.3 2.3 2.1
      vertex 8.3 2.3 2.3
      vertex -8.3 2.3 2.3
    endloop
  endfacet
  facet normal 0 -1 -0
    outer loop
      vertex 8.3 2.3 2.3
      vertex -8.3 2.3 2.1
      vertex 8.3 2.3 2.1
    endloop
  endfacet
  facet normal 1 -0 0
    outer loop
      vertex 8.3 4.3 2.3
      vertex 8.3 4.7 2.1
      vertex 8.3 4.7 2.3
    endloop
  endfacet
  facet normal 1 0 0
    outer loop
      vertex 8.3 4.7 2.1
      vertex 8.3 4.3 2.3
      vertex 8.3 4.3 2.1
    endloop
  endfacet
  facet normal -0 0 1
    outer loop
      vertex -8.3 4.7 2.3
      vertex 8.3 4.3 2.3
      vertex 8.3 4.7 2.3
    endloop
  endfacet
  facet normal 0 0 1
    outer loop
      vertex 8.3 4.3 2.3
      vertex -8.3 4.7 2.3
      vertex -8.3 4.3 2.3
    endloop
  endfacet
  facet normal 0 0 -1
    outer loop
      vertex -8.3 4.3 2.1
      vertex 8.3 4.7 2.1
      vertex 8.3 4.3 2.1
    endloop
  endfacet
  facet normal -0 0 -1
    outer loop
      vertex 8.3 4.7 2.1
      vertex -8.3 4.3 2.1
      vertex -8.3 4.7 2.1
    endloop
  endfacet
  facet normal -1 0 0
    outer loop
      vertex -8.3 4.3 2.1
      vertex -8.3 4.7 2.3
      vertex -8.3 4.7 2.1
    endloop
  endfacet
  facet normal -1 -0 0
    outer loop
      vertex -8.3 4.7 2.3
      vertex -8.3 4.3 2.1
      vertex -8.3 4.3 2.3
    endloop
  endfacet
  facet normal 0 1 -0
    outer loop
      vertex 8.3 4.7 2.1
      vertex -8.3 4.7 2.3
      vertex 8.3 4.7 2.3
    endloop
  endfacet
  facet normal 0 1 0
    outer loop
      vertex -8.3 4.7 2.3
      vertex 8.3 4.7 2.1
      vertex -8.3 4.7 2.1
    endloop
  endfacet
  facet normal 0 -1 0
    outer loop
      vertex -8.3 4.3 2.1
      vertex 8.3 4.3 2.3
      vertex -8.3 4.3 2.3
    endloop
  endfacet
  facet normal 0 -1 -0
    outer loop
      vertex 8.3 4.3 2.3
      vertex -8.3 4.3 2.1
      vertex 8.3 4.3 2.1
    endloop
  endfacet
  facet normal 1 -0 0
    outer loop
      vertex 8.3 6.3 2.3
      vertex 8.3 6.7 2.1
      vertex 8.3 6.7 2.3
    endloop
  endfacet
  facet normal 1 0 0
    outer loop
      vertex 8.3 6.7 2.1
      vertex 8.3 6.3 2.3
      vertex 8.3 6.3 2.1
    endloop
  endfacet
  facet normal -0 0 1
    outer loop
      vertex -8.3 6.7 2.3
      vertex 8.3 6.3 2.3
      vertex 8.3 6.7 2.3
    endloop
  endfacet
  facet normal 0 0 1
    outer loop
      vertex 8.3 6.3 2.3
      vertex -8.3 6.7 2.3
      vertex -8.3 6.3 2.3
    endloop
  endfacet
  facet normal 0 0 -1
    outer loop
      vertex -8.3 6.3 2.1
      vertex 8.3 6.7 2.1
      vertex 8.3 6.3 2.1
    endloop
  endfacet
  facet normal -0 0 -1
    outer loop
      vertex 8.3 6.7 2.1
      vertex -8.3 6.3 2.1
      vertex -8.3 6.7 2.1
    endloop
  endfacet
  facet normal -1 0 0
    outer loop
      vertex -8.3 6.3 2.1
      vertex -8.3 6.7 2.3
      vertex -8.3 6.7 2.1
    endloop
  endfacet
  facet normal -1 -0 0
    outer loop
      vertex -8.3 6.7 2.3
      vertex -8.3 6.3 2.1
      vertex -8.3 6.3 2.3
    endloop
  endfacet
  facet normal 0 1 -0
    outer loop
      vertex 8.3 6.7 2.1
      vertex -8.3 6.7 2.3
      vertex 8.3 6.7 2.3
    endloop
  endfacet
  facet normal 0 1 0
    outer loop
      vertex -8.3 6.7 2.3
      vertex 8.3 6.7 2.1
      vertex -8.3 6.7 2.1
    endloop
  endfacet
  facet normal 0 -1 0
    outer loop
      vertex -8.3 6.3 2.1
      vertex 8.3 6.3 2.3
      vertex -8.3 6.3 2.3
    endloop
  endfacet
  facet normal 0 -1 -0
    outer loop
      vertex 8.3 6.3 2.3
      vertex -8.3 6.3 2.1
      vertex 8.3 6.3 2.1
    endloop
  endfacet
  facet normal -0 0 1
    outer loop
      vertex -5.9 8.7 2.3
      vertex 1.9 8.3 2.3
      vertex 1.9 8.7 2.3
    endloop
  endfacet
  facet normal 0 0 1
    outer loop
      vertex 1.9 8.3 2.3
      vertex -5.9 8.7 2.3
      vertex -5.9 8.3 2.3
    endloop
  endfacet
  facet normal 0 0 -1
    outer loop
      vertex -5.9 8.3 2.1
      vertex 1.9 8.7 2.1
      vertex 1.9 8.3 2.1
    endloop
  endfacet
  facet normal -0 0 -1
    outer loop
      vertex 1.9 8.7 2.1
      vertex -5.9 8.3 2.1
      vertex -5.9 8.7 2.1
    endloop
  endfacet
  facet normal 0 1 -0
    outer loop
      vertex 1.9 8.7 2.1
      vertex -5.9 8.7 2.3
      vertex 1.9 8.7 2.3
    endloop
  endfacet
  facet normal 0 1 0
    outer loop
      vertex -5.9 8.7 2.3
      vertex 1.9 8.7 2.1
      vertex -5.9 8.7 2.1
    endloop
  endfacet
  facet normal 0 -1 0
    outer loop
      vertex -5.9 8.3 2.1
      vertex 1.9 8.3 2.3
      vertex -5.9 8.3 2.3
    endloop
  endfacet
  facet normal 0 -1 -0
    outer loop
      vertex 1.9 8.3 2.3
      vertex -5.9 8.3 2.1
      vertex 1.9 8.3 2.1
    endloop
  endfacet
  facet normal -0 0 1
    outer loop
      vertex -5.9 10.7 2.3
      vertex 1.9 10.3 2.3
      vertex 1.9 10.7 2.3
    endloop
  endfacet
  facet normal 0 0 1
    outer loop
      vertex 1.9 10.3 2.3
      vertex -5.9 10.7 2.3
      vertex -5.9 10.3 2.3
    endloop
  endfacet
  facet normal 0 0 -1
    outer loop
      vertex -5.9 10.3 2.1
      vertex 1.9 10.7 2.1
      vertex 1.9 10.3 2.1
    endloop
  endfacet
  facet normal -0 0 -1
    outer loop
      vertex 1.9 10.7 2.1
      vertex -5.9 10.3 2.1
      vertex -5.9 10.7 2.1
    endloop
  endfacet
  facet normal 0 1 -0
    outer loop
      vertex 1.9 10.7 2.1
      vertex -5.9 10.7 2.3
      vertex 1.9 10.7 2.3
    endloop
  endfacet
  facet normal 0 1 0
    outer loop
      vertex -5.9 10.7 2.3
      vertex 1.9 10.7 2.1
      vertex -5.9 10.7 2.1
    endloop
  endfacet
  facet normal 0 -1 0
    outer loop
      vertex -5.9 10.3 2.1
      vertex 1.9 10.3 2.3
      vertex -5.9 10.3 2.3
    endloop
  endfacet
  facet normal 0 -1 -0
    outer loop
      vertex 1.9 10.3 2.3
      vertex -5.9 10.3 2.1
      vertex 1.9 10.3 2.1
    endloop
  endfacet
  facet normal -0 0 1
    outer loop
      vertex -5.9 12.7 2.3
      vertex 1.9 12.3 2.3
      vertex 1.9 12.7 2.3
    endloop
  endfacet
  facet normal 0 0 1
    outer loop
      vertex 1.9 12.3 2.3
      vertex -5.9 12.7 2.3
      vertex -5.9 12.3 2.3
    endloop
  endfacet
  facet normal 0 0 -1
    outer loop
      vertex -5.9 12.3 2.1
      vertex 1.9 12.7 2.1
      vertex 1.9 12.3 2.1
    endloop
  endfacet
  facet normal -0 0 -1
    outer loop
      vertex 1.9 12.7 2.1
      vertex -5.9 12.3 2.1
      vertex -5.9 12.7 2.1
    endloop
  endfacet
  facet normal 0 1 -0
    outer loop
      vertex 1.9 12.7 2.1
      vertex -5.9 12.7 2.3
      vertex 1.9 12.7 2.3
    endloop
  endfacet
  facet normal 0 1 0
    outer loop
      vertex -5.9 12.7 2.3
      vertex 1.9 12.7 2.1
      vertex -5.9 12.7 2.1
    endloop
  endfacet
  facet normal 0 -1 0
    outer loop
      vertex -5.9 12.3 2.1
      vertex 1.9 12.3 2.3
      vertex -5.9 12.3 2.3
    endloop
  endfacet
  facet normal 0 -1 -0
    outer loop
      vertex 1.9 12.3 2.3
      vertex -5.9 12.3 2.1
      vertex 1.9 12.3 2.1
    endloop
  endfacet
  facet normal -0 0 1
    outer loop
      vertex -5.9 14.7 2.3
      vertex 1.9 14.3 2.3
      vertex 1.9 14.7 2.3
    endloop
  endfacet
  facet normal 0 0 1
    outer loop
      vertex 1.9 14.3 2.3
      vertex -5.9 14.7 2.3
      vertex -5.9 14.3 2.3
    endloop
  endfacet
  facet normal 0 0 -1
    outer loop
      vertex -5.9 14.3 2.1
      vertex 1.9 14.7 2.1
      vertex 1.9 14.3 2.1
    endloop
  endfacet
  facet normal -0 0 -1
    outer loop
      vertex 1.9 14.7 2.1
      vertex -5.9 14.3 2.1
      vertex -5.9 14.7 2.1
    endloop
  endfacet
  facet normal 0 1 -0
    outer loop
      vertex 1.9 14.7 2.1
      vertex -5.9 14.7 2.3
      vertex 1.9 14.7 2.3
    endloop
  endfacet
  facet normal 0 1 0
    outer loop
      vertex -5.9 14.7 2.3
      vertex 1.9 14.7 2.1
      vertex -5.9 14.7 2.1
    endloop
  endfacet
  facet normal 0 -1 0
    outer loop
      vertex -5.9 14.3 2.1
      vertex 1.9 14.3 2.3
      vertex -5.9 14.3 2.3
    endloop
  endfacet
  facet normal 0 -1 -0
    outer loop
      vertex 1.9 14.3 2.3
      vertex -5.9 14.3 2.1
      vertex 1.9 14.3 2.1
    endloop
  endfacet
  facet normal -0 0 1
    outer loop
      vertex -5.9 16.7 2.3
      vertex 0.9 16.3 2.3
      vertex 0.9 16.7 2.3
    endloop
  endfacet
  facet normal 0 0 1
    outer loop
      vertex 0.9 16.3 2.3
      vertex -5.9 16.7 2.3
      vertex -5.9 16.3 2.3
    endloop
  endfacet
  facet normal 0 0 -1
    outer loop
      vertex -5.9 16.3 2.1
      vertex 0.9 16.7 2.1
      vertex 0.9 16.3 2.1
    endloop
  endfacet
  facet normal -0 0 -1
    outer loop
      vertex 0.9 16.7 2.1
      vertex -5.9 16.3 2.1
      vertex -5.9 16.7 2.1
    endloop
  endfacet
  facet normal 0 1 -0
    outer loop
      vertex 0.9 16.7 2.1
      vertex -5.9 16.7 2.3
      vertex 0.9 16.7 2.3
    endloop
  endfacet
  facet normal 0 1 0
    outer loop
      vertex -5.9 16.7 2.3
      vertex 0.9 16.7 2.1
      vertex -5.9 16.7 2.1
    endloop
  endfacet
  facet normal 0 -1 0
    outer loop
      vertex -5.9 16.3 2.1
      vertex 0.9 16.3 2.3
      vertex -5.9 16.3 2.3
    endloop
  endfacet
  facet normal 0 -1 -0
    outer loop
      vertex 0.9 16.3 2.3
      vertex -5.9 16.3 2.1
      vertex 0.9 16.3 2.1
    endloop
  endfacet
  facet normal -0 0 1
    outer loop
      vertex -5.9 18.7 2.3
      vertex 0.9 18.3 2.3
      vertex 0.9 18.7 2.3
    endloop
  endfacet
  facet normal 0 0 1
    outer loop
      vertex 0.9 18.3 2.3
      vertex -5.9 18.7 2.3
      vertex -5.9 18.3 2.3
    endloop
  endfacet
  facet normal 0 0 -1
    outer loop
      vertex -5.9 18.3 2.1
      vertex 0.9 18.7 2.1
      vertex 0.9 18.3 2.1
    endloop
  endfacet
  facet normal -0 0 -1
    outer loop
      vertex 0.9 18.7 2.1
      vertex -5.9 18.3 2.1
      vertex -5.9 18.7 2.1
    endloop
  endfacet
  facet normal 0 1 -0
    outer loop
      vertex 0.9 18.7 2.1
      vertex -5.9 18.7 2.3
      vertex 0.9 18.7 2.3
    endloop
  endfacet
  facet normal 0 1 0
    outer loop
      vertex -5.9 18.7 2.3
      vertex 0.9 18.7 2.1
      vertex -5.9 18.7 2.1
    endloop
  endfacet
  facet normal 0 -1 0
    outer loop
      vertex -5.9 18.3 2.1
      vertex 0.9 18.3 2.3
      vertex -5.9 18.3 2.3
    endloop
  endfacet
  facet normal 0 -1 -0
    outer loop
      vertex 0.9 18.3 2.3
      vertex -5.9 18.3 2.1
      vertex 0.9 18.3 2.1
    endloop
  endfacet
  facet normal -0 0 1
    outer loop
      vertex -5.9 20.7 2.3
      vertex 0.9 20.3 2.3
      vertex 0.9 20.7 2.3
    endloop
  endfacet
  facet normal 0 0 1
    outer loop
      vertex 0.9 20.3 2.3
      vertex -5.9 20.7 2.3
      vertex -5.9 20.3 2.3
    endloop
  endfacet
  facet normal 0 0 -1
    outer loop
      vertex -5.9 20.3 2.1
      vertex 0.9 20.7 2.1
      vertex 0.9 20.3 2.1
    endloop
  endfacet
  facet normal -0 0 -1
    outer loop
      vertex 0.9 20.7 2.1
      vertex -5.9 20.3 2.1
      vertex -5.9 20.7 2.1
    endloop
  endfacet
  facet normal 0 1 -0
    outer loop
      vertex 0.9 20.7 2.1
      vertex -5.9 20.7 2.3
      vertex 0.9 20.7 2.3
    endloop
  endfacet
  facet normal 0 1 0
    outer loop
      vertex -5.9 20.7 2.3
      vertex 0.9 20.7 2.1
      vertex -5.9 20.7 2.1
    endloop
  endfacet
  facet normal 0 -1 0
    outer loop
      vertex -5.9 20.3 2.1
      vertex 0.9 20.3 2.3
      vertex -5.9 20.3 2.3
    endloop
  endfacet
  facet normal 0 -1 -0
    outer loop
      vertex 0.9 20.3 2.3
      vertex -5.9 20.3 2.1
      vertex 0.9 20.3 2.1
    endloop
  endfacet
  facet normal -0 0 1
    outer loop
      vertex -5.9 22.7 2.3
      vertex 0.9 22.3 2.3
      vertex 0.9 22.7 2.3
    endloop
  endfacet
  facet normal 0 0 1
    outer loop
      vertex 0.9 22.3 2.3
      vertex -5.9 22.7 2.3
      vertex -5.9 22.3 2.3
    endloop
  endfacet
  facet normal 0 0 -1
    outer loop
      vertex -5.9 22.3 2.1
      vertex 0.9 22.7 2.1
      vertex 0.9 22.3 2.1
    endloop
  endfacet
  facet normal -0 0 -1
    outer loop
      vertex 0.9 22.7 2.1
      vertex -5.9 22.3 2.1
      vertex -5.9 22.7 2.1
    endloop
  endfacet
  facet normal 0 1 -0
    outer loop
      vertex 0.9 22.7 2.1
      vertex -5.9 22.7 2.3
      vertex 0.9 22.7 2.3
    endloop
  endfacet
  facet normal 0 1 0
    outer loop
      vertex -5.9 22.7 2.3
      vertex 0.9 22.7 2.1
      vertex -5.9 22.7 2.1
    endloop
  endfacet
  facet normal 0 -1 0
    outer loop
      vertex -5.9 22.3 2.1
      vertex 0.9 22.3 2.3
      vertex -5.9 22.3 2.3
    endloop
  endfacet
  facet normal 0 -1 -0
    outer loop
      vertex 0.9 22.3 2.3
      vertex -5.9 22.3 2.1
      vertex 0.9 22.3 2.1
    endloop
  endfacet
  facet normal -0 0 1
    outer loop
      vertex -5.9 24.7 2.3
      vertex 0.9 24.3 2.3
      vertex 0.9 24.7 2.3
    endloop
  endfacet
  facet normal 0 0 1
    outer loop
      vertex 0.9 24.3 2.3
      vertex -5.9 24.7 2.3
      vertex -5.9 24.3 2.3
    endloop
  endfacet
  facet normal 0 0 -1
    outer loop
      vertex -5.9 24.3 2.1
      vertex 0.9 24.7 2.1
      vertex 0.9 24.3 2.1
    endloop
  endfacet
  facet normal -0 0 -1
    outer loop
      vertex 0.9 24.7 2.1
      vertex -5.9 24.3 2.1
      vertex -5.9 24.7 2.1
    endloop
  endfacet
  facet normal 0 1 -0
    outer loop
      vertex 0.9 24.7 2.1
      vertex -5.9 24.7 2.3
      vertex 0.9 24.7 2.3
    endloop
  endfacet
  facet normal 0 1 0
    outer loop
      vertex -5.9 24.7 2.3
      vertex 0.9 24.7 2.1
      vertex -5.9 24.7 2.1
    endloop
  endfacet
  facet normal 0 -1 0
    outer loop
      vertex -5.9 24.3 2.1
      vertex 0.9 24.3 2.3
      vertex -5.9 24.3 2.3
    endloop
  endfacet
  facet normal 0 -1 -0
    outer loop
      vertex 0.9 24.3 2.3
      vertex -5.9 24.3 2.1
      vertex 0.9 24.3 2.1
    endloop
  endfacet
  facet normal -0 0 1
    outer loop
      vertex -5.9 26.7 2.3
      vertex 0.9 26.3 2.3
      vertex 0.9 26.7 2.3
    endloop
  endfacet
  facet normal 0 0 1
    outer loop
      vertex 0.9 26.3 2.3
      vertex -5.9 26.7 2.3
      vertex -5.9 26.3 2.3
    endloop
  endfacet
  facet normal 0 0 -1
    outer loop
      vertex -5.9 26.3 2.1
      vertex 0.9 26.7 2.1
      vertex 0.9 26.3 2.1
    endloop
  endfacet
  facet normal -0 0 -1
    outer loop
      vertex 0.9 26.7 2.1
      vertex -5.9 26.3 2.1
      vertex -5.9 26.7 2.1
    endloop
  endfacet
  facet normal 0 1 -0
    outer loop
      vertex 0.9 26.7 2.1
      vertex -5.9 26.7 2.3
      vertex 0.9 26.7 2.3
    endloop
  endfacet
  facet normal 0 1 0
    outer loop
      vertex -5.9 26.7 2.3
      vertex 0.9 26.7 2.1
      vertex -5.9 26.7 2.1
    endloop
  endfacet
  facet normal 0 -1 0
    outer loop
      vertex -5.9 26.3 2.1
      vertex 0.9 26.3 2.3
      vertex -5.9 26.3 2.3
    endloop
  endfacet
  facet normal 0 -1 -0
    outer loop
      vertex 0.9 26.3 2.3
      vertex -5.9 26.3 2.1
      vertex 0.9 26.3 2.1
    endloop
  endfacet
  facet normal 1 -0 0
    outer loop
      vertex -7.9 -7.5 2.5
      vertex -7.9 7.5 2.3
      vertex -7.9 7.5 2.5
    endloop
  endfacet
  facet normal 1 0 0
    outer loop
      vertex -7.9 7.5 2.3
      vertex -7.9 -7.5 2.5
      vertex -7.9 -7.5 2.3
    endloop
  endfacet
  facet normal 0 0 -1
    outer loop
      vertex -8.3 -7.5 2.3
      vertex -7.9 7.5 2.3
      vertex -7.9 -7.5 2.3
    endloop
  endfacet
  facet normal -0 0 -1
    outer loop
      vertex -7.9 7.5 2.3
      vertex -8.3 -7.5 2.3
      vertex -8.3 7.5 2.3
    endloop
  endfacet
  facet normal -1 0 0
    outer loop
      vertex -8.3 -7.5 2.3
      vertex -8.3 7.5 2.5
      vertex -8.3 7.5 2.3
    endloop
  endfacet
  facet normal -1 -0 0
    outer loop
      vertex -8.3 7.5 2.5
      vertex -8.3 -7.5 2.3
      vertex -8.3 -7.5 2.5
    endloop
  endfacet
  facet normal 1 -0 0
    outer loop
      vertex -5.9 -7.5 2.5
      vertex -5.9 7.5 2.3
      vertex -5.9 7.5 2.5
    endloop
  endfacet
  facet normal 1 0 0
    outer loop
      vertex -5.9 7.5 2.3
      vertex -5.9 -7.5 2.5
      vertex -5.9 -7.5 2.3
    endloop
  endfacet
  facet normal 0 0 -1
    outer loop
      vertex -6.3 -7.5 2.3
      vertex -5.9 7.5 2.3
      vertex -5.9 -7.5 2.3
    endloop
  endfacet
  facet normal -0 0 -1
    outer loop
      vertex -5.9 7.5 2.3
      vertex -6.3 -7.5 2.3
      vertex -6.3 7.5 2.3
    endloop
  endfacet
  facet normal -1 0 0
    outer loop
      vertex -6.3 -7.5 2.3
      vertex -6.3 7.5 2.5
      vertex -6.3 7.5 2.3
    endloop
  endfacet
  facet normal -1 -0 0
    outer loop
      vertex -6.3 7.5 2.5
      vertex -6.3 -7.5 2.3
      vertex -6.3 -7.5 2.5
    endloop
  endfacet
  facet normal 1 -0 0
    outer loop
      vertex -3.9 -0.279021 2.5
      vertex -3.9 27.7 2.3
      vertex -3.9 27.7 2.5
    endloop
  endfacet
  facet normal 1 0 0
    outer loop
      vertex -3.9 -7.5 2.3
      vertex -3.9 -0.279021 2.5
      vertex -3.9 -4.92098 2.5
    endloop
  endfacet
  facet normal 1 0 0
    outer loop
      vertex -3.9 -7.5 2.3
      vertex -3.9 -4.92098 2.5
      vertex -3.9 -7.5 2.5
    endloop
  endfacet
  facet normal 1 0 0
    outer loop
      vertex -3.9 -0.279021 2.5
      vertex -3.9 -7.5 2.3
      vertex -3.9 27.7 2.3
    endloop
  endfacet
  facet normal 0 0 1
    outer loop
      vertex -4.3 -0.519681 2.5
      vertex -3.9 -0.279021 2.5
      vertex -3.95671 -0.2903 2.5
    endloop
  endfacet
  facet normal 0 0 1
    outer loop
      vertex -3.9 -0.279021 2.5
      vertex -4.3 -0.519681 2.5
      vertex -3.9 -4.92098 2.5
    endloop
  endfacet
  facet normal -0 0 1
    outer loop
      vertex -4.3 -4.68032 2.5
      vertex -3.9 -4.92098 2.5
      vertex -4.3 -0.519681 2.5
    endloop
  endfacet
  facet normal 0 0 1
    outer loop
      vertex -3.9 -4.92098 2.5
      vertex -4.3 -4.68032 2.5
      vertex -3.95671 -4.9097 2.5
    endloop
  endfacet
  facet normal 0 0 -1
    outer loop
      vertex -4.3 -7.5 2.3
      vertex -3.9 27.7 2.3
      vertex -3.9 -7.5 2.3
    endloop
  endfacet
  facet normal -0 0 -1
    outer loop
      vertex -3.9 27.7 2.3
      vertex -4.3 -7.5 2.3
      vertex -4.3 27.7 2.3
    endloop
  endfacet
  facet normal -1 0 0
    outer loop
      vertex -4.3 27.7 2.3
      vertex -4.3 -0.519681 2.5
      vertex -4.3 27.7 2.5
    endloop
  endfacet
  facet normal -1 0 0
    outer loop
      vertex -4.3 -7.5 2.3
      vertex -4.3 -0.519681 2.5
      vertex -4.3 27.7 2.3
    endloop
  endfacet
  facet normal -1 -0 0
    outer loop
      vertex -4.3 -0.519681 2.5
      vertex -4.3 -7.5 2.3
      vertex -4.3 -4.68032 2.5
    endloop
  endfacet
  facet normal -1 -0 0
    outer loop
      vertex -4.3 -4.68032 2.5
      vertex -4.3 -7.5 2.3
      vertex -4.3 -7.5 2.5
    endloop
  endfacet
  facet normal 0 1 -0
    outer loop
      vertex -3.9 27.7 2.3
      vertex -4.3 27.7 2.5
      vertex -3.9 27.7 2.5
    endloop
  endfacet
  facet normal 0 1 0
    outer loop
      vertex -4.3 27.7 2.5
      vertex -3.9 27.7 2.3
      vertex -4.3 27.7 2.3
    endloop
  endfacet
  facet normal 1 -0 0
    outer loop
      vertex -1.9 -0.386044 2.5
      vertex -1.9 27.7 2.3
      vertex -1.9 27.7 2.5
    endloop
  endfacet
  facet normal 1 0 0
    outer loop
      vertex -1.9 -7.5 2.3
      vertex -1.9 -0.386044 2.5
      vertex -1.9 -4.81395 2.5
    endloop
  endfacet
  facet normal 1 0 0
    outer loop
      vertex -1.9 -7.5 2.3
      vertex -1.9 -4.81395 2.5
      vertex -1.9 -7.5 2.5
    endloop
  endfacet
  facet normal 1 0 0
    outer loop
      vertex -1.9 -0.386044 2.5
      vertex -1.9 -7.5 2.3
      vertex -1.9 27.7 2.3
    endloop
  endfacet
  facet normal 0 0 1
    outer loop
      vertex -2.3 -0.239238 2.5
      vertex -1.9 -0.386044 2.5
      vertex -2.04329 -0.2903 2.5
    endloop
  endfacet
  facet normal 0 0 1
    outer loop
      vertex -1.9 -0.386044 2.5
      vertex -2.3 -0.239238 2.5
      vertex -1.9 -4.81395 2.5
    endloop
  endfacet
  facet normal 0 0 1
    outer loop
      vertex -2.3 -4.96076 2.5
      vertex -1.9 -4.81395 2.5
      vertex -2.3 -0.239238 2.5
    endloop
  endfacet
  facet normal 0 0 1
    outer loop
      vertex -1.9 -4.81395 2.5
      vertex -2.3 -4.96076 2.5
      vertex -2.04329 -4.9097 2.5
    endloop
  endfacet
  facet normal 0 0 -1
    outer loop
      vertex -2.3 -7.5 2.3
      vertex -1.9 27.7 2.3
      vertex -1.9 -7.5 2.3
    endloop
  endfacet
  facet normal -0 0 -1
    outer loop
      vertex -1.9 27.7 2.3
      vertex -2.3 -7.5 2.3
      vertex -2.3 27.7 2.3
    endloop
  endfacet
  facet normal -1 0 0
    outer loop
      vertex -2.3 27.7 2.3
      vertex -2.3 -0.239238 2.5
      vertex -2.3 27.7 2.5
    endloop
  endfacet
  facet normal -1 0 0
    outer loop
      vertex -2.3 -7.5 2.3
      vertex -2.3 -0.239238 2.5
      vertex -2.3 27.7 2.3
    endloop
  endfacet
  facet normal -1 -0 0
    outer loop
      vertex -2.3 -0.239238 2.5
      vertex -2.3 -7.5 2.3
      vertex -2.3 -4.96076 2.5
    endloop
  endfacet
  facet normal -1 -0 0
    outer loop
      vertex -2.3 -4.96076 2.5
      vertex -2.3 -7.5 2.3
      vertex -2.3 -7.5 2.5
    endloop
  endfacet
  facet normal 0 1 -0
    outer loop
      vertex -1.9 27.7 2.3
      vertex -2.3 27.7 2.5
      vertex -1.9 27.7 2.5
    endloop
  endfacet
  facet normal 0 1 0
    outer loop
      vertex -2.3 27.7 2.5
      vertex -1.9 27.7 2.3
      vertex -2.3 27.7 2.3
    endloop
  endfacet
  facet normal 1 -0 0
    outer loop
      vertex 0.0999996 -7.5 2.5
      vertex 0.0999996 27.7 2.3
      vertex 0.0999996 27.7 2.5
    endloop
  endfacet
  facet normal 1 0 0
    outer loop
      vertex 0.0999996 27.7 2.3
      vertex 0.0999996 -7.5 2.5
      vertex 0.0999996 -7.5 2.3
    endloop
  endfacet
  facet normal 0 0 -1
    outer loop
      vertex -0.3 -7.5 2.3
      vertex 0.0999996 27.7 2.3
      vertex 0.0999996 -7.5 2.3
    endloop
  endfacet
  facet normal -0 0 -1
    outer loop
      vertex 0.0999996 27.7 2.3
      vertex -0.3 -7.5 2.3
      vertex -0.3 27.7 2.3
    endloop
  endfacet
  facet normal -1 0 0
    outer loop
      vertex -0.3 -7.5 2.3
      vertex -0.3 27.7 2.5
      vertex -0.3 27.7 2.3
    endloop
  endfacet
  facet normal -1 -0 0
    outer loop
      vertex -0.3 27.7 2.5
      vertex -0.3 -7.5 2.3
      vertex -0.3 -7.5 2.5
    endloop
  endfacet
  facet normal 0 1 -0
    outer loop
      vertex 0.0999996 27.7 2.3
      vertex -0.3 27.7 2.5
      vertex 0.0999996 27.7 2.5
    endloop
  endfacet
  facet normal 0 1 0
    outer loop
      vertex -0.3 27.7 2.5
      vertex 0.0999996 27.7 2.3
      vertex -0.3 27.7 2.3
    endloop
  endfacet
  facet normal 1 -0 0
    outer loop
      vertex 2.1 -7.5 2.5
      vertex 2.1 7.5 2.3
      vertex 2.1 7.5 2.5
    endloop
  endfacet
  facet normal 1 0 0
    outer loop
      vertex 2.1 7.5 2.3
      vertex 2.1 -7.5 2.5
      vertex 2.1 -7.5 2.3
    endloop
  endfacet
  facet normal 0 0 -1
    outer loop
      vertex 2.1 -7.5 2.3
      vertex 1.9 7.5 2.3
      vertex 2.1 7.5 2.3
    endloop
  endfacet
  facet normal 0 0 -1
    outer loop
      vertex 1.7 -7.5 2.3
      vertex 1.9 7.5 2.3
      vertex 2.1 -7.5 2.3
    endloop
  endfacet
  facet normal 0 0 -1
    outer loop
      vertex 1.7 15 2.3
      vertex 1.9 7.5 2.3
      vertex 1.7 -7.5 2.3
    endloop
  endfacet
  facet normal 0 0 -1
    outer loop
      vertex 1.9 7.5 2.3
      vertex 1.7 15 2.3
      vertex 1.9 15 2.3
    endloop
  endfacet
  facet normal -1 0 0
    outer loop
      vertex 1.7 -7.5 2.3
      vertex 1.7 15 2.5
      vertex 1.7 15 2.3
    endloop
  endfacet
  facet normal -1 -0 0
    outer loop
      vertex 1.7 15 2.5
      vertex 1.7 -7.5 2.3
      vertex 1.7 -7.5 2.5
    endloop
  endfacet
  facet normal 1 -0 0
    outer loop
      vertex 4.1 -7.5 2.5
      vertex 4.1 7.5 2.3
      vertex 4.1 7.5 2.5
    endloop
  endfacet
  facet normal 1 0 0
    outer loop
      vertex 4.1 7.5 2.3
      vertex 4.1 -7.5 2.5
      vertex 4.1 -7.5 2.3
    endloop
  endfacet
  facet normal 0 0 -1
    outer loop
      vertex 3.7 -7.5 2.3
      vertex 4.1 7.5 2.3
      vertex 4.1 -7.5 2.3
    endloop
  endfacet
  facet normal -0 0 -1
    outer loop
      vertex 4.1 7.5 2.3
      vertex 3.7 -7.5 2.3
      vertex 3.7 7.5 2.3
    endloop
  endfacet
  facet normal -1 0 0
    outer loop
      vertex 3.7 -7.5 2.3
      vertex 3.7 7.5 2.5
      vertex 3.7 7.5 2.3
    endloop
  endfacet
  facet normal -1 -0 0
    outer loop
      vertex 3.7 7.5 2.5
      vertex 3.7 -7.5 2.3
      vertex 3.7 -7.5 2.5
    endloop
  endfacet
  facet normal 1 -0 0
    outer loop
      vertex 6.1 -7.5 2.5
      vertex 6.1 7.5 2.3
      vertex 6.1 7.5 2.5
    endloop
  endfacet
  facet normal 1 0 0
    outer loop
      vertex 6.1 7.5 2.3
      vertex 6.1 -7.5 2.5
      vertex 6.1 -7.5 2.3
    endloop
  endfacet
  facet normal 0 0 -1
    outer loop
      vertex 5.7 -7.5 2.3
      vertex 6.1 7.5 2.3
      vertex 6.1 -7.5 2.3
    endloop
  endfacet
  facet normal -0 0 -1
    outer loop
      vertex 6.1 7.5 2.3
      vertex 5.7 -7.5 2.3
      vertex 5.7 7.5 2.3
    endloop
  endfacet
  facet normal -1 0 0
    outer loop
      vertex 5.7 -7.5 2.3
      vertex 5.7 7.5 2.5
      vertex 5.7 7.5 2.3
    endloop
  endfacet
  facet normal -1 -0 0
    outer loop
      vertex 5.7 7.5 2.5
      vertex 5.7 -7.5 2.3
      vertex 5.7 -7.5 2.5
    endloop
  endfacet
  facet normal 1 -0 0
    outer loop
      vertex 8.1 -7.5 2.5
      vertex 8.1 7.5 2.3
      vertex 8.1 7.5 2.5
    endloop
  endfacet
  facet normal 1 0 0
    outer loop
      vertex 8.1 7.5 2.3
      vertex 8.1 -7.5 2.5
      vertex 8.1 -7.5 2.3
    endloop
  endfacet
  facet normal 0 0 -1
    outer loop
      vertex 7.7 -7.5 2.3
      vertex 8.1 7.5 2.3
      vertex 8.1 -7.5 2.3
    endloop
  endfacet
  facet normal -0 0 -1
    outer loop
      vertex 8.1 7.5 2.3
      vertex 7.7 -7.5 2.3
      vertex 7.7 7.5 2.3
    endloop
  endfacet
  facet normal -1 0 0
    outer loop
      vertex 7.7 -7.5 2.3
      vertex 7.7 7.5 2.5
      vertex 7.7 7.5 2.3
    endloop
  endfacet
  facet normal -1 -0 0
    outer loop
      vertex 7.7 7.5 2.5
      vertex 7.7 -7.5 2.3
      vertex 7.7 -7.5 2.5
    endloop
  endfacet
endsolid OpenSCAD_Model
