solid OpenSCAD_Model
  facet normal -0.816497 -4.40483e-08 0.57735
    outer loop
      vertex 0 0 16.4506
      vertex -10.2062 0 2.01688
      vertex -5.1031 -8.83883 9.23376
    endloop
  endfacet
  facet normal -0.408248 0.707107 -0.57735
    outer loop
      vertex 5.1031 8.83883 2.01688
      vertex -1.85 3.20429 0.0325887
      vertex -10.2062 0 2.01688
    endloop
  endfacet
  facet normal -0.408248 0.707107 -0.57735
    outer loop
      vertex -1.64419 3.30467 0.00999928
      vertex 5.1031 8.83883 2.01688
      vertex 3.68403 6.38092 0.00999928
    endloop
  endfacet
  facet normal -0.408248 0.707107 -0.57735
    outer loop
      vertex 5.1031 8.83883 2.01688
      vertex -1.64419 3.30467 0.00999928
      vertex -1.85 3.20429 0.0325887
    endloop
  endfacet
  facet normal -0.408248 0.707106 -0.577351
    outer loop
      vertex -2.03984 3.07625 0.00999928
      vertex -10.2062 0 2.01688
      vertex -1.85 3.20429 0.0325887
    endloop
  endfacet
  facet normal -0.408248 0.707107 -0.57735
    outer loop
      vertex -10.2062 0 2.01688
      vertex -2.03984 3.07625 0.00999928
      vertex -7.36805 0 0.00999928
    endloop
  endfacet
  facet normal -0.408248 -0.707107 -0.57735
    outer loop
      vertex -10.2062 0 2.01688
      vertex -1.85 -3.20429 0.0325887
      vertex 5.1031 -8.83883 2.01688
    endloop
  endfacet
  facet normal -0.408248 -0.707107 -0.57735
    outer loop
      vertex -2.03984 -3.07625 0.00999928
      vertex -10.2062 0 2.01688
      vertex -7.36805 0 0.00999928
    endloop
  endfacet
  facet normal -0.408248 -0.707106 -0.577351
    outer loop
      vertex -10.2062 0 2.01688
      vertex -2.03984 -3.07625 0.00999928
      vertex -1.85 -3.20429 0.0325887
    endloop
  endfacet
  facet normal -0.408248 -0.707107 -0.57735
    outer loop
      vertex -1.64419 -3.30467 0.00999928
      vertex 5.1031 -8.83883 2.01688
      vertex -1.85 -3.20429 0.0325887
    endloop
  endfacet
  facet normal -0.408248 -0.707107 -0.57735
    outer loop
      vertex 5.1031 -8.83883 2.01688
      vertex -1.64419 -3.30467 0.00999928
      vertex 3.68403 -6.38092 0.00999928
    endloop
  endfacet
  facet normal -0.816497 4.40483e-08 0.57735
    outer loop
      vertex -5.1031 8.83883 9.23376
      vertex -10.2062 0 2.01688
      vertex 0 0 16.4506
    endloop
  endfacet
  facet normal 0.816497 5.57187e-08 -0.57735
    outer loop
      vertex 10.2062 0 9.23376
      vertex 3.68403 6.38092 0.00999928
      vertex 5.1031 8.83883 2.01688
    endloop
  endfacet
  facet normal 0.816497 3.16406e-08 -0.57735
    outer loop
      vertex 3.68403 6.38092 0.00999928
      vertex 10.2062 0 9.23376
      vertex 3.68403 0.228438 0.00999928
    endloop
  endfacet
  facet normal 0.816497 1.26769e-07 -0.57735
    outer loop
      vertex 3.68403 0.228438 0.00999928
      vertex 10.2062 0 9.23376
      vertex 3.7 0 0.0325903
    endloop
  endfacet
  facet normal 0.408248 -0.707107 0.57735
    outer loop
      vertex 10.2062 0 9.23376
      vertex 0 0 16.4506
      vertex 5.1031 -8.83883 2.01688
    endloop
  endfacet
  facet normal 0.408248 0.707107 0.57735
    outer loop
      vertex 5.1031 8.83883 2.01688
      vertex 0 0 16.4506
      vertex 10.2062 0 9.23376
    endloop
  endfacet
  facet normal 0.816497 -1.26769e-07 -0.57735
    outer loop
      vertex 10.2062 0 9.23376
      vertex 3.68403 -0.228438 0.00999928
      vertex 3.7 0 0.0325903
    endloop
  endfacet
  facet normal 0.816497 -3.16406e-08 -0.57735
    outer loop
      vertex 10.2062 0 9.23376
      vertex 3.68403 -6.38092 0.00999928
      vertex 3.68403 -0.228438 0.00999928
    endloop
  endfacet
  facet normal 0.816497 -5.57187e-08 -0.57735
    outer loop
      vertex 3.68403 -6.38092 0.00999928
      vertex 10.2062 0 9.23376
      vertex 5.1031 -8.83883 2.01688
    endloop
  endfacet
  facet normal 0.408248 0.707107 0.57735
    outer loop
      vertex 5.1031 8.83883 2.01688
      vertex -5.1031 8.83883 9.23376
      vertex 0 0 16.4506
    endloop
  endfacet
  facet normal -0.408248 0.707107 -0.57735
    outer loop
      vertex 5.1031 8.83883 2.01688
      vertex -10.2062 0 2.01688
      vertex -5.1031 8.83883 9.23376
    endloop
  endfacet
  facet normal 0.408248 -0.707107 0.57735
    outer loop
      vertex 0 0 16.4506
      vertex -5.1031 -8.83883 9.23376
      vertex 5.1031 -8.83883 2.01688
    endloop
  endfacet
  facet normal -0.408248 -0.707107 -0.57735
    outer loop
      vertex -5.1031 -8.83883 9.23376
      vertex -10.2062 0 2.01688
      vertex 5.1031 -8.83883 2.01688
    endloop
  endfacet
  facet normal -0.997564 -0.0697578 1.84584e-06
    outer loop
      vertex 3.7 0 0.0325903
      vertex 3.66399 0.51494 0.00999928
      vertex 3.68403 0.228438 0.00999928
    endloop
  endfacet
  facet normal -0.997564 -0.0697578 0
    outer loop
      vertex 3.66399 0.51494 0.00999928
      vertex 3.7 0 0.0325903
      vertex 3.66399 0.51494 10
    endloop
  endfacet
  facet normal -0.997564 -0.0697578 0
    outer loop
      vertex 3.66399 0.51494 10
      vertex 3.7 0 0.0325903
      vertex 3.7 0 10
    endloop
  endfacet
  facet normal 1 -0 0
    outer loop
      vertex -3.69099 -0.258099 10
      vertex -3.69099 0.258099 0.00999928
      vertex -3.69099 0.258099 10
    endloop
  endfacet
  facet normal 1 0 0
    outer loop
      vertex -3.69099 0.258099 0.00999928
      vertex -3.69099 -0.258099 10
      vertex -3.69099 -0.258099 0.00999928
    endloop
  endfacet
  facet normal 0.0348993 -0.999391 0
    outer loop
      vertex -0.386755 3.67973 0.00999928
      vertex 0.129128 3.69775 10
      vertex -0.386755 3.67973 10
    endloop
  endfacet
  facet normal 0.0348993 -0.999391 0
    outer loop
      vertex 0.129128 3.69775 10
      vertex -0.386755 3.67973 0.00999928
      vertex 0.129128 3.69775 0.00999928
    endloop
  endfacet
  facet normal -0.104528 0.994522 0
    outer loop
      vertex 0.642498 -3.64379 0.00999928
      vertex 0.129128 -3.69775 10
      vertex 0.642498 -3.64379 10
    endloop
  endfacet
  facet normal -0.104528 0.994522 0
    outer loop
      vertex 0.129128 -3.69775 10
      vertex 0.642498 -3.64379 0.00999928
      vertex 0.129128 -3.69775 0.00999928
    endloop
  endfacet
  facet normal -0.719339 -0.694659 0
    outer loop
      vertex 2.83436 2.37831 0.00999928
      vertex 2.47578 2.74964 10
      vertex 2.47578 2.74964 0.00999928
    endloop
  endfacet
  facet normal -0.719339 -0.694659 0
    outer loop
      vertex 2.47578 2.74964 10
      vertex 2.83436 2.37831 0.00999928
      vertex 2.83436 2.37831 10
    endloop
  endfacet
  facet normal 0.66913 -0.743145 0
    outer loop
      vertex -2.66156 2.57024 0.00999928
      vertex -2.27795 2.91564 10
      vertex -2.66156 2.57024 10
    endloop
  endfacet
  facet normal 0.66913 -0.743145 0
    outer loop
      vertex -2.27795 2.91564 10
      vertex -2.66156 2.57024 0.00999928
      vertex -2.27795 2.91564 0.00999928
    endloop
  endfacet
  facet normal 0.309016 -0.951057 0
    outer loop
      vertex -1.38604 3.43058 0.00999928
      vertex -0.89511 3.59009 10
      vertex -1.38604 3.43058 10
    endloop
  endfacet
  facet normal 0.309016 -0.951057 0
    outer loop
      vertex -0.89511 3.59009 10
      vertex -1.38604 3.43058 0.00999928
      vertex -0.89511 3.59009 0.00999928
    endloop
  endfacet
  facet normal -0.939693 0.34202 0
    outer loop
      vertex 3.38012 -1.50492 0.00999928
      vertex 3.55667 -1.01986 10
      vertex 3.55667 -1.01986 0.00999928
    endloop
  endfacet
  facet normal -0.939693 0.34202 0
    outer loop
      vertex 3.55667 -1.01986 10
      vertex 3.38012 -1.50492 0.00999928
      vertex 3.38012 -1.50492 10
    endloop
  endfacet
  facet normal -0.882948 -0.469471 0
    outer loop
      vertex 3.38012 1.50492 0.00999928
      vertex 3.13778 1.9607 10
      vertex 3.13778 1.9607 0.00999928
    endloop
  endfacet
  facet normal -0.882948 -0.469471 0
    outer loop
      vertex 3.13778 1.9607 10
      vertex 3.38012 1.50492 0.00999928
      vertex 3.38012 1.50492 10
    endloop
  endfacet
  facet normal -0.809017 -0.587785 0
    outer loop
      vertex 3.13778 1.9607 0.00999928
      vertex 2.83436 2.37831 10
      vertex 2.83436 2.37831 0.00999928
    endloop
  endfacet
  facet normal -0.809017 -0.587785 0
    outer loop
      vertex 2.83436 2.37831 10
      vertex 3.13778 1.9607 0.00999928
      vertex 3.13778 1.9607 10
    endloop
  endfacet
  facet normal -0.374606 -0.927184 0
    outer loop
      vertex 1.14336 3.51891 0.00999928
      vertex 1.62197 3.32554 10
      vertex 1.14336 3.51891 10
    endloop
  endfacet
  facet normal -0.374606 -0.927184 -0
    outer loop
      vertex 1.62197 3.32554 10
      vertex 1.14336 3.51891 0.00999928
      vertex 1.62197 3.32554 0.00999928
    endloop
  endfacet
  facet normal -0.241923 -0.970296 0
    outer loop
      vertex 0.642498 3.64379 0.00999928
      vertex 1.14336 3.51891 10
      vertex 0.642498 3.64379 10
    endloop
  endfacet
  facet normal -0.241923 -0.970296 -0
    outer loop
      vertex 1.14336 3.51891 10
      vertex 0.642498 3.64379 0.00999928
      vertex 1.14336 3.51891 0.00999928
    endloop
  endfacet
  facet normal -0.500001 -0.866025 0
    outer loop
      vertex 1.62197 3.32554 0.00999928
      vertex 2.06901 3.06744 10
      vertex 1.62197 3.32554 10
    endloop
  endfacet
  facet normal -0.500001 -0.866025 -0
    outer loop
      vertex 2.06901 3.06744 10
      vertex 1.62197 3.32554 0.00999928
      vertex 2.06901 3.06744 0.00999928
    endloop
  endfacet
  facet normal 0.913546 -0.406736 0
    outer loop
      vertex -3.47686 1.26547 10
      vertex -3.26691 1.73704 0.00999928
      vertex -3.26691 1.73704 10
    endloop
  endfacet
  facet normal 0.913546 -0.406736 0
    outer loop
      vertex -3.26691 1.73704 0.00999928
      vertex -3.47686 1.26547 10
      vertex -3.47686 1.26547 0.00999928
    endloop
  endfacet
  facet normal 0 0 -1
    outer loop
      vertex 3.66399 -0.51494 10
      vertex 3.66399 0.51494 10
      vertex 3.7 0 10
    endloop
  endfacet
  facet normal 0 0 -1
    outer loop
      vertex 3.55667 -1.01986 10
      vertex 3.66399 0.51494 10
      vertex 3.66399 -0.51494 10
    endloop
  endfacet
  facet normal 0 0 -1
    outer loop
      vertex 3.55667 -1.01986 10
      vertex 3.55667 1.01986 10
      vertex 3.66399 0.51494 10
    endloop
  endfacet
  facet normal 0 0 -1
    outer loop
      vertex 3.38012 -1.50492 10
      vertex 3.55667 1.01986 10
      vertex 3.55667 -1.01986 10
    endloop
  endfacet
  facet normal 0 0 -1
    outer loop
      vertex 3.38012 -1.50492 10
      vertex 3.38012 1.50492 10
      vertex 3.55667 1.01986 10
    endloop
  endfacet
  facet normal 0 0 -1
    outer loop
      vertex 3.13778 -1.9607 10
      vertex 3.38012 1.50492 10
      vertex 3.38012 -1.50492 10
    endloop
  endfacet
  facet normal 0 0 -1
    outer loop
      vertex 3.13778 -1.9607 10
      vertex 3.13778 1.9607 10
      vertex 3.38012 1.50492 10
    endloop
  endfacet
  facet normal 0 0 -1
    outer loop
      vertex 2.83436 -2.37831 10
      vertex 3.13778 1.9607 10
      vertex 3.13778 -1.9607 10
    endloop
  endfacet
  facet normal 0 0 -1
    outer loop
      vertex 2.83436 -2.37831 10
      vertex 2.83436 2.37831 10
      vertex 3.13778 1.9607 10
    endloop
  endfacet
  facet normal 0 0 -1
    outer loop
      vertex 2.47578 -2.74964 10
      vertex 2.83436 2.37831 10
      vertex 2.83436 -2.37831 10
    endloop
  endfacet
  facet normal 0 0 -1
    outer loop
      vertex 2.47578 -2.74964 10
      vertex 2.47578 2.74964 10
      vertex 2.83436 2.37831 10
    endloop
  endfacet
  facet normal 0 0 -1
    outer loop
      vertex 2.06901 -3.06744 10
      vertex 2.47578 2.74964 10
      vertex 2.47578 -2.74964 10
    endloop
  endfacet
  facet normal 0 0 -1
    outer loop
      vertex 2.06901 -3.06744 10
      vertex 2.06901 3.06744 10
      vertex 2.47578 2.74964 10
    endloop
  endfacet
  facet normal 0 0 -1
    outer loop
      vertex 1.62197 -3.32554 10
      vertex 2.06901 3.06744 10
      vertex 2.06901 -3.06744 10
    endloop
  endfacet
  facet normal 0 0 -1
    outer loop
      vertex 1.62197 -3.32554 10
      vertex 1.62197 3.32554 10
      vertex 2.06901 3.06744 10
    endloop
  endfacet
  facet normal 0 0 -1
    outer loop
      vertex 1.14336 -3.51891 10
      vertex 1.62197 3.32554 10
      vertex 1.62197 -3.32554 10
    endloop
  endfacet
  facet normal 0 0 -1
    outer loop
      vertex 1.14336 -3.51891 10
      vertex 1.14336 3.51891 10
      vertex 1.62197 3.32554 10
    endloop
  endfacet
  facet normal 0 0 -1
    outer loop
      vertex 0.642498 -3.64379 10
      vertex 1.14336 3.51891 10
      vertex 1.14336 -3.51891 10
    endloop
  endfacet
  facet normal 0 0 -1
    outer loop
      vertex 0.642498 -3.64379 10
      vertex 0.642498 3.64379 10
      vertex 1.14336 3.51891 10
    endloop
  endfacet
  facet normal 0 0 -1
    outer loop
      vertex 0.129128 -3.69775 10
      vertex 0.642498 3.64379 10
      vertex 0.642498 -3.64379 10
    endloop
  endfacet
  facet normal 0 0 -1
    outer loop
      vertex 0.129128 -3.69775 10
      vertex 0.129128 3.69775 10
      vertex 0.642498 3.64379 10
    endloop
  endfacet
  facet normal 0 0 -1
    outer loop
      vertex -0.386755 -3.67973 10
      vertex 0.129128 3.69775 10
      vertex 0.129128 -3.69775 10
    endloop
  endfacet
  facet normal 0 0 -1
    outer loop
      vertex -0.386755 -3.67973 10
      vertex -0.386755 3.67973 10
      vertex 0.129128 3.69775 10
    endloop
  endfacet
  facet normal 0 0 -1
    outer loop
      vertex -0.89511 -3.59009 10
      vertex -0.386755 3.67973 10
      vertex -0.386755 -3.67973 10
    endloop
  endfacet
  facet normal 0 0 -1
    outer loop
      vertex -0.89511 -3.59009 10
      vertex -0.89511 3.59009 10
      vertex -0.386755 3.67973 10
    endloop
  endfacet
  facet normal 0 0 -1
    outer loop
      vertex -1.38604 -3.43058 10
      vertex -0.89511 3.59009 10
      vertex -0.89511 -3.59009 10
    endloop
  endfacet
  facet normal 0 0 -1
    outer loop
      vertex -1.38604 -3.43058 10
      vertex -1.38604 3.43058 10
      vertex -0.89511 3.59009 10
    endloop
  endfacet
  facet normal 0 0 -1
    outer loop
      vertex -1.85 -3.20429 10
      vertex -1.38604 3.43058 10
      vertex -1.38604 -3.43058 10
    endloop
  endfacet
  facet normal 0 0 -1
    outer loop
      vertex -1.85 -3.20429 10
      vertex -1.85 3.20429 10
      vertex -1.38604 3.43058 10
    endloop
  endfacet
  facet normal 0 0 -1
    outer loop
      vertex -2.27795 -2.91564 10
      vertex -1.85 3.20429 10
      vertex -1.85 -3.20429 10
    endloop
  endfacet
  facet normal 0 0 -1
    outer loop
      vertex -2.27795 -2.91564 10
      vertex -2.27795 2.91564 10
      vertex -1.85 3.20429 10
    endloop
  endfacet
  facet normal 0 0 -1
    outer loop
      vertex -2.66156 -2.57024 10
      vertex -2.27795 2.91564 10
      vertex -2.27795 -2.91564 10
    endloop
  endfacet
  facet normal 0 0 -1
    outer loop
      vertex -2.66156 -2.57024 10
      vertex -2.66156 2.57024 10
      vertex -2.27795 2.91564 10
    endloop
  endfacet
  facet normal 0 0 -1
    outer loop
      vertex -2.99336 -2.1748 10
      vertex -2.66156 2.57024 10
      vertex -2.66156 -2.57024 10
    endloop
  endfacet
  facet normal 0 0 -1
    outer loop
      vertex -2.99336 -2.1748 10
      vertex -2.99336 2.1748 10
      vertex -2.66156 2.57024 10
    endloop
  endfacet
  facet normal 0 0 -1
    outer loop
      vertex -3.26691 -1.73704 10
      vertex -2.99336 2.1748 10
      vertex -2.99336 -2.1748 10
    endloop
  endfacet
  facet normal 0 0 -1
    outer loop
      vertex -3.26691 -1.73704 10
      vertex -3.26691 1.73704 10
      vertex -2.99336 2.1748 10
    endloop
  endfacet
  facet normal 0 0 -1
    outer loop
      vertex -3.47686 -1.26547 10
      vertex -3.26691 1.73704 10
      vertex -3.26691 -1.73704 10
    endloop
  endfacet
  facet normal 0 0 -1
    outer loop
      vertex -3.47686 -1.26547 10
      vertex -3.47686 1.26547 10
      vertex -3.26691 1.73704 10
    endloop
  endfacet
  facet normal 0 0 -1
    outer loop
      vertex -3.61915 -0.769273 10
      vertex -3.47686 1.26547 10
      vertex -3.47686 -1.26547 10
    endloop
  endfacet
  facet normal 0 0 -1
    outer loop
      vertex -3.61915 -0.769273 10
      vertex -3.61915 0.769273 10
      vertex -3.47686 1.26547 10
    endloop
  endfacet
  facet normal 0 0 -1
    outer loop
      vertex -3.69099 -0.258099 10
      vertex -3.61915 0.769273 10
      vertex -3.61915 -0.769273 10
    endloop
  endfacet
  facet normal 0 0 -1
    outer loop
      vertex -3.61915 0.769273 10
      vertex -3.69099 -0.258099 10
      vertex -3.69099 0.258099 10
    endloop
  endfacet
  facet normal 0.173648 -0.984808 0
    outer loop
      vertex -0.89511 3.59009 0.00999928
      vertex -0.386755 3.67973 10
      vertex -0.89511 3.59009 10
    endloop
  endfacet
  facet normal 0.173648 -0.984808 0
    outer loop
      vertex -0.386755 3.67973 10
      vertex -0.89511 3.59009 0.00999928
      vertex -0.386755 3.67973 0.00999928
    endloop
  endfacet
  facet normal -0.939693 -0.34202 0
    outer loop
      vertex 3.55667 1.01986 0.00999928
      vertex 3.38012 1.50492 10
      vertex 3.38012 1.50492 0.00999928
    endloop
  endfacet
  facet normal -0.939693 -0.34202 0
    outer loop
      vertex 3.38012 1.50492 10
      vertex 3.55667 1.01986 0.00999928
      vertex 3.55667 1.01986 10
    endloop
  endfacet
  facet normal -0.978148 -0.207912 0
    outer loop
      vertex 3.66399 0.51494 0.00999928
      vertex 3.55667 1.01986 10
      vertex 3.55667 1.01986 0.00999928
    endloop
  endfacet
  facet normal -0.978148 -0.207912 0
    outer loop
      vertex 3.55667 1.01986 10
      vertex 3.66399 0.51494 0.00999928
      vertex 3.66399 0.51494 10
    endloop
  endfacet
  facet normal -0.104528 -0.994522 0
    outer loop
      vertex 0.129128 3.69775 0.00999928
      vertex 0.642498 3.64379 10
      vertex 0.129128 3.69775 10
    endloop
  endfacet
  facet normal -0.104528 -0.994522 -0
    outer loop
      vertex 0.642498 3.64379 10
      vertex 0.129128 3.69775 0.00999928
      vertex 0.642498 3.64379 0.00999928
    endloop
  endfacet
  facet normal -0.615661 -0.788011 0
    outer loop
      vertex 2.06901 3.06744 0.00999928
      vertex 2.47578 2.74964 10
      vertex 2.06901 3.06744 10
    endloop
  endfacet
  facet normal -0.615661 -0.788011 -0
    outer loop
      vertex 2.47578 2.74964 10
      vertex 2.06901 3.06744 0.00999928
      vertex 2.47578 2.74964 0.00999928
    endloop
  endfacet
  facet normal 0.848048 -0.52992 0
    outer loop
      vertex -3.26691 1.73704 10
      vertex -2.99336 2.1748 0.00999928
      vertex -2.99336 2.1748 10
    endloop
  endfacet
  facet normal 0.848048 -0.52992 0
    outer loop
      vertex -2.99336 2.1748 0.00999928
      vertex -3.26691 1.73704 10
      vertex -3.26691 1.73704 0.00999928
    endloop
  endfacet
  facet normal 0.766045 -0.642787 0
    outer loop
      vertex -2.99336 2.1748 10
      vertex -2.66156 2.57024 0.00999928
      vertex -2.66156 2.57024 10
    endloop
  endfacet
  facet normal 0.766045 -0.642787 0
    outer loop
      vertex -2.66156 2.57024 0.00999928
      vertex -2.99336 2.1748 10
      vertex -2.99336 2.1748 0.00999928
    endloop
  endfacet
  facet normal 0.961262 -0.275637 0
    outer loop
      vertex -3.61915 0.769273 10
      vertex -3.47686 1.26547 0.00999928
      vertex -3.47686 1.26547 10
    endloop
  endfacet
  facet normal 0.961262 -0.275637 0
    outer loop
      vertex -3.47686 1.26547 0.00999928
      vertex -3.61915 0.769273 10
      vertex -3.61915 0.769273 0.00999928
    endloop
  endfacet
  facet normal 0.990268 -0.139174 0
    outer loop
      vertex -3.69099 0.258099 10
      vertex -3.61915 0.769273 0.00999928
      vertex -3.61915 0.769273 10
    endloop
  endfacet
  facet normal 0.990268 -0.139174 0
    outer loop
      vertex -3.61915 0.769273 0.00999928
      vertex -3.69099 0.258099 10
      vertex -3.69099 0.258099 0.00999928
    endloop
  endfacet
  facet normal 0.438372 -0.898794 0
    outer loop
      vertex -1.85 3.20429 0.0325887
      vertex -1.38604 3.43058 10
      vertex -1.85 3.20429 10
    endloop
  endfacet
  facet normal 0.438372 -0.898794 -1.01501e-06
    outer loop
      vertex -1.38604 3.43058 0.00999928
      vertex -1.85 3.20429 0.0325887
      vertex -1.64419 3.30467 0.00999928
    endloop
  endfacet
  facet normal 0.438372 -0.898794 0
    outer loop
      vertex -1.85 3.20429 0.0325887
      vertex -1.38604 3.43058 0.00999928
      vertex -1.38604 3.43058 10
    endloop
  endfacet
  facet normal 0.559193 -0.829038 0
    outer loop
      vertex -2.27795 2.91564 10
      vertex -1.85 3.20429 0.0325887
      vertex -1.85 3.20429 10
    endloop
  endfacet
  facet normal 0.559193 -0.829038 0
    outer loop
      vertex -2.27795 2.91564 0.00999928
      vertex -1.85 3.20429 0.0325887
      vertex -2.27795 2.91564 10
    endloop
  endfacet
  facet normal 0.559192 -0.829038 7.2879e-06
    outer loop
      vertex -1.85 3.20429 0.0325887
      vertex -2.27795 2.91564 0.00999928
      vertex -2.03984 3.07625 0.00999928
    endloop
  endfacet
  facet normal -0.997564 0.0697578 1.84584e-06
    outer loop
      vertex 3.66399 -0.51494 0.00999928
      vertex 3.7 0 0.0325903
      vertex 3.68403 -0.228438 0.00999928
    endloop
  endfacet
  facet normal -0.997564 0.0697578 0
    outer loop
      vertex 3.7 0 0.0325903
      vertex 3.66399 -0.51494 0.00999928
      vertex 3.66399 -0.51494 10
    endloop
  endfacet
  facet normal -0.997564 0.0697578 0
    outer loop
      vertex 3.7 0 0.0325903
      vertex 3.66399 -0.51494 10
      vertex 3.7 0 10
    endloop
  endfacet
  facet normal -0.809017 0.587785 0
    outer loop
      vertex 2.83436 -2.37831 0.00999928
      vertex 3.13778 -1.9607 10
      vertex 3.13778 -1.9607 0.00999928
    endloop
  endfacet
  facet normal -0.809017 0.587785 0
    outer loop
      vertex 3.13778 -1.9607 10
      vertex 2.83436 -2.37831 0.00999928
      vertex 2.83436 -2.37831 10
    endloop
  endfacet
  facet normal -0.978148 0.207912 0
    outer loop
      vertex 3.55667 -1.01986 0.00999928
      vertex 3.66399 -0.51494 10
      vertex 3.66399 -0.51494 0.00999928
    endloop
  endfacet
  facet normal -0.978148 0.207912 0
    outer loop
      vertex 3.66399 -0.51494 10
      vertex 3.55667 -1.01986 0.00999928
      vertex 3.55667 -1.01986 10
    endloop
  endfacet
  facet normal -0.241923 0.970296 0
    outer loop
      vertex 1.14336 -3.51891 0.00999928
      vertex 0.642498 -3.64379 10
      vertex 1.14336 -3.51891 10
    endloop
  endfacet
  facet normal -0.241923 0.970296 0
    outer loop
      vertex 0.642498 -3.64379 10
      vertex 1.14336 -3.51891 0.00999928
      vertex 0.642498 -3.64379 0.00999928
    endloop
  endfacet
  facet normal -0.500001 0.866025 0
    outer loop
      vertex 2.06901 -3.06744 0.00999928
      vertex 1.62197 -3.32554 10
      vertex 2.06901 -3.06744 10
    endloop
  endfacet
  facet normal -0.500001 0.866025 0
    outer loop
      vertex 1.62197 -3.32554 10
      vertex 2.06901 -3.06744 0.00999928
      vertex 1.62197 -3.32554 0.00999928
    endloop
  endfacet
  facet normal -0.882948 0.469471 0
    outer loop
      vertex 3.13778 -1.9607 0.00999928
      vertex 3.38012 -1.50492 10
      vertex 3.38012 -1.50492 0.00999928
    endloop
  endfacet
  facet normal -0.882948 0.469471 0
    outer loop
      vertex 3.38012 -1.50492 10
      vertex 3.13778 -1.9607 0.00999928
      vertex 3.13778 -1.9607 10
    endloop
  endfacet
  facet normal 0.66913 0.743145 -0
    outer loop
      vertex -2.27795 -2.91564 0.00999928
      vertex -2.66156 -2.57024 10
      vertex -2.27795 -2.91564 10
    endloop
  endfacet
  facet normal 0.66913 0.743145 0
    outer loop
      vertex -2.66156 -2.57024 10
      vertex -2.27795 -2.91564 0.00999928
      vertex -2.66156 -2.57024 0.00999928
    endloop
  endfacet
  facet normal 0.913546 0.406736 0
    outer loop
      vertex -3.26691 -1.73704 10
      vertex -3.47686 -1.26547 0.00999928
      vertex -3.47686 -1.26547 10
    endloop
  endfacet
  facet normal 0.913546 0.406736 0
    outer loop
      vertex -3.47686 -1.26547 0.00999928
      vertex -3.26691 -1.73704 10
      vertex -3.26691 -1.73704 0.00999928
    endloop
  endfacet
  facet normal -0.374606 0.927184 0
    outer loop
      vertex 1.62197 -3.32554 0.00999928
      vertex 1.14336 -3.51891 10
      vertex 1.62197 -3.32554 10
    endloop
  endfacet
  facet normal -0.374606 0.927184 0
    outer loop
      vertex 1.14336 -3.51891 10
      vertex 1.62197 -3.32554 0.00999928
      vertex 1.14336 -3.51891 0.00999928
    endloop
  endfacet
  facet normal -0.719339 0.694659 0
    outer loop
      vertex 2.47578 -2.74964 0.00999928
      vertex 2.83436 -2.37831 10
      vertex 2.83436 -2.37831 0.00999928
    endloop
  endfacet
  facet normal -0.719339 0.694659 0
    outer loop
      vertex 2.83436 -2.37831 10
      vertex 2.47578 -2.74964 0.00999928
      vertex 2.47578 -2.74964 10
    endloop
  endfacet
  facet normal 0.0348993 0.999391 -0
    outer loop
      vertex 0.129128 -3.69775 0.00999928
      vertex -0.386755 -3.67973 10
      vertex 0.129128 -3.69775 10
    endloop
  endfacet
  facet normal 0.0348993 0.999391 0
    outer loop
      vertex -0.386755 -3.67973 10
      vertex 0.129128 -3.69775 0.00999928
      vertex -0.386755 -3.67973 0.00999928
    endloop
  endfacet
  facet normal 0.309016 0.951057 -0
    outer loop
      vertex -0.89511 -3.59009 0.00999928
      vertex -1.38604 -3.43058 10
      vertex -0.89511 -3.59009 10
    endloop
  endfacet
  facet normal 0.309016 0.951057 0
    outer loop
      vertex -1.38604 -3.43058 10
      vertex -0.89511 -3.59009 0.00999928
      vertex -1.38604 -3.43058 0.00999928
    endloop
  endfacet
  facet normal 0.173648 0.984808 -0
    outer loop
      vertex -0.386755 -3.67973 0.00999928
      vertex -0.89511 -3.59009 10
      vertex -0.386755 -3.67973 10
    endloop
  endfacet
  facet normal 0.173648 0.984808 0
    outer loop
      vertex -0.89511 -3.59009 10
      vertex -0.386755 -3.67973 0.00999928
      vertex -0.89511 -3.59009 0.00999928
    endloop
  endfacet
  facet normal 0.766045 0.642787 0
    outer loop
      vertex -2.66156 -2.57024 10
      vertex -2.99336 -2.1748 0.00999928
      vertex -2.99336 -2.1748 10
    endloop
  endfacet
  facet normal 0.766045 0.642787 0
    outer loop
      vertex -2.99336 -2.1748 0.00999928
      vertex -2.66156 -2.57024 10
      vertex -2.66156 -2.57024 0.00999928
    endloop
  endfacet
  facet normal 0.848048 0.52992 0
    outer loop
      vertex -2.99336 -2.1748 10
      vertex -3.26691 -1.73704 0.00999928
      vertex -3.26691 -1.73704 10
    endloop
  endfacet
  facet normal 0.848048 0.52992 0
    outer loop
      vertex -3.26691 -1.73704 0.00999928
      vertex -2.99336 -2.1748 10
      vertex -2.99336 -2.1748 0.00999928
    endloop
  endfacet
  facet normal 0.961262 0.275637 0
    outer loop
      vertex -3.47686 -1.26547 10
      vertex -3.61915 -0.769273 0.00999928
      vertex -3.61915 -0.769273 10
    endloop
  endfacet
  facet normal 0.961262 0.275637 0
    outer loop
      vertex -3.61915 -0.769273 0.00999928
      vertex -3.47686 -1.26547 10
      vertex -3.47686 -1.26547 0.00999928
    endloop
  endfacet
  facet normal 0.990268 0.139174 0
    outer loop
      vertex -3.61915 -0.769273 10
      vertex -3.69099 -0.258099 0.00999928
      vertex -3.69099 -0.258099 10
    endloop
  endfacet
  facet normal 0.990268 0.139174 0
    outer loop
      vertex -3.69099 -0.258099 0.00999928
      vertex -3.61915 -0.769273 10
      vertex -3.61915 -0.769273 0.00999928
    endloop
  endfacet
  facet normal -0.615661 0.788011 0
    outer loop
      vertex 2.47578 -2.74964 0.00999928
      vertex 2.06901 -3.06744 10
      vertex 2.47578 -2.74964 10
    endloop
  endfacet
  facet normal -0.615661 0.788011 0
    outer loop
      vertex 2.06901 -3.06744 10
      vertex 2.47578 -2.74964 0.00999928
      vertex 2.06901 -3.06744 0.00999928
    endloop
  endfacet
  facet normal 0.438372 0.898794 0
    outer loop
      vertex -1.38604 -3.43058 10
      vertex -1.85 -3.20429 0.0325887
      vertex -1.85 -3.20429 10
    endloop
  endfacet
  facet normal 0.438372 0.898794 -0
    outer loop
      vertex -1.38604 -3.43058 0.00999928
      vertex -1.85 -3.20429 0.0325887
      vertex -1.38604 -3.43058 10
    endloop
  endfacet
  facet normal 0.438372 0.898794 -1.01501e-06
    outer loop
      vertex -1.85 -3.20429 0.0325887
      vertex -1.38604 -3.43058 0.00999928
      vertex -1.64419 -3.30467 0.00999928
    endloop
  endfacet
  facet normal 0.559193 0.829038 -0
    outer loop
      vertex -1.85 -3.20429 0.0325887
      vertex -2.27795 -2.91564 10
      vertex -1.85 -3.20429 10
    endloop
  endfacet
  facet normal 0.559192 0.829038 7.2879e-06
    outer loop
      vertex -2.27795 -2.91564 0.00999928
      vertex -1.85 -3.20429 0.0325887
      vertex -2.03984 -3.07625 0.00999928
    endloop
  endfacet
  facet normal 0.559193 0.829038 0
    outer loop
      vertex -1.85 -3.20429 0.0325887
      vertex -2.27795 -2.91564 0.00999928
      vertex -2.27795 -2.91564 10
    endloop
  endfacet
  facet normal 0 0 -1
    outer loop
      vertex -3.69099 -0.258099 0.00999928
      vertex -7.36805 0 0.00999928
      vertex -3.69099 0.258099 0.00999928
    endloop
  endfacet
  facet normal 0 0 -1
    outer loop
      vertex -3.61915 -0.769273 0.00999928
      vertex -7.36805 0 0.00999928
      vertex -3.69099 -0.258099 0.00999928
    endloop
  endfacet
  facet normal 0 0 -1
    outer loop
      vertex -3.47686 -1.26547 0.00999928
      vertex -7.36805 0 0.00999928
      vertex -3.61915 -0.769273 0.00999928
    endloop
  endfacet
  facet normal 0 0 -1
    outer loop
      vertex -3.26691 -1.73704 0.00999928
      vertex -7.36805 0 0.00999928
      vertex -3.47686 -1.26547 0.00999928
    endloop
  endfacet
  facet normal 0 0 -1
    outer loop
      vertex -2.99336 -2.1748 0.00999928
      vertex -7.36805 0 0.00999928
      vertex -3.26691 -1.73704 0.00999928
    endloop
  endfacet
  facet normal 0 0 -1
    outer loop
      vertex -2.66156 -2.57024 0.00999928
      vertex -7.36805 0 0.00999928
      vertex -2.99336 -2.1748 0.00999928
    endloop
  endfacet
  facet normal 0 0 -1
    outer loop
      vertex -2.27795 -2.91564 0.00999928
      vertex -7.36805 0 0.00999928
      vertex -2.66156 -2.57024 0.00999928
    endloop
  endfacet
  facet normal 0 0 -1
    outer loop
      vertex -7.36805 0 0.00999928
      vertex -2.27795 -2.91564 0.00999928
      vertex -2.03984 -3.07625 0.00999928
    endloop
  endfacet
  facet normal -0 0 -1
    outer loop
      vertex -2.27795 2.91564 0.00999928
      vertex -7.36805 0 0.00999928
      vertex -2.03984 3.07625 0.00999928
    endloop
  endfacet
  facet normal -0 0 -1
    outer loop
      vertex -2.66156 2.57024 0.00999928
      vertex -7.36805 0 0.00999928
      vertex -2.27795 2.91564 0.00999928
    endloop
  endfacet
  facet normal -0 0 -1
    outer loop
      vertex -2.99336 2.1748 0.00999928
      vertex -7.36805 0 0.00999928
      vertex -2.66156 2.57024 0.00999928
    endloop
  endfacet
  facet normal -0 0 -1
    outer loop
      vertex -3.26691 1.73704 0.00999928
      vertex -7.36805 0 0.00999928
      vertex -2.99336 2.1748 0.00999928
    endloop
  endfacet
  facet normal -0 0 -1
    outer loop
      vertex -3.47686 1.26547 0.00999928
      vertex -7.36805 0 0.00999928
      vertex -3.26691 1.73704 0.00999928
    endloop
  endfacet
  facet normal -0 0 -1
    outer loop
      vertex -3.61915 0.769273 0.00999928
      vertex -7.36805 0 0.00999928
      vertex -3.47686 1.26547 0.00999928
    endloop
  endfacet
  facet normal 0 0 -1
    outer loop
      vertex -7.36805 0 0.00999928
      vertex -3.61915 0.769273 0.00999928
      vertex -3.69099 0.258099 0.00999928
    endloop
  endfacet
  facet normal 0 0 -1
    outer loop
      vertex 3.66399 0.51494 0.00999928
      vertex 3.68403 6.38092 0.00999928
      vertex 3.68403 0.228438 0.00999928
    endloop
  endfacet
  facet normal 0 0 -1
    outer loop
      vertex 3.55667 1.01986 0.00999928
      vertex 3.68403 6.38092 0.00999928
      vertex 3.66399 0.51494 0.00999928
    endloop
  endfacet
  facet normal 0 0 -1
    outer loop
      vertex 3.38012 1.50492 0.00999928
      vertex 3.68403 6.38092 0.00999928
      vertex 3.55667 1.01986 0.00999928
    endloop
  endfacet
  facet normal 0 0 -1
    outer loop
      vertex 3.13778 1.9607 0.00999928
      vertex 3.68403 6.38092 0.00999928
      vertex 3.38012 1.50492 0.00999928
    endloop
  endfacet
  facet normal 0 0 -1
    outer loop
      vertex 2.83436 2.37831 0.00999928
      vertex 3.68403 6.38092 0.00999928
      vertex 3.13778 1.9607 0.00999928
    endloop
  endfacet
  facet normal 0 0 -1
    outer loop
      vertex 2.47578 2.74964 0.00999928
      vertex 3.68403 6.38092 0.00999928
      vertex 2.83436 2.37831 0.00999928
    endloop
  endfacet
  facet normal 0 0 -1
    outer loop
      vertex 2.06901 3.06744 0.00999928
      vertex 3.68403 6.38092 0.00999928
      vertex 2.47578 2.74964 0.00999928
    endloop
  endfacet
  facet normal 0 0 -1
    outer loop
      vertex 1.62197 3.32554 0.00999928
      vertex 3.68403 6.38092 0.00999928
      vertex 2.06901 3.06744 0.00999928
    endloop
  endfacet
  facet normal 0 0 -1
    outer loop
      vertex 1.14336 3.51891 0.00999928
      vertex 3.68403 6.38092 0.00999928
      vertex 1.62197 3.32554 0.00999928
    endloop
  endfacet
  facet normal 0 0 -1
    outer loop
      vertex 0.642498 3.64379 0.00999928
      vertex 3.68403 6.38092 0.00999928
      vertex 1.14336 3.51891 0.00999928
    endloop
  endfacet
  facet normal 0 0 -1
    outer loop
      vertex 0.129128 3.69775 0.00999928
      vertex 3.68403 6.38092 0.00999928
      vertex 0.642498 3.64379 0.00999928
    endloop
  endfacet
  facet normal 0 0 -1
    outer loop
      vertex -0.386755 3.67973 0.00999928
      vertex 3.68403 6.38092 0.00999928
      vertex 0.129128 3.69775 0.00999928
    endloop
  endfacet
  facet normal 0 0 -1
    outer loop
      vertex -0.89511 3.59009 0.00999928
      vertex 3.68403 6.38092 0.00999928
      vertex -0.386755 3.67973 0.00999928
    endloop
  endfacet
  facet normal 0 0 -1
    outer loop
      vertex -1.38604 3.43058 0.00999928
      vertex 3.68403 6.38092 0.00999928
      vertex -0.89511 3.59009 0.00999928
    endloop
  endfacet
  facet normal 0 0 -1
    outer loop
      vertex 3.68403 6.38092 0.00999928
      vertex -1.38604 3.43058 0.00999928
      vertex -1.64419 3.30467 0.00999928
    endloop
  endfacet
  facet normal 0 0 -1
    outer loop
      vertex 3.68403 -6.38092 0.00999928
      vertex 3.66399 -0.51494 0.00999928
      vertex 3.68403 -0.228438 0.00999928
    endloop
  endfacet
  facet normal 0 0 -1
    outer loop
      vertex 3.68403 -6.38092 0.00999928
      vertex 3.55667 -1.01986 0.00999928
      vertex 3.66399 -0.51494 0.00999928
    endloop
  endfacet
  facet normal 0 0 -1
    outer loop
      vertex 3.68403 -6.38092 0.00999928
      vertex 3.38012 -1.50492 0.00999928
      vertex 3.55667 -1.01986 0.00999928
    endloop
  endfacet
  facet normal 0 0 -1
    outer loop
      vertex 3.68403 -6.38092 0.00999928
      vertex 3.13778 -1.9607 0.00999928
      vertex 3.38012 -1.50492 0.00999928
    endloop
  endfacet
  facet normal 0 0 -1
    outer loop
      vertex 3.68403 -6.38092 0.00999928
      vertex 2.83436 -2.37831 0.00999928
      vertex 3.13778 -1.9607 0.00999928
    endloop
  endfacet
  facet normal 0 0 -1
    outer loop
      vertex 3.68403 -6.38092 0.00999928
      vertex 2.47578 -2.74964 0.00999928
      vertex 2.83436 -2.37831 0.00999928
    endloop
  endfacet
  facet normal 0 0 -1
    outer loop
      vertex 3.68403 -6.38092 0.00999928
      vertex 2.06901 -3.06744 0.00999928
      vertex 2.47578 -2.74964 0.00999928
    endloop
  endfacet
  facet normal 0 0 -1
    outer loop
      vertex 3.68403 -6.38092 0.00999928
      vertex 1.62197 -3.32554 0.00999928
      vertex 2.06901 -3.06744 0.00999928
    endloop
  endfacet
  facet normal 0 0 -1
    outer loop
      vertex 3.68403 -6.38092 0.00999928
      vertex 1.14336 -3.51891 0.00999928
      vertex 1.62197 -3.32554 0.00999928
    endloop
  endfacet
  facet normal 0 0 -1
    outer loop
      vertex 3.68403 -6.38092 0.00999928
      vertex 0.642498 -3.64379 0.00999928
      vertex 1.14336 -3.51891 0.00999928
    endloop
  endfacet
  facet normal 0 0 -1
    outer loop
      vertex 3.68403 -6.38092 0.00999928
      vertex 0.129128 -3.69775 0.00999928
      vertex 0.642498 -3.64379 0.00999928
    endloop
  endfacet
  facet normal 0 0 -1
    outer loop
      vertex 3.68403 -6.38092 0.00999928
      vertex -0.386755 -3.67973 0.00999928
      vertex 0.129128 -3.69775 0.00999928
    endloop
  endfacet
  facet normal 0 0 -1
    outer loop
      vertex 3.68403 -6.38092 0.00999928
      vertex -0.89511 -3.59009 0.00999928
      vertex -0.386755 -3.67973 0.00999928
    endloop
  endfacet
  facet normal 0 0 -1
    outer loop
      vertex 3.68403 -6.38092 0.00999928
      vertex -1.38604 -3.43058 0.00999928
      vertex -0.89511 -3.59009 0.00999928
    endloop
  endfacet
  facet normal -0 -0 -1
    outer loop
      vertex -1.38604 -3.43058 0.00999928
      vertex 3.68403 -6.38092 0.00999928
      vertex -1.64419 -3.30467 0.00999928
    endloop
  endfacet
endsolid OpenSCAD_Model
