solid OpenSCAD_Model
  facet normal -0.408248 0.707107 -0.57735
    outer loop
      vertex -7.50947 0 0.00999928
      vertex 6.16455 10.6773 3.41799
      vertex 3.75474 6.50339 0.00999928
    endloop
  endfacet
  facet normal -0.408248 0.707107 -0.57735
    outer loop
      vertex 6.16455 10.6773 3.41799
      vertex -7.50947 0 0.00999928
      vertex -12.3291 0 3.41799
    endloop
  endfacet
  facet normal -0.816497 -2.57838e-08 0.57735
    outer loop
      vertex -12.3291 0 3.41799
      vertex 0 0 20.854
      vertex -6.16455 10.6773 12.136
    endloop
  endfacet
  facet normal -0.816497 2.57838e-08 0.57735
    outer loop
      vertex 0 0 20.854
      vertex -12.3291 0 3.41799
      vertex -6.16455 -10.6773 12.136
    endloop
  endfacet
  facet normal 0.408248 -0.707107 0.57735
    outer loop
      vertex -6.16455 -10.6773 12.136
      vertex 12.3291 0 12.136
      vertex 0 0 20.854
    endloop
  endfacet
  facet normal 0.408248 -0.707107 0.57735
    outer loop
      vertex 12.3291 0 12.136
      vertex -6.16455 -10.6773 12.136
      vertex 6.16455 -10.6773 3.41799
    endloop
  endfacet
  facet normal -0.408248 -0.707107 -0.57735
    outer loop
      vertex -6.16455 -10.6773 12.136
      vertex -12.3291 0 3.41799
      vertex 6.16455 -10.6773 3.41799
    endloop
  endfacet
  facet normal 0.408248 0.707107 0.57735
    outer loop
      vertex 12.3291 0 12.136
      vertex -6.16455 10.6773 12.136
      vertex 0 0 20.854
    endloop
  endfacet
  facet normal 0.408248 0.707107 0.57735
    outer loop
      vertex -6.16455 10.6773 12.136
      vertex 12.3291 0 12.136
      vertex 6.16455 10.6773 3.41799
    endloop
  endfacet
  facet normal -0.408248 0.707107 -0.57735
    outer loop
      vertex 6.16455 10.6773 3.41799
      vertex -12.3291 0 3.41799
      vertex -6.16455 10.6773 12.136
    endloop
  endfacet
  facet normal 0.816497 0 -0.57735
    outer loop
      vertex 6.16455 10.6773 3.41799
      vertex 3.75474 -6.50339 0.00999928
      vertex 3.75474 6.50339 0.00999928
    endloop
  endfacet
  facet normal 0.816497 0 -0.57735
    outer loop
      vertex 3.75474 -6.50339 0.00999928
      vertex 6.16455 10.6773 3.41799
      vertex 6.16455 -10.6773 3.41799
    endloop
  endfacet
  facet normal -0.408248 -0.707107 -0.57735
    outer loop
      vertex -7.50947 0 0.00999928
      vertex 6.16455 -10.6773 3.41799
      vertex -12.3291 0 3.41799
    endloop
  endfacet
  facet normal -0.408248 -0.707107 -0.57735
    outer loop
      vertex 6.16455 -10.6773 3.41799
      vertex -7.50947 0 0.00999928
      vertex 3.75474 -6.50339 0.00999928
    endloop
  endfacet
  facet normal 0.816497 0 -0.57735
    outer loop
      vertex 12.3291 0 12.136
      vertex 6.16455 -10.6773 3.41799
      vertex 6.16455 10.6773 3.41799
    endloop
  endfacet
  facet normal -0.882948 -0.469471 0
    outer loop
      vertex 3.38012 1.50492 0.00999928
      vertex 3.13778 1.9607 15.3
      vertex 3.13778 1.9607 0.00999928
    endloop
  endfacet
  facet normal -0.882948 -0.469471 0
    outer loop
      vertex 3.13778 1.9607 15.3
      vertex 3.38012 1.50492 0.00999928
      vertex 3.38012 1.50492 15.3
    endloop
  endfacet
  facet normal -0.809017 -0.587785 0
    outer loop
      vertex 3.13778 1.9607 0.00999928
      vertex 2.83436 2.37831 15.3
      vertex 2.83436 2.37831 0.00999928
    endloop
  endfacet
  facet normal -0.809017 -0.587785 0
    outer loop
      vertex 2.83436 2.37831 15.3
      vertex 3.13778 1.9607 0.00999928
      vertex 3.13778 1.9607 15.3
    endloop
  endfacet
  facet normal -0.374606 -0.927184 0
    outer loop
      vertex 1.14336 3.51891 0.00999928
      vertex 1.62197 3.32554 15.3
      vertex 1.14336 3.51891 15.3
    endloop
  endfacet
  facet normal -0.374606 -0.927184 -0
    outer loop
      vertex 1.62197 3.32554 15.3
      vertex 1.14336 3.51891 0.00999928
      vertex 1.62197 3.32554 0.00999928
    endloop
  endfacet
  facet normal 0.309016 -0.951057 0
    outer loop
      vertex -1.38604 3.43058 0.00999928
      vertex -0.89511 3.59009 15.3
      vertex -1.38604 3.43058 15.3
    endloop
  endfacet
  facet normal 0.309016 -0.951057 0
    outer loop
      vertex -0.89511 3.59009 15.3
      vertex -1.38604 3.43058 0.00999928
      vertex -0.89511 3.59009 0.00999928
    endloop
  endfacet
  facet normal 0.913546 -0.406736 0
    outer loop
      vertex -3.47686 1.26547 15.3
      vertex -3.26691 1.73704 0.00999928
      vertex -3.26691 1.73704 15.3
    endloop
  endfacet
  facet normal 0.913546 -0.406736 0
    outer loop
      vertex -3.26691 1.73704 0.00999928
      vertex -3.47686 1.26547 15.3
      vertex -3.47686 1.26547 0.00999928
    endloop
  endfacet
  facet normal -0.978148 0.207912 0
    outer loop
      vertex 3.55667 -1.01986 0.00999928
      vertex 3.66399 -0.51494 15.3
      vertex 3.66399 -0.51494 0.00999928
    endloop
  endfacet
  facet normal -0.978148 0.207912 0
    outer loop
      vertex 3.66399 -0.51494 15.3
      vertex 3.55667 -1.01986 0.00999928
      vertex 3.55667 -1.01986 15.3
    endloop
  endfacet
  facet normal -0.241923 0.970296 0
    outer loop
      vertex 1.14336 -3.51891 0.00999928
      vertex 0.642498 -3.64379 15.3
      vertex 1.14336 -3.51891 15.3
    endloop
  endfacet
  facet normal -0.241923 0.970296 0
    outer loop
      vertex 0.642498 -3.64379 15.3
      vertex 1.14336 -3.51891 0.00999928
      vertex 0.642498 -3.64379 0.00999928
    endloop
  endfacet
  facet normal -0.719339 -0.694659 0
    outer loop
      vertex 2.83436 2.37831 0.00999928
      vertex 2.47578 2.74964 15.3
      vertex 2.47578 2.74964 0.00999928
    endloop
  endfacet
  facet normal -0.719339 -0.694659 0
    outer loop
      vertex 2.47578 2.74964 15.3
      vertex 2.83436 2.37831 0.00999928
      vertex 2.83436 2.37831 15.3
    endloop
  endfacet
  facet normal -0.500001 -0.866025 0
    outer loop
      vertex 1.62197 3.32554 0.00999928
      vertex 2.06901 3.06744 15.3
      vertex 1.62197 3.32554 15.3
    endloop
  endfacet
  facet normal -0.500001 -0.866025 -0
    outer loop
      vertex 2.06901 3.06744 15.3
      vertex 1.62197 3.32554 0.00999928
      vertex 2.06901 3.06744 0.00999928
    endloop
  endfacet
  facet normal 1 -0 0
    outer loop
      vertex -3.69099 -0.258099 15.3
      vertex -3.69099 0.258099 0.00999928
      vertex -3.69099 0.258099 15.3
    endloop
  endfacet
  facet normal 1 0 0
    outer loop
      vertex -3.69099 0.258099 0.00999928
      vertex -3.69099 -0.258099 15.3
      vertex -3.69099 -0.258099 0.00999928
    endloop
  endfacet
  facet normal 0.766045 -0.642787 0
    outer loop
      vertex -2.99336 2.1748 15.3
      vertex -2.66156 2.57024 0.00999928
      vertex -2.66156 2.57024 15.3
    endloop
  endfacet
  facet normal 0.766045 -0.642787 0
    outer loop
      vertex -2.66156 2.57024 0.00999928
      vertex -2.99336 2.1748 15.3
      vertex -2.99336 2.1748 0.00999928
    endloop
  endfacet
  facet normal 0.173648 -0.984808 0
    outer loop
      vertex -0.89511 3.59009 0.00999928
      vertex -0.386755 3.67973 15.3
      vertex -0.89511 3.59009 15.3
    endloop
  endfacet
  facet normal 0.173648 -0.984808 0
    outer loop
      vertex -0.386755 3.67973 15.3
      vertex -0.89511 3.59009 0.00999928
      vertex -0.386755 3.67973 0.00999928
    endloop
  endfacet
  facet normal 0.66913 -0.743145 0
    outer loop
      vertex -2.66156 2.57024 0.00999928
      vertex -2.27795 2.91564 15.3
      vertex -2.66156 2.57024 15.3
    endloop
  endfacet
  facet normal 0.66913 -0.743145 0
    outer loop
      vertex -2.27795 2.91564 15.3
      vertex -2.66156 2.57024 0.00999928
      vertex -2.27795 2.91564 0.00999928
    endloop
  endfacet
  facet normal -0.997564 -0.0697578 0
    outer loop
      vertex 3.7 0 0.00999928
      vertex 3.66399 0.51494 15.3
      vertex 3.66399 0.51494 0.00999928
    endloop
  endfacet
  facet normal -0.997564 -0.0697578 0
    outer loop
      vertex 3.66399 0.51494 15.3
      vertex 3.7 0 0.00999928
      vertex 3.7 0 15.3
    endloop
  endfacet
  facet normal -0.939693 0.34202 0
    outer loop
      vertex 3.38012 -1.50492 0.00999928
      vertex 3.55667 -1.01986 15.3
      vertex 3.55667 -1.01986 0.00999928
    endloop
  endfacet
  facet normal -0.939693 0.34202 0
    outer loop
      vertex 3.55667 -1.01986 15.3
      vertex 3.38012 -1.50492 0.00999928
      vertex 3.38012 -1.50492 15.3
    endloop
  endfacet
  facet normal -0.500001 0.866025 0
    outer loop
      vertex 2.06901 -3.06744 0.00999928
      vertex 1.62197 -3.32554 15.3
      vertex 2.06901 -3.06744 15.3
    endloop
  endfacet
  facet normal -0.500001 0.866025 0
    outer loop
      vertex 1.62197 -3.32554 15.3
      vertex 2.06901 -3.06744 0.00999928
      vertex 1.62197 -3.32554 0.00999928
    endloop
  endfacet
  facet normal -0.978148 -0.207912 0
    outer loop
      vertex 3.66399 0.51494 0.00999928
      vertex 3.55667 1.01986 15.3
      vertex 3.55667 1.01986 0.00999928
    endloop
  endfacet
  facet normal -0.978148 -0.207912 0
    outer loop
      vertex 3.55667 1.01986 15.3
      vertex 3.66399 0.51494 0.00999928
      vertex 3.66399 0.51494 15.3
    endloop
  endfacet
  facet normal -0.939693 -0.34202 0
    outer loop
      vertex 3.55667 1.01986 0.00999928
      vertex 3.38012 1.50492 15.3
      vertex 3.38012 1.50492 0.00999928
    endloop
  endfacet
  facet normal -0.939693 -0.34202 0
    outer loop
      vertex 3.38012 1.50492 15.3
      vertex 3.55667 1.01986 0.00999928
      vertex 3.55667 1.01986 15.3
    endloop
  endfacet
  facet normal 0.0348993 -0.999391 0
    outer loop
      vertex -0.386755 3.67973 0.00999928
      vertex 0.129128 3.69775 15.3
      vertex -0.386755 3.67973 15.3
    endloop
  endfacet
  facet normal 0.0348993 -0.999391 0
    outer loop
      vertex 0.129128 3.69775 15.3
      vertex -0.386755 3.67973 0.00999928
      vertex 0.129128 3.69775 0.00999928
    endloop
  endfacet
  facet normal -0.241923 -0.970296 0
    outer loop
      vertex 0.642498 3.64379 0.00999928
      vertex 1.14336 3.51891 15.3
      vertex 0.642498 3.64379 15.3
    endloop
  endfacet
  facet normal -0.241923 -0.970296 -0
    outer loop
      vertex 1.14336 3.51891 15.3
      vertex 0.642498 3.64379 0.00999928
      vertex 1.14336 3.51891 0.00999928
    endloop
  endfacet
  facet normal -0.615661 -0.788011 0
    outer loop
      vertex 2.06901 3.06744 0.00999928
      vertex 2.47578 2.74964 15.3
      vertex 2.06901 3.06744 15.3
    endloop
  endfacet
  facet normal -0.615661 -0.788011 -0
    outer loop
      vertex 2.47578 2.74964 15.3
      vertex 2.06901 3.06744 0.00999928
      vertex 2.47578 2.74964 0.00999928
    endloop
  endfacet
  facet normal 0 0 -1
    outer loop
      vertex 3.66399 -0.51494 15.3
      vertex 3.66399 0.51494 15.3
      vertex 3.7 0 15.3
    endloop
  endfacet
  facet normal 0 0 -1
    outer loop
      vertex 3.55667 -1.01986 15.3
      vertex 3.66399 0.51494 15.3
      vertex 3.66399 -0.51494 15.3
    endloop
  endfacet
  facet normal 0 0 -1
    outer loop
      vertex 3.55667 -1.01986 15.3
      vertex 3.55667 1.01986 15.3
      vertex 3.66399 0.51494 15.3
    endloop
  endfacet
  facet normal 0 0 -1
    outer loop
      vertex 3.38012 -1.50492 15.3
      vertex 3.55667 1.01986 15.3
      vertex 3.55667 -1.01986 15.3
    endloop
  endfacet
  facet normal 0 0 -1
    outer loop
      vertex 3.38012 -1.50492 15.3
      vertex 3.38012 1.50492 15.3
      vertex 3.55667 1.01986 15.3
    endloop
  endfacet
  facet normal 0 0 -1
    outer loop
      vertex 3.13778 -1.9607 15.3
      vertex 3.38012 1.50492 15.3
      vertex 3.38012 -1.50492 15.3
    endloop
  endfacet
  facet normal 0 0 -1
    outer loop
      vertex 3.13778 -1.9607 15.3
      vertex 3.13778 1.9607 15.3
      vertex 3.38012 1.50492 15.3
    endloop
  endfacet
  facet normal 0 0 -1
    outer loop
      vertex 2.83436 -2.37831 15.3
      vertex 3.13778 1.9607 15.3
      vertex 3.13778 -1.9607 15.3
    endloop
  endfacet
  facet normal 0 0 -1
    outer loop
      vertex 2.83436 -2.37831 15.3
      vertex 2.83436 2.37831 15.3
      vertex 3.13778 1.9607 15.3
    endloop
  endfacet
  facet normal 0 0 -1
    outer loop
      vertex 2.47578 -2.74964 15.3
      vertex 2.83436 2.37831 15.3
      vertex 2.83436 -2.37831 15.3
    endloop
  endfacet
  facet normal 0 0 -1
    outer loop
      vertex 2.47578 -2.74964 15.3
      vertex 2.47578 2.74964 15.3
      vertex 2.83436 2.37831 15.3
    endloop
  endfacet
  facet normal 0 0 -1
    outer loop
      vertex 2.06901 -3.06744 15.3
      vertex 2.47578 2.74964 15.3
      vertex 2.47578 -2.74964 15.3
    endloop
  endfacet
  facet normal 0 0 -1
    outer loop
      vertex 2.06901 -3.06744 15.3
      vertex 2.06901 3.06744 15.3
      vertex 2.47578 2.74964 15.3
    endloop
  endfacet
  facet normal 0 0 -1
    outer loop
      vertex 1.62197 -3.32554 15.3
      vertex 2.06901 3.06744 15.3
      vertex 2.06901 -3.06744 15.3
    endloop
  endfacet
  facet normal 0 0 -1
    outer loop
      vertex 1.62197 -3.32554 15.3
      vertex 1.62197 3.32554 15.3
      vertex 2.06901 3.06744 15.3
    endloop
  endfacet
  facet normal 0 0 -1
    outer loop
      vertex 1.14336 -3.51891 15.3
      vertex 1.62197 3.32554 15.3
      vertex 1.62197 -3.32554 15.3
    endloop
  endfacet
  facet normal 0 0 -1
    outer loop
      vertex 1.14336 -3.51891 15.3
      vertex 1.14336 3.51891 15.3
      vertex 1.62197 3.32554 15.3
    endloop
  endfacet
  facet normal 0 0 -1
    outer loop
      vertex 0.642498 -3.64379 15.3
      vertex 1.14336 3.51891 15.3
      vertex 1.14336 -3.51891 15.3
    endloop
  endfacet
  facet normal 0 0 -1
    outer loop
      vertex 0.642498 -3.64379 15.3
      vertex 0.642498 3.64379 15.3
      vertex 1.14336 3.51891 15.3
    endloop
  endfacet
  facet normal 0 0 -1
    outer loop
      vertex 0.129128 -3.69775 15.3
      vertex 0.642498 3.64379 15.3
      vertex 0.642498 -3.64379 15.3
    endloop
  endfacet
  facet normal 0 0 -1
    outer loop
      vertex 0.129128 -3.69775 15.3
      vertex 0.129128 3.69775 15.3
      vertex 0.642498 3.64379 15.3
    endloop
  endfacet
  facet normal 0 0 -1
    outer loop
      vertex -0.386755 -3.67973 15.3
      vertex 0.129128 3.69775 15.3
      vertex 0.129128 -3.69775 15.3
    endloop
  endfacet
  facet normal 0 0 -1
    outer loop
      vertex -0.386755 -3.67973 15.3
      vertex -0.386755 3.67973 15.3
      vertex 0.129128 3.69775 15.3
    endloop
  endfacet
  facet normal 0 0 -1
    outer loop
      vertex -0.89511 -3.59009 15.3
      vertex -0.386755 3.67973 15.3
      vertex -0.386755 -3.67973 15.3
    endloop
  endfacet
  facet normal 0 0 -1
    outer loop
      vertex -0.89511 -3.59009 15.3
      vertex -0.89511 3.59009 15.3
      vertex -0.386755 3.67973 15.3
    endloop
  endfacet
  facet normal 0 0 -1
    outer loop
      vertex -1.38604 -3.43058 15.3
      vertex -0.89511 3.59009 15.3
      vertex -0.89511 -3.59009 15.3
    endloop
  endfacet
  facet normal 0 0 -1
    outer loop
      vertex -1.38604 -3.43058 15.3
      vertex -1.38604 3.43058 15.3
      vertex -0.89511 3.59009 15.3
    endloop
  endfacet
  facet normal 0 0 -1
    outer loop
      vertex -1.85 -3.20429 15.3
      vertex -1.38604 3.43058 15.3
      vertex -1.38604 -3.43058 15.3
    endloop
  endfacet
  facet normal 0 0 -1
    outer loop
      vertex -1.85 -3.20429 15.3
      vertex -1.85 3.20429 15.3
      vertex -1.38604 3.43058 15.3
    endloop
  endfacet
  facet normal 0 0 -1
    outer loop
      vertex -2.27795 -2.91564 15.3
      vertex -1.85 3.20429 15.3
      vertex -1.85 -3.20429 15.3
    endloop
  endfacet
  facet normal 0 0 -1
    outer loop
      vertex -2.27795 -2.91564 15.3
      vertex -2.27795 2.91564 15.3
      vertex -1.85 3.20429 15.3
    endloop
  endfacet
  facet normal 0 0 -1
    outer loop
      vertex -2.66156 -2.57024 15.3
      vertex -2.27795 2.91564 15.3
      vertex -2.27795 -2.91564 15.3
    endloop
  endfacet
  facet normal 0 0 -1
    outer loop
      vertex -2.66156 -2.57024 15.3
      vertex -2.66156 2.57024 15.3
      vertex -2.27795 2.91564 15.3
    endloop
  endfacet
  facet normal 0 0 -1
    outer loop
      vertex -2.99336 -2.1748 15.3
      vertex -2.66156 2.57024 15.3
      vertex -2.66156 -2.57024 15.3
    endloop
  endfacet
  facet normal 0 0 -1
    outer loop
      vertex -2.99336 -2.1748 15.3
      vertex -2.99336 2.1748 15.3
      vertex -2.66156 2.57024 15.3
    endloop
  endfacet
  facet normal 0 0 -1
    outer loop
      vertex -3.26691 -1.73704 15.3
      vertex -2.99336 2.1748 15.3
      vertex -2.99336 -2.1748 15.3
    endloop
  endfacet
  facet normal 0 0 -1
    outer loop
      vertex -3.26691 -1.73704 15.3
      vertex -3.26691 1.73704 15.3
      vertex -2.99336 2.1748 15.3
    endloop
  endfacet
  facet normal 0 0 -1
    outer loop
      vertex -3.47686 -1.26547 15.3
      vertex -3.26691 1.73704 15.3
      vertex -3.26691 -1.73704 15.3
    endloop
  endfacet
  facet normal 0 0 -1
    outer loop
      vertex -3.47686 -1.26547 15.3
      vertex -3.47686 1.26547 15.3
      vertex -3.26691 1.73704 15.3
    endloop
  endfacet
  facet normal 0 0 -1
    outer loop
      vertex -3.61915 -0.769273 15.3
      vertex -3.47686 1.26547 15.3
      vertex -3.47686 -1.26547 15.3
    endloop
  endfacet
  facet normal 0 0 -1
    outer loop
      vertex -3.61915 -0.769273 15.3
      vertex -3.61915 0.769273 15.3
      vertex -3.47686 1.26547 15.3
    endloop
  endfacet
  facet normal 0 0 -1
    outer loop
      vertex -3.69099 -0.258099 15.3
      vertex -3.61915 0.769273 15.3
      vertex -3.61915 -0.769273 15.3
    endloop
  endfacet
  facet normal 0 0 -1
    outer loop
      vertex -3.61915 0.769273 15.3
      vertex -3.69099 -0.258099 15.3
      vertex -3.69099 0.258099 15.3
    endloop
  endfacet
  facet normal 0.961262 -0.275637 0
    outer loop
      vertex -3.61915 0.769273 15.3
      vertex -3.47686 1.26547 0.00999928
      vertex -3.47686 1.26547 15.3
    endloop
  endfacet
  facet normal 0.961262 -0.275637 0
    outer loop
      vertex -3.47686 1.26547 0.00999928
      vertex -3.61915 0.769273 15.3
      vertex -3.61915 0.769273 0.00999928
    endloop
  endfacet
  facet normal 0.990268 -0.139174 0
    outer loop
      vertex -3.69099 0.258099 15.3
      vertex -3.61915 0.769273 0.00999928
      vertex -3.61915 0.769273 15.3
    endloop
  endfacet
  facet normal 0.990268 -0.139174 0
    outer loop
      vertex -3.61915 0.769273 0.00999928
      vertex -3.69099 0.258099 15.3
      vertex -3.69099 0.258099 0.00999928
    endloop
  endfacet
  facet normal 0.848048 -0.52992 0
    outer loop
      vertex -3.26691 1.73704 15.3
      vertex -2.99336 2.1748 0.00999928
      vertex -2.99336 2.1748 15.3
    endloop
  endfacet
  facet normal 0.848048 -0.52992 0
    outer loop
      vertex -2.99336 2.1748 0.00999928
      vertex -3.26691 1.73704 15.3
      vertex -3.26691 1.73704 0.00999928
    endloop
  endfacet
  facet normal 0.559193 -0.829038 0
    outer loop
      vertex -2.27795 2.91564 0.00999928
      vertex -1.85 3.20429 15.3
      vertex -2.27795 2.91564 15.3
    endloop
  endfacet
  facet normal 0.559193 -0.829038 0
    outer loop
      vertex -1.85 3.20429 15.3
      vertex -2.27795 2.91564 0.00999928
      vertex -1.85 3.20429 0.00999928
    endloop
  endfacet
  facet normal 0.438372 -0.898794 0
    outer loop
      vertex -1.85 3.20429 0.00999928
      vertex -1.38604 3.43058 15.3
      vertex -1.85 3.20429 15.3
    endloop
  endfacet
  facet normal 0.438372 -0.898794 0
    outer loop
      vertex -1.38604 3.43058 15.3
      vertex -1.85 3.20429 0.00999928
      vertex -1.38604 3.43058 0.00999928
    endloop
  endfacet
  facet normal -0.997564 0.0697578 0
    outer loop
      vertex 3.66399 -0.51494 0.00999928
      vertex 3.7 0 15.3
      vertex 3.7 0 0.00999928
    endloop
  endfacet
  facet normal -0.997564 0.0697578 0
    outer loop
      vertex 3.7 0 15.3
      vertex 3.66399 -0.51494 0.00999928
      vertex 3.66399 -0.51494 15.3
    endloop
  endfacet
  facet normal -0.809017 0.587785 0
    outer loop
      vertex 2.83436 -2.37831 0.00999928
      vertex 3.13778 -1.9607 15.3
      vertex 3.13778 -1.9607 0.00999928
    endloop
  endfacet
  facet normal -0.809017 0.587785 0
    outer loop
      vertex 3.13778 -1.9607 15.3
      vertex 2.83436 -2.37831 0.00999928
      vertex 2.83436 -2.37831 15.3
    endloop
  endfacet
  facet normal 0.848048 0.52992 0
    outer loop
      vertex -2.99336 -2.1748 15.3
      vertex -3.26691 -1.73704 0.00999928
      vertex -3.26691 -1.73704 15.3
    endloop
  endfacet
  facet normal 0.848048 0.52992 0
    outer loop
      vertex -3.26691 -1.73704 0.00999928
      vertex -2.99336 -2.1748 15.3
      vertex -2.99336 -2.1748 0.00999928
    endloop
  endfacet
  facet normal -0.374606 0.927184 0
    outer loop
      vertex 1.62197 -3.32554 0.00999928
      vertex 1.14336 -3.51891 15.3
      vertex 1.62197 -3.32554 15.3
    endloop
  endfacet
  facet normal -0.374606 0.927184 0
    outer loop
      vertex 1.14336 -3.51891 15.3
      vertex 1.62197 -3.32554 0.00999928
      vertex 1.14336 -3.51891 0.00999928
    endloop
  endfacet
  facet normal -0.104528 -0.994522 0
    outer loop
      vertex 0.129128 3.69775 0.00999928
      vertex 0.642498 3.64379 15.3
      vertex 0.129128 3.69775 15.3
    endloop
  endfacet
  facet normal -0.104528 -0.994522 -0
    outer loop
      vertex 0.642498 3.64379 15.3
      vertex 0.129128 3.69775 0.00999928
      vertex 0.642498 3.64379 0.00999928
    endloop
  endfacet
  facet normal -0.882948 0.469471 0
    outer loop
      vertex 3.13778 -1.9607 0.00999928
      vertex 3.38012 -1.50492 15.3
      vertex 3.38012 -1.50492 0.00999928
    endloop
  endfacet
  facet normal -0.882948 0.469471 0
    outer loop
      vertex 3.38012 -1.50492 15.3
      vertex 3.13778 -1.9607 0.00999928
      vertex 3.13778 -1.9607 15.3
    endloop
  endfacet
  facet normal 0.0348993 0.999391 -0
    outer loop
      vertex 0.129128 -3.69775 0.00999928
      vertex -0.386755 -3.67973 15.3
      vertex 0.129128 -3.69775 15.3
    endloop
  endfacet
  facet normal 0.0348993 0.999391 0
    outer loop
      vertex -0.386755 -3.67973 15.3
      vertex 0.129128 -3.69775 0.00999928
      vertex -0.386755 -3.67973 0.00999928
    endloop
  endfacet
  facet normal 0.990268 0.139174 0
    outer loop
      vertex -3.61915 -0.769273 15.3
      vertex -3.69099 -0.258099 0.00999928
      vertex -3.69099 -0.258099 15.3
    endloop
  endfacet
  facet normal 0.990268 0.139174 0
    outer loop
      vertex -3.69099 -0.258099 0.00999928
      vertex -3.61915 -0.769273 15.3
      vertex -3.61915 -0.769273 0.00999928
    endloop
  endfacet
  facet normal 0.913546 0.406736 0
    outer loop
      vertex -3.26691 -1.73704 15.3
      vertex -3.47686 -1.26547 0.00999928
      vertex -3.47686 -1.26547 15.3
    endloop
  endfacet
  facet normal 0.913546 0.406736 0
    outer loop
      vertex -3.47686 -1.26547 0.00999928
      vertex -3.26691 -1.73704 15.3
      vertex -3.26691 -1.73704 0.00999928
    endloop
  endfacet
  facet normal -0.719339 0.694659 0
    outer loop
      vertex 2.47578 -2.74964 0.00999928
      vertex 2.83436 -2.37831 15.3
      vertex 2.83436 -2.37831 0.00999928
    endloop
  endfacet
  facet normal -0.719339 0.694659 0
    outer loop
      vertex 2.83436 -2.37831 15.3
      vertex 2.47578 -2.74964 0.00999928
      vertex 2.47578 -2.74964 15.3
    endloop
  endfacet
  facet normal 0.309016 0.951057 -0
    outer loop
      vertex -0.89511 -3.59009 0.00999928
      vertex -1.38604 -3.43058 15.3
      vertex -0.89511 -3.59009 15.3
    endloop
  endfacet
  facet normal 0.309016 0.951057 0
    outer loop
      vertex -1.38604 -3.43058 15.3
      vertex -0.89511 -3.59009 0.00999928
      vertex -1.38604 -3.43058 0.00999928
    endloop
  endfacet
  facet normal -0.104528 0.994522 0
    outer loop
      vertex 0.642498 -3.64379 0.00999928
      vertex 0.129128 -3.69775 15.3
      vertex 0.642498 -3.64379 15.3
    endloop
  endfacet
  facet normal -0.104528 0.994522 0
    outer loop
      vertex 0.129128 -3.69775 15.3
      vertex 0.642498 -3.64379 0.00999928
      vertex 0.129128 -3.69775 0.00999928
    endloop
  endfacet
  facet normal 0.173648 0.984808 -0
    outer loop
      vertex -0.386755 -3.67973 0.00999928
      vertex -0.89511 -3.59009 15.3
      vertex -0.386755 -3.67973 15.3
    endloop
  endfacet
  facet normal 0.173648 0.984808 0
    outer loop
      vertex -0.89511 -3.59009 15.3
      vertex -0.386755 -3.67973 0.00999928
      vertex -0.89511 -3.59009 0.00999928
    endloop
  endfacet
  facet normal 0.766045 0.642787 0
    outer loop
      vertex -2.66156 -2.57024 15.3
      vertex -2.99336 -2.1748 0.00999928
      vertex -2.99336 -2.1748 15.3
    endloop
  endfacet
  facet normal 0.766045 0.642787 0
    outer loop
      vertex -2.99336 -2.1748 0.00999928
      vertex -2.66156 -2.57024 15.3
      vertex -2.66156 -2.57024 0.00999928
    endloop
  endfacet
  facet normal 0.66913 0.743145 -0
    outer loop
      vertex -2.27795 -2.91564 0.00999928
      vertex -2.66156 -2.57024 15.3
      vertex -2.27795 -2.91564 15.3
    endloop
  endfacet
  facet normal 0.66913 0.743145 0
    outer loop
      vertex -2.66156 -2.57024 15.3
      vertex -2.27795 -2.91564 0.00999928
      vertex -2.66156 -2.57024 0.00999928
    endloop
  endfacet
  facet normal 0.961262 0.275637 0
    outer loop
      vertex -3.47686 -1.26547 15.3
      vertex -3.61915 -0.769273 0.00999928
      vertex -3.61915 -0.769273 15.3
    endloop
  endfacet
  facet normal 0.961262 0.275637 0
    outer loop
      vertex -3.61915 -0.769273 0.00999928
      vertex -3.47686 -1.26547 15.3
      vertex -3.47686 -1.26547 0.00999928
    endloop
  endfacet
  facet normal -0.615661 0.788011 0
    outer loop
      vertex 2.47578 -2.74964 0.00999928
      vertex 2.06901 -3.06744 15.3
      vertex 2.47578 -2.74964 15.3
    endloop
  endfacet
  facet normal -0.615661 0.788011 0
    outer loop
      vertex 2.06901 -3.06744 15.3
      vertex 2.47578 -2.74964 0.00999928
      vertex 2.06901 -3.06744 0.00999928
    endloop
  endfacet
  facet normal 0.438372 0.898794 -0
    outer loop
      vertex -1.38604 -3.43058 0.00999928
      vertex -1.85 -3.20429 15.3
      vertex -1.38604 -3.43058 15.3
    endloop
  endfacet
  facet normal 0.438372 0.898794 0
    outer loop
      vertex -1.85 -3.20429 15.3
      vertex -1.38604 -3.43058 0.00999928
      vertex -1.85 -3.20429 0.00999928
    endloop
  endfacet
  facet normal 0.559193 0.829038 -0
    outer loop
      vertex -1.85 -3.20429 0.00999928
      vertex -2.27795 -2.91564 15.3
      vertex -1.85 -3.20429 15.3
    endloop
  endfacet
  facet normal 0.559193 0.829038 0
    outer loop
      vertex -2.27795 -2.91564 15.3
      vertex -1.85 -3.20429 0.00999928
      vertex -2.27795 -2.91564 0.00999928
    endloop
  endfacet
  facet normal 0 0 -1
    outer loop
      vertex 3.75474 -6.50339 0.00999928
      vertex 3.7 0 0.00999928
      vertex 3.75474 6.50339 0.00999928
    endloop
  endfacet
  facet normal 0 0 -1
    outer loop
      vertex 3.75474 -6.50339 0.00999928
      vertex 3.66399 -0.51494 0.00999928
      vertex 3.7 0 0.00999928
    endloop
  endfacet
  facet normal 0 0 -1
    outer loop
      vertex 3.75474 -6.50339 0.00999928
      vertex 3.55667 -1.01986 0.00999928
      vertex 3.66399 -0.51494 0.00999928
    endloop
  endfacet
  facet normal 0 0 -1
    outer loop
      vertex 3.75474 -6.50339 0.00999928
      vertex 3.38012 -1.50492 0.00999928
      vertex 3.55667 -1.01986 0.00999928
    endloop
  endfacet
  facet normal 0 0 -1
    outer loop
      vertex 3.75474 -6.50339 0.00999928
      vertex 3.13778 -1.9607 0.00999928
      vertex 3.38012 -1.50492 0.00999928
    endloop
  endfacet
  facet normal 0 0 -1
    outer loop
      vertex 3.75474 -6.50339 0.00999928
      vertex 2.83436 -2.37831 0.00999928
      vertex 3.13778 -1.9607 0.00999928
    endloop
  endfacet
  facet normal 0 0 -1
    outer loop
      vertex 3.75474 -6.50339 0.00999928
      vertex 2.47578 -2.74964 0.00999928
      vertex 2.83436 -2.37831 0.00999928
    endloop
  endfacet
  facet normal 0 0 -1
    outer loop
      vertex 3.75474 -6.50339 0.00999928
      vertex 2.06901 -3.06744 0.00999928
      vertex 2.47578 -2.74964 0.00999928
    endloop
  endfacet
  facet normal 0 0 -1
    outer loop
      vertex 3.75474 -6.50339 0.00999928
      vertex 1.62197 -3.32554 0.00999928
      vertex 2.06901 -3.06744 0.00999928
    endloop
  endfacet
  facet normal 0 0 -1
    outer loop
      vertex 3.75474 -6.50339 0.00999928
      vertex 1.14336 -3.51891 0.00999928
      vertex 1.62197 -3.32554 0.00999928
    endloop
  endfacet
  facet normal 0 0 -1
    outer loop
      vertex 3.75474 -6.50339 0.00999928
      vertex 0.642498 -3.64379 0.00999928
      vertex 1.14336 -3.51891 0.00999928
    endloop
  endfacet
  facet normal 0 0 -1
    outer loop
      vertex 3.75474 -6.50339 0.00999928
      vertex 0.129128 -3.69775 0.00999928
      vertex 0.642498 -3.64379 0.00999928
    endloop
  endfacet
  facet normal 0 0 -1
    outer loop
      vertex 3.75474 -6.50339 0.00999928
      vertex -0.386755 -3.67973 0.00999928
      vertex 0.129128 -3.69775 0.00999928
    endloop
  endfacet
  facet normal 0 0 -1
    outer loop
      vertex 3.75474 -6.50339 0.00999928
      vertex -0.89511 -3.59009 0.00999928
      vertex -0.386755 -3.67973 0.00999928
    endloop
  endfacet
  facet normal 0 0 -1
    outer loop
      vertex 3.75474 -6.50339 0.00999928
      vertex -1.38604 -3.43058 0.00999928
      vertex -0.89511 -3.59009 0.00999928
    endloop
  endfacet
  facet normal 0 0 -1
    outer loop
      vertex 3.75474 -6.50339 0.00999928
      vertex -1.85 -3.20429 0.00999928
      vertex -1.38604 -3.43058 0.00999928
    endloop
  endfacet
  facet normal 0 0 -1
    outer loop
      vertex -3.69099 -0.258099 0.00999928
      vertex -7.50947 0 0.00999928
      vertex -3.69099 0.258099 0.00999928
    endloop
  endfacet
  facet normal 0 0 -1
    outer loop
      vertex -3.61915 -0.769273 0.00999928
      vertex -7.50947 0 0.00999928
      vertex -3.69099 -0.258099 0.00999928
    endloop
  endfacet
  facet normal 0 0 -1
    outer loop
      vertex -3.47686 -1.26547 0.00999928
      vertex -7.50947 0 0.00999928
      vertex -3.61915 -0.769273 0.00999928
    endloop
  endfacet
  facet normal 0 0 -1
    outer loop
      vertex -3.26691 -1.73704 0.00999928
      vertex -7.50947 0 0.00999928
      vertex -3.47686 -1.26547 0.00999928
    endloop
  endfacet
  facet normal 0 0 -1
    outer loop
      vertex -2.99336 -2.1748 0.00999928
      vertex -7.50947 0 0.00999928
      vertex -3.26691 -1.73704 0.00999928
    endloop
  endfacet
  facet normal 0 0 -1
    outer loop
      vertex -2.66156 -2.57024 0.00999928
      vertex -7.50947 0 0.00999928
      vertex -2.99336 -2.1748 0.00999928
    endloop
  endfacet
  facet normal 0 0 -1
    outer loop
      vertex -2.27795 -2.91564 0.00999928
      vertex -7.50947 0 0.00999928
      vertex -2.66156 -2.57024 0.00999928
    endloop
  endfacet
  facet normal 0 0 -1
    outer loop
      vertex -1.85 -3.20429 0.00999928
      vertex -7.50947 0 0.00999928
      vertex -2.27795 -2.91564 0.00999928
    endloop
  endfacet
  facet normal 0 0 -1
    outer loop
      vertex -7.50947 0 0.00999928
      vertex -1.85 -3.20429 0.00999928
      vertex 3.75474 -6.50339 0.00999928
    endloop
  endfacet
  facet normal 0 0 -1
    outer loop
      vertex 3.66399 0.51494 0.00999928
      vertex 3.75474 6.50339 0.00999928
      vertex 3.7 0 0.00999928
    endloop
  endfacet
  facet normal 0 0 -1
    outer loop
      vertex 3.55667 1.01986 0.00999928
      vertex 3.75474 6.50339 0.00999928
      vertex 3.66399 0.51494 0.00999928
    endloop
  endfacet
  facet normal 0 0 -1
    outer loop
      vertex 3.38012 1.50492 0.00999928
      vertex 3.75474 6.50339 0.00999928
      vertex 3.55667 1.01986 0.00999928
    endloop
  endfacet
  facet normal 0 0 -1
    outer loop
      vertex 3.13778 1.9607 0.00999928
      vertex 3.75474 6.50339 0.00999928
      vertex 3.38012 1.50492 0.00999928
    endloop
  endfacet
  facet normal 0 0 -1
    outer loop
      vertex 2.83436 2.37831 0.00999928
      vertex 3.75474 6.50339 0.00999928
      vertex 3.13778 1.9607 0.00999928
    endloop
  endfacet
  facet normal 0 0 -1
    outer loop
      vertex 2.47578 2.74964 0.00999928
      vertex 3.75474 6.50339 0.00999928
      vertex 2.83436 2.37831 0.00999928
    endloop
  endfacet
  facet normal 0 0 -1
    outer loop
      vertex 2.06901 3.06744 0.00999928
      vertex 3.75474 6.50339 0.00999928
      vertex 2.47578 2.74964 0.00999928
    endloop
  endfacet
  facet normal 0 0 -1
    outer loop
      vertex 1.62197 3.32554 0.00999928
      vertex 3.75474 6.50339 0.00999928
      vertex 2.06901 3.06744 0.00999928
    endloop
  endfacet
  facet normal 0 0 -1
    outer loop
      vertex 1.14336 3.51891 0.00999928
      vertex 3.75474 6.50339 0.00999928
      vertex 1.62197 3.32554 0.00999928
    endloop
  endfacet
  facet normal 0 0 -1
    outer loop
      vertex 0.642498 3.64379 0.00999928
      vertex 3.75474 6.50339 0.00999928
      vertex 1.14336 3.51891 0.00999928
    endloop
  endfacet
  facet normal 0 0 -1
    outer loop
      vertex 0.129128 3.69775 0.00999928
      vertex 3.75474 6.50339 0.00999928
      vertex 0.642498 3.64379 0.00999928
    endloop
  endfacet
  facet normal 0 0 -1
    outer loop
      vertex -0.386755 3.67973 0.00999928
      vertex 3.75474 6.50339 0.00999928
      vertex 0.129128 3.69775 0.00999928
    endloop
  endfacet
  facet normal 0 0 -1
    outer loop
      vertex -0.89511 3.59009 0.00999928
      vertex 3.75474 6.50339 0.00999928
      vertex -0.386755 3.67973 0.00999928
    endloop
  endfacet
  facet normal 0 0 -1
    outer loop
      vertex -1.38604 3.43058 0.00999928
      vertex 3.75474 6.50339 0.00999928
      vertex -0.89511 3.59009 0.00999928
    endloop
  endfacet
  facet normal 0 0 -1
    outer loop
      vertex -1.85 3.20429 0.00999928
      vertex 3.75474 6.50339 0.00999928
      vertex -1.38604 3.43058 0.00999928
    endloop
  endfacet
  facet normal -0 0 -1
    outer loop
      vertex -1.85 3.20429 0.00999928
      vertex -7.50947 0 0.00999928
      vertex 3.75474 6.50339 0.00999928
    endloop
  endfacet
  facet normal -0 0 -1
    outer loop
      vertex -2.27795 2.91564 0.00999928
      vertex -7.50947 0 0.00999928
      vertex -1.85 3.20429 0.00999928
    endloop
  endfacet
  facet normal -0 0 -1
    outer loop
      vertex -2.66156 2.57024 0.00999928
      vertex -7.50947 0 0.00999928
      vertex -2.27795 2.91564 0.00999928
    endloop
  endfacet
  facet normal -0 0 -1
    outer loop
      vertex -2.99336 2.1748 0.00999928
      vertex -7.50947 0 0.00999928
      vertex -2.66156 2.57024 0.00999928
    endloop
  endfacet
  facet normal -0 0 -1
    outer loop
      vertex -3.26691 1.73704 0.00999928
      vertex -7.50947 0 0.00999928
      vertex -2.99336 2.1748 0.00999928
    endloop
  endfacet
  facet normal -0 0 -1
    outer loop
      vertex -3.47686 1.26547 0.00999928
      vertex -7.50947 0 0.00999928
      vertex -3.26691 1.73704 0.00999928
    endloop
  endfacet
  facet normal -0 0 -1
    outer loop
      vertex -3.61915 0.769273 0.00999928
      vertex -7.50947 0 0.00999928
      vertex -3.47686 1.26547 0.00999928
    endloop
  endfacet
  facet normal 0 0 -1
    outer loop
      vertex -7.50947 0 0.00999928
      vertex -3.61915 0.769273 0.00999928
      vertex -3.69099 0.258099 0.00999928
    endloop
  endfacet
endsolid OpenSCAD_Model
