solid OpenSCAD_Model
  facet normal -0.816497 -1.24052e-08 0.57735
    outer loop
      vertex 0 0 16.5167
      vertex -10.6145 0 1.50555
      vertex -5.30723 -9.19239 9.01111
    endloop
  endfacet
  facet normal -0.408248 0.707107 -0.57735
    outer loop
      vertex -8.49942 0 0.00999928
      vertex 5.30723 9.19239 1.50555
      vertex 4.24971 7.36072 0.00999928
    endloop
  endfacet
  facet normal -0.408248 0.707107 -0.57735
    outer loop
      vertex 5.30723 9.19239 1.50555
      vertex -8.49942 0 0.00999928
      vertex -10.6145 0 1.50555
    endloop
  endfacet
  facet normal -0.408248 -0.707107 -0.57735
    outer loop
      vertex -8.49942 0 0.00999928
      vertex 5.30723 -9.19239 1.50555
      vertex -10.6145 0 1.50555
    endloop
  endfacet
  facet normal -0.408248 -0.707107 -0.57735
    outer loop
      vertex 5.30723 -9.19239 1.50555
      vertex -8.49942 0 0.00999928
      vertex 4.24971 -7.36072 0.00999928
    endloop
  endfacet
  facet normal -0.816497 1.24052e-08 0.57735
    outer loop
      vertex -5.30723 9.19239 9.01111
      vertex -10.6145 0 1.50555
      vertex 0 0 16.5167
    endloop
  endfacet
  facet normal 0.816497 7.89114e-08 -0.57735
    outer loop
      vertex 10.6145 0 9.01111
      vertex 4.24971 7.36072 0.00999928
      vertex 5.30723 9.19239 1.50555
    endloop
  endfacet
  facet normal 0.816497 0 -0.57735
    outer loop
      vertex 4.24971 7.36072 0.00999928
      vertex 10.6145 0 9.01111
      vertex 4.24971 0 0.00999928
    endloop
  endfacet
  facet normal 0.816497 0 -0.57735
    outer loop
      vertex 10.6145 0 9.01111
      vertex 4.24971 -7.36072 0.00999928
      vertex 4.24971 0 0.00999928
    endloop
  endfacet
  facet normal 0.816497 -7.89114e-08 -0.57735
    outer loop
      vertex 4.24971 -7.36072 0.00999928
      vertex 10.6145 0 9.01111
      vertex 5.30723 -9.19239 1.50555
    endloop
  endfacet
  facet normal 0.408248 0.707107 0.57735
    outer loop
      vertex 10.6145 0 9.01111
      vertex -5.30723 9.19239 9.01111
      vertex 0 0 16.5167
    endloop
  endfacet
  facet normal 0.408248 -0.707107 0.57735
    outer loop
      vertex 0 0 16.5167
      vertex -5.30723 -9.19239 9.01111
      vertex 10.6145 0 9.01111
    endloop
  endfacet
  facet normal 0.408248 0.707107 0.57735
    outer loop
      vertex 5.30723 9.19239 1.50555
      vertex -5.30723 9.19239 9.01111
      vertex 10.6145 0 9.01111
    endloop
  endfacet
  facet normal -0.408248 0.707107 -0.57735
    outer loop
      vertex 5.30723 9.19239 1.50555
      vertex -10.6145 0 1.50555
      vertex -5.30723 9.19239 9.01111
    endloop
  endfacet
  facet normal 0.408248 -0.707107 0.57735
    outer loop
      vertex 10.6145 0 9.01111
      vertex -5.30723 -9.19239 9.01111
      vertex 5.30723 -9.19239 1.50555
    endloop
  endfacet
  facet normal -0.408248 -0.707107 -0.57735
    outer loop
      vertex -5.30723 -9.19239 9.01111
      vertex -10.6145 0 1.50555
      vertex 5.30723 -9.19239 1.50555
    endloop
  endfacet
  facet normal -0.997564 -0.0697571 0
    outer loop
      vertex 4 0 0.00999928
      vertex 3.96107 0.556692 5
      vertex 3.96107 0.556692 0.00999928
    endloop
  endfacet
  facet normal -0.997564 -0.0697571 0
    outer loop
      vertex 3.96107 0.556692 5
      vertex 4 0 0.00999928
      vertex 4 0 5
    endloop
  endfacet
  facet normal 1 -0 0
    outer loop
      vertex -3.99026 -0.279025 5
      vertex -3.99026 0.279025 0.00999928
      vertex -3.99026 0.279025 5
    endloop
  endfacet
  facet normal 1 0 0
    outer loop
      vertex -3.99026 0.279025 0.00999928
      vertex -3.99026 -0.279025 5
      vertex -3.99026 -0.279025 0.00999928
    endloop
  endfacet
  facet normal 0.0348982 -0.999391 0
    outer loop
      vertex -0.418114 3.97809 0.00999928
      vertex 0.139598 3.99756 5
      vertex -0.418114 3.97809 5
    endloop
  endfacet
  facet normal 0.0348982 -0.999391 0
    outer loop
      vertex 0.139598 3.99756 5
      vertex -0.418114 3.97809 0.00999928
      vertex 0.139598 3.99756 0.00999928
    endloop
  endfacet
  facet normal -0.104527 0.994522 0
    outer loop
      vertex 0.694592 -3.93923 0.00999928
      vertex 0.139598 -3.99756 5
      vertex 0.694592 -3.93923 5
    endloop
  endfacet
  facet normal -0.104527 0.994522 0
    outer loop
      vertex 0.139598 -3.99756 5
      vertex 0.694592 -3.93923 0.00999928
      vertex 0.139598 -3.99756 0.00999928
    endloop
  endfacet
  facet normal -0.71934 -0.694658 0
    outer loop
      vertex 3.06418 2.57115 0.00999928
      vertex 2.67652 2.97258 5
      vertex 2.67652 2.97258 0.00999928
    endloop
  endfacet
  facet normal -0.71934 -0.694658 0
    outer loop
      vertex 2.67652 2.97258 5
      vertex 3.06418 2.57115 0.00999928
      vertex 3.06418 2.57115 5
    endloop
  endfacet
  facet normal 0.766044 -0.642788 0
    outer loop
      vertex -3.23607 2.35114 5
      vertex -2.87736 2.77863 0.00999928
      vertex -2.87736 2.77863 5
    endloop
  endfacet
  facet normal 0.766044 -0.642788 0
    outer loop
      vertex -2.87736 2.77863 0.00999928
      vertex -3.23607 2.35114 5
      vertex -3.23607 2.35114 0.00999928
    endloop
  endfacet
  facet normal 0.438371 -0.898794 0
    outer loop
      vertex -2 3.4641 0.00999928
      vertex -1.49843 3.70873 5
      vertex -2 3.4641 5
    endloop
  endfacet
  facet normal 0.438371 -0.898794 0
    outer loop
      vertex -1.49843 3.70873 5
      vertex -2 3.4641 0.00999928
      vertex -1.49843 3.70873 0.00999928
    endloop
  endfacet
  facet normal -0.939693 -0.342019 0
    outer loop
      vertex 3.84505 1.10255 0.00999928
      vertex 3.65418 1.62695 5
      vertex 3.65418 1.62695 0.00999928
    endloop
  endfacet
  facet normal -0.939693 -0.342019 0
    outer loop
      vertex 3.65418 1.62695 5
      vertex 3.84505 1.10255 0.00999928
      vertex 3.84505 1.10255 5
    endloop
  endfacet
  facet normal -0.978147 -0.207913 0
    outer loop
      vertex 3.96107 0.556692 0.00999928
      vertex 3.84505 1.10255 5
      vertex 3.84505 1.10255 0.00999928
    endloop
  endfacet
  facet normal -0.978147 -0.207913 0
    outer loop
      vertex 3.84505 1.10255 5
      vertex 3.96107 0.556692 0.00999928
      vertex 3.96107 0.556692 5
    endloop
  endfacet
  facet normal -0.374607 -0.927184 0
    outer loop
      vertex 1.23607 3.80423 0.00999928
      vertex 1.75348 3.59518 5
      vertex 1.23607 3.80423 5
    endloop
  endfacet
  facet normal -0.374607 -0.927184 -0
    outer loop
      vertex 1.75348 3.59518 5
      vertex 1.23607 3.80423 0.00999928
      vertex 1.75348 3.59518 0.00999928
    endloop
  endfacet
  facet normal -0.241922 -0.970296 0
    outer loop
      vertex 0.694592 3.93923 0.00999928
      vertex 1.23607 3.80423 5
      vertex 0.694592 3.93923 5
    endloop
  endfacet
  facet normal -0.241922 -0.970296 -0
    outer loop
      vertex 1.23607 3.80423 5
      vertex 0.694592 3.93923 0.00999928
      vertex 1.23607 3.80423 0.00999928
    endloop
  endfacet
  facet normal -0.615661 -0.788011 0
    outer loop
      vertex 2.23677 3.31615 0.00999928
      vertex 2.67652 2.97258 5
      vertex 2.23677 3.31615 5
    endloop
  endfacet
  facet normal -0.615661 -0.788011 -0
    outer loop
      vertex 2.67652 2.97258 5
      vertex 2.23677 3.31615 0.00999928
      vertex 2.67652 2.97258 0.00999928
    endloop
  endfacet
  facet normal 0.961262 -0.275637 0
    outer loop
      vertex -3.91259 0.831646 5
      vertex -3.75877 1.36808 0.00999928
      vertex -3.75877 1.36808 5
    endloop
  endfacet
  facet normal 0.961262 -0.275637 0
    outer loop
      vertex -3.75877 1.36808 0.00999928
      vertex -3.91259 0.831646 5
      vertex -3.91259 0.831646 0.00999928
    endloop
  endfacet
  facet normal 0.990268 -0.139172 0
    outer loop
      vertex -3.99026 0.279025 5
      vertex -3.91259 0.831646 0.00999928
      vertex -3.91259 0.831646 5
    endloop
  endfacet
  facet normal 0.990268 -0.139172 0
    outer loop
      vertex -3.91259 0.831646 0.00999928
      vertex -3.99026 0.279025 5
      vertex -3.99026 0.279025 0.00999928
    endloop
  endfacet
  facet normal 0 0 -1
    outer loop
      vertex 3.7 0 5
      vertex 4 0 5
      vertex 3.96107 -0.556692 5
    endloop
  endfacet
  facet normal 0 0 -1
    outer loop
      vertex 3.66399 -0.51494 5
      vertex 3.96107 -0.556692 5
      vertex 3.84505 -1.10255 5
    endloop
  endfacet
  facet normal 0 0 -1
    outer loop
      vertex 4 0 5
      vertex 3.7 0 5
      vertex 3.96107 0.556692 5
    endloop
  endfacet
  facet normal 0 0 -1
    outer loop
      vertex 3.66399 0.51494 5
      vertex 3.96107 0.556692 5
      vertex 3.7 0 5
    endloop
  endfacet
  facet normal 0 0 -1
    outer loop
      vertex 3.96107 -0.556692 5
      vertex 3.66399 -0.51494 5
      vertex 3.7 0 5
    endloop
  endfacet
  facet normal 0 0 -1
    outer loop
      vertex 3.55667 -1.01986 5
      vertex 3.84505 -1.10255 5
      vertex 3.65418 -1.62695 5
    endloop
  endfacet
  facet normal 0 0 -1
    outer loop
      vertex 3.84505 -1.10255 5
      vertex 3.55667 -1.01986 5
      vertex 3.66399 -0.51494 5
    endloop
  endfacet
  facet normal 0 0 -1
    outer loop
      vertex 3.38012 -1.50492 5
      vertex 3.65418 -1.62695 5
      vertex 3.39219 -2.11968 5
    endloop
  endfacet
  facet normal 0 0 -1
    outer loop
      vertex 3.65418 -1.62695 5
      vertex 3.38012 -1.50492 5
      vertex 3.55667 -1.01986 5
    endloop
  endfacet
  facet normal 0 0 -1
    outer loop
      vertex 3.39219 -2.11968 5
      vertex 3.13778 -1.9607 5
      vertex 3.38012 -1.50492 5
    endloop
  endfacet
  facet normal 0 0 -1
    outer loop
      vertex 3.06418 -2.57115 5
      vertex 3.13778 -1.9607 5
      vertex 3.39219 -2.11968 5
    endloop
  endfacet
  facet normal 0 0 -1
    outer loop
      vertex 3.06418 -2.57115 5
      vertex 2.83436 -2.37831 5
      vertex 3.13778 -1.9607 5
    endloop
  endfacet
  facet normal 0 0 -1
    outer loop
      vertex 2.67652 -2.97258 5
      vertex 2.83436 -2.37831 5
      vertex 3.06418 -2.57115 5
    endloop
  endfacet
  facet normal 0 0 -1
    outer loop
      vertex 2.67652 -2.97258 5
      vertex 2.47578 -2.74964 5
      vertex 2.83436 -2.37831 5
    endloop
  endfacet
  facet normal 0 0 -1
    outer loop
      vertex 2.23677 -3.31615 5
      vertex 2.47578 -2.74964 5
      vertex 2.67652 -2.97258 5
    endloop
  endfacet
  facet normal 0 0 -1
    outer loop
      vertex 2.23677 -3.31615 5
      vertex 2.06901 -3.06744 5
      vertex 2.47578 -2.74964 5
    endloop
  endfacet
  facet normal 0 0 -1
    outer loop
      vertex 1.75348 -3.59518 5
      vertex 2.06901 -3.06744 5
      vertex 2.23677 -3.31615 5
    endloop
  endfacet
  facet normal 0 0 -1
    outer loop
      vertex 1.75348 -3.59518 5
      vertex 1.62197 -3.32554 5
      vertex 2.06901 -3.06744 5
    endloop
  endfacet
  facet normal 0 0 -1
    outer loop
      vertex 1.23607 -3.80423 5
      vertex 1.62197 -3.32554 5
      vertex 1.75348 -3.59518 5
    endloop
  endfacet
  facet normal 0 0 -1
    outer loop
      vertex 1.23607 -3.80423 5
      vertex 1.14336 -3.51891 5
      vertex 1.62197 -3.32554 5
    endloop
  endfacet
  facet normal 0 0 -1
    outer loop
      vertex 0.694592 -3.93923 5
      vertex 1.14336 -3.51891 5
      vertex 1.23607 -3.80423 5
    endloop
  endfacet
  facet normal 0 0 -1
    outer loop
      vertex 0.694592 -3.93923 5
      vertex 0.642498 -3.64379 5
      vertex 1.14336 -3.51891 5
    endloop
  endfacet
  facet normal 0 0 -1
    outer loop
      vertex 0.139598 -3.99756 5
      vertex 0.642498 -3.64379 5
      vertex 0.694592 -3.93923 5
    endloop
  endfacet
  facet normal 0 0 -1
    outer loop
      vertex 0.139598 -3.99756 5
      vertex 0.129128 -3.69775 5
      vertex 0.642498 -3.64379 5
    endloop
  endfacet
  facet normal 0 0 -1
    outer loop
      vertex 0.139598 -3.99756 5
      vertex -0.386755 -3.67973 5
      vertex 0.129128 -3.69775 5
    endloop
  endfacet
  facet normal 0 0 -1
    outer loop
      vertex -0.418114 -3.97809 5
      vertex -0.386755 -3.67973 5
      vertex 0.139598 -3.99756 5
    endloop
  endfacet
  facet normal 0 0 -1
    outer loop
      vertex -0.418114 -3.97809 5
      vertex -0.89511 -3.59009 5
      vertex -0.386755 -3.67973 5
    endloop
  endfacet
  facet normal 0 0 -1
    outer loop
      vertex -0.967687 -3.88118 5
      vertex -0.89511 -3.59009 5
      vertex -0.418114 -3.97809 5
    endloop
  endfacet
  facet normal 0 0 -1
    outer loop
      vertex -0.967687 -3.88118 5
      vertex -1.38604 -3.43058 5
      vertex -0.89511 -3.59009 5
    endloop
  endfacet
  facet normal 0 0 -1
    outer loop
      vertex -1.49843 -3.70873 5
      vertex -1.38604 -3.43058 5
      vertex -0.967687 -3.88118 5
    endloop
  endfacet
  facet normal 0 0 -1
    outer loop
      vertex -1.49843 -3.70873 5
      vertex -1.85 -3.20429 5
      vertex -1.38604 -3.43058 5
    endloop
  endfacet
  facet normal 0 0 -1
    outer loop
      vertex -2 -3.4641 5
      vertex -1.85 -3.20429 5
      vertex -1.49843 -3.70873 5
    endloop
  endfacet
  facet normal 0 0 -1
    outer loop
      vertex -2 -3.4641 5
      vertex -2.27795 -2.91564 5
      vertex -1.85 -3.20429 5
    endloop
  endfacet
  facet normal 0 0 -1
    outer loop
      vertex -2.46265 -3.15204 5
      vertex -2.27795 -2.91564 5
      vertex -2 -3.4641 5
    endloop
  endfacet
  facet normal 0 0 -1
    outer loop
      vertex -2.46265 -3.15204 5
      vertex -2.66156 -2.57024 5
      vertex -2.27795 -2.91564 5
    endloop
  endfacet
  facet normal 0 0 -1
    outer loop
      vertex -2.87736 -2.77863 5
      vertex -2.66156 -2.57024 5
      vertex -2.46265 -3.15204 5
    endloop
  endfacet
  facet normal 0 0 -1
    outer loop
      vertex -2.87736 -2.77863 5
      vertex -2.99336 -2.1748 5
      vertex -2.66156 -2.57024 5
    endloop
  endfacet
  facet normal 0 0 -1
    outer loop
      vertex -3.23607 -2.35114 5
      vertex -2.99336 -2.1748 5
      vertex -2.87736 -2.77863 5
    endloop
  endfacet
  facet normal 0 0 -1
    outer loop
      vertex -3.23607 -2.35114 5
      vertex -3.26691 -1.73704 5
      vertex -2.99336 -2.1748 5
    endloop
  endfacet
  facet normal 0 0 -1
    outer loop
      vertex -3.53179 -1.87789 5
      vertex -3.26691 -1.73704 5
      vertex -3.23607 -2.35114 5
    endloop
  endfacet
  facet normal -0 0 -1
    outer loop
      vertex -3.26691 -1.73704 5
      vertex -3.53179 -1.87789 5
      vertex -3.47686 -1.26547 5
    endloop
  endfacet
  facet normal 0 0 -1
    outer loop
      vertex -3.75877 -1.36808 5
      vertex -3.47686 -1.26547 5
      vertex -3.53179 -1.87789 5
    endloop
  endfacet
  facet normal -0 0 -1
    outer loop
      vertex -3.47686 -1.26547 5
      vertex -3.75877 -1.36808 5
      vertex -3.61915 -0.769273 5
    endloop
  endfacet
  facet normal -0 0 -1
    outer loop
      vertex -3.61915 -0.769273 5
      vertex -3.91259 -0.831646 5
      vertex -3.69099 -0.258099 5
    endloop
  endfacet
  facet normal 0 0 -1
    outer loop
      vertex -3.91259 -0.831646 5
      vertex -3.61915 -0.769273 5
      vertex -3.75877 -1.36808 5
    endloop
  endfacet
  facet normal -0 0 -1
    outer loop
      vertex 3.96107 0.556692 5
      vertex 3.66399 0.51494 5
      vertex 3.84505 1.10255 5
    endloop
  endfacet
  facet normal 0 0 -1
    outer loop
      vertex 3.55667 1.01986 5
      vertex 3.84505 1.10255 5
      vertex 3.66399 0.51494 5
    endloop
  endfacet
  facet normal -0 0 -1
    outer loop
      vertex 3.84505 1.10255 5
      vertex 3.55667 1.01986 5
      vertex 3.65418 1.62695 5
    endloop
  endfacet
  facet normal 0 0 -1
    outer loop
      vertex 3.38012 1.50492 5
      vertex 3.65418 1.62695 5
      vertex 3.55667 1.01986 5
    endloop
  endfacet
  facet normal -0 0 -1
    outer loop
      vertex 3.65418 1.62695 5
      vertex 3.38012 1.50492 5
      vertex 3.39219 2.11968 5
    endloop
  endfacet
  facet normal 0 0 -1
    outer loop
      vertex 3.13778 1.9607 5
      vertex 3.39219 2.11968 5
      vertex 3.38012 1.50492 5
    endloop
  endfacet
  facet normal 0 0 -1
    outer loop
      vertex 3.13778 1.9607 5
      vertex 3.06418 2.57115 5
      vertex 3.39219 2.11968 5
    endloop
  endfacet
  facet normal 0 0 -1
    outer loop
      vertex 2.83436 2.37831 5
      vertex 3.06418 2.57115 5
      vertex 3.13778 1.9607 5
    endloop
  endfacet
  facet normal 0 0 -1
    outer loop
      vertex 2.83436 2.37831 5
      vertex 2.67652 2.97258 5
      vertex 3.06418 2.57115 5
    endloop
  endfacet
  facet normal 0 0 -1
    outer loop
      vertex 2.47578 2.74964 5
      vertex 2.67652 2.97258 5
      vertex 2.83436 2.37831 5
    endloop
  endfacet
  facet normal 0 0 -1
    outer loop
      vertex 2.47578 2.74964 5
      vertex 2.23677 3.31615 5
      vertex 2.67652 2.97258 5
    endloop
  endfacet
  facet normal 0 0 -1
    outer loop
      vertex 2.06901 3.06744 5
      vertex 2.23677 3.31615 5
      vertex 2.47578 2.74964 5
    endloop
  endfacet
  facet normal 0 0 -1
    outer loop
      vertex 2.06901 3.06744 5
      vertex 1.75348 3.59518 5
      vertex 2.23677 3.31615 5
    endloop
  endfacet
  facet normal 0 0 -1
    outer loop
      vertex 1.62197 3.32554 5
      vertex 1.75348 3.59518 5
      vertex 2.06901 3.06744 5
    endloop
  endfacet
  facet normal 0 0 -1
    outer loop
      vertex 1.62197 3.32554 5
      vertex 1.23607 3.80423 5
      vertex 1.75348 3.59518 5
    endloop
  endfacet
  facet normal 0 0 -1
    outer loop
      vertex 1.14336 3.51891 5
      vertex 1.23607 3.80423 5
      vertex 1.62197 3.32554 5
    endloop
  endfacet
  facet normal 0 0 -1
    outer loop
      vertex 1.14336 3.51891 5
      vertex 0.694592 3.93923 5
      vertex 1.23607 3.80423 5
    endloop
  endfacet
  facet normal 0 0 -1
    outer loop
      vertex 0.642498 3.64379 5
      vertex 0.694592 3.93923 5
      vertex 1.14336 3.51891 5
    endloop
  endfacet
  facet normal 0 0 -1
    outer loop
      vertex 0.642498 3.64379 5
      vertex 0.139598 3.99756 5
      vertex 0.694592 3.93923 5
    endloop
  endfacet
  facet normal 0 0 -1
    outer loop
      vertex 0.129128 3.69775 5
      vertex 0.139598 3.99756 5
      vertex 0.642498 3.64379 5
    endloop
  endfacet
  facet normal 0 0 -1
    outer loop
      vertex -0.386755 3.67973 5
      vertex 0.139598 3.99756 5
      vertex 0.129128 3.69775 5
    endloop
  endfacet
  facet normal 0 0 -1
    outer loop
      vertex -0.386755 3.67973 5
      vertex -0.418114 3.97809 5
      vertex 0.139598 3.99756 5
    endloop
  endfacet
  facet normal 0 0 -1
    outer loop
      vertex -0.89511 3.59009 5
      vertex -0.418114 3.97809 5
      vertex -0.386755 3.67973 5
    endloop
  endfacet
  facet normal 0 0 -1
    outer loop
      vertex -0.89511 3.59009 5
      vertex -0.967687 3.88118 5
      vertex -0.418114 3.97809 5
    endloop
  endfacet
  facet normal 0 0 -1
    outer loop
      vertex -1.38604 3.43058 5
      vertex -0.967687 3.88118 5
      vertex -0.89511 3.59009 5
    endloop
  endfacet
  facet normal 0 0 -1
    outer loop
      vertex -1.38604 3.43058 5
      vertex -1.49843 3.70873 5
      vertex -0.967687 3.88118 5
    endloop
  endfacet
  facet normal 0 0 -1
    outer loop
      vertex -1.85 3.20429 5
      vertex -1.49843 3.70873 5
      vertex -1.38604 3.43058 5
    endloop
  endfacet
  facet normal 0 0 -1
    outer loop
      vertex -1.85 3.20429 5
      vertex -2 3.4641 5
      vertex -1.49843 3.70873 5
    endloop
  endfacet
  facet normal 0 0 -1
    outer loop
      vertex -2.27795 2.91564 5
      vertex -2 3.4641 5
      vertex -1.85 3.20429 5
    endloop
  endfacet
  facet normal 0 0 -1
    outer loop
      vertex -2.27795 2.91564 5
      vertex -2.46265 3.15204 5
      vertex -2 3.4641 5
    endloop
  endfacet
  facet normal 0 0 -1
    outer loop
      vertex -2.66156 2.57024 5
      vertex -2.46265 3.15204 5
      vertex -2.27795 2.91564 5
    endloop
  endfacet
  facet normal 0 0 -1
    outer loop
      vertex -2.66156 2.57024 5
      vertex -2.87736 2.77863 5
      vertex -2.46265 3.15204 5
    endloop
  endfacet
  facet normal 0 0 -1
    outer loop
      vertex -2.99336 2.1748 5
      vertex -2.87736 2.77863 5
      vertex -2.66156 2.57024 5
    endloop
  endfacet
  facet normal 0 0 -1
    outer loop
      vertex -2.99336 2.1748 5
      vertex -3.23607 2.35114 5
      vertex -2.87736 2.77863 5
    endloop
  endfacet
  facet normal 0 0 -1
    outer loop
      vertex -3.26691 1.73704 5
      vertex -3.23607 2.35114 5
      vertex -2.99336 2.1748 5
    endloop
  endfacet
  facet normal 0 0 -1
    outer loop
      vertex -3.53179 1.87789 5
      vertex -3.26691 1.73704 5
      vertex -3.47686 1.26547 5
    endloop
  endfacet
  facet normal 0 0 -1
    outer loop
      vertex -3.26691 1.73704 5
      vertex -3.53179 1.87789 5
      vertex -3.23607 2.35114 5
    endloop
  endfacet
  facet normal 0 0 -1
    outer loop
      vertex -3.75877 1.36808 5
      vertex -3.47686 1.26547 5
      vertex -3.61915 0.769273 5
    endloop
  endfacet
  facet normal 0 0 -1
    outer loop
      vertex -3.91259 0.831646 5
      vertex -3.61915 0.769273 5
      vertex -3.69099 0.258099 5
    endloop
  endfacet
  facet normal 0 0 -1
    outer loop
      vertex -3.47686 1.26547 5
      vertex -3.75877 1.36808 5
      vertex -3.53179 1.87789 5
    endloop
  endfacet
  facet normal 0 0 -1
    outer loop
      vertex -3.99026 -0.279025 5
      vertex -3.69099 -0.258099 5
      vertex -3.91259 -0.831646 5
    endloop
  endfacet
  facet normal -0 0 -1
    outer loop
      vertex -3.69099 -0.258099 5
      vertex -3.99026 -0.279025 5
      vertex -3.69099 0.258099 5
    endloop
  endfacet
  facet normal 0 0 -1
    outer loop
      vertex -3.61915 0.769273 5
      vertex -3.91259 0.831646 5
      vertex -3.75877 1.36808 5
    endloop
  endfacet
  facet normal 0 0 -1
    outer loop
      vertex -3.99026 0.279025 5
      vertex -3.69099 0.258099 5
      vertex -3.99026 -0.279025 5
    endloop
  endfacet
  facet normal 0 0 -1
    outer loop
      vertex -3.69099 0.258099 5
      vertex -3.99026 0.279025 5
      vertex -3.91259 0.831646 5
    endloop
  endfacet
  facet normal 0.559192 -0.829038 0
    outer loop
      vertex -2.46265 3.15204 0.00999928
      vertex -2 3.4641 5
      vertex -2.46265 3.15204 5
    endloop
  endfacet
  facet normal 0.559192 -0.829038 0
    outer loop
      vertex -2 3.4641 5
      vertex -2.46265 3.15204 0.00999928
      vertex -2 3.4641 0.00999928
    endloop
  endfacet
  facet normal 0.173649 -0.984808 0
    outer loop
      vertex -0.967687 3.88118 0.00999928
      vertex -0.418114 3.97809 5
      vertex -0.967687 3.88118 5
    endloop
  endfacet
  facet normal 0.173649 -0.984808 0
    outer loop
      vertex -0.418114 3.97809 5
      vertex -0.967687 3.88118 0.00999928
      vertex -0.418114 3.97809 0.00999928
    endloop
  endfacet
  facet normal -0.978147 0.207913 0
    outer loop
      vertex 3.84505 -1.10255 0.00999928
      vertex 3.96107 -0.556692 5
      vertex 3.96107 -0.556692 0.00999928
    endloop
  endfacet
  facet normal -0.978147 0.207913 0
    outer loop
      vertex 3.96107 -0.556692 5
      vertex 3.84505 -1.10255 0.00999928
      vertex 3.84505 -1.10255 5
    endloop
  endfacet
  facet normal -0.241922 0.970296 0
    outer loop
      vertex 1.23607 -3.80423 0.00999928
      vertex 0.694592 -3.93923 5
      vertex 1.23607 -3.80423 5
    endloop
  endfacet
  facet normal -0.241922 0.970296 0
    outer loop
      vertex 0.694592 -3.93923 5
      vertex 1.23607 -3.80423 0.00999928
      vertex 0.694592 -3.93923 0.00999928
    endloop
  endfacet
  facet normal -0.5 0.866026 0
    outer loop
      vertex 2.23677 -3.31615 0.00999928
      vertex 1.75348 -3.59518 5
      vertex 2.23677 -3.31615 5
    endloop
  endfacet
  facet normal -0.5 0.866026 0
    outer loop
      vertex 1.75348 -3.59518 5
      vertex 2.23677 -3.31615 0.00999928
      vertex 1.75348 -3.59518 0.00999928
    endloop
  endfacet
  facet normal -0.809017 -0.587785 0
    outer loop
      vertex 3.39219 2.11968 0.00999928
      vertex 3.06418 2.57115 5
      vertex 3.06418 2.57115 0.00999928
    endloop
  endfacet
  facet normal -0.809017 -0.587785 0
    outer loop
      vertex 3.06418 2.57115 5
      vertex 3.39219 2.11968 0.00999928
      vertex 3.39219 2.11968 5
    endloop
  endfacet
  facet normal -0.882947 -0.469472 0
    outer loop
      vertex 3.65418 1.62695 0.00999928
      vertex 3.39219 2.11968 5
      vertex 3.39219 2.11968 0.00999928
    endloop
  endfacet
  facet normal -0.882947 -0.469472 0
    outer loop
      vertex 3.39219 2.11968 5
      vertex 3.65418 1.62695 0.00999928
      vertex 3.65418 1.62695 5
    endloop
  endfacet
  facet normal -0.104527 -0.994522 0
    outer loop
      vertex 0.139598 3.99756 0.00999928
      vertex 0.694592 3.93923 5
      vertex 0.139598 3.99756 5
    endloop
  endfacet
  facet normal -0.104527 -0.994522 -0
    outer loop
      vertex 0.694592 3.93923 5
      vertex 0.139598 3.99756 0.00999928
      vertex 0.694592 3.93923 0.00999928
    endloop
  endfacet
  facet normal -0.5 -0.866026 0
    outer loop
      vertex 1.75348 3.59518 0.00999928
      vertex 2.23677 3.31615 5
      vertex 1.75348 3.59518 5
    endloop
  endfacet
  facet normal -0.5 -0.866026 -0
    outer loop
      vertex 2.23677 3.31615 5
      vertex 1.75348 3.59518 0.00999928
      vertex 2.23677 3.31615 0.00999928
    endloop
  endfacet
  facet normal 0.913545 -0.406737 0
    outer loop
      vertex -3.75877 1.36808 5
      vertex -3.53179 1.87789 0.00999928
      vertex -3.53179 1.87789 5
    endloop
  endfacet
  facet normal 0.913545 -0.406737 0
    outer loop
      vertex -3.53179 1.87789 0.00999928
      vertex -3.75877 1.36808 5
      vertex -3.75877 1.36808 0.00999928
    endloop
  endfacet
  facet normal 0.848049 -0.529918 0
    outer loop
      vertex -3.53179 1.87789 5
      vertex -3.23607 2.35114 0.00999928
      vertex -3.23607 2.35114 5
    endloop
  endfacet
  facet normal 0.848049 -0.529918 0
    outer loop
      vertex -3.23607 2.35114 0.00999928
      vertex -3.53179 1.87789 5
      vertex -3.53179 1.87789 0.00999928
    endloop
  endfacet
  facet normal 0.669131 -0.743145 0
    outer loop
      vertex -2.87736 2.77863 0.00999928
      vertex -2.46265 3.15204 5
      vertex -2.87736 2.77863 5
    endloop
  endfacet
  facet normal 0.669131 -0.743145 0
    outer loop
      vertex -2.46265 3.15204 5
      vertex -2.87736 2.77863 0.00999928
      vertex -2.46265 3.15204 0.00999928
    endloop
  endfacet
  facet normal 0.309018 -0.951056 0
    outer loop
      vertex -1.49843 3.70873 0.00999928
      vertex -0.967687 3.88118 5
      vertex -1.49843 3.70873 5
    endloop
  endfacet
  facet normal 0.309018 -0.951056 0
    outer loop
      vertex -0.967687 3.88118 5
      vertex -1.49843 3.70873 0.00999928
      vertex -0.967687 3.88118 0.00999928
    endloop
  endfacet
  facet normal -0.997564 0.0697571 0
    outer loop
      vertex 3.96107 -0.556692 0.00999928
      vertex 4 0 5
      vertex 4 0 0.00999928
    endloop
  endfacet
  facet normal -0.997564 0.0697571 0
    outer loop
      vertex 4 0 5
      vertex 3.96107 -0.556692 0.00999928
      vertex 3.96107 -0.556692 5
    endloop
  endfacet
  facet normal -0.939693 0.342019 0
    outer loop
      vertex 3.65418 -1.62695 0.00999928
      vertex 3.84505 -1.10255 5
      vertex 3.84505 -1.10255 0.00999928
    endloop
  endfacet
  facet normal -0.939693 0.342019 0
    outer loop
      vertex 3.84505 -1.10255 5
      vertex 3.65418 -1.62695 0.00999928
      vertex 3.65418 -1.62695 5
    endloop
  endfacet
  facet normal 0.559193 0.829037 -0
    outer loop
      vertex -2 -3.4641 0.00999928
      vertex -2.46265 -3.15204 5
      vertex -2 -3.4641 5
    endloop
  endfacet
  facet normal 0.559193 0.829037 0
    outer loop
      vertex -2.46265 -3.15204 5
      vertex -2 -3.4641 0.00999928
      vertex -2.46265 -3.15204 0.00999928
    endloop
  endfacet
  facet normal 0.848049 0.529918 0
    outer loop
      vertex -3.23607 -2.35114 5
      vertex -3.53179 -1.87789 0.00999928
      vertex -3.53179 -1.87789 5
    endloop
  endfacet
  facet normal 0.848049 0.529918 0
    outer loop
      vertex -3.53179 -1.87789 0.00999928
      vertex -3.23607 -2.35114 5
      vertex -3.23607 -2.35114 0.00999928
    endloop
  endfacet
  facet normal 0.766044 0.642788 0
    outer loop
      vertex -2.87736 -2.77863 5
      vertex -3.23607 -2.35114 0.00999928
      vertex -3.23607 -2.35114 5
    endloop
  endfacet
  facet normal 0.766044 0.642788 0
    outer loop
      vertex -3.23607 -2.35114 0.00999928
      vertex -2.87736 -2.77863 5
      vertex -2.87736 -2.77863 0.00999928
    endloop
  endfacet
  facet normal -0.615661 0.788011 0
    outer loop
      vertex 2.67652 -2.97258 0.00999928
      vertex 2.23677 -3.31615 5
      vertex 2.67652 -2.97258 5
    endloop
  endfacet
  facet normal -0.615661 0.788011 0
    outer loop
      vertex 2.23677 -3.31615 5
      vertex 2.67652 -2.97258 0.00999928
      vertex 2.23677 -3.31615 0.00999928
    endloop
  endfacet
  facet normal 0.173649 0.984808 -0
    outer loop
      vertex -0.418114 -3.97809 0.00999928
      vertex -0.967687 -3.88118 5
      vertex -0.418114 -3.97809 5
    endloop
  endfacet
  facet normal 0.173649 0.984808 0
    outer loop
      vertex -0.967687 -3.88118 5
      vertex -0.418114 -3.97809 0.00999928
      vertex -0.967687 -3.88118 0.00999928
    endloop
  endfacet
  facet normal 0.309018 0.951056 -0
    outer loop
      vertex -0.967687 -3.88118 0.00999928
      vertex -1.49843 -3.70873 5
      vertex -0.967687 -3.88118 5
    endloop
  endfacet
  facet normal 0.309018 0.951056 0
    outer loop
      vertex -1.49843 -3.70873 5
      vertex -0.967687 -3.88118 0.00999928
      vertex -1.49843 -3.70873 0.00999928
    endloop
  endfacet
  facet normal 0.669131 0.743145 -0
    outer loop
      vertex -2.46265 -3.15204 0.00999928
      vertex -2.87736 -2.77863 5
      vertex -2.46265 -3.15204 5
    endloop
  endfacet
  facet normal 0.669131 0.743145 0
    outer loop
      vertex -2.87736 -2.77863 5
      vertex -2.46265 -3.15204 0.00999928
      vertex -2.87736 -2.77863 0.00999928
    endloop
  endfacet
  facet normal 0.961262 0.275637 0
    outer loop
      vertex -3.75877 -1.36808 5
      vertex -3.91259 -0.831646 0.00999928
      vertex -3.91259 -0.831646 5
    endloop
  endfacet
  facet normal 0.961262 0.275637 0
    outer loop
      vertex -3.91259 -0.831646 0.00999928
      vertex -3.75877 -1.36808 5
      vertex -3.75877 -1.36808 0.00999928
    endloop
  endfacet
  facet normal 0.990268 0.139172 0
    outer loop
      vertex -3.91259 -0.831646 5
      vertex -3.99026 -0.279025 0.00999928
      vertex -3.99026 -0.279025 5
    endloop
  endfacet
  facet normal 0.990268 0.139172 0
    outer loop
      vertex -3.99026 -0.279025 0.00999928
      vertex -3.91259 -0.831646 5
      vertex -3.91259 -0.831646 0.00999928
    endloop
  endfacet
  facet normal 0.913545 0.406737 0
    outer loop
      vertex -3.53179 -1.87789 5
      vertex -3.75877 -1.36808 0.00999928
      vertex -3.75877 -1.36808 5
    endloop
  endfacet
  facet normal 0.913545 0.406737 0
    outer loop
      vertex -3.75877 -1.36808 0.00999928
      vertex -3.53179 -1.87789 5
      vertex -3.53179 -1.87789 0.00999928
    endloop
  endfacet
  facet normal -0.71934 0.694658 0
    outer loop
      vertex 2.67652 -2.97258 0.00999928
      vertex 3.06418 -2.57115 5
      vertex 3.06418 -2.57115 0.00999928
    endloop
  endfacet
  facet normal -0.71934 0.694658 0
    outer loop
      vertex 3.06418 -2.57115 5
      vertex 2.67652 -2.97258 0.00999928
      vertex 2.67652 -2.97258 5
    endloop
  endfacet
  facet normal -0.374607 0.927184 0
    outer loop
      vertex 1.75348 -3.59518 0.00999928
      vertex 1.23607 -3.80423 5
      vertex 1.75348 -3.59518 5
    endloop
  endfacet
  facet normal -0.374607 0.927184 0
    outer loop
      vertex 1.23607 -3.80423 5
      vertex 1.75348 -3.59518 0.00999928
      vertex 1.23607 -3.80423 0.00999928
    endloop
  endfacet
  facet normal -0.882947 0.469472 0
    outer loop
      vertex 3.39219 -2.11968 0.00999928
      vertex 3.65418 -1.62695 5
      vertex 3.65418 -1.62695 0.00999928
    endloop
  endfacet
  facet normal -0.882947 0.469472 0
    outer loop
      vertex 3.65418 -1.62695 5
      vertex 3.39219 -2.11968 0.00999928
      vertex 3.39219 -2.11968 5
    endloop
  endfacet
  facet normal -0.809017 0.587785 0
    outer loop
      vertex 3.06418 -2.57115 0.00999928
      vertex 3.39219 -2.11968 5
      vertex 3.39219 -2.11968 0.00999928
    endloop
  endfacet
  facet normal -0.809017 0.587785 0
    outer loop
      vertex 3.39219 -2.11968 5
      vertex 3.06418 -2.57115 0.00999928
      vertex 3.06418 -2.57115 5
    endloop
  endfacet
  facet normal 0.0348982 0.999391 -0
    outer loop
      vertex 0.139598 -3.99756 0.00999928
      vertex -0.418114 -3.97809 5
      vertex 0.139598 -3.99756 5
    endloop
  endfacet
  facet normal 0.0348982 0.999391 0
    outer loop
      vertex -0.418114 -3.97809 5
      vertex 0.139598 -3.99756 0.00999928
      vertex -0.418114 -3.97809 0.00999928
    endloop
  endfacet
  facet normal 0.43837 0.898794 -0
    outer loop
      vertex -1.49843 -3.70873 0.00999928
      vertex -2 -3.4641 5
      vertex -1.49843 -3.70873 5
    endloop
  endfacet
  facet normal 0.43837 0.898794 0
    outer loop
      vertex -2 -3.4641 5
      vertex -1.49843 -3.70873 0.00999928
      vertex -2 -3.4641 0.00999928
    endloop
  endfacet
  facet normal -0.997564 -0.0697578 0
    outer loop
      vertex 3.7 0 5
      vertex 3.66399 0.51494 10
      vertex 3.66399 0.51494 5
    endloop
  endfacet
  facet normal -0.997564 -0.0697578 0
    outer loop
      vertex 3.66399 0.51494 10
      vertex 3.7 0 5
      vertex 3.7 0 10
    endloop
  endfacet
  facet normal 1 -0 0
    outer loop
      vertex -3.69099 -0.258099 10
      vertex -3.69099 0.258099 5
      vertex -3.69099 0.258099 10
    endloop
  endfacet
  facet normal 1 0 0
    outer loop
      vertex -3.69099 0.258099 5
      vertex -3.69099 -0.258099 10
      vertex -3.69099 -0.258099 5
    endloop
  endfacet
  facet normal 0.0348993 -0.999391 0
    outer loop
      vertex -0.386755 3.67973 5
      vertex 0.129128 3.69775 10
      vertex -0.386755 3.67973 10
    endloop
  endfacet
  facet normal 0.0348993 -0.999391 0
    outer loop
      vertex 0.129128 3.69775 10
      vertex -0.386755 3.67973 5
      vertex 0.129128 3.69775 5
    endloop
  endfacet
  facet normal -0.719339 -0.694659 0
    outer loop
      vertex 2.83436 2.37831 5
      vertex 2.47578 2.74964 10
      vertex 2.47578 2.74964 5
    endloop
  endfacet
  facet normal -0.719339 -0.694659 0
    outer loop
      vertex 2.47578 2.74964 10
      vertex 2.83436 2.37831 5
      vertex 2.83436 2.37831 10
    endloop
  endfacet
  facet normal 0.66913 -0.743145 0
    outer loop
      vertex -2.66156 2.57024 5
      vertex -2.27795 2.91564 10
      vertex -2.66156 2.57024 10
    endloop
  endfacet
  facet normal 0.66913 -0.743145 0
    outer loop
      vertex -2.27795 2.91564 10
      vertex -2.66156 2.57024 5
      vertex -2.27795 2.91564 5
    endloop
  endfacet
  facet normal 0.309016 -0.951057 0
    outer loop
      vertex -1.38604 3.43058 5
      vertex -0.89511 3.59009 10
      vertex -1.38604 3.43058 10
    endloop
  endfacet
  facet normal 0.309016 -0.951057 0
    outer loop
      vertex -0.89511 3.59009 10
      vertex -1.38604 3.43058 5
      vertex -0.89511 3.59009 5
    endloop
  endfacet
  facet normal -0.882948 -0.469471 0
    outer loop
      vertex 3.38012 1.50492 5
      vertex 3.13778 1.9607 10
      vertex 3.13778 1.9607 5
    endloop
  endfacet
  facet normal -0.882948 -0.469471 0
    outer loop
      vertex 3.13778 1.9607 10
      vertex 3.38012 1.50492 5
      vertex 3.38012 1.50492 10
    endloop
  endfacet
  facet normal -0.809017 -0.587785 0
    outer loop
      vertex 3.13778 1.9607 5
      vertex 2.83436 2.37831 10
      vertex 2.83436 2.37831 5
    endloop
  endfacet
  facet normal -0.809017 -0.587785 0
    outer loop
      vertex 2.83436 2.37831 10
      vertex 3.13778 1.9607 5
      vertex 3.13778 1.9607 10
    endloop
  endfacet
  facet normal -0.374606 -0.927184 0
    outer loop
      vertex 1.14336 3.51891 5
      vertex 1.62197 3.32554 10
      vertex 1.14336 3.51891 10
    endloop
  endfacet
  facet normal -0.374606 -0.927184 -0
    outer loop
      vertex 1.62197 3.32554 10
      vertex 1.14336 3.51891 5
      vertex 1.62197 3.32554 5
    endloop
  endfacet
  facet normal -0.241923 -0.970296 0
    outer loop
      vertex 0.642498 3.64379 5
      vertex 1.14336 3.51891 10
      vertex 0.642498 3.64379 10
    endloop
  endfacet
  facet normal -0.241923 -0.970296 -0
    outer loop
      vertex 1.14336 3.51891 10
      vertex 0.642498 3.64379 5
      vertex 1.14336 3.51891 5
    endloop
  endfacet
  facet normal -0.615661 -0.788011 0
    outer loop
      vertex 2.06901 3.06744 5
      vertex 2.47578 2.74964 10
      vertex 2.06901 3.06744 10
    endloop
  endfacet
  facet normal -0.615661 -0.788011 -0
    outer loop
      vertex 2.47578 2.74964 10
      vertex 2.06901 3.06744 5
      vertex 2.47578 2.74964 5
    endloop
  endfacet
  facet normal 0.913546 -0.406736 0
    outer loop
      vertex -3.47686 1.26547 10
      vertex -3.26691 1.73704 5
      vertex -3.26691 1.73704 10
    endloop
  endfacet
  facet normal 0.913546 -0.406736 0
    outer loop
      vertex -3.26691 1.73704 5
      vertex -3.47686 1.26547 10
      vertex -3.47686 1.26547 5
    endloop
  endfacet
  facet normal 0.848048 -0.52992 0
    outer loop
      vertex -3.26691 1.73704 10
      vertex -2.99336 2.1748 5
      vertex -2.99336 2.1748 10
    endloop
  endfacet
  facet normal 0.848048 -0.52992 0
    outer loop
      vertex -2.99336 2.1748 5
      vertex -3.26691 1.73704 10
      vertex -3.26691 1.73704 5
    endloop
  endfacet
  facet normal 0.990268 -0.139174 0
    outer loop
      vertex -3.69099 0.258099 10
      vertex -3.61915 0.769273 5
      vertex -3.61915 0.769273 10
    endloop
  endfacet
  facet normal 0.990268 -0.139174 0
    outer loop
      vertex -3.61915 0.769273 5
      vertex -3.69099 0.258099 10
      vertex -3.69099 0.258099 5
    endloop
  endfacet
  facet normal 0.559193 -0.829038 0
    outer loop
      vertex -2.27795 2.91564 5
      vertex -1.85 3.20429 10
      vertex -2.27795 2.91564 10
    endloop
  endfacet
  facet normal 0.559193 -0.829038 0
    outer loop
      vertex -1.85 3.20429 10
      vertex -2.27795 2.91564 5
      vertex -1.85 3.20429 5
    endloop
  endfacet
  facet normal 0.173648 -0.984808 0
    outer loop
      vertex -0.89511 3.59009 5
      vertex -0.386755 3.67973 10
      vertex -0.89511 3.59009 10
    endloop
  endfacet
  facet normal 0.173648 -0.984808 0
    outer loop
      vertex -0.386755 3.67973 10
      vertex -0.89511 3.59009 5
      vertex -0.386755 3.67973 5
    endloop
  endfacet
  facet normal -0.809017 0.587785 0
    outer loop
      vertex 2.83436 -2.37831 5
      vertex 3.13778 -1.9607 10
      vertex 3.13778 -1.9607 5
    endloop
  endfacet
  facet normal -0.809017 0.587785 0
    outer loop
      vertex 3.13778 -1.9607 10
      vertex 2.83436 -2.37831 5
      vertex 2.83436 -2.37831 10
    endloop
  endfacet
  facet normal -0.997564 0.0697578 0
    outer loop
      vertex 3.66399 -0.51494 5
      vertex 3.7 0 10
      vertex 3.7 0 5
    endloop
  endfacet
  facet normal -0.997564 0.0697578 0
    outer loop
      vertex 3.7 0 10
      vertex 3.66399 -0.51494 5
      vertex 3.66399 -0.51494 10
    endloop
  endfacet
  facet normal 0.173648 0.984808 -0
    outer loop
      vertex -0.386755 -3.67973 5
      vertex -0.89511 -3.59009 10
      vertex -0.386755 -3.67973 10
    endloop
  endfacet
  facet normal 0.173648 0.984808 0
    outer loop
      vertex -0.89511 -3.59009 10
      vertex -0.386755 -3.67973 5
      vertex -0.89511 -3.59009 5
    endloop
  endfacet
  facet normal -0.939693 -0.34202 0
    outer loop
      vertex 3.55667 1.01986 5
      vertex 3.38012 1.50492 10
      vertex 3.38012 1.50492 5
    endloop
  endfacet
  facet normal -0.939693 -0.34202 0
    outer loop
      vertex 3.38012 1.50492 10
      vertex 3.55667 1.01986 5
      vertex 3.55667 1.01986 10
    endloop
  endfacet
  facet normal -0.978148 -0.207912 0
    outer loop
      vertex 3.66399 0.51494 5
      vertex 3.55667 1.01986 10
      vertex 3.55667 1.01986 5
    endloop
  endfacet
  facet normal -0.978148 -0.207912 0
    outer loop
      vertex 3.55667 1.01986 10
      vertex 3.66399 0.51494 5
      vertex 3.66399 0.51494 10
    endloop
  endfacet
  facet normal -0.104528 -0.994522 0
    outer loop
      vertex 0.129128 3.69775 5
      vertex 0.642498 3.64379 10
      vertex 0.129128 3.69775 10
    endloop
  endfacet
  facet normal -0.104528 -0.994522 -0
    outer loop
      vertex 0.642498 3.64379 10
      vertex 0.129128 3.69775 5
      vertex 0.642498 3.64379 5
    endloop
  endfacet
  facet normal -0.500001 -0.866025 0
    outer loop
      vertex 1.62197 3.32554 5
      vertex 2.06901 3.06744 10
      vertex 1.62197 3.32554 10
    endloop
  endfacet
  facet normal -0.500001 -0.866025 -0
    outer loop
      vertex 2.06901 3.06744 10
      vertex 1.62197 3.32554 5
      vertex 2.06901 3.06744 5
    endloop
  endfacet
  facet normal 0.766045 -0.642787 0
    outer loop
      vertex -2.99336 2.1748 10
      vertex -2.66156 2.57024 5
      vertex -2.66156 2.57024 10
    endloop
  endfacet
  facet normal 0.766045 -0.642787 0
    outer loop
      vertex -2.66156 2.57024 5
      vertex -2.99336 2.1748 10
      vertex -2.99336 2.1748 5
    endloop
  endfacet
  facet normal 0.961262 -0.275637 0
    outer loop
      vertex -3.61915 0.769273 10
      vertex -3.47686 1.26547 5
      vertex -3.47686 1.26547 10
    endloop
  endfacet
  facet normal 0.961262 -0.275637 0
    outer loop
      vertex -3.47686 1.26547 5
      vertex -3.61915 0.769273 10
      vertex -3.61915 0.769273 5
    endloop
  endfacet
  facet normal 0 0 -1
    outer loop
      vertex 3.66399 -0.51494 10
      vertex 3.66399 0.51494 10
      vertex 3.7 0 10
    endloop
  endfacet
  facet normal 0 0 -1
    outer loop
      vertex 3.55667 -1.01986 10
      vertex 3.66399 0.51494 10
      vertex 3.66399 -0.51494 10
    endloop
  endfacet
  facet normal 0 0 -1
    outer loop
      vertex 3.55667 -1.01986 10
      vertex 3.55667 1.01986 10
      vertex 3.66399 0.51494 10
    endloop
  endfacet
  facet normal 0 0 -1
    outer loop
      vertex 3.38012 -1.50492 10
      vertex 3.55667 1.01986 10
      vertex 3.55667 -1.01986 10
    endloop
  endfacet
  facet normal 0 0 -1
    outer loop
      vertex 3.38012 -1.50492 10
      vertex 3.38012 1.50492 10
      vertex 3.55667 1.01986 10
    endloop
  endfacet
  facet normal 0 0 -1
    outer loop
      vertex 3.13778 -1.9607 10
      vertex 3.38012 1.50492 10
      vertex 3.38012 -1.50492 10
    endloop
  endfacet
  facet normal 0 0 -1
    outer loop
      vertex 3.13778 -1.9607 10
      vertex 3.13778 1.9607 10
      vertex 3.38012 1.50492 10
    endloop
  endfacet
  facet normal 0 0 -1
    outer loop
      vertex 2.83436 -2.37831 10
      vertex 3.13778 1.9607 10
      vertex 3.13778 -1.9607 10
    endloop
  endfacet
  facet normal 0 0 -1
    outer loop
      vertex 2.83436 -2.37831 10
      vertex 2.83436 2.37831 10
      vertex 3.13778 1.9607 10
    endloop
  endfacet
  facet normal 0 0 -1
    outer loop
      vertex 2.47578 -2.74964 10
      vertex 2.83436 2.37831 10
      vertex 2.83436 -2.37831 10
    endloop
  endfacet
  facet normal 0 0 -1
    outer loop
      vertex 2.47578 -2.74964 10
      vertex 2.47578 2.74964 10
      vertex 2.83436 2.37831 10
    endloop
  endfacet
  facet normal 0 0 -1
    outer loop
      vertex 2.06901 -3.06744 10
      vertex 2.47578 2.74964 10
      vertex 2.47578 -2.74964 10
    endloop
  endfacet
  facet normal 0 0 -1
    outer loop
      vertex 2.06901 -3.06744 10
      vertex 2.06901 3.06744 10
      vertex 2.47578 2.74964 10
    endloop
  endfacet
  facet normal 0 0 -1
    outer loop
      vertex 1.62197 -3.32554 10
      vertex 2.06901 3.06744 10
      vertex 2.06901 -3.06744 10
    endloop
  endfacet
  facet normal 0 0 -1
    outer loop
      vertex 1.62197 -3.32554 10
      vertex 1.62197 3.32554 10
      vertex 2.06901 3.06744 10
    endloop
  endfacet
  facet normal 0 0 -1
    outer loop
      vertex 1.14336 -3.51891 10
      vertex 1.62197 3.32554 10
      vertex 1.62197 -3.32554 10
    endloop
  endfacet
  facet normal 0 0 -1
    outer loop
      vertex 1.14336 -3.51891 10
      vertex 1.14336 3.51891 10
      vertex 1.62197 3.32554 10
    endloop
  endfacet
  facet normal 0 0 -1
    outer loop
      vertex 0.642498 -3.64379 10
      vertex 1.14336 3.51891 10
      vertex 1.14336 -3.51891 10
    endloop
  endfacet
  facet normal 0 0 -1
    outer loop
      vertex 0.642498 -3.64379 10
      vertex 0.642498 3.64379 10
      vertex 1.14336 3.51891 10
    endloop
  endfacet
  facet normal 0 0 -1
    outer loop
      vertex 0.129128 -3.69775 10
      vertex 0.642498 3.64379 10
      vertex 0.642498 -3.64379 10
    endloop
  endfacet
  facet normal 0 0 -1
    outer loop
      vertex 0.129128 -3.69775 10
      vertex 0.129128 3.69775 10
      vertex 0.642498 3.64379 10
    endloop
  endfacet
  facet normal 0 0 -1
    outer loop
      vertex -0.386755 -3.67973 10
      vertex 0.129128 3.69775 10
      vertex 0.129128 -3.69775 10
    endloop
  endfacet
  facet normal 0 0 -1
    outer loop
      vertex -0.386755 -3.67973 10
      vertex -0.386755 3.67973 10
      vertex 0.129128 3.69775 10
    endloop
  endfacet
  facet normal 0 0 -1
    outer loop
      vertex -0.89511 -3.59009 10
      vertex -0.386755 3.67973 10
      vertex -0.386755 -3.67973 10
    endloop
  endfacet
  facet normal 0 0 -1
    outer loop
      vertex -0.89511 -3.59009 10
      vertex -0.89511 3.59009 10
      vertex -0.386755 3.67973 10
    endloop
  endfacet
  facet normal 0 0 -1
    outer loop
      vertex -1.38604 -3.43058 10
      vertex -0.89511 3.59009 10
      vertex -0.89511 -3.59009 10
    endloop
  endfacet
  facet normal 0 0 -1
    outer loop
      vertex -1.38604 -3.43058 10
      vertex -1.38604 3.43058 10
      vertex -0.89511 3.59009 10
    endloop
  endfacet
  facet normal 0 0 -1
    outer loop
      vertex -1.85 -3.20429 10
      vertex -1.38604 3.43058 10
      vertex -1.38604 -3.43058 10
    endloop
  endfacet
  facet normal 0 0 -1
    outer loop
      vertex -1.85 -3.20429 10
      vertex -1.85 3.20429 10
      vertex -1.38604 3.43058 10
    endloop
  endfacet
  facet normal 0 0 -1
    outer loop
      vertex -2.27795 -2.91564 10
      vertex -1.85 3.20429 10
      vertex -1.85 -3.20429 10
    endloop
  endfacet
  facet normal 0 0 -1
    outer loop
      vertex -2.27795 -2.91564 10
      vertex -2.27795 2.91564 10
      vertex -1.85 3.20429 10
    endloop
  endfacet
  facet normal 0 0 -1
    outer loop
      vertex -2.66156 -2.57024 10
      vertex -2.27795 2.91564 10
      vertex -2.27795 -2.91564 10
    endloop
  endfacet
  facet normal 0 0 -1
    outer loop
      vertex -2.66156 -2.57024 10
      vertex -2.66156 2.57024 10
      vertex -2.27795 2.91564 10
    endloop
  endfacet
  facet normal 0 0 -1
    outer loop
      vertex -2.99336 -2.1748 10
      vertex -2.66156 2.57024 10
      vertex -2.66156 -2.57024 10
    endloop
  endfacet
  facet normal 0 0 -1
    outer loop
      vertex -2.99336 -2.1748 10
      vertex -2.99336 2.1748 10
      vertex -2.66156 2.57024 10
    endloop
  endfacet
  facet normal 0 0 -1
    outer loop
      vertex -3.26691 -1.73704 10
      vertex -2.99336 2.1748 10
      vertex -2.99336 -2.1748 10
    endloop
  endfacet
  facet normal 0 0 -1
    outer loop
      vertex -3.26691 -1.73704 10
      vertex -3.26691 1.73704 10
      vertex -2.99336 2.1748 10
    endloop
  endfacet
  facet normal 0 0 -1
    outer loop
      vertex -3.47686 -1.26547 10
      vertex -3.26691 1.73704 10
      vertex -3.26691 -1.73704 10
    endloop
  endfacet
  facet normal 0 0 -1
    outer loop
      vertex -3.47686 -1.26547 10
      vertex -3.47686 1.26547 10
      vertex -3.26691 1.73704 10
    endloop
  endfacet
  facet normal 0 0 -1
    outer loop
      vertex -3.61915 -0.769273 10
      vertex -3.47686 1.26547 10
      vertex -3.47686 -1.26547 10
    endloop
  endfacet
  facet normal 0 0 -1
    outer loop
      vertex -3.61915 -0.769273 10
      vertex -3.61915 0.769273 10
      vertex -3.47686 1.26547 10
    endloop
  endfacet
  facet normal 0 0 -1
    outer loop
      vertex -3.69099 -0.258099 10
      vertex -3.61915 0.769273 10
      vertex -3.61915 -0.769273 10
    endloop
  endfacet
  facet normal 0 0 -1
    outer loop
      vertex -3.61915 0.769273 10
      vertex -3.69099 -0.258099 10
      vertex -3.69099 0.258099 10
    endloop
  endfacet
  facet normal 0.438372 -0.898794 0
    outer loop
      vertex -1.85 3.20429 5
      vertex -1.38604 3.43058 10
      vertex -1.85 3.20429 10
    endloop
  endfacet
  facet normal 0.438372 -0.898794 0
    outer loop
      vertex -1.38604 3.43058 10
      vertex -1.85 3.20429 5
      vertex -1.38604 3.43058 5
    endloop
  endfacet
  facet normal -0.615661 0.788011 0
    outer loop
      vertex 2.47578 -2.74964 5
      vertex 2.06901 -3.06744 10
      vertex 2.47578 -2.74964 10
    endloop
  endfacet
  facet normal -0.615661 0.788011 0
    outer loop
      vertex 2.06901 -3.06744 10
      vertex 2.47578 -2.74964 5
      vertex 2.06901 -3.06744 5
    endloop
  endfacet
  facet normal -0.978148 0.207912 0
    outer loop
      vertex 3.55667 -1.01986 5
      vertex 3.66399 -0.51494 10
      vertex 3.66399 -0.51494 5
    endloop
  endfacet
  facet normal -0.978148 0.207912 0
    outer loop
      vertex 3.66399 -0.51494 10
      vertex 3.55667 -1.01986 5
      vertex 3.55667 -1.01986 10
    endloop
  endfacet
  facet normal 0.0348993 0.999391 -0
    outer loop
      vertex 0.129128 -3.69775 5
      vertex -0.386755 -3.67973 10
      vertex 0.129128 -3.69775 10
    endloop
  endfacet
  facet normal 0.0348993 0.999391 0
    outer loop
      vertex -0.386755 -3.67973 10
      vertex 0.129128 -3.69775 5
      vertex -0.386755 -3.67973 5
    endloop
  endfacet
  facet normal 0.913546 0.406736 0
    outer loop
      vertex -3.26691 -1.73704 10
      vertex -3.47686 -1.26547 5
      vertex -3.47686 -1.26547 10
    endloop
  endfacet
  facet normal 0.913546 0.406736 0
    outer loop
      vertex -3.47686 -1.26547 5
      vertex -3.26691 -1.73704 10
      vertex -3.26691 -1.73704 5
    endloop
  endfacet
  facet normal -0.241923 0.970296 0
    outer loop
      vertex 1.14336 -3.51891 5
      vertex 0.642498 -3.64379 10
      vertex 1.14336 -3.51891 10
    endloop
  endfacet
  facet normal -0.241923 0.970296 0
    outer loop
      vertex 0.642498 -3.64379 10
      vertex 1.14336 -3.51891 5
      vertex 0.642498 -3.64379 5
    endloop
  endfacet
  facet normal -0.719339 0.694659 0
    outer loop
      vertex 2.47578 -2.74964 5
      vertex 2.83436 -2.37831 10
      vertex 2.83436 -2.37831 5
    endloop
  endfacet
  facet normal -0.719339 0.694659 0
    outer loop
      vertex 2.83436 -2.37831 10
      vertex 2.47578 -2.74964 5
      vertex 2.47578 -2.74964 10
    endloop
  endfacet
  facet normal -0.939693 0.34202 0
    outer loop
      vertex 3.38012 -1.50492 5
      vertex 3.55667 -1.01986 10
      vertex 3.55667 -1.01986 5
    endloop
  endfacet
  facet normal -0.939693 0.34202 0
    outer loop
      vertex 3.55667 -1.01986 10
      vertex 3.38012 -1.50492 5
      vertex 3.38012 -1.50492 10
    endloop
  endfacet
  facet normal -0.882948 0.469471 0
    outer loop
      vertex 3.13778 -1.9607 5
      vertex 3.38012 -1.50492 10
      vertex 3.38012 -1.50492 5
    endloop
  endfacet
  facet normal -0.882948 0.469471 0
    outer loop
      vertex 3.38012 -1.50492 10
      vertex 3.13778 -1.9607 5
      vertex 3.13778 -1.9607 10
    endloop
  endfacet
  facet normal 0.309016 0.951057 -0
    outer loop
      vertex -0.89511 -3.59009 5
      vertex -1.38604 -3.43058 10
      vertex -0.89511 -3.59009 10
    endloop
  endfacet
  facet normal 0.309016 0.951057 0
    outer loop
      vertex -1.38604 -3.43058 10
      vertex -0.89511 -3.59009 5
      vertex -1.38604 -3.43058 5
    endloop
  endfacet
  facet normal 0.66913 0.743145 -0
    outer loop
      vertex -2.27795 -2.91564 5
      vertex -2.66156 -2.57024 10
      vertex -2.27795 -2.91564 10
    endloop
  endfacet
  facet normal 0.66913 0.743145 0
    outer loop
      vertex -2.66156 -2.57024 10
      vertex -2.27795 -2.91564 5
      vertex -2.66156 -2.57024 5
    endloop
  endfacet
  facet normal 0.990268 0.139174 0
    outer loop
      vertex -3.61915 -0.769273 10
      vertex -3.69099 -0.258099 5
      vertex -3.69099 -0.258099 10
    endloop
  endfacet
  facet normal 0.990268 0.139174 0
    outer loop
      vertex -3.69099 -0.258099 5
      vertex -3.61915 -0.769273 10
      vertex -3.61915 -0.769273 5
    endloop
  endfacet
  facet normal -0.374606 0.927184 0
    outer loop
      vertex 1.62197 -3.32554 5
      vertex 1.14336 -3.51891 10
      vertex 1.62197 -3.32554 10
    endloop
  endfacet
  facet normal -0.374606 0.927184 0
    outer loop
      vertex 1.14336 -3.51891 10
      vertex 1.62197 -3.32554 5
      vertex 1.14336 -3.51891 5
    endloop
  endfacet
  facet normal -0.500001 0.866025 0
    outer loop
      vertex 2.06901 -3.06744 5
      vertex 1.62197 -3.32554 10
      vertex 2.06901 -3.06744 10
    endloop
  endfacet
  facet normal -0.500001 0.866025 0
    outer loop
      vertex 1.62197 -3.32554 10
      vertex 2.06901 -3.06744 5
      vertex 1.62197 -3.32554 5
    endloop
  endfacet
  facet normal -0.104528 0.994522 0
    outer loop
      vertex 0.642498 -3.64379 5
      vertex 0.129128 -3.69775 10
      vertex 0.642498 -3.64379 10
    endloop
  endfacet
  facet normal -0.104528 0.994522 0
    outer loop
      vertex 0.129128 -3.69775 10
      vertex 0.642498 -3.64379 5
      vertex 0.129128 -3.69775 5
    endloop
  endfacet
  facet normal 0.559193 0.829038 -0
    outer loop
      vertex -1.85 -3.20429 5
      vertex -2.27795 -2.91564 10
      vertex -1.85 -3.20429 10
    endloop
  endfacet
  facet normal 0.559193 0.829038 0
    outer loop
      vertex -2.27795 -2.91564 10
      vertex -1.85 -3.20429 5
      vertex -2.27795 -2.91564 5
    endloop
  endfacet
  facet normal 0.766045 0.642787 0
    outer loop
      vertex -2.66156 -2.57024 10
      vertex -2.99336 -2.1748 5
      vertex -2.99336 -2.1748 10
    endloop
  endfacet
  facet normal 0.766045 0.642787 0
    outer loop
      vertex -2.99336 -2.1748 5
      vertex -2.66156 -2.57024 10
      vertex -2.66156 -2.57024 5
    endloop
  endfacet
  facet normal 0.848048 0.52992 0
    outer loop
      vertex -2.99336 -2.1748 10
      vertex -3.26691 -1.73704 5
      vertex -3.26691 -1.73704 10
    endloop
  endfacet
  facet normal 0.848048 0.52992 0
    outer loop
      vertex -3.26691 -1.73704 5
      vertex -2.99336 -2.1748 10
      vertex -2.99336 -2.1748 5
    endloop
  endfacet
  facet normal 0.961262 0.275637 0
    outer loop
      vertex -3.47686 -1.26547 10
      vertex -3.61915 -0.769273 5
      vertex -3.61915 -0.769273 10
    endloop
  endfacet
  facet normal 0.961262 0.275637 0
    outer loop
      vertex -3.61915 -0.769273 5
      vertex -3.47686 -1.26547 10
      vertex -3.47686 -1.26547 5
    endloop
  endfacet
  facet normal 0.438372 0.898794 -0
    outer loop
      vertex -1.38604 -3.43058 5
      vertex -1.85 -3.20429 10
      vertex -1.38604 -3.43058 10
    endloop
  endfacet
  facet normal 0.438372 0.898794 0
    outer loop
      vertex -1.85 -3.20429 10
      vertex -1.38604 -3.43058 5
      vertex -1.85 -3.20429 5
    endloop
  endfacet
  facet normal 0 0 -1
    outer loop
      vertex 3.84505 -1.10255 0.00999928
      vertex 4.24971 0 0.00999928
      vertex 4.24971 -7.36072 0.00999928
    endloop
  endfacet
  facet normal 0 0 -1
    outer loop
      vertex 3.96107 0.556692 0.00999928
      vertex 4.24971 0 0.00999928
      vertex 4 0 0.00999928
    endloop
  endfacet
  facet normal -0 0 -1
    outer loop
      vertex 4.24971 0 0.00999928
      vertex 3.96107 -0.556692 0.00999928
      vertex 4 0 0.00999928
    endloop
  endfacet
  facet normal 0 0 -1
    outer loop
      vertex 4.24971 0 0.00999928
      vertex 3.84505 -1.10255 0.00999928
      vertex 3.96107 -0.556692 0.00999928
    endloop
  endfacet
  facet normal 0 0 -1
    outer loop
      vertex 4.24971 -7.36072 0.00999928
      vertex 3.65418 -1.62695 0.00999928
      vertex 3.84505 -1.10255 0.00999928
    endloop
  endfacet
  facet normal 0 0 -1
    outer loop
      vertex 4.24971 -7.36072 0.00999928
      vertex 3.39219 -2.11968 0.00999928
      vertex 3.65418 -1.62695 0.00999928
    endloop
  endfacet
  facet normal 0 0 -1
    outer loop
      vertex 4.24971 -7.36072 0.00999928
      vertex 3.06418 -2.57115 0.00999928
      vertex 3.39219 -2.11968 0.00999928
    endloop
  endfacet
  facet normal 0 0 -1
    outer loop
      vertex 4.24971 -7.36072 0.00999928
      vertex 2.67652 -2.97258 0.00999928
      vertex 3.06418 -2.57115 0.00999928
    endloop
  endfacet
  facet normal 0 0 -1
    outer loop
      vertex 4.24971 -7.36072 0.00999928
      vertex 2.23677 -3.31615 0.00999928
      vertex 2.67652 -2.97258 0.00999928
    endloop
  endfacet
  facet normal 0 0 -1
    outer loop
      vertex 4.24971 -7.36072 0.00999928
      vertex 1.75348 -3.59518 0.00999928
      vertex 2.23677 -3.31615 0.00999928
    endloop
  endfacet
  facet normal 0 0 -1
    outer loop
      vertex 4.24971 -7.36072 0.00999928
      vertex 1.23607 -3.80423 0.00999928
      vertex 1.75348 -3.59518 0.00999928
    endloop
  endfacet
  facet normal 0 0 -1
    outer loop
      vertex 4.24971 -7.36072 0.00999928
      vertex 0.694592 -3.93923 0.00999928
      vertex 1.23607 -3.80423 0.00999928
    endloop
  endfacet
  facet normal 0 0 -1
    outer loop
      vertex 4.24971 -7.36072 0.00999928
      vertex 0.139598 -3.99756 0.00999928
      vertex 0.694592 -3.93923 0.00999928
    endloop
  endfacet
  facet normal 0 0 -1
    outer loop
      vertex 4.24971 -7.36072 0.00999928
      vertex -0.418114 -3.97809 0.00999928
      vertex 0.139598 -3.99756 0.00999928
    endloop
  endfacet
  facet normal 0 0 -1
    outer loop
      vertex 4.24971 -7.36072 0.00999928
      vertex -0.967687 -3.88118 0.00999928
      vertex -0.418114 -3.97809 0.00999928
    endloop
  endfacet
  facet normal 0 0 -1
    outer loop
      vertex 4.24971 -7.36072 0.00999928
      vertex -1.49843 -3.70873 0.00999928
      vertex -0.967687 -3.88118 0.00999928
    endloop
  endfacet
  facet normal 0 0 -1
    outer loop
      vertex 4.24971 -7.36072 0.00999928
      vertex -2 -3.4641 0.00999928
      vertex -1.49843 -3.70873 0.00999928
    endloop
  endfacet
  facet normal 0 0 -1
    outer loop
      vertex -3.99026 -0.279025 0.00999928
      vertex -8.49942 0 0.00999928
      vertex -3.99026 0.279025 0.00999928
    endloop
  endfacet
  facet normal 0 0 -1
    outer loop
      vertex -3.91259 -0.831646 0.00999928
      vertex -8.49942 0 0.00999928
      vertex -3.99026 -0.279025 0.00999928
    endloop
  endfacet
  facet normal 0 0 -1
    outer loop
      vertex -3.75877 -1.36808 0.00999928
      vertex -8.49942 0 0.00999928
      vertex -3.91259 -0.831646 0.00999928
    endloop
  endfacet
  facet normal 0 0 -1
    outer loop
      vertex -3.53179 -1.87789 0.00999928
      vertex -8.49942 0 0.00999928
      vertex -3.75877 -1.36808 0.00999928
    endloop
  endfacet
  facet normal 0 0 -1
    outer loop
      vertex -3.23607 -2.35114 0.00999928
      vertex -8.49942 0 0.00999928
      vertex -3.53179 -1.87789 0.00999928
    endloop
  endfacet
  facet normal 0 0 -1
    outer loop
      vertex -2.87736 -2.77863 0.00999928
      vertex -8.49942 0 0.00999928
      vertex -3.23607 -2.35114 0.00999928
    endloop
  endfacet
  facet normal 0 0 -1
    outer loop
      vertex -2.46265 -3.15204 0.00999928
      vertex -8.49942 0 0.00999928
      vertex -2.87736 -2.77863 0.00999928
    endloop
  endfacet
  facet normal 0 0 -1
    outer loop
      vertex -2 -3.4641 0.00999928
      vertex -8.49942 0 0.00999928
      vertex -2.46265 -3.15204 0.00999928
    endloop
  endfacet
  facet normal 0 0 -1
    outer loop
      vertex -8.49942 0 0.00999928
      vertex -2 -3.4641 0.00999928
      vertex 4.24971 -7.36072 0.00999928
    endloop
  endfacet
  facet normal 0 0 -1
    outer loop
      vertex 3.84505 1.10255 0.00999928
      vertex 4.24971 0 0.00999928
      vertex 3.96107 0.556692 0.00999928
    endloop
  endfacet
  facet normal 0 0 -1
    outer loop
      vertex 4.24971 0 0.00999928
      vertex 3.84505 1.10255 0.00999928
      vertex 4.24971 7.36072 0.00999928
    endloop
  endfacet
  facet normal 0 0 -1
    outer loop
      vertex 3.65418 1.62695 0.00999928
      vertex 4.24971 7.36072 0.00999928
      vertex 3.84505 1.10255 0.00999928
    endloop
  endfacet
  facet normal 0 0 -1
    outer loop
      vertex 3.39219 2.11968 0.00999928
      vertex 4.24971 7.36072 0.00999928
      vertex 3.65418 1.62695 0.00999928
    endloop
  endfacet
  facet normal 0 0 -1
    outer loop
      vertex 3.06418 2.57115 0.00999928
      vertex 4.24971 7.36072 0.00999928
      vertex 3.39219 2.11968 0.00999928
    endloop
  endfacet
  facet normal 0 0 -1
    outer loop
      vertex 2.67652 2.97258 0.00999928
      vertex 4.24971 7.36072 0.00999928
      vertex 3.06418 2.57115 0.00999928
    endloop
  endfacet
  facet normal 0 0 -1
    outer loop
      vertex 2.23677 3.31615 0.00999928
      vertex 4.24971 7.36072 0.00999928
      vertex 2.67652 2.97258 0.00999928
    endloop
  endfacet
  facet normal 0 0 -1
    outer loop
      vertex 1.75348 3.59518 0.00999928
      vertex 4.24971 7.36072 0.00999928
      vertex 2.23677 3.31615 0.00999928
    endloop
  endfacet
  facet normal 0 0 -1
    outer loop
      vertex 1.23607 3.80423 0.00999928
      vertex 4.24971 7.36072 0.00999928
      vertex 1.75348 3.59518 0.00999928
    endloop
  endfacet
  facet normal 0 0 -1
    outer loop
      vertex 0.694592 3.93923 0.00999928
      vertex 4.24971 7.36072 0.00999928
      vertex 1.23607 3.80423 0.00999928
    endloop
  endfacet
  facet normal 0 0 -1
    outer loop
      vertex 0.139598 3.99756 0.00999928
      vertex 4.24971 7.36072 0.00999928
      vertex 0.694592 3.93923 0.00999928
    endloop
  endfacet
  facet normal 0 0 -1
    outer loop
      vertex -0.418114 3.97809 0.00999928
      vertex 4.24971 7.36072 0.00999928
      vertex 0.139598 3.99756 0.00999928
    endloop
  endfacet
  facet normal 0 0 -1
    outer loop
      vertex -0.967687 3.88118 0.00999928
      vertex 4.24971 7.36072 0.00999928
      vertex -0.418114 3.97809 0.00999928
    endloop
  endfacet
  facet normal 0 0 -1
    outer loop
      vertex -1.49843 3.70873 0.00999928
      vertex 4.24971 7.36072 0.00999928
      vertex -0.967687 3.88118 0.00999928
    endloop
  endfacet
  facet normal 0 0 -1
    outer loop
      vertex -2 3.4641 0.00999928
      vertex 4.24971 7.36072 0.00999928
      vertex -1.49843 3.70873 0.00999928
    endloop
  endfacet
  facet normal -0 0 -1
    outer loop
      vertex -2 3.4641 0.00999928
      vertex -8.49942 0 0.00999928
      vertex 4.24971 7.36072 0.00999928
    endloop
  endfacet
  facet normal -0 0 -1
    outer loop
      vertex -2.46265 3.15204 0.00999928
      vertex -8.49942 0 0.00999928
      vertex -2 3.4641 0.00999928
    endloop
  endfacet
  facet normal -0 0 -1
    outer loop
      vertex -2.87736 2.77863 0.00999928
      vertex -8.49942 0 0.00999928
      vertex -2.46265 3.15204 0.00999928
    endloop
  endfacet
  facet normal -0 0 -1
    outer loop
      vertex -3.23607 2.35114 0.00999928
      vertex -8.49942 0 0.00999928
      vertex -2.87736 2.77863 0.00999928
    endloop
  endfacet
  facet normal -0 0 -1
    outer loop
      vertex -3.53179 1.87789 0.00999928
      vertex -8.49942 0 0.00999928
      vertex -3.23607 2.35114 0.00999928
    endloop
  endfacet
  facet normal -0 0 -1
    outer loop
      vertex -3.75877 1.36808 0.00999928
      vertex -8.49942 0 0.00999928
      vertex -3.53179 1.87789 0.00999928
    endloop
  endfacet
  facet normal -0 0 -1
    outer loop
      vertex -3.91259 0.831646 0.00999928
      vertex -8.49942 0 0.00999928
      vertex -3.75877 1.36808 0.00999928
    endloop
  endfacet
  facet normal 0 0 -1
    outer loop
      vertex -8.49942 0 0.00999928
      vertex -3.91259 0.831646 0.00999928
      vertex -3.99026 0.279025 0.00999928
    endloop
  endfacet
endsolid OpenSCAD_Model
