solid OpenSCAD_Model
  facet normal -0 0 1
    outer loop
      vertex -15 15.2 13.5
      vertex 5.2 -15 13.5
      vertex 5.2 15.2 13.5
    endloop
  endfacet
  facet normal 0 0 1
    outer loop
      vertex 5.2 -15 13.5
      vertex -15 15.2 13.5
      vertex -15 -15 13.5
    endloop
  endfacet
  facet normal 0 0 -1
    outer loop
      vertex -15 -15 -0.1
      vertex 5.2 15.2 -0.1
      vertex 5.2 -15 -0.1
    endloop
  endfacet
  facet normal -0 0 -1
    outer loop
      vertex 5.2 15.2 -0.1
      vertex -15 -15 -0.1
      vertex -15 15.2 -0.1
    endloop
  endfacet
  facet normal 0 -1 0
    outer loop
      vertex -15 -15 -0.1
      vertex 5.2 -15 13.5
      vertex -15 -15 13.5
    endloop
  endfacet
  facet normal 0 -1 -0
    outer loop
      vertex 5.2 -15 13.5
      vertex -15 -15 -0.1
      vertex 5.2 -15 -0.1
    endloop
  endfacet
  facet normal 1 -0 0
    outer loop
      vertex 5.2 -15 13.5
      vertex 5.2 15.2 -0.1
      vertex 5.2 15.2 13.5
    endloop
  endfacet
  facet normal 1 0 0
    outer loop
      vertex 5.2 15.2 -0.1
      vertex 5.2 -15 13.5
      vertex 5.2 -15 -0.1
    endloop
  endfacet
  facet normal 0 1 -0
    outer loop
      vertex 5.2 15.2 -0.1
      vertex -15 15.2 13.5
      vertex 5.2 15.2 13.5
    endloop
  endfacet
  facet normal 0 1 0
    outer loop
      vertex -15 15.2 13.5
      vertex 5.2 15.2 -0.1
      vertex -15 15.2 -0.1
    endloop
  endfacet
  facet normal -1 0 0
    outer loop
      vertex -15 -15 -0.1
      vertex -15 15.2 13.5
      vertex -15 15.2 -0.1
    endloop
  endfacet
  facet normal -1 -0 0
    outer loop
      vertex -15 15.2 13.5
      vertex -15 -15 -0.1
      vertex -15 -15 13.5
    endloop
  endfacet
endsolid OpenSCAD_Model
