solid OpenSCAD_Model
  facet normal -0.894427 0 0.447214
    outer loop
      vertex -48.9755 28.276 0
      vertex -47.1905 -27.2455 3.57
      vertex -47.1905 27.2455 3.57
    endloop
  endfacet
  facet normal -0.894427 0 0.447214
    outer loop
      vertex -47.1905 -27.2455 3.57
      vertex -48.9755 28.276 0
      vertex -48.9755 -28.276 0
    endloop
  endfacet
  facet normal 0.894427 0 0.447213
    outer loop
      vertex -43.6205 25.1843 3.57
      vertex -42.2355 -24.3847 0.799999
      vertex -42.2355 24.3847 0.799999
    endloop
  endfacet
  facet normal 0.894427 0 0.447213
    outer loop
      vertex -42.2355 -24.3847 0.799999
      vertex -43.6205 25.1843 3.57
      vertex -43.6205 -25.1843 3.57
    endloop
  endfacet
  facet normal -0.447215 0.774599 0.447209
    outer loop
      vertex -3.57 52.58 3.30977
      vertex -47.1905 27.2455 3.57
      vertex -3.57 52.4298 3.57
    endloop
  endfacet
  facet normal -0.447214 0.774597 0.447213
    outer loop
      vertex -47.1905 27.2455 3.57
      vertex -3.57 52.58 3.30977
      vertex -48.9755 28.276 0
    endloop
  endfacet
  facet normal -0.447214 0.774597 0.447214
    outer loop
      vertex -3.57 52.58 3.30977
      vertex -3.57 54.4909 0
      vertex -48.9755 28.276 0
    endloop
  endfacet
  facet normal 0.447214 -0.774597 0.447214
    outer loop
      vertex -42.2355 24.3847 0.799999
      vertex -9.7749 43.1258 0.799999
      vertex -43.6205 25.1843 3.57
    endloop
  endfacet
  facet normal 0.447214 -0.774597 0.447213
    outer loop
      vertex -9.7749 43.1258 0.799999
      vertex -1.785 49.3381 3.57
      vertex -43.6205 25.1843 3.57
    endloop
  endfacet
  facet normal 0.447214 -0.774597 0.447213
    outer loop
      vertex -1.785 49.3381 3.57
      vertex -9.7749 43.1258 0.799999
      vertex -0.399999 48.5384 0.799999
    endloop
  endfacet
  facet normal 0.447214 0.774597 0.447213
    outer loop
      vertex 3.57 52.4298 3.57
      vertex 47.1905 27.2455 3.57
      vertex 3.57 54.335 0.270073
    endloop
  endfacet
  facet normal 0.447214 0.774598 0.447211
    outer loop
      vertex 47.1905 27.2455 3.57
      vertex 3.57 54.4909 1.9752e-07
      vertex 3.57 54.335 0.270073
    endloop
  endfacet
  facet normal 0.447214 0.774597 0.447213
    outer loop
      vertex 48.9755 28.276 0
      vertex 3.57 54.4909 1.9752e-07
      vertex 47.1905 27.2455 3.57
    endloop
  endfacet
  facet normal 0.204359 0.353961 -0.912661
    outer loop
      vertex 3.57 54.4909 1.9752e-07
      vertex 48.9755 28.276 0
      vertex 1.51174 55.6793 0
    endloop
  endfacet
  facet normal -0.447214 -0.774597 0.447213
    outer loop
      vertex 32.4606 30.0282 0.799999
      vertex 1.71196 49.2959 3.42391
      vertex 0.399999 48.5384 0.799999
    endloop
  endfacet
  facet normal -0.447214 -0.774598 0.447211
    outer loop
      vertex 32.4606 30.0282 0.799999
      vertex 1.785 49.3381 3.57
      vertex 1.71196 49.2959 3.42391
    endloop
  endfacet
  facet normal -0.447214 -0.774597 0.447214
    outer loop
      vertex 1.785 49.3381 3.57
      vertex 32.4606 30.0282 0.799999
      vertex 43.6205 25.1843 3.57
    endloop
  endfacet
  facet normal -0.447214 -0.774597 0.447214
    outer loop
      vertex 43.6205 25.1843 3.57
      vertex 32.4606 30.0282 0.799999
      vertex 42.2355 24.3847 0.799999
    endloop
  endfacet
  facet normal 0.894427 -0 0.447214
    outer loop
      vertex 47.1905 -27.2455 3.57
      vertex 48.9755 28.276 0
      vertex 47.1905 27.2455 3.57
    endloop
  endfacet
  facet normal 0.894427 0 0.447214
    outer loop
      vertex 48.9755 28.276 0
      vertex 47.1905 -27.2455 3.57
      vertex 48.9755 -28.276 0
    endloop
  endfacet
  facet normal -0.894427 0 0.447213
    outer loop
      vertex 42.2355 -24.3847 0.799999
      vertex 43.6205 25.1843 3.57
      vertex 42.2355 24.3847 0.799999
    endloop
  endfacet
  facet normal -0.894427 0 0.447213
    outer loop
      vertex 43.6205 25.1843 3.57
      vertex 42.2355 -24.3847 0.799999
      vertex 43.6205 -25.1843 3.57
    endloop
  endfacet
  facet normal 0.447214 -0.774597 0.447213
    outer loop
      vertex 48.9755 -28.276 0
      vertex 47.1905 -27.2455 3.57
      vertex 0 -54.4909 3.57
    endloop
  endfacet
  facet normal 0.447214 -0.774597 0.447214
    outer loop
      vertex 48.9755 -28.276 0
      vertex 0 -54.4909 3.57
      vertex 0 -56.5521 0
    endloop
  endfacet
  facet normal -0.447214 0.774597 0.447214
    outer loop
      vertex 43.6205 -25.1843 3.57
      vertex 42.2355 -24.3847 0.799999
      vertex 9.7749 -43.1258 0.799999
    endloop
  endfacet
  facet normal -0.447214 0.774597 0.447214
    outer loop
      vertex 9.7749 -43.1258 0.799999
      vertex 0 -50.3686 3.57
      vertex 43.6205 -25.1843 3.57
    endloop
  endfacet
  facet normal -0.447213 0.774597 0.447214
    outer loop
      vertex 0 -50.3686 3.57
      vertex 9.7749 -43.1258 0.799999
      vertex 0 -48.7694 0.799999
    endloop
  endfacet
  facet normal -0.447214 -0.774597 0.447214
    outer loop
      vertex 0 -56.5521 0
      vertex 0 -54.4909 3.57
      vertex -47.1905 -27.2455 3.57
    endloop
  endfacet
  facet normal -0.447214 -0.774597 0.447213
    outer loop
      vertex 0 -56.5521 0
      vertex -47.1905 -27.2455 3.57
      vertex -48.9755 -28.276 0
    endloop
  endfacet
  facet normal 0 0 1
    outer loop
      vertex -3.57 52.4298 3.57
      vertex -21.2905 41.0615 3.57
      vertex -3.57 51.2924 3.57
    endloop
  endfacet
  facet normal 0 0 1
    outer loop
      vertex -43.6205 25.1843 3.57
      vertex -47.1905 27.2455 3.57
      vertex -43.6205 -25.1843 3.57
    endloop
  endfacet
  facet normal 0 0 1
    outer loop
      vertex -21.2905 41.0615 3.57
      vertex -47.1905 27.2455 3.57
      vertex -43.6205 25.1843 3.57
    endloop
  endfacet
  facet normal 0 0 1
    outer loop
      vertex -47.1905 27.2455 3.57
      vertex -21.2905 41.0615 3.57
      vertex -3.57 52.4298 3.57
    endloop
  endfacet
  facet normal 0 0 1
    outer loop
      vertex -20.8905 40.3687 3.57
      vertex -1.785 49.3381 3.57
      vertex -3.57 50.3686 3.57
    endloop
  endfacet
  facet normal -0 0 1
    outer loop
      vertex -20.8905 40.3687 3.57
      vertex -43.6205 25.1843 3.57
      vertex -1.785 49.3381 3.57
    endloop
  endfacet
  facet normal 0 0 1
    outer loop
      vertex -43.6205 25.1843 3.57
      vertex -20.8905 40.3687 3.57
      vertex -21.2905 41.0615 3.57
    endloop
  endfacet
  facet normal 0 0 1
    outer loop
      vertex 47.1905 27.2455 3.57
      vertex 43.6205 25.1843 3.57
      vertex 47.1905 -27.2455 3.57
    endloop
  endfacet
  facet normal 0 0 1
    outer loop
      vertex 47.1905 27.2455 3.57
      vertex 20.8905 40.3687 3.57
      vertex 43.6205 25.1843 3.57
    endloop
  endfacet
  facet normal 0 0 1
    outer loop
      vertex 3.57 52.4298 3.57
      vertex 20.8905 40.3687 3.57
      vertex 47.1905 27.2455 3.57
    endloop
  endfacet
  facet normal 0 0 1
    outer loop
      vertex 20.8905 40.3687 3.57
      vertex 3.57 52.4298 3.57
      vertex 3.57 50.3686 3.57
    endloop
  endfacet
  facet normal -0 0 1
    outer loop
      vertex 43.6205 -25.1843 3.57
      vertex 47.1905 -27.2455 3.57
      vertex 43.6205 25.1843 3.57
    endloop
  endfacet
  facet normal 0 0 1
    outer loop
      vertex 0 -50.3686 3.57
      vertex 47.1905 -27.2455 3.57
      vertex 43.6205 -25.1843 3.57
    endloop
  endfacet
  facet normal -0 0 1
    outer loop
      vertex 0 -50.3686 3.57
      vertex 0 -54.4909 3.57
      vertex 47.1905 -27.2455 3.57
    endloop
  endfacet
  facet normal 0 0 1
    outer loop
      vertex -43.6205 -25.1843 3.57
      vertex 0 -54.4909 3.57
      vertex 0 -50.3686 3.57
    endloop
  endfacet
  facet normal 0 0 1
    outer loop
      vertex -43.6205 -25.1843 3.57
      vertex -47.1905 -27.2455 3.57
      vertex 0 -54.4909 3.57
    endloop
  endfacet
  facet normal 0 0 1
    outer loop
      vertex -47.1905 -27.2455 3.57
      vertex -43.6205 -25.1843 3.57
      vertex -47.1905 27.2455 3.57
    endloop
  endfacet
  facet normal -0 0 1
    outer loop
      vertex 20.8631 40.3213 3.57
      vertex 43.6205 25.1843 3.57
      vertex 20.8905 40.3687 3.57
    endloop
  endfacet
  facet normal -0 0 1
    outer loop
      vertex 20.4905 39.6758 3.57
      vertex 43.6205 25.1843 3.57
      vertex 20.8631 40.3213 3.57
    endloop
  endfacet
  facet normal -0 0 1
    outer loop
      vertex 1.785 49.3381 3.57
      vertex 20.4905 39.6758 3.57
      vertex 2.77 49.9068 3.57
    endloop
  endfacet
  facet normal 0 0 1
    outer loop
      vertex 20.4905 39.6758 3.57
      vertex 1.785 49.3381 3.57
      vertex 43.6205 25.1843 3.57
    endloop
  endfacet
  facet normal 0.447213 0.774597 0.447214
    outer loop
      vertex 0 -50.3686 3.57
      vertex 0 -48.7694 0.799999
      vertex -32.4606 -30.0282 0.799999
    endloop
  endfacet
  facet normal 0.447214 0.774597 0.447214
    outer loop
      vertex -32.4606 -30.0282 0.799999
      vertex -43.6205 -25.1843 3.57
      vertex 0 -50.3686 3.57
    endloop
  endfacet
  facet normal 0.447214 0.774597 0.447214
    outer loop
      vertex -43.6205 -25.1843 3.57
      vertex -32.4606 -30.0282 0.799999
      vertex -42.2355 -24.3847 0.799999
    endloop
  endfacet
  facet normal 0 0 -1
    outer loop
      vertex 45.4055 -26.2149 0
      vertex 3.57 50.3686 0
      vertex 45.4055 26.2149 0
    endloop
  endfacet
  facet normal 0 0 -1
    outer loop
      vertex 0 -52.4298 0
      vertex 3.57 50.3686 0
      vertex 45.4055 -26.2149 0
    endloop
  endfacet
  facet normal 0 0 -1
    outer loop
      vertex -3.57 50.3686 0
      vertex 3.57 50.3686 0
      vertex 0 -52.4298 0
    endloop
  endfacet
  facet normal 0 0 -1
    outer loop
      vertex 3.57 50.3686 0
      vertex -3.57 50.3686 0
      vertex 1.51174 55.6793 0
    endloop
  endfacet
  facet normal 0 0 -1
    outer loop
      vertex -3.57 54.4909 0
      vertex 1.51174 55.6793 0
      vertex -3.57 50.3686 0
    endloop
  endfacet
  facet normal 0 0 -1
    outer loop
      vertex -45.4055 -26.2149 0
      vertex -3.57 50.3686 0
      vertex 0 -52.4298 0
    endloop
  endfacet
  facet normal 0 0 -1
    outer loop
      vertex -3.57 50.3686 0
      vertex -45.4055 -26.2149 0
      vertex -45.4055 26.2149 0
    endloop
  endfacet
  facet normal -0 0 -1
    outer loop
      vertex 3.57 54.4909 0
      vertex 3.57 50.3686 0
      vertex 1.51174 55.6793 0
    endloop
  endfacet
  facet normal -0 0 -1
    outer loop
      vertex 1.51174 55.6793 0
      vertex -3.57 54.4909 0
      vertex -1.94326e-07 56.5521 0
    endloop
  endfacet
  facet normal 0 0 -1
    outer loop
      vertex 48.9755 -28.276 0
      vertex 45.4055 -26.2149 0
      vertex 48.9755 28.276 0
    endloop
  endfacet
  facet normal 0 0 -1
    outer loop
      vertex 0 -56.5521 0
      vertex 45.4055 -26.2149 0
      vertex 48.9755 -28.276 0
    endloop
  endfacet
  facet normal 0 0 -1
    outer loop
      vertex 0 -56.5521 0
      vertex 0 -52.4298 0
      vertex 45.4055 -26.2149 0
    endloop
  endfacet
  facet normal 0 0 -1
    outer loop
      vertex 0 -56.5521 0
      vertex -45.4055 -26.2149 0
      vertex 0 -52.4298 0
    endloop
  endfacet
  facet normal -0 0 -1
    outer loop
      vertex -45.4055 -26.2149 0
      vertex -48.9755 -28.276 0
      vertex -45.4055 26.2149 0
    endloop
  endfacet
  facet normal 0 0 -1
    outer loop
      vertex -48.9755 -28.276 0
      vertex -45.4055 -26.2149 0
      vertex 0 -56.5521 0
    endloop
  endfacet
  facet normal 0 0 -1
    outer loop
      vertex 45.4055 26.2149 0
      vertex 48.9755 28.276 0
      vertex 45.4055 -26.2149 0
    endloop
  endfacet
  facet normal 0 0 -1
    outer loop
      vertex 3.57 50.3686 0
      vertex 48.9755 28.276 0
      vertex 45.4055 26.2149 0
    endloop
  endfacet
  facet normal 0 0 -1
    outer loop
      vertex 48.9755 28.276 0
      vertex 3.57 50.3686 0
      vertex 3.57 54.4909 0
    endloop
  endfacet
  facet normal 0 0 -1
    outer loop
      vertex -45.4055 26.2149 0
      vertex -3.57 54.4909 0
      vertex -3.57 50.3686 0
    endloop
  endfacet
  facet normal 0 0 -1
    outer loop
      vertex -45.4055 26.2149 0
      vertex -48.9755 28.276 0
      vertex -3.57 54.4909 0
    endloop
  endfacet
  facet normal 0 0 -1
    outer loop
      vertex -48.9755 28.276 0
      vertex -45.4055 26.2149 0
      vertex -48.9755 -28.276 0
    endloop
  endfacet
  facet normal 0 0 1
    outer loop
      vertex 48.9755 28.276 0
      vertex 3.57 54.4909 0
      vertex 1.51174 55.6793 0
    endloop
  endfacet
  facet normal 0.5 0.866025 0
    outer loop
      vertex 1.51174 55.6793 0
      vertex 3.57 54.4909 5
      vertex 3.57 54.4909 1.9752e-07
    endloop
  endfacet
  facet normal 0.5 0.866025 -2.69771e-07
    outer loop
      vertex 3.57 54.4909 5
      vertex 1.51174 55.6793 0
      vertex -1.94326e-07 56.5521 5
    endloop
  endfacet
  facet normal 0.500001 0.866025 0
    outer loop
      vertex -1.94326e-07 56.5521 5
      vertex 1.51174 55.6793 0
      vertex -1.94326e-07 56.5521 0
    endloop
  endfacet
  facet normal -1 0 0
    outer loop
      vertex -3.57 52.58 3.30977
      vertex -3.57 54.4909 5
      vertex -3.57 54.4909 0
    endloop
  endfacet
  facet normal -1 0 0
    outer loop
      vertex -3.57 52.4298 3.57
      vertex -3.57 54.4909 5
      vertex -3.57 52.58 3.30977
    endloop
  endfacet
  facet normal -1 0 0
    outer loop
      vertex -3.57 51.2924 5
      vertex -3.57 52.4298 3.57
      vertex -3.57 51.2924 3.57
    endloop
  endfacet
  facet normal -1 0 0
    outer loop
      vertex -3.57 52.4298 3.57
      vertex -3.57 51.2924 5
      vertex -3.57 54.4909 5
    endloop
  endfacet
  facet normal -0.5 0.866025 0
    outer loop
      vertex -1.94326e-07 56.5521 0
      vertex -3.57 54.4909 5
      vertex -1.94326e-07 56.5521 5
    endloop
  endfacet
  facet normal -0.5 0.866025 0
    outer loop
      vertex -3.57 54.4909 5
      vertex -1.94326e-07 56.5521 0
      vertex -3.57 54.4909 0
    endloop
  endfacet
  facet normal -0.5 -0.866025 0
    outer loop
      vertex -1.785 49.3381 3.57
      vertex -3.57 50.3686 5
      vertex -3.57 50.3686 3.57
    endloop
  endfacet
  facet normal -0.5 -0.866026 9.80679e-07
    outer loop
      vertex -3.57 50.3686 5
      vertex -1.785 49.3381 3.57
      vertex 1.94326e-07 48.3075 5
    endloop
  endfacet
  facet normal -0.499997 -0.866027 1.57864e-06
    outer loop
      vertex 1.94326e-07 48.3075 0.799999
      vertex -1.785 49.3381 3.57
      vertex -0.399999 48.5384 0.799999
    endloop
  endfacet
  facet normal -0.499999 -0.866026 0
    outer loop
      vertex -1.785 49.3381 3.57
      vertex 1.94326e-07 48.3075 0.799999
      vertex 1.94326e-07 48.3075 5
    endloop
  endfacet
  facet normal 1 0 0
    outer loop
      vertex 3.57 54.4909 5
      vertex 3.57 54.335 0.270073
      vertex 3.57 54.4909 1.9752e-07
    endloop
  endfacet
  facet normal 1 1.18381e-07 -3.90252e-09
    outer loop
      vertex 3.57 54.4909 5
      vertex 3.57 52.4298 3.57
      vertex 3.57 54.335 0.270073
    endloop
  endfacet
  facet normal 1 5.78366e-08 8.33632e-08
    outer loop
      vertex 3.57 50.3686 5
      vertex 3.57 52.4298 3.57
      vertex 3.57 54.4909 5
    endloop
  endfacet
  facet normal 1 0 0
    outer loop
      vertex 3.57 52.4298 3.57
      vertex 3.57 50.3686 5
      vertex 3.57 50.3686 3.57
    endloop
  endfacet
  facet normal 0.5 -0.866026 1.06382e-06
    outer loop
      vertex 1.94326e-07 48.3075 5
      vertex 1.785 49.3381 3.57
      vertex 2.77 49.9068 5
    endloop
  endfacet
  facet normal 0.499998 -0.866027 -2.08842e-06
    outer loop
      vertex 1.94326e-07 48.3075 5
      vertex 1.71196 49.2959 3.42391
      vertex 1.785 49.3381 3.57
    endloop
  endfacet
  facet normal 0.499999 -0.866026 0
    outer loop
      vertex 1.94326e-07 48.3075 0.799999
      vertex 1.71196 49.2959 3.42391
      vertex 1.94326e-07 48.3075 5
    endloop
  endfacet
  facet normal 0.499997 -0.866027 1.62003e-06
    outer loop
      vertex 1.71196 49.2959 3.42391
      vertex 1.94326e-07 48.3075 0.799999
      vertex 0.399999 48.5384 0.799999
    endloop
  endfacet
  facet normal 0.500001 -0.866025 0
    outer loop
      vertex 2.77 49.9068 5
      vertex 1.785 49.3381 3.57
      vertex 2.77 49.9068 3.57
    endloop
  endfacet
  facet normal 0.499265 0.864752 -0.0542048
    outer loop
      vertex 3.57 54.4909 5
      vertex -1.94326e-07 56.5521 5
      vertex 5.04874 55.3447 32.2406
    endloop
  endfacet
  facet normal 0.499265 0.864752 -0.0542047
    outer loop
      vertex -1.94326e-07 56.5521 5
      vertex -4.55559e-07 58.2596 32.2406
      vertex 5.04874 55.3447 32.2406
    endloop
  endfacet
  facet normal 0.99853 -1.27677e-07 -0.0542047
    outer loop
      vertex 5.04874 55.3447 32.2406
      vertex 4.5186 49.821 22.4746
      vertex 3.57 50.3686 5
    endloop
  endfacet
  facet normal 0.99853 -8.1673e-08 -0.0542048
    outer loop
      vertex 4.5186 49.821 22.4746
      vertex 5.04874 55.3447 32.2406
      vertex 5.04874 49.5149 32.2406
    endloop
  endfacet
  facet normal 0.499265 -0.864752 -0.0542047
    outer loop
      vertex 4.55559e-07 46.6 32.2406
      vertex 3.7422 49.3455 22.9093
      vertex 5.04874 49.5149 32.2406
    endloop
  endfacet
  facet normal 0.499265 -0.864752 -0.0542047
    outer loop
      vertex 1.94326e-07 48.3075 5
      vertex 3.7422 49.3455 22.9093
      vertex 4.55559e-07 46.6 32.2406
    endloop
  endfacet
  facet normal 0.499265 -0.864752 -0.0542048
    outer loop
      vertex 3.7422 49.3455 22.9093
      vertex 1.94326e-07 48.3075 5
      vertex 2.77 49.9068 5
    endloop
  endfacet
  facet normal 0.499243 -0.864765 -0.0542014
    outer loop
      vertex 3.78574 49.3721 22.8849
      vertex 5.04874 49.5149 32.2406
      vertex 3.7422 49.3455 22.9093
    endloop
  endfacet
  facet normal 0.499266 -0.864751 -0.0542048
    outer loop
      vertex 5.04874 49.5149 32.2406
      vertex 3.78574 49.3721 22.8849
      vertex 4.5186 49.821 22.4746
    endloop
  endfacet
  facet normal -0.99853 0 -0.0542048
    outer loop
      vertex -4.5422 50.7311 22.9093
      vertex -3.57 54.4909 5
      vertex -3.57 51.2924 5
    endloop
  endfacet
  facet normal -0.99853 -6.12733e-08 -0.0542048
    outer loop
      vertex -4.5422 50.7311 22.9093
      vertex -5.04874 49.5149 32.2406
      vertex -3.57 54.4909 5
    endloop
  endfacet
  facet normal -0.99853 8.09421e-08 -0.0542047
    outer loop
      vertex -5.04874 49.5149 32.2406
      vertex -4.5422 50.7311 22.9093
      vertex -4.5186 49.821 22.4746
    endloop
  endfacet
  facet normal -0.499265 0.864752 -0.0542047
    outer loop
      vertex -3.57 54.4909 5
      vertex -4.55559e-07 58.2596 32.2406
      vertex -1.94326e-07 56.5521 5
    endloop
  endfacet
  facet normal -0.499265 0.864752 -0.0542047
    outer loop
      vertex -4.55559e-07 58.2596 32.2406
      vertex -3.57 54.4909 5
      vertex -5.04874 55.3447 32.2406
    endloop
  endfacet
  facet normal -0.499265 -0.864752 -0.0542047
    outer loop
      vertex 4.55559e-07 46.6 32.2406
      vertex -5.04874 49.5149 32.2406
      vertex 1.94326e-07 48.3075 5
    endloop
  endfacet
  facet normal -0.499265 -0.864752 -0.0542047
    outer loop
      vertex 1.94326e-07 48.3075 5
      vertex -4.5186 49.821 22.4746
      vertex -3.57 50.3686 5
    endloop
  endfacet
  facet normal -0.499264 -0.864753 -0.0542047
    outer loop
      vertex -4.5186 49.821 22.4746
      vertex 1.94326e-07 48.3075 5
      vertex -5.04874 49.5149 32.2406
    endloop
  endfacet
  facet normal -0.99853 8.1673e-08 -0.0542047
    outer loop
      vertex -3.57 54.4909 5
      vertex -5.04874 49.5149 32.2406
      vertex -5.04874 55.3447 32.2406
    endloop
  endfacet
  facet normal 0.99853 9.0423e-08 -0.0542048
    outer loop
      vertex 3.57 50.3686 5
      vertex 3.57 54.4909 5
      vertex 5.04874 55.3447 32.2406
    endloop
  endfacet
  facet normal 0.5 0.866025 -0
    outer loop
      vertex 5.04874 55.3447 32.2406
      vertex -4.55559e-07 58.2596 60.8006
      vertex 5.04874 55.3447 60.8006
    endloop
  endfacet
  facet normal 0.5 0.866025 0
    outer loop
      vertex -4.55559e-07 58.2596 60.8006
      vertex 5.04874 55.3447 32.2406
      vertex -4.55559e-07 58.2596 32.2406
    endloop
  endfacet
  facet normal -1 8.17933e-08 0
    outer loop
      vertex -5.04874 49.5149 32.2406
      vertex -5.04874 55.3447 60.8006
      vertex -5.04874 55.3447 32.2406
    endloop
  endfacet
  facet normal -1 8.17933e-08 0
    outer loop
      vertex -5.04874 55.3447 60.8006
      vertex -5.04874 49.5149 32.2406
      vertex -5.04874 49.5149 60.8006
    endloop
  endfacet
  facet normal -0.5 0.866025 0
    outer loop
      vertex -4.55559e-07 58.2596 32.2406
      vertex -5.04874 55.3447 60.8006
      vertex -4.55559e-07 58.2596 60.8006
    endloop
  endfacet
  facet normal -0.5 0.866025 0
    outer loop
      vertex -5.04874 55.3447 60.8006
      vertex -4.55559e-07 58.2596 32.2406
      vertex -5.04874 55.3447 32.2406
    endloop
  endfacet
  facet normal 0 0 1
    outer loop
      vertex 5.04874 55.3447 60.8006
      vertex 3.57 50.3686 60.8006
      vertex 5.04874 49.5149 60.8006
    endloop
  endfacet
  facet normal 0 0 1
    outer loop
      vertex 5.04874 55.3447 60.8006
      vertex 3.57 54.4909 60.8006
      vertex 3.57 50.3686 60.8006
    endloop
  endfacet
  facet normal 0 0 1
    outer loop
      vertex 5.04874 55.3447 60.8006
      vertex -1.94326e-07 56.5521 60.8006
      vertex 3.57 54.4909 60.8006
    endloop
  endfacet
  facet normal 0 0 1
    outer loop
      vertex -4.55559e-07 58.2596 60.8006
      vertex -1.94326e-07 56.5521 60.8006
      vertex 5.04874 55.3447 60.8006
    endloop
  endfacet
  facet normal 0 0 1
    outer loop
      vertex -4.55559e-07 58.2596 60.8006
      vertex -3.57 54.4909 60.8006
      vertex -1.94326e-07 56.5521 60.8006
    endloop
  endfacet
  facet normal 0 -0 1
    outer loop
      vertex -3.57 54.4909 60.8006
      vertex -4.55559e-07 58.2596 60.8006
      vertex -5.04874 55.3447 60.8006
    endloop
  endfacet
  facet normal 0 0 1
    outer loop
      vertex 3.57 50.3686 60.8006
      vertex 4.55559e-07 46.6 60.8006
      vertex 5.04874 49.5149 60.8006
    endloop
  endfacet
  facet normal -0 0 1
    outer loop
      vertex 1.94326e-07 48.3075 60.8006
      vertex 4.55559e-07 46.6 60.8006
      vertex 3.57 50.3686 60.8006
    endloop
  endfacet
  facet normal 0 0 1
    outer loop
      vertex -3.57 50.3686 60.8006
      vertex 4.55559e-07 46.6 60.8006
      vertex 1.94326e-07 48.3075 60.8006
    endloop
  endfacet
  facet normal 0 0 1
    outer loop
      vertex -5.04874 55.3447 60.8006
      vertex -3.57 50.3686 60.8006
      vertex -3.57 54.4909 60.8006
    endloop
  endfacet
  facet normal 0 0 1
    outer loop
      vertex -3.57 50.3686 60.8006
      vertex -5.04874 49.5149 60.8006
      vertex 4.55559e-07 46.6 60.8006
    endloop
  endfacet
  facet normal 0 0 1
    outer loop
      vertex -5.04874 49.5149 60.8006
      vertex -3.57 50.3686 60.8006
      vertex -5.04874 55.3447 60.8006
    endloop
  endfacet
  facet normal 1 -8.17933e-08 0
    outer loop
      vertex 5.04874 49.5149 60.8006
      vertex 5.04874 55.3447 32.2406
      vertex 5.04874 55.3447 60.8006
    endloop
  endfacet
  facet normal 1 -8.17933e-08 0
    outer loop
      vertex 5.04874 55.3447 32.2406
      vertex 5.04874 49.5149 60.8006
      vertex 5.04874 49.5149 32.2406
    endloop
  endfacet
  facet normal 0.5 -0.866026 0
    outer loop
      vertex 4.55559e-07 46.6 32.2406
      vertex 5.04874 49.5149 60.8006
      vertex 4.55559e-07 46.6 60.8006
    endloop
  endfacet
  facet normal 0.5 -0.866026 0
    outer loop
      vertex 5.04874 49.5149 60.8006
      vertex 4.55559e-07 46.6 32.2406
      vertex 5.04874 49.5149 32.2406
    endloop
  endfacet
  facet normal -0.5 -0.866026 0
    outer loop
      vertex -5.04874 49.5149 32.2406
      vertex 4.55559e-07 46.6 60.8006
      vertex -5.04874 49.5149 60.8006
    endloop
  endfacet
  facet normal -0.5 -0.866026 -0
    outer loop
      vertex 4.55559e-07 46.6 60.8006
      vertex -5.04874 49.5149 32.2406
      vertex 4.55559e-07 46.6 32.2406
    endloop
  endfacet
  facet normal 0.5 0.866025 1.84866e-08
    outer loop
      vertex 20.8905 40.3687 3.57
      vertex 3.57 50.3686 5
      vertex 4.5186 49.821 22.4746
    endloop
  endfacet
  facet normal 0.5 0.866025 -8.3363e-08
    outer loop
      vertex 3.57 50.3686 3.57
      vertex 3.57 50.3686 5
      vertex 20.8905 40.3687 3.57
    endloop
  endfacet
  facet normal 0.61238 -0.353541 0.707107
    outer loop
      vertex 4.5186 49.821 22.4746
      vertex 20.8631 40.3213 3.57
      vertex 20.8905 40.3687 3.57
    endloop
  endfacet
  facet normal 0.612373 -0.353553 0.707107
    outer loop
      vertex 20.8631 40.3213 3.57
      vertex 4.5186 49.821 22.4746
      vertex 3.78574 49.3721 22.8849
    endloop
  endfacet
  facet normal 0.612372 -0.353554 0.707107
    outer loop
      vertex 3.78574 49.3721 22.8849
      vertex 20.4905 39.6758 3.57
      vertex 20.8631 40.3213 3.57
    endloop
  endfacet
  facet normal 0.612364 -0.353568 0.707107
    outer loop
      vertex 20.4905 39.6758 3.57
      vertex 3.78574 49.3721 22.8849
      vertex 3.7422 49.3455 22.9093
    endloop
  endfacet
  facet normal -0.5 -0.866025 0
    outer loop
      vertex 20.4905 39.6758 3.57
      vertex 2.77 49.9068 5
      vertex 2.77 49.9068 3.57
    endloop
  endfacet
  facet normal -0.5 -0.866025 -4.64107e-09
    outer loop
      vertex 2.77 49.9068 5
      vertex 20.4905 39.6758 3.57
      vertex 3.7422 49.3455 22.9093
    endloop
  endfacet
  facet normal 0.5 -0.866025 7.93517e-09
    outer loop
      vertex -20.8905 40.3687 3.57
      vertex -3.57 50.3686 5
      vertex -4.5186 49.821 22.4746
    endloop
  endfacet
  facet normal 0.5 -0.866025 0
    outer loop
      vertex -3.57 50.3686 5
      vertex -20.8905 40.3687 3.57
      vertex -3.57 50.3686 3.57
    endloop
  endfacet
  facet normal -0.612373 -0.353553 0.707107
    outer loop
      vertex -21.2905 41.0615 3.57
      vertex -4.5186 49.821 22.4746
      vertex -4.5422 50.7311 22.9093
    endloop
  endfacet
  facet normal -0.612372 -0.353554 0.707107
    outer loop
      vertex -4.5186 49.821 22.4746
      vertex -21.2905 41.0615 3.57
      vertex -20.8905 40.3687 3.57
    endloop
  endfacet
  facet normal -0.5 0.866025 0
    outer loop
      vertex -21.2905 41.0615 3.57
      vertex -3.57 51.2924 5
      vertex -3.57 51.2924 3.57
    endloop
  endfacet
  facet normal -0.5 0.866025 9.81397e-09
    outer loop
      vertex -3.57 51.2924 5
      vertex -21.2905 41.0615 3.57
      vertex -4.5422 50.7311 22.9093
    endloop
  endfacet
  facet normal -0.495761 -0.858683 0.129943
    outer loop
      vertex 0 52.4298 5
      vertex 3.57 54.4909 32.2406
      vertex -1.94326e-07 56.5521 32.2406
    endloop
  endfacet
  facet normal 0.991521 5.73462e-08 0.129943
    outer loop
      vertex -3.57 50.3686 32.2406
      vertex 0 52.4298 5
      vertex -3.57 54.4909 32.2406
    endloop
  endfacet
  facet normal -0.991521 -5.73462e-08 0.129943
    outer loop
      vertex 3.57 50.3686 32.2406
      vertex 3.57 54.4909 32.2406
      vertex 0 52.4298 5
    endloop
  endfacet
  facet normal 0.495761 -0.858683 0.129943
    outer loop
      vertex 0 52.4298 5
      vertex -1.94326e-07 56.5521 32.2406
      vertex -3.57 54.4909 32.2406
    endloop
  endfacet
  facet normal 0.49576 0.858683 0.129943
    outer loop
      vertex 1.94326e-07 48.3075 32.2406
      vertex 0 52.4298 5
      vertex -3.57 50.3686 32.2406
    endloop
  endfacet
  facet normal -0.49576 0.858683 0.129943
    outer loop
      vertex 1.94326e-07 48.3075 32.2406
      vertex 3.57 50.3686 32.2406
      vertex 0 52.4298 5
    endloop
  endfacet
  facet normal -0.5 -0.866025 0
    outer loop
      vertex -1.94326e-07 56.5521 32.2406
      vertex 3.57 54.4909 60.8006
      vertex -1.94326e-07 56.5521 60.8006
    endloop
  endfacet
  facet normal -0.5 -0.866025 -0
    outer loop
      vertex 3.57 54.4909 60.8006
      vertex -1.94326e-07 56.5521 32.2406
      vertex 3.57 54.4909 32.2406
    endloop
  endfacet
  facet normal 1 5.78366e-08 0
    outer loop
      vertex -3.57 50.3686 60.8006
      vertex -3.57 54.4909 32.2406
      vertex -3.57 54.4909 60.8006
    endloop
  endfacet
  facet normal 1 5.78366e-08 0
    outer loop
      vertex -3.57 54.4909 32.2406
      vertex -3.57 50.3686 60.8006
      vertex -3.57 50.3686 32.2406
    endloop
  endfacet
  facet normal 0.5 -0.866025 0
    outer loop
      vertex -3.57 54.4909 32.2406
      vertex -1.94326e-07 56.5521 60.8006
      vertex -3.57 54.4909 60.8006
    endloop
  endfacet
  facet normal 0.5 -0.866025 0
    outer loop
      vertex -1.94326e-07 56.5521 60.8006
      vertex -3.57 54.4909 32.2406
      vertex -1.94326e-07 56.5521 32.2406
    endloop
  endfacet
  facet normal 0.5 0.866026 -0
    outer loop
      vertex 1.94326e-07 48.3075 32.2406
      vertex -3.57 50.3686 60.8006
      vertex 1.94326e-07 48.3075 60.8006
    endloop
  endfacet
  facet normal 0.5 0.866026 0
    outer loop
      vertex -3.57 50.3686 60.8006
      vertex 1.94326e-07 48.3075 32.2406
      vertex -3.57 50.3686 32.2406
    endloop
  endfacet
  facet normal -1 -5.78366e-08 0
    outer loop
      vertex 3.57 50.3686 32.2406
      vertex 3.57 54.4909 60.8006
      vertex 3.57 54.4909 32.2406
    endloop
  endfacet
  facet normal -1 -5.78366e-08 0
    outer loop
      vertex 3.57 54.4909 60.8006
      vertex 3.57 50.3686 32.2406
      vertex 3.57 50.3686 60.8006
    endloop
  endfacet
  facet normal -0.5 0.866026 0
    outer loop
      vertex 3.57 50.3686 32.2406
      vertex 1.94326e-07 48.3075 60.8006
      vertex 3.57 50.3686 60.8006
    endloop
  endfacet
  facet normal -0.5 0.866026 0
    outer loop
      vertex 1.94326e-07 48.3075 60.8006
      vertex 3.57 50.3686 32.2406
      vertex 1.94326e-07 48.3075 32.2406
    endloop
  endfacet
  facet normal 0 0 1
    outer loop
      vertex 32.4606 30.0282 0.799999
      vertex 42.2355 -24.3847 0.799999
      vertex 42.2355 24.3847 0.799999
    endloop
  endfacet
  facet normal 0 0 1
    outer loop
      vertex 32.4606 30.0282 0.799999
      vertex 9.7749 -43.1258 0.799999
      vertex 42.2355 -24.3847 0.799999
    endloop
  endfacet
  facet normal -0 0 1
    outer loop
      vertex 1.94326e-07 48.3075 0.799999
      vertex 32.4606 30.0282 0.799999
      vertex 0.399999 48.5384 0.799999
    endloop
  endfacet
  facet normal -0 0 1
    outer loop
      vertex -9.7749 43.1258 0.799999
      vertex 32.4606 30.0282 0.799999
      vertex 1.94326e-07 48.3075 0.799999
    endloop
  endfacet
  facet normal 0 0 1
    outer loop
      vertex 32.4606 30.0282 0.799999
      vertex -9.7749 43.1258 0.799999
      vertex 9.7749 -43.1258 0.799999
    endloop
  endfacet
  facet normal 0 0 1
    outer loop
      vertex -9.7749 43.1258 0.799999
      vertex 1.94326e-07 48.3075 0.799999
      vertex -0.399999 48.5384 0.799999
    endloop
  endfacet
  facet normal -0 0 1
    outer loop
      vertex -32.4606 -30.0282 0.799999
      vertex 9.7749 -43.1258 0.799999
      vertex -9.7749 43.1258 0.799999
    endloop
  endfacet
  facet normal 0 0 1
    outer loop
      vertex 9.7749 -43.1258 0.799999
      vertex -32.4606 -30.0282 0.799999
      vertex 0 -48.7694 0.799999
    endloop
  endfacet
  facet normal -0 0 1
    outer loop
      vertex -42.2355 24.3847 0.799999
      vertex -32.4606 -30.0282 0.799999
      vertex -9.7749 43.1258 0.799999
    endloop
  endfacet
  facet normal 0 0 1
    outer loop
      vertex -32.4606 -30.0282 0.799999
      vertex -42.2355 24.3847 0.799999
      vertex -42.2355 -24.3847 0.799999
    endloop
  endfacet
endsolid OpenSCAD_Model
