solid OpenSCAD_Model
  facet normal 0.866025 0.5 0
    outer loop
      vertex 9.69948 0 8.64
      vertex 4.84974 8.4 0
      vertex 4.84974 8.4 8.64
    endloop
  endfacet
  facet normal 0.866025 0.5 0
    outer loop
      vertex 4.84974 8.4 0
      vertex 9.69948 0 8.64
      vertex 9.69948 0 0
    endloop
  endfacet
  facet normal -0.866025 0.5 0
    outer loop
      vertex -9.69948 0 0
      vertex -4.84974 8.4 8.64
      vertex -4.84974 8.4 0
    endloop
  endfacet
  facet normal -0.866025 0.5 0
    outer loop
      vertex -4.84974 8.4 8.64
      vertex -9.69948 0 0
      vertex -9.69948 0 8.64
    endloop
  endfacet
  facet normal 0 1 -0
    outer loop
      vertex 4.84974 8.4 0
      vertex -4.84974 8.4 8.64
      vertex 4.84974 8.4 8.64
    endloop
  endfacet
  facet normal 0 1 0
    outer loop
      vertex -4.84974 8.4 8.64
      vertex 4.84974 8.4 0
      vertex -4.84974 8.4 0
    endloop
  endfacet
  facet normal 0 0 1
    outer loop
      vertex 4.84974 8.4 8.64
      vertex 6.9282 0 8.64
      vertex 9.69948 0 8.64
    endloop
  endfacet
  facet normal 0 0 1
    outer loop
      vertex 4.84974 8.4 8.64
      vertex 3.4641 6 8.64
      vertex 6.9282 0 8.64
    endloop
  endfacet
  facet normal 0 0 1
    outer loop
      vertex 4.84974 8.4 8.64
      vertex -3.4641 6 8.64
      vertex 3.4641 6 8.64
    endloop
  endfacet
  facet normal -0 0 1
    outer loop
      vertex -4.84974 8.4 8.64
      vertex -3.4641 6 8.64
      vertex 4.84974 8.4 8.64
    endloop
  endfacet
  facet normal 0 0 1
    outer loop
      vertex -4.84974 8.4 8.64
      vertex -6.9282 0 8.64
      vertex -3.4641 6 8.64
    endloop
  endfacet
  facet normal 0 -0 1
    outer loop
      vertex -6.9282 0 8.64
      vertex -4.84974 8.4 8.64
      vertex -9.69948 0 8.64
    endloop
  endfacet
  facet normal -0 0 1
    outer loop
      vertex 6.9282 0 8.64
      vertex 4.84974 -8.4 8.64
      vertex 9.69948 0 8.64
    endloop
  endfacet
  facet normal -0 0 1
    outer loop
      vertex 3.4641 -6 8.64
      vertex 4.84974 -8.4 8.64
      vertex 6.9282 0 8.64
    endloop
  endfacet
  facet normal 0 0 1
    outer loop
      vertex -3.4641 -6 8.64
      vertex 4.84974 -8.4 8.64
      vertex 3.4641 -6 8.64
    endloop
  endfacet
  facet normal 0 0 1
    outer loop
      vertex -3.4641 -6 8.64
      vertex -4.84974 -8.4 8.64
      vertex 4.84974 -8.4 8.64
    endloop
  endfacet
  facet normal 0 0 1
    outer loop
      vertex -6.9282 0 8.64
      vertex -4.84974 -8.4 8.64
      vertex -3.4641 -6 8.64
    endloop
  endfacet
  facet normal 0 0 1
    outer loop
      vertex -4.84974 -8.4 8.64
      vertex -6.9282 0 8.64
      vertex -9.69948 0 8.64
    endloop
  endfacet
  facet normal 0.866025 -0.5 0
    outer loop
      vertex 4.84974 -8.4 8.64
      vertex 9.69948 0 0
      vertex 9.69948 0 8.64
    endloop
  endfacet
  facet normal 0.866025 -0.5 0
    outer loop
      vertex 9.69948 0 0
      vertex 4.84974 -8.4 8.64
      vertex 4.84974 -8.4 0
    endloop
  endfacet
  facet normal 0 0 -1
    outer loop
      vertex 3.28876 -1.46425 0
      vertex 9.69948 0 0
      vertex 4.84974 -8.4 0
    endloop
  endfacet
  facet normal 0 0 -1
    outer loop
      vertex 3.52133 0.748482 0
      vertex 9.69948 0 0
      vertex 3.6 0 0
    endloop
  endfacet
  facet normal -0 0 -1
    outer loop
      vertex 9.69948 0 0
      vertex 3.52133 -0.748482 0
      vertex 3.6 0 0
    endloop
  endfacet
  facet normal 0 0 -1
    outer loop
      vertex 9.69948 0 0
      vertex 3.28876 -1.46425 0
      vertex 3.52133 -0.748482 0
    endloop
  endfacet
  facet normal 0 0 -1
    outer loop
      vertex 4.84974 -8.4 0
      vertex 2.91246 -2.11603 0
      vertex 3.28876 -1.46425 0
    endloop
  endfacet
  facet normal 0 0 -1
    outer loop
      vertex 4.84974 -8.4 0
      vertex 2.40887 -2.67532 0
      vertex 2.91246 -2.11603 0
    endloop
  endfacet
  facet normal 0 0 -1
    outer loop
      vertex 4.84974 -8.4 0
      vertex 1.8 -3.11769 0
      vertex 2.40887 -2.67532 0
    endloop
  endfacet
  facet normal 0 0 -1
    outer loop
      vertex 4.84974 -8.4 0
      vertex 1.11246 -3.4238 0
      vertex 1.8 -3.11769 0
    endloop
  endfacet
  facet normal 0 0 -1
    outer loop
      vertex 4.84974 -8.4 0
      vertex 0.376302 -3.58028 0
      vertex 1.11246 -3.4238 0
    endloop
  endfacet
  facet normal 0 0 -1
    outer loop
      vertex 4.84974 -8.4 0
      vertex -0.376302 -3.58028 0
      vertex 0.376302 -3.58028 0
    endloop
  endfacet
  facet normal 0 0 -1
    outer loop
      vertex -4.84974 -8.4 0
      vertex -0.376302 -3.58028 0
      vertex 4.84974 -8.4 0
    endloop
  endfacet
  facet normal -0 0 -1
    outer loop
      vertex -0.376302 -3.58028 0
      vertex -4.84974 -8.4 0
      vertex -1.11246 -3.4238 0
    endloop
  endfacet
  facet normal -0 0 -1
    outer loop
      vertex -1.11246 -3.4238 0
      vertex -4.84974 -8.4 0
      vertex -1.8 -3.11769 0
    endloop
  endfacet
  facet normal 0 0 -1
    outer loop
      vertex -3.28876 -1.46425 0
      vertex -9.69948 0 0
      vertex -3.52133 -0.748482 0
    endloop
  endfacet
  facet normal 0 0 -1
    outer loop
      vertex -9.69948 0 0
      vertex -3.28876 -1.46425 0
      vertex -4.84974 -8.4 0
    endloop
  endfacet
  facet normal -0 0 -1
    outer loop
      vertex -2.91246 -2.11603 0
      vertex -4.84974 -8.4 0
      vertex -3.28876 -1.46425 0
    endloop
  endfacet
  facet normal -0 0 -1
    outer loop
      vertex -2.40887 -2.67532 0
      vertex -4.84974 -8.4 0
      vertex -2.91246 -2.11603 0
    endloop
  endfacet
  facet normal -0 0 -1
    outer loop
      vertex -1.8 -3.11769 0
      vertex -4.84974 -8.4 0
      vertex -2.40887 -2.67532 0
    endloop
  endfacet
  facet normal 0 0 -1
    outer loop
      vertex 3.28876 1.46425 0
      vertex 9.69948 0 0
      vertex 3.52133 0.748482 0
    endloop
  endfacet
  facet normal 0 0 -1
    outer loop
      vertex 9.69948 0 0
      vertex 3.28876 1.46425 0
      vertex 4.84974 8.4 0
    endloop
  endfacet
  facet normal 0 0 -1
    outer loop
      vertex 2.91246 2.11603 0
      vertex 4.84974 8.4 0
      vertex 3.28876 1.46425 0
    endloop
  endfacet
  facet normal 0 0 -1
    outer loop
      vertex 2.40887 2.67532 0
      vertex 4.84974 8.4 0
      vertex 2.91246 2.11603 0
    endloop
  endfacet
  facet normal 0 0 -1
    outer loop
      vertex 1.8 3.11769 0
      vertex 4.84974 8.4 0
      vertex 2.40887 2.67532 0
    endloop
  endfacet
  facet normal 0 0 -1
    outer loop
      vertex 1.11246 3.4238 0
      vertex 4.84974 8.4 0
      vertex 1.8 3.11769 0
    endloop
  endfacet
  facet normal 0 0 -1
    outer loop
      vertex 0.376302 3.58028 0
      vertex 4.84974 8.4 0
      vertex 1.11246 3.4238 0
    endloop
  endfacet
  facet normal 0 0 -1
    outer loop
      vertex -0.376302 3.58028 0
      vertex 4.84974 8.4 0
      vertex 0.376302 3.58028 0
    endloop
  endfacet
  facet normal 0 0 -1
    outer loop
      vertex -4.84974 8.4 0
      vertex -0.376302 3.58028 0
      vertex -1.11246 3.4238 0
    endloop
  endfacet
  facet normal 0 0 -1
    outer loop
      vertex -4.84974 8.4 0
      vertex -1.11246 3.4238 0
      vertex -1.8 3.11769 0
    endloop
  endfacet
  facet normal 0 0 -1
    outer loop
      vertex -4.84974 8.4 0
      vertex -1.8 3.11769 0
      vertex -2.40887 2.67532 0
    endloop
  endfacet
  facet normal 0 0 -1
    outer loop
      vertex -3.52133 -0.748482 0
      vertex -9.69948 0 0
      vertex -3.6 0 0
    endloop
  endfacet
  facet normal 0 0 -1
    outer loop
      vertex -0.376302 3.58028 0
      vertex -4.84974 8.4 0
      vertex 4.84974 8.4 0
    endloop
  endfacet
  facet normal 0 0 -1
    outer loop
      vertex -2.91246 2.11603 0
      vertex -4.84974 8.4 0
      vertex -2.40887 2.67532 0
    endloop
  endfacet
  facet normal 0 0 -1
    outer loop
      vertex -3.28876 1.46425 0
      vertex -4.84974 8.4 0
      vertex -2.91246 2.11603 0
    endloop
  endfacet
  facet normal 0 0 -1
    outer loop
      vertex -9.69948 0 0
      vertex -3.28876 1.46425 0
      vertex -3.52133 0.748482 0
    endloop
  endfacet
  facet normal 0 0 -1
    outer loop
      vertex -3.6 0 0
      vertex -9.69948 0 0
      vertex -3.52133 0.748482 0
    endloop
  endfacet
  facet normal -0 0 -1
    outer loop
      vertex -3.28876 1.46425 0
      vertex -9.69948 0 0
      vertex -4.84974 8.4 0
    endloop
  endfacet
  facet normal 0 -1 0
    outer loop
      vertex -4.84974 -8.4 0
      vertex 4.84974 -8.4 8.64
      vertex -4.84974 -8.4 8.64
    endloop
  endfacet
  facet normal 0 -1 -0
    outer loop
      vertex 4.84974 -8.4 8.64
      vertex -4.84974 -8.4 0
      vertex 4.84974 -8.4 0
    endloop
  endfacet
  facet normal -0.866025 -0.5 0
    outer loop
      vertex -4.84974 -8.4 0
      vertex -9.69948 0 8.64
      vertex -9.69948 0 0
    endloop
  endfacet
  facet normal -0.866025 -0.5 0
    outer loop
      vertex -9.69948 0 8.64
      vertex -4.84974 -8.4 0
      vertex -4.84974 -8.4 8.64
    endloop
  endfacet
  facet normal -0.866025 -0.5 0
    outer loop
      vertex 3.28876 1.46425 0
      vertex 2.91246 2.11603 2.4
      vertex 2.91246 2.11603 0
    endloop
  endfacet
  facet normal -0.866025 -0.5 0
    outer loop
      vertex 2.91246 2.11603 2.4
      vertex 3.28876 1.46425 0
      vertex 3.28876 1.46425 2.4
    endloop
  endfacet
  facet normal 0.951056 -0.309017 0
    outer loop
      vertex -3.52133 0.748482 2.4
      vertex -3.28876 1.46425 0
      vertex -3.28876 1.46425 2.4
    endloop
  endfacet
  facet normal 0.951056 -0.309017 0
    outer loop
      vertex -3.28876 1.46425 0
      vertex -3.52133 0.748482 2.4
      vertex -3.52133 0.748482 0
    endloop
  endfacet
  facet normal -0.743145 -0.669131 0
    outer loop
      vertex 2.91246 2.11603 0
      vertex 2.40887 2.67532 2.4
      vertex 2.40887 2.67532 0
    endloop
  endfacet
  facet normal -0.743145 -0.669131 0
    outer loop
      vertex 2.40887 2.67532 2.4
      vertex 2.91246 2.11603 0
      vertex 2.91246 2.11603 2.4
    endloop
  endfacet
  facet normal -0.406737 -0.913545 0
    outer loop
      vertex 1.11246 3.4238 0
      vertex 1.8 3.11769 2.4
      vertex 1.11246 3.4238 2.4
    endloop
  endfacet
  facet normal -0.406737 -0.913545 -0
    outer loop
      vertex 1.8 3.11769 2.4
      vertex 1.11246 3.4238 0
      vertex 1.8 3.11769 0
    endloop
  endfacet
  facet normal 0.406737 -0.913545 0
    outer loop
      vertex -1.8 3.11769 0
      vertex -1.11246 3.4238 2.4
      vertex -1.8 3.11769 2.4
    endloop
  endfacet
  facet normal 0.406737 -0.913545 0
    outer loop
      vertex -1.11246 3.4238 2.4
      vertex -1.8 3.11769 0
      vertex -1.11246 3.4238 0
    endloop
  endfacet
  facet normal -0.994522 0.104528 0
    outer loop
      vertex 3.52133 -0.748482 0
      vertex 3.6 0 2.4
      vertex 3.6 0 0
    endloop
  endfacet
  facet normal -0.994522 0.104528 0
    outer loop
      vertex 3.6 0 2.4
      vertex 3.52133 -0.748482 0
      vertex 3.52133 -0.748482 2.4
    endloop
  endfacet
  facet normal 0 -1 0
    outer loop
      vertex -0.376302 3.58028 0
      vertex 0.376302 3.58028 2.4
      vertex -0.376302 3.58028 2.4
    endloop
  endfacet
  facet normal 0 -1 -0
    outer loop
      vertex 0.376302 3.58028 2.4
      vertex -0.376302 3.58028 0
      vertex 0.376302 3.58028 0
    endloop
  endfacet
  facet normal -0.587785 -0.809017 0
    outer loop
      vertex 1.8 3.11769 0
      vertex 2.40887 2.67532 2.4
      vertex 1.8 3.11769 2.4
    endloop
  endfacet
  facet normal -0.587785 -0.809017 -0
    outer loop
      vertex 2.40887 2.67532 2.4
      vertex 1.8 3.11769 0
      vertex 2.40887 2.67532 0
    endloop
  endfacet
  facet normal 0.994522 -0.104528 0
    outer loop
      vertex -3.6 0 2.4
      vertex -3.52133 0.748482 0
      vertex -3.52133 0.748482 2.4
    endloop
  endfacet
  facet normal 0.994522 -0.104528 0
    outer loop
      vertex -3.52133 0.748482 0
      vertex -3.6 0 2.4
      vertex -3.6 0 0
    endloop
  endfacet
  facet normal 0.866025 -0.5 0
    outer loop
      vertex -3.28876 1.46425 2.4
      vertex -2.91246 2.11603 0
      vertex -2.91246 2.11603 2.4
    endloop
  endfacet
  facet normal 0.866025 -0.5 0
    outer loop
      vertex -2.91246 2.11603 0
      vertex -3.28876 1.46425 2.4
      vertex -3.28876 1.46425 0
    endloop
  endfacet
  facet normal 0.587785 -0.809017 0
    outer loop
      vertex -2.40887 2.67532 0
      vertex -1.8 3.11769 2.4
      vertex -2.40887 2.67532 2.4
    endloop
  endfacet
  facet normal 0.587785 -0.809017 0
    outer loop
      vertex -1.8 3.11769 2.4
      vertex -2.40887 2.67532 0
      vertex -1.8 3.11769 0
    endloop
  endfacet
  facet normal 0.207911 -0.978148 0
    outer loop
      vertex -1.11246 3.4238 0
      vertex -0.376302 3.58028 2.4
      vertex -1.11246 3.4238 2.4
    endloop
  endfacet
  facet normal 0.207911 -0.978148 0
    outer loop
      vertex -0.376302 3.58028 2.4
      vertex -1.11246 3.4238 0
      vertex -0.376302 3.58028 0
    endloop
  endfacet
  facet normal 0.743145 -0.669131 0
    outer loop
      vertex -2.91246 2.11603 2.4
      vertex -2.40887 2.67532 0
      vertex -2.40887 2.67532 2.4
    endloop
  endfacet
  facet normal 0.743145 -0.669131 0
    outer loop
      vertex -2.40887 2.67532 0
      vertex -2.91246 2.11603 2.4
      vertex -2.91246 2.11603 0
    endloop
  endfacet
  facet normal -0.994522 -0.104528 0
    outer loop
      vertex 3.6 0 0
      vertex 3.52133 0.748482 2.4
      vertex 3.52133 0.748482 0
    endloop
  endfacet
  facet normal -0.994522 -0.104528 0
    outer loop
      vertex 3.52133 0.748482 2.4
      vertex 3.6 0 0
      vertex 3.6 0 2.4
    endloop
  endfacet
  facet normal -0.951056 0.309017 0
    outer loop
      vertex 3.28876 -1.46425 0
      vertex 3.52133 -0.748482 2.4
      vertex 3.52133 -0.748482 0
    endloop
  endfacet
  facet normal -0.951056 0.309017 0
    outer loop
      vertex 3.52133 -0.748482 2.4
      vertex 3.28876 -1.46425 0
      vertex 3.28876 -1.46425 2.4
    endloop
  endfacet
  facet normal 0.866025 0.5 0
    outer loop
      vertex -2.91246 -2.11603 2.4
      vertex -3.28876 -1.46425 0
      vertex -3.28876 -1.46425 2.4
    endloop
  endfacet
  facet normal 0.866025 0.5 0
    outer loop
      vertex -3.28876 -1.46425 0
      vertex -2.91246 -2.11603 2.4
      vertex -2.91246 -2.11603 0
    endloop
  endfacet
  facet normal -0.587785 0.809017 0
    outer loop
      vertex 2.40887 -2.67532 0
      vertex 1.8 -3.11769 2.4
      vertex 2.40887 -2.67532 2.4
    endloop
  endfacet
  facet normal -0.587785 0.809017 0
    outer loop
      vertex 1.8 -3.11769 2.4
      vertex 2.40887 -2.67532 0
      vertex 1.8 -3.11769 0
    endloop
  endfacet
  facet normal -0.951056 -0.309017 0
    outer loop
      vertex 3.52133 0.748482 0
      vertex 3.28876 1.46425 2.4
      vertex 3.28876 1.46425 0
    endloop
  endfacet
  facet normal -0.951056 -0.309017 0
    outer loop
      vertex 3.28876 1.46425 2.4
      vertex 3.52133 0.748482 0
      vertex 3.52133 0.748482 2.4
    endloop
  endfacet
  facet normal -0.207911 -0.978148 0
    outer loop
      vertex 0.376302 3.58028 0
      vertex 1.11246 3.4238 2.4
      vertex 0.376302 3.58028 2.4
    endloop
  endfacet
  facet normal -0.207911 -0.978148 -0
    outer loop
      vertex 1.11246 3.4238 2.4
      vertex 0.376302 3.58028 0
      vertex 1.11246 3.4238 0
    endloop
  endfacet
  facet normal -0.866025 0.5 0
    outer loop
      vertex 2.91246 -2.11603 0
      vertex 3.28876 -1.46425 2.4
      vertex 3.28876 -1.46425 0
    endloop
  endfacet
  facet normal -0.866025 0.5 0
    outer loop
      vertex 3.28876 -1.46425 2.4
      vertex 2.91246 -2.11603 0
      vertex 2.91246 -2.11603 2.4
    endloop
  endfacet
  facet normal 0.994522 0.104528 0
    outer loop
      vertex -3.52133 -0.748482 2.4
      vertex -3.6 0 0
      vertex -3.6 0 2.4
    endloop
  endfacet
  facet normal 0.994522 0.104528 0
    outer loop
      vertex -3.6 0 0
      vertex -3.52133 -0.748482 2.4
      vertex -3.52133 -0.748482 0
    endloop
  endfacet
  facet normal -0.207911 0.978148 0
    outer loop
      vertex 1.11246 -3.4238 0
      vertex 0.376302 -3.58028 2.4
      vertex 1.11246 -3.4238 2.4
    endloop
  endfacet
  facet normal -0.207911 0.978148 0
    outer loop
      vertex 0.376302 -3.58028 2.4
      vertex 1.11246 -3.4238 0
      vertex 0.376302 -3.58028 0
    endloop
  endfacet
  facet normal -0.406737 0.913545 0
    outer loop
      vertex 1.8 -3.11769 0
      vertex 1.11246 -3.4238 2.4
      vertex 1.8 -3.11769 2.4
    endloop
  endfacet
  facet normal -0.406737 0.913545 0
    outer loop
      vertex 1.11246 -3.4238 2.4
      vertex 1.8 -3.11769 0
      vertex 1.11246 -3.4238 0
    endloop
  endfacet
  facet normal 0.207911 0.978148 -0
    outer loop
      vertex -0.376302 -3.58028 0
      vertex -1.11246 -3.4238 2.4
      vertex -0.376302 -3.58028 2.4
    endloop
  endfacet
  facet normal 0.207911 0.978148 0
    outer loop
      vertex -1.11246 -3.4238 2.4
      vertex -0.376302 -3.58028 0
      vertex -1.11246 -3.4238 0
    endloop
  endfacet
  facet normal 0 1 -0
    outer loop
      vertex 0.376302 -3.58028 0
      vertex -0.376302 -3.58028 2.4
      vertex 0.376302 -3.58028 2.4
    endloop
  endfacet
  facet normal 0 1 0
    outer loop
      vertex -0.376302 -3.58028 2.4
      vertex 0.376302 -3.58028 0
      vertex -0.376302 -3.58028 0
    endloop
  endfacet
  facet normal 0.951056 0.309017 0
    outer loop
      vertex -3.28876 -1.46425 2.4
      vertex -3.52133 -0.748482 0
      vertex -3.52133 -0.748482 2.4
    endloop
  endfacet
  facet normal 0.951056 0.309017 0
    outer loop
      vertex -3.52133 -0.748482 0
      vertex -3.28876 -1.46425 2.4
      vertex -3.28876 -1.46425 0
    endloop
  endfacet
  facet normal 0.743145 0.669131 0
    outer loop
      vertex -2.40887 -2.67532 2.4
      vertex -2.91246 -2.11603 0
      vertex -2.91246 -2.11603 2.4
    endloop
  endfacet
  facet normal 0.743145 0.669131 0
    outer loop
      vertex -2.91246 -2.11603 0
      vertex -2.40887 -2.67532 2.4
      vertex -2.40887 -2.67532 0
    endloop
  endfacet
  facet normal -0.743145 0.669131 0
    outer loop
      vertex 2.40887 -2.67532 0
      vertex 2.91246 -2.11603 2.4
      vertex 2.91246 -2.11603 0
    endloop
  endfacet
  facet normal -0.743145 0.669131 0
    outer loop
      vertex 2.91246 -2.11603 2.4
      vertex 2.40887 -2.67532 0
      vertex 2.40887 -2.67532 2.4
    endloop
  endfacet
  facet normal 0.406737 0.913545 -0
    outer loop
      vertex -1.11246 -3.4238 0
      vertex -1.8 -3.11769 2.4
      vertex -1.11246 -3.4238 2.4
    endloop
  endfacet
  facet normal 0.406737 0.913545 0
    outer loop
      vertex -1.8 -3.11769 2.4
      vertex -1.11246 -3.4238 0
      vertex -1.8 -3.11769 0
    endloop
  endfacet
  facet normal 0.587785 0.809017 -0
    outer loop
      vertex -1.8 -3.11769 0
      vertex -2.40887 -2.67532 2.4
      vertex -1.8 -3.11769 2.4
    endloop
  endfacet
  facet normal 0.587785 0.809017 0
    outer loop
      vertex -2.40887 -2.67532 2.4
      vertex -1.8 -3.11769 0
      vertex -2.40887 -2.67532 0
    endloop
  endfacet
  facet normal -0.866025 -0.5 0
    outer loop
      vertex 6.9282 0 2.4
      vertex 3.4641 6 8.64
      vertex 3.4641 6 2.4
    endloop
  endfacet
  facet normal -0.866025 -0.5 0
    outer loop
      vertex 3.4641 6 8.64
      vertex 6.9282 0 2.4
      vertex 6.9282 0 8.64
    endloop
  endfacet
  facet normal 0.866025 -0.5 0
    outer loop
      vertex -6.9282 0 8.64
      vertex -3.4641 6 2.4
      vertex -3.4641 6 8.64
    endloop
  endfacet
  facet normal 0.866025 -0.5 0
    outer loop
      vertex -3.4641 6 2.4
      vertex -6.9282 0 8.64
      vertex -6.9282 0 2.4
    endloop
  endfacet
  facet normal 0 -1 0
    outer loop
      vertex -3.4641 6 2.4
      vertex 3.4641 6 8.64
      vertex -3.4641 6 8.64
    endloop
  endfacet
  facet normal 0 -1 -0
    outer loop
      vertex 3.4641 6 8.64
      vertex -3.4641 6 2.4
      vertex 3.4641 6 2.4
    endloop
  endfacet
  facet normal 0 0 1
    outer loop
      vertex 6.9282 0 2.4
      vertex 3.52133 0.748482 2.4
      vertex 3.6 0 2.4
    endloop
  endfacet
  facet normal -0 0 1
    outer loop
      vertex 3.28876 1.46425 2.4
      vertex 6.9282 0 2.4
      vertex 3.4641 6 2.4
    endloop
  endfacet
  facet normal 0 0 1
    outer loop
      vertex 6.9282 0 2.4
      vertex 3.28876 1.46425 2.4
      vertex 3.52133 0.748482 2.4
    endloop
  endfacet
  facet normal 0 0 1
    outer loop
      vertex 3.4641 6 2.4
      vertex 2.91246 2.11603 2.4
      vertex 3.28876 1.46425 2.4
    endloop
  endfacet
  facet normal 0 0 1
    outer loop
      vertex 3.4641 6 2.4
      vertex 2.40887 2.67532 2.4
      vertex 2.91246 2.11603 2.4
    endloop
  endfacet
  facet normal 0 0 1
    outer loop
      vertex 3.4641 6 2.4
      vertex 1.8 3.11769 2.4
      vertex 2.40887 2.67532 2.4
    endloop
  endfacet
  facet normal 0 0 1
    outer loop
      vertex 3.4641 6 2.4
      vertex 1.11246 3.4238 2.4
      vertex 1.8 3.11769 2.4
    endloop
  endfacet
  facet normal 0 0 1
    outer loop
      vertex 3.4641 6 2.4
      vertex 0.376302 3.58028 2.4
      vertex 1.11246 3.4238 2.4
    endloop
  endfacet
  facet normal 0 0 1
    outer loop
      vertex 3.4641 6 2.4
      vertex -0.376302 3.58028 2.4
      vertex 0.376302 3.58028 2.4
    endloop
  endfacet
  facet normal -0 0 1
    outer loop
      vertex -3.4641 6 2.4
      vertex -0.376302 3.58028 2.4
      vertex 3.4641 6 2.4
    endloop
  endfacet
  facet normal 0 0 1
    outer loop
      vertex -0.376302 3.58028 2.4
      vertex -3.4641 6 2.4
      vertex -1.11246 3.4238 2.4
    endloop
  endfacet
  facet normal 0 0 1
    outer loop
      vertex -1.11246 3.4238 2.4
      vertex -3.4641 6 2.4
      vertex -1.8 3.11769 2.4
    endloop
  endfacet
  facet normal 0 0 1
    outer loop
      vertex -3.4641 6 2.4
      vertex -2.40887 2.67532 2.4
      vertex -1.8 3.11769 2.4
    endloop
  endfacet
  facet normal 0 0 1
    outer loop
      vertex -3.4641 6 2.4
      vertex -2.91246 2.11603 2.4
      vertex -2.40887 2.67532 2.4
    endloop
  endfacet
  facet normal 0 0 1
    outer loop
      vertex -3.4641 6 2.4
      vertex -3.28876 1.46425 2.4
      vertex -2.91246 2.11603 2.4
    endloop
  endfacet
  facet normal 0 0 1
    outer loop
      vertex -6.9282 0 2.4
      vertex -3.28876 1.46425 2.4
      vertex -3.4641 6 2.4
    endloop
  endfacet
  facet normal 0 0 1
    outer loop
      vertex -3.28876 1.46425 2.4
      vertex -6.9282 0 2.4
      vertex -3.52133 0.748482 2.4
    endloop
  endfacet
  facet normal 0 0 1
    outer loop
      vertex -3.52133 0.748482 2.4
      vertex -6.9282 0 2.4
      vertex -3.6 0 2.4
    endloop
  endfacet
  facet normal 0 0 1
    outer loop
      vertex 3.52133 -0.748482 2.4
      vertex 6.9282 0 2.4
      vertex 3.6 0 2.4
    endloop
  endfacet
  facet normal 0 0 1
    outer loop
      vertex 3.28876 -1.46425 2.4
      vertex 6.9282 0 2.4
      vertex 3.52133 -0.748482 2.4
    endloop
  endfacet
  facet normal 0 0 1
    outer loop
      vertex 6.9282 0 2.4
      vertex 3.28876 -1.46425 2.4
      vertex 3.4641 -6 2.4
    endloop
  endfacet
  facet normal -0 0 1
    outer loop
      vertex 2.91246 -2.11603 2.4
      vertex 3.4641 -6 2.4
      vertex 3.28876 -1.46425 2.4
    endloop
  endfacet
  facet normal -0 0 1
    outer loop
      vertex 2.40887 -2.67532 2.4
      vertex 3.4641 -6 2.4
      vertex 2.91246 -2.11603 2.4
    endloop
  endfacet
  facet normal -0 0 1
    outer loop
      vertex 1.8 -3.11769 2.4
      vertex 3.4641 -6 2.4
      vertex 2.40887 -2.67532 2.4
    endloop
  endfacet
  facet normal -0 0 1
    outer loop
      vertex 1.11246 -3.4238 2.4
      vertex 3.4641 -6 2.4
      vertex 1.8 -3.11769 2.4
    endloop
  endfacet
  facet normal -0 0 1
    outer loop
      vertex 0.376302 -3.58028 2.4
      vertex 3.4641 -6 2.4
      vertex 1.11246 -3.4238 2.4
    endloop
  endfacet
  facet normal -0 0 1
    outer loop
      vertex -0.376302 -3.58028 2.4
      vertex 3.4641 -6 2.4
      vertex 0.376302 -3.58028 2.4
    endloop
  endfacet
  facet normal 0 0 1
    outer loop
      vertex -3.4641 -6 2.4
      vertex -0.376302 -3.58028 2.4
      vertex -1.11246 -3.4238 2.4
    endloop
  endfacet
  facet normal 0 0 1
    outer loop
      vertex -3.4641 -6 2.4
      vertex -1.11246 -3.4238 2.4
      vertex -1.8 -3.11769 2.4
    endloop
  endfacet
  facet normal 0 0 1
    outer loop
      vertex -0.376302 -3.58028 2.4
      vertex -3.4641 -6 2.4
      vertex 3.4641 -6 2.4
    endloop
  endfacet
  facet normal 0 0 1
    outer loop
      vertex -2.40887 -2.67532 2.4
      vertex -3.4641 -6 2.4
      vertex -1.8 -3.11769 2.4
    endloop
  endfacet
  facet normal 0 0 1
    outer loop
      vertex -2.91246 -2.11603 2.4
      vertex -3.4641 -6 2.4
      vertex -2.40887 -2.67532 2.4
    endloop
  endfacet
  facet normal 0 0 1
    outer loop
      vertex -3.28876 -1.46425 2.4
      vertex -3.4641 -6 2.4
      vertex -2.91246 -2.11603 2.4
    endloop
  endfacet
  facet normal 0 0 1
    outer loop
      vertex -6.9282 0 2.4
      vertex -3.28876 -1.46425 2.4
      vertex -3.52133 -0.748482 2.4
    endloop
  endfacet
  facet normal -0 0 1
    outer loop
      vertex -6.9282 0 2.4
      vertex -3.52133 -0.748482 2.4
      vertex -3.6 0 2.4
    endloop
  endfacet
  facet normal 0 0 1
    outer loop
      vertex -3.28876 -1.46425 2.4
      vertex -6.9282 0 2.4
      vertex -3.4641 -6 2.4
    endloop
  endfacet
  facet normal -0.866025 0.5 0
    outer loop
      vertex 3.4641 -6 2.4
      vertex 6.9282 0 8.64
      vertex 6.9282 0 2.4
    endloop
  endfacet
  facet normal -0.866025 0.5 0
    outer loop
      vertex 6.9282 0 8.64
      vertex 3.4641 -6 2.4
      vertex 3.4641 -6 8.64
    endloop
  endfacet
  facet normal 0.866025 0.5 0
    outer loop
      vertex -3.4641 -6 8.64
      vertex -6.9282 0 2.4
      vertex -6.9282 0 8.64
    endloop
  endfacet
  facet normal 0.866025 0.5 0
    outer loop
      vertex -6.9282 0 2.4
      vertex -3.4641 -6 8.64
      vertex -3.4641 -6 2.4
    endloop
  endfacet
  facet normal 1.37651e-07 1 -0
    outer loop
      vertex 3.4641 -6 2.4
      vertex -3.4641 -6 8.64
      vertex 3.4641 -6 8.64
    endloop
  endfacet
  facet normal 1.37651e-07 1 0
    outer loop
      vertex -3.4641 -6 8.64
      vertex 3.4641 -6 2.4
      vertex -3.4641 -6 2.4
    endloop
  endfacet
endsolid OpenSCAD_Model
