solid OpenSCAD_Model
  facet normal -0 0 1
    outer loop
      vertex -10 10.2 13.5
      vertex 5.2 -10 13.5
      vertex 5.2 10.2 13.5
    endloop
  endfacet
  facet normal 0 0 1
    outer loop
      vertex 5.2 -10 13.5
      vertex -10 10.2 13.5
      vertex -10 -10 13.5
    endloop
  endfacet
  facet normal 0 0 -1
    outer loop
      vertex -10 -10 -0.1
      vertex 5.2 10.2 -0.1
      vertex 5.2 -10 -0.1
    endloop
  endfacet
  facet normal -0 0 -1
    outer loop
      vertex 5.2 10.2 -0.1
      vertex -10 -10 -0.1
      vertex -10 10.2 -0.1
    endloop
  endfacet
  facet normal 0 -1 0
    outer loop
      vertex -10 -10 -0.1
      vertex 5.2 -10 13.5
      vertex -10 -10 13.5
    endloop
  endfacet
  facet normal 0 -1 -0
    outer loop
      vertex 5.2 -10 13.5
      vertex -10 -10 -0.1
      vertex 5.2 -10 -0.1
    endloop
  endfacet
  facet normal 1 -0 0
    outer loop
      vertex 5.2 -10 13.5
      vertex 5.2 10.2 -0.1
      vertex 5.2 10.2 13.5
    endloop
  endfacet
  facet normal 1 0 0
    outer loop
      vertex 5.2 10.2 -0.1
      vertex 5.2 -10 13.5
      vertex 5.2 -10 -0.1
    endloop
  endfacet
  facet normal 0 1 -0
    outer loop
      vertex 5.2 10.2 -0.1
      vertex -10 10.2 13.5
      vertex 5.2 10.2 13.5
    endloop
  endfacet
  facet normal 0 1 0
    outer loop
      vertex -10 10.2 13.5
      vertex 5.2 10.2 -0.1
      vertex -10 10.2 -0.1
    endloop
  endfacet
  facet normal -1 0 0
    outer loop
      vertex -10 -10 -0.1
      vertex -10 10.2 13.5
      vertex -10 10.2 -0.1
    endloop
  endfacet
  facet normal -1 -0 0
    outer loop
      vertex -10 10.2 13.5
      vertex -10 -10 -0.1
      vertex -10 -10 13.5
    endloop
  endfacet
endsolid OpenSCAD_Model
