solid OpenSCAD_Model
  facet normal 0 0 -1
    outer loop
      vertex 0 4.5 0
      vertex 8 4.5 0
      vertex 0 2.5 0
    endloop
  endfacet
  facet normal 0 0 -1
    outer loop
      vertex 0 -2.5 0
      vertex -6 -2.5 0
      vertex -6 2.5 0
    endloop
  endfacet
  facet normal 0 -0 -1
    outer loop
      vertex 8 4.5 0
      vertex 8 -4.5 0
      vertex 0 2.5 0
    endloop
  endfacet
  facet normal 0 0 -1
    outer loop
      vertex 0 2.5 0
      vertex 8 -4.5 0
      vertex 0 -2.5 0
    endloop
  endfacet
  facet normal 0 0 -1
    outer loop
      vertex 0 -2.5 0
      vertex 8 -4.5 0
      vertex 0 -4.5 0
    endloop
  endfacet
  facet normal -0 -0 -1
    outer loop
      vertex 0 2.5 0
      vertex 0 -2.5 0
      vertex -6 2.5 0
    endloop
  endfacet
  facet normal 0 0 1
    outer loop
      vertex 0 2.5 5
      vertex 8 4.5 5
      vertex 0 4.5 5
    endloop
  endfacet
  facet normal 0 0 1
    outer loop
      vertex -6 2.5 5
      vertex -6 -2.5 5
      vertex 0 -2.5 5
    endloop
  endfacet
  facet normal -0 0 1
    outer loop
      vertex 0 2.5 5
      vertex 8 -4.5 5
      vertex 8 4.5 5
    endloop
  endfacet
  facet normal -0 0 1
    outer loop
      vertex 0 -2.5 5
      vertex 8 -4.5 5
      vertex 0 2.5 5
    endloop
  endfacet
  facet normal 0 0 1
    outer loop
      vertex 0 -4.5 5
      vertex 8 -4.5 5
      vertex 0 -2.5 5
    endloop
  endfacet
  facet normal -0 0 1
    outer loop
      vertex -6 2.5 5
      vertex 0 -2.5 5
      vertex 0 2.5 5
    endloop
  endfacet
  facet normal 0 1 0
    outer loop
      vertex 0 4.5 0
      vertex 8 4.5 5
      vertex 8 4.5 0
    endloop
  endfacet
  facet normal 0 1 0
    outer loop
      vertex 0 4.5 0
      vertex 0 4.5 5
      vertex 8 4.5 5
    endloop
  endfacet
  facet normal -1 0 0
    outer loop
      vertex 0 2.5 0
      vertex 0 4.5 5
      vertex 0 4.5 0
    endloop
  endfacet
  facet normal -1 0 0
    outer loop
      vertex 0 2.5 0
      vertex 0 2.5 5
      vertex 0 4.5 5
    endloop
  endfacet
  facet normal 0 1 0
    outer loop
      vertex -6 2.5 0
      vertex 0 2.5 5
      vertex 0 2.5 0
    endloop
  endfacet
  facet normal 0 1 0
    outer loop
      vertex -6 2.5 0
      vertex -6 2.5 5
      vertex 0 2.5 5
    endloop
  endfacet
  facet normal -1 0 0
    outer loop
      vertex -6 -2.5 0
      vertex -6 2.5 5
      vertex -6 2.5 0
    endloop
  endfacet
  facet normal -1 0 0
    outer loop
      vertex -6 -2.5 0
      vertex -6 -2.5 5
      vertex -6 2.5 5
    endloop
  endfacet
  facet normal 0 -1 0
    outer loop
      vertex 0 -2.5 0
      vertex -6 -2.5 5
      vertex -6 -2.5 0
    endloop
  endfacet
  facet normal 0 -1 0
    outer loop
      vertex 0 -2.5 0
      vertex 0 -2.5 5
      vertex -6 -2.5 5
    endloop
  endfacet
  facet normal -1 0 0
    outer loop
      vertex 0 -4.5 0
      vertex 0 -2.5 5
      vertex 0 -2.5 0
    endloop
  endfacet
  facet normal -1 0 0
    outer loop
      vertex 0 -4.5 0
      vertex 0 -4.5 5
      vertex 0 -2.5 5
    endloop
  endfacet
  facet normal 0 -1 0
    outer loop
      vertex 8 -4.5 0
      vertex 0 -4.5 5
      vertex 0 -4.5 0
    endloop
  endfacet
  facet normal 0 -1 0
    outer loop
      vertex 8 -4.5 0
      vertex 8 -4.5 5
      vertex 0 -4.5 5
    endloop
  endfacet
  facet normal 1 0 0
    outer loop
      vertex 8 4.5 0
      vertex 8 -4.5 5
      vertex 8 -4.5 0
    endloop
  endfacet
  facet normal 1 0 -0
    outer loop
      vertex 8 4.5 0
      vertex 8 4.5 5
      vertex 8 -4.5 5
    endloop
  endfacet
endsolid OpenSCAD_Model
