solid OpenSCAD_Model
  facet normal 0 0 -1
    outer loop
      vertex 0 3.59999 0
      vertex 2.39999 3.59999 0
      vertex 0 1.2 0
    endloop
  endfacet
  facet normal 0 0 -1
    outer loop
      vertex 0 -1.2 0
      vertex -6 -1.2 0
      vertex -6 1.2 0
    endloop
  endfacet
  facet normal 0 -0 -1
    outer loop
      vertex 2.39999 3.59999 0
      vertex 2.39999 -3.59999 0
      vertex 0 1.2 0
    endloop
  endfacet
  facet normal 0 0 -1
    outer loop
      vertex 0 1.2 0
      vertex 2.39999 -3.59999 0
      vertex 0 -1.2 0
    endloop
  endfacet
  facet normal 0 0 -1
    outer loop
      vertex 0 -1.2 0
      vertex 2.39999 -3.59999 0
      vertex 0 -3.59999 0
    endloop
  endfacet
  facet normal -0 -0 -1
    outer loop
      vertex 0 1.2 0
      vertex 0 -1.2 0
      vertex -6 1.2 0
    endloop
  endfacet
  facet normal 0 0 1
    outer loop
      vertex 0 1.2 6
      vertex 2.39999 3.59999 6
      vertex 0 3.59999 6
    endloop
  endfacet
  facet normal 0 0 1
    outer loop
      vertex -6 1.2 6
      vertex -6 -1.2 6
      vertex 0 -1.2 6
    endloop
  endfacet
  facet normal -0 0 1
    outer loop
      vertex 0 1.2 6
      vertex 2.39999 -3.59999 6
      vertex 2.39999 3.59999 6
    endloop
  endfacet
  facet normal -0 0 1
    outer loop
      vertex 0 -1.2 6
      vertex 2.39999 -3.59999 6
      vertex 0 1.2 6
    endloop
  endfacet
  facet normal 0 0 1
    outer loop
      vertex 0 -3.59999 6
      vertex 2.39999 -3.59999 6
      vertex 0 -1.2 6
    endloop
  endfacet
  facet normal -0 0 1
    outer loop
      vertex -6 1.2 6
      vertex 0 -1.2 6
      vertex 0 1.2 6
    endloop
  endfacet
  facet normal 0 1 0
    outer loop
      vertex 0 3.59999 0
      vertex 2.39999 3.59999 6
      vertex 2.39999 3.59999 0
    endloop
  endfacet
  facet normal 0 1 0
    outer loop
      vertex 0 3.59999 0
      vertex 0 3.59999 6
      vertex 2.39999 3.59999 6
    endloop
  endfacet
  facet normal -1 0 0
    outer loop
      vertex 0 1.2 0
      vertex 0 3.59999 6
      vertex 0 3.59999 0
    endloop
  endfacet
  facet normal -1 0 0
    outer loop
      vertex 0 1.2 0
      vertex 0 1.2 6
      vertex 0 3.59999 6
    endloop
  endfacet
  facet normal 0 1 0
    outer loop
      vertex -6 1.2 0
      vertex 0 1.2 6
      vertex 0 1.2 0
    endloop
  endfacet
  facet normal 0 1 0
    outer loop
      vertex -6 1.2 0
      vertex -6 1.2 6
      vertex 0 1.2 6
    endloop
  endfacet
  facet normal -1 0 0
    outer loop
      vertex -6 -1.2 0
      vertex -6 1.2 6
      vertex -6 1.2 0
    endloop
  endfacet
  facet normal -1 0 0
    outer loop
      vertex -6 -1.2 0
      vertex -6 -1.2 6
      vertex -6 1.2 6
    endloop
  endfacet
  facet normal 0 -1 0
    outer loop
      vertex 0 -1.2 0
      vertex -6 -1.2 6
      vertex -6 -1.2 0
    endloop
  endfacet
  facet normal 0 -1 0
    outer loop
      vertex 0 -1.2 0
      vertex 0 -1.2 6
      vertex -6 -1.2 6
    endloop
  endfacet
  facet normal -1 0 0
    outer loop
      vertex 0 -3.59999 0
      vertex 0 -1.2 6
      vertex 0 -1.2 0
    endloop
  endfacet
  facet normal -1 0 0
    outer loop
      vertex 0 -3.59999 0
      vertex 0 -3.59999 6
      vertex 0 -1.2 6
    endloop
  endfacet
  facet normal 0 -1 0
    outer loop
      vertex 2.39999 -3.59999 0
      vertex 0 -3.59999 6
      vertex 0 -3.59999 0
    endloop
  endfacet
  facet normal 0 -1 0
    outer loop
      vertex 2.39999 -3.59999 0
      vertex 2.39999 -3.59999 6
      vertex 0 -3.59999 6
    endloop
  endfacet
  facet normal 1 0 0
    outer loop
      vertex 2.39999 3.59999 0
      vertex 2.39999 -3.59999 6
      vertex 2.39999 -3.59999 0
    endloop
  endfacet
  facet normal 1 0 -0
    outer loop
      vertex 2.39999 3.59999 0
      vertex 2.39999 3.59999 6
      vertex 2.39999 -3.59999 6
    endloop
  endfacet
endsolid OpenSCAD_Model
